<svg id="SvgjsSvg1030" width="288" height="288" xmlns="http://www.w3.org/2000/svg" version="1.1" xmlns:xlink="http://www.w3.org/1999/xlink" xmlns:svgjs="http://svgjs.com/svgjs"><defs id="SvgjsDefs1031"></defs><g id="SvgjsG1032"><svg xmlns="http://www.w3.org/2000/svg" viewBox="0 0 101 101" width="288" height="288"><path d="M50.5 92.2c18.8 0 34.1-15.3 34.1-34.1S69.3 24 50.5 24 16.4 39.3 16.4 58.1s15.3 34.1 34.1 34.1zm0-63.4c16.1 0 29.3 13.1 29.3 29.3S66.6 87.4 50.5 87.4 21.2 74.2 21.2 58.1s13.2-29.3 29.3-29.3z" fill="#ffffff" class="color000 svgShape"></path><path d="M44.2 75.8c1.3 0 2.4-1.1 2.4-2.4V42.3c0-1.3-1.1-2.4-2.4-2.4-1.3 0-2.4 1.1-2.4 2.4v31.1c0 1.3 1.1 2.4 2.4 2.4zM56.8 75.8c1.3 0 2.4-1.1 2.4-2.4V42.3c0-1.3-1.1-2.4-2.4-2.4-1.3 0-2.4 1.1-2.4 2.4v31.1c0 1.3 1 2.4 2.4 2.4z" fill="#ffffff" class="color000 svgShape"></path></svg></g></svg>