<svg width="24" height="24" viewBox="0 0 24 24" fill="none" xmlns="http://www.w3.org/2000/svg">
<path d="M18 6.00281V6.01281" stroke="#6BB64A" stroke-width="1.75" stroke-linecap="round" stroke-linejoin="round"/>
<path d="M18 6.00281V6.01281" stroke="white" stroke-opacity="0.2" stroke-width="1.75" stroke-linecap="round" stroke-linejoin="round"/>
<path d="M18 12.999L14.5 7.99899C13.5691 6.31651 13.967 4.20974 15.4475 2.98275C16.928 1.75575 19.072 1.75575 20.5525 2.98275C22.0329 4.20974 22.4309 6.31651 21.5 7.99899L18 12.999" stroke="#6BB64A" stroke-width="1.75" stroke-linecap="round" stroke-linejoin="round"/>
<path d="M18 12.999L14.5 7.99899C13.5691 6.31651 13.967 4.20974 15.4475 2.98275C16.928 1.75575 19.072 1.75575 20.5525 2.98275C22.0329 4.20974 22.4309 6.31651 21.5 7.99899L18 12.999" stroke="white" stroke-opacity="0.2" stroke-width="1.75" stroke-linecap="round" stroke-linejoin="round"/>
<path d="M10.5 4.75L9 4L3 7V20L9 17L15 20L21 17V15" stroke="#6BB64A" stroke-width="1.75" stroke-linecap="round" stroke-linejoin="round"/>
<path d="M10.5 4.75L9 4L3 7V20L9 17L15 20L21 17V15" stroke="white" stroke-opacity="0.2" stroke-width="1.75" stroke-linecap="round" stroke-linejoin="round"/>
<path d="M9 4V17" stroke="#6BB64A" stroke-width="1.75" stroke-linecap="round" stroke-linejoin="round"/>
<path d="M9 4V17" stroke="white" stroke-opacity="0.2" stroke-width="1.75" stroke-linecap="round" stroke-linejoin="round"/>
<path d="M15 15V20" stroke="#6BB64A" stroke-width="1.75" stroke-linecap="round" stroke-linejoin="round"/>
<path d="M15 15V20" stroke="white" stroke-opacity="0.2" stroke-width="1.75" stroke-linecap="round" stroke-linejoin="round"/>
</svg>
