<svg width="34" height="34" viewBox="0 0 34 34" fill="none" xmlns="http://www.w3.org/2000/svg">
<path d="M32.8677 0H31.7344V1.13333H32.8677V0Z" fill="#252B33"/>
<path d="M32.8677 2.2666H31.7344V3.39993H32.8677V2.2666Z" fill="#252B33"/>
<path d="M34.0005 1.1333H32.8672V2.26663H34.0005V1.1333Z" fill="#252B33"/>
<path d="M31.7349 1.1333H30.6016V2.26663H31.7349V1.1333Z" fill="#252B33"/>
<path d="M27.1974 13.0332C24.6939 13.0332 22.6641 15.063 22.6641 17.5665C22.6641 20.0701 24.6939 22.0999 27.1974 22.0999C29.7009 22.0999 31.7307 20.0701 31.7307 17.5665C31.7307 15.063 29.7009 13.0332 27.1974 13.0332ZM27.7641 19.8043V20.3999H26.6307V19.8332H26.0641V18.6999H27.4807C27.6371 18.6999 27.7641 18.5724 27.7641 18.4165C27.7641 18.2607 27.6371 18.1332 27.4807 18.1332H26.9141C26.1332 18.1332 25.4974 17.498 25.4974 16.7165C25.4974 16.032 25.9847 15.4602 26.6307 15.3288V14.7332H27.7641V15.2999H28.3307V16.4332H26.9141C26.7577 16.4332 26.6307 16.5607 26.6307 16.7165C26.6307 16.8724 26.7577 16.9999 26.9141 16.9999H27.4807C28.2616 16.9999 28.8974 17.6351 28.8974 18.4165C28.8974 19.1011 28.4101 19.6728 27.7641 19.8043Z" fill="#252B33"/>
<path d="M27.7661 10.7666H26.6328V11.8999H27.7661V10.7666Z" fill="#252B33"/>
<path d="M27.7661 23.2334H26.6328V24.3667H27.7661V23.2334Z" fill="#252B33"/>
<path d="M34.0005 17H32.8672V18.1333H34.0005V17Z" fill="#252B33"/>
<path d="M21.5318 17H20.3984V18.1333H21.5318V17Z" fill="#252B33"/>
<path d="M31.6061 12.3578L30.8047 13.1592L31.6061 13.9606L32.4074 13.1592L31.6061 12.3578Z" fill="#252B33"/>
<path d="M22.7936 21.1727L21.9922 21.9741L22.7936 22.7755L23.5949 21.9741L22.7936 21.1727Z" fill="#252B33"/>
<path d="M31.6061 21.1732L30.8047 21.9746L31.6061 22.776L32.4074 21.9746L31.6061 21.1732Z" fill="#252B33"/>
<path d="M22.7936 12.3578L21.9922 13.1592L22.7936 13.9606L23.5949 13.1592L22.7936 12.3578Z" fill="#252B33"/>
<path d="M15.8688 11.3333H12.4688V13.6H15.8688V15.3L19.2688 12.4666L15.8688 9.6333V11.3333Z" fill="#252B33"/>
<path d="M19.2688 27.7669H12.4688V30.0336H19.2688V31.7336L22.6687 28.9002L19.2688 26.0669V27.7669Z" fill="#252B33"/>
<path d="M5.66563 8.4762L7.36562 6.8986V6.34157C8.38109 5.75337 9.06563 4.658 9.06563 3.4C9.06563 1.52207 7.54356 0 5.66563 0C3.78769 0 2.26562 1.52207 2.26562 3.4C2.26562 4.658 2.95016 5.75337 3.96563 6.34157V6.8986L5.66563 8.4762Z" fill="#252B33"/>
<path d="M8.23933 7.36664H7.69533L5.8599 9.07004C5.8055 9.12047 5.73637 9.14597 5.66723 9.14597C5.5981 9.14597 5.52897 9.12047 5.47457 9.07004L3.638 7.36664H3.094C1.3855 7.36664 0 8.75214 0 10.4606V14.7333H11.3333V10.4606C11.3333 8.75214 9.94783 7.36664 8.23933 7.36664ZM5.55333 13.7133L4.53333 11.1633L5.55333 9.6333L6.57333 11.1633L5.55333 13.7133Z" fill="#252B33"/>
<path d="M5.66563 27.7428L7.36562 26.1652V25.6082C8.38109 25.02 9.06563 23.9246 9.06563 22.6666C9.06563 20.7887 7.54356 19.2666 5.66563 19.2666C3.78769 19.2666 2.26562 20.7887 2.26562 22.6666C2.26562 23.9246 2.95016 25.02 3.96563 25.6082V26.1652L5.66563 27.7428Z" fill="#252B33"/>
<path d="M8.23933 26.6334H7.69533L5.8599 28.3368C5.8055 28.3872 5.73637 28.4127 5.66723 28.4127C5.5981 28.4127 5.52897 28.3872 5.47457 28.3368L3.638 26.6334H3.094C1.3855 26.6334 0 28.0189 0 29.7274V34H11.3333V29.7274C11.3333 28.0189 9.94783 26.6334 8.23933 26.6334ZM5.55333 32.98L4.53333 30.43L5.55333 28.9L6.57333 30.43L5.55333 32.98Z" fill="#252B33"/>
</svg>
