<svg width="10" height="15" viewBox="0 0 10 15" fill="none" xmlns="http://www.w3.org/2000/svg">
<path d="M0.750731 1.32492C0.512729 1.54916 0.323928 1.81542 0.195114 2.10847C0.0663013 2.40153 0 2.71563 0 3.03285C0 3.35007 0.0663013 3.66418 0.195114 3.95723C0.323928 4.25028 0.512729 4.51654 0.750731 4.74078L3.8146 7.62916L0.750731 10.5185C0.281781 10.9737 0.0216589 11.5846 0.0265779 12.2191C0.031497 12.8537 0.301063 13.4609 0.777019 13.9096C1.25297 14.3583 1.8971 14.6124 2.57018 14.617C3.24327 14.6217 3.89126 14.3765 4.37412 13.9344L9.24968 9.33709C9.73011 8.88408 10 8.26973 10 7.62916C10 6.98858 9.73011 6.37423 9.24968 5.92123L4.37412 1.32492C4.13625 1.10055 3.85382 0.922561 3.54297 0.801126C3.23211 0.679691 2.89892 0.617188 2.56243 0.617188C2.22594 0.617188 1.89274 0.679691 1.58189 0.801126C1.27103 0.922561 0.988597 1.10055 0.750731 1.32492Z" fill="#6BB64A"/>
</svg>
