<svg width="67" height="42" viewBox="0 0 67 42" fill="none" xmlns="http://www.w3.org/2000/svg">
<path fill-rule="evenodd" clip-rule="evenodd" d="M62.2244 0.333828L61.5327 0.332031H5.30734L4.61301 0.333828C4.42708 0.333828 4.24025 0.336522 4.05252 0.341911C3.72377 0.350894 3.34022 0.368859 2.98363 0.432633C2.69838 0.480161 2.42191 0.570397 2.16355 0.700304C1.66366 0.95375 1.25726 1.35952 1.00304 1.85902C0.872855 2.11758 0.782606 2.39439 0.735367 2.68C0.670695 3.03929 0.65273 3.42283 0.643748 3.74978C0.639257 3.93661 0.636562 4.12434 0.635664 4.31117L0.634766 4.85909V36.7309L0.635664 37.2815C0.636562 37.4674 0.639257 37.6542 0.644646 37.842C0.653628 38.1689 0.670695 38.5516 0.734469 38.9082C0.791057 39.2207 0.87549 39.4812 1.00214 39.73C1.25502 40.2301 1.66097 40.6364 2.16085 40.8896C2.41236 41.0181 2.67284 41.1025 2.98273 41.1591C3.34471 41.2238 3.74443 41.2409 4.05162 41.2489C4.23396 41.2534 4.42259 41.2561 4.61121 41.257C4.84206 41.2588 5.06931 41.2588 5.29656 41.2588H61.5327C61.7627 41.2588 61.9935 41.2588 62.2244 41.257C62.4166 41.257 62.6052 41.2534 62.7947 41.2498C63.0947 41.2409 63.4954 41.2229 63.8591 41.1582C64.1428 41.1107 64.4178 41.0208 64.6747 40.8914C65.1762 40.6383 65.5835 40.2313 65.837 39.73C65.9669 39.4727 66.0569 39.1971 66.1038 38.9127C66.1685 38.5552 66.1864 38.1707 66.1954 37.8411C66.1999 37.6551 66.2026 37.4683 66.2035 37.2824C66.2053 37.0515 66.2053 36.8261 66.2053 36.5997V4.99113C66.2053 4.76478 66.2053 4.53843 66.2035 4.31207C66.2026 4.12165 66.1999 3.93482 66.1945 3.74978C66.1909 3.39206 66.1609 3.03509 66.1047 2.68179C66.0579 2.39648 65.9679 2.11995 65.8379 1.86171C65.5831 1.36202 65.1769 0.955565 64.6774 0.700304C64.4189 0.569753 64.1421 0.478911 63.8564 0.430836C63.5028 0.374732 63.1456 0.344711 62.7875 0.341014C62.5989 0.335624 62.4121 0.333828 62.2244 0.332031V0.333828ZM17.8726 12.6898C18.4592 11.956 18.8571 10.9715 18.7529 9.96461C17.8942 10.0077 16.846 10.5305 16.2397 11.2652C15.6953 11.894 15.213 12.9198 15.3387 13.8845C16.3025 13.968 17.2654 13.4021 17.8726 12.6898V12.6898ZM18.7412 14.0722C17.8897 14.0219 17.1154 14.3264 16.4903 14.5734C16.0861 14.7315 15.7447 14.8662 15.4833 14.8662C15.1941 14.8662 14.8393 14.7261 14.4405 14.5689C13.915 14.3605 13.3132 14.1234 12.6836 14.1342C11.2428 14.1557 9.90626 14.9695 9.1751 16.2657C7.67147 18.858 8.77809 22.7024 10.2404 24.8132C10.95 25.8578 11.8069 27.0076 12.9351 26.9662C13.4291 26.9474 13.783 26.7974 14.1504 26.6429C14.5752 26.4632 15.0181 26.2764 15.7133 26.2764C16.3753 26.2764 16.7975 26.4569 17.2026 26.6312C17.5888 26.7965 17.9607 26.9555 18.5113 26.9456C19.6808 26.9249 20.4119 25.9009 21.1224 24.8554C21.6221 24.1201 22.0138 23.317 22.2856 22.4706L22.291 22.4527C22.291 22.4509 22.2802 22.4464 22.2641 22.4383H22.2632C22.0009 22.3179 20.0347 21.4143 20.0149 19.0035C19.9951 16.9807 21.5634 15.9549 21.8203 15.786C21.8316 15.7791 21.8427 15.7719 21.8536 15.7645C20.8503 14.2815 19.2846 14.1144 18.7412 14.0722V14.0722ZM36.086 16.3088C36.086 13.2566 33.968 11.1593 30.9266 11.1593H25.0486V26.836H27.4828V21.4799H30.8502C33.9248 21.4799 36.0869 19.3726 36.0869 16.3088H36.086ZM30.2744 19.4382H27.4828V13.2135H30.2852C32.3925 13.2135 33.5988 14.3426 33.5988 16.3196C33.5988 18.2975 32.3925 19.4382 30.2744 19.4382ZM36.7228 23.588C36.7228 21.5895 38.2543 20.3616 40.9714 20.2098L44.099 20.0247V19.1445C44.099 17.8735 43.2412 17.1136 41.8068 17.1136C40.4487 17.1136 39.6016 17.7648 39.395 18.7861H37.1791C37.3094 16.722 39.069 15.2013 41.8939 15.2013C44.664 15.2013 46.4353 16.6681 46.4353 18.9603V26.8369H44.1862V24.9569H44.1323C43.4694 26.2279 42.0241 27.0318 40.525 27.0318C38.2875 27.0318 36.7228 25.6414 36.7228 23.588V23.588ZM44.099 22.556V21.6559L41.2849 21.8302C39.8837 21.9281 39.0905 22.547 39.0905 23.5251C39.0905 24.524 39.9169 25.1761 41.1771 25.1761C42.8173 25.1761 44.099 24.0461 44.099 22.5577V22.556ZM48.5578 29.1399V31.0406C48.7312 31.0729 49.3177 31.0945 49.5136 31.0945C51.8822 31.0945 53.0122 30.2043 53.9894 27.4333L58.2704 15.407H55.7931L52.9035 24.7072H52.8604L49.9699 15.407H47.4279L51.5561 26.8468C51.5561 26.8513 51.5202 26.9698 51.4789 27.1073V27.1091C51.4205 27.3049 51.3495 27.5402 51.3495 27.5537C50.9911 28.7268 50.4046 29.1831 49.3186 29.1831C49.1228 29.1831 48.7312 29.1831 48.5578 29.1391V29.1399Z" fill="white"/>
</svg>
