<svg width="64" height="64" viewBox="0 0 64 64" fill="none" xmlns="http://www.w3.org/2000/svg">
<g clip-path="url(#clip0_3230_944)">
<path d="M10.7751 40.8236C11.5041 40.8236 12.0951 40.2326 12.0951 39.5036C12.0951 38.7746 11.5041 38.1836 10.7751 38.1836C10.0461 38.1836 9.45508 38.7746 9.45508 39.5036C9.45508 40.2326 10.0461 40.8236 10.7751 40.8236Z" fill="#6BB64A"/>
<path d="M57.5432 38.7915L50.0152 26.9675C49.8313 26.6727 49.5899 26.4181 49.3054 26.2188C49.0208 26.0195 48.699 25.8796 48.3592 25.8075C47.6817 25.6703 46.9773 25.79 46.3832 26.1435L43.4152 27.9995C43.1199 28.1827 42.8648 28.4239 42.6654 28.7085C42.466 28.9932 42.3264 29.3153 42.2552 29.6555C42.1993 30.0187 42.1993 30.3883 42.2552 30.7515C40.5664 31.0476 38.8307 30.9268 37.1992 30.3995L34.8872 29.5995C34.1836 29.3612 33.4288 29.3171 32.7022 29.472C31.9757 29.6269 31.3044 29.9749 30.7592 30.4795L28.8392 30.1995C27.5708 30.0346 26.2825 30.2666 25.1512 30.8635L24.3512 31.3035C24.0754 31.4547 23.7697 31.5432 23.4557 31.5625C23.1418 31.5819 22.8275 31.5317 22.5352 31.4155L21.2152 30.8635C21.3189 30.4693 21.338 30.0576 21.2712 29.6555C21.1201 28.982 20.7201 28.3904 20.1512 27.9995L17.1752 26.1355C16.8885 25.9512 16.568 25.8257 16.2324 25.7662C15.8968 25.7066 15.5528 25.7143 15.2201 25.7887C14.8875 25.8631 14.573 26.0028 14.2947 26.1996C14.0165 26.3965 13.7801 26.6466 13.5992 26.9355L6.07121 38.7915C5.87677 39.0836 5.74632 39.4135 5.68841 39.7595C5.63051 40.1056 5.64645 40.46 5.73521 40.7995C5.90902 41.4587 6.3227 42.0293 6.89521 42.3995L9.86321 44.2635C10.2763 44.5191 10.7535 44.6522 11.2392 44.6475C11.6779 44.6474 12.1095 44.5367 12.4941 44.3255C12.8786 44.1144 13.2037 43.8096 13.4392 43.4395L13.4952 43.3275L15.1432 44.4315C14.7147 44.9495 14.4946 45.6084 14.5256 46.2799C14.5567 46.9514 14.8368 47.5873 15.3112 48.0635C15.541 48.3144 15.8203 48.5151 16.1314 48.6528C16.4426 48.7905 16.7789 48.8622 17.1192 48.8635C17.1336 49.5457 17.4115 50.1958 17.8947 50.6776C18.378 51.1593 19.029 51.4352 19.7112 51.4475C19.7215 52.1296 19.9971 52.7809 20.4795 53.2632C20.9618 53.7456 21.6131 54.0212 22.2952 54.0315C22.3004 54.3788 22.3745 54.7217 22.5132 55.0402C22.6519 55.3587 22.8524 55.6465 23.1032 55.8869C23.354 56.1272 23.6501 56.3154 23.9742 56.4405C24.2982 56.5656 24.6439 56.6251 24.9912 56.6155C25.7093 56.6012 26.3954 56.3154 26.9112 55.8155L27.7112 55.0155L28.9752 56.5515L29.0312 56.6075C29.3357 56.919 29.6989 57.1671 30.0999 57.3373C30.5009 57.5076 30.9316 57.5967 31.3672 57.5995C31.8008 57.6067 32.2309 57.522 32.6294 57.351C33.0279 57.18 33.3857 56.9266 33.6792 56.6075C34.2255 56.0648 34.5579 55.3434 34.6152 54.5755C35.1293 54.6806 35.6609 54.6629 36.1669 54.5239C36.6729 54.3849 37.1389 54.1285 37.5272 53.7755L37.5832 53.7195C38.1295 53.1768 38.4619 52.4554 38.5192 51.6875C39.0482 51.7929 39.5949 51.7679 40.1121 51.6146C40.6292 51.4613 41.1012 51.1842 41.4872 50.8075C42.0443 50.2389 42.3695 49.483 42.3992 48.6875C42.6629 48.7363 42.9313 48.7551 43.1992 48.7435C43.6356 48.7396 44.0664 48.6452 44.4644 48.4662C44.8624 48.2872 45.2188 48.0274 45.5112 47.7035C45.9373 47.2219 46.2151 46.6273 46.3112 45.9915L50.3112 43.5915C50.5542 43.916 50.8694 44.1796 51.2317 44.3615C51.5941 44.5434 51.9938 44.6386 52.3992 44.6395C52.8876 44.6565 53.3691 44.5194 53.7752 44.2475L56.7192 42.3995C57.0146 42.2163 57.2697 41.9751 57.469 41.6905C57.6684 41.4058 57.808 41.0836 57.8792 40.7435C58.03 40.074 57.9092 39.372 57.5432 38.7915ZM11.9432 42.5275C11.8107 42.7135 11.6147 42.8447 11.3922 42.8962C11.1697 42.9478 10.9361 42.9162 10.7352 42.8075L7.77521 40.9355C7.67497 40.8769 7.58871 40.7971 7.52239 40.7018C7.45608 40.6065 7.41132 40.4979 7.39121 40.3835C7.34671 40.1594 7.38359 39.9268 7.49521 39.7275L15.0312 27.9035C15.1637 27.7175 15.3597 27.5863 15.5822 27.5347C15.8047 27.4832 16.0384 27.5147 16.2392 27.6235L19.1992 29.4955C19.2994 29.5541 19.3857 29.6339 19.452 29.7292C19.5183 29.8245 19.5631 29.9331 19.5832 30.0475C19.629 30.2725 19.5891 30.5065 19.4712 30.7035L11.9432 42.5275ZM16.5112 46.8715C16.4198 46.7876 16.3468 46.6856 16.2969 46.5719C16.247 46.4583 16.2212 46.3356 16.2212 46.2115C16.2212 46.0874 16.247 45.9646 16.2969 45.851C16.3468 45.7374 16.4198 45.6354 16.5112 45.5515L18.7112 43.3515C18.8904 43.1855 19.1231 43.089 19.3672 43.0795C19.6137 43.0892 19.8488 43.1855 20.0312 43.3515C20.1226 43.4354 20.1956 43.5374 20.2455 43.651C20.2954 43.7646 20.3212 43.8874 20.3212 44.0115C20.3212 44.1356 20.2954 44.2583 20.2455 44.3719C20.1956 44.4856 20.1226 44.5876 20.0312 44.6715L17.8392 46.8715C17.7559 46.964 17.6541 47.038 17.5404 47.0886C17.4267 47.1392 17.3037 47.1654 17.1792 47.1654C17.0547 47.1654 16.9317 47.1392 16.818 47.0886C16.7043 47.038 16.6025 46.964 16.5192 46.8715H16.5112ZM19.0952 49.4635C19.0038 49.3796 18.9308 49.2776 18.8809 49.1639C18.831 49.0503 18.8052 48.9276 18.8052 48.8035C18.8052 48.6794 18.831 48.5566 18.8809 48.443C18.9308 48.3294 19.0038 48.2274 19.0952 48.1435L21.2952 45.9435L21.7352 45.5035C21.9124 45.3333 22.1457 45.2337 22.3912 45.2235C22.5151 45.2226 22.6379 45.247 22.752 45.2951C22.8662 45.3433 22.9694 45.4142 23.0552 45.5035C23.2244 45.6807 23.3214 45.9146 23.3272 46.1595C23.3287 46.2827 23.3053 46.405 23.2586 46.5191C23.2119 46.6332 23.1427 46.7367 23.0552 46.8235L20.4712 49.4635C20.2897 49.6447 20.0437 49.7465 19.7872 49.7465C19.5307 49.7465 19.2847 49.6447 19.1032 49.4635H19.0952ZM21.6792 52.0475C21.5878 51.9636 21.5148 51.8616 21.4649 51.7479C21.415 51.6343 21.3892 51.5116 21.3892 51.3875C21.3892 51.2634 21.415 51.1406 21.4649 51.027C21.5148 50.9134 21.5878 50.8114 21.6792 50.7275L23.8792 48.5275C23.965 48.4392 24.0676 48.369 24.1809 48.3211C24.2943 48.2731 24.4161 48.2484 24.5392 48.2484C24.6623 48.2484 24.7841 48.2731 24.8975 48.3211C25.0109 48.369 25.1135 48.4392 25.1992 48.5275C25.3684 48.7047 25.4654 48.9386 25.4712 49.1835C25.4736 49.3069 25.4507 49.4294 25.4039 49.5436C25.3571 49.6578 25.2875 49.7612 25.1992 49.8475L22.9992 52.0475C22.9154 52.1376 22.8138 52.2095 22.701 52.2587C22.5881 52.3078 22.4663 52.3332 22.3432 52.3332C22.2201 52.3332 22.0983 52.3078 21.9855 52.2587C21.8726 52.2095 21.7711 52.1376 21.6872 52.0475H21.6792ZM27.3432 52.8475L25.5992 54.6315C25.4218 54.8021 25.1853 54.8974 24.9392 54.8974C24.6931 54.8974 24.4566 54.8021 24.2792 54.6315C24.1132 54.4491 24.0169 54.2139 24.0072 53.9675C24.0064 53.8455 24.03 53.7246 24.0767 53.6119C24.1235 53.4992 24.1923 53.3971 24.2792 53.3115L26.0392 51.5515C26.2189 51.3802 26.4551 51.2806 26.7032 51.2715C26.826 51.2703 26.9476 51.2945 27.0606 51.3427C27.1735 51.3909 27.2752 51.462 27.3592 51.5515C27.4501 51.636 27.5225 51.7384 27.5717 51.8523C27.6209 51.9662 27.646 52.0891 27.6452 52.2132C27.6445 52.3373 27.618 52.4599 27.5673 52.5732C27.5167 52.6866 27.4431 52.7881 27.3512 52.8715L27.3432 52.8475ZM44.2392 46.5435C43.9614 46.8223 43.5848 46.9804 43.1912 46.9835H43.1352C42.9109 46.9861 42.6883 46.9435 42.4808 46.8583C42.2732 46.7731 42.085 46.647 41.9272 46.4875L41.5432 46.1595L39.3432 43.9995C39.1818 43.8417 38.965 43.7533 38.7392 43.7533C38.5134 43.7533 38.2966 43.8417 38.1352 43.9995C38.0551 44.0784 37.9916 44.1724 37.9482 44.2761C37.9048 44.3798 37.8824 44.4911 37.8824 44.6035C37.8824 44.7159 37.9048 44.8272 37.9482 44.9309C37.9916 45.0346 38.0551 45.1286 38.1352 45.2075L40.3352 47.4075C40.5951 47.6933 40.7329 48.0694 40.7192 48.4555C40.7218 48.6582 40.6843 48.8594 40.6088 49.0475C40.5332 49.2356 40.4212 49.4069 40.2792 49.5515C40.135 49.6964 39.9636 49.8113 39.7748 49.8898C39.586 49.9682 39.3836 50.0086 39.1792 50.0086C38.9748 50.0086 38.7724 49.9682 38.5836 49.8898C38.3948 49.8113 38.2234 49.6964 38.0792 49.5515L35.9352 47.4075C35.774 47.2462 35.5553 47.1556 35.3272 47.1556C35.0992 47.1556 34.8805 47.2462 34.7192 47.4075C34.558 47.5687 34.4674 47.7874 34.4674 48.0155C34.4674 48.2435 34.558 48.4622 34.7192 48.6235L36.3752 50.2715C36.6587 50.553 36.8227 50.9329 36.8331 51.3323C36.8436 51.7316 36.6996 52.1196 36.4312 52.4155C36.4164 52.4155 36.4021 52.4214 36.3916 52.4319C36.3811 52.4424 36.3752 52.4566 36.3752 52.4715C36.0781 52.7528 35.6844 52.9096 35.2752 52.9096C34.866 52.9096 34.4724 52.7528 34.1752 52.4715L32.6312 50.9275C32.4698 50.7697 32.253 50.6813 32.0272 50.6813C31.8014 50.6813 31.5846 50.7697 31.4232 50.9275C31.2649 51.0903 31.1763 51.3084 31.1763 51.5355C31.1763 51.7626 31.2649 51.9807 31.4232 52.1435L32.5192 53.2395C32.6512 53.3792 32.7538 53.5439 32.8212 53.7239C32.8885 53.9038 32.9191 54.0955 32.9112 54.2875C32.9097 54.6956 32.7523 55.0876 32.4712 55.3835C32.1894 55.6693 31.8078 55.8348 31.4065 55.8452C31.0052 55.8557 30.6155 55.7103 30.3192 55.4395L28.9512 53.7915C29.3115 53.2705 29.4805 52.6409 29.4295 52.0095C29.3785 51.3781 29.1105 50.7838 28.6712 50.3275C28.305 49.9416 27.821 49.6884 27.2952 49.6075C27.2952 49.5035 27.3512 49.3355 27.3512 49.2235C27.3385 48.505 27.0524 47.8184 26.5512 47.3035C26.185 46.9176 25.701 46.6644 25.1752 46.5835C25.1752 46.4715 25.2312 46.3115 25.2312 46.1995C25.2174 45.4789 24.9316 44.7902 24.4312 44.2715C23.9161 43.7656 23.2251 43.4788 22.5032 43.4715C22.3727 43.4626 22.2418 43.4817 22.1192 43.5275C22.0168 43.0107 21.77 42.5335 21.4072 42.1515C20.9011 41.6517 20.2185 41.3714 19.5072 41.3714C18.7959 41.3714 18.1133 41.6517 17.6072 42.1515L16.5112 43.2555L14.5272 41.9355L20.6392 32.4635L22.1272 33.0715C22.6647 33.288 23.2429 33.3851 23.8217 33.3561C24.4004 33.327 24.966 33.1726 25.4792 32.9035L26.2792 32.4635C27.0632 32.0454 27.9584 31.8831 28.8392 31.9995L29.8312 32.1675C29.2905 33.1552 28.8817 34.2095 28.6152 35.3035C28.4615 36.002 28.574 36.7326 28.9306 37.3526C29.2871 37.9725 29.8622 38.4371 30.5432 38.6555H30.5992C31.1824 38.8166 31.8019 38.7862 32.3665 38.5687C32.931 38.3513 33.4108 37.9582 33.7352 37.4475L34.4472 36.2955L35.4952 36.7355C38.0234 37.771 40.2534 39.4208 41.9832 41.5355L44.2952 44.3915L44.3432 44.4475C44.6277 44.7262 44.7914 45.1053 44.7992 45.5035C44.6588 45.8731 44.4705 46.2228 44.2392 46.5435ZM46.0552 44.1435C45.885 43.8091 45.6813 43.4928 45.4472 43.1995L43.1352 40.3915C41.2154 38.0427 38.7409 36.2089 35.9352 35.0555L34.3992 34.4475C34.1632 34.3484 33.8993 34.3384 33.6565 34.4194C33.4137 34.5003 33.2085 34.6666 33.0792 34.8875L31.9992 36.5355C31.8836 36.7287 31.7062 36.8773 31.4957 36.9571C31.2852 37.037 31.0539 37.0434 30.8392 36.9755C30.5672 36.8919 30.3353 36.7112 30.1878 36.4679C30.0403 36.2245 29.9874 35.9353 30.0392 35.6555C30.2993 34.499 30.7654 33.3988 31.4152 32.4075L31.5272 32.2475C31.82 31.8136 32.2465 31.4873 32.7419 31.3183C33.2373 31.1493 33.7743 31.1469 34.2712 31.3115L36.5832 32.1115C38.6735 32.8129 40.9128 32.9455 43.0712 32.4955L49.2872 42.2315L46.0552 44.1435ZM56.1752 40.3995C56.1542 40.5146 56.1082 40.6236 56.0405 40.719C55.9728 40.8144 55.8849 40.8937 55.7832 40.9515L52.7992 42.8075C52.6006 42.9256 52.364 42.9624 52.1389 42.9102C51.9138 42.858 51.7176 42.7209 51.5912 42.5275L44.1272 30.7035C44.0093 30.5065 43.9694 30.2725 44.0152 30.0475C44.0353 29.9331 44.0801 29.8245 44.1464 29.7292C44.2127 29.6339 44.299 29.5541 44.3992 29.4955L47.3752 27.6235C47.5033 27.5336 47.6598 27.4938 47.8152 27.5115H47.9992C48.1143 27.5325 48.2233 27.5785 48.3187 27.6462C48.4141 27.7139 48.4935 27.8018 48.5512 27.9035L56.0872 39.7275C56.1977 39.9274 56.2291 40.1615 56.1752 40.3835V40.3995Z" fill="#6BB64A"/>
<path d="M52.8161 40.8314C53.5451 40.8314 54.1361 40.2404 54.1361 39.5114C54.1361 38.7824 53.5451 38.1914 52.8161 38.1914C52.0871 38.1914 51.4961 38.7824 51.4961 39.5114C51.4961 40.2404 52.0871 40.8314 52.8161 40.8314Z" fill="#6BB64A"/>
<path d="M30.1031 20.4222L30.2711 20.5822C30.3604 20.6601 30.4646 20.7191 30.5773 20.7557C30.69 20.7924 30.8089 20.8059 30.9269 20.7954C31.045 20.7849 31.1597 20.7508 31.2642 20.6949C31.3687 20.639 31.4608 20.5626 31.5351 20.4702L35.8791 15.1422C35.9976 14.9901 36.0572 14.8003 36.0469 14.6078C36.0367 14.4152 35.9572 14.2328 35.8231 14.0942C35.752 14.0263 35.6678 13.9736 35.5756 13.9394C35.4834 13.9052 35.3852 13.8903 35.287 13.8956C35.1888 13.9008 35.0927 13.9261 35.0047 13.9699C34.9166 14.0137 34.8385 14.0751 34.7751 14.1502L30.8151 18.4382L28.8391 16.4062C28.7148 16.2676 28.5406 16.1839 28.3546 16.1734C28.1687 16.1629 27.9862 16.2265 27.8471 16.3502C27.7689 16.4103 27.7038 16.4855 27.6556 16.5715C27.6074 16.6574 27.5771 16.7523 27.5666 16.8503C27.5562 16.9482 27.5657 17.0473 27.5946 17.1415C27.6236 17.2357 27.6714 17.3231 27.7351 17.3982L30.1031 20.4222Z" fill="#6BB64A"/>
<path d="M31.8075 27.1267C33.7758 27.1267 35.6999 26.543 37.3365 25.4494C38.9731 24.3559 40.2487 22.8016 41.0019 20.9831C41.7552 19.1646 41.9522 17.1636 41.5682 15.2331C41.1842 13.3026 40.2364 11.5293 38.8446 10.1375C37.4528 8.74572 35.6795 7.79789 33.749 7.41389C31.8185 7.02989 29.8175 7.22697 27.999 7.98021C26.1805 8.73345 24.6262 10.009 23.5327 11.6456C22.4391 13.2822 21.8555 15.2063 21.8555 17.1747C21.8544 18.4819 22.1111 19.7765 22.6109 20.9844C23.1106 22.1923 23.8437 23.2898 24.768 24.2141C25.6923 25.1385 26.7899 25.8715 27.9978 26.3713C29.2057 26.871 30.5003 27.1277 31.8075 27.1267ZM31.8075 8.98266C33.4277 8.98266 35.0115 9.46311 36.3587 10.3633C37.7059 11.2634 38.7559 12.5428 39.3759 14.0397C39.9959 15.5366 40.1582 17.1837 39.8421 18.7728C39.526 20.3619 38.7458 21.8216 37.6001 22.9673C36.4544 24.113 34.9947 24.8932 33.4057 25.2093C31.8166 25.5253 30.1694 25.3631 28.6725 24.7431C27.1756 24.123 25.8962 23.0731 24.9961 21.7259C24.0959 20.3787 23.6155 18.7949 23.6155 17.1747C23.6197 15.0033 24.4841 12.9221 26.0195 11.3867C27.5549 9.85133 29.6361 8.98689 31.8075 8.98266Z" fill="#6BB64A"/>
</g>
<defs>
<clipPath id="clip0_3230_944">
<rect width="64" height="64" fill="white"/>
</clipPath>
</defs>
</svg>
