<svg width="64" height="64" viewBox="0 0 64 64" fill="none" xmlns="http://www.w3.org/2000/svg">
<g clip-path="url(#clip0_3230_964)">
<path d="M51.9998 16.3049C51.9994 16.199 51.9779 16.0943 51.9367 15.9968C51.8955 15.8993 51.8354 15.811 51.7598 15.7369L48.5598 12.5369C48.4857 12.4613 48.3974 12.4011 48.2999 12.36C48.2024 12.3188 48.0977 12.2973 47.9918 12.2969H44.7998V8.29688H43.1998V12.2969H40.7998V8.29688H39.1998V12.2969H36.7998V8.29688H35.1998V12.2969H32.7998V8.29688H31.1998V12.2969H28.7998V8.29688H27.1998V12.2969H24.7998V8.29688H23.1998V12.2969H20.7998V8.29688H19.1998V12.2969H15.9998C15.7888 12.2999 15.5875 12.3861 15.4398 12.5369L12.2398 15.7369C12.1657 15.8116 12.107 15.9003 12.0672 15.9978C12.0274 16.0952 12.0072 16.1996 12.0078 16.3049V19.5049H8.00781V21.1049H12.0078V23.5049H8.00781V25.1049H12.0078V27.5049H8.00781V29.1049H12.0078V31.5049H8.00781V33.1049H12.0078V35.5049H8.00781V37.1049H12.0078V39.5049H8.00781V41.1049H12.0078V43.5049H8.00781V45.1049H12.0078V48.3049C12.0087 48.5147 12.092 48.7159 12.2398 48.8649L15.4398 52.0649C15.5888 52.2127 15.7899 52.296 15.9998 52.2969H19.1998V56.2969H20.7998V52.2969H23.1998V56.2969H24.7998V52.2969H27.1998V50.6969H16.3918L13.6638 47.9769V16.6329L16.3918 13.9049H47.6798L50.3998 16.6329V47.9289L47.6718 50.6489H36.7998V52.2489H39.1998V56.2489H40.7998V52.2489H43.1998V56.2489H44.7998V52.2489H47.9998C48.1051 52.2495 48.2095 52.2293 48.3069 52.1895C48.4044 52.1497 48.4931 52.091 48.5678 52.0169L51.7678 48.8169C51.9185 48.6692 52.0048 48.4679 52.0078 48.2569V45.0569H56.0078V43.4569H51.9998V41.0569H55.9998V39.4569H51.9998V37.0569H55.9998V35.4569H51.9998V33.0569H55.9998V31.4569H51.9998V29.0569H55.9998V27.4569H51.9998V25.0569H55.9998V23.4569H51.9998V21.0569H55.9998V19.4569H51.9998V16.3049Z" fill="#6BB64A"/>
<path d="M18.4555 18.6977H20.8555V17.0977H17.6555C17.4433 17.0977 17.2398 17.1819 17.0898 17.332C16.9398 17.482 16.8555 17.6855 16.8555 17.8977V21.0977H18.4555V18.6977Z" fill="#6BB64A"/>
<path d="M16.8555 43.4648V46.6648C16.8555 46.877 16.9398 47.0805 17.0898 47.2305C17.2398 47.3806 17.4433 47.4648 17.6555 47.4648H20.8555V45.8648H18.4555V43.4648H16.8555Z" fill="#6BB64A"/>
<path d="M45.5992 45.857H43.1992V47.457H46.3992C46.6114 47.457 46.8149 47.3727 46.9649 47.2227C47.1149 47.0727 47.1992 46.8692 47.1992 46.657V43.457H45.5992V45.857Z" fill="#6BB64A"/>
<path d="M47.1992 21.0977V17.8977C47.1992 17.6855 47.1149 17.482 46.9649 17.332C46.8149 17.1819 46.6114 17.0977 46.3992 17.0977H43.1992V18.6977H45.5992V21.0977H47.1992Z" fill="#6BB64A"/>
<path d="M24.2957 40.8403L26.5357 39.9283L28.5197 40.7283L29.4557 42.9523C29.5175 43.0981 29.6211 43.2224 29.7536 43.3093C29.886 43.3961 30.0413 43.4417 30.1997 43.4403H31.1997V45.8403H29.5997C29.3875 45.8403 29.184 45.9246 29.034 46.0746C28.884 46.2246 28.7997 46.4281 28.7997 46.6403V53.0403C28.7997 53.889 29.1368 54.7029 29.737 55.303C30.3371 55.9031 31.151 56.2403 31.9997 56.2403C32.8484 56.2403 33.6623 55.9031 34.2624 55.303C34.8626 54.7029 35.1997 53.889 35.1997 53.0403V46.6403C35.1997 46.4281 35.1154 46.2246 34.9654 46.0746C34.8154 45.9246 34.6119 45.8403 34.3997 45.8403H32.7997V43.4403H33.8397C33.9967 43.4402 34.1503 43.3938 34.2811 43.307C34.412 43.2203 34.5145 43.0969 34.5757 42.9523L35.5117 40.7283L37.4957 39.9283L39.7357 40.8403C39.8811 40.8988 40.0405 40.9133 40.1941 40.8821C40.3477 40.8508 40.4888 40.775 40.5997 40.6643L43.2077 38.0643C43.3187 37.9518 43.3939 37.8089 43.4238 37.6537C43.4537 37.4985 43.437 37.338 43.3757 37.1923L42.5037 34.9603L43.3037 32.9683L45.5197 32.0403C45.6643 31.979 45.7877 31.8766 45.8745 31.7457C45.9612 31.6148 46.0076 31.4613 46.0077 31.3043V27.6243C46.0076 27.4672 45.9612 27.3137 45.8745 27.1828C45.7877 27.052 45.6643 26.9495 45.5197 26.8883L43.3037 25.9523L42.5037 23.9603L43.4157 21.7283C43.4711 21.578 43.4802 21.4146 43.4417 21.2591C43.4031 21.1036 43.3189 20.9633 43.1997 20.8563L40.5997 18.2563C40.4888 18.1455 40.3477 18.0698 40.1941 18.0385C40.0405 18.0072 39.8811 18.0217 39.7357 18.0803L37.4957 18.9923L35.5197 18.1923L34.5837 15.9763C34.5225 15.8317 34.42 15.7083 34.2891 15.6215C34.1583 15.5347 34.0047 15.4884 33.8477 15.4883H30.1677C30.0107 15.4884 29.8571 15.5347 29.7263 15.6215C29.5954 15.7083 29.4929 15.8317 29.4317 15.9763L28.4877 18.1923L26.5037 18.9923L24.2637 18.0803C24.1183 18.0217 23.9589 18.0072 23.8053 18.0385C23.6517 18.0698 23.5106 18.1455 23.3997 18.2563L20.7997 20.8643C20.6889 20.9752 20.6132 21.1162 20.5819 21.2698C20.5506 21.4234 20.5652 21.5829 20.6237 21.7283L21.5997 24.0003L20.7997 25.9923L18.5837 26.9283C18.4391 26.9895 18.3157 27.092 18.2289 27.2228C18.1422 27.3537 18.0958 27.5072 18.0957 27.6643V31.3443C18.0958 31.5013 18.1422 31.6548 18.2289 31.7857C18.3157 31.9166 18.4391 32.019 18.5837 32.0803L20.7997 33.0163L21.5997 35.0003L20.6877 37.2403C20.629 37.3747 20.6085 37.5227 20.6282 37.668C20.648 37.8133 20.7073 37.9504 20.7997 38.0643L23.3997 40.6643C23.5133 40.7815 23.66 40.8612 23.8201 40.8927C23.9803 40.9241 24.1462 40.9058 24.2957 40.8403ZM31.9997 54.6483C31.5754 54.6483 31.1684 54.4797 30.8683 54.1797C30.5683 53.8796 30.3997 53.4726 30.3997 53.0483V52.2483H33.5997V53.0483C33.5997 53.4726 33.4311 53.8796 33.1311 54.1797C32.831 54.4797 32.424 54.6483 31.9997 54.6483ZM33.5997 50.6483H30.3997V47.4483H33.5997V50.6483ZM23.1997 34.6563L22.1277 32.0563C22.0448 31.8638 21.8897 31.7116 21.6957 31.6323L19.6637 30.7683V28.1523L21.6957 27.2963C21.8912 27.2151 22.0465 27.0598 22.1277 26.8643L23.1997 24.2723C23.2797 24.0775 23.2797 23.859 23.1997 23.6643L22.3997 21.6163L24.2477 19.7603L26.2957 20.6003C26.4905 20.6803 26.7089 20.6803 26.9037 20.6003L29.4397 19.5203C29.6307 19.4393 29.7827 19.2872 29.8637 19.0963L30.7197 17.0563H33.3437L34.1997 19.0963C34.2826 19.2887 34.4377 19.441 34.6317 19.5203L37.2237 20.5923C37.4185 20.6723 37.6369 20.6723 37.8317 20.5923L39.8797 19.7923L41.7357 21.6003L40.9357 23.6483C40.8557 23.8431 40.8557 24.0615 40.9357 24.2563L42.0077 26.8483C42.087 27.0423 42.2392 27.1974 42.4317 27.2803L44.4717 28.1363V30.7523L42.3997 31.6323C42.2087 31.7133 42.0567 31.8653 41.9757 32.0563L40.9037 34.6563C40.8259 34.8487 40.8259 35.0639 40.9037 35.2563L41.7037 37.3123L39.8797 39.2003L37.8317 38.4003C37.6369 38.3203 37.4185 38.3203 37.2237 38.4003L34.6317 39.4723C34.4362 39.5535 34.2809 39.7088 34.1997 39.9043L33.3437 41.9363H30.7277L29.8717 39.9043C29.787 39.7112 29.6328 39.557 29.4397 39.4723L26.8397 38.4003C26.6449 38.3203 26.4265 38.3203 26.2317 38.4003L24.1837 39.2003L22.3357 37.3523L23.1357 35.2963C23.1901 35.1998 23.2238 35.0932 23.2349 34.983C23.2459 34.8728 23.2339 34.7616 23.1997 34.6563Z" fill="#6BB64A"/>
<path d="M32 37.4492C33.5822 37.4492 35.129 36.98 36.4446 36.101C37.7602 35.2219 38.7855 33.9725 39.391 32.5107C39.9965 31.0489 40.155 29.4403 39.8463 27.8885C39.5376 26.3367 38.7757 24.9112 37.6569 23.7924C36.538 22.6735 35.1126 21.9116 33.5607 21.6029C32.0089 21.2943 30.4003 21.4527 28.9385 22.0582C27.4767 22.6637 26.2273 23.6891 25.3482 25.0047C24.4692 26.3203 24 27.867 24 29.4492C24 31.571 24.8429 33.6058 26.3431 35.1061C27.8434 36.6064 29.8783 37.4492 32 37.4492ZM32 23.0492C33.2658 23.0492 34.5032 23.4246 35.5556 24.1278C36.6081 24.8311 37.4284 25.8306 37.9128 27C38.3972 28.1695 38.524 29.4563 38.277 30.6978C38.0301 31.9393 37.4205 33.0796 36.5255 33.9747C35.6304 34.8698 34.4901 35.4793 33.2486 35.7262C32.0071 35.9732 30.7203 35.8464 29.5508 35.362C28.3814 34.8776 27.3818 34.0573 26.6786 33.0049C25.9754 31.9524 25.6 30.715 25.6 29.4492C25.6063 27.756 26.2834 26.1343 27.483 24.9392C28.6825 23.7442 30.3068 23.0732 32 23.0732V23.0492Z" fill="#6BB64A"/>
<path d="M32.8324 28.6641H31.2324V30.2641H32.8324V28.6641Z" fill="#6BB64A"/>
<path d="M29.6391 28.6641H28.0391V30.2641H29.6391V28.6641Z" fill="#6BB64A"/>
<path d="M36.0316 28.6641H34.4316V30.2641H36.0316V28.6641Z" fill="#6BB64A"/>
</g>
<defs>
<clipPath id="clip0_3230_964">
<rect width="64" height="64" fill="white"/>
</clipPath>
</defs>
</svg>
