<svg width="32" height="32" viewBox="0 0 32 32" fill="none" xmlns="http://www.w3.org/2000/svg">
<path d="M29.8177 27.5314C31.021 27.5314 32 26.5524 32 25.349V3.125C32 1.40187 30.5981 0 28.875 0H3.125C1.40187 0 0 1.40187 0 3.125V25.349C0 26.5524 0.979 27.5314 2.18231 27.5314H2.875V30.75H0.625C0.279813 30.75 0 31.0299 0 31.375C0 31.7201 0.279813 32 0.625 32H31.375C31.7202 32 32 31.7201 32 31.375C32 31.0299 31.7202 30.75 31.375 30.75H29.125V27.5314H29.8177ZM1.25 3.125C1.25 2.09113 2.09113 1.25 3.125 1.25H28.875C29.9089 1.25 30.75 2.09113 30.75 3.125V4.5H1.31275C1.29156 4.5 1.27063 4.50113 1.25 4.50319V3.125ZM6.875 30.75H4.125V25.125H6.875V30.75ZM13.875 30.75H11.125V18.2145H13.875V30.75ZM20.875 30.75H18.125V23.5H20.875V30.75ZM28.5 16.0313H24.5C24.1548 16.0313 23.875 16.3111 23.875 16.6563V19.8125C23.875 20.1575 24.1548 20.4375 24.5 20.4375C24.8452 20.4375 25.125 20.1575 25.125 19.8125V17.2813H27.875V30.75H25.125V24.0156C25.125 23.6705 24.8452 23.3906 24.5 23.3906C24.1548 23.3906 23.875 23.6705 23.875 24.0156V30.75H22.125V22.875C22.125 22.5299 21.8452 22.25 21.5 22.25H17.5C17.1548 22.25 16.875 22.5299 16.875 22.875V30.75H15.125V17.5895C15.125 17.2444 14.8452 16.9645 14.5 16.9645H10.5C10.1548 16.9645 9.875 17.2444 9.875 17.5895V30.75H8.125V24.5C8.125 24.1549 7.8452 23.875 7.5 23.875H3.5C3.15481 23.875 2.875 24.1549 2.875 24.5V26.2814H2.18231C1.66819 26.2814 1.25 25.8631 1.25 25.349V5.74681C1.27063 5.74887 1.29156 5.75 1.31275 5.75H30.75V25.349C30.75 25.8631 30.3317 26.2814 29.8177 26.2814H29.125V16.6563C29.125 16.3111 28.8452 16.0313 28.5 16.0313Z" fill="#1D4354"/>
<path d="M27.9999 2.25H13.8789C13.5338 2.25 13.2539 2.52987 13.2539 2.875C13.2539 3.22013 13.5338 3.5 13.8789 3.5H27.9999C28.345 3.5 28.6249 3.22013 28.6249 2.875C28.6249 2.52987 28.345 2.25 27.9999 2.25Z" fill="#1D4354"/>
<path d="M6.94187 2.43313C6.8256 2.31687 6.66437 2.25 6.5 2.25C6.33563 2.25 6.17437 2.31681 6.05813 2.43313C5.94187 2.54937 5.875 2.71063 5.875 2.875C5.875 3.03937 5.94187 3.20063 6.05813 3.31681C6.17437 3.43313 6.33563 3.5 6.5 3.5C6.66437 3.5 6.8256 3.43313 6.94187 3.31681C7.05813 3.20063 7.125 3.03937 7.125 2.875C7.125 2.71063 7.05813 2.54937 6.94187 2.43313Z" fill="#1D4354"/>
<path d="M4.44187 2.43313C4.32563 2.31687 4.16437 2.25 4 2.25C3.83563 2.25 3.67437 2.31681 3.55813 2.43313C3.44187 2.54937 3.375 2.71063 3.375 2.875C3.375 3.03937 3.44187 3.20063 3.55813 3.31681C3.67437 3.43313 3.83563 3.5 4 3.5C4.16437 3.5 4.32563 3.43313 4.44187 3.31681C4.55813 3.20063 4.625 3.03937 4.625 2.875C4.625 2.71063 4.55813 2.54937 4.44187 2.43313Z" fill="#1D4354"/>
<path d="M9.44187 2.43313C9.3256 2.31687 9.165 2.25 9 2.25C8.8356 2.25 8.6744 2.31681 8.55813 2.43313C8.44187 2.54937 8.375 2.71063 8.375 2.875C8.375 3.03937 8.44187 3.20063 8.55813 3.31681C8.6744 3.43313 8.8356 3.5 9 3.5C9.1644 3.5 9.3256 3.43313 9.44187 3.31681C9.55813 3.20063 9.625 3.03937 9.625 2.875C9.625 2.71063 9.55813 2.54937 9.44187 2.43313Z" fill="#1D4354"/>
<path d="M24.9419 21.5972C24.8256 21.4803 24.6644 21.4141 24.5 21.4141C24.3356 21.4141 24.1744 21.4804 24.0581 21.5972C23.9419 21.7135 23.875 21.8747 23.875 22.0391C23.875 22.2035 23.9419 22.3647 24.0581 22.4809C24.1744 22.5971 24.3356 22.6641 24.5 22.6641C24.6644 22.6641 24.8256 22.5972 24.9419 22.4809C25.0581 22.3647 25.125 22.2035 25.125 22.0391C25.125 21.8741 25.0581 21.7135 24.9419 21.5972Z" fill="#1D4354"/>
<path d="M26.5005 8.49609C25.2598 8.49609 24.2505 9.50543 24.2505 10.7461C24.2505 11.2389 24.4102 11.6949 24.6799 12.066L20.5283 16.2175C20.2062 16.0392 19.8361 15.9374 19.4424 15.9374C19.0877 15.9374 18.7521 16.0202 18.4534 16.167L14.1185 11.832C14.2968 11.5098 14.3987 11.1397 14.3987 10.7461C14.3987 9.50543 13.3893 8.49609 12.1487 8.49609C10.908 8.49609 9.89866 9.50543 9.89866 10.7461C9.89866 11.1797 10.0223 11.5848 10.2357 11.9287L6.54486 15.6194C6.22267 15.4412 5.85254 15.3393 5.45898 15.3393C4.2183 15.3393 3.20898 16.3486 3.20898 17.5893C3.20898 18.83 4.2183 19.8393 5.45898 19.8393C6.69966 19.8393 7.70899 18.83 7.70899 17.5893C7.70899 17.1956 7.60712 16.8255 7.42879 16.5034L11.1637 12.7684C11.4613 12.914 11.7956 12.996 12.1487 12.996C12.5423 12.996 12.9123 12.8942 13.2345 12.7158L17.5271 17.0083C17.3151 17.3514 17.1924 17.7552 17.1924 18.1872C17.1924 19.4279 18.2017 20.4372 19.4424 20.4372C20.6831 20.4372 21.6924 19.4279 21.6924 18.1872C21.6924 17.7936 21.5905 17.4234 21.4123 17.1013L25.6751 12.8384C25.9309 12.9398 26.2092 12.9961 26.5005 12.9961C27.7412 12.9961 28.7505 11.9868 28.7505 10.7461C28.7505 9.50543 27.7412 8.49609 26.5005 8.49609ZM5.45904 18.5894C4.90767 18.5894 4.45904 18.1408 4.45904 17.5894C4.45904 17.038 4.90767 16.5894 5.45904 16.5894C6.01042 16.5894 6.45904 17.038 6.45904 17.5894C6.45904 18.1408 6.01042 18.5894 5.45904 18.5894ZM12.1487 11.7461C11.5973 11.7461 11.1487 11.2974 11.1487 10.7461C11.1487 10.1947 11.5973 9.74609 12.1487 9.74609C12.7001 9.74609 13.1487 10.1947 13.1487 10.7461C13.1487 11.2974 12.7001 11.7461 12.1487 11.7461ZM19.4425 19.1874C18.8911 19.1874 18.4425 18.7387 18.4425 18.1874C18.4425 17.636 18.8911 17.1874 19.4425 17.1874C19.9939 17.1874 20.4425 17.636 20.4425 18.1874C20.4425 18.7387 19.9939 19.1874 19.4425 19.1874ZM26.5005 11.7461C25.9491 11.7461 25.5005 11.2974 25.5005 10.7461C25.5005 10.1947 25.9491 9.74609 26.5005 9.74609C27.0519 9.74609 27.5005 10.1947 27.5005 10.7461C27.5005 11.2974 27.0519 11.7461 26.5005 11.7461Z" fill="#1D4354"/>
<path d="M9.27097 8.06009C9.1541 7.94389 8.99343 7.87695 8.8291 7.87695C8.6641 7.87695 8.50283 7.94382 8.38657 8.06009C8.2703 8.17629 8.2041 8.33755 8.2041 8.50195C8.2041 8.66629 8.2703 8.82755 8.38657 8.94382C8.50343 9.06002 8.6641 9.12695 8.8291 9.12695C8.99343 9.12695 9.1541 9.06009 9.27097 8.94382C9.38723 8.82755 9.4541 8.66629 9.4541 8.50195C9.4541 8.33755 9.38723 8.17629 9.27097 8.06009Z" fill="#1D4354"/>
<path d="M6.5 7.87695H3.5C3.15481 7.87695 2.875 8.15682 2.875 8.50189C2.875 8.84702 3.15481 9.12689 3.5 9.12689H6.5C6.8452 9.12689 7.125 8.84702 7.125 8.50189C7.125 8.15682 6.8452 7.87695 6.5 7.87695Z" fill="#1D4354"/>
<path d="M6.5 10.877H3.5C3.15481 10.877 2.875 11.1568 2.875 11.502C2.875 11.847 3.15481 12.127 3.5 12.127H6.5C6.8452 12.127 7.125 11.847 7.125 11.502C7.125 11.1568 6.8452 10.877 6.5 10.877Z" fill="#1D4354"/>
</svg>
