<svg width="32" height="32" viewBox="0 0 32 32" fill="none" xmlns="http://www.w3.org/2000/svg">
<mask id="mask0_2729_192" style="mask-type:luminance" maskUnits="userSpaceOnUse" x="0" y="0" width="32" height="32">
<path d="M32 0H0V32H32V0Z" fill="white"/>
</mask>
<g mask="url(#mask0_2729_192)">
<path d="M8.57987 16.2277C8.68001 16.4681 8.92627 16.6257 9.18694 16.6131C9.44474 16.6006 9.67267 16.4255 9.75174 16.1799C9.83341 15.9262 9.74061 15.6397 9.52441 15.4831C9.31914 15.3344 9.03694 15.3256 8.82267 15.4611C8.56967 15.6213 8.46447 15.9509 8.57987 16.2277Z" fill="#1D4354"/>
<path d="M25.3165 11.7554H24.341V8.294C24.341 6.85593 23.171 5.68594 21.7329 5.68594H20.4975L20.4445 0.618437C20.4411 0.275875 20.1624 0 19.8197 0H10.0417C9.69914 0 9.42041 0.275875 9.41674 0.6185L9.36374 5.686H8.12847C6.69047 5.686 5.52051 6.856 5.52051 8.29407V23.7061C5.52051 25.1441 6.69047 26.3141 8.12847 26.3141H9.36381L9.41681 31.3816C9.42047 31.7242 9.69921 32.0001 10.0418 32.0001H19.8197C20.1625 32.0001 20.4411 31.7243 20.4447 31.3816L20.4977 26.3141H21.7331C23.1711 26.3141 24.3411 25.1441 24.3411 23.7061V19.9237H25.3165C25.9576 19.9237 26.4792 19.4022 26.4792 18.7611V12.9181C26.4791 12.2769 25.9575 11.7554 25.3165 11.7554ZM10.6603 1.25H19.2012L19.2475 5.686H10.6139L10.6603 1.25ZM19.2013 30.75H10.6603L10.6138 26.314H19.2475L19.2013 30.75ZM23.091 23.706C23.091 24.4548 22.4818 25.0641 21.7329 25.0641H8.12847C7.37967 25.0641 6.77047 24.4549 6.77047 23.706V8.294C6.77047 7.5452 7.37967 6.93593 8.12847 6.93593H21.733C22.4819 6.93593 23.0911 7.54513 23.0911 8.294V11.7554H21.3294V9.30493C21.3294 8.95973 21.0495 8.67993 20.7044 8.67993H9.15714C8.81194 8.67993 8.53214 8.95973 8.53214 9.30493V13.1746C8.53214 13.5198 8.81194 13.7996 9.15714 13.7996C9.50234 13.7996 9.78214 13.5198 9.78214 13.1746V9.92993H20.0794V11.7554H16.0923C15.4512 11.7554 14.9296 12.2769 14.9296 12.9181V18.7611C14.9296 19.4022 15.4512 19.9237 16.0923 19.9237H19.2995L20.0794 21.0197V22.0701H9.78214V18.8255C9.78214 18.4803 9.50234 18.2005 9.15714 18.2005C8.81194 18.2005 8.53214 18.4803 8.53214 18.8255V22.6951C8.53214 23.0403 8.81194 23.3201 9.15714 23.3201H20.7044C21.0495 23.3201 21.3294 23.0403 21.3294 22.6951V21.0197L22.1092 19.9237H23.0911L23.091 23.706ZM25.2291 18.6737H21.7867C21.5845 18.6737 21.3947 18.7715 21.2775 18.9364L20.7044 19.7419L20.1313 18.9364C20.014 18.7715 19.8243 18.6737 19.622 18.6737H16.1797V13.0054H25.2291L25.2291 18.6737Z" fill="#1D4354"/>
<path d="M19.0576 16.6504H22.3516C22.6968 16.6504 22.9766 16.3705 22.9766 16.0254C22.9766 15.6803 22.6968 15.4004 22.3516 15.4004H19.0576C18.7125 15.4004 18.4326 15.6803 18.4326 16.0254C18.4326 16.3705 18.7124 16.6504 19.0576 16.6504Z" fill="#1D4354"/>
</g>
</svg>
