<svg width="32" height="28" viewBox="0 0 32 28" fill="none" xmlns="http://www.w3.org/2000/svg">
<path fill-rule="evenodd" clip-rule="evenodd" d="M31.6238 6.86547L23.9363 3.52857C23.9289 3.52539 23.9214 3.52319 23.9141 3.52051C23.9016 3.51563 23.8891 3.51074 23.8762 3.50683C23.8643 3.50293 23.8521 3.49975 23.8399 3.49658C23.8271 3.49341 23.8147 3.49048 23.8017 3.48804C23.7893 3.48559 23.7766 3.48389 23.7639 3.48242C23.7512 3.48096 23.7388 3.47949 23.7261 3.47876C23.7131 3.47803 23.7002 3.47778 23.687 3.47778C23.6748 3.47778 23.6623 3.47803 23.6497 3.47876C23.6365 3.47949 23.6235 3.48096 23.6103 3.48267C23.5981 3.48413 23.5859 3.48584 23.574 3.48804C23.5605 3.49048 23.5476 3.49365 23.5344 3.49683C23.5227 3.49975 23.511 3.50293 23.4993 3.50659C23.4861 3.51074 23.4731 3.51563 23.4602 3.52075C23.4531 3.52368 23.4458 3.52539 23.4387 3.52857L21.7805 4.24829C20.8975 1.91431 18.6397 0.25 16 0.25C13.3603 0.25 11.1025 1.91431 10.2197 4.24829L8.56153 3.52857C8.5542 3.52539 8.5464 3.52319 8.53907 3.52051C8.5266 3.51563 8.51413 3.51074 8.5012 3.50683C8.48927 3.50293 8.47707 3.49975 8.46487 3.49683C8.45213 3.49365 8.43967 3.49048 8.42673 3.48804C8.41433 3.48584 8.4016 3.48413 8.38893 3.48242C8.3762 3.48096 8.3638 3.47949 8.35107 3.47876C8.33813 3.47803 8.3252 3.47778 8.312 3.47778C8.29953 3.47778 8.28713 3.47803 8.27467 3.47876C8.26147 3.47949 8.24853 3.48096 8.23533 3.48267C8.22313 3.48413 8.21093 3.48584 8.19873 3.48804C8.18553 3.49048 8.1726 3.49365 8.1594 3.49683C8.14773 3.5 8.136 3.50293 8.12427 3.50659C8.11107 3.51074 8.09813 3.51563 8.0852 3.52075C8.07813 3.52368 8.0708 3.52539 8.06373 3.52857L0.376221 6.86573C0.147705 6.9646 0 7.18993 0 7.43893V27.1641C0 27.3745 0.105957 27.5711 0.282227 27.6865C0.385498 27.7544 0.504883 27.7891 0.625 27.7891C0.709473 27.7891 0.794187 27.772 0.87378 27.7373L8.31253 24.5083L15.7512 27.7373C15.7729 27.7468 15.7954 27.7547 15.8181 27.7617C15.8235 27.7634 15.8291 27.7644 15.8347 27.7659C15.8557 27.7717 15.8769 27.7764 15.8982 27.7798C15.9055 27.781 15.9129 27.7822 15.9201 27.7832C15.9468 27.7866 15.9734 27.7891 16 27.7891C16.0269 27.7891 16.0532 27.7866 16.0799 27.7832C16.0871 27.7822 16.0945 27.781 16.1018 27.78C16.1231 27.7764 16.1443 27.7717 16.1655 27.7659C16.1709 27.7644 16.1765 27.7634 16.1819 27.7617C16.2043 27.7549 16.2268 27.7468 16.2488 27.7373L23.6875 24.5083L31.1262 27.7373C31.2058 27.772 31.2905 27.7891 31.375 27.7891C31.4951 27.7891 31.6145 27.7544 31.7178 27.6865C31.8938 27.5711 32 27.3745 32 27.1641V7.43893C32 7.18993 31.8523 6.9646 31.6238 6.86547ZM1.25 7.84887L7.68747 5.05447V23.417L1.25 26.2114V7.84887ZM8.93747 5.05447L9.89647 5.47073C9.84793 5.78273 9.82227 6.10227 9.82227 6.42773C9.82227 7.29027 9.99707 8.12573 10.3423 8.91087C10.3569 8.9446 10.3747 8.97707 10.3953 9.0076L11.5454 10.7227C11.7378 11.0093 12.1262 11.0859 12.4126 10.8935C12.6995 10.7014 12.7759 10.3132 12.5837 10.0264L11.4653 8.35867C11.2043 7.74733 11.0723 7.09793 11.0723 6.42773C11.0723 3.71045 13.2827 1.5 16 1.5C18.7173 1.5 20.9277 3.71045 20.9277 6.42773C20.9277 7.09793 20.7957 7.74733 20.5347 8.35867L16 15.1206L15.3687 14.1795C15.1765 13.8928 14.7883 13.8164 14.5015 14.0085C14.2149 14.2007 14.1384 14.5891 14.3305 14.8757L15.375 16.4329V26.2114L8.93747 23.417V5.05447ZM16.625 16.4329L21.6047 9.0076C21.6253 8.97707 21.6428 8.9446 21.6577 8.91087C22.0029 8.12573 22.1777 7.29027 22.1777 6.42773C22.1777 6.10227 22.1523 5.78273 22.1035 5.47073L23.0625 5.05447V23.417L16.625 26.2114V16.4329ZM30.75 26.2114L24.3125 23.417V5.05447L30.75 7.84887V26.2114Z" fill="#2C333F"/>
<path fill-rule="evenodd" clip-rule="evenodd" d="M15.9997 10.1108C18.0307 10.1108 19.6831 8.45847 19.6831 6.42747C19.6831 4.39648 18.0307 2.74414 15.9997 2.74414C13.9687 2.74414 12.3164 4.39648 12.3164 6.42747C12.3164 8.45847 13.9687 10.1108 15.9997 10.1108ZM15.9997 3.99414C17.3415 3.99414 18.4331 5.08567 18.4331 6.42747C18.4331 7.76927 17.3415 8.86081 15.9997 8.86081C14.6579 8.86081 13.5664 7.76927 13.5664 6.42747C13.5664 5.08567 14.6579 3.99414 15.9997 3.99414Z" fill="#2C333F"/>
<path fill-rule="evenodd" clip-rule="evenodd" d="M13.457 11.8262C13.1131 11.8262 12.832 12.1069 12.832 12.4512C12.832 12.7954 13.1131 13.0762 13.457 13.0762C13.8015 13.0762 14.0823 12.7954 14.0823 12.4512C14.0823 12.1069 13.8015 11.8262 13.457 11.8262Z" fill="#2C333F"/>
</svg>
