<svg width="68" height="68" viewBox="0 0 68 68" fill="none" xmlns="http://www.w3.org/2000/svg">
<g clip-path="url(#clip0_1_4067)">
<path d="M29.3477 1.91227C30.1265 1.31495 31.1649 1.47035 31.9706 0.951172H35.6048C38.3058 1.62664 40.8504 2.58684 42.9271 4.56025C43.0565 5.70279 43.3942 6.81929 43.2128 7.98788C43.1346 8.40286 43.1607 8.89688 42.6415 9.05228C42.0963 9.20857 41.8888 8.79269 41.7585 8.37771C41.6292 8.01393 41.2915 7.6241 41.084 8.14417C40.5639 9.39001 39.6288 9.20857 38.6686 9.07833C37.8899 8.5331 37.1111 8.11722 36.3063 9.02623C33.2685 9.20857 33.2945 12.064 32.126 13.856C32.0218 14.0374 31.9445 14.2449 31.7622 14.3752C31.6068 14.5045 31.3993 14.5566 31.1909 14.5566C30.1265 14.4273 30.0232 13.6485 29.919 12.7916C29.7367 11.155 30.0223 9.5454 30.2567 7.93578C30.1786 7.78039 30.36 7.90973 30.2298 7.83159C28.595 6.84533 29.3217 5.10547 28.9067 3.72939C28.6732 3.00182 28.9579 2.4575 29.3468 1.91227H29.3477ZM31.9697 67.3678C31.7873 67.2906 31.6319 67.1864 31.4496 67.1082C31.1128 66.8235 30.9044 66.4597 30.8783 66.0178C30.7745 64.6524 30.7745 63.281 30.8783 61.9156C30.9053 61.4225 31.1119 61.0066 31.5277 60.721C31.9697 60.4362 32.4367 60.306 32.9559 60.3581C33.9682 60.6177 34.4101 61.3192 34.4362 62.3315C34.4362 62.9288 34.4622 63.5261 34.4622 64.1225C34.4353 65.1097 34.5655 66.0178 35.4224 66.6672C35.6299 66.8235 35.7341 67.0831 35.6299 67.3427C34.3841 67.3687 33.1895 67.3687 31.9697 67.3687V67.3678Z" fill="#ADADAD"/>
<path d="M35.6037 67.3689C33.8647 67.2656 33.6051 66.1742 33.7605 64.7209C33.8387 63.9673 33.7605 63.1625 33.7866 62.4097C33.8126 61.7343 33.6051 61.2421 33.0078 60.9034C33.1893 60.5666 33.527 60.5145 33.8647 60.4633C34.7216 60.2809 35.5525 60.333 36.3573 60.8001C36.9286 62.955 37.1882 65.0847 36.1489 67.1865C36.1489 67.2656 36.1489 67.3168 36.1229 67.3949C35.9414 67.3689 35.786 67.3689 35.6037 67.3689V67.3689ZM64.1143 25.0723V37.5352C63.9328 37.9501 64.0622 38.3921 64.0361 38.807C63.9589 40.3394 63.4649 41.6113 62.3232 42.7539C59.3366 45.7656 55.8057 48.1288 52.5344 50.7768C49.5487 53.1912 46.4848 55.5024 43.473 57.8647C42.2003 58.8519 40.8772 59.7348 39.396 60.3313C38.9289 60.7211 38.3576 60.7471 37.7864 60.7211C37.5528 60.7211 37.3714 60.6178 37.1891 60.4615C36.6438 59.7609 36.8262 58.904 36.8001 58.1243C36.7732 56.9297 36.8783 55.7359 36.3582 54.6194C36.3323 54.4823 36.3323 54.3416 36.3582 54.2044C36.4884 53.8407 36.7741 53.6592 37.1118 53.555C39.9161 52.646 42.2263 50.855 44.4862 49.0639C49.6007 45.0389 54.7673 41.04 59.8818 37.016C62.1669 35.224 63.5951 33.1213 63.2834 30.0574C63.1801 28.9409 63.517 27.7723 63.2574 26.6298C63.3876 26.0325 63.102 25.2016 64.1143 25.0723V25.0723Z" fill="#ADADAD"/>
<path d="M39.5315 60.2778C43.9975 57.7591 47.7359 54.2542 51.7869 51.1904C54.5911 49.0876 57.3433 46.958 60.0434 44.7259C62.1722 42.9599 64.2237 41.0386 64.3791 37.9748C64.3791 40.1817 64.4573 42.3887 64.3791 44.5947C64.327 46.8286 63.1333 48.5424 61.5228 49.9185C57.0577 53.7351 52.3061 57.2139 47.6847 60.8751C45.8667 62.3293 43.9975 63.7314 42.1282 65.1327C41.557 65.5746 40.8555 65.8602 40.233 66.198C39.4273 66.1459 39.4794 65.5225 39.4273 64.9773C39.3761 63.4198 39.3761 61.8622 39.5315 60.2778V60.2778ZM39.0123 9.18035C39.9995 9.20639 40.6489 8.81656 40.9345 7.80426C41.0118 7.54378 41.3234 7.33719 41.557 7.15485C42.2576 6.60962 42.6474 6.71382 42.6474 7.67402C42.6474 8.06385 42.6474 8.42763 42.7516 8.81656C42.9591 7.95966 42.9591 7.10275 42.8037 6.24584C42.7256 5.72667 42.7516 5.31168 43.2187 5C44.5175 5.85691 45.7634 6.76591 46.8799 7.85636C46.932 8.40158 46.4649 8.66117 46.1792 9.02405C45.8676 9.41388 45.6852 9.80372 45.7634 10.3229C45.9457 11.6729 45.8676 11.7241 44.4915 11.6729C44.2058 11.646 43.9975 11.7762 43.7639 11.8804C42.6474 12.2702 41.9989 11.5687 41.3234 10.8681C41.0378 10.401 40.6489 10.4783 40.2069 10.5825C39.1165 10.8421 38.4419 10.4522 38 9.30969C38.2605 8.60907 38.6234 8.60907 39.0123 9.18035ZM49.2179 9.64742C50.0488 10.1675 50.8276 10.7388 51.503 11.4394C52.5153 14.1916 52.333 14.7898 49.8925 16.4515C49.3473 16.8404 48.8802 16.7102 48.4392 16.2431C48.0644 15.8438 47.6254 15.5102 47.1404 15.2559C46.543 15.0224 46.076 14.5553 45.5056 14.2697C44.9074 13.9841 44.5705 13.4128 44.8553 12.6601C46.2062 12.1149 47.2185 11.2058 47.9721 9.95911C48.2308 9.51898 48.7248 9.49203 49.2179 9.64832V9.64742ZM60.4593 18.5282C61.1868 19.2028 62.147 19.6447 62.6402 20.5788C62.1982 21.8256 61.8874 23.0714 61.8353 24.3963C61.8084 24.8373 61.5749 25.3044 61.0566 25.4867C59.4721 25.2263 58.564 23.9283 57.3173 23.0975C56.9795 22.5783 56.0714 22.475 56.1226 21.6181C56.6166 20.6839 57.3433 20.1378 58.3556 20.216C57.9146 19.8261 57.7843 19.6447 57.9406 19.2818C58.2002 18.6836 58.6933 18.2938 59.3167 18.2938C59.7056 18.2938 60.1215 18.2938 60.4593 18.5273V18.5282Z" fill="#ADADAD"/>
<path d="M60.5026 24.8123C61.0487 24.0596 61.0739 23.2027 61.0227 22.3458C60.9445 21.2805 61.3074 20.5017 62.3467 20.1388C63.3329 21.2293 64.0084 22.423 63.9042 23.9554C63.8782 24.3192 64.0344 24.7081 64.1117 25.0719C63.8 25.6432 63.9051 26.2665 63.8782 26.889C63.5925 27.2788 63.827 27.9534 63.1254 28.0836C62.9961 28.0836 62.8398 28.0576 62.7617 27.9795C62.1131 27.0453 61.2041 26.5782 60.1137 26.4219C59.4382 25.7465 58.425 26.0061 57.6732 25.539C57.128 25.2012 56.1408 25.0979 56.4786 24.1629C56.8423 23.2287 57.6211 23.7991 58.2445 23.9554C59.0493 24.1629 59.6457 24.8384 60.5026 24.8123V24.8123ZM49.3655 15.751C49.7544 15.257 50.1443 14.7117 50.5602 14.2447C51.0272 13.7255 51.5725 13.3617 50.8449 12.5569C50.4299 12.1159 51.1305 11.5446 51.2087 10.9994C52.3764 11.8563 53.571 12.6342 54.6103 13.6474C54.2204 14.6606 53.6492 15.6729 54.1683 16.8414C54.2465 17.0229 54.0902 17.2564 53.9348 17.4127C53.8359 17.4902 53.7202 17.5434 53.5971 17.5681C53.2593 17.5681 52.8964 17.3867 52.5848 17.5942C51.4171 18.399 50.456 17.5942 49.4688 17.2304C48.5347 16.8935 49.2092 16.2441 49.3655 15.751ZM48.9227 9.20742C47.9616 9.88288 47.5987 11.0515 46.7418 11.8033C46.1184 12.3494 45.522 12.6871 44.6911 12.3494C44.0157 12.7132 43.6779 12.3234 43.3923 11.8042C43.263 11.5437 43.2109 11.3102 43.3923 11.0515C43.73 10.1164 44.4055 10.5844 45.054 10.7137C44.2232 9.23347 44.6911 8.27326 46.6124 7.36426C47.4389 7.90439 48.2125 8.52153 48.9227 9.20742V9.20742ZM60.1658 18.0873C59.4382 18.3729 58.3217 18.3478 58.1915 19.2559C58.0882 20.1128 59.334 19.9053 59.8281 20.6059C58.3217 19.4894 57.3094 20.8664 56.0887 21.2032C55.6217 21.4368 55.336 21.2293 55.0764 20.8395C55.31 19.8011 54.8159 18.9442 54.401 18.0612C54.8168 16.7373 56.0887 15.672 57.1792 15.6989C58.2696 16.3995 59.308 17.1271 60.1649 18.0882L60.1658 18.0873ZM37.4209 60.3839H37.9401C38.3559 60.6174 38.5113 61.0072 38.5113 61.4483C38.5634 63.1881 38.7718 64.928 38.2006 66.6158C37.5511 66.9787 36.8496 67.0828 36.123 67.187C36.123 65.0834 36.123 63.0067 36.0969 60.903C36.0494 60.8506 36.0211 60.7837 36.0163 60.7131C36.0116 60.6425 36.0308 60.5724 36.0709 60.5141C36.4867 59.9689 36.9538 60.1764 37.4209 60.3839Z" fill="#ADADAD"/>
<path d="M38.2011 66.5889C37.6298 64.5383 38.0717 62.4355 37.9415 60.3579C38.3834 60.1765 38.7984 60.0202 39.2403 59.8387C39.8116 60.2798 39.7334 60.9031 39.7595 61.5005C39.8367 62.9286 39.552 64.3568 39.9409 65.758C39.4999 66.3042 38.7984 66.3293 38.2011 66.5889V66.5889ZM57.2075 15.699C56.7665 15.9846 56.3246 16.2963 56.1431 16.7634C55.8827 17.438 55.4156 17.7496 54.7931 17.958C54.0404 18.3982 53.9362 17.7496 53.7548 17.2826C52.8457 15.1017 53.0011 14.4531 54.5856 13.6474C55.5264 14.2416 56.4051 14.9289 57.2084 15.699H57.2075ZM31.7096 60.9031C31.1644 62.9547 31.5793 65.0314 31.45 67.109C29.1389 66.8485 27.2175 65.6538 25.4265 64.2787C19.5072 59.7085 13.6382 55.0871 7.7449 50.5178C4.96668 48.3109 3.43431 45.636 3.66785 41.9236C3.90139 38.2103 3.71994 34.4971 3.71994 30.7847C3.87624 30.7066 4.00558 30.7326 4.13582 30.8107C4.68105 31.3039 4.49871 32.0305 4.68105 32.6539C4.26517 34.2114 4.6541 35.7699 4.57685 37.3274C4.49871 39.1454 5.17417 40.5727 6.42001 41.8455C8.31527 43.8189 10.5231 45.4024 12.678 47.0642C17.8706 51.0631 22.8818 55.3207 28.334 59.0079C28.5424 59.1633 28.7499 59.3456 28.9835 59.3977C29.9176 59.7345 31.0602 59.6833 31.6575 60.7217C31.6844 60.7738 31.6844 60.825 31.7096 60.9031V60.9031ZM29.3472 1.91211C29.3472 2.69087 29.4514 3.44359 29.711 4.17025C29.9446 4.84572 29.9706 5.49513 29.4254 6.2739C30.8266 6.01341 31.1644 6.55953 30.6712 7.70208C30.8787 8.22125 30.5158 8.40269 30.1521 8.55899C29.3733 8.89582 28.6457 9.38984 27.8149 9.64943C25.1562 11.5534 22.5416 13.5184 19.9734 15.5427C17.0593 17.8335 14.1341 20.1099 11.1977 22.3719C9.12098 23.9555 7.06943 25.5912 5.40771 27.6688C5.22627 27.9023 4.99273 28.1098 4.655 28.1098C3.79809 27.8241 4.16097 26.9672 3.87624 26.4481C3.74599 26.007 3.92833 25.5391 3.74599 25.098C3.51245 22.0081 5.27837 19.9826 7.43321 18.2176C10.1333 16.0107 12.9124 13.881 15.6637 11.7261C19.2206 8.94792 22.8046 6.19575 26.3876 3.44448C27.2957 2.74297 28.2559 2.2229 29.3472 1.91211V1.91211Z" fill="#ADADAD"/>
<path d="M3.74414 25.0983C3.97768 25.5141 3.97768 25.9552 3.97768 26.3962C4.28936 27.2792 4.36661 28.1882 4.5229 29.0972C4.6262 29.7196 4.6783 30.4212 3.95163 30.8101C3.87349 30.8101 3.82139 30.7849 3.74414 30.7849V25.0992V25.0983ZM27.5552 9.23379C28.4121 8.37689 29.658 8.22149 30.6712 7.67627C31.4239 7.85771 31.1383 8.27269 30.9568 8.74067C30.3334 10.1688 30.2813 11.6222 30.6191 13.1285C30.7224 13.5435 30.7745 13.9854 31.2424 14.1669C31.476 14.5827 31.2676 14.7902 30.9047 14.9196C30.3334 14.9977 30.0739 14.5827 29.8655 14.245C29.4505 15.3094 29.2169 16.478 27.6846 16.6855C26.8537 16.7897 26.4127 17.5163 26.5681 18.4514C26.3866 19.0227 26.6983 19.5939 26.5429 20.1652C26.2052 20.6844 26.2312 21.2296 26.3606 21.8C26.4615 22.2526 26.4162 22.7256 26.2312 23.1509C25.6339 23.7482 25.218 23.5398 24.8031 22.9174C24.6468 22.6569 25.0887 22.0605 24.3872 22.1638C23.8159 22.268 23.1674 22.4754 23.1925 23.1509C23.2446 24.1893 22.8297 24.5791 21.8425 24.5521C21.4275 24.5521 21.1419 24.8387 20.9083 25.1504C20.3371 25.9552 19.6356 26.6818 18.9861 27.4085C18.493 27.8244 17.9487 27.6169 17.4286 27.4867C16.8573 27.3052 16.287 27.2271 15.7409 27.5909C14.8848 28.0579 14.0791 28.6032 13.118 28.7855C12.0806 28.3696 11.7949 27.7462 12.5216 27.1238C13.8456 25.9552 14.7806 24.4228 16.1055 23.2542C16.8061 22.6317 17.169 22.7611 17.6631 23.6961C16.8322 22.2159 16.8322 22.2159 18.2083 20.9961C18.6493 20.6062 19.1424 20.2425 19.1164 19.5409C19.0903 19.1781 19.2987 18.8143 19.6104 18.6849C20.7521 18.2691 21.1679 17.2307 21.7653 16.3226C22.3365 15.4908 22.985 14.7642 23.9982 14.4785C24.2839 14.4004 24.6728 14.245 24.6728 13.9333C24.5956 12.1162 26.2052 11.3626 27.0352 10.1159C27.2687 9.85716 27.4771 9.57153 27.5552 9.23379V9.23379ZM38.7184 8.74067C38.3815 8.61132 38.0959 8.58527 37.9396 9.00115C37.7842 9.59758 37.733 10.1168 38.0438 10.7401C38.4588 11.5189 37.9657 12.4279 37.1348 12.48C36.1737 12.5321 35.421 12.9731 34.6683 13.4662C33.8895 13.4662 33.0847 13.4662 32.4092 13.9854C32.1236 14.1938 31.7859 14.1938 31.4751 13.9594C32.2017 12.4539 32.8763 10.9216 33.6299 9.41613C34.124 8.45503 34.7976 7.62417 36.0192 8.61132C36.2258 8.1173 35.6033 8.1694 35.6554 7.70232C36.7198 7.88376 37.9917 7.36458 38.7184 8.74067V8.74067ZM33.7862 60.8773C33.5266 60.8773 33.267 60.8773 33.0075 60.9034H31.7095V60.8764C31.502 60.6177 31.2424 60.3582 31.2155 59.9944C31.0862 58.0991 30.7484 56.1769 31.502 54.3337C31.8128 53.9709 32.2287 53.8406 32.6967 53.8667C33.267 53.8667 33.6829 54.2044 34.0458 54.5942C34.7213 56.4113 34.4356 58.2806 34.3063 60.1498C34.2793 60.4875 33.9946 60.6698 33.7862 60.8773Z" fill="#ADADAD"/>
<path d="M33.7873 60.8774V54.6464C35.2945 53.8407 36.1245 54.2566 36.2035 55.8662C36.2808 57.4507 36.3068 59.0342 36.1254 60.6178V60.8783H33.7873V60.8774ZM63.1288 27.9278C63.3883 27.5909 63.6479 27.2271 63.8815 26.8894C63.8815 28.0059 63.7773 29.1484 63.9075 30.2649C64.2973 33.3288 62.8431 35.5106 60.5841 37.2756C54.3517 42.1913 48.0855 47.064 41.786 51.8933C40.2797 53.0359 38.618 53.9961 36.6446 54.1524C35.6834 54.1784 35.7104 53.529 35.7104 52.8544C35.7104 51.3221 35.9439 49.7645 35.2685 48.2843C35.3987 47.3232 36.0481 46.5704 36.2296 45.6102C36.2817 45.3246 36.6185 45.1944 36.9571 45.2986C37.6838 45.5321 37.1125 46.5444 37.8392 46.7788C39.6051 46.4671 40.903 45.3507 42.2791 44.3375C44.1223 43.0135 45.9142 41.6113 47.6802 40.1832C48.7185 39.9496 49.1335 38.9373 49.9132 38.366C53.1324 36.0549 56.1702 33.4851 59.3122 31.0958C60.3245 30.3431 61.1554 29.408 62.0383 28.5251C62.35 28.1882 62.6096 27.8245 63.1288 27.9278V27.9278Z" fill="#ADADAD"/>
<path d="M35.6067 48.1799C36.2813 48.3622 36.3854 48.9074 36.3854 49.5047C36.3854 50.6212 36.3854 51.7377 36.3594 52.8282C36.3594 53.2953 36.2552 53.7623 36.645 54.1522V54.4118C35.6067 54.9058 34.5674 54.4118 33.5291 54.4639C32.9057 52.3351 32.9578 50.2063 33.556 48.1026C33.6854 47.9724 33.8147 47.8691 33.971 47.817C34.6195 47.5565 35.1657 47.5565 35.6058 48.1799H35.6067Z" fill="#ADADAD"/>
<path d="M33.5268 54.3858H36.6428C37.3955 54.5933 37.4215 55.2166 37.4215 55.84V60.3581C37.0317 60.6177 36.5646 60.6177 36.1227 60.6177C35.6296 60.3572 35.6035 59.8641 35.6035 59.397V56.4373C35.6035 54.6975 35.5523 54.6714 33.7864 54.6454C33.4226 54.6454 33.0588 54.5933 32.748 54.3858C33.0076 54.1783 33.2672 54.1783 33.5268 54.3858V54.3858ZM43.3938 11.0778C43.472 11.2592 43.5753 11.4146 43.6534 11.597C43.7567 12.7135 43.4711 13.83 43.3929 14.9204C43.3417 15.648 42.7444 15.9327 42.121 16.0109C41.1087 16.1402 40.2258 16.53 39.3428 17.0232C38.3045 17.0753 37.5778 16.6854 37.2922 15.6219C37.1619 15.4396 37.5257 15.2581 37.2922 15.0758C36.5646 14.5827 36.8251 14.0635 37.2922 13.5955C37.7332 13.1554 37.9928 12.6614 38.1491 12.038C38.538 10.4032 39.5252 9.80501 41.2902 10.0125C42.121 10.1688 42.563 11.0257 43.3938 11.0778V11.0778Z" fill="#ADADAD"/>
<path d="M41.3155 10.0385C40.8484 10.246 40.3814 10.4544 39.9134 10.6358C39.4975 10.8173 39.0304 11.0257 38.9792 11.4407C38.849 12.5832 38.5113 13.5694 37.5241 14.297C37.1612 14.5826 37.3427 14.7901 38.5634 15.0497C38.0963 15.18 37.7585 15.2833 37.4208 15.3875C37.3939 15.4908 37.3166 15.4908 37.2645 15.4135C36.3564 14.6599 35.4735 13.8811 34.5645 13.1284C34.9543 12.0901 35.8624 11.8305 36.7974 11.7263C37.6283 11.6481 37.7585 11.4927 37.2645 10.7652C36.4076 9.54539 36.616 9.13041 37.94 8.97412C38.7448 9.18161 39.4975 9.70168 40.4326 9.4412C40.7703 9.36395 41.1332 9.62354 41.3155 10.0385V10.0385ZM49.3645 15.7512C49.5729 16.8677 51.1044 17.3869 52.0906 16.7123C52.8182 16.2183 53.1299 16.971 53.5188 17.3348C54.038 17.9321 53.5458 18.322 53.2332 18.789C52.5326 19.8534 51.1565 20.0609 50.3768 21.022C49.5729 22.0343 48.4564 22.6317 47.4432 23.3071C46.457 23.9817 45.8085 22.9954 45.1069 22.5014C44.1728 21.4891 42.6916 21.022 42.017 19.698C41.991 19.5678 41.9649 19.4376 41.991 19.3343C42.7698 18.3732 43.4452 17.3609 44.3021 16.4779C44.7692 15.9848 45.2884 16.0369 45.8336 16.4258C45.2623 15.3875 45.5219 14.9725 47.0282 14.4533C48.0405 14.4533 48.3783 15.6479 49.3645 15.7512V15.7512Z" fill="#ADADAD"/>
<path d="M47.0286 14.4533C46.9765 14.5826 46.8732 14.6868 46.8732 14.8162C46.8211 15.4135 45.7828 15.4656 46.0424 16.115C46.2499 16.6602 47.0286 16.53 47.4184 17.1013C46.9765 16.971 46.5094 16.8677 46.0684 16.7114C45.2115 16.4258 44.3546 16.8156 44.2504 17.4911C44.095 18.789 43.1079 18.9444 42.303 19.4384C41.4982 20.0609 41.0833 19.2561 40.512 18.9714C39.8626 18.3731 39.0569 17.9061 39.188 16.8156C39.7072 16.0108 40.3557 15.4656 41.394 15.4916C42.4333 15.5177 42.8743 14.9725 42.8222 13.9332C42.771 13.0763 42.745 12.1682 43.601 11.5969C43.9387 11.8565 44.3025 12.1161 44.6402 12.3757C44.9519 12.947 45.3929 13.388 46.0415 13.5182C46.5876 13.6224 46.8732 13.9853 47.0295 14.4524L47.0286 14.4533ZM55.3121 20.6582C55.5716 20.8397 55.8312 20.996 56.0908 21.1774C56.5319 21.5151 56.9477 21.878 57.3888 22.2158C57.3627 22.346 57.3627 22.5014 57.2855 22.5795C55.6489 24.3706 55.8052 26.7078 55.3902 28.8626C55.1818 29.927 54.4291 30.5504 53.4949 30.9914C52.3003 30.4202 51.1057 30.6025 49.9631 31.1477C49.5221 31.3552 49.1062 31.5115 48.6391 31.2771C47.9897 30.3429 47.2631 29.46 46.7951 28.4207C46.5885 27.9536 46.4061 27.4865 46.5615 26.9674C46.5615 26.4482 46.7951 26.0584 47.1849 25.7727C49.4439 24.0077 51.729 22.2939 53.962 20.4759C54.4552 20.4498 54.9231 20.2163 55.3121 20.6582V20.6582Z" fill="#ADADAD"/>
<path d="M53.5184 30.784C55.1801 29.019 54.8944 26.6037 55.5439 24.5009C55.8816 23.4365 56.3226 22.6057 57.387 22.2158C58.5281 22.9501 59.5746 23.822 60.503 24.8117C60.1913 25.436 59.7242 25.2015 59.2823 25.0452C58.5296 24.7605 57.7768 24.4488 56.972 24.2934C57.6206 24.8907 58.4514 25.0722 59.205 25.3839C59.594 25.5393 60.2434 25.3839 60.2173 26.1114C60.4778 26.8372 59.8535 27.0716 59.4646 27.2531C57.7247 28.0318 56.6604 29.434 55.6741 30.9663C55.0247 32.0047 54.4013 32.0568 53.363 31.3032C53.3315 31.2112 53.3296 31.1118 53.3575 31.0187C53.3853 30.9256 53.4416 30.8436 53.5184 30.784V30.784Z" fill="#ADADAD"/>
<path d="M53.5191 31.3041C54.9993 31.2772 55.6479 30.317 55.9865 29.0712C56.1419 28.552 56.5578 28.3436 56.9476 28.084C58.0463 27.4112 59.1542 26.7537 60.271 26.1115C61.6992 25.5402 62.425 26.0073 63.1265 27.9286C61.9839 29.876 60.218 31.2 58.4791 32.55C55.0254 35.251 51.5466 37.925 48.0668 40.625C47.1839 40.184 47.0545 39.6909 47.6779 38.9112C48.4566 37.9501 49.2354 37.016 50.0142 36.0549C50.404 35.6399 50.5333 35.0947 50.6896 34.5755C51.3903 33.7967 51.7019 32.7835 52.3244 31.9527C52.6109 31.5637 52.8184 31.0185 53.5191 31.3041V31.3041ZM3.95312 30.8101C3.95312 29.3307 3.97917 27.8765 3.97917 26.3962C4.4202 26.8121 4.4202 27.4615 4.73189 27.9286C5.09567 27.8505 5.4325 27.9026 5.64089 28.2142C6.5499 29.4861 7.84783 30.317 9.01643 31.3302C9.82124 32.109 10.8075 32.6542 11.5863 33.459C12.4692 34.0563 13.3782 34.6267 14.1309 35.3803C15.8447 36.9378 16.39 37.0681 17.7149 36.3926C18.1298 36.186 18.3885 35.9516 18.4936 35.4845C18.5969 34.9653 18.8305 34.4973 19.4278 34.368C19.8948 34.368 20.3368 34.3159 20.7518 34.5746C21.3491 35.1468 22.0245 35.6138 22.6991 36.0818C23.0368 36.5489 23.7644 36.6782 23.7896 37.4058C23.7123 38.5223 22.7512 39.2229 22.5177 40.3394C22.2581 41.5601 22.5958 42.2347 23.5048 42.832C23.7635 43.0134 23.9719 43.2218 24.2315 43.3772C25.4773 44.2602 26.5938 45.2994 27.996 45.9479C28.5933 46.415 29.5023 46.5713 29.5023 47.5576C29.4753 49.4268 29.5804 51.322 29.2939 53.1921C28.7747 54.1002 28.0741 53.8146 27.3986 53.4517C25.5303 52.4906 23.9459 51.1406 22.3362 49.8678C17.3241 45.8958 12.2617 42.0011 7.22447 38.0543C5.4855 36.6782 4.16151 35.1728 3.95312 32.8626V30.8101V30.8101Z" fill="#ADADAD"/>
<path d="M3.95511 32.8618C4.96741 35.6661 7.27855 37.3017 9.48459 39.0147C14.8765 43.2435 20.286 47.4499 25.7129 51.6338C26.674 52.3614 27.6863 53.0351 28.8539 53.3737C29.1144 53.3998 29.321 53.5552 29.4252 53.7887C29.9704 55.4504 29.7369 57.1391 29.6857 58.8259C29.6588 59.3451 29.3731 59.6829 28.88 59.8382C26.7772 59.0334 25.1155 57.5792 23.4017 56.2292C18.2495 52.2503 13.1259 48.2345 8.03126 44.1822C7.01806 43.3774 6.13601 42.4163 5.25305 41.4821C4.37009 40.4949 3.92816 39.2752 3.95421 37.9251C3.98116 36.2365 3.95421 34.5496 3.95421 32.8618H3.95511Z" fill="#ADADAD"/>
<path d="M28.8514 59.8382C29.3967 57.7875 28.9808 55.6839 29.111 53.6072C30.1494 52.9066 30.876 53.6332 31.6557 54.1784C31.6818 54.2557 31.7069 54.3078 31.7069 54.3859V60.8514C30.7727 60.5397 29.8116 60.1759 28.8505 59.8382H28.8514ZM8.62518 31.8234C7.17095 30.6808 5.69157 29.5643 4.73047 27.9278C4.86071 27.149 5.37989 26.6559 5.89906 26.1107C8.72847 23.0477 12.2343 20.8399 15.4535 18.2431C18.8811 15.4397 22.4902 12.843 25.9951 10.1429C26.4622 9.77911 26.9562 9.38928 27.5535 9.23389C27.9945 9.96145 28.0987 10.3764 27.1897 11.077C26.3849 11.6744 25.1382 12.428 25.6061 14.0376C26.0211 15.4388 24.5417 15.2834 23.9705 15.3876C22.6977 15.5951 22.4381 16.6856 21.8147 17.4131C21.3746 17.9323 22.1264 18.1659 22.4381 18.5548C21.3737 18.6069 20.2833 18.5036 19.738 19.5159C19.4524 20.0351 20.153 20.0351 20.5168 20.45C19.271 20.5021 18.7769 21.5414 17.9721 22.1639C16.8305 23.0729 18.2838 24.0861 18.0242 25.0984C18.0242 25.0984 17.8949 25.0984 17.8949 25.0714C16.9859 23.0729 16.8044 23.0208 15.4283 24.8127C14.7529 25.7217 14.0783 26.5777 13.1433 27.2532C12.7534 27.5388 12.2603 27.9808 13.013 28.4478C13.1172 28.5251 13.1693 28.6544 13.1954 28.7847C13.1433 29.2787 12.7283 29.382 12.4166 29.5895C11.6109 29.7458 10.9884 29.9533 10.8061 31.0177C10.5986 32.1863 9.42999 31.7452 8.62518 31.8234ZM18.7518 27.1499C19.1156 25.9553 20.1018 25.2026 20.674 24.1382C21.0629 23.3845 21.7896 23.7223 22.5423 24.0079C21.8417 23.2292 22.0231 22.6318 22.6986 22.1387C23.4774 21.5935 24.5938 21.5153 24.9055 20.3728C24.9316 20.2955 25.1391 20.2174 25.2172 20.2434C25.4247 20.2955 25.4508 20.477 25.4247 20.6584C25.3726 21.1255 25.2693 21.5926 25.2433 22.0606C25.2163 22.5276 25.2433 22.9947 25.7373 23.2552C26.5152 24.1633 26.411 25.0463 25.3475 25.7999C24.1528 26.6307 23.1657 27.6951 21.9198 28.4739C21.3486 28.6814 20.7773 28.4999 20.206 28.5781C19.5305 28.2664 18.7257 28.1362 18.7518 27.1499Z" fill="#ADADAD"/>
<path d="M21.8436 28.2403C22.4409 27.1238 23.4532 26.345 24.4394 25.6956C25.3745 25.0722 25.8164 24.3716 25.7383 23.2812C25.8164 22.1647 25.5308 21.0221 25.9458 19.9056C26.2063 19.8796 26.517 19.9056 26.6464 20.1392C27.2186 21.3078 28.2048 22.2168 28.5686 23.4896C28.6207 23.8785 28.9315 24.1902 28.8803 24.6052C28.4904 26.1115 27.4 27.2801 26.9581 28.7595C26.7245 29.5382 25.7904 29.3828 25.3233 29.8499C23.9212 29.8499 22.5451 29.7718 21.8436 28.2403V28.2403ZM30.9049 17.6214C29.3994 16.0891 27.9713 16.3747 26.6203 17.855C26.3356 18.1667 25.9467 18.3481 25.4787 18.3742C26.1281 17.4912 26.6212 16.5301 27.868 16.1412C28.1788 16.037 29.0357 15.1028 28.9315 14.1678C28.9063 13.9073 28.8803 13.6486 28.9315 13.4151C29.0617 12.9731 29.2171 12.4019 29.7623 12.4019C30.2294 12.4019 30.1782 12.9731 30.2824 13.3369C30.4117 13.7779 30.5159 14.2459 30.6453 14.713C30.6722 15.0768 30.983 15.2582 31.1905 15.4657C31.6576 16.2445 32.0735 17.0502 30.9049 17.6214V17.6214Z" fill="#ADADAD"/>
<path d="M33.7847 17.2829C33.8116 17.361 33.8116 17.4131 33.8116 17.4912C34.356 18.5556 33.5511 18.9194 32.8505 19.3344C32.0457 19.4907 31.8634 18.9455 31.6828 18.3482C31.4223 18.0877 31.1628 17.8541 30.9032 17.5945C31.0074 16.8679 31.1107 16.1664 31.2149 15.4397C32.0718 16.0631 32.9287 16.6864 33.7856 17.2829H33.7847ZM33.5269 54.3859H31.7098C31.0092 54.0221 30.7487 53.4517 30.8008 52.6721C30.931 51.0104 30.437 49.2965 31.2679 47.7139C32.255 47.0896 33.0338 47.4794 33.7865 48.154C33.6571 50.2576 34.0721 52.3343 33.5269 54.3859ZM50.6624 36.4959C49.4686 37.2495 49.0006 38.5996 48.0404 39.5858C47.7808 39.8724 47.8069 40.2873 48.0404 40.6511C44.7439 43.2209 41.7052 46.1815 37.6812 47.6609C37.1611 47.2459 37.2653 46.7528 37.4728 46.2075C37.6812 45.6623 38.018 45.1431 38.512 44.9348C40.7962 43.8704 41.6792 41.6634 42.8999 39.7161C43.5493 38.6777 44.7691 38.1585 45.3404 37.0932C45.8344 36.2372 46.535 35.7953 47.3919 35.4585C48.3782 35.0686 50.0147 35.5878 50.6633 36.4968L50.6624 36.4959Z" fill="#ADADAD"/>
<path d="M50.6621 36.496C49.9615 36.3406 49.2339 36.1852 48.5333 36.0029C48.0914 35.8996 47.6764 35.7963 47.5722 36.4448C47.5461 36.5741 47.494 36.6783 47.4428 36.7825C45.729 35.8735 46.1189 37.8981 45.314 38.314C44.4311 38.7811 43.6523 39.4044 43.2104 40.4428C42.6912 41.6114 41.8864 42.6497 41.237 43.7402C40.8993 44.3115 40.328 44.4938 39.8088 44.7534C38.6142 45.3247 37.7842 46.1816 37.7061 47.6097C36.4854 47.272 37.0827 46.2588 36.9273 45.5321C37.0827 45.2465 36.771 44.9088 37.0046 44.6231C38.6151 43.6369 39.3938 41.9752 40.328 40.4688C40.9514 39.4565 42.2232 38.9895 42.5349 37.7688C42.5619 37.5083 42.6912 37.3017 42.6652 37.0412C42.561 35.7693 43.1592 34.9906 44.3529 34.6528C44.4311 34.2899 44.2748 33.822 44.847 33.7438C45.4434 33.4582 46.2482 33.5624 46.638 32.8618C47.1051 32.1082 47.5461 30.9917 48.403 31.0438C49.2079 31.0958 49.6758 32.1863 50.0648 32.966C50.1169 33.0693 50.169 33.1995 50.2211 33.3288C50.3504 33.9783 50.9217 34.3672 51.1822 34.9124C50.9998 35.4576 50.8184 35.9768 50.6621 36.4969V36.496Z" fill="#ADADAD"/>
<path d="M37.1627 44.8041C37.0845 45.0646 36.9804 45.3233 36.9022 45.5829C36.5393 45.8164 36.6175 46.2062 36.6435 46.5179C36.7468 47.3748 36.3579 47.894 35.6043 48.1797H34.0467C33.3461 47.8419 32.827 47.3748 33.0344 46.4919C33.2419 45.5577 34.3324 44.337 35.0851 44.2589C35.6564 44.1816 36.1755 44.3631 36.7468 44.3631C36.9804 44.3891 37.1106 44.5445 37.1627 44.8041Z" fill="#ADADAD"/>
<path d="M36.9292 44.5708C36.1495 44.9867 35.1372 44.5196 34.4617 45.3244C33.709 46.2073 33.2671 47.0903 34.0468 48.1538H33.7863C33.0084 48.0766 32.2296 47.9724 31.4509 47.8951C31.035 48.3101 30.5931 48.3622 30.1 48.0505C29.3472 47.0122 29.9706 46.2334 30.567 45.4798C30.8536 45.1429 31.3467 44.9346 31.2425 44.3642C31.2164 44.2339 31.2164 44.1037 31.2164 43.9744C31.035 42.7797 31.7356 41.9489 32.6446 41.4818C33.683 40.9626 34.4617 41.8447 35.2675 42.3387C36.0723 42.8058 36.825 43.3249 37.266 44.1818C37.266 44.4154 37.1888 44.5717 36.9283 44.5717L36.9292 44.5708ZM43.1341 24.5269C43.7314 24.9939 44.3809 25.3838 44.874 25.982C45.4192 26.6305 46.1207 26.9682 47.0028 26.864C47.1851 28.4476 48.431 29.5381 48.8208 31.0183C50.0406 31.9525 50.275 32.8615 49.5996 33.8747C48.9501 33.1992 49.0022 32.213 48.3789 31.304C47.9639 32.1348 47.6261 32.8615 47.2624 33.6151C46.7432 33.7445 46.6659 33.3546 46.6911 33.0178C46.7692 31.9013 46.1719 32.1609 45.5755 32.4465C44.7446 32.8615 43.8868 33.1741 42.9787 33.3034C42.3814 33.3546 41.6547 33.9268 41.2389 33.1471C40.7718 32.2642 41.2658 31.4342 41.7841 30.6806C42.9787 29.3566 43.4198 28.0326 41.732 26.7338C41.6026 26.6305 41.6547 26.423 41.6808 26.2407C42.0437 25.5913 42.3814 24.9167 43.1341 24.5269V24.5269Z" fill="#ADADAD"/>
<path d="M49.626 33.8998C49.3655 32.9387 49.1069 32.0046 48.8473 31.0435C50.015 30.0051 51.5213 30.0824 52.9234 29.8488C53.7282 29.7195 53.4947 30.368 53.5207 30.7839V31.3031C52.5336 32.3935 52.2479 33.8989 51.1835 34.9382C50.6644 35.4322 50.2224 35.6388 50.0159 34.6786C49.9377 34.4181 49.7554 34.1594 49.626 33.8998V33.8998ZM55.0262 25.1242C54.7405 26.3448 54.507 27.5395 54.1693 28.7081C54.0139 29.2524 51.7027 29.9279 51.1575 29.6683C50.8198 29.5129 50.8198 29.2273 51.0282 29.071C52.4042 28.1099 52.7159 26.2927 54.1432 25.3837C54.3516 25.2283 54.533 25.0209 55.0262 25.1242V25.1242ZM27.5566 46.3627C26.2326 45.6621 24.9607 44.8824 23.9224 43.7668C23.6367 43.377 23.5586 42.9872 23.8954 42.5983C24.649 41.7413 25.532 41.0138 26.0772 39.9754C26.1805 39.794 26.441 39.7679 26.6485 39.7419C27.8431 40.4695 29.1411 39.6898 30.3869 40.0015C30.9582 40.7021 30.6986 41.4557 30.3348 42.0521C29.7635 43.0132 29.7896 43.5585 30.9842 43.7659C31.2959 43.818 31.4783 44.1037 31.6848 44.3112C31.6848 44.9345 31.1917 45.116 30.7507 45.116C29.504 45.0648 28.5177 45.6361 27.5566 46.3627V46.3627Z" fill="#ADADAD"/>
<path d="M26.7757 40.132C26.5691 41.9239 24.3612 42.1575 23.9193 43.7671C23.816 43.715 23.6858 43.6629 23.5825 43.5857C21.0639 42.0272 20.8564 40.4437 22.8549 38.2107C23.0633 37.9771 23.2187 37.7436 23.401 37.51C23.9723 37.1202 24.3873 37.51 24.7771 37.7957C25.2963 38.1586 25.8676 38.4703 26.3346 38.9113C26.6203 39.2751 27.1134 39.5607 26.7757 40.1329V40.132ZM16.1559 32.083C16.2341 32.083 16.3122 32.109 16.3895 32.109C17.2724 31.9527 18 32.3686 18.6746 32.8878C19.1416 33.3809 19.6087 33.9001 19.5315 34.6788C19.0644 35.3543 18.8309 36.0549 19.6878 36.9379C18.4671 36.8085 17.6623 37.1454 16.8575 37.5352C16.0266 37.9502 15.5335 37.1714 14.9353 36.8076C14.4951 36.5229 14.1053 36.1852 13.8457 35.7441C14.5984 34.5225 14.832 32.9399 16.1559 32.083ZM30.1512 47.6358C30.5931 47.713 31.0081 47.8172 31.45 47.8953C31.45 49.6604 31.45 51.4002 31.3979 53.1661C31.3979 53.6072 31.45 54.023 31.7096 54.3859C30.8527 54.1263 29.9698 53.8668 29.1138 53.6072L28.8533 53.3476C28.9314 51.3481 28.6718 49.3496 29.1138 47.3762C29.606 46.9603 29.8916 47.2459 30.1512 47.6358V47.6358Z" fill="#ADADAD"/>
<path d="M16.1558 32.0828C16.0264 32.7062 16.1037 33.3295 15.5333 33.8487C14.962 34.3418 15.7399 34.7308 15.8702 35.3021C15.0653 35.0425 14.3908 35.1988 13.8195 35.744C12.8324 35.3281 12.0796 34.5233 11.2236 33.926C11.1446 31.719 12.677 30.2908 14.5722 30.8361C15.0914 31.2259 15.6106 31.6418 16.1558 32.0828Z" fill="#ADADAD"/>
<path d="M14.5714 30.8099C12.7283 31.0444 12.2872 32.8103 11.2228 33.8998C10.3659 33.1992 9.48296 32.5247 8.62695 31.8231C8.98984 31.5115 9.32757 31.1737 9.84675 31.1737C10.1836 31.1486 10.2096 31.0183 10.2096 30.6806C10.1324 29.2524 10.7297 28.8635 12.2612 29.2273C13.066 29.6683 14.0531 29.8758 14.5723 30.8108L14.5714 30.8099ZM30.1503 47.6355C29.8125 47.5574 29.4496 47.4541 29.1119 47.375C28.5927 47.0382 28.0736 46.7014 27.5535 46.3376C27.6577 44.9866 28.3583 44.3902 29.7353 44.4935C30.3838 44.5456 31.0853 44.6238 31.7078 44.26C32.0195 44.3121 32.6689 44.1567 32.0195 44.7792C31.2147 45.61 30.4098 46.4678 30.1512 47.6355H30.1503ZM28.5146 24.5789C28.9556 25.4359 29.4236 26.2928 29.8646 27.1497C29.6832 28.5778 29.3706 29.9279 27.9954 30.7587C26.7747 31.0965 26.2295 30.862 25.5028 29.7195C25.5028 29.6422 25.4759 29.5641 25.4759 29.486C26.4891 27.8763 27.5023 26.2146 28.5146 24.5789V24.5789ZM35.5252 21.4369C34.6162 20.6582 33.6821 19.8794 32.7731 19.1007C33.1369 18.5815 33.4737 18.0363 33.8375 17.5171L37.6549 20.2432V20.4507C37.7843 21.6184 36.772 21.7235 36.0705 22.1385C35.6806 22.0603 35.4471 21.8528 35.5252 21.4378V21.4369ZM42.3545 30.7578C42.2512 30.9914 42.1209 31.1998 42.0428 31.4594C41.8874 31.9785 41.4455 32.5498 41.8092 32.9908C42.0949 33.3546 42.6661 32.8094 43.1072 32.8615C43.3928 33.3025 43.8078 33.095 44.1985 33.1211C44.7689 33.1471 45.3402 33.3546 44.8991 34.1594C44.6656 35.1466 45.7821 34.5493 45.9375 35.1726C45.3923 35.0945 44.8731 35.0163 44.38 34.9391C43.7045 34.9391 43.056 35.1987 42.3805 34.9903C41.8353 34.8088 41.4715 35.1726 41.0826 35.6137C39.1604 37.7694 37.4735 40.1048 35.7597 42.3899C35.6043 42.5983 35.3698 42.7276 35.1103 42.8058C34.098 42.5453 33.6309 41.5851 32.8 41.0659C32.4623 40.8584 32.5395 40.235 32.8 40.0015C34.124 38.8069 33.9426 37.0679 34.4878 35.6137C35.2926 34.7307 36.5905 34.2636 36.8762 32.9136C37.6549 32.1348 38.5379 31.4854 38.8496 30.2908C39.005 29.7195 39.6804 29.4599 40.1996 29.1743C41.238 29.3306 42.1209 29.6162 42.3554 30.7578H42.3545Z" fill="#ADADAD"/>
<path d="M35.0836 42.7277C35.707 40.6771 37.446 39.4043 38.5364 37.6653C39.1858 36.6261 40.1721 35.8213 40.8215 34.7308C41.1592 34.1595 41.6524 34.0042 42.2497 34.1856C42.9772 34.4191 43.7039 34.6796 44.4306 34.9392C43.4964 35.5365 43.1066 36.3404 43.4695 37.4569C43.5476 37.7174 43.4183 38.0282 43.3922 38.3138C42.0422 38.2106 41.2886 39.1968 40.6401 40.1058C39.705 41.3777 38.5364 42.4951 37.8358 43.9484C37.7056 44.182 37.472 44.2862 37.1864 44.2862C36.3816 44.0526 35.8363 43.3771 35.1097 42.9882C35.0055 42.9361 34.9794 42.884 35.0055 42.8059C35.0315 42.7538 35.0576 42.7277 35.0836 42.7277V42.7277Z" fill="#ADADAD"/>
<path d="M37.1644 44.2602C37.8911 41.6374 39.8385 39.9505 41.7858 38.314C42.2798 37.899 42.8502 38.0804 43.3954 38.314C41.7337 39.3532 40.7214 40.8847 39.9166 42.6506C39.4495 43.6629 38.4363 44.5198 37.1896 44.8063L36.956 44.5728C37.0081 44.4677 37.0863 44.3644 37.1635 44.2602H37.1644ZM44.9521 34.1606C44.3547 33.2255 43.2903 33.9001 42.4595 33.4851C42.72 33.2516 42.9266 33.0432 43.1349 32.8617C44.3808 32.3165 45.6275 31.7713 46.8734 31.2521C47.159 31.1219 47.4967 30.7581 47.7824 31.0958C48.0429 31.3815 47.7563 31.7452 47.653 32.0569C47.4707 32.5761 47.133 33.0432 47.2892 33.6405C46.6138 34.2899 45.7569 34.1345 44.9521 34.1597V34.1606ZM35.0859 42.7278V42.9883C34.9305 42.9353 34.7743 42.8581 34.6189 42.806C34.0215 42.5725 33.762 41.5081 32.9302 42.0012C32.1002 42.4952 31.7104 43.2991 31.7365 44.2863H30.2041C28.8801 44.2342 28.5172 43.6108 29.2699 42.4943C29.764 41.7667 30.2041 41.0931 30.1789 40.1841C29.7631 39.69 29.9454 39.1709 30.0747 38.6257C30.5418 38.0023 30.8023 37.1454 31.7886 37.0942C31.8146 37.0942 31.9179 37.1714 31.8667 37.0672C31.1131 35.9256 31.9439 35.172 32.5152 34.3681C33.5536 34.3681 34.5407 34.4714 34.8524 35.7181C35.0599 36.1852 35.0859 36.6262 34.8255 37.0681C34.3332 37.9762 34.5407 38.6257 35.8387 39.0667C35.0078 39.223 34.4374 38.7298 33.9694 39.4826C33.0083 40.9628 32.9311 40.9889 35.0859 42.7278V42.7278ZM43.1367 24.5271C43.2149 25.384 42.7209 25.9032 42.0975 26.3442C41.6825 26.708 41.2666 26.6819 40.8256 26.3963C40.2543 25.4621 39.0085 25.3579 38.4363 24.4229C38.2028 24.034 37.7878 23.7483 37.918 23.2031C38.307 22.5537 38.6187 21.801 39.5277 21.6968C40.6442 22.5537 41.7607 23.4106 42.8772 24.2927C42.9544 24.3708 43.0586 24.4489 43.1367 24.5262V24.5271Z" fill="#ADADAD"/>
<path d="M39.4993 21.6967C39.2658 22.3973 38.9541 23.0216 38.1753 23.2812C37.9157 23.4878 37.6561 23.6701 37.2924 23.5408C36.669 23.177 36.1247 22.762 36.1247 21.9311C36.3582 21.1515 37.1109 20.9179 37.6301 20.4248C38.3307 20.6062 38.6685 21.4371 39.4733 21.4632C39.5002 21.5413 39.5002 21.6194 39.5002 21.6967H39.4993ZM30.412 38.86C29.8146 38.7037 29.4508 38.2627 29.088 37.7956C28.673 37.5351 28.2832 37.2504 27.8673 36.9908C27.7119 36.8606 27.6077 36.601 27.7119 36.5489C28.7763 35.8743 28.4646 34.4461 29.2955 33.6674C29.4257 33.6153 29.529 33.5632 29.6853 33.5632C30.464 33.459 31.2428 33.485 31.9183 33.953C32.23 34.1344 32.5668 34.3159 32.5416 34.7578C32.5147 35.0174 32.5928 35.3291 32.4635 35.5105C31.8662 36.5489 32.1779 37.2764 33.3204 37.8998C31.6847 36.7052 31.2949 38.4441 30.412 38.86Z" fill="#ADADAD"/>
<path d="M29.3726 33.9C29.3205 34.6276 28.8794 35.4315 29.9438 35.9255C29.113 36.2884 28.3091 36.2884 27.8411 36.9899C27.0363 36.3665 26.1524 35.7692 25.5039 34.9644C25.7374 34.0554 26.3087 33.3287 26.88 32.6021C27.8671 32.7053 29.0357 32.5239 29.3726 33.9V33.9Z" fill="#ADADAD"/>
<path d="M26.7779 32.9135C28.3094 34.8348 26.1285 34.3937 25.5051 34.939C25.2455 34.8608 24.9859 34.7566 24.7003 34.6785C24.3635 33.8737 23.4545 33.7443 22.9613 33.121C22.8582 33.0752 22.7685 33.0038 22.7008 32.9135C22.5976 32.5236 22.5715 32.1347 22.8571 31.797H23.6359C24.7003 31.4332 25.6614 31.7188 26.5444 32.3422C26.7519 32.4976 26.8039 32.6799 26.7779 32.9135ZM28.8797 30.7577C28.542 30.5763 28.2043 30.3948 27.8414 30.2125C28.569 29.6673 28.8025 28.8364 29.0872 28.0576C29.2435 27.6427 29.3989 27.2789 29.866 27.1486C30.0223 27.331 30.1777 27.5124 30.3079 27.6939C31.4505 28.2139 31.7092 29.4337 32.3846 30.3167C32.9038 32.0045 32.6451 32.4455 31.2169 32.1078C30.8723 31.9546 30.5023 31.8666 30.1256 31.8482C29.425 31.8482 28.9839 31.4853 28.8797 30.7577V30.7577ZM33.0331 26.0851C32.9299 25.9289 32.8257 25.7474 32.7215 25.5911C32.2544 24.657 31.631 23.8261 31.4235 22.7617C31.4235 22.6836 31.4496 22.5794 31.4496 22.5012C32.2283 23.0725 33.0071 23.6438 33.7868 24.2411C34.3832 24.4234 34.6949 24.9166 35.0066 25.4097C35.0326 25.5399 35.0326 25.6702 35.1107 25.7735C35.3703 26.2145 35.9416 26.6043 35.4736 27.2016C34.9545 27.8241 34.4092 27.3049 33.864 27.2016C33.3969 26.9412 33.2406 26.501 33.0331 26.0851V26.0851ZM37.9141 27.1747L40.2764 29.4598C39.8094 30.1092 39.2902 30.7056 39.1348 31.5625C38.9525 32.6018 37.9141 32.7832 37.1093 33.121C37.006 33.1982 36.8758 33.2242 36.7464 33.1982C35.9407 32.6278 35.6039 31.797 35.5518 30.8359C35.9928 29.7975 36.1751 28.6289 36.8758 27.6939C37.0833 27.4082 37.2656 27.1226 37.6033 27.0193C37.7327 27.0193 37.8369 27.0714 37.9141 27.1747V27.1747Z" fill="#ADADAD"/>
<path d="M35.342 30.2909C35.2908 29.8759 35.1085 29.5382 34.8489 29.2265C34.2004 28.5771 33.7585 27.8504 33.7324 26.9153C35.3941 27.4606 35.0052 26.2668 35.0052 25.4099C35.2387 25.6695 35.4983 25.8509 35.8621 25.877C36.4585 26.3189 37.0819 26.786 37.6792 27.227C37.3538 28.5547 36.7125 29.7842 35.81 30.8109C35.3681 30.8882 35.5765 30.3951 35.3429 30.2909H35.342Z" fill="#ADADAD"/>
<path d="M35.3457 30.291C35.502 30.4734 35.6574 30.6287 35.8128 30.8102C36.1766 31.5899 36.5403 32.3426 36.9302 33.1213C36.0212 32.8878 36.0733 31.9015 35.6053 31.3303C35.502 30.9665 35.4238 30.6296 35.3457 30.291V30.291Z" fill="#ADADAD"/>
<path fill-rule="evenodd" clip-rule="evenodd" d="M40.0173 43.767C49.6257 43.767 57.4142 35.9794 57.4142 26.371C57.4142 16.7636 49.6257 8.9751 40.0173 8.9751C37.2382 8.9751 34.6118 9.62631 32.2818 10.7859C30.9054 10.4448 29.4926 10.2729 28.0745 10.2739C18.4662 10.2739 10.6777 18.0616 10.6777 27.669C10.6777 37.2773 18.4662 45.0658 28.0745 45.0658C30.8536 45.0658 33.48 44.4137 35.81 43.255C37.1574 43.5901 38.5676 43.767 40.0173 43.767V43.767Z" fill="#ADADAD"/>
<path d="M56.2156 22.5058C55.4072 24.0795 55.2456 25.9729 54.006 27.3607C53.6827 27.3337 53.3323 27.3068 53.009 27.2807C52.6048 26.8541 52.7395 26.4005 52.9281 25.9469C53.2784 25.0397 53.6288 24.1055 54.033 23.0124C53.3054 23.1462 52.7934 23.2531 52.2814 23.333C51.0688 23.519 49.9101 24.1864 48.6167 23.8926C48.5089 23.7058 48.4011 23.5459 48.2933 23.3591C48.4819 22.7456 48.967 22.6127 49.5059 22.5058C50.7993 22.2121 52.0658 21.8923 53.6018 21.5186C52.6856 20.7982 51.9581 20.2378 51.2574 19.6773C50.7993 19.3045 50.0987 19.0907 50.2065 18.2904C50.3412 18.1305 50.5029 17.9976 50.6377 17.8368C51.1497 17.7569 51.6347 17.8637 52.0928 18.1575C53.3054 19.1186 54.4911 20.0779 55.7306 21.012C56.2695 21.3857 56.5938 21.8114 56.2156 22.5058V22.5058ZM33.2264 11.8878C33.3881 11.0345 34.1426 11.0345 34.7624 10.8746C36.1367 10.554 37.511 10.2612 38.9131 9.96743C40.1796 9.54078 41.2844 9.70066 42.3084 10.6878C43.1438 11.4612 44.1147 12.1016 45.0309 12.7951C45.4082 13.0888 45.8393 13.3555 45.8663 13.9151C45.4351 14.3427 44.9501 14.6095 44.3034 14.3957C43.468 13.7292 42.6057 13.1148 41.7973 12.4214C41.1506 11.8348 40.8542 11.8878 40.5308 12.7421C40.0997 13.8352 39.9649 15.0891 38.941 15.8634C38.6975 15.8634 38.4281 15.8364 38.1855 15.8364C37.6736 15.4628 37.6466 15.0101 37.8891 14.4487C38.2933 13.5415 38.6167 12.6082 39.0478 11.5411C37.1346 11.8618 35.4639 12.1546 33.7923 12.4214C33.6037 12.2615 33.4151 12.0747 33.2264 11.8878V11.8878Z" fill="white"/>
<path d="M44.3014 14.3947C44.9482 14.6084 45.4332 14.3417 45.8644 13.915C47.1578 15.5686 48.9902 16.5827 50.6079 17.8097C50.4732 17.9696 50.3115 18.1034 50.1767 18.2633C49.6917 18.3442 49.3414 18.0765 48.9911 17.8097C47.4551 16.6627 45.8653 15.5426 44.3014 14.3947V14.3947ZM16.354 20.2376C16.2477 20.0189 16.1308 19.8055 16.0037 19.5981C16.4349 18.531 17.0008 17.5169 17.2972 16.3968C17.7283 14.7692 18.6715 13.9428 20.3161 13.783C21.6634 13.5422 23.0108 13.2755 24.3851 13.0356C24.951 12.9287 25.5177 12.7419 26.0297 13.1955C26.0297 13.4623 26.0028 13.7291 26.0028 13.9958C24.4668 14.7962 22.6614 14.6093 20.9637 15.3827C22.0416 16.236 23.0117 16.9833 23.9818 17.7307C24.4129 18.0774 24.8441 18.3971 24.6015 19.0376C24.3321 19.1454 24.0896 19.2514 23.8201 19.3583C22.3919 18.9576 21.4488 17.8376 20.3431 16.9833C19.5885 16.4237 19.2921 16.3169 18.9149 17.331C18.5376 18.3711 18.3759 19.5981 17.3789 20.3454C17.0286 20.3454 16.7052 20.2915 16.3549 20.2376H16.354Z" fill="white"/>
<path d="M26.0013 14.0224C26.0013 13.7556 26.0283 13.4888 26.0283 13.2229L32.173 12.022C32.5234 11.9412 32.8737 11.9412 33.224 11.8882L33.7899 12.4487C31.2299 13.0622 28.643 13.7026 26.0013 14.0224V14.0224ZM35.2719 42.0075C34.9755 42.3803 34.5713 42.5411 34.1402 42.621C33.6282 42.7279 33.0623 42.7809 32.5772 42.9947C28.2379 45.048 25.3807 42.5941 22.6051 39.8464C22.7399 39.5796 22.9016 39.3128 23.0363 39.0461C24.6261 38.7793 25.4076 40.0862 26.4046 40.8605C27.3747 41.6069 27.725 41.633 28.1562 40.3799C28.4795 39.3658 28.4795 38.032 29.7739 37.5254C30.0164 37.6062 30.2859 37.6852 30.5284 37.7391C30.9326 38.1658 30.744 38.6194 30.5553 39.073C30.205 40.0072 29.8817 40.9404 29.4775 42.0875C30.9865 41.7668 32.253 41.474 33.5464 41.1802C34.2201 41.0473 34.8947 40.9135 35.2989 41.6608C35.2989 41.8207 35.2719 41.9006 35.2719 42.0075V42.0075ZM16.5682 35.3912C15.1669 34.2971 13.7926 33.177 12.3636 32.11C11.7168 31.6294 11.5552 31.1758 11.9055 30.4294C12.4175 29.2554 12.8486 28.0545 13.2798 26.8275C13.4953 26.2409 13.7648 25.7873 14.4385 25.7074C14.8157 25.7613 15.1391 25.9472 15.4086 26.214C15.0043 27.441 14.5732 28.6949 14.1151 30.1357C15.1121 29.9219 15.9744 29.709 16.8367 29.6021C17.8068 29.4952 18.8047 28.8287 19.8018 29.5213V30.3225C18.2389 31.1489 16.3795 30.9629 14.6549 31.7632C15.6789 32.5627 16.5682 33.2839 17.4844 33.9774C17.9963 34.351 18.185 34.7507 17.8347 35.3373C17.4035 35.3103 16.9724 35.3373 16.5682 35.3912V35.3912ZM51.82 33.23C51.82 35.1774 50.7151 36.805 50.1762 38.5655C50.0145 39.126 49.3947 39.0991 48.9366 39.2059C46.9147 39.7125 44.8659 40.1661 42.8449 40.6467C42.6293 40.3799 42.3868 40.1392 42.1712 39.8724C43.3299 38.8053 44.9198 39.0991 46.2402 38.5655C46.6174 38.4056 47.1025 38.2987 47.1833 37.952C47.2911 37.6053 46.7522 37.4715 46.5096 37.2316C45.6743 36.4053 44.3808 36.0577 43.9766 34.8037C44.0844 34.6439 44.2192 34.5109 44.3269 34.3501C44.9198 34.1373 45.4587 34.2441 45.9438 34.6708C46.2671 34.9645 46.6444 35.2313 46.9947 35.4972C48.8819 36.9649 48.8819 36.9649 49.6903 34.7507C49.9058 34.1373 50.0406 33.4438 50.7681 33.1501L51.8191 33.2309L51.82 33.23Z" fill="white"/>
<path d="M16.5691 35.3909C16.9733 35.364 17.4045 35.337 17.8087 35.284C18.2937 35.3649 18.7518 35.5777 19.1291 35.8975C20.4225 36.9646 21.7169 38.0317 23.0373 39.0718C22.9025 39.3386 22.7409 39.6054 22.6061 39.8722C20.5851 38.3784 18.5641 36.8847 16.5691 35.39V35.3909ZM51.8218 33.2298C51.4715 33.2028 51.1212 33.1768 50.7709 33.1768C51.5254 31.2294 52.253 29.2551 53.0075 27.3078L54.0045 27.3886C53.2682 29.3324 52.5406 31.2795 51.8218 33.2298V33.2298ZM15.4095 26.1868C15.1401 25.92 14.8167 25.7341 14.4395 25.6802C14.8706 23.7867 15.7598 22.0522 16.3796 20.2118C16.7299 20.2657 17.0802 20.3187 17.4036 20.3717C16.8916 22.372 15.7329 24.1595 15.4095 26.1868V26.1868ZM42.1722 39.8731C42.3878 40.1389 42.6303 40.3797 42.8459 40.6455C41.0135 40.7803 39.288 41.4198 37.5095 41.7665C36.755 41.9004 36.0274 42.0602 35.2729 42.0063C35.2729 41.9004 35.2999 41.8204 35.2999 41.7135C35.5777 41.434 35.9355 41.2476 36.3238 41.18C38.291 40.7794 40.2311 40.3267 42.1713 39.8722L42.1722 39.8731ZM35.5693 25.7062C37.9945 25.8931 40.2042 24.9068 42.5225 24.5062C44.4627 24.1855 46.3489 23.7589 48.29 23.3592C48.3978 23.5451 48.5056 23.7059 48.6134 23.8927C46.754 24.6391 44.7869 24.8529 42.8728 25.2796C40.5554 25.8131 38.211 26.3197 35.8927 26.8272C35.2729 26.5865 35.219 26.2137 35.5693 25.7062ZM35.9744 21.145C36.7289 19.3845 37.0792 17.4372 38.1841 15.8096C38.4266 15.8096 38.6961 15.8365 38.9386 15.8365C38.3188 17.7569 37.726 19.6782 36.7828 21.4657L35.9744 21.145V21.145ZM32.201 26.2676C30.0183 24.1864 27.4853 22.5328 25.14 20.6654C24.6819 20.2917 24.0622 20.0519 23.8466 19.4115C24.116 19.3046 24.3586 19.1977 24.628 19.0917C27.2688 21.119 29.9096 23.1463 32.5513 25.1996C32.8477 25.4404 33.1711 25.5203 33.5483 25.5203C33.4405 26.3476 32.7669 26.1877 32.201 26.2676V26.2676ZM34.5992 28.1341C33.3058 30.3483 32.7399 32.8561 31.7159 35.1762C31.3387 36.0574 31.2309 37.0445 30.5024 37.7649C30.2599 37.6841 29.9904 37.605 29.7479 37.5511C30.7719 34.8295 31.742 32.0827 32.8199 29.3881C33.1432 28.5617 33.0893 28.1341 32.1731 27.9213C33.0354 27.6545 33.8977 27.1739 34.5983 28.1341H34.5992ZM27.1601 28.5617C26.2709 29.2282 25.193 29.2021 24.1681 29.442C22.713 29.8156 21.2309 30.0024 19.748 30.2953V29.4958C22.1462 29.0952 24.4376 28.215 26.8898 28.1611C26.9976 28.2949 27.0784 28.4279 27.1592 28.5617H27.1601ZM43.9794 34.8035C42.8746 34.8304 42.3896 33.8693 41.662 33.3627C40.6111 32.5902 39.3976 31.9759 38.6161 30.8558C38.8586 30.748 39.1012 30.615 39.3437 30.509C41.1222 31.6561 42.739 32.9899 44.3028 34.3499C44.2219 34.5097 44.1142 34.6436 43.9794 34.8035V34.8035Z" fill="white"/>
<path d="M39.3711 30.5081C39.1286 30.6159 38.8861 30.7489 38.6436 30.8557C37.0537 30.3222 36.0567 28.9075 34.6276 28.1611C33.9 27.2 33.0377 27.6536 32.2024 27.9203C30.9898 28.1611 29.8032 28.4009 28.5906 28.6407C28.1056 28.7485 27.6205 28.7485 27.1624 28.5608L26.9199 28.1611C27.0277 27.5206 27.5128 27.3868 28.0786 27.2539C29.4529 26.9341 30.8272 26.5874 32.2015 26.2667C32.7674 26.2128 33.441 26.3475 33.5219 25.4933C33.953 24.4262 34.4381 23.3861 34.8162 22.319C35.0318 21.7316 35.3282 21.3049 35.9749 21.145C36.2444 21.2519 36.5139 21.3579 36.8103 21.4648C36.9181 23.0124 35.8402 24.2394 35.5977 25.7062C35.2474 26.2137 35.3013 26.5865 35.8941 26.8272C36.8911 27.6266 37.8612 28.4278 38.8582 29.1743C39.3163 29.5479 39.6406 29.8946 39.3702 30.5081H39.3711Z" fill="white"/>
</g>
<defs>
<clipPath id="clip0_1_4067">
<rect width="66.4688" height="66.4688" fill="white" transform="translate(0.8125 0.92627)"/>
</clipPath>
</defs>
</svg>
