<svg width="20" height="17" viewBox="0 0 20 17" fill="none" xmlns="http://www.w3.org/2000/svg">
<path d="M3.67028e-07 8.60338C3.85415e-07 8.18274 0.352049 7.84156 0.785458 7.84156L17.4239 7.8413L10.6806 1.30099C10.5275 1.15192 10.4508 0.957408 10.4508 0.762365C10.4508 0.567323 10.5275 0.37228 10.6806 0.223209C10.9875 -0.0744022 11.4847 -0.0744022 11.7919 0.223209L19.7699 7.9611C20.0767 8.25871 20.0767 8.74101 19.7699 9.0389L11.7919 16.7768C11.485 17.0744 10.9878 17.0744 10.6806 16.7768C10.3738 16.4792 10.3738 15.9969 10.6806 15.699L17.2115 9.36522L0.785595 9.36521C0.351902 9.36521 0.000139585 9.02376 0.000139603 8.6034L3.67028e-07 8.60338Z" fill="white"/>
</svg>
