<svg width="47" height="46" viewBox="0 0 47 46" fill="none" xmlns="http://www.w3.org/2000/svg">
<g clip-path="url(#clip0_2994_1985)">
<path d="M20.043 31.9266L28.4306 23.539C28.9453 23.0244 28.9453 22.1898 28.4306 21.6751C27.9159 21.1604 27.0815 21.1604 26.5667 21.6751L18.1791 30.0627C17.6644 30.5774 17.6644 31.4119 18.1791 31.9266C18.6938 32.4414 19.5283 32.4414 20.043 31.9266Z" fill="#6BB64A"/>
<path d="M18.1799 15.1484L26.5675 23.536C27.0822 24.0507 27.9167 24.0507 28.4314 23.536C28.9461 23.0212 28.9461 22.1868 28.4314 21.6721L20.0438 13.2845C19.5291 12.7698 18.6946 12.7698 18.1799 13.2845C17.6652 13.7992 17.6652 14.6337 18.1799 15.1484Z" fill="#6BB64A"/>
</g>
<rect x="1.82488" y="1.05004" width="43.2771" height="43.2771" rx="21.6385" stroke="#6BB64A" stroke-width="1.80321"/>
<defs>
<clipPath id="clip0_2994_1985">
<rect width="12.6225" height="21.6385" fill="white" transform="translate(17.1522 11.8672)"/>
</clipPath>
</defs>
</svg>
