<svg width="60" height="60" viewBox="0 0 60 60" fill="none" xmlns="http://www.w3.org/2000/svg">
<path d="M31.9562 14.0145C31.9562 11.347 30.182 9.08586 27.7502 8.35075V1.98598C27.7502 1.04306 26.9872 0.280029 26.0443 0.280029H7.35941C3.45743 0.280029 0.28125 3.45621 0.28125 7.35819V26.0431C0.28125 26.986 1.04428 27.749 1.9872 27.749H9.80668C10.7496 27.749 11.5126 26.986 11.5126 26.0431C11.5126 24.6628 12.6355 23.54 14.0157 23.54C15.396 23.54 16.5157 24.6628 16.5157 26.0431C16.5157 26.986 17.2788 27.749 18.2217 27.749H26.0443C26.9872 27.749 27.7502 26.986 27.7502 26.0431V19.6752C30.182 18.9401 31.9562 16.682 31.9562 14.0145ZM26.0443 16.5145C25.1013 16.5145 24.3383 17.2775 24.3383 18.2205V24.3371H19.6764C18.9413 21.9053 16.6832 20.128 14.0157 20.128C11.3482 20.128 9.08398 21.9053 8.35197 24.3371H3.69316V7.35819C3.69316 5.33586 5.33708 3.69194 7.35941 3.69194H24.3383V9.80546C24.3383 10.7484 25.1013 11.5114 26.0443 11.5114C27.4245 11.5114 28.5443 12.6342 28.5443 14.0145C28.5443 15.3948 27.4214 16.5145 26.0443 16.5145Z" fill="#1D4354"/>
<path d="M58.5736 32.811H50.7511C49.8081 32.811 49.0451 33.5741 49.0451 34.517C49.0451 35.8973 47.9223 37.017 46.5451 37.017C45.1679 37.017 44.042 35.8942 44.042 34.517C44.042 33.5741 43.279 32.811 42.3361 32.811H34.5166C33.5736 32.811 32.8106 33.5741 32.8106 34.517V40.8818C30.3789 41.6169 28.6016 43.878 28.6016 46.5455C28.6016 49.213 30.3789 51.4742 32.8106 52.2093V58.5741C32.8106 59.517 33.5736 60.28 34.5166 60.28H53.2014C57.1034 60.28 60.2796 57.1038 60.2796 53.2019V34.517C60.2796 33.5741 59.5166 32.811 58.5736 32.811ZM56.8677 53.2019C56.8677 55.2242 55.2238 56.8681 53.2014 56.8681H36.2225V50.7515C36.2225 49.8086 35.4595 49.0455 34.5166 49.0455C33.1363 49.0455 32.0135 47.9227 32.0135 46.5424C32.0135 45.1621 33.1363 44.0393 34.5166 44.0393C35.4595 44.0393 36.2225 43.2763 36.2225 42.3334V36.2198H40.8813C41.6164 38.6516 43.8776 40.4258 46.5451 40.4258C49.2126 40.4258 51.4738 38.6516 52.2058 36.2198H56.8677V53.1987V53.2019Z" fill="#1D4354"/>
<path d="M53.2033 0.280029H34.5185C33.5755 0.280029 32.8125 1.04306 32.8125 1.98598V9.80546C32.8125 10.7484 33.5755 11.5114 34.5185 11.5114C35.8987 11.5114 37.0185 12.6342 37.0185 14.0145C37.0185 15.3948 35.8956 16.5145 34.5185 16.5145C33.5755 16.5145 32.8125 17.2775 32.8125 18.2205V26.0431C32.8125 26.986 33.5755 27.749 34.5185 27.749H40.8801C41.1562 28.6764 41.6618 29.5232 42.3659 30.2242C43.4825 31.3408 44.9682 31.9581 46.5501 31.9581C49.2176 31.9581 51.4788 30.1839 52.2108 27.7521H58.5786C59.5216 27.7521 60.2846 26.9891 60.2846 26.0462V7.35819C60.2846 3.45621 57.1084 0.280029 53.2064 0.280029H53.2033ZM56.8696 24.3371H50.7529C49.81 24.3371 49.047 25.1001 49.047 26.0431C49.047 27.4233 47.9242 28.5431 46.547 28.5431C45.877 28.5431 45.2505 28.2825 44.7759 27.8079C44.3044 27.3396 44.0439 26.713 44.0439 26.0431C44.0439 25.1001 43.2809 24.3371 42.3379 24.3371H36.2244V19.6752C38.6562 18.9401 40.4304 16.682 40.4304 14.0145C40.4304 11.347 38.6562 9.08586 36.2244 8.35075V3.69194H53.2033C55.2256 3.69194 56.8696 5.33586 56.8696 7.35819V24.3371Z" fill="#1D4354"/>
<path d="M26.0443 32.8111H19.6764C18.9413 30.3793 16.6832 28.6021 14.0157 28.6021C11.3482 28.6021 9.08398 30.3793 8.35197 32.8111H1.9872C1.04428 32.8111 0.28125 33.5741 0.28125 34.5171V53.2019C0.28125 57.1039 3.45743 60.2801 7.35941 60.2801H26.0443C26.9872 60.2801 27.7502 59.5171 27.7502 58.5741V50.7516C27.7502 49.8086 26.9872 49.0456 26.0443 49.0456C24.664 49.0456 23.5412 47.9228 23.5412 46.5456C23.5412 45.1684 24.664 44.0425 26.0443 44.0425C26.9872 44.0425 27.7502 43.2795 27.7502 42.3365V34.5171C27.7502 33.5741 26.9872 32.8111 26.0443 32.8111ZM24.3383 40.8818C21.9066 41.6169 20.1293 43.8781 20.1293 46.5456C20.1293 49.2131 21.9066 51.4743 24.3383 52.2063V56.8682H7.35941C5.33708 56.8682 3.69316 55.2243 3.69316 53.2019V36.223H9.80669C10.7496 36.223 11.5126 35.46 11.5126 34.5171C11.5126 33.1368 12.6355 32.014 14.0157 32.014C15.396 32.014 16.5157 33.1368 16.5157 34.5171C16.5157 35.46 17.2788 36.223 18.2217 36.223H24.3383V40.8818Z" fill="#1D4354"/>
</svg>
