<svg width="60" height="60" viewBox="0 0 60 60" fill="none" xmlns="http://www.w3.org/2000/svg">
<path d="M20 28.4999C20 30.4249 21.5 31.9999 23.325 31.9999H27.075C28.675 31.9999 29.975 30.6249 29.975 28.9499C29.975 27.1249 29.175 26.4749 28 26.0499L22 23.9499C20.8 23.5249 20 22.8749 20 21.0499C20 19.3749 21.3 17.9999 22.9 17.9999H26.65C28.5 18.0249 30 19.5749 30 21.4999" stroke="#1D4354" stroke-width="3.75" stroke-linecap="round" stroke-linejoin="round"/>
<path d="M25 32.1252V33.9752" stroke="#1D4354" stroke-width="3.75" stroke-linecap="round" stroke-linejoin="round"/>
<path d="M25 16.0248V17.9748" stroke="#1D4354" stroke-width="3.75" stroke-linecap="round" stroke-linejoin="round"/>
<path d="M24.975 44.95C36.0069 44.95 44.95 36.0069 44.95 24.975C44.95 13.9431 36.0069 5 24.975 5C13.9431 5 5 13.9431 5 24.975C5 36.0069 13.9431 44.95 24.975 44.95Z" stroke="#1D4354" stroke-width="3.75" stroke-linecap="round" stroke-linejoin="round"/>
<path d="M32.4414 49.7C34.6914 52.875 38.3664 54.95 42.5664 54.95C49.3914 54.95 54.9414 49.4 54.9414 42.575C54.9414 38.425 52.8914 34.75 49.7664 32.5" stroke="#1D4354" stroke-width="3.75" stroke-linecap="round" stroke-linejoin="round"/>
</svg>
