<svg width="60" height="60" viewBox="0 0 60 60" fill="none" xmlns="http://www.w3.org/2000/svg">
<path d="M26.2156 5.57515L13.7406 10.2501C10.8656 11.3251 8.51562 14.7251 8.51562 17.8001V36.3751C8.51562 39.3251 10.4657 43.2001 12.8407 44.9751L23.5906 53.0001C27.1156 55.6501 32.9156 55.6501 36.4406 53.0001L47.1906 44.9751C49.5656 43.2001 51.5156 39.3251 51.5156 36.3751V17.8001C51.5156 14.7251 49.1656 11.3251 46.2906 10.2501L33.8156 5.57515C31.6906 4.80015 28.2906 4.80015 26.2156 5.57515Z" stroke="#1D4354" stroke-width="3.75" stroke-linecap="round" stroke-linejoin="round"/>
<path d="M30 38.75C35.5228 38.75 40 34.2728 40 28.75C40 23.2272 35.5228 18.75 30 18.75C24.4772 18.75 20 23.2272 20 28.75C20 34.2728 24.4772 38.75 30 38.75Z" stroke="#1D4354" stroke-width="3.75" stroke-miterlimit="10" stroke-linecap="round" stroke-linejoin="round"/>
<path d="M30.625 25.625V27.95C30.625 28.825 30.175 29.65 29.4 30.1L27.5 31.25" stroke="#1D4354" stroke-width="3.75" stroke-miterlimit="10" stroke-linecap="round" stroke-linejoin="round"/>
</svg>
