<svg width="60" height="60" viewBox="0 0 60 60" fill="none" xmlns="http://www.w3.org/2000/svg">
<path d="M52.5 17.5V42.5C52.5 50 48.75 55 40 55H20C11.25 55 7.5 50 7.5 42.5V17.5C7.5 10 11.25 5 20 5H40C48.75 5 52.5 10 52.5 17.5Z" stroke="#1D4354" stroke-width="3.75" stroke-miterlimit="10" stroke-linecap="round" stroke-linejoin="round"/>
<path d="M36.25 11.25V16.25C36.25 19 38.5 21.25 41.25 21.25H46.25" stroke="#1D4354" stroke-width="3.75" stroke-miterlimit="10" stroke-linecap="round" stroke-linejoin="round"/>
<path d="M18.705 38.725C17.88 36.15 18.8549 32.9751 21.5299 32.1001C22.9549 31.6501 24.7049 32.025 25.6799 33.4C26.6049 31.975 28.4299 31.6501 29.8299 32.1001C32.5299 32.9751 33.48 36.15 32.68 38.725C31.405 42.8 26.9299 44.9249 25.6799 44.9249C24.4549 44.8999 20.03 42.825 18.705 38.725Z" stroke="#1D4354" stroke-width="3.75" stroke-linecap="round" stroke-linejoin="round"/>
</svg>
