<svg width="98" height="59" viewBox="0 0 98 59" fill="none" xmlns="http://www.w3.org/2000/svg">
<path d="M28.1748 21.3714V10.8632C28.1748 10.563 28.1748 10.4129 28.1748 10.1126C28.1748 7.41052 27.124 4.85853 25.4727 3.05712C23.5212 1.40583 20.9692 0.355011 18.117 0.355011C17.8167 0.355011 17.5165 0.355011 17.2163 0.505128C12.5626 0.355011 8.05911 2.15642 7.30852 3.20724C7.00829 3.50747 6.55794 6.81005 7.75888 6.81005C8.05911 6.81005 8.20923 6.96017 9.26005 6.3597C13.3132 4.85853 15.8652 4.85853 16.1654 4.85853C20.669 4.40817 23.3711 7.41052 22.9207 11.4637V13.8656C19.1678 12.9649 16.916 12.8147 15.8652 12.8147C10.3109 12.5145 4.90665 16.1173 5.20688 21.8218C4.90665 28.8773 11.5118 30.3784 13.9137 30.3784C14.0638 30.3784 14.0638 30.3784 14.0638 30.3784C17.8167 30.3784 21.1193 28.577 23.3711 25.8749C25.1725 30.0782 26.3734 29.778 26.3734 29.778C26.6736 29.778 26.9739 29.6279 27.2741 29.4777L29.2256 28.1267C29.5259 27.9766 29.8261 27.5262 29.8261 27.226C29.8261 26.1752 28.0247 24.674 28.1748 21.3714ZM15.1146 26.1752C12.4125 26.3253 10.461 24.0735 10.7612 21.5215C10.461 17.6185 14.6643 16.5677 16.916 16.7178C19.3179 16.7178 21.4195 17.1681 22.9207 17.4684C22.9207 19.1197 22.9207 20.0204 22.6205 21.5215C22.1701 23.1728 20.0685 26.025 15.1146 26.1752ZM40.7847 29.6279H43.6369C45.2882 29.778 45.4383 28.1267 45.4383 27.9766L50.3921 7.41052L55.346 27.9766C55.4961 28.1267 55.6462 29.778 57.2975 29.6279H60.1498C61.3507 29.778 61.8011 28.8773 61.9512 28.1267C70.5078 0.95548 69.9074 2.907 69.9074 2.60677C70.0575 1.1056 69.3069 1.25571 69.1568 1.25571H66.1545C64.6533 1.1056 64.353 2.45665 64.2029 2.907L58.7987 24.2236L53.6947 2.907C53.5446 1.25571 52.1936 1.25571 51.8933 1.25571H49.1912C47.69 1.1056 47.3898 2.30653 47.3898 2.75689L42.2858 23.9234L37.0317 2.75689C36.8816 2.15642 36.4313 1.1056 35.0802 1.25571C31.4774 1.25571 31.7776 1.25571 31.7776 1.25571C31.4774 1.25571 31.1772 1.55595 31.1772 2.0063C31.1772 2.45665 31.3273 2.907 31.4774 3.35735L38.9832 28.1267C39.1334 28.8773 39.7338 29.778 40.7847 29.6279ZM81.9168 30.5286C82.0669 30.5286 89.4226 30.9789 92.2748 25.2745C92.8753 24.2236 94.2264 20.3206 91.6744 17.018C89.4226 14.466 87.6212 14.1658 82.217 12.5145C81.7666 12.3644 77.7135 11.3136 77.7135 8.46134C77.5634 4.85853 82.5172 4.70841 83.4179 4.70841C87.6212 4.70841 89.7228 6.20958 90.9238 6.3597C91.3741 6.3597 91.5243 6.05946 91.5243 5.30888V3.80771C91.6744 3.50747 91.5243 3.05712 91.3741 2.75689C89.873 1.1056 84.9191 0.505128 82.9676 0.505128C76.2123 0.355011 72.4594 4.55829 72.4594 8.91169C72.6095 14.6161 78.4641 16.5677 79.0645 16.7178C84.769 18.5192 85.5196 18.5192 87.0207 19.8702C88.3718 21.2213 88.2217 23.9234 86.2701 25.1243C85.6697 25.4246 83.2678 26.9257 77.7135 25.7248C75.9121 25.4246 75.0114 24.9742 73.5102 24.3738C73.0598 24.2236 72.1591 23.9234 72.1591 25.2745V26.7756C72.1591 27.6763 72.6095 28.2768 73.3601 28.577C76.8128 30.3784 81.016 30.5286 81.9168 30.5286ZM87.9214 46.1407C89.7228 44.9398 88.2217 42.9883 86.4203 43.7389C75.3116 48.3925 63.002 51.0946 50.0919 51.2447L49.9418 51.0946C32.6783 51.0946 16.6158 46.5911 2.65489 38.4848C1.45396 37.8843 0.553252 39.0852 1.45396 39.9859C13.9137 51.2447 30.5767 58.1501 48.5907 58.1501C48.7409 58.1501 49.0411 58.1501 49.1912 58.1501C62.1013 58.1501 77.4132 53.9468 87.9214 46.1407ZM92.2748 41.1869C93.6259 42.9883 90.7737 50.0438 89.5727 53.1963C89.1224 54.2471 90.0231 54.5473 90.9238 53.7967C96.4781 49.1431 97.9793 39.2354 96.7784 37.7342C95.7275 36.3831 85.8198 35.1822 79.8151 39.3855C78.9144 39.9859 79.0645 40.8866 79.9652 40.7365C83.4179 40.4363 90.9238 39.5356 92.2748 41.1869Z" fill="#6BB64A"/>
</svg>
