<svg width="96" height="96" viewBox="0 0 96 96" fill="none" xmlns="http://www.w3.org/2000/svg">
<g clip-path="url(#clip0_1487_752)">
<path d="M90 90C93.9 86.1 96 80.9 96 75.4V20.6C96 15.1 93.8 9.9 90 6C86.1 2.1 80.9 0 75.4 0H20.6C15.1 0 9.9 2.2 6 6C2.1 9.8 0 15.1 0 20.6V75.4C0 80.9 2.2 86.1 6 90C9.9 93.9 15.1 96 20.6 96H75.4C80.9 96 86.1 93.8 90 90ZM74.5 47.9C74.5 49.5 74.3 51.1 74.1 52.7C75.4 55 76.1 57.7 76.1 60.3C76.1 64.5 74.5 68.4 71.5 71.4C68.5 74.4 64.6 76 60.4 76C57.7 76 55 75.3 52.7 74C51.2 74.3 49.6 74.4 48.1 74.4C44.5 74.4 41.1 73.7 37.8 72.3C34.6 71 31.8 69.1 29.4 66.6C27 64.2 25.1 61.3 23.7 58.2C22.3 54.9 21.6 51.5 21.6 47.9C21.6 46.4 21.7 44.8 22 43.3C20.7 41 20 38.4 20 35.7C20 31.5 21.6 27.6 24.6 24.6C27.6 21.6 31.5 20 35.7 20C38.3 20 40.8 20.6 43 21.8C44.6 21.5 46.3 21.3 48 21.3C51.6 21.3 55 22 58.3 23.4C61.4 24.7 64.3 26.6 66.7 29.1C69.1 31.5 71 34.4 72.4 37.5C73.8 40.8 74.5 44.3 74.5 47.9ZM34.5 56C34.5 59.5 38.7 64.1 48.1 64.1C57 64.1 61.5 59.8 61.5 54C61.5 50.3 59.8 46.3 53 44.8L46.8 43.4C44.4 42.9 41.7 42.2 41.7 39.9C41.7 37.7 43.6 36.1 47 36.1C51.1 36.1 52.5 37.7 53.7 39.1C54.5 40.1 55.3 40.9 56.7 40.9C58.5 40.9 60.1 39.8 60.1 38C60.1 33.7 53.3 30.5 47.5 30.5C41.2 30.5 34.5 33.2 34.5 40.3C34.5 43.7 35.7 47.4 42.5 49.1L50.9 51.2C53.4 51.8 54.1 53.3 54.1 54.5C54.1 56.6 52 58.7 48.1 58.7C43.8 58.7 42.3 56.8 41 55.1C40.1 54 39.3 53 37.6 53C35.8 53 34.5 54.2 34.5 56Z" fill="#B5B5B5"/>
</g>
<defs>
<clipPath id="clip0_1487_752">
<rect width="96" height="96" fill="white"/>
</clipPath>
</defs>
</svg>
