<svg width="96" height="96" viewBox="0 0 96 96" fill="none" xmlns="http://www.w3.org/2000/svg">
<g clip-path="url(#clip0_1487_726)">
<path d="M90 6C86.1 2.1 80.9 0 75.4 0H20.6C15.1 0 9.9 2.2 6 6C2.1 9.9 0 15.1 0 20.6V75.4C0 80.9 2.2 86.1 6 90C9.9 93.9 15.1 96 20.6 96H75.4C80.9 96 86.1 93.8 90 90C93.9 86.2 96 80.9 96 75.4V20.6C96 15.1 93.8 9.9 90 6ZM74.2 58.9C74.1 61.7 73.6 63.6 73 65.3C72.3 67.1 71.3 68.6 70 70C68.7 71.3 67.1 72.4 65.3 73C63.6 73.7 61.7 74.1 58.9 74.2C56.1 74.3 55.2 74.4 48 74.4C40.8 74.4 39.9 74.4 37.1 74.2C34.3 74.1 32.4 73.6 30.7 73C28.9 72.3 27.3 71.3 26 70C24.7 68.7 23.6 67.1 23 65.3C22.3 63.6 21.9 61.7 21.8 58.9C21.7 56.1 21.6 55.2 21.6 48C21.6 40.8 21.6 39.9 21.8 37.1C21.9 34.3 22.4 32.4 23 30.7C23.7 28.9 24.7 27.3 26 26C27.3 24.7 28.9 23.6 30.7 23C32.4 22.3 34.3 21.9 37.1 21.8C39.9 21.7 40.8 21.6 48 21.6C55.2 21.6 56.1 21.6 58.9 21.8C61.7 21.9 63.6 22.4 65.3 23C67.1 23.7 68.7 24.7 70 26C71.3 27.3 72.4 28.9 73 30.7C73.7 32.4 74.1 34.3 74.2 37.1C74.3 39.9 74.4 40.8 74.4 48C74.4 55.2 74.4 56.1 74.2 58.9Z" fill="#B5B5B5"/>
<path d="M68.5998 32.4001C68.1998 31.3001 67.4998 30.2 66.5998 29.4C65.6998 28.5 64.6998 27.8 63.5998 27.4C62.6998 27 61.2998 26.6 58.6998 26.5C55.8998 26.4 55.0998 26.3 47.9998 26.3C40.9998 26.3 40.0998 26.3 37.2998 26.5C34.6998 26.6 33.2998 27 32.3998 27.4C31.2998 27.8 30.1998 28.5 29.3998 29.4C28.4998 30.3 27.7998 31.3001 27.3998 32.4001C26.9998 33.3001 26.5998 34.7 26.4998 37.3C26.3998 40.1 26.2998 40.9 26.2998 48C26.2998 55 26.2998 55.9001 26.4998 58.7001C26.5998 61.3 26.9998 62.7 27.3998 63.6C27.7998 64.7 28.4998 65.8 29.3998 66.6C30.2998 67.5 31.2998 68.2 32.3998 68.6C33.2998 69 34.6998 69.4001 37.2998 69.5C40.0998 69.6 40.8998 69.7 47.9998 69.7C54.9998 69.7 55.8998 69.7001 58.6998 69.5C61.2998 69.4001 62.6998 69 63.5998 68.6C64.6998 68.2 65.7998 67.5 66.5998 66.6C67.4998 65.7 68.0998 64.7 68.5998 63.6C68.9998 62.7 69.3998 61.3 69.4998 58.7001C69.5998 55.9001 69.6998 55.1 69.6998 48C69.6998 40.9 69.6998 40.1 69.4998 37.3C69.3998 34.8 68.8998 33.4001 68.5998 32.4001ZM59.2998 55.5C57.7998 57.7001 55.6998 59.5 53.1998 60.5C50.6998 61.5 47.9998 61.8 45.3998 61.3C42.7998 60.8 40.3998 59.5 38.4998 57.6C36.5998 55.7 35.2998 53.3001 34.7998 50.7001C34.2998 48.1 34.4998 45.3001 35.5998 42.9001C36.5998 40.4001 38.3998 38.3 40.5998 36.8C42.7998 35.3 45.4998 34.5 48.0998 34.5C49.8998 34.5 51.5998 34.9 53.2998 35.5C54.8998 36.2 56.3998 37.2001 57.6998 38.4001C58.9998 39.7001 59.9998 41.2 60.5998 42.8C61.2998 44.4 61.5998 46.2001 61.5998 48C61.5998 50.7001 60.7998 53.3 59.2998 55.5ZM62.0998 37.1C60.3998 37.1 58.8998 35.7001 58.8998 33.9001C58.8998 32.1001 60.2998 30.7001 62.0998 30.7001C63.7998 30.7001 65.2998 32.1001 65.2998 33.9001C65.2998 35.7001 63.7998 37.1 62.0998 37.1Z" fill="#B5B5B5"/>
<path d="M51.3997 39.9001C49.7997 39.2001 47.9997 39.1001 46.2997 39.4001C44.5997 39.7001 42.9997 40.6001 41.7997 41.8001C40.5997 43.0001 39.6997 44.6001 39.3997 46.3001C39.0997 48.0001 39.1997 49.8001 39.8997 51.4001C40.5997 53.0001 41.6997 54.4001 43.0997 55.4001C44.4997 56.4001 46.1997 56.9001 47.9997 56.9001C50.2997 56.9001 52.5997 56.0001 54.1997 54.3001C55.8997 52.6001 56.7997 50.4001 56.7997 48.1001C56.7997 46.4001 56.2997 44.7001 55.2997 43.2001C54.3997 41.7001 52.9997 40.5001 51.3997 39.9001Z" fill="#B5B5B5"/>
</g>
<defs>
<clipPath id="clip0_1487_726">
<rect width="96" height="96" fill="white"/>
</clipPath>
</defs>
</svg>
