<svg width="96" height="96" viewBox="0 0 96 96" fill="none" xmlns="http://www.w3.org/2000/svg">
<g clip-path="url(#clip0_1487_744)">
<path d="M90 6C86.1 2.1 80.9 0 75.4 0H20.6C15.1 0 9.9 2.2 6 6C2.1 9.9 0 15.1 0 20.6V75.4C0 80.9 2.2 86.1 6 90C9.9 93.9 15.1 96 20.6 96H75.4C80.9 96 86.1 93.8 90 90C93.9 86.2 96 80.9 96 75.4V20.6C96 15.1 93.8 9.9 90 6ZM62.9 70.4C62.9 70.4 61 68.1 59.4 66.1C66.4 64.1 69.1 59.8 69.1 59.8C66.9 61.2 64.8 62.3 63 62.9C60.3 64 57.8 64.8 55.3 65.2C50.2 66.2 45.5 65.9 41.5 65.1C38.5 64.5 35.8 63.7 33.6 62.8C32.4 62.3 31 61.7 29.7 61C29.6 60.9 29.5 60.9 29.5 60.9C29.4 60.9 29.3 60.8 29.3 60.8C29.2 60.7 29.1 60.7 29.1 60.6C28.1 60.1 27.6 59.7 27.6 59.7C27.6 59.7 30.2 64 36.9 66C35.3 68 33.3 70.4 33.3 70.4C21.5 70 17 62.3 17 62.3C17 45.1 24.7 31.2 24.7 31.2C32.4 25.4 39.7 25.6 39.7 25.6L40.2 26.2C30.6 29 26.1 33.2 26.1 33.2C26.1 33.2 27.3 32.6 29.3 31.7C35 29.2 39.6 28.5 41.4 28.3H41.5C41.8 28.3 42 28.2 42.3 28.2C45.6 27.8 49.2 27.7 53.1 28.1C58.2 28.7 63.6 30.2 69.2 33.2C69.2 33.2 65 29.2 55.9 26.4L56.6 25.5C56.6 25.5 63.9 25.3 71.6 31.1C71.6 31.1 79.3 45 79.3 62.2C79.2 62.3 74.7 70 62.9 70.4Z" fill="#B5B5B5"/>
<path d="M37.9996 45.5C34.9996 45.5 32.5996 48.2 32.5996 51.4C32.5996 54.6 35.0996 57.3 37.9996 57.3C40.9996 57.3 43.3996 54.6 43.3996 51.4C43.4996 48.2 41.0996 45.5 37.9996 45.5Z" fill="#B5B5B5"/>
<path d="M57.4996 57.3C60.4819 57.3 62.8996 54.6585 62.8996 51.4C62.8996 48.1415 60.4819 45.5 57.4996 45.5C54.5173 45.5 52.0996 48.1415 52.0996 51.4C52.0996 54.6585 54.5173 57.3 57.4996 57.3Z" fill="#B5B5B5"/>
</g>
<defs>
<clipPath id="clip0_1487_744">
<rect width="96" height="96" fill="white"/>
</clipPath>
</defs>
</svg>
