<svg width="54" height="89" viewBox="0 0 54 89" fill="none" xmlns="http://www.w3.org/2000/svg">
<path d="M46.0352 88.5397H8.51566C4.33569 88.5397 0.933594 85.1376 0.933594 80.9576V8.42002C0.933594 4.23997 4.33569 0.837891 8.51566 0.837891H46.0352C50.2151 0.837891 53.6171 4.23997 53.6171 8.42002V80.9576C53.6171 85.1376 50.2151 88.5397 46.0352 88.5397ZM8.51566 5.99682C7.17775 5.99682 6.09252 7.08207 6.09252 8.42002V80.9576C6.09252 82.2955 7.17775 83.3808 8.51566 83.3808H46.0352C47.373 83.3808 48.4582 82.2955 48.4582 80.9576V8.42002C48.4582 7.08207 47.373 5.99682 46.0352 5.99682H8.51566Z" fill="#252B33"/>
<path d="M22.2734 78.4564C22.2734 77.4203 23.1133 76.5804 24.1494 76.5804H29.7773C30.8134 76.5804 31.6533 77.4203 31.6533 78.4564C31.6533 79.4925 30.8134 80.3324 29.7773 80.3324H24.1494C23.1133 80.3324 22.2734 79.4925 22.2734 78.4564Z" fill="#252B33"/>
</svg>
