<svg width="96" height="96" viewBox="0 0 96 96" fill="none" xmlns="http://www.w3.org/2000/svg">
<g clip-path="url(#clip0_1487_733)">
<path d="M90 6C86.1 2.1 80.9 0 75.4 0H20.6C15.1 0 9.9 2.2 6 6C2.1 9.9 0 15.1 0 20.6V75.4C0 80.9 2.2 86.1 6 90C9.9 93.9 15.1 96 20.6 96H75.4C80.9 96 86.1 93.8 90 90C93.9 86.2 96 80.9 96 75.4V20.6C96 15.1 93.8 9.9 90 6ZM65.4 36.2C65.1 32.9 62.8 32.1 55.6 32.1L48 75.1L40.4 32.2C33.2 32.2 31 33 30.6 36.3C30.6 36.3 25.8 34.5 23.3 30.8C32.8 26.4 42.4 26.2 42.4 26.2L48 33L53.6 26.2C53.6 26.2 63.2 26.4 72.7 30.8C70.2 34.4 65.4 36.2 65.4 36.2ZM73.5 29.3C64.5 25.3 55.7 24.1 48 24.1C40.3 24 31.5 25.3 22.5 29.3C21.4 27.3 21 26.1 21 26.1C30.9 22.2 40.1 20.8 48 20.8C56 20.8 65.2 22.2 75.1 26.1C75 26.1 74.7 27.1 73.5 29.3Z" fill="#B5B5B5"/>
</g>
<defs>
<clipPath id="clip0_1487_733">
<rect width="96" height="96" fill="white"/>
</clipPath>
</defs>
</svg>
