<svg width="97" height="96" viewBox="0 0 97 96" fill="none" xmlns="http://www.w3.org/2000/svg">
<g clip-path="url(#clip0_1487_758)">
<path d="M90.7188 6C86.8187 2.1 81.6188 0 76.1188 0H21.3188C15.8188 0 10.6187 2.2 6.71875 6C2.81875 9.9 0.71875 15.1 0.71875 20.6V75.4C0.71875 80.9 2.91875 86.1 6.71875 90C10.6187 93.9 15.8188 96 21.3188 96H76.1188C81.6188 96 86.8187 93.8 90.7188 90C94.6188 86.2 96.7188 80.9 96.7188 75.4V20.6C96.7188 15.1 94.5188 9.9 90.7188 6ZM48.7188 76C45.8187 76 43.0187 75.6 40.4188 74.8C41.5187 72.9 43.2188 69.9 43.9188 67.5C44.2188 66.2 45.6188 60.9 45.6188 60.9C46.5188 62.6 49.2188 64.1 52.0187 64.1C60.4187 64.1 66.5188 56.4 66.5188 46.7C66.5188 37.5 59.0187 30.6 49.3187 30.6C37.3187 30.6 30.9188 38.7 30.9188 47.5C30.9188 51.6 33.1188 56.7 36.6188 58.3C37.1188 58.5 37.4188 58.4 37.5187 57.9C37.5187 57.7 37.7188 57.3 37.8187 56.7C38.0187 56 38.2188 55.2 38.3187 54.7C38.4187 54.4 38.3188 54.2 38.1188 53.9C36.9188 52.5 36.0187 49.9 36.0187 47.5C36.0187 41.3 40.7188 35.4 48.6188 35.4C55.5188 35.4 60.3187 40.1 60.3187 46.8C60.3187 54.3 56.5187 59.6 51.5187 59.6C48.8187 59.6 46.7188 57.3 47.4188 54.6C47.7188 53.4 48.1188 52.2 48.4188 51C49.1188 48.9 49.7188 46.9 49.7188 45.3C49.7188 43.2 48.6188 41.4 46.2188 41.4C43.4188 41.4 41.2188 44.3 41.2188 48.2C41.2188 50.7 42.0187 52.3 42.0187 52.3C42.0187 52.3 39.1188 63.8 38.6188 66C38.0188 68.4 38.3187 71.8 38.5187 74C28.1187 70 20.8188 59.9 20.8188 48C20.8188 32.6 33.3187 20.1 48.7188 20.1C64.1188 20.1 76.6188 32.6 76.6188 48C76.6188 63.5 64.1188 76 48.7188 76Z" fill="#B5B5B5"/>
</g>
<defs>
<clipPath id="clip0_1487_758">
<rect width="96" height="96" fill="white" transform="translate(0.71875)"/>
</clipPath>
</defs>
</svg>
