<svg width="96" height="96" viewBox="0 0 96 96" fill="none" xmlns="http://www.w3.org/2000/svg">
<g clip-path="url(#clip0_1487_739)">
<path d="M89.9629 6.43302C86.1031 2.67219 80.8577 0.494873 75.4144 0.494873H20.5856C15.1423 0.494873 9.89691 2.67219 6.03711 6.43302C2.17732 10.2928 0 15.4392 0 20.8825V75.1176C0 80.5609 2.17732 85.7072 6.03711 89.567C9.89691 93.4268 15.1423 95.5052 20.5856 95.5052H75.3155C80.7588 95.5052 86.0041 93.3279 89.8639 89.567C93.7237 85.7072 95.901 80.5609 95.901 75.1176V20.8825C96 15.4392 93.8227 10.2928 89.9629 6.43302ZM76.1072 52.5526C75.1175 57.9959 72.6433 63.0433 68.7835 67.0021C65.0227 71.0598 60.0742 73.831 54.6309 75.1176C49.1876 76.4042 43.5464 76.1072 38.301 74.2268C33.0557 72.3464 28.5031 69.0804 25.1381 64.6268C21.7732 60.2722 19.7938 54.9279 19.3979 49.4846H39.5876C40.0825 49.4846 40.0825 49.9794 40.0825 49.9794V54.433C40.0825 54.8289 40.2804 55.2248 40.4784 55.4227C40.7753 55.7196 41.1711 55.8186 41.567 55.8186H54.6309C55.0268 55.8186 55.4227 55.6206 55.7196 55.4227C56.0165 55.1258 56.1155 54.7299 56.1155 54.433V41.567C56.1155 41.1712 55.9175 40.7753 55.7196 40.4784C55.4227 40.1815 55.0268 40.0825 54.6309 40.0825H41.567C41.1711 40.0825 40.7753 40.2804 40.4784 40.4784C40.1814 40.7753 40.0825 41.1712 40.0825 41.567V45.5258C40.0825 45.5258 39.9835 46.0206 39.5876 46.0206H19.3979C19.7938 38.7959 23.0598 32.066 28.3052 27.1176C33.6495 22.1691 40.5773 19.398 47.901 19.398C53.4433 19.398 58.8866 20.9815 63.5381 24.0495C68.1897 27.1176 71.8515 31.3732 74.0289 36.4206C76.4041 41.4681 77.0969 47.1093 76.1072 52.5526Z" fill="#B5B5B5"/>
</g>
<defs>
<clipPath id="clip0_1487_739">
<rect width="96" height="96" fill="white"/>
</clipPath>
</defs>
</svg>
