<svg width="64" height="64" viewBox="0 0 64 64" fill="none" xmlns="http://www.w3.org/2000/svg">
<g clip-path="url(#clip0_3311_213)">
<path d="M48 0H16C7.16344 0 0 7.16344 0 16V48C0 56.8366 7.16344 64 16 64H48C56.8366 64 64 56.8366 64 48V16C64 7.16344 56.8366 0 48 0Z" fill="#6BB64A" fill-opacity="0.2"/>
<mask id="mask0_3311_213" style="mask-type:luminance" maskUnits="userSpaceOnUse" x="16" y="16" width="32" height="32">
<path d="M48 16H16V48H48V16Z" fill="white"/>
</mask>
<g mask="url(#mask0_3311_213)">
<path d="M32 39.1969C30.576 39.1969 29.1839 38.7747 27.9999 37.9835C26.8159 37.1924 25.893 36.0679 25.3481 34.7523C24.8031 33.4366 24.6605 31.989 24.9383 30.5923C25.2162 29.1956 25.9019 27.9127 26.9088 26.9058C27.9158 25.8988 29.1987 25.2131 30.5953 24.9353C31.992 24.6575 33.4397 24.8001 34.7553 25.345C36.0709 25.89 37.1954 26.8128 37.9866 27.9968C38.7777 29.1809 39.2 30.5729 39.2 31.9969C39.2 33.9065 38.4414 35.7379 37.0912 37.0881C35.7409 38.4384 33.9096 39.1969 32 39.1969ZM32 20.7969C20.8 20.7969 16 31.9969 16 31.9969C16 31.9969 20.8 43.1969 32 43.1969C43.2 43.1969 48 31.9969 48 31.9969C48 31.9969 43.2 20.7969 32 20.7969Z" fill="#6BB64A"/>
<path d="M32 36C34.2091 36 36 34.2091 36 32C36 29.7909 34.2091 28 32 28C29.7909 28 28 29.7909 28 32C28 34.2091 29.7909 36 32 36Z" fill="#6BB64A"/>
</g>
</g>
<defs>
<clipPath id="clip0_3311_213">
<rect width="64" height="64" fill="white"/>
</clipPath>
</defs>
</svg>
