<svg width="72" height="89" viewBox="0 0 72 89" fill="none" xmlns="http://www.w3.org/2000/svg">
<path d="M61.2892 88.7701C61.2892 88.7701 25.369 88.7701 23.8522 88.7701C22.3353 88.7701 22.5225 87.5391 22.5225 86.0222C22.5225 84.5054 22.3353 83.2744 23.8522 83.2744C25.369 83.2744 61.2892 83.2744 61.2892 83.2744C63.8136 83.2744 65.8689 81.2189 65.8689 78.6945V10.9136C65.8689 8.38918 63.8136 6.33377 61.2892 6.33377H10.9115C8.38704 6.33377 6.33169 8.38918 6.33169 10.9136V22.821C6.33169 24.3379 5.10064 24.9484 3.58382 24.9484C2.06699 24.9484 0.835938 24.3379 0.835938 22.821V10.9136C0.835938 5.35552 5.35338 0.838013 10.9115 0.838013H61.2892C66.8473 0.838013 71.3647 5.35552 71.3647 10.9136V78.6945C71.3647 84.2525 66.8473 88.7701 61.2892 88.7701Z" fill="#252B33"/>
<path d="M34.4893 80.2605C34.4893 79.4772 35.1242 78.8423 35.9075 78.8423H40.1623C40.9456 78.8423 41.5806 79.4772 41.5806 80.2605C41.5806 81.0438 40.9456 81.6788 40.1623 81.6788H35.9075C35.1242 81.6788 34.4893 81.0438 34.4893 80.2605Z" fill="#252B33"/>
<path d="M70.8647 78.6945C70.8647 83.8087 66.8394 87.9965 61.7892 88.2572C61.7892 87.9145 61.7892 87.6649 61.7891 87.4832C66.4123 87.2232 70.0919 83.3818 70.0919 78.6945V10.9136C70.0919 6.0585 66.1442 2.11084 61.2892 2.11084H10.9115C6.0564 2.11084 2.10876 6.05849 2.10876 10.9136V22.821C2.10876 22.9587 2.12704 23.0646 2.1558 23.1457L2.19947 23.2689L2.29786 23.3549C2.31741 23.372 2.33868 23.3884 2.36182 23.4044L2.36269 23.405C2.56801 23.5463 2.96551 23.6756 3.58382 23.6756C4.20212 23.6756 4.59962 23.5463 4.80495 23.405L4.80582 23.4044C4.82896 23.3884 4.85022 23.372 4.86976 23.3549L4.96816 23.2689L5.01184 23.1457C5.04059 23.0646 5.05887 22.9587 5.05887 22.821V10.9136C5.05887 7.68622 7.68415 5.06094 10.9115 5.06094H61.2892C64.5166 5.06094 67.1418 7.6862 67.1418 10.9136V78.6945C67.1418 81.7534 64.7832 84.2714 61.7891 84.526C61.7892 84.3408 61.7892 84.0899 61.7892 83.7499C64.3561 83.4979 66.3689 81.3263 66.3689 78.6945V10.9136C66.3689 8.11305 64.0898 5.83377 61.2892 5.83377H10.9115C8.11089 5.83377 5.83169 8.11304 5.83169 10.9136V22.821C5.83169 23.4218 5.59931 23.7965 5.24313 24.0416C4.86027 24.3051 4.28685 24.4484 3.58382 24.4484C2.88078 24.4484 2.30736 24.3051 1.9245 24.0416C1.56832 23.7965 1.33594 23.4218 1.33594 22.821V10.9136C1.33594 5.63167 5.62952 1.33801 10.9115 1.33801H61.2892C66.5711 1.33801 70.8647 5.63166 70.8647 10.9136V78.6945ZM60.7891 83.7744L60.7889 84.5472H24.2886H23.7939L23.7886 85.0418C23.7885 85.0469 23.7885 85.0521 23.7884 85.0572L23.7872 85.0499L23.7047 84.5567L23.7022 84.5572L23.7847 85.0503L23.7883 85.0722C23.7874 85.1883 23.7885 85.3138 23.7902 85.4534L23.7902 85.4542L23.7914 85.5493L23.7914 85.5495L23.7916 85.5613C23.7934 85.7063 23.7954 85.8638 23.7954 86.0222C23.7954 86.1807 23.7934 86.3382 23.7916 86.4832L23.7914 86.495L23.7914 86.4952L23.7902 86.5903L23.7902 86.5911C23.7885 86.7307 23.7874 86.8561 23.7883 86.9723L23.7847 86.9942L23.7022 87.4873L23.7047 87.4877L23.7872 86.9946L23.7884 86.9873C23.7885 86.9924 23.7885 86.9975 23.7886 87.0027L23.7939 87.4973H24.2886H60.7889L60.7891 88.2701H23.8522C23.5685 88.2701 23.4113 88.218 23.3228 88.1652C23.2427 88.1174 23.1815 88.0472 23.1322 87.9242C23.0784 87.7904 23.0438 87.605 23.0274 87.3504C23.0111 87.0971 23.0145 86.8113 23.0187 86.4809L23.0189 86.4607C23.0207 86.3204 23.0225 86.1728 23.0225 86.0222C23.0225 85.8717 23.0207 85.7241 23.0189 85.5837L23.0187 85.5637C23.0145 85.2331 23.0111 84.9474 23.0274 84.6941C23.0438 84.4395 23.0784 84.2541 23.1322 84.1202C23.1815 83.9972 23.2427 83.9271 23.3228 83.8793C23.4113 83.8265 23.5685 83.7744 23.8522 83.7744H60.7891Z" fill="white" stroke="#252B33"/>
</svg>
