<svg width="49" height="63" viewBox="0 0 49 63" fill="none" xmlns="http://www.w3.org/2000/svg">
<path fill-rule="evenodd" clip-rule="evenodd" d="M16.0137 3.42048C15.5849 3.70883 15.1 4.30722 15.1 5.67793C15.1 7.46114 14.7269 9.4062 14.1287 11.1161C14.0567 11.322 13.9807 11.5265 13.9008 11.7286C16.6559 10.4958 19.7143 9.8095 22.9333 9.8095C26.1535 9.8095 29.2113 10.4956 31.9656 11.7281C31.8859 11.5262 31.81 11.3219 31.738 11.1161C31.1398 9.4062 30.7667 7.46114 30.7667 5.67793C30.7667 4.30722 30.2818 3.70883 29.853 3.42048C29.36 3.089 28.7269 3.02549 28.3033 3.08534L28.2298 3.09572H17.6369L17.5634 3.08534C17.1398 3.02549 16.5066 3.089 16.0137 3.42048ZM35.6072 13.7951C39.8459 16.768 42.9704 21.1923 44.2409 26.3356H45.9111C47.0648 26.3356 48 27.2605 48 28.4014V33.5658C48 34.7067 47.0648 35.6315 45.9111 35.6315H44.4691C43.38 41.2152 40.1272 46.0347 35.6079 49.2043C34.9343 49.8467 34.2417 51.0455 33.712 52.5593C33.1788 54.0836 32.8556 55.8001 32.8556 57.3221C32.8556 59.2566 32.1219 60.5518 31.0276 61.2878C30.0312 61.9578 28.881 62.0653 28.0874 61.9701H17.7793C16.9857 62.0653 15.8355 61.9578 14.8391 61.2878C13.7447 60.5518 13.0111 59.2566 13.0111 57.3221C13.0111 55.8001 12.6879 54.0836 12.1546 52.5593C11.6252 51.046 10.9328 49.8474 10.2594 49.2049C4.6565 45.2753 1 38.8099 1 31.5C1 28.2056 1.74336 25.0801 3.07423 22.281C3.31968 21.7647 3.94182 21.543 4.4638 21.7857C4.9858 22.0285 5.21 22.6437 4.9646 23.16C3.76173 25.6898 3.08889 28.5158 3.08889 31.5C3.08889 42.3385 11.9735 51.1248 22.9333 51.1248C23.6038 51.1248 24.2662 51.0919 24.919 51.0278C25.493 50.9715 26.0046 51.386 26.0616 51.9536C26.1185 52.5213 25.6994 53.0271 25.1254 53.0835C24.4041 53.1543 23.6728 53.1905 22.9333 53.1905C19.7134 53.1905 16.6555 52.5044 13.901 51.2718C13.9808 51.4737 14.0567 51.6781 14.1287 51.8839C14.7269 53.5938 15.1 55.5389 15.1 57.3221C15.1 58.6928 15.5849 59.2912 16.0137 59.5795C16.5066 59.911 17.1398 59.9745 17.5634 59.9147L17.6369 59.9043H28.2298L28.3033 59.9147C28.7269 59.9745 29.36 59.911 29.853 59.5795C30.2818 59.2912 30.7667 58.6928 30.7667 57.3221C30.7667 55.5389 31.1398 53.5938 31.738 51.8839C31.81 51.678 31.886 51.4735 31.9658 51.2715C31.1723 51.6265 30.3535 51.9363 29.513 52.1974C28.9626 52.3683 28.3764 52.0657 28.2035 51.5215C28.0307 50.9772 28.3367 50.3975 28.887 50.2265C36.0215 48.0105 41.4197 41.9155 42.556 34.445C42.702 33.4849 42.7778 32.5016 42.7778 31.5C42.7778 30.1545 42.641 28.8416 42.3808 27.5739C40.5422 18.6167 32.5327 11.8752 22.9333 11.8752C18.6847 11.8752 14.7508 13.1944 11.5235 15.4413C10.2467 16.3302 9.0806 17.3643 8.0497 18.5194C7.668 18.947 7.008 18.9877 6.5755 18.6103C6.1431 18.2328 6.1019 17.5801 6.4836 17.1524C7.6055 15.8953 8.8726 14.7678 10.259 13.7955C10.9325 13.153 11.6251 11.9543 12.1546 10.4407C12.6879 8.9164 13.0111 7.19994 13.0111 5.67793C13.0111 3.74341 13.7447 2.44818 14.8391 1.71225C15.8355 1.04219 16.9857 0.93468 17.7793 1.02995H28.0874C28.881 0.93468 30.0312 1.04219 31.0276 1.71225C32.1219 2.44818 32.8556 3.74341 32.8556 5.67793C32.8556 7.19994 33.1788 8.9164 33.712 10.4407C34.2415 11.954 34.9338 13.1525 35.6072 13.7951ZM44.7684 33.5658H45.9111V28.4014H44.6444C44.7909 29.4138 44.8667 30.4484 44.8667 31.5C44.8667 32.1965 44.8334 32.8856 44.7684 33.5658Z" fill="#252B33"/>
<path fill-rule="evenodd" clip-rule="evenodd" d="M15.6526 2.49984C15.2055 2.79764 14.7 3.41565 14.7 4.8313C14.7 6.67298 14.311 8.68181 13.6874 10.4478C13.6123 10.6604 13.5331 10.8716 13.4498 11.0804C16.3221 9.80713 19.5107 9.09833 22.8666 9.09833C26.2239 9.09833 29.4118 9.80693 32.2833 11.0798C32.2002 10.8713 32.1211 10.6603 32.046 10.4478C31.4223 8.68181 31.0334 6.67298 31.0334 4.8313C31.0334 3.41565 30.5278 2.79764 30.0808 2.49984C29.5668 2.15749 28.9068 2.0919 28.4651 2.15371L28.3885 2.16443H17.3449L17.2682 2.15371C16.8266 2.0919 16.1665 2.15749 15.6526 2.49984ZM36.0798 13.2146C40.4989 16.285 43.7564 20.8543 45.0809 26.1663H46.8222C48.025 26.1663 49 27.1215 49 28.2998V33.6335C49 34.8118 48.025 35.7669 46.8222 35.7669H45.3189C44.1834 41.5337 40.7922 46.5112 36.0806 49.7848C35.3783 50.4482 34.6562 51.6863 34.104 53.2498C33.5481 54.824 33.2112 56.5968 33.2112 58.1687C33.2112 60.1666 32.4462 61.5043 31.3054 62.2644C30.2666 62.9564 29.0674 63.0674 28.2401 62.9691H17.4933C16.6659 63.0674 15.4668 62.9564 14.428 62.2644C13.287 61.5043 12.5222 60.1666 12.5222 58.1687C12.5222 56.5968 12.1853 54.824 11.6293 53.2498C11.0773 51.6868 10.3555 50.4489 9.65342 49.7854C3.8121 45.7269 0 39.0496 0 31.5C0 28.0976 0.774993 24.8696 2.1625 21.9787C2.41839 21.4455 3.067 21.2165 3.6112 21.4672C4.15541 21.718 4.38915 22.3533 4.13331 22.8866C2.87925 25.4993 2.17778 28.418 2.17778 31.5C2.17778 42.6939 11.4405 51.7682 22.8666 51.7682C23.5657 51.7682 24.2563 51.7342 24.9368 51.668C25.5353 51.6099 26.0686 52.038 26.128 52.6242C26.1874 53.2105 25.7504 53.7329 25.152 53.7911C24.4 53.8643 23.6376 53.9016 22.8666 53.9016C19.5097 53.9016 16.3217 53.1931 13.45 51.92C13.5332 52.1286 13.6123 52.3397 13.6874 52.5522C14.311 54.3182 14.7 56.327 14.7 58.1687C14.7 59.5844 15.2055 60.2024 15.6526 60.5001C16.1665 60.8425 16.8266 60.9081 17.2682 60.8463L17.3449 60.8356H28.3885L28.4651 60.8463C28.9068 60.9081 29.5668 60.8425 30.0808 60.5001C30.5278 60.2024 31.0334 59.5844 31.0334 58.1687C31.0334 56.327 31.4223 54.3182 32.046 52.5522C32.1211 52.3396 32.2003 52.1284 32.2835 51.9197C31.4562 52.2864 30.6026 52.6063 29.7263 52.876C29.1525 53.0525 28.5414 52.74 28.3611 52.1779C28.1809 51.6158 28.5 51.0171 29.0737 50.8405C36.5118 48.5518 42.1397 42.257 43.3243 34.5415C43.4766 33.55 43.5556 32.5344 43.5556 31.5C43.5556 30.1104 43.413 28.7544 43.1417 27.4452C41.2248 18.1943 32.8745 11.2318 22.8666 11.2318C18.4372 11.2318 14.3359 12.5942 10.9713 14.9148C9.64018 15.8328 8.42446 16.9008 7.34969 18.0938C6.95174 18.5354 6.26366 18.5775 5.81275 18.1877C5.36195 17.7978 5.319 17.1237 5.71694 16.682C6.88658 15.3837 8.20761 14.2192 9.653 13.215C10.3552 12.5515 11.0772 11.3135 11.6293 9.75023C12.1853 8.17595 12.5222 6.40322 12.5222 4.8313C12.5222 2.83336 13.287 1.49566 14.428 0.735603C15.4668 0.0435737 16.6659 -0.0674612 17.4933 0.0309323H28.2401C29.0674 -0.0674612 30.2666 0.0435737 31.3054 0.735603C32.4462 1.49566 33.2112 2.83336 33.2112 4.8313C33.2112 6.40322 33.5481 8.17595 34.104 9.75023C34.656 11.3131 35.3778 12.5509 36.0798 13.2146ZM45.6309 33.6335H46.8222V28.2998H45.5016C45.6543 29.3454 45.7334 30.4139 45.7334 31.5C45.7334 32.2193 45.6986 32.931 45.6309 33.6335Z" fill="#252B33"/>
</svg>
