<svg width="75" height="91" viewBox="0 0 75 91" fill="none" xmlns="http://www.w3.org/2000/svg">
<path d="M71.8725 43.4548C70.9815 43.4548 70.2591 44.3282 70.2591 45.4058V78.7722C70.2591 82.296 67.8884 85.1626 64.9747 85.1626H9.79151C6.87761 85.1626 4.50716 82.2956 4.50716 78.7722V12.0395C4.50716 8.51569 6.87783 5.6489 9.79151 5.6489H58.0762C58.9674 5.6489 59.6898 4.77528 59.6898 3.69766C59.6898 2.62021 58.9674 1.74658 58.0762 1.74658H9.79151C5.09832 1.74658 1.28027 6.36408 1.28027 12.0395V78.7722C1.28027 84.4476 5.09852 89.0648 9.79151 89.0648H64.9745C69.6677 89.0648 73.4857 84.4474 73.4857 78.7722V45.4058C73.486 44.3282 72.7638 43.4548 71.8725 43.4548Z" fill="#252B33" stroke="#252B33" stroke-width="2"/>
<mask id="mask0_803_84" style="mask-type:alpha" maskUnits="userSpaceOnUse" x="16" y="33" width="43" height="25">
<path d="M47.0405 51.1905C46.6947 51.1905 46.3567 51.0884 46.0692 50.8971C45.7818 50.7059 45.5577 50.4342 45.4254 50.1163C45.2931 49.7982 45.2584 49.4484 45.3258 49.1107C45.3933 48.7732 45.5598 48.4632 45.8043 48.2198C46.0488 47.9765 46.3603 47.8107 46.6994 47.7436C47.0386 47.6764 47.3901 47.7108 47.7095 47.8426C48.0289 47.9742 48.302 48.1973 48.4941 48.4835C48.6861 48.7696 48.7886 49.106 48.7886 49.4503C48.7886 49.9118 48.6046 50.3544 48.2767 50.6808C47.9488 51.0071 47.5041 51.1905 47.0405 51.1905ZM27.7189 51.1905C27.3732 51.1905 27.0352 51.0884 26.7477 50.8971C26.4601 50.7059 26.236 50.4342 26.1037 50.1163C25.9714 49.7982 25.9368 49.4484 26.0043 49.1107C26.0717 48.7732 26.2383 48.4632 26.4828 48.2198C26.7273 47.9765 27.0388 47.8107 27.3779 47.7436C27.717 47.6764 28.0685 47.7108 28.388 47.8426C28.7075 47.9742 28.9804 48.1973 29.1726 48.4835C29.3646 48.7696 29.4672 49.106 29.4672 49.4503C29.4672 49.9118 29.2829 50.3544 28.9551 50.6808C28.6273 51.0071 28.1826 51.1905 27.7189 51.1905ZM47.6714 40.7192L51.1678 34.6665C51.2249 34.5101 51.2287 34.3394 51.1785 34.1808C51.1285 34.0221 51.0272 33.8843 50.8904 33.7887C50.7537 33.6931 50.5892 33.645 50.4221 33.6519C50.2552 33.6587 50.0952 33.7201 49.9669 33.8266C49.9405 33.8609 49.9201 33.8992 49.9061 33.9401L46.3716 40.0684C43.5443 38.8081 40.4815 38.1565 37.3835 38.1565C34.2857 38.1565 31.2227 38.8081 28.3954 40.0684L24.8535 33.9704C24.7449 33.8474 24.5994 33.7629 24.4387 33.7293C24.2779 33.6955 24.1104 33.7148 23.9615 33.7837C23.8126 33.8528 23.6901 33.9679 23.6124 34.112C23.5348 34.2563 23.5062 34.4215 23.5308 34.5832C23.5461 34.6251 23.5694 34.6635 23.5992 34.6966L27.088 40.7495C24.0754 42.3842 21.5198 44.7408 19.6524 47.6062C17.7851 50.4716 16.6651 53.7552 16.3936 57.16H58.3734C58.1054 53.7493 56.9862 50.4593 55.1174 47.5884C53.2486 44.7175 50.6891 42.3563 47.6714 40.7192Z" fill="white"/>
</mask>
<g mask="url(#mask0_803_84)">
<path d="M48.7879 49.4504H50.5196H48.7879ZM29.4664 49.4504H31.1981H29.4664ZM51.167 34.6666L52.6665 35.5328L52.7418 35.4024L52.7936 35.261L51.167 34.6666ZM49.9053 33.9402L51.4053 34.8054L51.4891 34.6602L51.5433 34.5018L49.9053 33.9402ZM46.3708 40.0686L45.6659 41.6503L47.0912 42.2858L47.871 40.9337L46.3708 40.0686ZM37.3827 38.1567V36.425V38.1567ZM28.3947 40.0686L26.8973 40.9384L27.6786 42.2837L29.0998 41.6503L28.3947 40.0686ZM24.8527 33.9705L26.3501 33.1007L26.2642 32.953L26.1511 32.8247L24.8527 33.9705ZM23.5301 34.5834L21.8181 34.8443L21.8443 35.0156L21.9037 35.1782L23.5301 34.5834ZM23.5985 34.6968L25.0988 33.8322L25.0072 33.6732L24.8842 33.5369L23.5985 34.6968ZM27.0873 40.7497L27.9133 42.2716L29.4749 41.4241L28.5876 39.8849L27.0873 40.7497ZM16.3928 57.1602L14.6667 57.0225L14.5176 58.8919H16.3928V57.1602ZM58.3727 57.1602V58.8919H60.2458L60.0992 57.0244L58.3727 57.1602ZM47.0398 49.4589C47.0347 49.4589 47.0304 49.4574 47.0275 49.4555L45.1095 52.3392C45.6816 52.7197 46.3533 52.9223 47.0398 52.9223V49.4589ZM47.0275 49.4555C47.0247 49.4536 47.0237 49.4517 47.0233 49.4511L43.8258 50.7816C44.0902 51.4169 44.5373 51.9586 45.1095 52.3392L47.0275 49.4555ZM47.0233 49.4511L47.0231 49.4503L43.627 48.7716C43.4921 49.4466 43.5614 50.1462 43.8258 50.7816L47.0233 49.4511ZM47.0231 49.4503C47.0233 49.4501 47.0235 49.4489 47.0252 49.4472L44.582 46.9927C44.0947 47.4777 43.7619 48.0966 43.627 48.7716L47.0231 49.4503ZM47.0252 49.4472C47.0269 49.4454 47.0302 49.4433 47.0351 49.4423L46.3623 46.0449C45.6889 46.1783 45.0691 46.5076 44.582 46.9927L47.0252 49.4472ZM47.0351 49.4423C47.0398 49.4414 47.0446 49.442 47.0488 49.4437L48.3688 46.2418C47.734 45.98 47.0358 45.9116 46.3623 46.0449L47.0351 49.4423ZM47.0488 49.4437C47.0526 49.4453 47.0546 49.4475 47.0555 49.4487L49.9311 47.5184C49.5477 46.9475 49.0038 46.5037 48.3688 46.2418L47.0488 49.4437ZM47.0555 49.4487C47.056 49.4494 47.0562 49.4499 47.0562 49.4501C47.0562 49.4503 47.0562 49.4504 47.0562 49.4504H50.5196C50.5196 48.7619 50.3145 48.0897 49.9311 47.5184L47.0555 49.4487ZM47.0562 49.4504C47.0562 49.4504 47.0564 49.4506 47.056 49.4511C47.0559 49.4517 47.0555 49.4525 47.0543 49.4536L49.4975 51.9082C50.1511 51.2578 50.5196 50.3738 50.5196 49.4504H47.0562ZM47.0543 49.4536C47.0517 49.4562 47.0467 49.4589 47.0398 49.4589V52.9223C47.9601 52.9223 48.8443 52.5585 49.4975 51.9082L47.0543 49.4536ZM27.7181 49.4589C27.7131 49.4589 27.7089 49.4574 27.706 49.4555L25.788 52.3392C26.36 52.7197 27.0317 52.9223 27.7181 52.9223V49.4589ZM27.706 49.4555C27.703 49.4536 27.702 49.4517 27.7018 49.4511L24.5043 50.7816C24.7687 51.4169 25.2158 51.9586 25.788 52.3392L27.706 49.4555ZM27.7018 49.4511L27.7017 49.4503L24.3055 48.7716C24.1706 49.4466 24.2399 50.1462 24.5043 50.7816L27.7018 49.4511ZM27.7017 49.4503C27.7017 49.4501 27.702 49.4489 27.7037 49.4472L25.2604 46.9927C24.7731 47.4777 24.4404 48.0966 24.3055 48.7716L27.7017 49.4503ZM27.7037 49.4472C27.7055 49.4454 27.7088 49.4433 27.7134 49.4423L27.0409 46.0449C26.3672 46.1783 25.7475 46.5076 25.2604 46.9927L27.7037 49.4472ZM27.7134 49.4423C27.7183 49.4414 27.7231 49.442 27.7271 49.4437L29.0473 46.2418C28.4123 45.98 27.7143 45.9116 27.0409 46.0449L27.7134 49.4423ZM27.7271 49.4437C27.7311 49.4453 27.7332 49.4475 27.734 49.4487L30.6095 47.5184C30.2263 46.9475 29.6822 46.5037 29.0473 46.2418L27.7271 49.4437ZM27.734 49.4487C27.7344 49.4494 27.7346 49.4499 27.7347 49.4501C27.7347 49.4503 27.7347 49.4504 27.7347 49.4504H31.1981C31.1981 48.7619 30.9929 48.0897 30.6095 47.5184L27.734 49.4487ZM27.7347 49.4504C27.7347 49.4504 27.7347 49.4506 27.7346 49.4511C27.7344 49.4517 27.7339 49.4525 27.7327 49.4536L30.176 51.9082C30.8294 51.2578 31.1981 50.3738 31.1981 49.4504H27.7347ZM27.7327 49.4536C27.7302 49.4562 27.7252 49.4589 27.7181 49.4589V52.9223C28.6385 52.9223 29.5229 52.5585 30.176 51.9082L27.7327 49.4536ZM49.1701 41.5855L52.6665 35.5328L49.6676 33.8005L46.1712 39.8532L49.1701 41.5855ZM52.7936 35.261C52.9818 34.7456 52.9943 34.1825 52.8289 33.6592L49.5266 34.7027C49.4615 34.4968 49.4665 34.2749 49.5406 34.0722L52.7936 35.261ZM52.8289 33.6592C52.6637 33.136 52.3302 32.6832 51.882 32.3698L49.8974 35.208C49.7226 35.0857 49.5917 34.9086 49.5266 34.7027L52.8289 33.6592ZM51.882 32.3698C51.4341 32.0565 50.8957 31.8994 50.3505 31.9218L50.4924 35.3822C50.2811 35.3908 50.0719 35.33 49.8974 35.208L51.882 32.3698ZM50.3505 31.9218C49.8052 31.9441 49.2814 32.1448 48.8604 32.4941L51.0718 35.1595C50.9075 35.2958 50.7038 35.3735 50.4924 35.3822L50.3505 31.9218ZM48.591 32.7743C48.4512 32.9568 48.3418 33.161 48.2672 33.3786L51.5433 34.5018C51.4967 34.6379 51.4283 34.7653 51.3412 34.8793L48.591 32.7743ZM48.4052 33.0751L44.8708 39.2034L47.871 40.9337L51.4053 34.8054L48.4052 33.0751ZM47.076 38.4871C44.0267 37.1277 40.7235 36.425 37.3827 36.425V39.8883C40.2379 39.8883 43.0606 40.4889 45.6659 41.6503L47.076 38.4871ZM37.3827 36.425C34.0422 36.425 30.739 37.1277 27.6895 38.4871L29.0998 41.6503C31.7049 40.4889 34.5276 39.8883 37.3827 39.8883V36.425ZM29.8921 39.199L26.3501 33.1007L23.3552 34.8403L26.8973 40.9384L29.8921 39.199ZM26.1511 32.8247C25.7949 32.421 25.318 32.1443 24.7926 32.0345L24.0833 35.4244C23.8793 35.3816 23.6935 35.2741 23.5541 35.1164L26.1511 32.8247ZM24.7926 32.0345C24.2672 31.9245 23.72 31.9869 23.2327 32.2127L24.6889 35.3552C24.4995 35.4429 24.287 35.467 24.0833 35.4244L24.7926 32.0345ZM23.2327 32.2127C22.7453 32.4387 22.3428 32.8164 22.0872 33.291L25.1362 34.9335C25.0359 35.1198 24.8783 35.2672 24.6889 35.3552L23.2327 32.2127ZM22.0872 33.291C21.8315 33.7657 21.7367 34.3108 21.8181 34.8443L25.242 34.3224C25.274 34.5326 25.2366 34.7472 25.1362 34.9335L22.0872 33.291ZM21.9037 35.1782C21.9955 35.4287 22.1343 35.6591 22.3127 35.8568L24.8842 33.5369C25.0028 33.6683 25.0953 33.8216 25.1565 33.9885L21.9037 35.1782ZM22.0981 35.5616L25.5869 41.6143L28.5876 39.8849L25.0988 33.8322L22.0981 35.5616ZM26.2614 39.2275C22.9964 40.9992 20.2257 43.5539 18.2008 46.6609L21.1024 48.5519C22.8123 45.9282 25.153 43.7694 27.9133 42.2716L26.2614 39.2275ZM18.2008 46.6609C16.176 49.768 14.9611 53.3294 14.6667 57.0225L18.1189 57.2977C18.3674 54.1815 19.3928 51.1755 21.1024 48.5519L18.2008 46.6609ZM16.3928 58.8919H58.3727V55.4285H16.3928V58.8919ZM60.0992 57.0244C59.8084 53.3251 58.5943 49.757 56.5679 46.6439L53.6653 48.5332C55.3765 51.1622 56.401 54.1741 56.6464 57.2958L60.0992 57.0244ZM56.5679 46.6439C54.5414 43.5307 51.7669 40.9715 48.4964 39.1972L46.845 42.2415C49.6099 43.7415 51.9541 45.9043 53.6653 48.5332L56.5679 46.6439Z" fill="#252B33"/>
</g>
</svg>
