<svg width="140" height="151" viewBox="0 0 140 151" fill="none" xmlns="http://www.w3.org/2000/svg">
<rect width="140" height="140" rx="70" fill="white"/>
<g clip-path="url(#clip0_6_96)">
<g clip-path="url(#clip1_6_96)">
<path d="M108.5 34.5H31.5V105.5H108.5V34.5Z" fill="white"/>
<path d="M97.2266 39.5H47.7734C44.8657 39.5 42.5 41.8749 42.5 44.7941V87.1471C42.5 90.0662 44.8657 92.4412 47.7734 92.4412H77.7734V97.7353C77.7734 98.7099 78.5605 99.5 79.5312 99.5C80.502 99.5 81.2891 98.7099 81.2891 97.7353V80.0882H84.9219V97.7353C84.9219 98.7099 85.7089 99.5 86.6797 99.5C87.6505 99.5 88.4375 98.7099 88.4375 97.7353V80.0882H91.8359V97.7353C91.8359 98.7099 92.623 99.5 93.5938 99.5C94.5645 99.5 95.3516 98.7099 95.3516 97.7353V92.4412H97.2266C100.134 92.4412 102.5 90.0662 102.5 87.1471V44.7941C102.5 41.8749 100.134 39.5 97.2266 39.5ZM47.7734 43.0294H97.2266C98.1958 43.0294 98.9844 43.8211 98.9844 44.7941V53.6176H46.0156V44.7941C46.0156 43.8211 46.8042 43.0294 47.7734 43.0294ZM82.8158 76.5588L86.5625 70.9167L90.3092 76.5588H82.8158ZM97.2266 88.9118H95.3516V78.3235C95.3516 77.9752 95.2489 77.6346 95.0564 77.3447L88.0251 66.7565C87.3315 65.7119 85.7962 65.7079 85.0999 66.7565L78.0686 77.3447C77.8761 77.6346 77.7734 77.9752 77.7734 78.3235V88.9118H47.7734C46.8042 88.9118 46.0156 88.1201 46.0156 87.1471V57.1471H98.9844V87.1471C98.9844 88.1201 98.1958 88.9118 97.2266 88.9118Z" fill="#1D4354"/>
<path d="M65.7 75.5H51.3C50.3059 75.5 49.5 76.2462 49.5 77.1667V83.8333C49.5 84.7538 50.3059 85.5 51.3 85.5H65.7C66.6941 85.5 67.5 84.7538 67.5 83.8333V77.1667C67.5 76.2462 66.6941 75.5 65.7 75.5ZM63.9 82.1667H53.1V78.8333H63.9V82.1667Z" fill="#6BB64A"/>
<path d="M82.75 60.5H51.25C50.2835 60.5 49.5 61.3955 49.5 62.5C49.5 63.6045 50.2835 64.5 51.25 64.5H82.75C83.7165 64.5 84.5 63.6045 84.5 62.5C84.5 61.3955 83.7165 60.5 82.75 60.5Z" fill="#6BB64A"/>
<path d="M75.75 67.5H51.25C50.2835 67.5 49.5 68.3955 49.5 69.5C49.5 70.6045 50.2835 71.5 51.25 71.5H75.75C76.7165 71.5 77.5 70.6045 77.5 69.5C77.5 68.3955 76.7165 67.5 75.75 67.5Z" fill="#6BB64A"/>
<path d="M51.5 50.5C52.6046 50.5 53.5 49.6046 53.5 48.5C53.5 47.3954 52.6046 46.5 51.5 46.5C50.3954 46.5 49.5 47.3954 49.5 48.5C49.5 49.6046 50.3954 50.5 51.5 50.5Z" fill="#1D4354"/>
<path d="M58.5 50.5C59.6046 50.5 60.5 49.6046 60.5 48.5C60.5 47.3954 59.6046 46.5 58.5 46.5C57.3954 46.5 56.5 47.3954 56.5 48.5C56.5 49.6046 57.3954 50.5 58.5 50.5Z" fill="#1D4354"/>
<path d="M65.5 50.5C66.6046 50.5 67.5 49.6046 67.5 48.5C67.5 47.3954 66.6046 46.5 65.5 46.5C64.3954 46.5 63.5 47.3954 63.5 48.5C63.5 49.6046 64.3954 50.5 65.5 50.5Z" fill="#1D4354"/>
<path d="M83.25 50.5H93.75C94.7165 50.5 95.5 49.6045 95.5 48.5C95.5 47.3955 94.7165 46.5 93.75 46.5H83.25C82.2835 46.5 81.5 47.3955 81.5 48.5C81.5 49.6045 82.2835 50.5 83.25 50.5Z" fill="#1D4354"/>
</g>
</g>
<rect x="10.5" y="121.5" width="29" height="29" rx="14.5" fill="white"/>
<path d="M26.4999 137.63C26.9585 137.705 27.3532 137.876 27.6839 138.142C28.0145 138.398 28.2705 138.729 28.4519 139.134C28.6332 139.529 28.7239 139.977 28.7239 140.478C28.7239 141.129 28.5639 141.7 28.2439 142.19C27.9345 142.692 27.4919 143.076 26.9159 143.342C26.3399 143.62 25.6679 143.758 24.8999 143.758C24.0892 143.758 23.3745 143.604 22.7559 143.294C22.1479 142.996 21.6732 142.569 21.3319 142.014L22.2759 141.07C22.5212 141.497 22.8519 141.838 23.2679 142.094C23.6945 142.35 24.2385 142.478 24.8999 142.478C25.6359 142.478 26.2119 142.308 26.6279 141.966C27.0545 141.636 27.2679 141.14 27.2679 140.478C27.2679 139.806 27.0385 139.273 26.5799 138.878C26.1319 138.473 25.4759 138.27 24.6119 138.27H24.1959V137.086H24.6439C25.4119 137.086 25.9985 136.9 26.4039 136.526C26.8199 136.153 27.0279 135.689 27.0279 135.134C27.0279 134.75 26.9372 134.436 26.7559 134.19C26.5745 133.945 26.3292 133.764 26.0199 133.646C25.7105 133.518 25.3532 133.454 24.9479 133.454C24.3612 133.454 23.8439 133.582 23.3959 133.838C22.9585 134.084 22.6172 134.43 22.3719 134.878L21.5079 133.982C21.6999 133.62 21.9719 133.305 22.3239 133.038C22.6865 132.772 23.1025 132.564 23.5719 132.414C24.0519 132.265 24.5585 132.19 25.0919 132.19C25.7639 132.19 26.3559 132.308 26.8679 132.542C27.3905 132.777 27.7959 133.108 28.0839 133.534C28.3719 133.961 28.5159 134.462 28.5159 135.038C28.5159 135.454 28.4359 135.849 28.2759 136.222C28.1159 136.585 27.8812 136.894 27.5719 137.15C27.2732 137.396 26.9159 137.556 26.4999 137.63Z" fill="#212529"/>
<rect x="10.5" y="121.5" width="29" height="29" rx="14.5" stroke="#E8E8E8"/>
<defs>
<clipPath id="clip0_6_96">
<rect width="77" height="71" fill="white" transform="translate(31.5 34.5)"/>
</clipPath>
<clipPath id="clip1_6_96">
<rect width="77" height="71" fill="white" transform="translate(31.5 34.5)"/>
</clipPath>
</defs>
</svg>
