<svg width="140" height="146" viewBox="0 0 140 146" fill="none" xmlns="http://www.w3.org/2000/svg">
<rect width="140" height="140" rx="70" fill="white"/>
<g clip-path="url(#clip0_6_132)">
<g clip-path="url(#clip1_6_132)">
<path d="M42.8008 83.5352H60.332V87.4023H54.5312C53.4632 87.4023 52.5977 88.2679 52.5977 89.3359C52.5977 90.4039 53.4632 91.2695 54.5312 91.2695H75.9297V97.1992C75.9297 100.398 78.532 103 81.7305 103H97.1992C100.398 103 103 100.398 103 97.1992V66.1328C103 62.9343 100.398 60.332 97.1992 60.332H95.2656V42.8008C95.2656 39.6023 92.6633 37 89.4648 37H42.8008C39.6023 37 37 39.6023 37 42.8008V77.7344C37 80.9329 39.6023 83.5352 42.8008 83.5352ZM40.8672 77.7344V75.8008H75.9297V79.668H42.8008C41.7348 79.668 40.8672 78.8004 40.8672 77.7344ZM99.1328 91.3984H79.7969V71.9336H99.1328V91.3984ZM64.1992 83.5352H68.0664V87.4023H64.1992V83.5352ZM71.9336 87.4023V83.5352H75.9297V87.4023H71.9336ZM97.1992 99.1328H81.7305C80.6645 99.1328 79.7969 98.2652 79.7969 97.1992V95.2656H99.1328V97.1992C99.1328 98.2652 98.2652 99.1328 97.1992 99.1328ZM99.1328 66.1328V68.0664H79.7969V66.1328C79.7969 65.0668 80.6645 64.1992 81.7305 64.1992H97.1992C98.2652 64.1992 99.1328 65.0668 99.1328 66.1328ZM42.8008 40.8672H89.4648C90.5308 40.8672 91.3984 41.7348 91.3984 42.8008V60.332H81.7305C78.532 60.332 75.9297 62.9343 75.9297 66.1328V71.9336H40.8672V42.8008C40.8672 41.7348 41.7348 40.8672 42.8008 40.8672Z" fill="#1D4354"/>
<path d="M55.5 59.5H46.5V66.5H55.5V59.5Z" stroke="#6BB64A" stroke-width="3"/>
<path d="M55.5 47.5H46.5V54.5H55.5V47.5Z" stroke="#6BB64A" stroke-width="3"/>
<path d="M71.5 53.5H62.5V60.5H71.5V53.5Z" stroke="#6BB64A" stroke-width="3"/>
<path d="M94.5 77.5H85.5V84.5H94.5V77.5Z" stroke="#6BB64A" stroke-width="3"/>
</g>
</g>
<rect x="10.5" y="116.5" width="29" height="29" rx="14.5" fill="white"/>
<path d="M24.9092 138.79C24.0985 138.79 23.3679 138.598 22.7172 138.214C22.0665 137.83 21.5759 137.318 21.2452 136.678L22.1252 135.91C22.4239 136.401 22.8185 136.796 23.3092 137.094C23.8105 137.393 24.3492 137.542 24.9252 137.542C25.4159 137.542 25.8532 137.436 26.2372 137.222C26.6212 137.009 26.9252 136.716 27.1492 136.342C27.3732 135.958 27.4852 135.521 27.4852 135.03C27.4852 134.55 27.3732 134.129 27.1492 133.766C26.9359 133.404 26.6425 133.121 26.2692 132.918C25.9065 132.716 25.4959 132.614 25.0372 132.614C24.5785 132.614 24.1465 132.716 23.7412 132.918C23.3465 133.121 23.0212 133.409 22.7652 133.782H21.5012L22.7812 127.27H28.3012V128.566H23.8212L23.1332 132.182C23.3679 131.937 23.6612 131.745 24.0132 131.606C24.3759 131.457 24.7759 131.382 25.2132 131.382C25.9172 131.382 26.5465 131.537 27.1012 131.846C27.6665 132.156 28.1092 132.582 28.4292 133.126C28.7599 133.67 28.9252 134.3 28.9252 135.014C28.9252 135.761 28.7439 136.417 28.3812 136.982C28.0292 137.558 27.5492 138.001 26.9412 138.31C26.3332 138.63 25.6559 138.79 24.9092 138.79Z" fill="#212529"/>
<rect x="10.5" y="116.5" width="29" height="29" rx="14.5" stroke="#E8E8E8"/>
<defs>
<clipPath id="clip0_6_132">
<rect width="66" height="66" fill="white" transform="translate(37 37)"/>
</clipPath>
<clipPath id="clip1_6_132">
<rect width="66" height="66" fill="white" transform="translate(37 37)"/>
</clipPath>
</defs>
</svg>
