<svg width="140" height="151" viewBox="0 0 140 151" fill="none" xmlns="http://www.w3.org/2000/svg">
<rect width="140" height="140" rx="70" fill="white"/>
<g clip-path="url(#clip0_6_116)">
<g clip-path="url(#clip1_6_116)">
<path d="M108.5 34.5H31.5V105.5H108.5V34.5Z" fill="white"/>
<path d="M105.303 85.3462H103.105V48.0769C103.105 44.4505 100.148 41.5 96.5137 41.5H43.4863C39.8517 41.5 36.8945 44.4505 36.8945 48.0769V85.3462H34.6973C33.4836 85.3462 32.5 86.3276 32.5 87.5385C32.5 93.5827 37.4284 98.5 43.4863 98.5H96.5137C102.572 98.5 107.5 93.5827 107.5 87.5385C107.5 86.3276 106.516 85.3462 105.303 85.3462ZM41.2891 48.0769C41.2891 46.8683 42.275 45.8846 43.4863 45.8846H96.5137C97.725 45.8846 98.7109 46.8683 98.7109 48.0769V85.3462H41.2891V48.0769ZM96.5137 94.1154H43.4863C40.6213 94.1154 38.178 92.281 37.271 89.7291H102.729C101.822 92.281 99.3787 94.1154 96.5137 94.1154Z" fill="#1D4354"/>
<path d="M56.8652 55.1445C56.0194 54.2852 54.6472 54.2852 53.8014 55.1445L45.1348 63.9445C44.2884 64.8039 44.2884 66.1967 45.1348 67.0555L53.8014 75.8555C54.6472 76.7148 56.0189 76.7148 56.8652 75.8555C57.7116 74.9967 57.7116 73.6039 56.8652 72.7445L49.731 65.5L56.8652 58.2555C57.7116 57.3967 57.7116 56.0033 56.8652 55.1445Z" fill="#6BB64A"/>
<path d="M86.1986 55.1445C85.3528 54.2852 83.9806 54.2852 83.1348 55.1445C82.2884 56.0039 82.2884 57.3967 83.1348 58.2555L90.269 65.5L83.1348 72.7445C82.2884 73.6039 82.2884 74.9967 83.1348 75.8555C83.9806 76.7148 85.3522 76.7148 86.1986 75.8555L94.8652 67.0555C95.7116 66.1967 95.7116 64.8039 94.8652 63.9445L86.1986 55.1445Z" fill="#6BB64A"/>
<path d="M75.0178 50.6141C73.8832 50.2277 72.6561 50.8545 72.2776 52.0147L63.6118 78.5851C63.2333 79.7452 63.8471 80.9988 64.9822 81.3857C66.1168 81.7726 67.3439 81.1453 67.7224 79.9851L76.3882 53.4147C76.7667 52.2545 76.1529 51.001 75.0178 50.6141Z" fill="#1D4354"/>
</g>
</g>
<rect x="10.5" y="121.5" width="29" height="29" rx="14.5" fill="white"/>
<path d="M26.1591 143.438V140.734H21.0231V139.486L26.6071 132.27H27.5671V139.454H28.9751V140.734H27.5671V143.438H26.1591ZM22.4791 139.454H26.3031V134.446L22.4791 139.454Z" fill="#212529"/>
<rect x="10.5" y="121.5" width="29" height="29" rx="14.5" stroke="#E8E8E8"/>
<defs>
<clipPath id="clip0_6_116">
<rect width="77" height="71" fill="white" transform="translate(31.5 34.5)"/>
</clipPath>
<clipPath id="clip1_6_116">
<rect width="77" height="71" fill="white" transform="translate(31.5 34.5)"/>
</clipPath>
</defs>
</svg>
