<svg width="140" height="151" viewBox="0 0 140 151" fill="none" xmlns="http://www.w3.org/2000/svg">
<rect width="140" height="140" rx="70" fill="white"/>
<g clip-path="url(#clip0_6_63)">
<g clip-path="url(#clip1_6_63)">
<path d="M65.5714 72.5H90.4286C91.5726 72.5 92.5 71.5672 92.5 70.4167V62.0833C92.5 60.9328 91.5726 60 90.4286 60H84.2143V49.5833C84.2143 48.4328 83.2868 47.5 82.1429 47.5H73.8571C72.7132 47.5 71.7857 48.4328 71.7857 49.5833V55.8333H65.5714C64.4274 55.8333 63.5 56.7661 63.5 57.9167V70.4167C63.5 71.5672 64.4274 72.5 65.5714 72.5ZM84.2143 64.1667H88.3571V68.3333H84.2143V64.1667ZM75.9286 51.6667H80.0714V68.3333H75.9286V51.6667ZM67.6429 60H71.7857V68.3333H67.6429V60Z" fill="#6BB64A"/>
<path d="M45.1495 103.671L64.2703 84.5511C68.3974 87.1046 73.2581 88.581 78.4577 88.581C93.3688 88.581 105.5 76.4506 105.5 61.5405C105.5 46.6304 93.3688 34.5 78.4577 34.5C63.5466 34.5 51.4154 46.6304 51.4154 61.5405C51.4154 66.7397 52.8919 71.6001 55.4457 75.7268L36.3248 94.8463C33.8917 97.2791 33.8917 101.238 36.3248 103.671C38.7641 106.11 42.71 106.11 45.1495 103.671ZM78.4577 38.6601C91.0748 38.6601 101.34 48.9242 101.34 61.5405C101.34 74.1567 91.0748 84.4209 78.4577 84.4209C65.8406 84.4209 55.5758 74.1567 55.5758 61.5405C55.5758 48.9242 65.8406 38.6601 78.4577 38.6601ZM39.2666 97.7881L57.9314 79.1246C58.8354 80.1782 59.8189 81.1616 60.8726 82.0656L42.2079 100.729C41.3945 101.542 40.0801 101.543 39.2666 100.729C38.4558 99.9182 38.4558 98.5989 39.2666 97.7881Z" fill="#1D4354"/>
</g>
</g>
<rect x="10.5" y="121.5" width="29" height="29" rx="14.5" fill="white"/>
<path d="M28.3066 140.126V141.406H22.5626V140.126H24.8346V133.886C24.7386 134.014 24.5893 134.153 24.3866 134.302C24.184 134.441 23.9546 134.574 23.6986 134.702C23.4426 134.83 23.1866 134.937 22.9306 135.022C22.6746 135.097 22.44 135.134 22.2266 135.134V133.79C22.4613 133.79 22.7173 133.726 22.9946 133.598C23.2826 133.46 23.56 133.3 23.8266 133.118C24.0933 132.937 24.3173 132.766 24.4986 132.606C24.6906 132.446 24.8026 132.334 24.8346 132.27H26.2746V140.126H28.3066Z" fill="#212529"/>
<rect x="10.5" y="121.5" width="29" height="29" rx="14.5" stroke="#E8E8E8"/>
<defs>
<clipPath id="clip0_6_63">
<rect width="71" height="71" fill="white" transform="translate(34.5 34.5)"/>
</clipPath>
<clipPath id="clip1_6_63">
<rect width="71" height="71" fill="white" transform="translate(34.5 34.5)"/>
</clipPath>
</defs>
</svg>
