<svg width="140" height="151" viewBox="0 0 140 151" fill="none" xmlns="http://www.w3.org/2000/svg">
<rect width="140" height="140" rx="70" fill="white"/>
<g clip-path="url(#clip0_6_77)">
<g clip-path="url(#clip1_6_77)">
<path d="M70.5 34.5C58.3693 34.5 48.5 44.4286 48.5 56.6322C48.5 63.6558 51.7915 70.2096 57.3586 74.3828V76.231C56.0028 77.4298 55.1445 79.1854 55.1445 81.1398C55.1445 82.8607 55.81 84.4278 56.8944 85.5963C55.81 86.7647 55.1445 88.3312 55.1445 90.0522C55.1445 92.9838 57.0727 95.4707 59.7208 96.2962C60.5726 101.509 65.0805 105.5 70.5 105.5C75.9195 105.5 80.4279 101.509 81.2798 96.2962C83.9273 95.4701 85.8561 92.9838 85.8561 90.0516C85.8561 88.3312 85.1905 86.7641 84.1061 85.5957C85.1905 84.4273 85.8561 82.8607 85.8561 81.1398C85.8561 79.1854 84.9978 77.4298 83.6414 76.2305V74.3828C89.2085 70.2096 92.5 63.6558 92.5 56.6322C92.5 44.4286 82.6307 34.5 70.5 34.5ZM79.3591 78.764C80.6611 78.764 81.7208 79.83 81.7208 81.1398C81.7208 82.4501 80.6611 83.5162 79.3591 83.5162H61.6414C60.3389 83.5162 59.2792 82.4501 59.2792 81.1398C59.2792 79.83 60.3389 78.764 61.6414 78.764H79.3591ZM70.5 101.34C67.4761 101.34 64.9077 99.341 64.0305 96.5882H76.9695C76.0929 99.3416 73.5239 101.34 70.5 101.34ZM79.3591 92.428H61.6414C60.3389 92.428 59.2792 91.362 59.2792 90.0522C59.2792 88.7418 60.3389 87.6763 61.6414 87.6763H79.3591C80.6611 87.6763 81.7208 88.7418 81.7208 90.0522C81.7208 91.362 80.6611 92.428 79.3591 92.428ZM80.4236 71.5779C79.8502 71.9642 79.5061 72.6126 79.5061 73.3065V74.6076C79.4571 74.6065 79.4081 74.6038 79.3591 74.6038H76.9969V66.4059L79.966 63.419C80.7736 62.6065 80.7736 61.2897 79.966 60.4771C79.1588 59.6646 77.8493 59.6646 77.0422 60.4771L73.4674 64.0734C73.0797 64.4634 72.8616 64.9921 72.8616 65.5441V74.6038H68.1384V65.5441C68.1384 64.9926 67.9203 64.4634 67.5326 64.0734L63.9578 60.4771C63.1507 59.6652 61.8417 59.6652 61.034 60.4771C60.2264 61.2897 60.2264 62.6065 61.034 63.419L64.0031 66.4059V74.6043H61.6414C61.5919 74.6043 61.5429 74.6065 61.4939 74.6076V73.3065C61.4939 72.6126 61.1498 71.9642 60.5764 71.5779C55.6043 68.2292 52.6353 62.6423 52.6353 56.6322C52.6353 46.7221 60.6496 38.6602 70.5 38.6602C80.3504 38.6602 88.3647 46.7221 88.3647 56.6322C88.3647 62.6423 85.3957 68.2292 80.4236 71.5779Z" fill="#1D4354"/>
<path d="M43.5 56.5C43.5 55.3953 42.5273 54.5 41.3272 54.5H36.6728C35.4727 54.5 34.5 55.3953 34.5 56.5C34.5 57.6042 35.4727 58.5 36.6728 58.5H41.3272C42.5273 58.5 43.5 57.6042 43.5 56.5Z" fill="#6BB64A"/>
<path d="M103.327 54.5H98.6728C97.4732 54.5 96.5 55.3953 96.5 56.5C96.5 57.6042 97.4732 58.5 98.6728 58.5H103.327C104.527 58.5 105.5 57.6042 105.5 56.5C105.5 55.3953 104.527 54.5 103.327 54.5Z" fill="#6BB64A"/>
<path d="M43.9979 69.7619L39.6671 71.8544C38.551 72.3942 38.1686 73.5887 38.813 74.5232C39.2453 75.15 40.0301 75.5 40.8368 75.5C41.2325 75.5 41.6343 75.4161 42.0015 75.238L46.3323 73.1461C47.449 72.6063 47.8314 71.4118 47.187 70.4772C46.5426 69.5427 45.1146 69.2227 43.9979 69.7619Z" fill="#6BB64A"/>
<path d="M94.8369 43.5C95.2326 43.5 95.6338 43.4156 96.0016 43.238L100.333 41.1452C101.449 40.606 101.832 39.4115 101.187 38.477C100.542 37.5425 99.1145 37.2225 97.9984 37.7623L93.6673 39.8546C92.5513 40.3938 92.1683 41.5888 92.8133 42.5228C93.2455 43.1495 94.0302 43.5 94.8369 43.5Z" fill="#6BB64A"/>
<path d="M100.332 71.8541L96.0017 69.762C94.885 69.2227 93.4572 69.5427 92.8129 70.4773C92.1685 71.4114 92.5515 72.6066 93.6675 73.1459L97.9985 75.238C98.3657 75.4155 98.7669 75.5 99.1632 75.5C99.9698 75.5 100.755 75.1495 101.187 74.5226C101.832 73.5885 101.449 72.3934 100.332 71.8541Z" fill="#6BB64A"/>
<path d="M46.3324 39.854L42.0017 37.7622C40.885 37.2224 39.4577 37.5429 38.8133 38.4774C38.1683 39.4119 38.5513 40.6064 39.6674 41.1456L43.9981 43.238C44.3659 43.4156 44.7671 43.5 45.1628 43.5C45.9701 43.5 46.7543 43.1495 47.1871 42.5228C47.8315 41.5882 47.4485 40.3938 46.3324 39.854Z" fill="#6BB64A"/>
</g>
</g>
<rect x="10" y="121" width="30" height="30" rx="15" fill="white"/>
<path d="M21.5067 141.406C21.5067 140.98 21.5387 140.58 21.6027 140.206C21.6774 139.833 21.8054 139.476 21.9868 139.134C22.1787 138.793 22.4454 138.468 22.7867 138.158C23.1281 137.838 23.5707 137.529 24.1148 137.23C24.4348 137.049 24.7548 136.878 25.0747 136.718C25.4054 136.558 25.7094 136.388 25.9868 136.206C26.2748 136.025 26.5041 135.828 26.6748 135.614C26.8454 135.39 26.9308 135.134 26.9308 134.846C26.9308 134.601 26.8561 134.366 26.7068 134.142C26.5681 133.908 26.3548 133.721 26.0668 133.582C25.7894 133.433 25.4428 133.358 25.0268 133.358C24.7068 133.358 24.4134 133.401 24.1467 133.486C23.8908 133.572 23.6561 133.684 23.4427 133.822C23.2401 133.95 23.0588 134.089 22.8988 134.238C22.7494 134.377 22.6214 134.505 22.5148 134.622L21.6347 133.63C21.7201 133.534 21.8641 133.406 22.0667 133.246C22.2694 133.076 22.5254 132.905 22.8347 132.734C23.1441 132.564 23.5014 132.42 23.9067 132.302C24.3228 132.174 24.7761 132.11 25.2668 132.11C25.9281 132.11 26.4934 132.228 26.9627 132.462C27.4428 132.686 27.8108 132.996 28.0668 133.39C28.3228 133.774 28.4508 134.206 28.4508 134.686C28.4508 135.102 28.3601 135.465 28.1788 135.774C28.0081 136.084 27.7841 136.356 27.5068 136.59C27.2401 136.825 26.9574 137.028 26.6588 137.198C26.3708 137.358 26.1094 137.497 25.8748 137.614C25.3948 137.849 24.9841 138.062 24.6428 138.254C24.3014 138.446 24.0188 138.638 23.7947 138.83C23.5814 139.012 23.4054 139.204 23.2668 139.406C23.1387 139.609 23.0427 139.849 22.9787 140.126H28.6268V141.406H21.5067Z" fill="#212529"/>
<defs>
<clipPath id="clip0_6_77">
<rect width="71" height="71" fill="white" transform="translate(34.5 34.5)"/>
</clipPath>
<clipPath id="clip1_6_77">
<rect width="71" height="71" fill="white" transform="translate(34.5 34.5)"/>
</clipPath>
</defs>
</svg>
