<svg width="140" height="151" viewBox="0 0 140 151" fill="none" xmlns="http://www.w3.org/2000/svg">
<rect width="140" height="140" rx="70" fill="white"/>
<g clip-path="url(#clip0_6_149)">
<g clip-path="url(#clip1_6_149)">
<path d="M108.5 34.5H31.5V105.5H108.5V34.5Z" fill="white"/>
<path d="M53.1603 60.2244H50.2937C50.2314 60.2244 50.1738 60.2819 50.1738 60.3432V68.2974C50.1738 68.3589 50.2314 68.4158 50.2937 68.4158H53.1603V60.2244ZM86.8402 56.6629H89.7063C91.7463 56.6629 93.4086 58.3153 93.4086 60.3432V68.297C93.4086 70.3246 91.7463 71.977 89.7063 71.977H84.7547C83.2792 74.3074 81.1964 76.3432 78.9574 77.9475C78.9574 80.8037 81.0392 83.1359 83.9734 83.1359C92.5435 83.1359 99.5 85.3818 99.5 95.7191C99.5 96.7027 98.6979 97.5 97.7081 97.5C96.7193 97.5 95.9167 96.7027 95.9167 95.7191C95.9167 87.4272 90.3866 86.697 83.9734 86.697C82.5514 86.697 81.2085 86.351 80.0253 85.74L70.4564 92.627C69.8452 93.0864 68.9802 93.1186 68.3274 92.648L59.2126 86.0876C58.227 86.4807 57.1514 86.697 56.0263 86.697C49.6139 86.697 44.0833 87.4272 44.0833 95.7191C44.0833 96.7027 43.281 97.5 42.2919 97.5C41.3026 97.5 40.5 96.7027 40.5 95.7191C40.5 85.3818 47.4567 83.1359 56.0263 83.1359C58.6613 83.1359 60.8366 81.0928 61.0286 78.5202C58.4741 76.853 56.0868 74.6157 54.5488 71.977H50.2937C48.2537 71.977 46.5914 70.3246 46.5914 68.297V60.3432C46.5914 58.3153 48.2535 56.6629 50.2937 56.6629H53.1603V54.1224C53.1603 45.5604 60.1179 38.5 68.7129 38.5H71.2869C79.8816 38.5 86.8402 45.5613 86.8402 54.1229V56.6629ZM83.2571 68.4171V56.8739C78.3941 57.4956 73.5052 56.1297 69.6938 53.0919C66.1544 55.9049 61.5601 57.3973 56.7434 56.9411V68.1923C57.522 70.6646 59.4118 72.8464 61.5897 74.5464C64.559 76.8646 67.9323 78.2338 69.7798 78.2338C71.6529 78.2338 75.4473 76.4992 78.6301 73.667C79.2248 73.139 79.7919 72.5735 80.3148 71.9777H74.777C74.2327 72.6983 73.3655 73.1646 72.3885 73.1646C70.7394 73.1646 69.4029 71.8356 69.4029 70.1971C69.4029 68.5574 70.7394 67.2286 72.3885 67.2286C73.3655 67.2286 74.2327 67.6952 74.777 68.416C77.1537 68.4158 81.1141 68.4171 83.2571 68.4171ZM89.7063 60.2244H86.8402V68.4158H89.7063C89.7683 68.4158 89.8258 68.3589 89.8258 68.297V60.3432C89.8258 60.2819 89.7683 60.2244 89.7063 60.2244ZM83.228 53.2895C82.9153 48.7098 80.042 44.7924 76.0125 43.0407C75.375 45.8936 74.0642 48.456 72.2732 50.584C75.395 52.9156 79.3434 53.9008 83.228 53.2895ZM72.5527 42.129C72.1369 42.0848 71.7147 42.0617 71.2869 42.0617H68.7129C62.3241 42.0617 57.153 47.108 56.7666 53.3713C64.1758 54.2278 71.017 49.3095 72.5527 42.129ZM62.3379 83.9466L69.3771 89.0131L77.1878 83.3915C76.4187 82.4096 75.8598 81.258 75.5789 80.0036C73.3171 81.154 71.1941 81.7944 69.7798 81.7944C68.3822 81.7944 66.4218 81.2795 64.339 80.3382C63.974 81.704 63.2762 82.9379 62.3379 83.9466Z" fill="#1D4354"/>
<path d="M99.5 97.5H40.5V101.5H99.5V97.5Z" fill="#6BB64A"/>
</g>
</g>
<rect x="10.5" y="121.5" width="29" height="29" rx="14.5" fill="white"/>
<path d="M29.2326 137.646C29.2326 136.932 29.0566 136.286 28.7046 135.71C28.3633 135.134 27.894 134.676 27.2966 134.334C26.71 133.993 26.0486 133.822 25.3126 133.822C24.8753 133.822 24.4593 133.897 24.0646 134.046C23.6806 134.196 23.3446 134.409 23.0566 134.686C22.7686 134.953 22.5446 135.273 22.3846 135.646C22.3953 134.708 22.518 133.908 22.7526 133.246C22.998 132.585 23.3393 132.078 23.7766 131.726C24.214 131.374 24.7206 131.198 25.2966 131.198C25.862 131.198 26.374 131.348 26.8326 131.646C27.2913 131.934 27.638 132.329 27.8726 132.83L28.7366 131.982C28.3953 131.353 27.9206 130.862 27.3126 130.51C26.7153 130.148 26.0486 129.966 25.3126 129.966C24.4593 129.966 23.7126 130.217 23.0726 130.718C22.4326 131.209 21.9366 131.95 21.5846 132.942C21.2326 133.934 21.0566 135.177 21.0566 136.67C21.0566 137.684 21.2273 138.558 21.5686 139.294C21.9206 140.03 22.406 140.596 23.0246 140.99C23.6433 141.374 24.358 141.566 25.1686 141.566C25.9366 141.566 26.6246 141.39 27.2326 141.038C27.8513 140.686 28.3366 140.217 28.6886 139.63C29.0513 139.033 29.2326 138.372 29.2326 137.646ZM25.1846 140.35C24.694 140.35 24.2406 140.228 23.8246 139.982C23.4193 139.737 23.094 139.412 22.8486 139.006C22.6033 138.59 22.4806 138.137 22.4806 137.646C22.4806 137.156 22.6033 136.708 22.8486 136.302C23.094 135.897 23.4193 135.572 23.8246 135.326C24.2406 135.081 24.694 134.958 25.1846 134.958C25.6753 134.958 26.1233 135.081 26.5286 135.326C26.9446 135.572 27.2753 135.897 27.5206 136.302C27.766 136.708 27.8886 137.156 27.8886 137.646C27.8886 138.137 27.766 138.59 27.5206 139.006C27.2753 139.412 26.9446 139.737 26.5286 139.982C26.1233 140.228 25.6753 140.35 25.1846 140.35Z" fill="#212529"/>
<rect x="10.5" y="121.5" width="29" height="29" rx="14.5" stroke="#E8E8E8"/>
<defs>
<clipPath id="clip0_6_149">
<rect width="77" height="71" fill="white" transform="translate(31.5 34.5)"/>
</clipPath>
<clipPath id="clip1_6_149">
<rect width="77" height="71" fill="white" transform="translate(31.5 34.5)"/>
</clipPath>
</defs>
</svg>
