<svg width="91" height="90" viewBox="0 0 91 90" fill="none" xmlns="http://www.w3.org/2000/svg">
<g clip-path="url(#clip0_2790_4098)">
<path d="M70.0049 5.625H26.0146C23.7941 5.625 21.9941 7.42503 21.9941 9.64548V55.042C21.9941 57.2625 23.7941 59.0625 26.0146 59.0625H70.0049C72.2254 59.0625 74.0254 57.2625 74.0254 55.042V9.64548C74.0254 7.42503 72.2254 5.625 70.0049 5.625Z" stroke="#6BB64A" stroke-width="1.8" stroke-linecap="round" stroke-linejoin="round"/>
<path d="M59.0812 30.9375H36.5812C35.034 30.9361 33.5162 31.3601 32.1937 32.1631C30.8713 32.9662 29.7951 34.1175 29.0829 35.491C28.3706 36.8645 28.0498 38.4074 28.1554 39.951C28.2611 41.4946 28.789 42.9794 29.6818 44.2432C30.5745 45.5069 31.7974 46.5008 33.217 47.1163C34.6364 47.7317 36.1979 47.945 37.7305 47.7328C39.2631 47.5205 40.7077 46.8911 41.9066 45.9131C43.1055 44.935 44.0125 43.6462 44.5282 42.1875H51.1341C51.6502 43.6451 52.5571 44.9326 53.7557 45.9095C54.9542 46.8863 56.3983 47.515 57.9299 47.7266C59.4616 47.9383 61.0219 47.7248 62.4405 47.1096C63.859 46.4944 65.0811 45.501 65.9733 44.2382C66.8653 42.9752 67.3932 41.4914 67.4989 39.9488C67.6047 38.4062 67.2844 36.8642 66.573 35.4913C65.8617 34.1186 64.7866 32.9676 63.4653 32.1645C62.144 31.3614 60.6274 30.9369 59.0812 30.9375Z" stroke="#6BB64A" stroke-width="1.8" stroke-linecap="round" stroke-linejoin="round"/>
<path d="M36.0566 36.5625V42.1875" stroke="#6BB64A" stroke-width="1.8" stroke-linecap="round" stroke-linejoin="round"/>
<path d="M33.2441 39.375H38.8691" stroke="#6BB64A" stroke-width="1.8" stroke-linecap="round" stroke-linejoin="round"/>
<path d="M61.3691 39.375C62.1458 39.375 62.7754 38.7454 62.7754 37.9688C62.7754 37.1921 62.1458 36.5625 61.3691 36.5625C60.5925 36.5625 59.9629 37.1921 59.9629 37.9688C59.9629 38.7454 60.5925 39.375 61.3691 39.375Z" fill="#6BB64A"/>
<path d="M62.7754 64.6875H31.8379C26.4014 64.6875 21.9941 69.0947 21.9941 74.5312C21.9941 79.9678 26.4014 84.375 31.8379 84.375H62.7754C68.2119 84.375 72.6191 79.9678 72.6191 74.5312C72.6191 69.0947 68.2119 64.6875 62.7754 64.6875Z" stroke="#6BB64A" stroke-width="1.8" stroke-linecap="round" stroke-linejoin="round"/>
<path d="M57.1504 42.1875C57.927 42.1875 58.5566 41.5579 58.5566 40.7812C58.5566 40.0046 57.927 39.375 57.1504 39.375C56.3738 39.375 55.7441 40.0046 55.7441 40.7812C55.7441 41.5579 56.3738 42.1875 57.1504 42.1875Z" fill="#6BB64A"/>
<path d="M38.8691 14.0625V14.7656C38.8691 16.071 39.3877 17.3229 40.3108 18.2459C41.2337 19.1689 42.4856 19.6875 43.791 19.6875C45.0964 19.6875 46.3482 20.2061 47.2713 21.1291C48.1943 22.0521 48.7129 23.304 48.7129 24.6094V30.9375" stroke="#6BB64A" stroke-width="1.8" stroke-linecap="round" stroke-linejoin="round"/>
<path d="M35.4893 74.6133H40.0975C40.3672 74.6133 40.6258 74.7204 40.8164 74.911C41.0072 75.1017 41.1143 75.3603 41.1143 75.6299V77.8153C41.1143 78.0849 41.0072 78.3435 40.8164 78.5342C40.6258 78.7248 40.3672 78.832 40.0975 78.832H35.4893V74.6133Z" stroke="#6BB64A" stroke-width="1.8" stroke-linecap="round" stroke-linejoin="round"/>
<path d="M35.4893 70.3945H40.0975C40.3672 70.3945 40.6258 70.5016 40.8164 70.6922C41.0072 70.883 41.1143 71.1415 41.1143 71.4112V73.5965C41.1143 73.8662 41.0072 74.1248 40.8164 74.3155C40.6258 74.5061 40.3672 74.6133 40.0975 74.6133H35.4893V70.3945Z" stroke="#6BB64A" stroke-width="1.8" stroke-linecap="round" stroke-linejoin="round"/>
<path d="M45.333 70.3945V77.1294C45.3331 77.5809 45.5125 78.014 45.8317 78.3332C46.151 78.6526 46.584 78.8319 47.0355 78.832H49.2553C49.7069 78.832 50.14 78.6527 50.4592 78.3333C50.7785 78.014 50.958 77.581 50.958 77.1294V70.3945" stroke="#6BB64A" stroke-width="1.8" stroke-linecap="round" stroke-linejoin="round"/>
<path d="M55.1768 70.3945L57.9893 74.6133L60.8018 70.3945" stroke="#6BB64A" stroke-width="1.8" stroke-linecap="round" stroke-linejoin="round"/>
<path d="M57.9893 78.832V74.6133" stroke="#6BB64A" stroke-width="1.8" stroke-linecap="round" stroke-linejoin="round"/>
<path d="M16.3691 73.125H9.33789V32.3438H14.9629" stroke="#6BB64A" stroke-width="1.8" stroke-linecap="round" stroke-linejoin="round"/>
<path d="M13.5566 28.125L17.7754 32.3437L13.5566 36.5625" stroke="#6BB64A" stroke-width="1.8" stroke-linecap="round" stroke-linejoin="round"/>
</g>
<defs>
<clipPath id="clip0_2790_4098">
<rect width="90" height="90" fill="white" transform="translate(0.900391)"/>
</clipPath>
</defs>
</svg>
