<svg width="22" height="21" viewBox="0 0 22 21" fill="none" xmlns="http://www.w3.org/2000/svg">
<g clip-path="url(#clip0_2812_432)">
<mask id="mask0_2812_432" style="mask-type:luminance" maskUnits="userSpaceOnUse" x="0" y="0" width="22" height="20">
<path d="M21.8156 0.578125H0.917969V19.5845H21.8156V0.578125Z" fill="white"/>
</mask>
<g mask="url(#mask0_2812_432)">
<path d="M16.014 10.9861L14.6206 12.2535L4.99551 3.49929L5.73524 2.82651L2.66798 0.578125L0.917969 2.16976L3.39006 4.95941L4.12984 4.28662L13.755 13.0407L12.3616 14.3081L14.3489 16.1155L18.0013 12.7936L16.014 10.9861Z" fill="#6BB64A"/>
<path d="M18.8673 13.5781L15.2148 16.9001L17.4062 18.8932C17.894 19.3368 18.5426 19.5812 19.2325 19.5812C19.9224 19.5812 20.5709 19.3368 21.0587 18.8932C22.0658 17.9773 22.0658 16.4871 21.0587 15.5713L18.8673 13.5781Z" fill="#6BB64A"/>
<path d="M11.4945 12.5635L8.64156 9.96875L6.55283 11.8682C5.01861 11.4309 3.3444 11.7962 2.18975 12.8467C1.36979 13.5925 0.917969 14.584 0.917969 15.639C0.917969 16.6936 1.36979 17.6854 2.18975 18.4312C3.03624 19.2011 4.14803 19.586 5.25983 19.586C6.37162 19.586 7.48381 19.2011 8.3299 18.4312C9.48495 17.381 9.88657 15.8584 9.40577 14.463L11.4945 12.5635ZM6.25366 16.5424C5.7047 17.0418 4.81494 17.0418 4.2664 16.5424C3.71745 16.0436 3.71745 15.2342 4.2664 14.735C4.81494 14.2361 5.7047 14.2361 6.25366 14.735C6.80221 15.2342 6.80221 16.0436 6.25366 16.5424Z" fill="#6BB64A"/>
<path d="M21.5309 2.95994L21.1897 2.16741L18.9992 4.15969L18.1147 3.94402L17.8775 3.1396L20.0681 1.14769L19.1966 0.836988C17.669 0.292795 15.9328 0.62243 14.7732 1.67704C13.7112 2.64292 13.3178 4.04943 13.7194 5.34681L11.2388 7.60318L14.0917 10.1979L16.5722 7.94158C16.9404 8.03586 17.316 8.08189 17.6895 8.08189C18.7641 8.08152 19.8192 7.69992 20.6072 6.98311C21.7668 5.92853 22.1293 4.34942 21.5309 2.95994Z" fill="#6BB64A"/>
</g>
</g>
<defs>
<clipPath id="clip0_2812_432">
<rect width="20.8976" height="19.7366" fill="white" transform="translate(0.917969 0.578125)"/>
</clipPath>
</defs>
</svg>
