<svg width="57" height="56" viewBox="0 0 57 56" fill="none" xmlns="http://www.w3.org/2000/svg">
<circle cx="28.0625" cy="28" r="28" fill="#6BB64A"/>
<path d="M36.15 18.3662H31.3V15.1328L26.4501 19.9827L31.3 24.8327V21.5993H36.15C36.5788 21.5993 36.9898 21.7698 37.2932 22.0729C37.5963 22.376 37.7665 22.7873 37.7665 23.2161V32.9161C37.7665 33.3449 37.5963 33.7563 37.2932 34.0593C36.9898 34.3624 36.5788 34.533 36.15 34.533H32.9166V37.7664H36.15V37.7661C37.4364 37.7661 38.6698 37.2553 39.5793 36.3457C40.4891 35.436 41 34.2026 41 32.9161V23.2161C41 21.9297 40.4891 20.6963 39.5793 19.7864C38.6698 18.8769 37.4364 18.3661 36.15 18.3661V18.3662Z" fill="white"/>
<path d="M19.9833 37.7671H24.8332V41.0005L29.6832 36.1505L24.8332 31.3006V34.534H19.9833C19.5545 34.534 19.1434 34.3635 18.8401 34.0604C18.537 33.7573 18.3667 33.346 18.3667 32.9172V23.2172C18.3667 22.7884 18.537 22.377 18.8401 22.0739C19.1434 21.7709 19.5545 21.6003 19.9833 21.6003H23.2167V18.3672H19.9833C18.6969 18.3672 17.4635 18.878 16.5539 19.7875C15.6442 20.6973 15.1333 21.9307 15.1333 23.2172V32.9172C15.1333 34.2036 15.6441 35.437 16.5539 36.3469C17.4635 37.2564 18.6968 37.7672 19.9833 37.7672V37.7671Z" fill="white"/>
</svg>
