<svg width="57" height="56" viewBox="0 0 57 56" fill="none" xmlns="http://www.w3.org/2000/svg">
<circle cx="28.0625" cy="28" r="28" fill="#6BB64A"/>
<path d="M13.9766 33.0926C14.7025 33.3345 14.9447 32.2052 15.2674 32.3261C14.6625 32.0034 13.9766 31.7212 13.2104 31.5195C13.2507 32.1649 13.2104 32.8506 13.9766 33.0926Z" fill="white"/>
<path d="M15.4286 34.1393C15.3077 34.7441 16.3967 35.5913 16.8807 35.1073C17.1631 34.8654 17.0824 33.6553 17.4453 33.7361C16.7999 33.2521 16.1143 32.768 15.3076 32.3242C15.7111 32.5259 15.5093 33.6955 15.4286 34.1392L15.4286 34.1393Z" fill="white"/>
<path d="M17.2034 35.833C17.2034 36.3575 17.6873 37.1239 18.4942 36.9624C18.9379 36.8816 19.2606 35.4701 19.7043 35.6314C19.0589 35.0667 18.3733 34.4618 17.6069 33.8164C17.7278 34.1793 17.2034 35.3894 17.2034 35.8331L17.2034 35.833Z" fill="white"/>
<path d="M19.825 35.7539C20.1074 36.1976 19.704 37.4882 19.9057 38.0126C20.0669 38.416 21.1158 38.7385 22.0836 38.0126C22.4465 37.7706 22.85 37.6091 23.213 37.4077C22.8095 37.2867 22.3256 37.1252 21.7609 36.964C21.1155 36.7218 20.4701 36.2781 19.825 35.7539Z" fill="white"/>
<path d="M41.6458 19.6974C41.6458 19.6974 37.2897 20.5446 35.8376 20.5848C34.3049 20.625 31.764 20.1411 29.5456 19.8589C28.2548 19.6977 27.045 19.5764 26.1576 19.6977C24.1409 19.9397 18.6555 22.763 18.6555 22.763C18.6152 23.7714 19.3009 25.1024 22.1242 24.9409C23.4552 24.8602 26.2786 22.8435 27.3677 23.5696C27.4079 23.6099 32.9741 27.9257 37.1689 30.8701C37.6933 30.6282 38.2175 30.3862 38.7821 30.1037C39.7097 29.6198 42.4928 30.0229 42.8963 29.6198C43.6627 28.8129 42.2914 22.1176 41.646 19.6976L41.6458 19.6974Z" fill="white"/>
<path d="M37.0477 31.3159C36.9267 31.195 27.0449 24.0961 27.0045 24.0558C26.2786 23.4509 23.697 25.2659 21.5998 25.2659C19.0587 25.2659 18.0908 23.6121 18.1311 22.6038C18.1311 22.6038 23.6165 19.7804 25.6332 19.5384C26.5206 19.4175 27.7307 19.3772 29.0212 19.5384C29.0212 19.4175 29.0212 19.3367 28.9405 19.2157C28.4566 18.4493 26.0364 18.0864 25.391 18.0056C23.697 17.8444 19.0182 21.1919 16.6788 21.3936C15.953 21.4744 13.815 20.1028 13.8555 20.829C14.4202 29.1378 12 30.9125 12 30.9125C12.4839 30.9932 12.9276 31.0737 13.331 31.195C14.0974 31.3967 14.7831 31.6789 15.388 32.0016C16.1946 32.405 17.6466 33.4536 17.6872 33.4939C18.4536 34.0988 19.9056 35.3896 19.9458 35.4298C21.2367 36.5189 22.5674 36.8417 23.3338 37.0836C25.2698 37.729 25.1488 37.6885 26.1571 37.6885C26.4798 37.6885 27.7704 37.6885 27.4882 36.4784C27.3672 35.9945 28.6175 37.2448 29.2224 37.285C29.787 37.3253 30.9164 36.8011 30.5132 35.3491C30.352 34.8246 32.3282 36.3172 32.5299 36.3172C33.861 36.3574 34.4659 34.5829 33.6593 33.897C33.4173 33.6952 32.8527 33.0096 32.8527 33.0096C32.8527 33.1306 35.0306 33.776 35.8375 33.897C36.6039 34.0182 37.9349 32.042 37.0476 31.3159L37.0477 31.3159Z" fill="white"/>
</svg>
