<svg width="57" height="56" viewBox="0 0 57 56" fill="none" xmlns="http://www.w3.org/2000/svg">
<circle cx="28.0625" cy="28" r="28" fill="#6BB64A"/>
<path d="M37.5325 23.6049C38.8062 23.6049 40.0277 23.099 40.9283 22.1983C41.829 21.2976 42.335 20.0762 42.335 18.8025C42.335 17.5287 41.829 16.3073 40.9283 15.4067C40.0277 14.506 38.8062 14 37.5325 14C36.2588 14 35.0374 14.506 34.1367 15.4067C33.236 16.3073 32.73 17.5287 32.73 18.8025C32.73 20.0762 33.236 21.2976 34.1367 22.1983C35.0374 23.099 36.2588 23.6049 37.5325 23.6049ZM35.6115 18.3222L36.572 19.2827L39.4535 16.4012L40.414 17.3617L36.572 21.2037L34.651 19.2827L35.6115 18.3222Z" fill="white"/>
<path d="M20.2436 28.8858H25.0461C25.4282 28.8858 25.7948 28.734 26.0649 28.4638C26.335 28.1937 26.4868 27.8271 26.4868 27.4451V25.0438C26.4849 24.3434 26.2913 23.6569 25.9275 23.0585C25.5634 22.4599 25.0429 21.9724 24.4218 21.6484C23.8898 21.9838 23.2737 22.1617 22.6448 22.1617C22.016 22.1617 21.3998 21.9838 20.8679 21.6484C20.2468 21.9724 19.7262 22.4599 19.3622 23.0585C18.9984 23.6569 18.8048 24.3434 18.8029 25.0438V27.4451C18.8029 27.8271 18.9546 28.1937 19.2248 28.4638C19.4949 28.7339 19.8616 28.8858 20.2436 28.8858H20.2436Z" fill="white"/>
<path d="M22.6449 31.7693C24.9376 31.7693 27.1362 30.8585 28.7574 29.2375C30.3785 27.6162 31.2893 25.4175 31.2893 23.1249C31.2893 20.8322 30.3785 18.6335 28.7574 17.0123C27.1362 15.3912 24.9375 14.4805 22.6449 14.4805C20.3522 14.4805 18.1535 15.3912 16.5323 17.0123C14.9112 18.6335 14.0005 20.8322 14.0005 23.1249C14.003 25.4168 14.9146 27.6139 16.5353 29.2347C18.1559 30.8555 20.3531 31.767 22.6451 31.7695L22.6449 31.7693ZM17.8424 25.0458C17.8435 23.3947 18.6914 21.8599 20.0884 20.98C19.5292 20.3252 19.2426 19.4808 19.2878 18.6208C19.3329 17.7609 19.7061 16.9511 20.3309 16.3583C20.9554 15.7657 21.7839 15.4351 22.6449 15.4351C23.5058 15.4351 24.3343 15.7657 24.9588 16.3583C25.5836 16.9511 25.9569 17.7609 26.0019 18.6208C26.0471 19.4808 25.7605 20.3253 25.2013 20.98C26.5983 21.8599 27.4462 23.3947 27.4473 25.0458V27.447C27.4465 28.0836 27.1933 28.694 26.7433 29.1442C26.293 29.5942 25.6827 29.8474 25.0461 29.8483H20.2436C19.6071 29.8474 18.9967 29.5942 18.5465 29.1442C18.0964 28.694 17.8433 28.0836 17.8424 27.447V25.0458Z" fill="white"/>
<path d="M25.0461 18.8036C25.0461 20.1298 23.9711 21.2048 22.6449 21.2048C21.3186 21.2048 20.2437 20.1298 20.2437 18.8036C20.2437 17.4773 21.3186 16.4023 22.6449 16.4023C23.9711 16.4023 25.0461 17.4773 25.0461 18.8036Z" fill="white"/>
<path d="M38.9733 41.8561V42.3363H41.8548V34.6523H38.9733V41.8561Z" fill="white"/>
<path d="M29.5731 33.8939L25.7038 34.861C25.4273 34.9303 25.2024 35.1305 25.1018 35.3972C25.0015 35.6639 25.0381 35.9628 25.2002 36.1973C25.3623 36.4317 25.6292 36.5717 25.9142 36.5717H30.8088V37.5322H25.9142C25.4603 37.5311 25.0232 37.3596 24.6896 37.0519H21.6841C21.629 37.0519 21.5746 37.0423 21.5227 37.0236L15.5484 34.8908C15.2198 34.7748 14.8555 34.8197 14.5648 35.0118L14.4912 35.0598H14.4914C14.2672 35.2094 14.1055 35.436 14.0367 35.6966C13.9679 35.9573 13.9968 36.2338 14.1178 36.4748C14.2389 36.7156 14.4439 36.9038 14.6941 37.004L27.355 42.0682C28.1447 42.3832 29.0183 42.4192 29.8311 42.1701L35.1311 40.5392V34.533L33.1006 33.9529C31.9501 33.6255 30.7341 33.6052 29.5731 33.8939L29.5731 33.8939Z" fill="white"/>
<path d="M36.0918 34.6523H38.0128V41.3758H36.0918V34.6523Z" fill="white"/>
<path d="M17.8902 33.2322C17.8109 33.2178 17.7307 33.2107 17.6501 33.2109C17.3664 33.2116 17.0913 33.3087 16.8699 33.486C16.6486 33.6635 16.494 33.9109 16.4316 34.1877L21.7673 36.0924H24.1287C24.1006 35.9651 24.086 35.8349 24.0854 35.7044C24.0854 35.5026 24.119 35.3021 24.1848 35.1113L17.8902 33.2322Z" fill="white"/>
</svg>
