<svg width="57" height="56" viewBox="0 0 57 56" fill="none" xmlns="http://www.w3.org/2000/svg">
<circle cx="28.0625" cy="28" r="28" fill="#6BB64A"/>
<path fill-rule="evenodd" clip-rule="evenodd" d="M24.6303 34.6393C23.8315 33.8861 23.3334 32.8176 23.3334 31.6333V28.5332C23.3334 26.8209 24.7213 25.4332 26.4336 25.4332H30.5672C32.2796 25.4332 33.6674 26.821 33.6674 28.5332V31.6333C33.6674 32.8176 33.1693 33.8859 32.3705 34.6393L32.8685 34.8988C35.264 36.1429 36.7674 38.6178 36.7674 41.3168V41.9594C36.7674 42.9287 35.734 43 35.734 43H21.2667C20.9568 43 20.6788 42.8637 20.4886 42.6465C20.3614 42.5142 20.2633 42.3315 20.2394 42.0812L20.2332 41.9666V41.3177C20.2332 38.6176 21.7368 36.1426 24.1321 34.899L24.6302 34.6396L24.6303 34.6393ZM29.5337 35.7666V37.8333C29.5337 38.4037 29.0707 38.8667 28.5002 38.8667C27.9298 38.8667 27.4667 38.4037 27.4667 37.8333V35.7666H26.9439L25.0847 36.7328C23.4881 37.5616 22.4465 39.157 22.3142 40.9334H34.686C34.5538 39.157 33.5122 37.5616 31.9156 36.7328L30.0564 35.7666H29.5335H29.5337ZM31.6005 28.5334V31.6335C31.6005 32.7753 30.6756 33.7001 29.5337 33.7001H27.4669C26.325 33.7001 25.4001 32.7753 25.4001 31.6335V28.5334C25.4001 27.9629 25.8632 27.5 26.4336 27.5H30.5672C31.1377 27.5 31.6006 27.963 31.6006 28.5334H31.6005ZM16.8249 18.0254L16.0168 19.718L14.2777 19.9794C13.7166 20.0632 13.2308 20.4735 13.0603 21.0633C12.9032 21.6121 13.0603 22.2083 13.4478 22.5977L14.7085 23.8678L14.4037 25.7041C14.3117 26.262 14.5297 26.8242 14.9452 27.1641C15.4164 27.5515 16.0477 27.6085 16.5757 27.3223L18.1661 26.4573L19.7565 27.3223C20.2845 27.6085 20.916 27.5517 21.3871 27.1641C21.8025 26.8242 22.0206 26.262 21.9285 25.7041L21.6237 23.8678L22.8845 22.5977C23.2719 22.2083 23.429 21.6119 23.2719 21.0633C23.1014 20.4732 22.6156 20.063 22.0545 19.9794L20.3154 19.718L19.5074 18.0254C19.249 17.4849 18.7242 17.1667 18.1659 17.1667C17.608 17.1667 17.083 17.4849 16.8245 18.0254H16.8249ZM37.4926 18.0254L36.6846 19.718L34.9455 19.9794C34.3843 20.0632 33.8985 20.4735 33.7281 21.0633C33.571 21.6121 33.7281 22.2083 34.1155 22.5977L35.3763 23.8678L35.0715 25.7041C34.9794 26.262 35.1975 26.8242 35.6129 27.1641C36.0842 27.5515 36.7155 27.6085 37.2435 27.3223L38.8339 26.4573L40.4243 27.3223C40.9523 27.6085 41.5838 27.5517 42.0548 27.1641C42.4703 26.8242 42.6883 26.262 42.5963 25.7041L42.2915 23.8678L43.5522 22.5977C43.9397 22.2083 44.0968 21.6119 43.9397 21.0633C43.7692 20.4732 43.2834 20.063 42.7223 19.9794L40.9832 19.718L40.1751 18.0254C39.9168 17.4849 39.3919 17.1667 38.8337 17.1667C38.2757 17.1667 37.7508 17.4849 37.4923 18.0254H37.4926ZM18.1663 20.0125L18.6872 21.1035C18.8349 21.4135 19.1274 21.6295 19.4664 21.68L20.7003 21.865L19.7848 22.7879C19.5513 23.0234 19.4449 23.3572 19.4986 23.6848L19.7073 24.9423L18.6595 24.3741C18.3527 24.2068 17.9806 24.2068 17.6736 24.3741L16.6259 24.9423L16.8346 23.6848C16.8882 23.3572 16.7818 23.0234 16.5483 22.7879L15.6328 21.865L16.8667 21.68C17.2057 21.6293 17.4982 21.4135 17.6459 21.1035L18.1668 20.0125H18.1663ZM38.8341 20.0125L39.355 21.1035C39.5027 21.4135 39.7952 21.6295 40.1342 21.68L41.3681 21.865L40.4526 22.7879C40.2191 23.0234 40.1127 23.3572 40.1663 23.6848L40.3751 24.9423L39.3273 24.3741C39.0205 24.2068 38.6484 24.2068 38.3414 24.3741L37.2936 24.9423L37.5023 23.6848C37.556 23.3572 37.4496 23.0234 37.2161 22.7879L36.3006 21.865L37.5345 21.68C37.8735 21.6293 38.166 21.4135 38.3137 21.1035L38.8346 20.0125H38.8341ZM27.0566 12.9268L25.9872 15.166L23.6775 15.5133C23.0719 15.6042 22.5502 16.0475 22.3672 16.6841C22.1955 17.2794 22.366 17.9263 22.7857 18.3488L24.4547 20.03L24.0527 22.4562C23.9524 23.0606 24.187 23.6704 24.6375 24.0393C25.1439 24.4547 25.8219 24.5168 26.3892 24.2087L28.5005 23.0618L30.6117 24.2087C31.179 24.5166 31.857 24.4547 32.3634 24.0393C32.8139 23.6704 33.0485 23.0609 32.9482 22.4562L32.5462 20.03L34.2152 18.3488C34.6349 17.9263 34.8053 17.2794 34.6338 16.6841C34.4507 16.0475 33.929 15.6042 33.3234 15.5133L31.0137 15.166L29.9443 12.9268C29.6663 12.3441 29.102 12 28.5008 12C27.8995 12 27.3352 12.3441 27.0572 12.9268H27.0566ZM28.5002 14.7001L29.3848 16.5518C29.5326 16.8608 29.8239 17.0767 30.164 17.1283L32.2103 17.4351L30.7066 18.95C30.472 19.1855 30.3656 19.5194 30.4204 19.8469L30.7676 21.9415L28.9934 20.9774C28.6865 20.81 28.3145 20.81 28.0075 20.9774L26.2332 21.9415L26.5804 19.8469C26.6352 19.5194 26.5288 19.1856 26.2942 18.95L24.7905 17.4351L26.8368 17.1283C27.1767 17.0767 27.4683 16.8606 27.616 16.5518L28.5007 14.7001H28.5002Z" fill="white"/>
</svg>
