<svg width="57" height="56" viewBox="0 0 57 56" fill="none" xmlns="http://www.w3.org/2000/svg">
<circle cx="28.0625" cy="28" r="28" fill="#6BB64A"/>
<path d="M19.3398 25.0508V29.2978H23.5869V25.0508H19.3398ZM23.1332 26.4938L21.154 28.473C21.0716 28.5554 20.9891 28.5968 20.8655 28.5968C20.7417 28.5968 20.6593 28.5556 20.5769 28.473L19.8347 27.7308C19.6698 27.5658 19.6698 27.3185 19.8347 27.1535C19.9997 26.9886 20.247 26.9886 20.412 27.1535L20.8655 27.6072L22.5561 25.9166C22.7211 25.7516 22.9684 25.7516 23.1334 25.9166C23.2981 26.0816 23.2981 26.3291 23.1332 26.4938Z" fill="white"/>
<path d="M29.7715 14.2461V20.0601H35.5855L29.7715 14.2461Z" fill="white"/>
<path d="M19.3398 33.2969V37.5439H23.5869V33.2969H19.3398ZM23.1332 34.7401L21.154 36.7193C20.9891 36.8842 20.7417 36.8842 20.5768 36.7193L19.8345 35.9771C19.6696 35.8121 19.6696 35.5648 19.8345 35.3998C19.9995 35.2348 20.2469 35.2348 20.4118 35.3998L20.8653 35.8533L22.5559 34.1627C22.7209 33.9977 22.9682 33.9977 23.1332 34.1627C23.2981 34.3279 23.2981 34.5752 23.1332 34.7401Z" fill="white"/>
<path d="M32.5754 23.071C32.9465 23.401 33.1115 23.8545 33.1115 24.308C33.0703 26.0398 34.7195 27.2767 35.8328 27.9365V20.8857H29.3594C29.1532 20.8857 28.9471 20.6796 28.9471 20.4734V14H16.4123C16.2062 14 16 14.165 16 14.4123V39.9766C16 40.1827 16.2062 40.3889 16.4123 40.3889H35.3792C35.5854 40.3889 35.7915 40.1827 35.7915 39.9766V38.4098H28.7821C27.7513 38.4098 26.8441 37.7087 26.5968 36.7605C26.5144 36.4306 26.5144 36.142 26.5556 35.8121C25.9783 35.2761 25.8134 34.5338 25.9371 33.8742C25.401 33.3381 25.1949 32.6373 25.3186 31.9362C24.7414 31.3589 24.5352 30.5755 24.7414 29.7921C24.9887 28.8026 25.8959 28.1429 26.9267 28.1429H29.6068C29.483 27.8955 29.3595 27.7306 29.2769 27.6068C26.9265 24.5968 30.8847 21.5868 32.5753 23.0711L32.5754 23.071ZM24.4526 37.9559C24.4526 38.2033 24.2465 38.3682 24.0403 38.3682H18.9276C18.7214 38.3682 18.5153 38.2033 18.5153 37.9559L18.5151 32.8845C18.5151 32.6371 18.7212 32.4722 18.9274 32.4722H23.9988C24.7824 32.4722 24.2876 33.4617 24.4525 37.9562L24.4526 37.9559ZM24.4526 29.7505C24.4526 29.9979 24.2465 30.1628 24.0403 30.1628H18.9276C18.7214 30.1628 18.5153 29.9979 18.5153 29.7505L18.5151 24.6378C18.5151 24.4316 18.7212 24.2255 18.9274 24.2255H23.9988C24.205 24.2255 24.4111 24.4316 24.4111 24.6378L24.4113 29.7505H24.4526ZM24.4526 21.5038C24.4526 21.71 24.2465 21.9161 24.0403 21.9161H18.9276C18.7214 21.9161 18.5153 21.71 18.5153 21.5038L18.5151 16.4324C18.5151 16.185 18.7212 16.0201 18.9274 16.0201H23.9988C24.205 16.0201 24.4111 16.185 24.4111 16.4324L24.4113 21.5038H24.4526Z" fill="white"/>
<path d="M19.3398 16.8438V21.0908H23.5869V16.8438H19.3398ZM23.1332 18.2456L21.154 20.2248C21.0716 20.3072 20.9891 20.3486 20.8655 20.3486C20.7417 20.3486 20.6593 20.3074 20.5769 20.2248L19.8347 19.4826C19.6698 19.3176 19.6698 19.0703 19.8347 18.9053C19.9997 18.7404 20.247 18.7404 20.412 18.9053L20.8655 19.359L22.5561 17.6684C22.7211 17.5035 22.9684 17.5035 23.1334 17.6684C23.2981 17.8334 23.2981 18.1219 23.1332 18.2456Z" fill="white"/>
<path d="M36.6574 37.544V37.6264L28.8233 37.6266C27.71 37.6266 27.0503 36.472 27.5864 35.5237C26.803 35.1526 26.5556 34.2454 26.9679 33.5858C26.5968 33.4208 26.3083 33.0909 26.1845 32.6786C26.1021 32.3075 26.1433 31.9364 26.3083 31.6478C25.731 31.4005 25.3599 30.7406 25.5248 30.0398C25.6898 29.4213 26.2671 29.009 26.9267 29.009C28.9059 28.9678 30.8026 29.2975 30.5553 28.3905C30.1842 27.1122 28.9885 26.4938 29.5245 25.0095C30.1018 23.4427 32.3283 23.1539 32.2871 24.3499C32.2047 26.8651 34.8435 28.4319 35.998 29.0092L36.6576 29.133V29.2154L36.6574 37.544Z" fill="white"/>
<path d="M42.2241 29.217V37.5458C42.2241 37.7932 42.0591 37.9581 41.8118 37.9581H37.9359C37.6885 37.9581 37.5236 37.7932 37.5236 37.5458V29.217C37.5236 28.9697 37.6885 28.8047 37.9359 28.8047H41.8118C42.0179 28.8047 42.2241 28.9696 42.2241 29.217Z" fill="white"/>
</svg>
