<svg width="50" height="73" viewBox="0 0 50 73" fill="none" xmlns="http://www.w3.org/2000/svg">
<path d="M43.6109 43.9998H32.389C31.0723 43.9998 30.0009 45.0711 30.0009 46.3879V60.2761C30.0009 61.5928 31.0723 62.6642 32.389 62.6642H43.6109C44.9277 62.6642 45.999 61.5928 45.999 60.2761V46.3873C45.999 45.0711 44.9277 43.9998 43.6109 43.9998Z" fill="#1D4354"/>
<path d="M19.6112 45.9985H12.7222C11.0373 45.9985 9.66699 47.3696 9.66699 49.0543V57.6088C9.66699 59.2936 11.0374 60.6646 12.7222 60.6646H19.6112C21.2961 60.6646 22.6664 59.2935 22.6664 57.6088V49.0543C22.6664 47.3695 21.296 45.9985 19.6112 45.9985Z" fill="#6BB64A"/>
<path d="M39.9256 37.9988V42.6653H43.6106C43.9798 42.6653 44.3292 42.7354 44.6662 42.8355V37.9988L39.9256 37.9988Z" fill="#1D4354"/>
<path d="M43.6094 63.9975H32.3875C31.2986 63.9975 30.3283 63.5215 29.6476 62.7763L6.74061 62.7769V32.665H3.05554C2.68976 32.665 2.34036 32.6068 2 32.522V64.8295C2 64.8295 2 72.6875 8.32082 72.6875H38.3444C38.3444 72.6875 44.6652 72.6875 44.6652 64.8295V63.8265C44.3288 63.9266 43.9789 63.9967 43.6097 63.9967L43.6094 63.9975ZM23.3322 71.0369C22.0228 71.0369 20.9622 69.9277 20.9622 68.5589C20.9622 67.1902 22.0234 66.081 23.3322 66.081C24.6416 66.081 25.7022 67.1902 25.7022 68.5589C25.7022 69.9271 24.641 71.0369 23.3322 71.0369Z" fill="#1D4354"/>
<path d="M3.05525 9.9997H6.74032V8.26H27.0552C27.7964 7.68729 28.714 7.33281 29.7209 7.33281L44.6386 7.33338C44.5097 5.59208 43.6837 0 38.3444 0H8.32082C8.32082 0 2 5.52116e-07 2 7.85804V10.1421C2.33979 10.0578 2.68974 9.99961 3.05554 9.99961L3.05525 9.9997ZM27.2823 2.42607H28.8625C29.3261 2.42607 29.7026 2.81957 29.7026 3.30409C29.7026 3.78918 29.3261 4.1821 28.8625 4.1821H27.2823C26.8187 4.1821 26.4421 3.7886 26.4421 3.30409C26.4421 2.81957 26.8187 2.42607 27.2823 2.42607ZM17.801 2.42607H24.1218C24.5854 2.42607 24.962 2.81957 24.962 3.30409C24.962 3.78918 24.5854 4.1821 24.1218 4.1821H17.801C17.3374 4.1821 16.9609 3.7886 16.9609 3.30409C16.9615 2.81956 17.3374 2.42607 17.801 2.42607Z" fill="#1D4354"/>
<path d="M24.9437 24.666H13.7212C12.0364 24.666 10.666 26.037 10.666 27.7218V41.6094C10.666 43.2943 12.0365 44.6652 13.7212 44.6652H24.9437C26.6286 44.6652 27.9989 43.2942 27.9989 41.6094V27.7218C27.9989 26.0369 26.6285 24.666 24.9437 24.666V24.666Z" fill="#1D4354"/>
<path d="M9.33302 27.7211C9.33302 25.3007 11.3017 23.3322 13.7214 23.3322H19.9992V14.3881C19.9992 12.7032 18.6287 11.3329 16.944 11.3329H3.05519C1.37034 11.3329 0 12.7033 0 14.3881V28.2763C0 29.9611 1.37046 31.3321 3.05519 31.3321H9.33302V27.7211Z" fill="#6BB64A"/>
<path d="M46.2768 8.66699H29.7222C28.0373 8.66699 26.667 10.0374 26.667 11.7222V23.687C28.233 24.3581 29.3339 25.9135 29.3339 27.7227V36.6283C29.4616 36.6464 29.5894 36.6667 29.7223 36.6667H46.2769C47.9618 36.6667 49.3327 35.2957 49.3327 33.611V11.7228C49.3327 10.038 47.9617 8.66766 46.2769 8.66766L46.2768 8.66699Z" fill="#6BB64A"/>
</svg>
