<svg width="78" height="74" viewBox="0 0 78 74" fill="none" xmlns="http://www.w3.org/2000/svg">
<path d="M30.4047 30.7454C27.1255 30.7454 24.4404 28.0603 24.4404 24.7811V0.919434H6.54493C3.26446 0.919434 0.579346 3.60455 0.579346 6.88502V66.536C0.579346 69.8165 3.26446 72.5016 6.54493 72.5016H42.3359C45.615 72.5016 48.3002 69.8165 48.3002 66.536V30.7451L30.4047 30.7454ZM27.4225 66.5364H21.457C19.8087 66.5364 18.4748 65.2032 18.4748 63.5542C18.4748 61.9052 19.8086 60.5721 21.457 60.5721H27.4225C29.0715 60.5721 30.4047 61.9052 30.4047 63.5542C30.4047 65.2032 29.0715 66.5364 27.4225 66.5364Z" fill="#1D4354"/>
<path d="M71.2866 10.7424L62.9554 2.41187L59.7922 5.57872L67.0711 12.8513L59.7954 20.1276L62.9586 23.2895L71.2891 14.959C72.4532 13.7943 72.4532 11.9032 71.2866 10.7422L71.2866 10.7424Z" fill="#6BB64A"/>
<path d="M42.7764 5.57554L39.6132 2.41235L31.2803 10.7429C30.115 11.9081 30.115 13.8012 31.2803 14.9608L39.6132 23.29L42.7764 20.1268L35.4975 12.8505L42.7764 5.57554Z" fill="#6BB64A"/>
<path d="M50.5223 0.921143H55.0286L52.0483 24.7828H47.5395L50.5223 0.921143Z" fill="#1D4354"/>
<path d="M72.6639 66.1234C71.8317 66.2763 71.0737 66.7014 70.5089 67.3318L66.7464 62.1037L64.4037 58.8483L58.3741 50.4729L58.2729 51.2614C58.0552 52.939 58.4191 54.6406 59.3035 56.0825L63.3733 62.7251L65.8681 66.7945L65.8712 66.8011C65.8712 66.8011 68.456 66.5387 69.7284 68.6696C69.3688 69.7392 69.4993 70.913 70.085 71.8776C70.6706 72.8423 71.6518 73.4995 72.7668 73.674C73.8817 73.8485 75.0168 73.5227 75.8694 72.7831C76.7217 72.0436 77.2047 70.966 77.1894 69.8375C77.174 68.7093 76.6619 67.6449 75.7895 66.929C74.9173 66.2131 73.7737 65.918 72.6639 66.123L72.6639 66.1234ZM73.7959 72.266L73.7961 72.2658C73.1661 72.3819 72.5157 72.2426 71.9882 71.879C71.4607 71.5156 71.0994 70.9572 70.9836 70.3273C70.8675 69.6973 71.0068 69.0469 71.3704 68.5194C71.734 67.9919 72.2922 67.6307 72.9223 67.5148C73.5521 67.3987 74.2025 67.538 74.73 67.9016C75.2575 68.2652 75.6187 68.8234 75.7348 69.4533C75.85 70.0833 75.7105 70.7333 75.3471 71.2605C74.9835 71.7877 74.4257 72.1495 73.7961 72.2657L73.7959 72.266Z" fill="#6BB64A"/>
<path d="M62.4487 63.6166L61.8189 62.5886L58.4061 67.3313C57.5521 66.3792 56.2801 65.9151 55.0138 66.0934C53.7475 66.2716 52.6531 67.0689 52.0951 68.2196C51.5371 69.3703 51.5889 70.7233 52.2332 71.8279C52.8775 72.9325 54.0296 73.6439 55.3058 73.7247C56.582 73.8058 57.8147 73.2457 58.5935 72.2315C59.372 71.2169 59.5945 69.8814 59.1865 68.6694C60.4587 66.5385 63.0437 66.801 63.0437 66.801L63.0468 66.7944L63.7218 65.6931L62.4487 63.6166ZM57.9328 70.3288C57.8164 70.9591 57.4547 71.5173 56.927 71.881C56.3993 72.2443 55.7487 72.3834 55.1183 72.2673C54.4883 72.1509 53.9298 71.7892 53.5664 71.2615C53.2028 70.7338 53.0638 70.0832 53.1801 69.4529C53.2962 68.8228 53.6579 68.2643 54.1856 67.9009C54.7135 67.5373 55.364 67.3985 55.9943 67.5146C56.6243 67.6312 57.1823 67.9929 57.5457 68.5206C57.9091 69.0483 58.0483 69.6987 57.9327 70.3288H57.9328Z" fill="#6BB64A"/>
<path d="M62.9205 54.3783L64.5301 53.5442C64.9872 54.6791 66.1808 55.18 67.4337 55.18C68.657 55.18 69.8065 54.7528 69.8065 53.6327C69.8065 52.66 68.7893 52.2619 67.4188 52.1146C65.3113 51.864 63.366 51.3038 63.366 48.9902C63.366 47.1938 64.8656 46.2976 66.479 46.055V44.1565H68.1995V46.0297C69.5195 46.1782 70.7681 46.7174 71.413 48.0322L69.8654 48.828C69.5117 48.2386 68.5391 47.6785 67.4189 47.6785C65.9746 47.6785 65.2818 48.2826 65.2818 49.0491C65.2818 49.9482 66.3431 50.1988 67.581 50.3461C69.7327 50.6114 71.7371 51.1715 71.7371 53.633C71.7371 55.6622 70.1521 56.6684 68.1993 56.877V58.7464H66.4788L66.479 56.8701C65.6111 56.8087 64.7787 56.5023 64.0781 55.9862L67.9456 61.3591C70.3176 61.21 72.5575 60.2146 74.2583 58.5542C75.9592 56.8937 77.0077 54.6782 77.2134 52.3104C77.4193 49.9426 76.7689 47.5793 75.3804 45.6503C73.9916 43.7213 71.9571 42.3545 69.6464 41.798C67.3355 41.2417 64.9018 41.5329 62.7877 42.6186C60.6736 43.7043 59.0188 45.5124 58.1244 47.7148L62.9205 54.3783Z" fill="#6BB64A"/>
</svg>
