<svg width="88" height="75" viewBox="0 0 88 75" fill="none" xmlns="http://www.w3.org/2000/svg">
<path fill-rule="evenodd" clip-rule="evenodd" d="M57.795 5.62305C63.7084 7.00012 68.9926 10.0415 73.1396 14.2323C77.286 18.4229 80.2954 23.764 81.658 29.7405C80.8318 29.6936 80.0069 29.7881 79.2128 30.0247C77.9265 24.6166 75.1779 19.7837 71.4123 15.9786C67.6474 12.1736 62.8656 9.39501 57.5145 8.09498C57.748 7.2919 57.8414 6.45806 57.795 5.62305ZM81.6567 44.2586C80.2942 50.2351 77.2849 55.5756 73.1383 59.7669C68.9919 63.9575 63.7071 66.999 57.7937 68.3761C57.8402 67.5411 57.7466 66.7074 57.5125 65.9049C62.8636 64.6048 67.6455 61.8269 71.4104 58.0212C75.1753 54.2161 77.9246 49.3833 79.2109 43.9752C80.0061 44.2111 80.8312 44.3056 81.6567 44.2586ZM43.4288 68.3764C37.5153 66.9993 32.2312 63.9579 28.0842 59.7672C23.9378 55.5766 20.9283 50.2354 19.5657 44.2589C20.3919 44.3059 21.2169 44.2114 22.0109 43.9748C23.2973 49.3829 26.0458 54.2157 29.8114 58.0208C33.5763 61.8259 38.3582 64.6044 43.7092 65.9045C43.4758 66.7076 43.3823 67.5414 43.4288 68.3764ZM19.5654 29.7408C20.928 23.7643 23.9373 18.4239 28.0838 14.2326C32.2304 10.0414 37.515 7.00047 43.4285 5.62337C43.382 6.45836 43.4755 7.29211 43.7096 8.0946C38.3586 9.39467 33.5767 12.1726 29.8118 15.9783C26.0469 19.7833 23.2976 24.6162 22.0113 30.0243C21.2167 29.7883 20.3923 29.6939 19.5654 29.7408ZM53.7282 16.0691C56.6626 17.5056 58.6865 20.686 59.9283 23.6499C61.9268 23.2155 63.7533 22.6472 65.3537 21.9717C62.2662 18.8783 58.2319 16.7489 53.7282 16.0691ZM67.0694 23.9166C65.2262 24.7616 63.1043 25.4645 60.7832 25.9909C61.6948 28.8802 62.2603 32.2097 62.3668 35.7656H71.5156C71.2611 31.3045 69.6396 27.2153 67.0694 23.9166ZM71.5156 38.2349H62.3668C62.2565 41.8935 61.662 45.3149 60.7026 48.2605C62.9899 48.7737 65.0857 49.4585 66.914 50.2816C69.5752 46.9503 71.2555 42.7849 71.5156 38.2349ZM65.1625 52.2171C63.5807 51.5655 61.7846 51.0172 59.8238 50.5966C58.5826 53.4728 56.5878 56.5305 53.7277 57.9295C58.1386 57.2648 62.0999 55.2085 65.1625 52.2171ZM47.4937 57.9307C44.6342 56.5304 42.64 53.4728 41.3976 50.5965C39.4424 51.0165 37.6463 51.566 36.0608 52.2189C39.1227 55.2096 43.0834 57.2645 47.4937 57.9307ZM34.308 50.2817C36.1735 49.4273 38.4397 48.7282 40.5207 48.2619C39.5613 45.3149 38.9661 41.8936 38.8559 38.235H29.7071C29.966 42.7851 31.6466 46.9492 34.308 50.2817ZM29.7064 35.7649H38.8552C38.9624 32.2101 39.5266 28.8795 40.4389 25.9902C38.1176 25.4638 35.9958 24.7609 34.1527 23.9159C31.5824 27.2153 29.9609 31.3045 29.7064 35.7649ZM35.8682 21.9724C37.4679 22.6471 39.2936 23.2155 41.2936 23.6506C42.536 20.6855 44.5594 17.5063 47.4937 16.0698C42.9899 16.7489 38.9543 18.8783 35.8682 21.9724ZM51.8326 17.9696C54.4833 18.7232 56.3847 21.6889 57.4685 24.1031C55.6817 24.3754 53.7921 24.5444 51.8326 24.5938V17.9696ZM51.8326 27.0645V35.7651H59.9218C59.8134 32.3436 59.2603 29.1696 58.3747 26.4599C56.3086 26.801 54.113 27.0094 51.8326 27.0645ZM49.3893 17.9696V24.5939C47.4298 24.5445 45.5402 24.3761 43.7533 24.1032C44.8378 21.689 46.7385 18.7232 49.3893 17.9696ZM42.8466 26.4597C41.9603 29.1694 41.4072 32.3443 41.2995 35.7649H49.3887V27.0643C47.1102 27.0093 44.9139 26.8009 42.8466 26.4597ZM41.3001 38.2349C41.411 41.7645 41.9962 45.0326 42.9327 47.7974C44.9765 47.4644 47.1436 47.2609 49.3893 47.2059V38.2343L41.3001 38.2337V38.2349ZM43.8684 50.1478C45.6193 49.8861 47.4699 49.7246 49.3898 49.6758V56.0303C46.8146 55.298 44.951 52.4762 43.8684 50.1478ZM51.8324 56.0304V49.6759C53.7505 49.7247 55.6011 49.8868 57.3531 50.1491C56.2718 52.4763 54.4076 55.2981 51.8324 56.0304ZM58.2901 47.7961C59.2259 45.0313 59.8119 41.7645 59.9227 38.2349H51.8335V47.2064C54.0798 47.2602 56.2469 47.4643 58.2901 47.7961Z" fill="#1D4354"/>
<circle cx="51" cy="6" r="6" fill="#6BB64A"/>
<circle cx="82" cy="37" r="6" fill="#6BB64A"/>
<circle cx="51" cy="69" r="6" fill="#6BB64A"/>
<circle cx="20" cy="37" r="6" fill="#6BB64A"/>
<line x1="1.5" y1="1.5" x2="40.5" y2="1.5" stroke="#6BB64A" stroke-width="3" stroke-linecap="round"/>
<line x1="1.5" y1="19.5" x2="18.5" y2="19.5" stroke="#6BB64A" stroke-width="3" stroke-linecap="round"/>
<line x1="1.5" y1="54.5" x2="18.5" y2="54.5" stroke="#6BB64A" stroke-width="3" stroke-linecap="round"/>
<line x1="1.5" y1="72.5" x2="40.5" y2="72.5" stroke="#6BB64A" stroke-width="3" stroke-linecap="round"/>
</svg>
