<svg width="62" height="40" viewBox="0 0 62 40" fill="none" xmlns="http://www.w3.org/2000/svg">
<path d="M40.2763 24.8679C38.9483 25.2787 37.5908 25.5872 36.2158 25.7905C33.2605 26.0325 30.2896 26.1101 27.3231 26.1753C21.6895 26.2988 16.0538 26.3669 9.94326 26.4654C13.1425 23.5994 17.6542 22.7055 19.3502 18.1473C18.4856 18.1388 17.9072 17.9491 17.6361 18.1561C13.5162 21.3524 8.84144 23.4648 4.0101 25.291C0.08073 26.7759 -0.151611 28.6264 3.12934 30.9743C6.57434 33.4389 9.73881 36.2933 13.0638 38.9288C13.7092 39.3243 14.3966 39.6469 15.1132 39.8909C15.3719 36.9612 15.3719 36.9612 8.50657 30.4635C9.4866 30.4274 10.2115 30.3781 10.9379 30.3768C18.2574 30.3785 25.5777 30.4663 32.8955 30.3488C35.2699 30.3071 37.6305 29.9743 39.9244 29.3578C43.9898 28.2613 45.5331 25.3735 44.1467 21.3808C43.3726 19.3532 42.328 17.4398 41.0412 15.6925C39.6347 13.6698 37.8768 11.8969 36.3719 9.93857C35.305 8.55002 34.4045 7.03368 33.395 5.52221C34.9803 4.24056 36.601 4.27266 38.137 4.17534C44.6658 3.78913 51.2159 4.30245 57.6033 5.70087C58.3571 5.93328 59.1371 6.07059 59.9251 6.10964C60.1928 6.06337 60.4477 5.96089 60.673 5.80898C60.8983 5.65707 61.0889 5.45917 61.2322 5.22832C61.369 5.00009 61.0319 4.23344 60.7079 4.03231C59.8034 3.4313 58.8212 2.9561 57.7885 2.61973C50.8452 0.575381 43.5868 -0.188352 36.3678 0.365857C34.8884 0.480093 33.4313 0.795802 32.0369 1.30424C29.5591 2.22633 28.5963 4.05664 29.5637 6.50436C30.4138 8.49889 31.5092 10.3795 32.8245 12.1027C34.6815 14.6575 36.8189 17.0063 38.7168 19.5347C39.7715 20.9419 40.7381 22.4857 40.2763 24.8679Z" fill="#6BB64A"/>
</svg>
