<svg width="71" height="78" viewBox="0 0 71 78" fill="none" xmlns="http://www.w3.org/2000/svg">
<path d="M40.158 21.4123C42.5393 21.909 44.7567 22.8198 46.728 24.1446L49.1093 21.7438C49.6844 21.1639 50.6697 21.1639 51.2443 21.7438L54.1189 24.642C54.694 25.2219 54.694 26.2153 54.1189 26.7946L51.7376 29.1955C53.0517 31.1828 54.0371 33.418 54.4477 35.8195L57.9792 35.8189C58.8007 35.8189 59.4572 36.4814 59.4572 37.309V41.4489C59.4572 42.2771 58.8001 42.939 57.9792 42.939H54.5301C54.0374 45.3398 53.1341 47.5755 51.82 49.563L54.2013 51.9639C54.7764 52.5437 54.7764 53.5372 54.2013 54.1165L51.3267 57.0147C50.7516 57.5946 49.7662 57.5946 49.1917 57.0147L46.8104 54.6138C44.8393 55.9388 42.6223 56.9322 40.2404 57.3462V60.9901C40.2404 61.8183 39.5834 62.4801 38.7625 62.4801H34.6564C33.8349 62.4801 33.1785 61.8177 33.1785 60.9901V57.5125C30.7972 57.0158 28.5797 56.105 26.6085 54.7802L24.2272 57.181C23.6521 57.7609 22.6667 57.7609 22.0922 57.181L19.2176 54.2828C18.6424 53.7029 18.6424 52.7095 19.2176 52.1302L21.5989 49.7293C20.2848 47.742 19.2994 45.5068 18.8888 43.1053H15.2747C14.4532 43.1053 13.7968 42.4428 13.7968 41.6152V37.4753C13.7968 36.6471 14.4538 35.9852 15.2747 35.9852H18.7238C19.2165 33.5844 20.1198 31.3487 21.4339 29.3612L19.0526 26.9604C18.4775 26.3805 18.4775 25.3871 19.0526 24.8078L21.9272 21.9095C22.5023 21.3297 23.4877 21.3297 24.0622 21.9095L26.4435 24.3104C28.4146 22.9855 30.6316 21.992 33.0135 21.578V17.9342C33.0135 17.1059 33.6705 16.4441 34.4914 16.4441H38.5975C39.419 16.4441 40.0755 17.1066 40.0755 17.9342L40.076 21.4121L40.158 21.4123ZM39.7479 40.1247V31.514C39.7479 31.0999 39.4196 30.8515 39.0908 30.8515H34.2457C33.835 30.8515 33.5886 31.1825 33.5886 31.514V40.1247H30.304C29.9758 40.1247 29.7289 40.5388 29.9758 40.7872L36.217 48.4871C36.4633 48.7355 36.7921 48.7355 37.0384 48.4871L43.2796 40.7872C43.5259 40.5388 43.2796 40.1247 42.9514 40.1247H39.7479Z" fill="#6BB64A"/>
<path d="M5.33335 38.8981H0C0 19.3784 15.9192 3.50867 35.4998 3.50867V0.414085C35.4998 0.0969323 35.8979 -0.141623 36.1366 0.0969323L44.4943 5.81002C44.7331 5.96887 44.7331 6.28603 44.4943 6.52403L36.1366 12.2371C35.8979 12.396 35.4998 12.2371 35.4998 11.92V8.82537C18.8642 8.82537 5.33293 22.3145 5.33293 38.8984L5.33335 38.8981ZM35.5002 68.9711V65.8765C35.5002 65.5594 35.1021 65.3208 34.8634 65.5594L26.5057 71.2725C26.2669 71.4313 26.2669 71.7485 26.5057 71.9865L34.8634 77.6996C35.1021 77.8584 35.5002 77.6996 35.5002 77.3824V74.2878C55.0808 74.2878 71 58.4181 71 38.8984H65.7465C65.6666 55.4823 52.1353 68.9715 35.5001 68.9715L35.5002 68.9711Z" fill="black"/>
</svg>
