<svg width="52" height="85" viewBox="0 0 52 85" fill="none" xmlns="http://www.w3.org/2000/svg">
<path d="M0.000915527 72.3171H51.1523V12.3462H0.000915527V72.3171ZM41.4506 61.7341H9.70095C9.20708 61.7341 8.81903 61.3461 8.81903 60.8522C8.81903 60.3583 9.20706 59.9703 9.70095 59.9703H41.4506C41.9445 59.9703 42.3326 60.3583 42.3326 60.8522C42.3326 61.3461 41.9445 61.7341 41.4506 61.7341ZM42.3326 53.7969C42.3326 54.2907 41.9445 54.6788 41.4506 54.6788H9.70095C9.20708 54.6788 8.81903 54.2908 8.81903 53.7969C8.81903 53.303 9.20706 52.9149 9.70095 52.9149H41.4506C41.9445 52.9149 42.3326 53.303 42.3326 53.7969ZM9.70237 45.8596H30.8683C31.3622 45.8596 31.7502 46.2476 31.7502 46.7415C31.7502 47.2354 31.3622 47.6235 30.8683 47.6235H9.70237C9.2085 47.6235 8.82045 47.2354 8.82045 46.7415C8.82045 46.2476 9.20848 45.8596 9.70237 45.8596V45.8596ZM8.82045 39.6863C8.82045 39.1924 9.20848 38.8043 9.70237 38.8043H30.8683C31.3622 38.8043 31.7502 39.1924 31.7502 39.6863C31.7502 40.1801 31.3622 40.5682 30.8683 40.5682H9.70237C9.2085 40.5682 8.82045 40.1801 8.82045 39.6863V39.6863ZM26.724 20.9022C26.3712 20.5495 26.3712 20.0027 26.724 19.6499C27.0768 19.2971 27.6235 19.2971 27.9763 19.6499L31.504 23.1776C31.8567 23.5303 31.8567 24.0771 31.504 24.4299L27.9763 27.9575C27.7999 28.1339 27.5706 28.2221 27.359 28.2221C27.1473 28.2221 26.9004 28.1339 26.7416 27.9575C26.3889 27.6048 26.3889 27.058 26.7416 26.7052L29.652 23.7949L26.724 20.9022ZM15.9646 28.7159L21.256 18.133C21.4677 17.692 21.9968 17.5157 22.4378 17.745C22.8787 17.9566 23.0551 18.4858 22.8258 18.9267L17.5344 29.5097C17.3757 29.8272 17.0758 30.0035 16.7407 30.0035C16.5996 30.0035 16.4761 29.9683 16.3526 29.9154C15.9293 29.6684 15.7529 29.1393 15.9646 28.716V28.7159ZM7.32182 23.1952L10.8495 19.6676C11.2022 19.3148 11.749 19.3148 12.1018 19.6676C12.4546 20.0203 12.4546 20.5671 12.1018 20.9199L9.19145 23.8127L12.1018 26.723C12.4546 27.0757 12.4546 27.6225 12.1018 27.9753C11.9254 28.1517 11.6961 28.2399 11.4845 28.2399C11.2728 28.2399 11.0259 28.1517 10.8671 27.9753L7.33946 24.4476C6.96906 24.0949 6.96906 23.5305 7.32183 23.1953L7.32182 23.1952Z" fill="#1D4354"/>
<path d="M43.7612 0H7.39133C3.31683 0 0.000915527 3.31591 0.000915527 7.39041V10.583H51.1523V7.39041C51.1523 3.31591 47.8364 0 43.7619 0H43.7612Z" fill="#6BB64A"/>
<path d="M0.000644702 77.2731C0.000644702 81.3476 3.31656 84.6635 7.39106 84.6635H43.7432C47.8177 84.6635 51.1336 81.3476 51.1336 77.2731V74.0806H0L0.000644702 77.2731Z" fill="#6BB64A"/>
</svg>
