<svg width="73" height="72" viewBox="0 0 73 72" fill="none" xmlns="http://www.w3.org/2000/svg">
<path d="M53.8813 10.4392H18.9012C14.6698 10.4392 11.1436 13.9654 11.1436 18.1969V53.0351C11.1436 57.2666 14.6698 60.7928 18.9012 60.7928H53.7395C57.971 60.7928 61.4972 57.2666 61.4972 53.0351V18.1969C61.6382 13.9654 58.112 10.4392 53.8805 10.4392H53.8813Z" fill="#1D4354"/>
<path d="M20.4512 9.59132H20.8743C21.7206 9.59132 22.4259 8.88608 22.4259 8.03978V1.55154C22.4259 0.705245 21.7206 0 20.8743 0H20.4512C19.6049 0 18.8997 0.705245 18.8997 1.55154V8.18083C19.0407 8.88608 19.746 9.59132 20.4512 9.59132Z" fill="#6BB64A"/>
<path d="M26.7988 9.59132H27.2219C28.0682 9.59132 28.7734 8.88608 28.7734 8.03978V1.55154C28.7734 0.705245 28.0682 0 27.2219 0H26.7988C25.9525 0 25.2472 0.705245 25.2472 1.55154V8.18083C25.2472 8.88608 25.9525 9.59132 26.7988 9.59132Z" fill="#6BB64A"/>
<path d="M33.0055 9.59132H33.4287C34.275 9.59132 34.9802 8.88608 34.9802 8.03978V1.55154C34.9802 0.705245 34.275 0 33.4287 0H33.0055C32.1593 0 31.454 0.705245 31.454 1.55154V8.18083C31.5951 8.88608 32.3003 9.59132 33.0055 9.59132Z" fill="#6BB64A"/>
<path d="M39.3531 9.59132H39.7763C40.6226 9.59132 41.3278 8.88608 41.3278 8.03978V1.55154C41.3278 0.705245 40.6226 0 39.7763 0H39.3531C38.5068 0 37.8016 0.705245 37.8016 1.55154V8.18083C37.8016 8.88608 38.5068 9.59132 39.3531 9.59132Z" fill="#6BB64A"/>
<path d="M45.5603 9.59132H45.9835C46.8298 9.59132 47.535 8.88608 47.535 8.03978V1.55154C47.535 0.705245 46.8298 0 45.9835 0H45.5603C44.714 0 44.0088 0.705245 44.0088 1.55154V8.18083C44.1498 8.88608 44.714 9.59132 45.5603 9.59132Z" fill="#6BB64A"/>
<path d="M51.906 9.59132H52.3292C53.1755 9.59132 53.8807 8.88608 53.8807 8.03978V1.55154C53.8807 0.705245 53.1755 0 52.3292 0H51.906C51.0597 0 50.3545 0.705245 50.3545 1.55154V8.18083C50.3545 8.88608 51.0597 9.59132 51.906 9.59132Z" fill="#6BB64A"/>
<path d="M20.8751 61.781H20.4519C19.6056 61.781 18.9004 62.4862 18.9004 63.3325V69.9618C18.9004 70.8081 19.6056 71.5134 20.4519 71.5134H20.8751C21.7214 71.5134 22.4266 70.8081 22.4266 69.9618V63.3325C22.4266 62.4862 21.7214 61.781 20.8751 61.781Z" fill="#6BB64A"/>
<path d="M27.2219 61.781H26.7988C25.9525 61.781 25.2472 62.4862 25.2472 63.3325V69.9618C25.2472 70.8081 25.9525 71.5134 26.7988 71.5134H27.2219C28.0682 71.5134 28.7734 70.8081 28.7734 69.9618V63.3325C28.6324 62.4862 28.0682 61.781 27.2219 61.781Z" fill="#6BB64A"/>
<path d="M33.4278 61.781H33.0047C32.1584 61.781 31.4531 62.4862 31.4531 63.3325V69.9618C31.4531 70.8081 32.1584 71.5134 33.0047 71.5134H33.4278C34.2741 71.5134 34.9793 70.8081 34.9793 69.9618V63.3325C34.9793 62.4862 34.2741 61.781 33.4278 61.781Z" fill="#6BB64A"/>
<path d="M39.7763 61.781H39.3531C38.5068 61.781 37.8016 62.4862 37.8016 63.3325V69.9618C37.8016 70.8081 38.5068 71.5134 39.3531 71.5134H39.7763C40.6226 71.5134 41.3278 70.8081 41.3278 69.9618V63.3325C41.1867 62.4862 40.4815 61.781 39.7763 61.781Z" fill="#6BB64A"/>
<path d="M45.9815 61.781H45.5584C44.7121 61.781 44.0068 62.4862 44.0068 63.3325V69.9618C44.0068 70.8081 44.7121 71.5134 45.5584 71.5134H45.9815C46.8278 71.5134 47.5331 70.8081 47.5331 69.9618V63.3325C47.5331 62.4862 46.8278 61.781 45.9815 61.781Z" fill="#6BB64A"/>
<path d="M52.3292 61.781H51.906C51.0597 61.781 50.3545 62.4862 50.3545 63.3325V69.9618C50.3545 70.8081 51.0597 71.5134 51.906 71.5134H52.3292C53.1755 71.5134 53.8807 70.8081 53.8807 69.9618V63.3325C53.7397 62.4862 53.0344 61.781 52.3292 61.781Z" fill="#6BB64A"/>
<path d="M8.18083 49.6492H1.55154C0.705244 49.6492 0 50.3544 0 51.2007V51.6239C0 52.4701 0.705244 53.1754 1.55154 53.1754H8.18083C9.02712 53.1754 9.73237 52.4701 9.73237 51.6239V51.2007C9.73237 50.3544 9.02712 49.6492 8.18083 49.6492Z" fill="#6BB64A"/>
<path d="M8.18083 43.4429H1.55154C0.705244 43.4429 0 44.1481 0 44.9944V45.4176C0 46.2638 0.705244 46.9691 1.55154 46.9691H8.18083C9.02712 46.9691 9.73237 46.2638 9.73237 45.4176V44.9944C9.73237 44.0071 9.02712 43.4429 8.18083 43.4429Z" fill="#6BB64A"/>
<path d="M8.18083 37.0964H1.55154C0.705244 37.0964 0 37.8017 0 38.648V39.0711C0 39.9174 0.705244 40.6227 1.55154 40.6227H8.18083C9.02712 40.6227 9.73237 39.9174 9.73237 39.0711V38.648C9.73237 37.8017 9.02712 37.0964 8.18083 37.0964Z" fill="#6BB64A"/>
<path d="M8.18083 30.8906H1.55154C0.705244 30.8906 0 31.5959 0 32.4422V32.8653C0 33.7116 0.705244 34.4168 1.55154 34.4168H8.18083C9.02712 34.4168 9.73237 33.7116 9.73237 32.8653V32.4422C9.73237 31.5959 9.02712 30.8906 8.18083 30.8906Z" fill="#6BB64A"/>
<path d="M8.18083 24.5442H1.55154C0.705244 24.5442 0 25.2494 0 26.0957V26.5189C0 27.3652 0.705244 28.0704 1.55154 28.0704H8.18083C9.02712 28.0704 9.73237 27.3652 9.73237 26.5189V26.0957C9.73237 25.2494 9.02712 24.5442 8.18083 24.5442Z" fill="#6BB64A"/>
<path d="M8.18083 18.3379H1.55154C0.705244 18.3379 0 19.0431 0 19.8894V20.1715C0 21.0178 0.705244 21.7231 1.55154 21.7231H8.18083C9.02712 21.7231 9.73237 21.0178 9.73237 20.1715V19.7484C9.73237 19.0431 9.02712 18.3379 8.18083 18.3379Z" fill="#6BB64A"/>
<path d="M71.2285 49.6492H64.5992C63.7529 49.6492 63.0476 50.3544 63.0476 51.2007V51.6239C63.0476 52.4701 63.7529 53.1754 64.5992 53.1754H71.2285C72.0748 53.1754 72.78 52.4701 72.78 51.6239V51.2007C72.639 50.3544 71.9337 49.6492 71.2285 49.6492Z" fill="#6BB64A"/>
<path d="M71.2285 43.4429H64.5992C63.7529 43.4429 63.0476 44.1481 63.0476 44.9944V45.4176C63.0476 46.2638 63.7529 46.9691 64.5992 46.9691H71.2285C72.0748 46.9691 72.78 46.2638 72.78 45.4176V44.9944C72.639 44.0071 71.9337 43.4429 71.2285 43.4429Z" fill="#6BB64A"/>
<path d="M71.2285 37.0964H64.5992C63.7529 37.0964 63.0476 37.8017 63.0476 38.648V39.0711C63.0476 39.9174 63.7529 40.6227 64.5992 40.6227H71.2285C72.0748 40.6227 72.78 39.9174 72.78 39.0711V38.648C72.639 37.8017 71.9337 37.0964 71.2285 37.0964Z" fill="#6BB64A"/>
<path d="M71.2285 30.8906H64.5992C63.7529 30.8906 63.0476 31.5959 63.0476 32.4422V32.8653C63.0476 33.7116 63.7529 34.4168 64.5992 34.4168H71.2285C72.0748 34.4168 72.78 33.7116 72.78 32.8653V32.4422C72.639 31.5959 71.9337 30.8906 71.2285 30.8906Z" fill="#6BB64A"/>
<path d="M71.2285 24.5442H64.5992C63.7529 24.5442 63.0476 25.2494 63.0476 26.0957V26.5189C63.0476 27.3652 63.7529 28.0704 64.5992 28.0704H71.2285C72.0748 28.0704 72.78 27.3652 72.78 26.5189V26.0957C72.639 25.2494 71.9337 24.5442 71.2285 24.5442Z" fill="#6BB64A"/>
<path d="M71.2285 18.3379H64.5992C63.7529 18.3379 63.0476 19.0431 63.0476 19.8894V20.1715C63.0476 21.0178 63.7529 21.7231 64.5992 21.7231H71.2285C72.0748 21.7231 72.78 21.0178 72.78 20.1715V19.7484C72.639 19.0431 71.9337 18.3379 71.2285 18.3379Z" fill="#6BB64A"/>
</svg>
