<svg width="327" height="361" viewBox="0 0 327 361" fill="none" xmlns="http://www.w3.org/2000/svg">
<path d="M325 0H2C0.89543 0 0 0.89543 0 2V359C0 360.105 0.89543 361 2 361H325C326.105 361 327 360.105 327 359V2C327 0.89543 326.105 0 325 0Z" fill="#6BB64A"/>
<path d="M261.793 162.439C257.366 162.439 253.905 164.894 252.492 168.738L251.468 163.194H240.437V195.708H253.776V176.743C253.776 172.582 255.189 170.505 257.433 170.505C260.125 170.505 261.216 174.16 259.87 179.326L271.988 174.476C272.243 166.977 268.397 162.439 261.793 162.439ZM217.153 167.799C220.105 167.799 222.412 170.948 223.566 174.604L214.716 179.453C214.01 177.059 213.563 174.665 213.563 172.837C213.563 169.626 214.909 167.799 217.153 167.799ZM227.992 181.848C228.439 185.881 226.969 190.353 223.566 190.353C220.682 190.353 218.052 187.203 216.255 183.297L236.52 175.232C235.044 167.86 228.372 162.316 219.268 162.316C209.52 162.316 201.248 168.682 201.248 179.453C201.248 189.725 208.751 196.591 219.912 196.591C231.328 196.591 236.717 189.347 237.808 182.854L227.992 181.848ZM198.364 185.692C197.21 188.841 195.35 190.797 193.298 190.797C191.567 190.797 190.476 189.725 190.476 187.203V169.938H199.325L201.508 163.194H190.476V154.373H186.818C184.958 159.79 180.469 163.572 175.917 163.634C176.686 166.028 176.941 167.983 176.941 171.067V185.81C176.941 192.742 181.944 196.586 190.154 196.586C195.99 196.586 200.546 194.631 202.531 191.736L198.364 185.692ZM173.989 184.936C173.989 178.759 170.077 176.115 164.563 174.665L155.839 172.398C154.364 172.02 153.657 171.137 153.657 170.193C153.657 168.554 155.387 167.61 158.594 167.61C162.891 167.61 166.611 169.626 168.149 173.532L173.278 167.421C170.134 164.521 164.107 162.316 157.435 162.316C148.134 162.316 141.722 166.727 141.722 173.782C141.722 178.887 145.058 182.225 152.114 184.053L159.17 185.881C160.776 186.32 161.607 187.203 161.607 188.464C161.607 189.975 160.069 191.047 156.796 191.047C151.475 191.047 145.764 188.213 143.39 183.17L140.121 191.613C143.904 194.636 150.384 196.591 157.051 196.591C167.447 196.591 173.989 191.868 173.989 184.936ZM126.725 188.086L119.477 163.199H105.177L115.761 195.207H124.163C122.303 198.484 119.544 199.934 115.439 199.934C111.973 199.934 109.089 198.801 107.037 197.035V205.795C108.835 207.183 111.589 208 115.055 208C122.428 208 126.408 204.789 129.547 196.596L142.376 163.199H134.103L126.725 188.086ZM79.5235 190.73C84.59 190.73 88.31 187.075 88.31 182.037C88.31 176.998 84.59 173.343 79.5235 173.343C74.4573 173.343 70.7369 176.998 70.7369 182.037C70.7369 187.075 74.4573 190.73 79.5235 190.73ZM79.5235 154C94.467 154 105.047 162.821 105.047 175.298C105.047 187.774 94.463 196.596 79.5235 196.596C64.5843 196.596 54 187.774 54 175.298C53.9952 162.821 64.5795 154 79.5235 154Z" fill="white"/>
</svg>
