<svg width="68" height="68" viewBox="0 0 68 68" fill="none" xmlns="http://www.w3.org/2000/svg">
<rect width="68" height="68" rx="34" fill="white"/>
<g clip-path="url(#clip0_1_26)">
<g clip-path="url(#clip1_1_26)">
<path d="M59.8994 34C59.8994 48.0834 48.4828 59.5 34.3994 59.5C20.3162 59.5 8.89941 48.0834 8.89941 34C8.89942 19.9167 20.3162 8.5 34.3994 8.5C48.4828 8.5 59.8994 19.9167 59.8994 34Z" fill="#6BB64A"/>
<path d="M23.7744 36.1373H39.9031L32.8907 43.1285C32.4905 43.5288 32.2657 44.0714 32.2657 44.6372C32.2657 45.2033 32.4905 45.7459 32.8907 46.146C33.2908 46.5463 33.8335 46.771 34.3994 46.771C34.9653 46.771 35.508 46.5463 35.9082 46.146L46.5331 35.5211C46.7266 35.319 46.8782 35.0807 46.9793 34.8198C47.1918 34.3025 47.1918 33.7222 46.9793 33.2048C46.8782 32.944 46.7266 32.7056 46.5331 32.5036L35.9082 21.8786C35.7106 21.6794 35.4756 21.5213 35.2167 21.4134C34.9577 21.3055 34.6799 21.25 34.3994 21.25C34.1189 21.25 33.8411 21.3055 33.5822 21.4134C33.3233 21.5213 33.0882 21.6794 32.8907 21.8786C32.6915 22.0761 32.5334 22.3111 32.4255 22.5701C32.3177 22.829 32.2621 23.1068 32.2621 23.3873C32.2621 23.6679 32.3177 23.9456 32.4255 24.2045C32.5334 24.4635 32.6915 24.6985 32.8907 24.8961L39.9031 31.8873H23.7744C23.2108 31.8873 22.6703 32.1112 22.2718 32.5097C21.8733 32.9082 21.6494 33.4487 21.6494 34.0123C21.6494 34.5759 21.8733 35.1164 22.2718 35.5149C22.6703 35.9134 23.2108 36.1373 23.7744 36.1373Z" fill="white"/>
</g>
</g>
<defs>
<clipPath id="clip0_1_26">
<rect width="51" height="51" fill="white" transform="translate(8.89941 8.5)"/>
</clipPath>
<clipPath id="clip1_1_26">
<rect width="51" height="51" fill="white" transform="translate(8.89941 8.5)"/>
</clipPath>
</defs>
</svg>
