<svg width="68" height="68" viewBox="0 0 68 68" fill="none" xmlns="http://www.w3.org/2000/svg">
<rect x="68" y="68" width="68" height="68" rx="34" transform="rotate(-180 68 68)" fill="white"/>
<g clip-path="url(#clip0_1_52)">
<g clip-path="url(#clip1_1_52)">
<path d="M8.10058 34C8.10058 19.9166 19.5172 8.5 33.6006 8.5C47.6838 8.50001 59.1006 19.9166 59.1006 34C59.1006 48.0833 47.6838 59.5 33.6006 59.5C19.5172 59.5 8.10058 48.0833 8.10058 34Z" fill="#6BB64A"/>
<path d="M44.2256 31.8627L28.0969 31.8627L35.1093 24.8715C35.5095 24.4712 35.7343 23.9286 35.7343 23.3628C35.7343 22.7967 35.5095 22.2541 35.1093 21.854C34.7092 21.4537 34.1665 21.229 33.6006 21.229C33.0347 21.229 32.492 21.4537 32.0918 21.854L21.4669 32.4789C21.2734 32.681 21.1218 32.9193 21.0207 33.1802C20.8082 33.6975 20.8082 34.2778 21.0207 34.7952C21.1218 35.056 21.2734 35.2943 21.4669 35.4964L32.0918 46.1214C32.2894 46.3206 32.5244 46.4787 32.7833 46.5866C33.0423 46.6945 33.3201 46.75 33.6006 46.75C33.8811 46.75 34.1589 46.6945 34.4178 46.5866C34.6767 46.4787 34.9118 46.3206 35.1093 46.1214C35.3085 45.9239 35.4666 45.6889 35.5745 45.4299C35.6823 45.171 35.7379 44.8932 35.7379 44.6127C35.7379 44.3321 35.6823 44.0544 35.5745 43.7955C35.4666 43.5365 35.3085 43.3015 35.1093 43.1039L28.0969 36.1127L44.2256 36.1127C44.7892 36.1127 45.3297 35.8888 45.7282 35.4903C46.1267 35.0918 46.3506 34.5513 46.3506 33.9877C46.3506 33.4241 46.1267 32.8836 45.7282 32.4851C45.3297 32.0866 44.7892 31.8627 44.2256 31.8627Z" fill="white"/>
</g>
</g>
<defs>
<clipPath id="clip0_1_52">
<rect width="51" height="51" fill="white" transform="translate(59.1006 59.5) rotate(-180)"/>
</clipPath>
<clipPath id="clip1_1_52">
<rect width="51" height="51" fill="white" transform="translate(59.1006 59.5) rotate(-180)"/>
</clipPath>
</defs>
</svg>
