<svg width="60" height="56" viewBox="0 0 60 56" fill="none" xmlns="http://www.w3.org/2000/svg">
<path d="M8.0602 27.585C7.47387 27.585 6.90126 27.4091 6.40352 27.0702C5.14269 26.2108 4.73698 24.5285 5.41318 23.1846C4.55894 22.2923 3.85281 21.281 3.305 20.1674C2.61638 20.2461 1.92694 20.0784 1.341 19.6872C0.668227 19.2374 0.211531 18.5487 0.0561727 17.7463C-0.235283 16.2416 0.634789 14.7689 2.03168 14.29C2.06763 13.0412 2.28975 11.8188 2.69418 10.6403C1.46677 9.68202 1.16164 7.8965 2.03168 6.56763C2.47677 5.88716 3.1572 5.42578 3.94648 5.26911C4.64579 5.1283 5.35621 5.24471 5.97162 5.59437C6.83313 4.79449 7.79439 4.1337 8.84421 3.62183L8.84336 3.61627C8.52709 1.98402 9.57776 0.388474 11.1857 0.0597894C11.962 -0.097278 12.7537 0.0572216 13.4142 0.498463C14.0848 0.946547 14.5401 1.63264 14.6968 2.43124C15.7949 2.4903 16.8696 2.70128 17.9071 3.0625L18.0123 2.90157C18.457 2.22153 19.1375 1.76016 19.9267 1.60349C20.709 1.44685 21.5034 1.61034 22.1637 2.06057C23.5204 2.98499 23.8868 4.86293 22.9816 6.24615L22.8883 6.38952C23.6146 7.19711 24.2236 8.09243 24.7093 9.06479L24.9986 9.0053C25.7737 8.84824 26.5655 9.00231 27.2267 9.44398C27.8994 9.89378 28.3557 10.5829 28.5106 11.3853C28.8269 13.0168 27.7762 14.6126 26.1683 14.9413L26.0134 14.9726C25.998 15.5195 25.9466 16.0661 25.8589 16.6061C25.7745 17.1287 25.2832 17.4826 24.7598 17.3996C24.2373 17.3149 23.8816 16.8231 23.9664 16.3002C24.0785 15.606 24.1209 14.899 24.0918 14.1992C24.0811 13.9437 24.1727 13.6946 24.3468 13.5076C24.521 13.3206 24.762 13.2106 25.0175 13.2012C25.0757 13.1995 25.1335 13.1947 25.1925 13.1836L25.7844 13.0625C26.3669 12.9435 26.7456 12.3546 26.6284 11.75C26.571 11.4542 26.405 11.2013 26.161 11.0387C25.9295 10.8837 25.6522 10.8281 25.3817 10.8846L24.7919 11.0049C24.7188 11.0198 24.6469 11.0434 24.5724 11.0768C24.3357 11.185 24.0661 11.1915 23.8247 11.0964C23.5833 11.0014 23.3903 10.8123 23.2906 10.5726C22.7552 9.28614 21.9776 8.14133 20.9795 7.17017C20.6106 6.81111 20.5909 6.22478 20.935 5.84174C20.9735 5.79937 21.0103 5.75529 21.0424 5.70607L21.3767 5.19593C21.7139 4.68065 21.5821 3.98473 21.0827 3.64454C20.8507 3.48619 20.5729 3.42798 20.2999 3.48362C20.0196 3.53925 19.7765 3.70573 19.6156 3.95139L19.2809 4.46239C19.2449 4.51718 19.2167 4.57495 19.1906 4.63316C18.9792 5.11591 18.4189 5.33718 17.9336 5.12918C16.6552 4.57966 15.2976 4.30233 13.9081 4.33186C13.4078 4.32159 13.0012 3.97536 12.9421 3.48875L12.9314 3.40744L12.8146 2.80314C12.7573 2.50784 12.5912 2.25491 12.3473 2.09227C12.1153 1.93692 11.8375 1.88171 11.5679 1.93821C10.985 2.05718 10.6063 2.64607 10.7239 3.25076L10.8558 3.91284C10.9803 4.37975 10.7445 4.88776 10.2972 5.07002C8.9663 5.61312 7.78544 6.42453 6.78745 7.48213C6.46433 7.82536 5.93963 7.88185 5.54973 7.61652L5.10121 7.31009C4.86967 7.15131 4.5932 7.09395 4.31887 7.14916C4.03855 7.2048 3.79546 7.37128 3.63454 7.61736C3.29773 8.13221 3.42954 8.82856 3.92899 9.16875L4.39505 9.48673C4.76996 9.74266 4.91419 10.2263 4.73999 10.6457C4.16394 12.0354 3.89774 13.5054 3.94909 15.0144C3.96493 15.4818 3.64095 15.8926 3.18259 15.9859L2.78157 16.0681C2.19995 16.1871 1.8212 16.776 1.93804 17.3815C1.99538 17.6768 2.16144 17.9298 2.40538 18.0924C2.63734 18.2473 2.91509 18.303 3.18473 18.2465L3.67433 18.1468C4.12414 18.0526 4.57565 18.2944 4.75197 18.7172C5.32973 20.1056 6.17967 21.3215 7.27999 22.3298C7.62579 22.6465 7.69127 23.1678 7.4345 23.5606L7.19055 23.9334C6.8533 24.4487 6.98512 25.1446 7.48371 25.4848C7.71567 25.6431 7.99342 25.7009 8.26647 25.6457C8.5468 25.5901 8.78988 25.4236 8.9508 25.1775L9.27607 24.6806C9.28164 24.6716 9.2872 24.6635 9.29233 24.6554C9.54227 24.2822 10.0182 24.1315 10.4371 24.2933C11.0526 24.5321 11.7022 24.7097 12.3677 24.8218C12.8899 24.91 13.2421 25.4047 13.1539 25.9269C13.0662 26.449 12.5732 26.8004 12.0498 26.7135C11.5161 26.6232 10.9909 26.4978 10.48 26.3386C10.0353 26.9583 9.38648 27.3781 8.64097 27.5267C8.4471 27.5661 8.25279 27.5849 8.06021 27.5849L8.0602 27.585Z" fill="white"/>
<path d="M12.2119 20.4501C12.0929 20.4501 11.9722 20.4274 11.8554 20.3807C9.88929 19.5915 8.47649 17.8882 8.07637 15.8227C7.42157 12.4418 9.66753 9.12284 13.0845 8.42438C14.7575 8.08329 16.4544 8.41112 17.8603 9.35052C19.2418 10.2732 20.1761 11.6778 20.4916 13.3055C20.7184 14.4765 20.6007 15.6876 20.1522 16.8085C19.9553 17.3002 19.3981 17.5386 18.9059 17.3422C18.4146 17.1457 18.1758 16.5876 18.3722 16.0959C18.6838 15.3174 18.766 14.4786 18.6093 13.6701C18.3919 12.5488 17.7478 11.5812 16.7955 10.9448C15.8185 10.2925 14.6377 10.0631 13.4685 10.3032C11.0774 10.792 9.5029 13.1043 9.95867 15.4578C10.2347 16.8803 11.2101 18.0556 12.5693 18.6009C13.0606 18.7977 13.2994 19.3562 13.1017 19.848C12.9523 20.2221 12.592 20.4497 12.2119 20.4502L12.2119 20.4501Z" fill="white"/>
<path d="M55.6609 48.2941H12.2077C11.6787 48.2941 11.249 47.8644 11.249 47.3354V19.5528C11.249 17.3162 13.0992 15.4961 15.3738 15.4961H52.4943C54.7686 15.4961 56.6191 17.3162 56.6191 19.5528V47.3354C56.6191 47.8644 56.1898 48.2941 55.6604 48.2941H55.6609ZM13.1663 46.3768H54.7022V19.5528C54.7022 18.3733 53.7119 17.4134 52.4948 17.4134H15.3742C14.1571 17.4134 13.1668 18.3729 13.1668 19.5528L13.1663 46.3768Z" fill="white"/>
<path d="M50.8873 48.2943H16.8991C16.3701 48.2943 15.9404 47.8646 15.9404 47.3356V21.111C15.9404 20.8568 16.0414 20.6128 16.2212 20.4331C16.4009 20.2533 16.6449 20.1523 16.8991 20.1523H50.8873C51.4162 20.1523 51.8459 20.582 51.8459 21.111V47.3356C51.8455 47.8646 51.4162 48.2943 50.8868 48.2943H50.8873ZM17.8578 46.377H49.9286V22.0697H17.8578V46.377Z" fill="white"/>
<path d="M54.4951 55.602H13.6988C10.9162 55.602 8.75781 52.3909 8.75781 49.628V47.3337C8.75781 46.8047 9.1875 46.375 9.71648 46.375H58.4768C59.0058 46.375 59.4355 46.8047 59.4355 47.3337V49.628C59.4355 52.391 57.2777 55.602 54.4945 55.602H54.4951ZM10.6749 48.2922V49.6279C10.6749 51.3988 12.1412 53.6846 13.6986 53.6846H54.4949C56.0523 53.6846 57.5186 51.3993 57.5186 49.6279V48.2922H10.6749Z" fill="white"/>
<path d="M37.0789 51.9486H31.1159C30.5869 51.9486 30.1572 51.5189 30.1572 50.9899C30.1572 50.4609 30.5869 50.0312 31.1159 50.0312H37.0789C37.6079 50.0312 38.0375 50.4609 38.0375 50.9899C38.0375 51.5189 37.6083 51.9486 37.0789 51.9486Z" fill="white"/>
</svg>
