<svg width="43" height="58" viewBox="0 0 43 58" fill="none" xmlns="http://www.w3.org/2000/svg">
<path d="M29.6307 47.6579C30.9921 42.7694 31.7438 36.8305 31.7438 30.5806C31.7438 23.4227 30.0551 16.2932 27.2992 10.2977C25.1972 5.72515 22.5726 2.38359 21.8152 2.38359C21.0578 2.38359 18.4332 5.72515 16.3311 10.2977C13.5752 16.2937 11.8865 23.4233 11.8865 30.5806C11.8865 36.8308 12.6384 42.7699 13.9996 47.6579H29.6307ZM11.9634 49.192C10.3776 43.9173 9.50391 37.4206 9.50391 30.58C9.50391 23.0637 11.2725 15.5977 14.1663 9.30146C16.6778 3.83842 19.693 0 21.8156 0C23.9382 0 26.9534 3.83842 29.4649 9.30146C32.3587 15.5978 34.1273 23.0636 34.1273 30.58C34.1273 37.4204 33.2535 43.9172 31.6678 49.192L31.4124 50.0403H12.2189L11.9634 49.192Z" fill="white"/>
<path d="M27.6101 54.4075L26.6816 50.0387H16.949L16.0204 54.4075H27.6101ZM15.0197 47.6562H28.6107L30.5526 56.7903H13.0781L15.0197 47.6562Z" fill="white"/>
<path d="M21.815 28.5953C18.9637 28.5953 16.6523 26.2838 16.6523 23.4327C16.6523 20.5811 18.9639 18.2695 21.815 18.2695C24.6661 18.2695 26.9776 20.5811 26.9776 23.4327C26.9776 26.284 24.6661 28.5953 21.815 28.5953ZM21.815 26.2123C23.3502 26.2123 24.5953 24.9679 24.5953 23.4326C24.5953 21.8972 23.3503 20.6523 21.815 20.6523C20.2796 20.6523 19.0347 21.8972 19.0347 23.4326C19.0347 24.9679 20.2796 26.2123 21.815 26.2123Z" fill="white"/>
<path d="M9.6283 56.5397C9.81059 57.8196 8.10964 58.4324 7.43307 57.3304L0.94171 46.7501C0.627 46.2376 0.743916 45.5711 1.21431 45.196L9.75069 38.3861C10.4433 37.8337 11.4749 38.2032 11.6588 39.0692L13.008 45.4104C13.0988 45.837 12.9487 46.2797 12.6174 46.5633L8.68802 49.9265L9.6283 56.5397ZM6.23695 49.6141C6.17988 49.2107 6.33225 48.8063 6.64197 48.5414L10.5298 45.2132L9.7297 41.4512L3.52372 46.4016L6.46076 51.1893L6.23695 49.6141Z" fill="white"/>
<path d="M33.5605 56.5397C33.3788 57.8196 35.0798 58.4324 35.7558 57.3304L42.2477 46.7501C42.5618 46.2376 42.4449 45.5711 41.9751 45.196L33.4387 38.3861C32.7462 37.8337 31.7145 38.2032 31.53 39.0692L30.1814 45.4104C30.0906 45.837 30.2402 46.2797 30.572 46.5633L34.5008 49.9265L33.5605 56.5397ZM36.9525 49.6141C37.0095 49.2107 36.8566 48.8063 36.5474 48.5414L32.6591 45.2132L33.4597 41.4512L39.6657 46.4016L36.7281 51.1893L36.9525 49.6141Z" fill="white"/>
</svg>
