<svg width="58" height="57" viewBox="0 0 58 57" fill="none" xmlns="http://www.w3.org/2000/svg">
<g clip-path="url(#clip0_3042_1330)">
<g clip-path="url(#clip1_3042_1330)">
<path d="M43.5733 15.8828H14.2883L12.5312 42.825H43.5733V15.8828Z" fill="#E7ECF8"/>
<path d="M46.4344 8.99239C43.8478 8.74614 41.3067 8.16307 38.8834 7.2568C35.9581 6.16542 33.2336 4.62112 30.783 2.66704C29.3467 1.52245 27.3413 1.52245 25.9055 2.66704C23.455 4.61943 20.7304 6.16365 17.8051 7.2568C15.3822 8.16307 12.8406 8.74608 10.2542 8.99239C8.21339 9.18763 6.6748 10.8735 6.6748 12.9124V32.3868C6.6748 40.647 11.2646 48.0732 18.6543 51.7689L26.5834 55.7325C27.1349 56.0083 27.7399 56.1442 28.3446 56.1442C28.9493 56.1442 29.5543 56.0061 30.1079 55.7325L38.037 51.7689C45.4243 48.0735 50.0165 40.6466 50.0165 32.3868L50.016 12.9124C50.016 10.8717 48.4775 9.18713 46.4367 8.99239H46.4344ZM37.6285 25.1696L27.7787 35.1965C27.4084 35.5729 26.9019 35.7857 26.3742 35.7857H26.3685C25.8364 35.7857 25.3302 35.569 24.9618 35.189L19.052 29.102C18.2934 28.3219 18.3132 27.0749 19.0933 26.3164C19.8734 25.5579 21.1221 25.576 21.879 26.3577L26.3843 30.9968L34.8195 22.41C35.582 21.6316 36.8268 21.622 37.6051 22.3845C38.3813 23.1469 38.3931 24.394 37.6306 25.1701L37.6285 25.1696Z" fill="#6BB64A"/>
</g>
</g>
<defs>
<clipPath id="clip0_3042_1330">
<rect width="56.2271" height="56.2271" fill="white" transform="translate(0.817383 0.65625)"/>
</clipPath>
<clipPath id="clip1_3042_1330">
<rect width="56.2271" height="56.2271" fill="white" transform="translate(0.817383 0.65625)"/>
</clipPath>
</defs>
</svg>
