<svg width="57" height="57" viewBox="0 0 57 57" fill="none" xmlns="http://www.w3.org/2000/svg">
<g clip-path="url(#clip0_3042_1312)">
<g clip-path="url(#clip1_3042_1312)">
<mask id="mask0_3042_1312" style="mask-type:luminance" x="0" y="0" width="57" height="57">
<path d="M56.3872 0.0742188H0.160156V56.3013H56.3872V0.0742188Z" fill="white"/>
</mask>
<g mask="url(#mask0_3042_1312)">
<path d="M48.007 24.0285C47.1256 24.0285 46.3211 23.4654 46.053 22.6215C45.7213 21.5469 45.2868 20.5111 44.7759 19.5262C44.3672 18.7331 44.533 17.7739 45.159 17.1476C45.9379 16.3544 45.9379 15.0886 45.159 14.308L42.1453 11.2899C41.3664 10.5099 40.0892 10.5099 39.3098 11.2899C38.6838 11.9168 37.7133 12.0956 36.9345 11.6736C35.951 11.162 34.9168 10.7269 33.8437 10.3946C33.001 10.1262 32.4388 9.33314 32.4388 8.43779C32.4388 7.32494 31.5448 6.42969 30.4336 6.42969H26.1676C25.0563 6.42969 24.1624 7.32499 24.1624 8.43779V8.47605C24.1624 9.33309 23.6258 10.1262 22.7956 10.3688C21.7101 10.7011 20.6628 11.1362 19.6666 11.6604C18.8746 12.0698 17.9168 11.9036 17.2914 11.2767C16.5125 10.4836 15.2353 10.4836 14.4559 11.2767L11.4421 14.2948C10.6632 15.0748 10.6632 16.3539 11.4421 17.1344C12.0681 17.7613 12.2341 18.7332 11.8252 19.5261C11.3144 20.5111 10.8799 21.5469 10.5481 22.6215C10.2801 23.4654 9.48815 24.0284 8.59409 24.0284C7.48284 24.0284 6.58887 24.9237 6.58887 26.0365V30.3086C6.58887 31.4215 7.48288 32.3167 8.59409 32.3167C9.47557 32.3167 10.2801 32.8797 10.5481 33.7237C10.8799 34.7982 11.3144 35.8341 11.8252 36.819C12.2341 37.612 12.0681 38.5713 11.4421 39.1976C10.6632 39.9908 10.6632 41.2566 11.4421 42.0372L14.4559 45.0553C15.2347 45.8352 16.5119 45.8352 17.2914 45.0553C17.9174 44.4284 18.8879 44.2496 19.6666 44.6716C20.6501 45.1832 21.6843 45.6183 22.7575 45.9506C23.6002 46.219 24.1623 47.012 24.1623 47.9074C24.1623 49.0203 25.0563 49.9155 26.1675 49.9155H30.4335C31.5448 49.9155 32.4388 49.0203 32.4388 47.9074C32.4388 47.0247 33.001 46.219 33.8437 45.9506C34.9167 45.6183 35.951 45.1832 36.9345 44.6716C37.7265 44.2622 38.6844 44.4284 39.3098 45.0553C40.0886 45.8484 41.3658 45.8484 42.1453 45.0553L45.159 42.0372C45.9379 41.2572 45.9379 39.9781 45.159 39.1976C44.533 38.5707 44.3671 37.5988 44.7759 36.8059C45.2992 35.8083 45.7337 34.7594 46.0656 33.6721C46.3211 32.8535 47.0998 32.3036 47.9556 32.3036H47.9938C49.1051 32.3036 49.999 31.4083 49.999 30.2955V26.0233C49.999 24.9104 49.105 24.0151 47.9938 24.0151L48.007 24.0285ZM28.3009 40.9625C21.2507 40.9625 15.5292 35.2327 15.5292 28.1724C15.5292 21.1122 21.2507 15.3824 28.3009 15.3824C35.3509 15.3824 41.0725 21.1122 41.0725 28.1724C41.0725 35.2327 35.3509 40.9625 28.3009 40.9625Z" fill="#6BB64A"/>
<path d="M53.9095 37.7127C56.6975 30.2044 56.0626 21.7604 52.0743 14.7109L50.539 15.5755C54.236 22.1225 54.8446 29.9659 52.2949 36.9539L49.9922 35.8864L51.2011 41.6393L56.389 38.8686L53.9008 37.7038L53.9095 37.7127Z" fill="#E7ECF8"/>
<path d="M4.25423 19.4263L6.55694 20.5029L5.3481 14.75L0.160156 17.5207L2.6484 18.6854C-0.130857 26.1939 0.495337 34.6378 4.48353 41.6782L6.01897 40.8136C2.31322 34.2667 1.70416 26.4233 4.25423 19.4263Z" fill="#E7ECF8"/>
<path d="M41.7346 5.26216L38.9554 0.0742188L37.7906 2.57114C30.2822 -0.216796 21.8383 0.4094 14.7979 4.39759L15.6625 5.93303C22.2094 2.23595 30.0528 1.62741 37.0408 4.17706L35.9643 6.47977L41.7172 5.27094L41.7346 5.26216Z" fill="#E7ECF8"/>
<path d="M19.5084 52.2168L20.5849 49.9141L14.832 51.1229L17.6027 56.3108L18.7675 53.8227C21.8378 54.9609 25.0583 55.5345 28.2787 55.5345C32.9464 55.5345 37.6049 54.3435 41.7697 51.9876L40.9051 50.4521C34.3582 54.1491 26.5147 54.7577 19.5176 52.2167L19.5084 52.2168Z" fill="#E7ECF8"/>
<path d="M28.274 38.7297C34.0965 38.7297 38.8166 34.0096 38.8166 28.1871C38.8166 22.3646 34.0965 17.6445 28.274 17.6445C22.4515 17.6445 17.7314 22.3646 17.7314 28.1871C17.7314 34.0096 22.4515 38.7297 28.274 38.7297Z" fill="#E7ECF8"/>
</g>
</g>
</g>
<defs>
<clipPath id="clip0_3042_1312">
<rect width="56.2271" height="56.2271" fill="white" transform="translate(0.161133 0.0742188)"/>
</clipPath>
<clipPath id="clip1_3042_1312">
<rect width="56.2271" height="56.2271" fill="white" transform="translate(0.161133 0.0742188)"/>
</clipPath>
</defs>
</svg>
