<svg width="58" height="57" viewBox="0 0 58 57" fill="none" xmlns="http://www.w3.org/2000/svg">
<g clip-path="url(#clip0_3042_1288)">
<g clip-path="url(#clip1_3042_1288)">
<path d="M40.2886 11.7371C40.2886 18.1777 35.0664 23.3999 28.6258 23.3999C22.1852 23.3999 16.9629 18.1777 16.9629 11.7371C16.9629 5.29652 22.1852 0.0742188 28.6258 0.0742188C35.0664 0.0742188 40.2886 5.29652 40.2886 11.7371Z" fill="#6BB64A"/>
<path d="M43.5135 30.2884C46.4293 33.2057 48.0676 37.1612 48.0676 41.2849V52.166C48.0676 54.4478 46.2179 56.2974 43.9362 56.2974H13.3229C11.0411 56.2974 9.19141 54.4478 9.19141 52.166V41.2849C9.19141 37.1614 10.8298 33.2059 13.7455 30.2884C16.6628 27.3727 20.6182 25.7344 24.7419 25.7344H32.5172C36.6407 25.7344 40.5961 27.3727 43.5135 30.2884Z" fill="#6BB64A"/>
<path d="M40.634 39.0373C41.1633 39.0373 41.5924 38.6083 41.5924 38.0791C41.5924 37.5498 41.1633 37.1207 40.634 37.1207H38.1763V34.663C38.1763 34.0983 37.7186 33.6406 37.1539 33.6406C36.5892 33.6406 36.1314 34.0983 36.1314 34.663V37.1207H33.6898C33.1605 37.1207 32.7314 37.5498 32.7314 38.0791C32.7314 38.6083 33.1605 39.0373 33.6898 39.0373H36.1314V41.479C36.1314 42.0436 36.5892 42.5014 37.1539 42.5014C37.7186 42.5014 38.1763 42.0436 38.1763 41.479V39.0373H40.634Z" fill="#E7ECF8" stroke="#E7ECF8" stroke-width="0.681605"/>
<path d="M28.9823 32.6207L24.8926 25.8047H33.0719L28.9823 32.6207Z" fill="#E7ECF8"/>
</g>
</g>
<defs>
<clipPath id="clip0_3042_1288">
<rect width="56.2271" height="56.2271" fill="white" transform="translate(0.817383 0.0742188)"/>
</clipPath>
<clipPath id="clip1_3042_1288">
<rect width="56.2271" height="56.2271" fill="white" transform="translate(0.817383 0.0742188)"/>
</clipPath>
</defs>
</svg>
