<svg width="57" height="57" viewBox="0 0 57 57" fill="none" xmlns="http://www.w3.org/2000/svg">
<path d="M36.6833 31.2222C37.0424 30.6693 37.782 30.5123 38.3349 30.8715C38.8879 31.2306 39.0449 31.9702 38.6857 32.5231L38.256 33.1574L37.7991 33.7797C37.5227 34.143 37.2195 34.5139 36.8946 34.8864L36.7468 35.0539L39.6355 37.9426C40.4281 37.4631 41.3256 37.2226 42.2222 37.2226C43.5 37.2226 44.7821 37.7112 45.7565 38.6842L55.5383 48.4622C56.5126 49.4365 57 50.7186 57 51.9999C57 53.2811 56.5126 54.5632 55.5383 55.5375C54.5632 56.5126 53.2811 57 51.9998 57C50.7186 57 49.4364 56.5126 48.4622 55.5383L38.6841 45.7612C37.7098 44.7869 37.2224 43.5032 37.2224 42.2236C37.2224 41.3257 37.4621 40.4265 37.9407 39.6335L35.0563 36.7491L34.885 36.9003L34.8124 36.9591C34.4674 37.259 34.1229 37.5375 33.785 37.7948C29.6335 40.9607 24.5741 42.3756 19.6152 42.0403C14.7149 41.7087 9.90767 39.6694 6.16486 35.9272C2.05588 31.8183 0 26.4311 0 21.0465C0 15.661 2.05556 10.2744 6.16486 6.1648C10.2738 2.05586 15.661 0 21.0467 0C26.4315 0 31.8179 2.05511 35.9286 6.16395C37.5748 7.81013 38.8936 9.6665 39.8809 11.6443C40.902 13.6894 41.5702 15.8731 41.883 18.0968C41.9737 18.7504 41.5168 19.3543 40.8632 19.4444C40.2096 19.535 39.6057 19.0781 39.5156 18.4246C39.24 16.4623 38.6466 14.5283 37.7387 12.7104C36.8654 10.9619 35.6973 9.31775 34.2361 7.85695C30.5948 4.21659 25.8207 2.39582 21.0477 2.39582C16.2739 2.39582 11.5001 4.21659 7.85926 7.8578C4.21802 11.499 2.39723 16.2727 2.39723 21.0461C2.39723 25.819 4.21802 30.5928 7.85926 34.2344C11.1785 37.5536 15.4374 39.3601 19.7754 39.6546C24.1746 39.9523 28.6606 38.6987 32.3374 35.8957C32.6556 35.6539 32.9604 35.4079 33.2469 35.1594L33.3163 35.0943C33.6295 34.8211 33.9377 34.5334 34.2371 34.2344C34.5633 33.9082 34.8514 33.6009 35.1012 33.3152C35.3705 33.0062 35.6386 32.6767 35.9021 32.3301L36.3031 31.7834L36.6856 31.2221L36.6833 31.2222ZM21.3214 27.0791C21.8497 27.0791 22.3529 27.1843 22.8127 27.3752L26.6518 20.5831C26.0104 19.8886 25.6195 18.9615 25.6195 17.9442C25.6195 16.8709 26.0563 15.8971 26.76 15.1934C27.4649 14.4885 28.438 14.0529 29.5112 14.0529C30.5845 14.0529 31.5576 14.4885 32.2624 15.1934C32.9661 15.8971 33.403 16.8706 33.403 17.9442C33.403 18.5502 33.2643 19.1252 33.0162 19.6372L37.7595 22.5271C38.4419 21.9387 39.3294 21.5803 40.2982 21.5803C40.743 21.5803 41.1702 21.6568 41.569 21.7946L47.4892 13.9151C46.9137 13.2356 46.5679 12.3594 46.5679 11.406C46.5679 10.3378 47.0043 9.36511 47.7084 8.65898L47.7147 8.65272C48.4213 7.94904 49.3919 7.51435 50.4597 7.51435C51.528 7.51435 52.5006 7.95075 53.2068 8.65485L53.213 8.66112C53.9167 9.36772 54.3514 10.3391 54.3514 11.4061C54.3514 12.4794 53.9146 13.4541 53.2109 14.1573C52.506 14.8622 51.5329 15.2978 50.4597 15.2978C50.1364 15.2978 49.822 15.2581 49.5213 15.1826L43.4746 23.2296C43.9256 23.866 44.1904 24.6395 44.1904 25.4725C44.1904 26.5434 43.7535 27.5147 43.0498 28.2196C42.3407 28.9274 41.3677 29.3643 40.2986 29.3643C39.2278 29.3643 38.2557 28.9274 37.5507 28.2237C36.8429 27.5146 36.406 26.5428 36.406 25.4725C36.406 25.1602 36.4428 24.8553 36.5129 24.5638L31.3116 21.3954C30.7728 21.6768 30.161 21.8368 29.5121 21.8368C29.2435 21.8368 28.9808 21.81 28.7274 21.7574L24.6556 28.9617C25.0097 29.548 25.2144 30.2358 25.2144 30.97C25.2144 32.0433 24.7788 33.0171 24.0738 33.722C23.3702 34.4257 22.3959 34.8625 21.3226 34.8625C20.2527 34.8625 19.2797 34.4257 18.5734 33.7199C17.8664 33.0171 17.4308 32.044 17.4308 30.9699C17.4308 30.3334 17.5857 29.7317 17.8593 29.2L14.3291 25.6696C13.7966 25.9431 13.194 26.098 12.5576 26.098C11.4876 26.098 10.5146 25.6612 9.8084 24.9554C9.10137 24.2525 8.66574 23.2795 8.66574 22.2054C8.66574 21.1363 9.10215 20.1653 9.80626 19.4588L9.81252 19.4525C10.5191 18.7488 11.4897 18.3141 12.5575 18.3141C13.6284 18.3141 14.6005 18.7509 15.3055 19.4546C16.0133 20.1583 16.4501 21.1326 16.4501 22.2054C16.4501 22.8427 16.2952 23.4449 16.0217 23.9769L19.5518 27.5073C20.0835 27.2338 20.686 27.0789 21.3225 27.0789L21.3214 27.0791ZM22.3801 29.9126C22.1099 29.6424 21.7353 29.4749 21.3214 29.4749C20.9276 29.4749 20.5709 29.624 20.3066 29.8667L20.2627 29.9126L20.2189 29.9544C19.9733 30.2216 19.8251 30.5779 19.8251 30.9704C19.8251 31.3847 19.9925 31.7597 20.2627 32.0295C20.53 32.3009 20.9055 32.4671 21.3214 32.4671C21.7353 32.4671 22.1107 32.2989 22.3801 32.0295C22.6503 31.7593 22.8177 31.3839 22.8177 30.9704C22.8177 30.5566 22.6494 30.182 22.3801 29.9126ZM41.3598 24.4118C41.0896 24.1437 40.7141 23.9762 40.299 23.9762C39.9052 23.9762 39.5473 24.1262 39.2813 24.3701L39.2395 24.4139C38.9694 24.6841 38.8019 25.0595 38.8019 25.473C38.8019 25.8881 38.9693 26.2635 39.2374 26.5337C39.5076 26.8018 39.8839 26.9693 40.299 26.9693C40.7141 26.9693 41.0896 26.8018 41.3598 26.5337C41.6279 26.2635 41.7954 25.8881 41.7954 25.473C41.7954 25.057 41.6279 24.6816 41.3598 24.4114V24.4118ZM51.5213 10.3458C51.2519 10.0764 50.8769 9.91023 50.4605 9.91023C50.0446 9.91023 49.6691 10.0764 49.4019 10.3437C49.1304 10.6152 48.9642 10.9902 48.9642 11.4065C48.9642 11.8225 49.1304 12.1979 49.3977 12.4652C49.6691 12.7366 50.0446 12.9029 50.4605 12.9029C50.8744 12.9029 51.249 12.7354 51.5192 12.4652C51.7885 12.1958 51.9568 11.8204 51.9568 11.4065C51.9568 10.9902 51.7906 10.6152 51.5213 10.3458ZM30.5712 16.8865C30.301 16.6163 29.9264 16.4488 29.5125 16.4488C29.0987 16.4488 28.7241 16.6163 28.4539 16.8865C28.1845 17.1559 28.0162 17.5309 28.0162 17.9443C28.0162 18.3582 28.1837 18.7336 28.4539 19.0034C28.7232 19.2727 29.0987 19.441 29.5125 19.441C29.9264 19.441 30.3018 19.2727 30.5712 19.0034C30.8414 18.7332 31.0088 18.3577 31.0088 17.9443C31.0088 17.5305 30.8405 17.1559 30.5712 16.8865ZM13.6185 21.1462C13.3499 20.8777 12.9741 20.7098 12.5586 20.7098C12.1426 20.7098 11.7672 20.876 11.4999 21.1433C11.2284 21.4147 11.0622 21.7897 11.0622 22.2052C11.0622 22.6195 11.2297 22.9945 11.4999 23.2643C11.7672 23.5358 12.1426 23.702 12.5586 23.702C12.949 23.702 13.304 23.5541 13.5692 23.3144L13.6172 23.2635L13.6682 23.2155C13.9079 22.9494 14.0557 22.5945 14.0557 22.2048C14.0557 21.7918 13.8874 21.4164 13.6189 21.1458L13.6185 21.1462ZM40.3791 40.377C39.8734 40.8827 39.6195 41.553 39.6195 42.2233C39.6195 42.8927 39.8734 43.5634 40.3783 44.0683L50.1564 53.8455C50.6613 54.3504 51.3315 54.6043 52.0014 54.6043C52.6708 54.6043 53.3415 54.3504 53.8465 53.8455C54.3522 53.3397 54.6061 52.6695 54.6061 52C54.6061 51.3306 54.3522 50.6599 53.8473 50.155L44.0701 40.377C43.5664 39.8712 42.8962 39.6182 42.2246 39.6182C41.5756 39.6182 40.9258 39.8558 40.4264 40.3273L40.3796 40.377L40.3791 40.377Z" fill="white"/>
</svg>
