<svg width="58" height="57" viewBox="0 0 58 57" fill="none" xmlns="http://www.w3.org/2000/svg">
<g clip-path="url(#clip0_3042_1340)">
<g clip-path="url(#clip1_3042_1340)">
<mask id="mask0_3042_1340" style="mask-type:luminance" x="0" y="0" width="58" height="57">
<path d="M57.2163 0.65625H0.989258V56.8833H57.2163V0.65625Z" fill="white"/>
</mask>
<g mask="url(#mask0_3042_1340)">
<path d="M43.9935 7.68702H6.01417C5.82765 7.68702 5.67578 7.4249 5.67578 7.10132C5.67578 6.77849 5.82722 6.51562 6.01417 6.51562H43.9935C44.1801 6.51562 44.3319 6.77775 44.3319 7.10132C44.3314 7.4249 44.1806 7.68702 43.9935 7.68702Z" fill="black"/>
<path d="M46.8934 40.1648C46.8934 31.6305 33.7695 24.6925 42.4419 24.6925C44.7453 24.6925 46.9629 25.162 49.0166 26.1179V3.91051C49.0166 2.75843 48.0628 1.82812 46.8934 1.82812H4.29205C3.12266 1.82812 2.16113 2.75839 2.16113 3.91051V47.2485C2.26426 47.206 2.37768 47.1885 2.49026 47.1885L8.08618 47.189C10.252 47.189 12.0189 48.9216 12.0189 51.0635V56.568C12.0189 56.6789 12.0016 56.7814 11.9671 56.8838H46.8939C48.0633 56.8838 49.017 55.9536 49.017 54.8014V54.2209C46.9458 55.1767 44.7282 55.6548 42.4423 55.6548C33.77 55.6548 46.8934 48.7077 46.8934 40.1648ZM6.76973 11.5023H43.247C43.4262 11.5023 43.572 11.6456 43.572 11.8225C43.572 11.999 43.4265 12.1427 43.247 12.1427L6.76973 12.1423C6.59059 12.1423 6.44472 11.999 6.44472 11.8221C6.44472 11.6456 6.59018 11.5023 6.76973 11.5023ZM6.76973 16.2131H43.247C43.4262 16.2131 43.572 16.3564 43.572 16.5333C43.572 16.7098 43.4265 16.8535 43.247 16.8535L6.76973 16.8531C6.59059 16.8531 6.44472 16.7098 6.44472 16.5329C6.44472 16.3564 6.59018 16.2131 6.76973 16.2131ZM6.76973 21.5644C6.59059 21.5644 6.44472 21.421 6.44472 21.2442C6.44472 21.0676 6.59018 20.924 6.76973 20.924H43.247C43.4262 20.924 43.572 21.0673 43.572 21.2442C43.572 21.4207 43.4265 21.5644 43.247 21.5644H6.76973Z" fill="#6BB64A"/>
<path d="M7.43373 48.6836H2.45005C2.33362 48.6836 2.22781 48.7539 2.18314 48.8619C2.13847 48.9707 2.16301 49.0951 2.24574 49.1775L9.86666 56.7985C9.92231 56.8534 9.99553 56.8834 10.0713 56.8834C10.1083 56.8834 10.146 56.8756 10.1826 56.861C10.2906 56.8164 10.3609 56.7106 10.3609 56.5942V51.6101C10.3602 49.9965 9.04716 48.6836 7.43373 48.6836Z" fill="#E7ECF8"/>
<path d="M49.0167 21.7422V55.7127H37.3027V21.7422H49.0167Z" fill="#6BB64A"/>
<path d="M43.1598 28.7695L46.3158 38.4825H56.5286L48.2663 44.4855L51.4222 54.1985L43.1598 48.1955L34.8975 54.1985L38.0534 44.4855L29.791 38.4825H40.0038L43.1598 28.7695Z" fill="#E7ECF8"/>
<path d="M46.8817 36.741C46.9448 36.9358 47.1099 37.1464 47.3363 37.3109C47.5627 37.4755 47.814 37.5673 48.0189 37.5673H55.1298C55.7508 37.5673 56.1896 37.7171 56.4945 37.9408C56.799 38.164 56.9436 38.4414 57.0112 38.6503C57.0794 38.8588 57.1251 39.168 57.0099 39.5275C56.8946 39.8875 56.6278 40.2669 56.1255 40.6323L50.3734 44.8114C50.208 44.9318 50.0585 45.1539 49.9719 45.4203C49.8853 45.6866 49.8754 45.9538 49.9386 46.1484L52.1356 52.9102C52.3617 53.6068 52.3494 54.2403 51.9963 54.726C51.9963 54.7258 51.9963 54.7261 51.9963 54.726L51.7594 54.554C51.5478 54.8456 51.2122 55.0127 50.8403 55.0127C50.4848 55.0127 50.1117 54.8672 49.7006 54.5684L46.8817 36.741ZM46.8817 36.741L44.6846 29.9793C44.4928 29.3886 44.2146 29.0176 43.9078 28.7966C43.6014 28.5757 43.2927 28.5234 43.0735 28.5234C42.8544 28.5234 42.5459 28.5754 42.2393 28.7963C41.9325 29.0173 41.6543 29.3883 41.4623 29.9793L39.2652 36.741C39.2021 36.9356 39.0372 37.1462 38.8107 37.3108C38.5842 37.4754 38.3329 37.5673 38.1282 37.5673H31.0171C30.3962 37.5673 29.9573 37.7172 29.6523 37.9405C29.3478 38.1636 29.2028 38.4407 29.1352 38.6495C29.0674 38.858 29.0216 39.1676 29.1368 39.5273C29.252 39.8875 29.5188 40.2669 30.0209 40.6322L35.7732 44.8114C35.9386 44.9318 36.0879 45.1539 36.1746 45.4203C36.2612 45.6868 36.271 45.954 36.2079 46.1484L34.0108 52.9102C33.7842 53.6074 33.7973 54.2394 34.1501 54.726C34.4121 55.0871 34.8028 55.2859 35.2489 55.2967C35.6873 55.3074 36.1602 55.1376 36.6179 54.8055L42.3702 50.6262C42.5211 50.5163 42.7814 50.4438 43.0731 50.4438C43.3649 50.4438 43.625 50.5161 43.7762 50.6261L49.5284 54.8053M46.8817 36.741L49.5284 54.8053L46.8817 36.741ZM49.0308 42.9633C47.8785 43.8014 47.327 45.4986 47.7669 46.8541L49.4026 51.889L45.1205 48.7773C44.5548 48.3667 43.8278 48.1473 43.0751 48.1473C42.3222 48.1473 41.5947 48.3669 41.0297 48.7771L36.7466 51.8891L38.3824 46.8542C38.8222 45.4989 38.2718 43.8015 37.1185 42.9634L32.8361 39.8514H38.1304C39.5558 39.8514 40.9997 38.8027 41.4399 37.447L43.0739 32.4127L44.7096 37.4471C45.1507 38.8025 46.5937 39.8514 48.0191 39.8514H53.3139L49.0308 42.9633Z" fill="#E7ECF8"/>
<path d="M46.8817 36.741C46.9448 36.9358 47.1099 37.1464 47.3363 37.3109C47.5627 37.4755 47.814 37.5673 48.0189 37.5673H55.1298C55.7508 37.5673 56.1896 37.7172 56.4945 37.9408C56.799 38.164 56.9436 38.4414 57.0112 38.6503C57.0794 38.8588 57.1251 39.168 57.0099 39.5275C56.8945 39.8875 56.6278 40.2669 56.1255 40.6323L50.3734 44.8114C50.208 44.9318 50.0585 45.1539 49.9719 45.4203C49.8853 45.6866 49.8754 45.9538 49.9386 46.1484L52.1356 52.9102C52.3617 53.6068 52.3494 54.2403 51.9963 54.726M46.8817 36.741L49.7006 54.5684C50.1117 54.8672 50.4848 55.0127 50.8403 55.0127C51.2122 55.0127 51.5478 54.8456 51.7594 54.554L51.9963 54.726M46.8817 36.741L44.6846 29.9793C44.4928 29.3886 44.2146 29.0176 43.9078 28.7966C43.6014 28.5757 43.2927 28.5234 43.0735 28.5234C42.8544 28.5234 42.5459 28.5754 42.2393 28.7963C41.9325 29.0173 41.6543 29.3883 41.4623 29.9793L39.2652 36.741C39.2021 36.9356 39.0372 37.1462 38.8107 37.3108C38.5842 37.4754 38.3329 37.5673 38.1282 37.5673H31.0171C30.3962 37.5673 29.9573 37.7172 29.6523 37.9405C29.3478 38.1636 29.2028 38.4407 29.1352 38.6495C29.0674 38.858 29.0216 39.1676 29.1368 39.5273C29.252 39.8875 29.5188 40.2669 30.0209 40.6322L35.7732 44.8114C35.9386 44.9318 36.0879 45.1539 36.1746 45.4203C36.2612 45.6868 36.271 45.954 36.2079 46.1484L34.0108 52.9102C33.7842 53.6074 33.7973 54.2394 34.1501 54.726C34.4121 55.0871 34.8028 55.2859 35.2489 55.2967C35.6873 55.3074 36.1602 55.1376 36.6179 54.8055L42.3702 50.6262C42.5211 50.5163 42.7814 50.4438 43.0731 50.4438C43.3649 50.4438 43.625 50.5161 43.7762 50.6261L49.5284 54.8053L46.8817 36.741ZM51.9963 54.726C51.9963 54.7261 51.9963 54.7258 51.9963 54.726ZM49.0308 42.9633C47.8785 43.8014 47.327 45.4986 47.7669 46.8541L49.4026 51.889L45.1205 48.7773C44.5548 48.3667 43.8278 48.1473 43.0751 48.1473C42.3222 48.1473 41.5947 48.3669 41.0297 48.7771L36.7466 51.8891L38.3824 46.8542C38.8222 45.4989 38.2718 43.8015 37.1185 42.9634L32.8361 39.8514H38.1304C39.5558 39.8514 40.9997 38.8027 41.4399 37.447L43.0739 32.4127L44.7096 37.4471C45.1507 38.8025 46.5937 39.8514 48.0191 39.8514H53.3139L49.0308 42.9633Z" stroke="white" stroke-width="0.585699"/>
</g>
</g>
</g>
<defs>
<clipPath id="clip0_3042_1340">
<rect width="56.2271" height="56.2271" fill="white" transform="translate(0.989258 0.65625)"/>
</clipPath>
<clipPath id="clip1_3042_1340">
<rect width="56.2271" height="56.2271" fill="white" transform="translate(0.989258 0.65625)"/>
</clipPath>
</defs>
</svg>
