<svg width="57" height="57" viewBox="0 0 57 57" fill="none" xmlns="http://www.w3.org/2000/svg">
<g clip-path="url(#clip0_3042_1358)">
<g clip-path="url(#clip1_3042_1358)">
<mask id="mask0_3042_1358" style="mask-type:luminance" x="0" y="0" width="57" height="57">
<path d="M56.3872 0.65625H0.160156V56.8833H56.3872V0.65625Z" fill="white"/>
</mask>
<g mask="url(#mask0_3042_1358)">
<path d="M43.5023 0.65625H11.8745C11.2276 0.65625 10.7031 1.1807 10.7031 1.82765V31.1126C10.7031 31.7595 11.2276 32.284 11.8745 32.284H43.5023C44.1492 32.284 44.6737 31.7595 44.6737 31.1126V1.82765C44.6737 1.1807 44.1492 0.65625 43.5023 0.65625Z" fill="#E7ECF8"/>
<path d="M10.9606 25H15.9838H21.7016L23.8252 27.2462L24.6829 30.4318L27.3374 31.9428H39.9978H43.9185L47.88 33.4131L49.2276 35.5367V50.7292L47.88 53.833L46.3688 55.3034H43.9185H11.6957L8.75522 53.833L7.24414 51.3827V34.1481V29.3699L7.97925 26.5927L10.9606 25Z" fill="#6BB64A"/>
<path fill-rule="evenodd" clip-rule="evenodd" d="M32.203 39.5805V39.5385C32.203 37.9606 30.9221 36.6797 29.3442 36.6797H26.9619C25.384 36.6797 24.1031 37.9606 24.1031 39.5385V39.5805H24.0609C22.4831 39.5805 21.2021 40.8615 21.2021 42.4393V44.8217C21.2021 46.4017 22.4831 47.6805 24.0609 47.6805H24.1031V47.7226C24.1031 49.3004 25.384 50.5814 26.9619 50.5814H29.3442C30.9221 50.5814 32.203 49.3004 32.203 47.7226V47.6805H32.2451C33.8229 47.6805 35.1039 46.4017 35.1039 44.8217V42.4393C35.1039 40.8615 33.8229 39.5805 32.2451 39.5805H32.203ZM29.3442 42.4393V39.5384H26.9619V42.4393H24.0609V44.8217H26.9619V47.7227H29.3442V44.8217H32.2451V42.4393H29.3442Z" fill="#F8F8F8"/>
<path fill-rule="evenodd" clip-rule="evenodd" d="M11.5293 25.095C11.5293 25.8842 12.1695 26.5243 12.9587 26.5243H20.8566C21.3714 26.5243 21.8648 26.7282 22.2269 27.0924C22.5911 27.4565 22.797 27.9499 22.797 28.4648V28.4665C22.797 29.7397 23.3019 30.9611 24.2016 31.8609C25.1014 32.7606 26.321 33.2655 27.5939 33.2655H43.1578C43.9468 33.2655 44.5871 32.6253 44.5871 31.8362V6.55889C44.5871 3.29812 41.9436 0.65625 38.6844 0.65625H17.4325C14.1733 0.65625 11.5298 3.29767 11.5298 6.55889L11.5293 25.095ZM14.3881 23.6655V6.55851C14.3881 4.87765 15.7507 3.51468 17.4319 3.51468H38.684C40.3649 3.51468 41.7278 4.87732 41.7278 6.55851V30.4069H27.5939C27.0792 30.4069 26.5856 30.2031 26.2237 29.839C25.8595 29.4749 25.6557 28.9813 25.6557 28.4665V28.4649C25.6557 27.1916 25.1486 25.9719 24.2493 25.0726C23.3495 24.1711 22.1299 23.6662 20.857 23.6662L14.3881 23.6655Z" fill="#E7ECF8"/>
<path fill-rule="evenodd" clip-rule="evenodd" d="M27.5943 30.4091C27.0795 30.4091 26.586 30.2053 26.2218 29.8411C25.8577 29.477 25.654 28.9835 25.654 28.4687V28.467C25.654 25.818 23.5043 23.668 20.8549 23.668H11.2587C9.86765 23.668 8.53518 24.2205 7.55164 25.204C6.57021 26.1855 6.01758 27.5196 6.01758 28.909V51.2643C6.01758 52.7661 6.64634 54.2091 7.78056 55.2705C8.87812 56.2996 10.3667 56.8849 11.9204 56.8849H44.3844C45.9375 56.8849 47.4261 56.2999 48.5241 55.2705C49.6582 54.2091 50.287 52.7661 50.287 51.2643V36.0294C50.287 34.5276 49.6583 33.0846 48.5241 32.0232C47.4266 30.9941 45.938 30.4088 44.3844 30.4088H27.5931L27.5943 30.4091ZM27.5943 33.2679H44.3855C45.2048 33.2679 45.9923 33.567 46.5717 34.1085C47.1167 34.6195 47.4294 35.309 47.4294 36.0297V51.2647C47.4294 51.985 47.1167 52.6749 46.5717 53.1859C45.9923 53.7271 45.2053 54.0265 44.3855 54.0265H11.9215C11.1021 54.0265 10.3147 53.7274 9.7353 53.1859C9.19034 52.6749 8.87766 51.9855 8.87766 51.2647V28.9094C8.87766 28.2785 9.12739 27.6723 9.57535 27.2247C10.0212 26.7788 10.6274 26.527 11.26 26.527H20.8561C21.9273 26.527 22.7964 27.3962 22.7964 28.4673V28.4691C22.7964 29.7423 23.3014 30.962 24.2011 31.8634C25.1008 32.7632 26.3222 33.2682 27.5955 33.2682L27.5943 33.2679Z" fill="#6BB64A"/>
<path fill-rule="evenodd" clip-rule="evenodd" d="M17.2488 16.4946H21.2091C21.6531 16.4946 22.0721 16.2887 22.3432 15.9361L24.4796 13.1518L26.9703 19.4182C27.1572 19.8891 27.5783 20.2243 28.0778 20.3026C28.5773 20.3808 29.08 20.1903 29.4025 19.8015L32.7207 15.7783H39.0595C39.8487 15.7783 40.4889 15.138 40.4889 14.349C40.4889 13.5598 39.8487 12.9195 39.0595 12.9195H32.0478C31.6207 12.9195 31.2169 13.1101 30.9442 13.4398L28.7354 16.1174L26.2047 9.7557C26.0158 9.27753 25.5835 8.94017 25.0726 8.86956C24.5638 8.79724 24.0567 9.00696 23.7423 9.41452L20.5041 13.6359H17.2487C16.4596 13.6359 15.8193 14.2762 15.8193 15.0654C15.8193 15.8546 16.4597 16.4946 17.2488 16.4946Z" fill="#6BB64A"/>
</g>
</g>
</g>
<defs>
<clipPath id="clip0_3042_1358">
<rect width="56.2271" height="56.2271" fill="white" transform="translate(0.161133 0.65625)"/>
</clipPath>
<clipPath id="clip1_3042_1358">
<rect width="56.2271" height="56.2271" fill="white" transform="translate(0.161133 0.65625)"/>
</clipPath>
</defs>
</svg>
