<svg width="60" height="60" viewBox="0 0 60 60" fill="none" xmlns="http://www.w3.org/2000/svg">
<path d="M27.6981 50.5812H32.5234C33.0515 50.5812 33.4805 50.1522 33.4805 49.6241V46.1455C35.3785 45.7353 37.206 44.9722 38.8408 43.9057L41.2759 46.3596C41.4554 46.5403 41.7002 46.6425 41.9553 46.6425C42.2104 46.6425 42.4548 46.5403 42.6347 46.3596L46.0462 42.9208C46.4162 42.5473 46.4162 41.9453 46.0462 41.5727L43.6025 39.1098C44.6639 37.4592 45.424 35.6133 45.8308 33.697H49.2735C49.8016 33.697 50.2306 33.268 50.2306 32.7399L50.2314 27.8765C50.2314 27.3484 49.8024 26.9194 49.2743 26.9194H45.8317C45.4244 25.0034 44.6647 23.1575 43.6034 21.5066L46.047 19.0437C46.4171 18.6702 46.4171 18.0682 46.047 17.6956L42.6355 14.2568C42.2762 13.8944 41.6357 13.8944 41.2763 14.2568L38.8412 16.7107C37.206 15.6446 35.3789 14.881 33.4809 14.4708V10.9923C33.4809 10.4642 33.0519 10.0352 32.5238 10.0352H27.6985C27.1704 10.0352 26.7414 10.4642 26.7414 10.9923V14.4708C24.8433 14.881 23.0158 15.6442 21.3811 16.7107L18.9459 14.2568C18.5866 13.8944 17.9461 13.8944 17.5867 14.2568L14.1752 17.6956C13.8052 18.0691 13.8052 18.6711 14.1752 19.0437L16.6189 21.5066C15.5575 23.1576 14.7974 25.0031 14.3906 26.9194H10.9479C10.4198 26.9194 9.9908 27.3484 9.9908 27.8765V32.7403C9.9908 33.2684 10.4198 33.6974 10.9479 33.6974H14.3906C14.7978 35.6142 15.5575 37.4593 16.6189 39.1102L14.1752 41.5731C13.8052 41.9466 13.8052 42.5486 14.1752 42.9212L17.5867 46.36C17.9461 46.7224 18.5866 46.7224 18.9459 46.36L21.3811 43.9061C23.0163 44.9722 24.8433 45.7358 26.7414 46.146V49.6245C26.7409 50.1522 27.1695 50.5812 27.6981 50.5812ZM31.5663 48.667H28.6552V45.3525C28.6552 44.8829 28.3146 44.4825 27.8506 44.4073C25.692 44.0587 23.609 43.1879 21.828 41.8902C21.446 41.612 20.9183 41.6539 20.5846 41.9897L18.2653 44.327L16.202 42.2469L18.5324 39.899C18.8619 39.5674 18.9029 39.0465 18.6307 38.6671C17.3421 36.8707 16.4776 34.7685 16.1307 32.5897C16.0572 32.1249 15.656 31.783 15.1856 31.783H11.9045V28.8335H15.1856C15.656 28.8335 16.0572 28.4912 16.1307 28.0267C16.4772 25.848 17.3421 23.7471 18.6307 21.9494C18.9029 21.57 18.8615 21.0491 18.5324 20.7175L16.2029 18.3691L18.2662 16.2891L20.5855 18.6263C20.9188 18.9626 21.4469 19.0049 21.8289 18.7259C23.6102 17.4282 25.6928 16.5574 27.8515 16.2087C28.3151 16.1335 28.6561 15.7336 28.6561 15.2636V11.9491H31.5671V15.2636C31.5671 15.7331 31.9077 16.1335 32.3717 16.2087C34.5303 16.5574 36.6133 17.4281 38.3943 18.7259C38.7759 19.0045 39.304 18.9626 39.6377 18.6263L41.957 16.2891L44.0203 18.3691L41.6908 20.7175C41.3613 21.0491 41.3203 21.57 41.5925 21.9494C42.8812 23.7466 43.7461 25.848 44.0925 28.0267C44.166 28.4916 44.5672 28.8335 45.0376 28.8335H48.3187V31.783H45.0376C44.5672 31.783 44.166 32.1253 44.0925 32.5897C43.7455 34.7685 42.8812 36.8699 41.5925 38.6671C41.3203 39.0465 41.3618 39.5674 41.6908 39.899L44.0203 42.2473L41.957 44.3274L39.6377 41.9902C39.304 41.6548 38.7763 41.6125 38.3943 41.8906C36.613 43.1882 34.5304 44.0591 32.3717 44.4078C31.9081 44.483 31.5671 44.8829 31.5671 45.3529L31.5667 48.667H31.5663Z" fill="white"/>
<path d="M30.1104 38.4131C34.5486 38.4131 38.1592 34.7769 38.1592 30.3083C38.1592 25.839 34.5486 22.2031 30.1104 22.2031C25.6722 22.2031 22.0617 25.8393 22.0617 30.3083C22.0617 34.7769 25.6722 38.4131 30.1104 38.4131ZM30.1104 24.1165C33.4933 24.1165 36.2449 26.8934 36.2449 30.3075C36.2449 33.721 33.4933 36.498 30.1104 36.498C26.7276 36.498 23.9759 33.721 23.9759 30.3075C23.9759 26.8939 26.728 24.1165 30.1104 24.1165Z" fill="white"/>
<path d="M5.21675 16.0155C5.52739 16.0155 5.83205 15.8646 6.01664 15.5856C11.1577 7.80091 20.7869 2.571 29.9774 2.571C38.5124 2.571 46.4114 6.458 51.6488 13.2352C51.9722 13.6535 52.5734 13.7295 52.9912 13.4069C53.41 13.0839 53.4865 12.4827 53.1634 12.064C47.5613 4.81474 39.1108 0.65625 29.9782 0.65625C20.1712 0.65625 9.89949 6.23193 4.41931 14.5306C4.1279 14.9716 4.24925 15.5651 4.69064 15.8569C4.85344 15.9638 5.03632 16.015 5.21706 16.015L5.21675 16.0155Z" fill="white"/>
<path d="M5.21787 16.0155H9.72355C10.2517 16.0155 10.6807 15.5865 10.6807 15.0584C10.6807 14.5303 10.2517 14.1013 9.72355 14.1013H6.18309L6.20958 10.8398C6.21385 10.3117 5.78912 9.87931 5.26015 9.87503C4.75339 9.87076 4.29962 10.2955 4.29534 10.8245L4.26116 15.0512C4.25945 15.3063 4.35943 15.552 4.5389 15.7332C4.71835 15.9139 4.96279 16.0155 5.21787 16.0155Z" fill="white"/>
<path d="M22.6717 58.2722C23.0793 58.2722 23.4571 58.0098 23.5852 57.6005C23.7425 57.0963 23.4618 56.5592 22.9567 56.4015C11.1453 52.7111 2.57172 41.6367 2.57172 30.0671C2.57172 26.6663 3.18274 23.3476 4.3873 20.2023C4.57616 19.7088 4.32918 19.155 3.83609 18.9662C3.34301 18.7764 2.78882 19.0243 2.59994 19.5174C1.31127 22.8818 0.657478 26.4308 0.657478 30.0662C0.657478 42.4508 9.79539 54.2939 22.3857 58.2274C22.481 58.2577 22.5771 58.2718 22.6716 58.2718L22.6717 58.2722Z" fill="white"/>
<path d="M18.8266 59.9999C18.9578 59.9999 19.0907 59.9726 19.2176 59.9158L23.0631 58.1912C23.3178 58.0771 23.5096 57.8579 23.5891 57.5904C23.6686 57.3234 23.628 57.035 23.4771 56.8004L21.1946 53.2483C20.9083 52.8039 20.317 52.6749 19.8717 52.9603C19.4273 53.2462 19.2979 53.838 19.5837 54.2832L21.2655 56.8995L18.4343 58.1689C17.9519 58.3851 17.7365 58.9513 17.9528 59.4336C18.1121 59.7896 18.4612 59.9998 18.8266 59.9998L18.8266 59.9999Z" fill="white"/>
<path d="M29.9773 59.4799C46.1433 59.4799 59.2969 46.2858 59.2969 30.0684C59.2969 26.457 57.5933 22.0231 56.3495 18.7854L56.1807 18.3457C55.991 17.8522 55.439 17.6044 54.9446 17.7945C54.451 17.9842 54.2041 18.5371 54.3934 19.0307L54.5626 19.472C55.7526 22.5698 57.3826 26.8123 57.3826 30.0683C57.3826 45.2301 45.0888 57.5655 29.9773 57.5655C29.5974 57.5655 29.2193 57.5578 28.8424 57.5424C28.3075 57.5219 27.8687 57.9317 27.8469 58.4598C27.8255 58.9879 28.2361 59.4336 28.7642 59.4554C29.1667 59.4716 29.5714 59.4797 29.9773 59.4797L29.9773 59.4799Z" fill="white"/>
<path d="M53.5013 23.6608C53.8679 23.6608 54.2179 23.4488 54.3764 23.0921L55.7514 19.999L58.6082 21.4543C59.0786 21.6932 59.6554 21.5069 59.8956 21.0356C60.1353 20.5647 59.9482 19.9883 59.4769 19.7481L55.7206 17.8348C55.486 17.7156 55.2139 17.6976 54.9665 17.7856C54.7191 17.8732 54.5182 18.0591 54.4119 18.2988L52.6276 22.314C52.4126 22.7973 52.6306 23.3626 53.1134 23.5775C53.2394 23.6348 53.371 23.6608 53.5013 23.6608Z" fill="white"/>
</svg>
