<svg width="58" height="57" viewBox="0 0 58 57" fill="none" xmlns="http://www.w3.org/2000/svg">
<g clip-path="url(#clip0_3042_1300)">
<g clip-path="url(#clip1_3042_1300)">
<path d="M39.9036 1.07031H17.3867V31.896H39.9036V1.07031Z" fill="#6BB64A"/>
<path d="M28.6862 55.4124L8.04004 29.6758H49.1674L28.6862 55.4124Z" fill="#6BB64A"/>
<path d="M17.2149 0.0742239C16.6826 0.0763876 16.2516 0.507412 16.2495 1.04013V28.9256H8.13493C7.76104 28.926 7.42047 29.141 7.25992 29.4786C7.09937 29.8166 7.1474 30.2165 7.38325 30.5064L27.8705 55.9391C28.0545 56.168 28.3323 56.3013 28.6257 56.3013C28.9195 56.3013 29.1974 56.168 29.3813 55.9391L49.8741 30.5064C50.11 30.2165 50.158 29.8166 49.9974 29.4786C49.8369 29.141 49.4963 28.926 49.1224 28.9256H41.0079V1.04013C41.0058 0.504819 40.57 0.0724957 40.0347 0.0742239H17.2149ZM18.1881 2.00563H39.0688V29.9C39.0709 30.4323 39.5019 30.8632 40.0342 30.8653H47.098L28.6291 53.7855L10.1604 30.8653H17.2147C17.75 30.8676 18.1858 30.4352 18.1879 29.9L18.1881 2.00563ZM29.1372 6.21454C28.8801 6.21583 28.6338 6.3184 28.4525 6.50101C28.2716 6.6832 28.1704 6.9303 28.1712 7.18736V9.28317H27.4918C25.1757 9.28317 23.2414 11.1129 23.2414 13.3973C23.2414 15.6818 25.1757 17.5132 27.4918 17.5132H30.1957C31.5142 17.5132 32.5074 18.4895 32.5074 19.6887C32.5074 20.8878 31.5142 21.8641 30.1957 21.8641H25.0437C24.7867 21.8633 24.5396 21.9645 24.3569 22.1455C24.1748 22.3268 24.0718 22.5726 24.0705 22.8296C24.0696 23.0884 24.1717 23.3363 24.3544 23.5189C24.537 23.7015 24.7853 23.8042 25.0437 23.8029H28.1711V25.8987C28.1703 26.1557 28.2715 26.4028 28.4525 26.5854C28.6338 26.768 28.8801 26.8711 29.1371 26.8719C29.3955 26.8728 29.6433 26.7706 29.826 26.588C30.009 26.4055 30.1112 26.157 30.1099 25.8986V23.8029H30.1952C32.5112 23.8029 34.4456 21.9731 34.4456 19.6887C34.4456 17.4042 32.5112 15.5729 30.1952 15.5729H27.4918C26.1732 15.5729 25.1801 14.5965 25.1801 13.3973C25.1801 12.1982 26.1732 11.2219 27.4918 11.2219H32.6433C33.1756 11.2202 33.607 10.7887 33.6088 10.2564C33.6109 9.72112 33.1786 9.28534 32.6433 9.28317H30.1099V7.18736C30.1113 6.929 30.0092 6.68104 29.8261 6.49841C29.6435 6.31537 29.3955 6.21368 29.1372 6.21454Z" fill="#6BB64A"/>
<path d="M28.8546 5.92969C28.559 5.93116 28.2758 6.04748 28.0673 6.25458C27.8593 6.4612 27.7428 6.74145 27.7438 7.03297V9.40988H26.9625C24.2988 9.40988 22.0742 11.485 22.0742 14.0758C22.0742 16.6667 24.2988 18.7437 26.9625 18.7437H30.0719C31.5883 18.7437 32.7305 19.8509 32.7305 21.2109C32.7305 22.571 31.5883 23.6782 30.0719 23.6782H24.147C23.8513 23.6772 23.5672 23.7921 23.3571 23.9972C23.1477 24.2029 23.0293 24.4816 23.0277 24.7731C23.0267 25.0667 23.1442 25.3478 23.3542 25.555C23.5642 25.7621 23.8499 25.8785 24.147 25.8769H27.7437V28.2538C27.7427 28.5454 27.8592 28.8256 28.0672 29.0327C28.2757 29.2398 28.559 29.3567 28.8545 29.3576C29.1517 29.3586 29.4368 29.2428 29.6468 29.0356C29.8573 28.8285 29.9748 28.5468 29.9733 28.2538V25.8769H30.0714C32.735 25.8769 34.9596 23.8018 34.9596 21.2109C34.9596 18.6201 32.735 16.5431 30.0714 16.5431H26.9623C25.446 16.5431 24.3039 15.4359 24.3039 14.0758C24.3039 12.7159 25.446 11.6086 26.9623 11.6086H32.8868C33.499 11.6067 33.9952 11.1173 33.9972 10.5137C33.9996 9.90657 33.5025 9.41234 32.8868 9.40988H29.9734V7.03297C29.9749 6.73998 29.8575 6.45876 29.647 6.25163C29.4369 6.04403 29.1518 5.92871 28.8546 5.92969Z" fill="#F8F8F8"/>
</g>
</g>
<defs>
<clipPath id="clip0_3042_1300">
<rect width="56.2271" height="56.2271" fill="white" transform="translate(0.989258 0.0742188)"/>
</clipPath>
<clipPath id="clip1_3042_1300">
<rect width="56.2271" height="56.2271" fill="white" transform="translate(0.989258 0.0742188)"/>
</clipPath>
</defs>
</svg>
