<svg width="63" height="47" viewBox="0 0 63 47" fill="none" xmlns="http://www.w3.org/2000/svg">
<path d="M31.4999 0C14.1149 0 0 14.358 0 32.019C0 37.106 1.18602 41.9132 3.26594 46.1859C3.50415 46.6797 3.99803 46.9949 4.54135 46.9995H7.89717C8.28019 47.005 8.64973 46.8552 8.92288 46.5834C9.19554 46.3115 9.34934 45.9408 9.34934 45.5534C9.34934 45.1661 9.19554 44.7953 8.92288 44.5235C8.64973 44.2516 8.28019 44.1018 7.89717 44.1074H5.48124C3.81535 40.4159 2.86345 36.3502 2.86345 32.0186C2.86345 15.911 15.6731 2.8932 31.4997 2.8932C47.3264 2.8932 60.136 15.9123 60.136 32.0186C60.136 36.3502 59.1842 40.4159 57.5182 44.1074H41.5228C41.5138 39.969 39.0299 36.4333 35.5048 34.8658L43.5588 16.4728C43.77 16.0007 43.7151 15.4509 43.4145 15.0308C43.1143 14.6111 42.615 14.3852 42.1046 14.4392C41.5788 14.4896 41.1228 14.8285 40.9191 15.3208L32.7083 34.0753C32.3133 34.0269 31.9078 33.9846 31.5003 33.9846C25.9872 33.9846 21.4903 38.5275 21.4779 44.1078H13.4908C13.1077 44.1022 12.7382 44.252 12.465 44.5239C12.1924 44.7957 12.0386 45.1665 12.0386 45.5538C12.0386 45.9412 12.1924 46.3119 12.465 46.5837C12.7382 46.8556 13.1077 47.0054 13.4908 46.9999H58.4586C59.002 46.9953 59.4959 46.6801 59.7341 46.1863C61.814 41.9132 63 37.1061 63 32.0193C63 14.3597 48.8851 0.000385174 31.5001 0.000385174L31.4999 0ZM31.3431 5.03913C30.6055 5.12084 30.0521 5.75836 30.0682 6.50786V11.5692C30.0627 11.9561 30.211 12.3293 30.4802 12.6052C30.7493 12.8806 31.1164 13.0359 31.4999 13.0359C31.8834 13.0359 32.2505 12.8806 32.5196 12.6052C32.7888 12.3293 32.9371 11.9561 32.9316 11.5692V6.50786C32.9406 6.09125 32.7713 5.69129 32.4672 5.40985C32.1626 5.12841 31.7531 4.99323 31.3431 5.03913ZM9.26248 21.6697C8.59132 21.6707 8.01103 22.1423 7.8662 22.8035C7.72139 23.4652 8.05047 24.1396 8.65821 24.4265L12.9539 26.5959C13.664 26.9575 14.5304 26.6695 14.889 25.9518C15.2476 25.234 14.9619 24.359 14.2513 23.9973L9.95614 21.828C9.74141 21.717 9.50318 21.6631 9.26248 21.6697ZM53.6934 21.6697C53.4677 21.6702 53.2455 21.7247 53.0443 21.8281L48.7491 23.9974C48.408 24.1709 48.1488 24.4745 48.0295 24.8412C47.9096 25.2079 47.9391 25.6073 48.1114 25.9518C48.4699 26.6696 49.3363 26.9576 50.0465 26.5959L54.3422 24.4266C54.9584 24.1366 55.288 23.4491 55.1307 22.7808C54.9734 22.113 54.3726 21.6485 53.6934 21.6697ZM31.5003 36.8773C35.4608 36.8773 38.6474 40.0836 38.6594 44.108H24.3413C24.3532 40.0815 27.5398 36.8773 31.5003 36.8773Z" fill="white"/>
</svg>
