<svg width="65" height="50" viewBox="0 0 65 50" fill="none" xmlns="http://www.w3.org/2000/svg">
<path d="M5.59767 0.000426585C2.50854 0.000426585 5.28175e-07 2.50705 5.28175e-07 5.59532V42.6308C-0.000462095 43.0052 0.303039 43.3088 0.677792 43.3088H27.3041L24.6827 48.6455H20.9958C20.1019 48.658 20.1019 49.9911 20.9958 50H44.0049C44.3764 49.9949 44.6753 49.6937 44.6753 49.3225C44.6753 48.951 44.376 48.6488 44.0049 48.6451H40.3171L37.6957 43.3083H64.3231C64.6974 43.3083 65.0005 43.0043 65 42.6304V5.59489C65 2.5071 62.4919 0 59.4028 0L5.59767 0.000426585ZM5.59767 1.35538H59.4022C61.7649 1.35538 63.6456 3.23452 63.6456 5.59544V36.535H1.35376V5.59544C1.35376 3.23499 3.23445 1.35538 5.59719 1.35538H5.59767ZM8.22879 4.86845C6.3828 4.86845 4.87507 6.37562 4.87507 8.22147V31.2692C4.87507 31.643 5.17765 31.9457 5.55146 31.9461H37.0349C37.6706 32.482 38.3618 32.9702 39.1062 33.3997C40.8046 34.3806 42.6247 34.9716 44.4582 35.1992C44.8362 35.2584 45.1873 34.9928 45.2345 34.6134C45.2803 34.2339 45.006 33.891 44.6252 33.8554C42.9676 33.6495 41.3233 33.116 39.7831 32.2266C39.6258 32.1359 39.4731 32.0419 39.3209 31.9457H42.113C42.4873 31.9462 42.7908 31.6431 42.7908 31.2687V28.6436C43.1331 28.7996 43.4838 28.9342 43.8452 29.0434V30.4751C43.8452 31.2785 44.5128 31.9457 45.3155 31.9457H47.1138C47.9165 31.9457 48.5841 31.278 48.5841 30.4751V29.0425C49.1278 28.881 49.6501 28.6663 50.1498 28.3984L51.1593 29.408C51.7274 29.9758 52.6718 29.9758 53.2393 29.408L54.5111 28.1365C55.0793 27.5682 55.0793 26.6247 54.5111 26.0569C54.1748 25.7186 53.8356 25.3809 53.4974 25.0431C53.7667 24.5442 53.9828 24.0236 54.1461 23.4813H55.5775C56.3807 23.4813 57.0478 22.8135 57.0478 22.0107V20.212C57.0478 19.4092 56.3807 18.7405 55.5775 18.7405H54.1442C53.9827 18.1968 53.7694 17.6753 53.5016 17.176L54.5111 16.1654C55.0792 15.5976 55.0787 14.6536 54.5111 14.0858L53.2393 12.8142C52.6711 12.246 51.7268 12.246 51.1592 12.8142L50.1456 13.8281C49.6468 13.5592 49.1263 13.3427 48.5841 13.1793V11.7476C48.5841 10.9443 47.9165 10.2766 47.1138 10.2766H45.3154C44.5127 10.2766 43.8451 10.9443 43.8451 11.7476V13.1812C43.4838 13.2886 43.1326 13.4209 42.7907 13.575V8.68294C44.4804 8.2003 46.33 8.14107 47.8059 8.31321C49.4636 8.51913 51.1069 9.05266 52.6471 9.94204C54.0096 10.7287 55.1722 11.7259 56.1192 12.8684L55.4739 12.8735C55.0903 12.861 54.7743 13.1715 54.7771 13.5555C54.7794 13.9391 55.1005 14.2441 55.4836 14.2274L57.7116 14.2098C58.0813 14.2075 58.3806 13.9077 58.3834 13.538L58.401 11.2474C58.4061 10.8656 58.1003 10.5524 57.7181 10.5556C57.3443 10.5579 57.044 10.8633 57.0463 11.2372L57.0413 11.8601C56.0155 10.6556 54.7705 9.60197 53.3243 8.7667C51.6259 7.78617 49.8058 7.19473 47.9723 6.96717C46.1383 6.75848 44.3669 6.83992 42.6638 7.31284C42.2659 5.90517 40.9683 4.86722 39.4368 4.86722L8.22879 4.86845ZM8.22879 6.2234H39.4375C40.3804 6.2234 41.1512 6.84855 41.3713 7.71434C40.0426 8.19559 38.7814 8.87397 37.6373 9.73883C37.635 9.74068 37.6322 9.74392 37.6322 9.74392H6.23167V8.22111C6.23167 7.10176 7.11164 6.22257 8.23081 6.22257L8.22879 6.2234ZM32.1179 7.44177C31.7413 7.37698 31.4198 7.73653 31.4198 8.11874C31.4198 8.50097 31.7363 8.80776 32.1179 8.79572H32.9646C33.3444 8.79572 33.6595 8.50281 33.6613 8.12244C33.6632 7.74161 33.3449 7.43481 32.9646 7.44175M34.657 7.44175C34.2753 7.42926 33.9588 7.73652 33.9588 8.11873C33.9588 8.50096 34.2748 8.79571 34.657 8.79571H35.5036C35.8835 8.80821 36.1985 8.50279 36.2004 8.12243C36.2022 7.7416 35.914 7.43017 35.5036 7.43851M37.196 7.44082C36.8138 7.42833 36.4979 7.73559 36.4979 8.1178C36.4979 8.50002 36.8143 8.80681 37.196 8.79478H38.0426C38.4225 8.80727 38.7375 8.50186 38.7394 8.1215C38.7417 7.56298 38.2328 7.43387 38.0426 7.43758L37.196 7.44082ZM41.4375 9.1367V9.74381H40.1356C40.5585 9.51753 40.9934 9.31439 41.4375 9.1367ZM6.22916 11.0973H41.4375V12.9793L41.2714 12.8132C40.7038 12.245 39.7599 12.245 39.1922 12.8132L37.92 14.0848C37.3523 14.653 37.3523 15.5966 37.92 16.1643L38.9336 17.1782C38.6649 17.6766 38.4488 18.1976 38.2859 18.74H36.8535C36.0504 18.74 35.3828 19.4086 35.3828 20.2115V22.0102C35.3828 22.8135 36.0504 23.4808 36.8535 23.4808H38.2869C38.4483 24.0245 38.663 24.546 38.9304 25.0453L37.92 26.0559C37.3519 26.6241 37.3519 27.5677 37.92 28.1355L39.1923 29.407C39.7604 29.9753 40.7038 29.9753 41.2715 29.407L41.4376 29.2409V30.5908H37.5466C35.5841 28.7616 34.3815 26.5566 33.7903 24.4133C33.3642 22.8224 33.2416 21.1505 33.4475 19.4921C33.6455 17.8984 34.1465 16.3172 34.9748 14.8291L35.1279 15.3839C35.2241 15.7486 35.5989 15.9642 35.9625 15.8638C36.3262 15.7634 36.5376 15.3863 36.433 15.0235L35.8413 12.8759C35.7335 12.4733 35.3976 12.2984 35.0178 12.4002L32.8026 12.9768C31.912 13.1943 32.2599 14.532 33.1436 14.2877L33.8246 14.11C32.891 15.7694 32.3247 17.5407 32.1031 19.3246C31.8755 21.1584 32.011 23.0052 32.482 24.7622C33.1843 27.1503 34.1804 28.9615 35.6406 30.5898H6.22978L6.22916 11.0973ZM47.1143 11.6295C47.1907 11.6295 47.2309 11.6697 47.2309 11.7461V13.6197C47.2309 13.9357 47.4497 14.2092 47.7579 14.2795C48.5351 14.4558 49.2772 14.764 49.9514 15.1902C50.2192 15.3586 50.5676 15.3198 50.7911 15.0963L52.1175 13.7706C52.1693 13.7187 52.229 13.7187 52.2826 13.7706L53.554 15.0426C53.6058 15.0944 53.6058 15.1541 53.554 15.2078L52.2326 16.5293C52.0092 16.7524 51.9703 17.1004 52.1378 17.3683C52.562 18.0439 52.8674 18.7874 53.0414 19.5658C53.1108 19.875 53.3851 20.0952 53.7025 20.0943H55.5786C55.6549 20.0943 55.6942 20.1345 55.6942 20.2109V22.0096C55.6942 22.086 55.654 22.1253 55.5786 22.1253H53.7053C53.3893 22.1253 53.1154 22.3446 53.0456 22.6523C52.8693 23.4297 52.5612 24.172 52.1351 24.8458C51.9658 25.1137 52.0046 25.4626 52.2276 25.6866L53.554 27.0122C53.6058 27.0641 53.6058 27.1238 53.554 27.1774L52.2827 28.449C52.2309 28.5008 52.1712 28.5008 52.1175 28.449L50.7957 27.1274C50.5723 26.9044 50.2244 26.8655 49.957 27.0335C49.2815 27.4578 48.5384 27.7633 47.7598 27.9372C47.4507 28.0066 47.2305 28.281 47.2315 28.5985V30.474C47.2315 30.5503 47.1912 30.5906 47.1149 30.5906H45.3165C45.2402 30.5906 45.2008 30.5503 45.2008 30.474V28.6017C45.2008 28.2852 44.9815 28.0108 44.6729 27.9409C43.8957 27.7646 43.1546 27.4564 42.4809 27.0302C42.213 26.8609 41.8637 26.9002 41.6402 27.1242L40.3138 28.4499C40.262 28.5017 40.2037 28.5017 40.1501 28.4499L38.8773 27.1783C38.8255 27.1265 38.8255 27.0668 38.8773 27.0131L40.1991 25.6916C40.4225 25.4685 40.4614 25.1205 40.2944 24.8526C39.8701 24.177 39.5648 23.4343 39.3908 22.656C39.3224 22.3464 39.0476 22.1262 38.7302 22.1262H36.8541C36.7778 22.1262 36.738 22.0859 36.738 22.0105V20.2118C36.738 20.1354 36.7782 20.0952 36.8541 20.0952H38.7273C39.0438 20.0952 39.3177 19.8768 39.388 19.5681C39.5643 18.7907 39.8724 18.0485 40.2985 17.3747C40.4678 17.1068 40.4285 16.7574 40.2046 16.5339L38.8782 15.2082C38.8264 15.1564 38.8264 15.0967 38.8782 15.043L40.1509 13.771C40.2027 13.7192 40.261 13.7192 40.3147 13.771L41.636 15.093C41.859 15.3165 42.2069 15.3554 42.4748 15.1883C43.1503 14.764 43.8937 14.4586 44.672 14.2846C44.9815 14.2161 45.2017 13.9413 45.2017 13.6238V11.7474C45.2017 11.6711 45.2419 11.6308 45.279 11.6308L47.1143 11.6295ZM19.9645 13.8021C19.9631 13.8021 9.61355 13.8071 9.61355 13.8071C9.23001 13.7947 8.91125 14.1001 8.91125 14.4841C8.91125 14.8682 9.23001 15.175 9.61355 15.1611H19.7697C20.1514 15.1736 20.4692 14.87 20.4711 14.4878C20.4729 14.1056 20.1588 13.7974 19.9636 13.8025L19.9645 13.8021ZM46.2165 15.8215C43.3041 15.8215 40.9285 18.1972 40.9285 21.1105C40.9285 24.0234 43.3042 26.3995 46.2165 26.3995C49.1288 26.3995 51.5043 24.0233 51.5043 21.1105C51.5043 18.1977 49.129 15.8215 46.2165 15.8215ZM9.61415 16.5156C8.71105 16.5156 8.71105 17.8705 9.61415 17.8705H29.9264C30.3007 17.8705 30.6038 17.5674 30.6038 17.1931C30.6038 16.8187 30.3007 16.5156 29.9264 16.5156L9.61415 16.5156ZM59.31 16.8918C58.8543 16.8793 58.5188 17.3147 58.6433 17.7538C59.0694 19.3448 59.192 21.0166 58.9861 22.6751C58.7802 24.333 58.2473 25.9767 57.3581 27.5171C56.4688 29.0576 55.3123 30.3422 53.9793 31.3496C52.832 32.2167 51.5537 32.8779 50.2051 33.3171L50.5456 32.7174C50.8097 32.2662 50.485 31.698 49.9617 31.6975C49.7146 31.6975 49.4866 31.8322 49.3681 32.0496L48.2675 33.9875C48.0852 34.3091 48.1948 34.7177 48.5136 34.9051L50.4892 36.0652C51.2733 36.5456 51.9762 35.3485 51.1748 34.8973L50.6576 34.5933C52.1349 34.1083 53.5357 33.3822 54.7951 32.4304C56.2691 31.3166 57.5502 29.8942 58.5306 28.1954C59.5114 26.4967 60.1022 24.6763 60.3298 22.8424C60.5573 21.0086 60.4218 19.1609 59.9509 17.4039C59.8764 17.1087 59.6145 16.9 59.3101 16.8926L59.31 16.8918ZM46.2165 17.1768C48.397 17.1768 50.15 18.9297 50.15 21.111C50.15 23.2919 48.3975 25.0462 46.2165 25.0462C44.0356 25.0462 42.2816 23.2919 42.2816 21.111C42.2816 18.9301 44.0356 17.1768 46.2165 17.1768ZM9.61415 19.2244C8.7203 19.2369 8.7203 20.57 9.61415 20.5789H29.9264C30.2979 20.5766 30.5968 20.2726 30.5968 19.9014C30.5968 19.5299 30.2975 19.2277 29.9264 19.224L9.61415 19.2244ZM29.9335 21.9337H29.9285H9.61617C9.23262 21.9212 8.91386 22.2266 8.91386 22.6107C8.91386 22.9948 9.23262 23.3016 9.61617 23.2877H29.9285C30.3102 23.3002 30.628 22.9966 30.6303 22.6144C30.6322 22.2322 30.318 21.924 29.9359 21.9337L29.9335 21.9337ZM9.61415 24.6421C9.24033 24.6425 8.93775 24.9452 8.93775 25.3191V28.0288C8.93775 28.4027 9.24079 28.7054 9.61415 28.7054H16.3855C16.7594 28.7054 17.0619 28.4027 17.0624 28.0288V25.3191C17.0624 24.9452 16.7594 24.6421 16.3855 24.6421H9.61415ZM23.1565 24.6421C22.7826 24.6421 22.4796 24.9452 22.4796 25.3191V28.0288C22.4801 28.4027 22.7826 28.7054 23.1565 28.7054H29.9269C30.3007 28.7058 30.6042 28.4027 30.6047 28.0288V25.3191C30.6047 24.9447 30.3007 24.6416 29.9269 24.6421H23.1565ZM10.2928 25.997H15.7087V27.3506H10.2928V25.997ZM23.8339 25.997H29.2511V27.3506H23.8339V25.997ZM1.35539 37.8881H63.6472V41.9532H1.35539V37.8881ZM34.8701 39.2402C34.8687 39.2402 30.325 39.2425 30.325 39.2425C29.9428 39.23 29.6269 39.5373 29.6269 39.9195C29.6269 40.3017 29.9433 40.6085 30.325 40.5965H34.6762C35.056 40.609 35.3711 40.3036 35.373 39.9232C35.3743 39.5433 35.0634 39.2356 34.8696 39.2393L34.8701 39.2402ZM28.8135 43.3082H36.1872L38.8091 48.6449H26.1918L28.8135 43.3082Z" fill="white"/>
</svg>
