<svg width="34" height="34" viewBox="0 0 34 34" fill="none" xmlns="http://www.w3.org/2000/svg">
<path d="M31.0515 23.7292C30.584 27.4975 27.4957 30.5858 23.7273 31.0533C21.4465 31.3367 19.3215 30.7133 17.664 29.495C16.7148 28.8008 16.9415 27.3275 18.0748 26.9875C22.339 25.6983 25.6965 22.3267 26.9998 18.0625C27.3398 16.9433 28.8132 16.7167 29.5073 17.6517C30.7115 19.3233 31.3348 21.4483 31.0515 23.7292Z" fill="#252B33"/>
<path d="M14.1551 2.8335C7.9076 2.8335 2.83594 7.90516 2.83594 14.1527C2.83594 20.4002 7.9076 25.4718 14.1551 25.4718C20.4026 25.4718 25.4743 20.4002 25.4743 14.1527C25.4601 7.90516 20.4026 2.8335 14.1551 2.8335ZM12.8234 12.566L16.2376 13.756C17.4701 14.1952 18.0651 15.0593 18.0651 16.391C18.0651 17.921 16.8468 19.1818 15.3593 19.1818H15.2318V19.2527C15.2318 19.8335 14.7501 20.3152 14.1693 20.3152C13.5884 20.3152 13.1068 19.8335 13.1068 19.2527V19.1677C11.5343 19.0968 10.2734 17.7793 10.2734 16.136C10.2734 15.5552 10.7551 15.0735 11.3359 15.0735C11.9168 15.0735 12.3984 15.5552 12.3984 16.136C12.3984 16.646 12.7668 17.0568 13.2201 17.0568H15.3451C15.6709 17.0568 15.9259 16.7593 15.9259 16.391C15.9259 15.8952 15.8409 15.8668 15.5151 15.7535L12.1009 14.5635C10.8826 14.1385 10.2734 13.2743 10.2734 11.9285C10.2734 10.3985 11.4918 9.13766 12.9793 9.13766H13.1068V9.081C13.1068 8.50016 13.5884 8.0185 14.1693 8.0185C14.7501 8.0185 15.2318 8.50016 15.2318 9.081V9.166C16.8043 9.23683 18.0651 10.5543 18.0651 12.1977C18.0651 12.7785 17.5834 13.2602 17.0026 13.2602C16.4218 13.2602 15.9401 12.7785 15.9401 12.1977C15.9401 11.6877 15.5718 11.2768 15.1184 11.2768H12.9934C12.6676 11.2768 12.4126 11.5743 12.4126 11.9427C12.3984 12.4243 12.4834 12.4527 12.8234 12.566Z" fill="#252B33"/>
</svg>
