<svg width="134" height="68" viewBox="0 0 134 68" fill="none" xmlns="http://www.w3.org/2000/svg">
<g clip-path="url(#clip0_1_4044)">
<path d="M19.8802 39.5645C18.5826 42.5435 16.5539 43.874 13.3007 43.874C7.36821 43.874 5.25912 38.859 5.25912 34.5678C5.25912 30.2765 7.33167 25.1957 13.1655 25.1957C16.6636 25.1957 18.7434 26.5773 19.9095 29.6697L20.041 30.0352H22.9434L22.8044 29.3735C21.9016 25.0713 18.3377 22.5054 13.2678 22.5054C5.65026 22.5054 2.17773 28.7778 2.17773 34.6042C2.17773 41.765 6.62254 46.5753 13.2349 46.5753C18.0161 46.5753 21.4008 44.225 22.7569 39.9556L22.9835 39.2246H20.0264L19.8802 39.5645Z" fill="white"/>
<path d="M32.9438 28.833C28.0311 28.833 24.7305 32.4225 24.7305 37.7664C24.7305 43.1104 27.9618 46.6999 32.772 46.6999C38.4633 46.6999 41.0549 42.0504 41.0549 37.7336C41.0549 32.4115 37.7944 28.833 32.9438 28.833ZM32.9109 44.0974C29.8076 44.0974 27.64 41.4948 27.64 37.7664C27.64 33.8004 29.5846 31.4355 32.8415 31.4355C36.7562 31.4355 38.1453 34.8458 38.1453 37.7664C38.1453 41.6775 36.1386 44.0974 32.9109 44.0974Z" fill="white"/>
<path d="M62.0325 28.8328C59.0901 28.8328 57.4269 30.1889 56.5314 31.3915C55.5737 29.7723 53.7607 28.8328 51.4944 28.8328C50.629 28.801 49.7674 28.9604 48.9706 29.2997C48.1739 29.6389 47.4618 30.1497 46.8851 30.7957C46.8851 30.3789 46.8486 29.9989 46.8302 29.732L46.7974 29.2167H44.0449V29.7832C44.0779 31.0224 44.0779 32.5466 44.0779 33.8954V46.3232H46.8851V36.9657C46.8851 34.323 48.0366 31.4828 51.2714 31.4828C53.5889 31.4828 54.6234 32.7074 54.6234 35.4488V46.2977H57.3977V36.56C57.3977 33.3982 58.995 31.5085 61.6743 31.5085C63.9661 31.5085 65.1286 32.8316 65.1286 35.4415V46.3232H67.9357V35.2478C67.9541 31.227 65.7427 28.8328 62.0325 28.8328Z" fill="white"/>
<path d="M80.4816 28.833C77.8462 28.833 76.2013 29.7102 75.1778 30.7592V21.6211H72.367V40.263C72.367 42.054 72.367 43.9182 72.334 45.7459V46.3015H75.0791L75.1156 45.7969C75.1156 45.6069 75.145 45.3072 75.1596 44.9417C76.2817 46.115 77.8974 46.6889 80.0467 46.6889C84.9118 46.6889 88.0554 43.0337 88.0554 37.4046C88.0443 32.3639 84.9337 28.833 80.4816 28.833ZM80.1162 44.0973C76.7313 44.0973 75.0828 42.0357 75.0828 37.7993C75.0828 33.4568 76.7496 31.4354 80.3208 31.4354C83.245 31.4354 85.1458 33.7931 85.1458 37.4447C85.1348 41.6118 83.2523 44.0973 80.1051 44.0973H80.1162Z" fill="white"/>
<path d="M94.0338 29.2197H91.2266V46.3155H94.0338V29.2197Z" fill="white"/>
<path d="M106.388 28.833C104.148 28.833 102.452 29.5201 101.271 30.9201C101.271 30.401 101.234 29.9258 101.202 29.6955L101.14 29.2167H98.4199V29.7796C98.4528 31.0554 98.4528 32.3858 98.4528 33.8004V46.3161H101.26V37.6056C101.26 35.3247 101.9 31.4976 106.187 31.4976C108.677 31.4976 109.883 32.8574 109.883 35.6536V46.3125H112.679V35.3978C112.679 31.2894 110.332 28.833 106.388 28.833Z" fill="white"/>
<path d="M123.706 28.833C118.863 28.833 115.734 32.3895 115.734 37.8944C115.734 41.9554 117.767 46.6999 123.502 46.6999C128.374 46.6999 130.143 43.6368 130.765 41.8164L131.01 41.0854H128.151L128.001 41.3998C127.376 42.734 126.36 44.0937 123.571 44.0937C120.673 44.0937 118.797 41.9663 118.593 38.5047H131.127L131.167 38.0004C131.203 37.5618 131.203 37.0939 131.203 36.6443C131.203 33.7457 129.624 28.833 123.706 28.833ZM123.644 31.4428C126.287 31.4428 128.071 33.2156 128.305 36.0082H118.761C119.258 32.9305 120.866 31.4428 123.644 31.4428Z" fill="white"/>
<path d="M92.6293 25.8391C93.7901 25.8391 94.731 24.8981 94.731 23.7372C94.731 22.5765 93.7901 21.6355 92.6293 21.6355C91.4685 21.6355 90.5275 22.5765 90.5275 23.7372C90.5275 24.8981 91.4685 25.8391 92.6293 25.8391Z" fill="white"/>
</g>
<defs>
<clipPath id="clip0_1_4044">
<rect width="130.331" height="66.4688" fill="white" transform="translate(1.52344 0.92627)"/>
</clipPath>
</defs>
</svg>
