<svg width="42" height="80" viewBox="0 0 42 80" fill="none" xmlns="http://www.w3.org/2000/svg">
<path d="M1.09999 43.6004L20.0001 55.1004C20.2001 55.2004 20.4001 55.3004 20.7001 55.3004C20.9001 55.3004 21.2 55.2004 21.4 55.1004L40.2999 43.6004C40.7999 43.3004 41.0999 42.7004 41.2999 42.0004C41.3999 41.3004 41.3001 40.5004 41.0001 39.9004L22.1 1.40039C21.8 0.700391 21.2001 0.400391 20.7001 0.400391C20.2001 0.400391 19.5999 0.800391 19.2999 1.40039L0.400041 39.9004C0.100041 40.5004 -7.62939e-06 41.3004 0.0999924 42.0004C0.199992 42.8004 0.599992 43.4004 1.09999 43.6004ZM22.4 49.1004V10.6004L36.9 40.2004L22.4 49.1004ZM18.9 10.6004V49.0004L4.29994 40.2004L18.9 10.6004Z" fill="#6BB64A"/>
<path d="M41.1006 51.7011C40.6006 50.7011 39.8007 50.3011 39.0007 50.7011L20.7007 61.8011L2.40063 50.7011C1.60063 50.2011 0.70053 50.6011 0.30053 51.7011C-0.0994703 52.7011 0.000578523 54.1011 0.600579 54.9011L19.5007 79.7011C19.8007 80.1011 20.2007 80.3011 20.7007 80.3011C21.2007 80.3011 21.5006 80.1011 21.9006 79.7011L40.8005 54.9011C41.4005 54.0011 41.5006 52.7011 41.1006 51.7011ZM20.7007 74.5011L10.4006 61.0011L20.0007 66.9011C20.4007 67.2011 20.9005 67.2011 21.3005 66.9011L30.9006 61.0011C31.0006 61.0011 20.7007 74.5011 20.7007 74.5011Z" fill="#6BB64A"/>
</svg>
