<svg width="60" height="65" viewBox="0 0 60 65" fill="none" xmlns="http://www.w3.org/2000/svg">
<path d="M34.2565 15.0858C34.2565 17.4202 32.3466 19.319 30.0004 19.319C27.6542 19.319 25.7443 17.4194 25.7443 15.0858C25.7443 12.7522 27.6542 10.8535 30.0004 10.8535C32.3466 10.8535 34.2565 12.7523 34.2565 15.0858ZM19.7964 54.114C18.7457 54.114 17.8898 54.9654 17.8898 56.0105C17.8898 57.0555 18.7457 57.9069 19.7964 57.9069C20.8472 57.9069 21.7031 57.0555 21.7031 56.0105C21.7031 54.9654 20.8471 54.114 19.7964 54.114ZM41.8623 43.9878C40.8116 43.9878 39.9557 44.8392 39.9557 45.8842C39.9557 46.9293 40.8116 47.7807 41.8623 47.7807C42.913 47.7807 43.769 46.9293 43.769 45.8842C43.769 44.8392 42.913 43.9878 41.8623 43.9878ZM60 18.084V60.9535C60 63.1855 58.1756 65 55.9317 65H4.06877C1.82472 65 0.000470548 63.1854 0.000470548 60.9535L0 18.084C0 15.852 1.82437 14.0375 4.0683 14.0375H14.8857C14.9333 13.3603 15.0081 12.6915 15.145 12.0488C15.2495 11.5635 15.6781 11.2176 16.1769 11.2176H19.1164C19.2406 10.8633 19.3893 10.5109 19.5582 10.1618L17.4784 8.09306C17.1241 7.74064 17.0671 7.1893 17.3447 6.77319C18.4675 5.08548 19.9576 3.60374 21.6544 2.48659C22.0718 2.21186 22.6261 2.26663 22.9814 2.61952L25.0673 4.69422C25.408 4.53509 25.7557 4.39235 26.1068 4.26972L26.1072 1.33702C26.1072 0.840922 26.4559 0.413617 26.9429 0.310648C28.9046 -0.103549 31.0917 -0.103549 33.053 0.310648C33.54 0.413614 33.8887 0.840922 33.8887 1.33702V4.26217C34.244 4.38572 34.595 4.53175 34.9385 4.69836L37.015 2.63301C37.367 2.28292 37.9152 2.2263 38.3326 2.49353C40.0506 3.59948 41.5465 5.08727 42.6583 6.79606C42.9279 7.21119 42.8691 7.75738 42.5181 8.10659L40.4416 10.1719C40.6091 10.5145 40.7559 10.8627 40.8801 11.2161H43.8196C44.3184 11.2161 44.7471 11.562 44.8515 12.0473C44.9884 12.6908 45.0642 13.3596 45.1108 14.036H55.9282C58.1737 14.0369 59.9994 15.8519 59.9994 18.0839L60 18.084ZM16.9415 15.0854C16.9415 15.6873 16.9824 16.2817 17.0629 16.8583H19.8994C20.3746 16.8583 20.792 17.1761 20.9167 17.6319C21.1148 18.3532 21.392 19.0192 21.7675 19.6669C22.0056 20.0778 21.9373 20.5968 21.5999 20.931L19.594 22.9262C20.3097 23.8791 21.1539 24.7229 22.1195 25.4455L24.1221 23.4536C24.4562 23.1222 24.9696 23.0502 25.3808 23.2795C26.0514 23.6506 26.7247 23.9254 27.4395 24.1191C27.8992 24.2427 28.2173 24.6578 28.2173 25.131V27.9523C29.3786 28.1114 30.6213 28.1114 31.7832 27.9523V25.131C31.7832 24.6517 32.1111 24.2338 32.577 24.1149C33.2696 23.9389 33.9505 23.6567 34.5984 23.2771C35.0139 23.0338 35.5395 23.1021 35.8793 23.4386L37.8852 25.4338C38.8432 24.7219 39.6916 23.8823 40.4168 22.9219L38.4141 20.9299C38.081 20.5986 38.0094 20.087 38.2391 19.678C38.6122 19.0111 38.8884 18.3414 39.0832 17.6304C39.2075 17.1731 39.6248 16.8567 40.1006 16.8567H42.937C43.017 16.2792 43.0584 15.6858 43.0584 15.0839C43.0584 14.482 43.0175 13.8885 42.937 13.3119H40.1006C39.6178 13.3119 39.1985 12.9857 39.0781 12.5214C38.904 11.8358 38.6207 11.1585 38.2367 10.5108C37.9944 10.099 38.0607 9.57571 38.4 9.23828L40.4046 7.24445C39.6912 6.2967 38.8362 5.44532 37.8824 4.73578L35.8778 6.73093C35.5385 7.06977 35.0115 7.1367 34.5969 6.8924C33.9485 6.51283 33.2677 6.23109 32.5755 6.05464C32.1097 5.93716 31.7817 5.51781 31.7817 5.03855L31.7822 2.21777C30.6209 2.05864 29.3781 2.05864 28.2163 2.21777V5.03903C28.2163 5.51173 27.8968 5.92688 27.4385 6.0509C26.7237 6.24466 26.0504 6.51845 25.3798 6.89053C24.9667 7.12127 24.4543 7.04779 24.1211 6.71643L22.1217 4.72775C21.1764 5.44477 20.3205 6.29516 19.5995 7.23642L21.5989 9.2251C21.9363 9.55974 22.0046 10.0783 21.7665 10.4893C21.3787 11.159 21.094 11.8428 20.9214 12.5219C20.8023 12.9862 20.3816 13.3124 19.8989 13.3124H17.0624C16.9824 13.8904 16.9415 14.4825 16.9415 15.0853L16.9415 15.0854ZM52.5182 56.0103C52.5182 55.4305 52.0472 54.962 51.4642 54.962H23.6523C23.1856 53.271 21.6421 52.0172 19.7967 52.0172C17.9512 52.0172 16.4068 53.271 15.941 54.962H8.5364C7.9534 54.962 7.48237 55.4305 7.48237 56.0103C7.48237 56.5902 7.9534 57.0587 8.5364 57.0587H15.941C16.4077 58.7496 17.9512 60.0035 19.7967 60.0035C21.6421 60.0035 23.1865 58.7496 23.6523 57.0587H51.4654C52.047 57.0587 52.518 56.5902 52.518 56.0103H52.5182ZM52.5182 45.8841C52.5182 45.3042 52.0472 44.8357 51.4642 44.8357H45.7179C45.2511 43.1448 43.7076 41.891 41.8622 41.891C40.0167 41.891 38.4723 43.1448 38.0065 44.8357H8.53592C7.95292 44.8357 7.48189 45.3042 7.48189 45.8841C7.48189 46.464 7.95292 46.9325 8.53592 46.9325H38.0065C38.4733 48.6234 40.0167 49.8773 41.8622 49.8773C43.7076 49.8773 45.2521 48.6234 45.7179 46.9325H51.4642C52.0472 46.9325 52.5182 46.4626 52.5182 45.8841ZM52.5182 35.7566C52.5182 35.1767 52.0472 34.7082 51.4642 34.7082H29.573C29.1062 33.0173 27.5627 31.7634 25.7173 31.7634C23.8718 31.7634 22.3274 33.0173 21.8616 34.7082H8.53628C7.95328 34.7082 7.48225 35.1767 7.48225 35.7566C7.48225 36.3365 7.95328 36.805 8.53628 36.805H21.8616C22.3284 38.4959 23.8718 39.7498 25.7173 39.7498C27.5627 39.7498 29.1071 38.4959 29.573 36.805H51.4642C52.0477 36.805 52.5187 36.3365 52.5187 35.7566H52.5182ZM25.7182 33.8616C24.6675 33.8616 23.8116 34.713 23.8116 35.758C23.8116 36.8031 24.6675 37.6544 25.7182 37.6544C26.769 37.6544 27.6249 36.8031 27.6249 35.758C27.6249 34.7125 26.769 33.8616 25.7182 33.8616Z" fill="#1D4354"/>
<circle cx="30" cy="15" r="5" fill="#6BB64A"/>
<circle cx="26" cy="36" r="3" fill="#6BB64A"/>
<circle cx="42" cy="46" r="3" fill="#6BB64A"/>
<circle cx="20" cy="56" r="3" fill="#6BB64A"/>
</svg>
