<svg width="69" height="69" viewBox="0 0 69 69" fill="none" xmlns="http://www.w3.org/2000/svg">
<path d="M43.1576 4.3993C43.1576 1.93137 41.2262 0 38.7583 0H4.42274C2.06205 0 0.0234375 1.93137 0.0234375 4.3993V8.15444H43.1566L43.1576 4.3993ZM27.2771 4.93576H15.9039C15.4746 4.93576 15.0453 4.61369 15.0453 4.07723C15.0453 3.64797 15.3674 3.2187 15.9039 3.2187H27.1699C27.5992 3.2187 28.0284 3.54078 28.0284 4.07723C28.0284 4.50649 27.7064 4.93576 27.2771 4.93576H27.2771Z" fill="#1D4354"/>
<path d="M8.06984 41.5232C8.06984 37.1239 10.6449 33.2615 14.615 31.5445C14.5078 31.1152 14.5078 30.5788 14.5078 30.1495C14.5078 22.5315 20.7309 16.4151 28.2423 16.4151C32.7488 16.4151 37.0404 18.668 39.5083 22.3166C40.5812 21.5657 41.7612 20.9216 43.0491 20.4923V9.7627H0.0234375V58.7976H43.1566V52.2524H18.9085C13.007 52.2524 8.07127 47.4243 8.07127 41.5228L8.06984 41.5232Z" fill="#1D4354"/>
<path d="M0.0234375 64.2722C0.0234375 66.7402 2.06205 68.6715 4.42274 68.6715H38.7583C41.2262 68.6715 43.1576 66.7402 43.1576 64.2722V60.5171H0.0244486L0.0234375 64.2722ZM21.5906 62.77C22.5563 62.77 23.4149 63.6286 23.4149 64.5943C23.4149 65.56 22.5564 66.4186 21.5906 66.4186C20.6249 66.4186 19.7664 65.56 19.7664 64.5943C19.7664 63.5214 20.6249 62.77 21.5906 62.77Z" fill="#1D4354"/>
<path d="M59.2507 32.2967C58.7142 32.2967 58.285 32.2967 57.8558 32.4039C57.8558 26.3952 52.92 21.5672 47.019 21.5672C44.1219 21.5672 41.3324 22.7473 39.2938 24.7859C37.2552 20.7086 33.0707 18.0264 28.3493 18.0264C21.6971 18.0264 16.2248 23.4985 16.2248 30.1509C16.2248 31.0094 16.332 31.8674 16.4392 32.6188C12.4691 33.6918 9.67969 37.3397 9.67969 41.5247C9.67969 46.5677 13.7569 50.7521 18.9071 50.7521H59.2506C64.2936 50.7521 68.478 46.6749 68.478 41.5247C68.4785 36.3741 64.2936 32.2968 59.2506 32.2968L59.2507 32.2967ZM38.3284 41.8462L34.3583 45.7091C34.2511 45.8163 34.2511 45.8163 34.1439 45.9234C34.0367 45.9234 33.9296 46.0306 33.8219 46.0306C33.7147 46.0306 33.6075 46.0306 33.4998 45.9234C33.3926 45.9234 33.2854 45.8163 33.2854 45.7091L29.3153 41.8462C28.9932 41.5241 28.9932 40.9877 29.3153 40.6661C29.6374 40.344 30.1738 40.344 30.4954 40.6661L33.0704 43.134L33.0709 29.6145C33.0709 29.1853 33.393 28.756 33.8218 28.756C34.251 28.756 34.6803 29.0781 34.6803 29.6145V43.134L37.2553 40.6661C37.5774 40.344 38.1139 40.344 38.4354 40.6661C38.6503 40.9877 38.6503 41.5241 38.3282 41.8462H38.3284ZM48.8436 34.0133C48.7364 34.1205 48.5215 34.2277 48.3071 34.2277C48.0927 34.2277 47.8778 34.1205 47.7706 34.0133L45.1956 31.5454V45.0649C45.1956 45.4941 44.8735 45.9234 44.3371 45.9234C43.9078 45.9234 43.4786 45.6013 43.4786 45.0649V31.5454L40.9035 34.0133C40.5814 34.3354 40.045 34.3354 39.7234 34.0133C39.4014 33.6913 39.4014 33.1548 39.7234 32.8332L43.6935 28.9704H44.1228C44.23 28.9704 44.3372 28.8632 44.4449 28.8632H44.7669C44.8741 28.8632 44.9813 28.9704 45.089 29.0775L48.9519 32.8327C49.1653 33.2624 49.1653 33.6917 48.8437 34.0133L48.8436 34.0133Z" fill="#6BB64A"/>
</svg>
