<svg width="68" height="68" viewBox="0 0 68 68" fill="none" xmlns="http://www.w3.org/2000/svg">
<path d="M16.8311 33.6627C16.8311 21.7303 26.5382 12.0221 38.4717 12.0221V7.2131C38.4717 5.88525 37.395 4.80859 36.0672 4.80859H26.4492C26.4492 7.46427 24.2958 9.61761 21.6401 9.61761C18.9845 9.61761 16.8311 7.46427 16.8311 4.80859H7.2131C5.88525 4.80859 4.80859 5.88525 4.80859 7.2131V60.1123C4.80859 61.4401 5.88525 62.5168 7.2131 62.5168H36.0672C37.395 62.5168 38.4717 61.4401 38.4717 60.1123V55.3032C26.5382 55.3032 16.8311 45.5951 16.8311 33.6627Z" fill="#6BB64A"/>
<path d="M40.8766 55.1632V60.1128C40.8766 62.7653 38.7201 64.9218 36.0676 64.9218H7.21352C4.56101 64.9218 2.40451 62.7653 2.40451 60.1128V7.2136C2.40451 4.56109 4.56101 2.40459 7.21352 2.40459H36.0676C38.7201 2.40459 40.8766 4.56109 40.8766 7.2136V12.1643C41.694 12.255 42.4938 12.3999 43.2811 12.5797V7.21352C43.2811 3.23592 40.0452 0 36.0676 0H7.21352C3.23592 0 0 3.23592 0 7.21352V60.1127C0 64.0903 3.23592 67.3262 7.21352 67.3262H36.0676C40.0452 67.3262 43.2811 64.0903 43.2811 60.1127V54.7498C42.4889 54.9323 41.687 55.0718 40.8766 55.1631V55.1632Z" fill="#1D4354"/>
<path d="M65.6321 52.6075L59.4136 46.3895C58.6509 45.6269 57.5185 45.5163 56.6113 45.9924L54.6523 44.0333C56.5807 41.0367 57.7131 37.4821 57.7131 33.6623C57.7131 23.0557 49.0828 14.4263 38.4757 14.4263C27.868 14.4263 19.2383 23.0557 19.2383 33.6623C19.2383 44.269 27.8687 52.8984 38.4757 52.8984C42.2961 52.8984 45.8508 51.7659 48.8472 49.8375L50.8063 51.7966C50.3302 52.7036 50.4408 53.8356 51.204 54.5983L57.4225 60.8162C58.5168 61.9133 59.9751 62.5166 61.5273 62.5166C63.0773 62.5166 64.5357 61.9133 65.6322 60.8162C67.8934 58.5528 67.8934 54.8709 65.6322 52.6076L65.6321 52.6075ZM38.4763 50.4938C29.1797 50.4938 21.6433 42.9582 21.6433 33.6623C21.6433 24.3663 29.18 16.8307 38.4763 16.8307C47.7728 16.8307 55.3092 24.3663 55.3092 33.6623C55.3092 42.9582 47.7725 50.4938 38.4763 50.4938Z" fill="#1D4354"/>
<path d="M24.0469 33.6632C24.0469 35.0705 26.7895 36.8493 31.4815 37.7982C31.3387 36.4344 31.2603 35.0426 31.2603 33.6632C31.2603 32.2839 31.3387 30.8922 31.4815 29.5283C26.7895 30.4772 24.0469 32.256 24.0469 33.6632Z" fill="#6BB64A"/>
<path d="M42.9916 29.1411C41.5945 28.9742 40.1126 28.8545 38.4692 28.8545C36.8257 28.8545 35.3438 28.9742 33.9468 29.1411C33.7798 30.5382 33.6602 32.02 33.6602 33.6635C33.6602 35.3069 33.7798 36.7888 33.9468 38.1859C35.3438 38.3528 36.8257 38.4725 38.4692 38.4725C40.1126 38.4725 41.5945 38.3528 42.9916 38.1859C43.1585 36.7888 43.2782 35.3069 43.2782 33.6635C43.2782 32.02 43.1585 30.5382 42.9916 29.1411Z" fill="#6BB64A"/>
<path d="M38.4709 26.4493C39.8502 26.4493 41.2414 26.5277 42.6058 26.6704C41.6569 21.9785 39.8781 19.2358 38.4709 19.2358C37.0636 19.2358 35.2848 21.9785 34.3359 26.6704C35.7003 26.5277 37.0915 26.4493 38.4709 26.4493Z" fill="#6BB64A"/>
<path d="M38.4709 40.8759C37.0915 40.8759 35.7003 40.7976 34.3359 40.6548C35.2849 45.3467 37.0636 48.0894 38.4709 48.0894C39.8781 48.0894 41.6569 45.3467 42.6058 40.6548C41.2414 40.7976 39.8502 40.8759 38.4709 40.8759Z" fill="#6BB64A"/>
<path d="M31.8318 40.3045C29.0483 39.8156 26.5263 39.0174 24.6875 37.9199C26.0894 42.4632 29.6736 46.048 34.2169 47.4489C33.1193 45.6101 32.3206 43.0881 31.8318 40.3046V40.3045Z" fill="#1D4354"/>
<path d="M45.1156 40.3046C44.6267 43.0881 43.828 45.6101 42.7305 47.4489C47.2738 46.0476 50.8585 42.4633 52.2599 37.9199C50.421 39.0175 47.8991 39.8162 45.1156 40.3045V40.3046Z" fill="#1D4354"/>
<path d="M31.8318 27.0212C32.3207 24.2378 33.1194 21.7158 34.2169 19.877C29.6736 21.2783 26.0888 24.8625 24.6875 29.4059C26.5263 28.3084 29.0483 27.5097 31.8318 27.0214V27.0212Z" fill="#1D4354"/>
<path d="M45.1156 27.0214C47.8991 27.5103 50.421 28.3084 52.2599 29.4059C50.858 24.8627 47.2738 21.2779 42.7305 19.877C43.8281 21.7158 44.6267 24.2378 45.1156 27.0212V27.0214Z" fill="#1D4354"/>
<path d="M52.8994 33.6632C52.8994 32.256 50.1568 30.4772 45.4648 29.5283C45.6076 30.8927 45.686 32.2839 45.686 33.6632C45.686 35.0426 45.6076 36.4343 45.4648 37.7982C50.1568 36.8493 52.8994 35.0705 52.8994 33.6632Z" fill="#6BB64A"/>
</svg>
