<svg width="75" height="75" viewBox="0 0 75 75" fill="none" xmlns="http://www.w3.org/2000/svg">
<path d="M68.4439 0H64.7106V3.73335C64.7106 4.06335 64.5794 4.38002 64.3461 4.61336C64.1128 4.84669 63.7961 4.9778 63.4661 4.9778H46.0438C45.3566 4.9778 44.7994 4.42057 44.7994 3.73335V0H41.066C39.4159 0 37.8333 0.655562 36.6659 1.82216C35.4992 2.98938 34.8438 4.57218 34.8438 6.22225V68.4448C34.8438 70.0948 35.4993 71.6775 36.6659 72.8449C37.8331 74.0115 39.4159 74.667 41.066 74.667H68.4439C70.094 74.667 71.6766 74.0115 72.844 72.8449C74.0107 71.6776 74.6662 70.0948 74.6662 68.4448V6.22225C74.6662 4.57218 74.0106 2.98953 72.844 1.82216C71.6768 0.655491 70.094 0 68.4439 0ZM58.4883 69.6892H51.0216C50.3344 69.6892 49.7772 69.132 49.7772 68.4448C49.7772 67.7575 50.3344 67.2003 51.0216 67.2003H58.4883C59.1755 67.2003 59.7328 67.7575 59.7328 68.4448C59.7328 69.132 59.1755 69.6892 58.4883 69.6892Z" fill="#6BB64A"/>
<path d="M32.3557 68.4449V62.2227H0V68.4449C0 70.095 0.655562 71.6776 1.82216 72.845C2.98938 74.0117 4.57218 74.6672 6.22225 74.6672H34.9939C33.2984 73.0427 32.3445 70.7933 32.3556 68.4449H32.3557ZM21.1557 70.9338C20.4957 70.9338 19.8623 70.6716 19.3956 70.2049C18.929 69.7383 18.6668 69.1049 18.6668 68.4449C18.6668 67.7849 18.929 67.1516 19.3956 66.6849C19.8623 66.2182 20.4957 65.956 21.1557 65.956C21.8157 65.956 22.449 66.2182 22.9157 66.6849C23.3823 67.1516 23.6446 67.7849 23.6446 68.4449C23.6446 69.1049 23.3823 69.7383 22.9157 70.2049C22.449 70.6716 21.8157 70.9338 21.1557 70.9338Z" fill="#1D4354"/>
<path d="M6.22225 0C4.57218 0 2.98952 0.655562 1.82216 1.82216C0.655491 2.98938 0 4.57218 0 6.22225V59.7336H32.3557V6.22225C32.3446 3.87387 33.2985 1.62447 34.9941 0H6.22225ZM23.6446 7.4667H16.1779C15.4906 7.4667 14.9334 6.90947 14.9334 6.22225C14.9334 5.53503 15.4906 4.9778 16.1779 4.9778H23.6446C24.3318 4.9778 24.889 5.53503 24.889 6.22225C24.889 6.90947 24.3318 7.4667 23.6446 7.4667Z" fill="#1D4354"/>
</svg>
