<svg width="76" height="76" viewBox="0 0 76 76" fill="none" xmlns="http://www.w3.org/2000/svg">
<path d="M37.6654 17.4448C26.4848 17.4448 17.4453 26.5634 17.4453 37.6649C17.4453 48.7659 26.4849 57.885 37.6654 57.885C48.846 57.885 57.8855 48.7665 57.8855 37.6649C57.8855 26.564 48.846 17.4448 37.6654 17.4448ZM37.4276 54.7133C37.3485 54.7924 37.3485 54.9511 37.3485 55.1099C27.9123 54.872 20.2209 47.1804 20.2209 37.665C20.2209 33.4624 21.7276 29.4187 24.5025 26.2465C24.5025 26.4843 24.4234 27.3566 24.5025 27.7532C24.5816 28.2289 25.1369 29.4977 24.5816 30.687C23.7093 32.4315 23.8681 35.1273 24.4228 35.9206C24.7398 36.3962 26.4844 38.6164 26.8018 38.9339C26.9606 39.0926 27.4362 40.4406 27.5153 40.7575C27.6741 41.2332 28.9424 42.7399 30.3699 42.7399H30.5287C31.084 42.7399 31.7179 43.0568 32.1942 43.2952C32.432 43.3743 32.5907 43.454 32.6698 43.5331C32.6698 43.5331 33.2252 44.4053 33.9387 44.881C34.0974 44.9601 35.2075 45.5945 35.4454 45.7533C35.0488 46.229 34.4144 47.1012 34.6522 48.2113C34.8901 49.718 36.8725 51.3828 37.586 51.8591C37.7447 52.3348 37.6657 54.3171 37.4278 54.7131L37.4276 54.7133ZM53.1279 38.9336C52.9692 39.3302 52.7313 39.9646 52.6522 40.0437C52.1765 40.4403 51.5421 43.6916 51.5421 43.6916C51.463 44.0882 52.0975 45.7531 52.6522 46.4672C50.432 50.2732 46.7843 53.0486 42.5817 54.3175C42.5817 54.3175 42.6608 54.1587 42.7404 54.0796C42.8992 53.8418 43.8505 52.9695 44.0093 52.8904C44.4058 52.6526 46.0708 50.9872 46.3085 50.5115C46.7051 49.7183 47.3395 48.9257 47.4977 48.767C47.8943 48.45 48.053 47.2602 47.339 46.5467C47.022 46.1501 46.2289 46.2298 45.9119 46.3089C45.7532 46.2298 45.2775 45.992 45.1188 45.8332C44.8809 45.1988 43.8499 44.2475 43.3743 44.2475C43.2952 44.2475 42.8986 44.0887 42.7399 43.9305C42.1845 43.217 40.5196 42.8995 40.044 42.8995C39.7271 42.8995 39.2508 42.8204 38.9339 42.6617C38.3786 42.4238 37.6651 42.6617 36.8724 43.0583C36.7933 43.0583 36.7136 43.1374 36.7136 43.1374C36.5549 43.1374 36.0001 43.0583 35.6035 42.8995V42.5029C35.6035 42.186 35.5244 41.8685 35.4448 41.6307C35.286 41.3928 35.0482 41.2341 34.5725 41.0753L34.6516 40.9166C34.7307 40.7578 34.6516 40.52 34.5725 40.4409C34.4934 40.2031 34.2556 40.0443 34.0172 40.0443C33.9381 40.0443 33.8585 39.9652 33.7794 39.9652C33.3828 39.8065 32.828 39.6483 32.3523 40.0443C32.2732 40.1234 32.1936 40.2031 32.1145 40.2031C31.9557 40.2031 31.7179 40.0443 31.401 39.8861C31.401 39.7274 31.4801 39.4104 31.7179 38.6969C31.797 38.5382 31.797 38.4591 31.8767 38.38C32.1936 38.3009 32.9077 38.3009 33.7799 38.1422C33.9386 38.1422 34.1764 38.0631 34.3352 38.0631C34.4939 38.1422 34.7318 38.3009 34.8109 38.38C34.89 38.4591 34.89 38.5387 34.9696 38.6178C35.0487 38.7766 35.2075 39.2523 35.7628 39.0935C36.556 38.9348 36.556 38.0625 36.4763 37.6665V37.5874C36.5554 37.4287 36.8729 36.8739 37.0317 36.7942C37.4282 36.5564 38.2208 35.6841 38.2208 34.9706C38.2999 34.8915 38.5378 34.7328 38.9344 34.4153C39.0931 34.3362 39.1722 34.2565 39.2513 34.1774C39.3304 34.0983 39.3304 34.0983 39.41 34.0983C39.6479 33.9396 40.2032 33.7018 40.2823 33.0673C40.4411 33.0673 40.6789 32.9882 41.1546 32.9086L41.4715 32.8295C41.7885 32.7504 42.2647 32.6708 42.4229 32.2742C42.6607 31.8776 42.502 31.481 42.3438 31.1641L42.2647 31.0053C42.1856 30.8466 42.1856 30.8466 42.3438 30.6884C42.4229 30.6093 42.7404 30.6093 42.8991 30.6093C43.2161 30.5302 43.6923 30.5302 44.0883 30.3715C44.4849 30.2127 44.7227 29.9749 44.8815 29.6579C45.0402 29.1823 44.7227 28.7857 44.5645 28.5478L44.4855 28.4687C44.2476 28.0722 43.9301 27.7552 43.6923 27.5174C43.6923 27.4383 43.6132 27.2795 43.5335 26.883C43.4544 26.6451 43.4544 26.4864 43.3748 26.3276C43.2957 26.0898 43.0579 25.8519 42.8195 25.7723C42.5816 25.6932 42.3438 25.6932 42.1059 25.7723C42.0268 25.6135 42.0268 25.5344 41.8681 25.3757L41.4715 24.9791C41.2337 24.8204 41.0749 24.7413 40.9162 24.6622C40.6783 24.4243 40.3608 24.3452 40.123 24.3452C39.6473 24.4243 39.4095 24.8209 39.2507 25.2175C39.1716 25.2966 39.1716 25.4554 39.092 25.5344C38.6954 26.0101 38.4576 26.3276 38.4576 26.6445L38.061 27.0411L37.9819 26.962C37.744 26.7242 37.4266 26.7242 37.1887 26.7242C37.03 26.5654 36.6334 26.3276 35.9199 26.0107V25.535C35.999 25.4559 36.0786 25.2971 36.2368 25.0593C36.3956 24.8215 36.7921 24.2661 36.8712 24.187C37.03 24.1079 37.2678 24.0283 37.5848 23.8701C37.9813 23.6323 38.6949 23.3148 39.0118 23.3148C39.2496 23.3148 39.4084 23.156 39.4875 23.0769C39.6462 22.9182 39.7253 22.6012 39.6462 22.2838C39.5671 21.6493 39.0118 21.4906 38.6152 21.4115H38.5361C38.2192 20.9358 37.7429 21.0149 37.5847 21.0945C37.5057 21.0945 37.426 21.1736 37.3469 21.1736C37.2678 21.1736 35.8402 20.698 35.8402 20.698C35.2057 20.6189 34.7301 20.5392 34.2544 20.4601C37.7435 19.7466 41.2325 20.0635 44.4831 21.4115C44.4831 21.4906 44.5622 21.5702 44.5622 21.7284C44.6413 21.8872 44.8001 22.125 44.9588 22.3628C45.1967 22.7594 45.5141 23.156 45.5141 23.4729C45.5141 24.1074 46.1486 24.5039 46.6242 24.7418C46.7033 24.7418 46.783 24.8209 46.783 24.8209C46.8621 25.0587 47.0208 25.2175 47.3383 25.4553C47.8936 25.8519 48.6863 26.1688 49.2415 25.7722C49.4003 25.6932 49.7969 25.5344 50.5104 25.6135C50.986 26.1688 51.4617 26.7236 51.8583 27.279C51.3826 27.8343 50.8273 28.4682 50.9069 29.1026C50.986 29.8161 51.7001 30.6093 52.4927 31.0058C53.048 31.3228 53.1271 31.8781 53.1271 31.8781C53.1271 32.0368 53.1271 32.195 53.9994 32.7503C53.9203 32.9091 53.8406 33.0673 53.7615 33.0673C53.1271 33.226 53.1271 34.653 53.1271 34.653C53.1271 35.2084 53.6824 35.8422 54.1581 36.2388C54.3169 36.3179 54.6338 36.5557 55.1095 36.2388V36.6354C54.6338 36.7941 54.1581 37.032 53.9203 37.1907C53.683 37.6647 53.5243 38.0613 53.1277 38.9336L53.1279 38.9336Z" fill="#1D4354"/>
<path d="M33.1455 7.05701H35.5245V13.1628C35.5245 13.5594 35.8414 13.8764 36.238 13.8764H38.9339C39.3304 13.8764 39.6474 13.5594 39.6474 13.1628V7.05701H42.0264C42.5817 7.05701 42.8986 6.42258 42.5817 5.94691L38.0616 0.237703C37.8238 -0.0792344 37.2684 -0.0792344 36.9515 0.237703L32.5907 5.94691C32.2738 6.42259 32.5907 7.05701 33.1455 7.05701H33.1455Z" fill="#6BB64A"/>
<path d="M12.8437 19.1888L14.5091 17.5233L18.7908 21.8049C19.1077 22.1219 19.5839 22.1219 19.8218 21.8049L21.725 19.9017C22.0419 19.5848 22.0419 19.1085 21.725 18.8707L17.4434 14.5891L19.1088 12.9236C19.5054 12.527 19.2676 11.8135 18.7122 11.7344L11.4963 10.8622C11.0206 10.7831 10.7031 11.1791 10.7031 11.6553L11.5754 18.8713C11.7336 19.3475 12.4477 19.5854 12.8437 19.1888Z" fill="#6BB64A"/>
<path d="M13.1628 39.8057C13.5594 39.8057 13.8764 39.4887 13.8764 39.0922V36.3963C13.8764 35.9997 13.5594 35.6828 13.1628 35.6828H7.05701V33.3038C7.05701 32.7484 6.42258 32.4315 5.94691 32.7485L0.237703 37.2685C-0.0792344 37.5064 -0.0792344 38.0617 0.237703 38.3786L5.94691 42.8987C6.42259 43.2953 7.05701 42.8987 7.05701 42.3434V39.9644L13.1628 39.9638V39.8057Z" fill="#6BB64A"/>
<path d="M19.9012 53.5238C19.5843 53.2069 19.1081 53.2069 18.8702 53.5238L14.5886 57.8055L12.9231 56.14C12.5266 55.7434 11.813 55.9812 11.7339 56.5366L10.8617 63.7525C10.7826 64.2282 11.1786 64.5457 11.6548 64.5457L18.8708 63.6734C19.4261 63.5943 19.664 62.8803 19.2674 62.4842L17.6019 60.8188L21.8835 56.5371C22.2005 56.2202 22.2005 55.744 21.8835 55.5061L19.9012 53.5238Z" fill="#6BB64A"/>
<path d="M42.1832 68.272H39.8042V62.1662C39.8042 61.7696 39.4873 61.4526 39.0907 61.4526H36.3948C35.9982 61.4526 35.6813 61.7696 35.6813 62.1662V68.272H33.3023C32.747 68.272 32.43 68.9064 32.747 69.3821L37.2671 75.0913C37.5049 75.4082 38.0602 75.4082 38.3772 75.0913L42.8972 69.3821C43.0549 68.9064 42.7379 68.272 42.1832 68.272H42.1832Z" fill="#6BB64A"/>
<path d="M62.4833 56.1406L60.8178 57.806L56.5362 53.5238C56.2193 53.2069 55.7431 53.2069 55.5052 53.5238L53.5229 55.427C53.2059 55.744 53.2059 56.2202 53.5229 56.458L57.8045 60.7397L56.139 62.4051C55.7424 62.8017 55.9803 63.5152 56.5356 63.5943L63.7515 64.4666C64.2272 64.5457 64.5447 64.1497 64.5447 63.6734L63.6724 56.4575C63.5934 55.9818 62.8793 55.744 62.4833 56.1405L62.4833 56.1406Z" fill="#6BB64A"/>
<path d="M75.0918 37.1097L69.3826 32.5902C68.9069 32.1936 68.2725 32.5902 68.2725 33.1455V35.5245H62.1666C61.7701 35.5245 61.4531 35.8414 61.4531 36.238V38.9339C61.4531 39.3305 61.7701 39.6474 62.1666 39.6474H68.2725V42.0264C68.2725 42.5817 68.9069 42.8987 69.3826 42.5817L75.0918 38.0617C75.4087 37.9029 75.4087 37.4272 75.0918 37.1097V37.1097Z" fill="#6BB64A"/>
<path d="M55.4262 21.806C55.7431 22.123 56.2193 22.123 56.4572 21.806L60.7388 17.5244L62.4042 19.1899C62.8008 19.5865 63.5143 19.3486 63.5934 18.7933L64.4657 11.5774C64.5448 11.1017 64.1488 10.7842 63.6725 10.7842L56.4566 11.6564C55.9013 11.7355 55.6634 12.4496 56.06 12.8456L57.7255 14.5111L53.5229 18.7927C53.2059 19.1097 53.2059 19.5859 53.5229 19.8237L55.4262 21.806Z" fill="#6BB64A"/>
</svg>
