<svg width="61" height="61" viewBox="0 0 61 61" fill="none" xmlns="http://www.w3.org/2000/svg">
<path d="M57.7379 39.2539H42.5159C41.6508 39.2539 40.8207 39.5975 40.2091 40.2091C39.5975 40.8207 39.2539 41.6508 39.2539 42.5159V57.7379C39.2539 58.603 39.5975 59.4331 40.2091 60.0448C40.8207 60.6564 41.6508 61 42.5159 61H57.7379C58.603 61 59.4331 60.6564 60.0447 60.0448C60.6564 59.4331 61 58.6031 61 57.7379V42.5159C61 41.6508 60.6564 40.8207 60.0447 40.2091C59.4331 39.5975 58.6031 39.2539 57.7379 39.2539ZM53.5138 50.6905L54.1915 54.0459H54.191C54.3202 54.6853 54.1555 55.3493 53.7423 55.854C53.3291 56.3586 52.7111 56.6513 52.059 56.6513H48.1944C47.5414 56.6517 46.9225 56.3587 46.5088 55.8526C46.0955 55.3465 45.9317 54.6817 46.0623 54.0418L46.7431 50.671H46.7427C45.9281 49.6726 45.6032 48.362 45.8575 47.0991C46.1365 45.6688 47.1131 44.4733 48.4588 43.9144C49.8045 43.356 51.3403 43.508 52.5504 44.3199C53.76 45.1318 54.4831 46.4957 54.4758 47.9524C54.4776 48.9672 54.1217 49.9498 53.4714 50.7284L53.5138 50.6905Z" fill="#1D4354"/>
<path d="M52.3039 47.9513C52.3052 47.3142 52.0267 46.7085 51.5425 46.2943C51.1493 45.9571 50.6474 45.7733 50.129 45.7769C50.0039 45.7769 49.8787 45.7869 49.7549 45.806C49.3249 45.8843 48.928 46.0886 48.615 46.3931C48.3019 46.698 48.0866 47.0889 47.9969 47.5167C47.8663 48.1574 48.0311 48.8232 48.4457 49.3293C48.8548 49.8249 49.015 50.4807 48.8807 51.1091L48.1967 54.4754H52.0613L51.3837 51.12C51.2435 50.4893 51.4005 49.8295 51.8092 49.3293C52.13 48.942 52.3052 48.4547 52.3039 47.9513L52.3039 47.9513Z" fill="#6BB64A"/>
<path d="M41.4301 28.3792V8.80713H4.46094V43.6024H37.0811V42.5152C37.0825 41.2623 37.5162 40.0482 38.3084 39.0775C39.1007 38.1073 40.2034 37.4393 41.4303 37.187L41.4301 28.3792ZM16.076 31.9339C16.2945 32.1287 16.4251 32.4031 16.4388 32.6957C16.4519 32.9879 16.3473 33.2732 16.1475 33.4876C15.9477 33.7014 15.6706 33.8257 15.378 33.8325C15.0853 33.8393 14.8023 33.7283 14.5929 33.5235L8.41118 27.7686C7.97294 27.3668 7.72311 26.7993 7.72311 26.2049C7.72311 25.6101 7.97294 25.0427 8.41118 24.6413L14.5926 18.8859H14.593C14.8024 18.6816 15.0854 18.5701 15.3781 18.5769C15.6707 18.5837 15.9478 18.7084 16.1476 18.9223C16.3474 19.1362 16.4521 19.4215 16.4389 19.7142C16.4252 20.0063 16.2946 20.2807 16.0762 20.4755L9.89801 26.2309L16.076 31.9339ZM27.1864 20.1673L20.6623 33.2154C20.3938 33.7529 19.7408 33.9708 19.2034 33.7023C18.6659 33.4339 18.4475 32.7808 18.716 32.2434L25.24 19.1953C25.5085 18.6579 26.162 18.4394 26.6994 18.7079C27.2368 18.9764 27.4549 19.6299 27.1864 20.1674L27.1864 20.1673ZM37.4857 27.769L31.3043 33.5244L31.3039 33.5239C30.8629 33.9171 30.1885 33.8862 29.7857 33.4543C29.3825 33.022 29.398 32.3471 29.8208 31.9343L35.9939 26.1789L29.8112 20.4759C29.3885 20.0631 29.3725 19.3882 29.7757 18.9564C30.1789 18.524 30.8534 18.4931 31.2943 18.8863L37.4757 24.6416C37.9144 25.043 38.1643 25.6105 38.1643 26.2053C38.1643 26.7997 37.9144 27.3671 37.4757 27.769L37.4857 27.769Z" fill="#1D4354"/>
<path d="M2.28421 43.6023V8.80706C2.28421 8.23047 2.51357 7.67709 2.92133 7.26936C3.32908 6.86164 3.88246 6.63271 4.45902 6.63271H41.4282C42.0052 6.63271 42.5581 6.86161 42.9659 7.26936C43.3741 7.67712 43.603 8.2305 43.603 8.80706V22.645C44.2269 21.936 44.9614 21.3325 45.7778 20.8574V2.28372C45.7778 1.70713 45.5484 1.15376 45.1407 0.746028C44.7329 0.338299 44.1796 0.109375 43.603 0.109375H2.28372C1.70713 0.109375 1.15376 0.338275 0.746027 0.746028C0.338299 1.15378 0.109375 1.70716 0.109375 2.28372V45.7781C0.109375 46.3547 0.338275 46.908 0.746027 47.3158C1.15378 47.7235 1.70716 47.9524 2.28372 47.9524H37.079V45.778H4.45879C3.8822 45.778 3.32882 45.5487 2.92109 45.1409C2.51337 44.7332 2.28398 44.1798 2.28398 43.6032L2.28421 43.6023ZM34.9044 2.28302H41.4284C42.0291 2.28302 42.5161 2.76996 42.5161 3.37066C42.5161 3.97091 42.0291 4.45784 41.4284 4.45784H34.9044C34.3041 4.45784 33.8172 3.97091 33.8172 3.37066C33.8172 2.76996 34.3041 2.28302 34.9044 2.28302ZM15.3323 2.28302H16.4199C17.0202 2.28302 17.5071 2.76996 17.5071 3.37066C17.5071 3.97091 17.0202 4.45784 16.4199 4.45784H15.3323C14.732 4.45784 14.2451 3.97091 14.2451 3.37066C14.2451 2.76996 14.732 2.28302 15.3323 2.28302ZM9.8959 2.28302H10.9831C11.5838 2.28302 12.0703 2.76996 12.0703 3.37066C12.0703 3.97091 11.5838 4.45784 10.9831 4.45784H9.8959C9.29519 4.45784 8.80826 3.97091 8.80826 3.37066C8.80826 2.76996 9.29519 2.28302 9.8959 2.28302ZM4.45904 2.28302H5.54623C6.14693 2.28302 6.63386 2.76996 6.63386 3.37066C6.63386 3.97091 6.14693 4.45784 5.54623 4.45784H4.45904C3.85834 4.45784 3.37186 3.97091 3.37186 3.37066C3.37186 2.76996 3.85834 2.28302 4.45904 2.28302Z" fill="#6BB64A"/>
<path d="M55.5624 32.7291C55.8505 32.7291 56.1272 32.6144 56.3311 32.4105C56.535 32.2066 56.6496 31.9299 56.6496 31.6414V28.3794C56.6496 26.0489 55.4063 23.895 53.3876 22.7296C51.3689 21.5641 48.8823 21.5641 46.8636 22.7296C44.8449 23.895 43.6016 26.0489 43.6016 28.3794V37.0783H45.7764V28.3794C45.7764 26.8257 46.6051 25.39 47.9508 24.6127C49.2965 23.8359 50.9547 23.8359 52.3004 24.6127C53.6461 25.39 54.4748 26.8257 54.4748 28.3794V31.6414C54.4748 31.9299 54.5895 32.2066 54.7934 32.4105C54.9972 32.6144 55.2739 32.7291 55.5625 32.7291H55.5624Z" fill="#6BB64A"/>
</svg>
