<svg width="54" height="60" viewBox="0 0 54 60" fill="none" xmlns="http://www.w3.org/2000/svg">
<path d="M47.1578 4.99181C43.79 2.13927 39.4496 0.699554 35.0446 0.973874C30.6396 1.24819 26.5114 3.21529 23.5235 6.46364C20.5357 9.71198 18.9197 13.9899 19.0137 18.4024C19.1076 22.8149 20.9043 27.0202 24.0278 30.1383L18.9845 36.1486C18.0343 35.3595 16.8111 34.9773 15.5807 35.0849C14.3503 35.1926 13.212 35.7814 12.4133 36.7235L1.42319 49.821C0.634414 50.7712 0.252434 51.9943 0.360199 53.2246C0.467964 54.4548 1.05678 55.5929 1.99875 56.3915L4.3808 58.3903C5.33087 59.1793 6.55388 59.5615 7.78415 59.454C9.01442 59.3465 10.1526 58.7579 10.9514 57.8161L21.9402 44.7202C22.7293 43.77 23.1115 42.5468 23.0039 41.3164C22.8962 40.0859 22.3074 38.9477 21.3653 38.1489L26.4085 32.1387C30.0215 34.6809 34.4784 35.726 38.8449 35.0549C43.2114 34.3837 47.1487 32.0485 49.8315 28.5385C52.5143 25.0286 53.7343 20.6164 53.2359 16.2268C52.7374 11.8372 50.5592 7.81092 47.1578 4.99181ZM45.159 7.37387C47.2795 9.15213 48.8251 11.5193 49.6002 14.176C50.3753 16.8326 50.3452 19.6595 49.5137 22.299C48.6821 24.9386 47.0865 27.2723 44.9287 29.005C42.7708 30.7377 40.1476 31.7916 37.3907 32.0334C34.6338 32.2752 31.8672 31.694 29.4407 30.3634C27.0141 29.0328 25.0366 27.0124 23.7583 24.5579C22.48 22.1034 21.9583 19.3249 22.2592 16.5739C22.56 13.8229 23.6699 11.2228 25.4485 9.10258C26.6275 7.69256 28.0732 6.52909 29.7027 5.67888C31.3323 4.82866 33.1136 4.30842 34.9446 4.14796C36.7756 3.98751 38.6202 4.19 40.3728 4.74383C42.1254 5.29766 43.7514 6.19194 45.1577 7.3754L45.159 7.37387ZM29.9036 10.7773C29.5803 10.5614 29.1879 10.4745 28.8037 10.5336C28.4195 10.5927 28.0714 10.7936 27.828 11.0966C25.9781 13.3102 25.0806 16.1665 25.3319 19.0403C25.5832 21.9142 26.9628 24.5714 29.1688 26.4303C29.4847 26.6954 29.8929 26.8241 30.3037 26.7881C30.7145 26.7522 31.0941 26.5546 31.3592 26.2387C31.6243 25.9228 31.753 25.5146 31.717 25.1038C31.6811 24.693 31.4834 24.3133 31.1676 24.0482C30.3828 23.3939 29.7352 22.5908 29.262 21.6852C28.7888 20.7796 28.4993 19.7894 28.4103 18.7715C28.3212 17.7536 28.4343 16.7282 28.7431 15.7542C29.0519 14.7802 29.5502 13.8768 30.2094 13.0962C30.3553 12.9297 30.4639 12.734 30.5281 12.5221C30.5923 12.3103 30.6105 12.0872 30.5814 11.8677C30.5524 11.6483 30.4769 11.4375 30.3599 11.2496C30.2429 11.0617 30.0877 10.9002 29.9036 10.7773ZM16.9864 38.5299L19.3684 40.5287C19.5291 40.657 19.6619 40.8166 19.7591 40.9978C19.8562 41.179 19.9155 41.3781 19.9334 41.5829C19.9513 41.7877 19.9275 41.994 19.8633 42.1893C19.7991 42.3846 19.696 42.5648 19.5601 42.7191L8.56999 55.8166C8.44175 55.9773 8.28219 56.1103 8.10099 56.2075C7.91978 56.3047 7.72072 56.3641 7.51588 56.382C7.31104 56.3999 7.10469 56.376 6.90936 56.3118C6.71403 56.2475 6.53379 56.1442 6.37958 56.0082L3.99753 54.0094C3.8368 53.8812 3.7038 53.7216 3.60661 53.5404C3.50942 53.3592 3.45006 53.1601 3.43214 52.9553C3.41422 52.7505 3.43811 52.5441 3.50235 52.3488C3.5666 52.1535 3.66987 51.9732 3.80588 51.819L14.796 38.7216C14.9246 38.5608 15.0845 38.4279 15.266 38.3309C15.4476 38.2338 15.6469 38.1747 15.852 38.1571C16.0571 38.1395 16.2636 38.1638 16.459 38.2284C16.6545 38.2931 16.8347 38.3968 16.9888 38.5333L16.9864 38.5299Z" fill="white"/>
</svg>
