<svg width="51" height="63" viewBox="0 0 51 63" fill="none" xmlns="http://www.w3.org/2000/svg">
<g clip-path="url(#clip0_5224_9294)">
<g clip-path="url(#clip1_5224_9294)">
<mask id="mask0_5224_9294" style="mask-type:luminance" maskUnits="userSpaceOnUse" x="0" y="0" width="50" height="63">
<path d="M49.8091 0H0V62.2969H49.8091V0Z" fill="white"/>
</mask>
<g mask="url(#mask0_5224_9294)">
<path d="M4.89904 53.2108H31.4124V57.5933H31.0795C22.361 57.5933 13.6422 57.5933 4.92304 57.5933C4.34685 57.5981 3.77537 57.4893 3.24122 57.2732C2.70708 57.057 2.22074 56.7378 1.80997 56.3337C1.3992 55.9296 1.07205 55.4486 0.847192 54.9181C0.622335 54.3876 0.50418 53.8179 0.499472 53.2418C0.499472 53.1418 0.499472 53.0508 0.499472 52.9558C0.499472 36.824 0.499472 20.6896 0.499472 4.55254C0.462098 3.60361 0.735673 2.66844 1.27858 1.88927C1.8215 1.11009 2.60404 0.52956 3.50718 0.235963C3.99014 0.0853642 4.49313 0.00883585 4.99903 0.00898534C15.9533 -0.00368008 26.9075 -0.00701309 37.8618 -0.00101368C38.4514 -0.0195263 39.0385 0.0819294 39.5877 0.297198C40.1369 0.512466 40.6366 0.837059 41.0565 1.25128C41.4764 1.66551 41.8078 2.16073 42.0306 2.7069C42.2533 3.25306 42.3628 3.83879 42.3524 4.42855C42.3694 11.8868 42.3584 19.3451 42.3574 26.8024C42.3574 26.8853 42.3454 26.9673 42.3374 27.0703C41.358 27.0932 40.3999 27.361 39.5506 27.8493C39.4658 27.8762 39.3739 27.8698 39.2937 27.8312C38.9137 27.6733 38.5347 27.5123 38.1668 27.3313C38.0757 27.2659 38.0098 27.1713 37.9798 27.0633C37.9621 26.9697 37.9598 26.8738 37.9728 26.7794V4.39855H4.89904V53.2108Z" fill="white"/>
<path d="M31.1824 44.8637C31.2483 44.4878 31.3353 43.8918 31.4613 43.3049C31.5085 43.1142 31.5005 42.914 31.4384 42.7276C31.3763 42.5412 31.2625 42.3763 31.1104 42.252C30.7324 41.897 30.3414 41.5521 29.9955 41.1681C29.8276 41.0158 29.6939 40.8296 29.6031 40.6219C29.5123 40.4141 29.4666 40.1895 29.4688 39.9628C29.4711 39.7361 29.5213 39.5125 29.6162 39.3066C29.7111 39.1007 29.8486 38.9173 30.0195 38.7683C30.304 38.4544 30.6111 38.1616 30.9384 37.8924C31.171 37.7239 31.3435 37.4853 31.4306 37.2116C31.5177 36.9379 31.5148 36.6435 31.4223 36.3716C31.3027 35.9335 31.2267 35.4847 31.1954 35.0317C31.1556 34.8078 31.1648 34.578 31.2223 34.3581C31.2798 34.1381 31.3843 33.9332 31.5285 33.7574C31.6727 33.5817 31.8533 33.4392 32.0578 33.3399C32.2623 33.2405 32.4859 33.1866 32.7132 33.1819C33.1922 33.1039 33.6761 33.0499 34.1581 32.9909C34.3333 32.9799 34.5021 32.9211 34.6461 32.8208C34.7902 32.7204 34.9039 32.5825 34.975 32.422C35.157 32.029 35.3289 31.632 35.5269 31.2471C35.8059 30.7031 36.1209 30.1552 36.7908 30.0612C37.1427 30.0148 37.5006 30.0546 37.8337 30.1772C38.3194 30.3808 38.7876 30.6239 39.2336 30.9041C39.4298 31.0304 39.6586 31.0967 39.892 31.0949C40.1253 31.0932 40.3531 31.0234 40.5474 30.8941C40.9394 30.6641 41.3343 30.4382 41.7473 30.2442C41.9429 30.1175 42.1639 30.0353 42.3947 30.0033C42.6255 29.9714 42.8605 29.9904 43.0831 30.0592C43.3058 30.1279 43.5106 30.2447 43.6832 30.4012C43.8558 30.5577 43.992 30.7502 44.0821 30.9651C44.2891 31.3088 44.4628 31.6714 44.601 32.048C44.6965 32.3588 44.894 32.6283 45.1617 32.8128C45.4293 32.9974 45.7515 33.0862 46.0759 33.0649C46.4874 33.0866 46.896 33.1479 47.2958 33.2479C47.5143 33.2834 47.7231 33.3641 47.9087 33.4848C48.0943 33.6055 48.2528 33.7635 48.374 33.9489C48.4951 34.1342 48.5763 34.3427 48.6124 34.5612C48.6486 34.7796 48.6387 35.0032 48.5836 35.2177C48.5047 35.6966 48.4077 36.1726 48.3117 36.6485C48.2624 36.8337 48.266 37.029 48.322 37.2123C48.378 37.3956 48.4842 37.5595 48.6286 37.6854C48.9806 38.0064 49.3366 38.3244 49.6675 38.6674C49.8671 38.8253 50.0284 39.0263 50.1393 39.2554C50.2501 39.4845 50.3077 39.7357 50.3077 39.9902C50.3077 40.2447 50.2501 40.4959 50.1393 40.725C50.0284 40.9541 49.8671 41.1552 49.6675 41.3131C49.3436 41.6471 48.9966 41.96 48.6546 42.276C48.5012 42.4072 48.3881 42.5793 48.3286 42.7722C48.2691 42.9652 48.2657 43.1711 48.3187 43.3659C48.4187 43.8198 48.4947 44.2778 48.5696 44.7368C48.6322 44.9662 48.6436 45.2066 48.6029 45.4409C48.5622 45.6752 48.4705 45.8977 48.3343 46.0926C48.198 46.2876 48.0206 46.4501 47.8145 46.5688C47.6084 46.6875 47.3788 46.7595 47.1418 46.7796C46.6748 46.8655 46.2019 46.9245 45.7289 46.9705C45.5115 46.9792 45.3013 47.0509 45.1238 47.1767C44.9463 47.3025 44.8092 47.4772 44.729 47.6795C44.5088 48.1939 44.258 48.6948 43.9781 49.1793C43.83 49.478 43.5834 49.7164 43.2799 49.8543C42.9764 49.9922 42.6346 50.0211 42.3123 49.9362C41.9799 49.8338 41.6582 49.6999 41.3514 49.5363C41.0384 49.3843 40.7404 49.2003 40.4364 49.0303C40.2674 48.9294 40.0738 48.877 39.8769 48.879C39.6801 48.8809 39.4876 48.9371 39.3206 49.0413C39.0076 49.2183 38.6986 49.4033 38.3786 49.5633C38.1174 49.7008 37.8447 49.8156 37.5637 49.9062C37.2708 50.0113 36.9512 50.015 36.6559 49.917C36.3606 49.8189 36.1068 49.6247 35.9349 49.3653C35.6343 48.9446 35.3893 48.4869 35.206 48.0034C35.0989 47.6639 34.8803 47.3704 34.5855 47.1708C34.2908 46.9711 33.9372 46.8769 33.5821 46.9035C33.192 46.8824 32.805 46.8214 32.4272 46.7216C31.5613 46.5016 31.1764 45.9786 31.1834 44.8707M39.8705 36.2046C39.1184 36.2062 38.3836 36.431 37.7594 36.8505C37.1351 37.27 36.6493 37.8653 36.3637 38.5611C36.078 39.2568 36.0052 40.0217 36.1546 40.7589C36.304 41.496 36.6688 42.1722 37.2028 42.7019C37.7368 43.2316 38.416 43.5908 39.1544 43.7342C39.8927 43.8775 40.657 43.7985 41.3504 43.5072C42.0438 43.2158 42.6351 42.7253 43.0495 42.0976C43.4639 41.4699 43.6827 40.7333 43.6781 39.9812C43.672 38.9761 43.2679 38.0143 42.5543 37.3065C41.8407 36.5987 40.8756 36.2025 39.8705 36.2046Z" fill="white"/>
<path d="M39.8782 58.3758L37.1835 60.8506L35.8276 62.0954C35.7468 62.1875 35.639 62.2516 35.5196 62.2787C35.4002 62.3059 35.2752 62.2946 35.1626 62.2464C35.0444 62.1992 34.9443 62.1157 34.8767 62.0078C34.8091 61.9 34.7776 61.7734 34.7867 61.6465C34.7867 61.3715 34.7867 61.0955 34.7867 60.8206V49.7596C34.8867 49.8716 34.9447 49.9256 34.9917 49.9866C35.3322 50.4798 35.8343 50.8385 36.4111 51.001C36.988 51.1635 37.6035 51.1194 38.1514 50.8765C38.6379 50.6727 39.1085 50.4327 39.5592 50.1586C39.6579 50.0912 39.7747 50.0551 39.8942 50.0551C40.0137 50.0551 40.1304 50.0912 40.2291 50.1586C40.6516 50.4185 41.092 50.6481 41.547 50.8455C42.1123 51.1172 42.7573 51.1725 43.3606 51.0012C43.9639 50.8299 44.4836 50.4438 44.8217 49.9156C44.8577 49.8676 44.8977 49.8246 44.9847 49.7227V50.0296C44.9847 53.8626 44.9827 57.6955 44.9787 61.5285C44.9817 61.7164 44.9329 61.9014 44.8377 62.0634C44.6317 62.3794 44.2308 62.3634 43.9008 62.0634C42.8476 61.0975 41.7953 60.131 40.7441 59.1637C40.4651 58.9067 40.1842 58.6518 39.8802 58.3748" fill="white"/>
<path d="M21.4405 19.0054C24.9669 19.0054 28.4925 19.0054 32.0175 19.0054C32.2136 19.0016 32.4085 19.0374 32.5905 19.1105C32.7725 19.1836 32.9379 19.2926 33.077 19.431C33.216 19.5694 33.3257 19.7343 33.3996 19.916C33.4736 20.0977 33.5102 20.2924 33.5073 20.4885C33.5044 20.6846 33.4621 20.8782 33.3828 21.0576C33.3036 21.237 33.189 21.3987 33.046 21.5329C32.903 21.6671 32.7344 21.7712 32.5503 21.8389C32.3663 21.9067 32.1704 21.9367 31.9745 21.9271C27.9616 21.9271 23.9486 21.9271 19.9357 21.9271C16.8973 21.9271 13.859 21.9271 10.8206 21.9271C10.4846 21.9283 10.1585 21.8129 9.898 21.6007C9.63747 21.3885 9.45856 21.0925 9.39172 20.7632C9.3184 20.4234 9.37068 20.0685 9.53889 19.7643C9.7071 19.46 9.97984 19.227 10.3066 19.1084C10.517 19.0395 10.7372 19.0057 10.9586 19.0084C14.4522 19.0024 17.9462 19.0024 21.4405 19.0084" fill="white"/>
<path d="M18.6147 11.8092C21.1771 11.8092 23.7399 11.8092 26.3029 11.8092C26.6549 11.7812 27.0048 11.8841 27.2856 12.0982C27.5665 12.3122 27.7584 12.6223 27.8248 12.9691C27.8685 13.1797 27.8652 13.3973 27.8152 13.6065C27.7652 13.8157 27.6696 14.0113 27.5354 14.1793C27.4011 14.3474 27.2315 14.4838 27.0385 14.5788C26.8455 14.6737 26.634 14.725 26.4189 14.7289C26.3449 14.7289 26.271 14.7289 26.197 14.7289C21.1348 14.7289 16.073 14.7289 11.0115 14.7289C10.585 14.7571 10.1645 14.6167 9.84057 14.3379C9.62815 14.1446 9.47748 13.893 9.4074 13.6144C9.33733 13.3359 9.35096 13.0429 9.44661 12.7721C9.53731 12.4928 9.71421 12.2494 9.95189 12.0769C10.1896 11.9045 10.4758 11.8118 10.7695 11.8122C13.3852 11.8042 16.001 11.8122 18.6167 11.8122L18.6147 11.8092Z" fill="white"/>
</g>
</g>
</g>
<defs>
<clipPath id="clip0_5224_9294">
<rect width="49.8125" height="62.2969" fill="white" transform="translate(0.5)"/>
</clipPath>
<clipPath id="clip1_5224_9294">
<rect width="49.8101" height="62.2969" fill="white" transform="translate(0.5)"/>
</clipPath>
</defs>
</svg>
