<svg width="42" height="58" viewBox="0 0 42 58" fill="none" xmlns="http://www.w3.org/2000/svg">
<g clip-path="url(#clip0_5224_9319)">
<path d="M17.1172 24.6823H27.1917V22.667H17.1172V24.6823Z" fill="white" stroke="white" stroke-width="0.999658"/>
<path d="M17.1172 36.7722H27.1917V34.7568H17.1172V36.7722Z" fill="white" stroke="white" stroke-width="0.999658"/>
<path d="M17.1172 12.5925V10.5771H29.2061V12.5925H17.1172Z" fill="white" stroke="white" stroke-width="0.999658"/>
<path d="M5.99477 11.2149L8.72184 13.9419C8.81534 14.0355 8.92636 14.1098 9.04858 14.1605C9.17079 14.2111 9.30179 14.2372 9.43409 14.2372C9.5664 14.2372 9.6974 14.2111 9.81961 14.1605C9.94183 14.1098 10.0529 14.0355 10.1463 13.9419L14.8887 9.19956C15.0692 9.00897 15.1682 8.75546 15.1647 8.49298C15.1611 8.2305 15.0552 7.97978 14.8696 7.79416C14.684 7.60854 14.4333 7.50269 14.1708 7.49912C13.9083 7.49555 13.6548 7.59455 13.4642 7.77505L9.4346 11.8047L7.41928 9.78936C7.22869 9.60886 6.97518 9.50986 6.71271 9.51343C6.45023 9.517 6.19951 9.62285 6.01389 9.80847C5.82828 9.99409 5.72241 10.2448 5.71884 10.5073C5.71527 10.7698 5.81427 11.0243 5.99477 11.2149Z" fill="white" stroke="white" stroke-width="0.999658"/>
<path d="M6.00193 23.3047L8.729 26.0318C8.82249 26.1254 8.93353 26.1996 9.05574 26.2503C9.17796 26.301 9.30896 26.3271 9.44126 26.3271C9.57356 26.3271 9.70457 26.301 9.82678 26.2503C9.949 26.1996 10.06 26.1254 10.1535 26.0318L14.8959 21.2894C15.0764 21.0988 15.1754 20.8453 15.1718 20.5828C15.1682 20.3203 15.0624 20.0696 14.8768 19.884C14.6912 19.6984 14.4404 19.5925 14.178 19.589C13.9155 19.5854 13.662 19.6844 13.4714 19.8649L9.44175 23.8945L7.42645 21.8792C7.23702 21.6922 6.9813 21.5878 6.71513 21.5887C6.44896 21.5896 6.19397 21.6958 6.00582 21.8841C5.81768 22.0724 5.71167 22.3274 5.71094 22.5936C5.71021 22.8598 5.81482 23.1154 6.00193 23.3047Z" fill="white" stroke="white" stroke-width="0.999658"/>
<path d="M5.99477 35.3945L8.72184 38.1216C8.81534 38.2152 8.92636 38.2895 9.04858 38.3402C9.17079 38.3908 9.30179 38.4169 9.43409 38.4169C9.5664 38.4169 9.6974 38.3908 9.81961 38.3402C9.94183 38.2895 10.0529 38.2152 10.1463 38.1216L14.8887 33.3792C15.0692 33.1886 15.1682 32.9351 15.1647 32.6727C15.1611 32.4102 15.0552 32.1595 14.8696 31.9738C14.684 31.7882 14.4333 31.6824 14.1708 31.6788C13.9083 31.6752 13.6548 31.7742 13.4642 31.9547L9.4346 35.9844L7.41928 33.969C7.22869 33.7885 6.97518 33.6896 6.71271 33.6931C6.45023 33.6967 6.19951 33.8025 6.01389 33.9882C5.82828 34.1738 5.72241 34.4245 5.71884 34.687C5.71527 34.9494 5.81427 35.2039 5.99477 35.3945Z" fill="white" stroke="white" stroke-width="0.999658"/>
<path d="M1 0.50293V56.9196H28.6176L41.2972 44.241V23.9259L39.2819 26.0392V42.8155H27.193V54.9053H3.01531V2.52324H39.2829V26.594C39.9307 26.0569 40.6025 25.5504 41.2982 25.0745V0.50293H1ZM29.2084 44.8298H37.8584L29.2084 53.4848V44.8298Z" fill="white" stroke="white" stroke-width="0.999658"/>
</g>
<defs>
<clipPath id="clip0_5224_9319">
<rect width="41.2969" height="57.4164" fill="white" transform="translate(0.5 0.00292969)"/>
</clipPath>
</defs>
</svg>
