<svg width="34" height="34" viewBox="0 0 34 34" fill="none" xmlns="http://www.w3.org/2000/svg">
<path fill-rule="evenodd" clip-rule="evenodd" d="M30.1903 12.4226C29.7004 12.0662 29.1728 11.7609 28.6149 11.5116V1.37482L30.1903 2.6438V12.4226ZM16.0658 19.8424L15.0953 20.1086L14.1249 19.8424C12.0389 19.3205 9.86716 19.1201 7.72137 19.2168C6.13845 19.2878 4.36076 19.5255 2.84852 20.021L2.21234 20.2297C2.05968 20.2797 1.90628 20.2556 1.77619 20.1616C1.64609 20.0673 1.57541 19.9293 1.57541 19.7687V1.37482L0 2.6438V21.2686C0 21.5359 0.218075 21.754 0.485406 21.754H16.5831C16.4117 21.111 16.3139 20.4515 16.2925 19.7872C16.2169 19.8052 16.1413 19.8236 16.0658 19.8424ZM33.3103 33.8244C32.6831 34.1865 31.8732 33.9696 31.5111 33.3424L29.0018 28.996C28.8687 28.7651 28.8972 28.4842 29.0522 28.2861L28.6837 27.6476C28.3626 27.0915 27.7275 26.8314 27.1083 27.0028C25.8164 27.3604 24.415 27.3886 23.0265 27.0164C18.8756 25.9042 16.4124 21.6378 17.5246 17.4868C18.6368 13.3363 22.9032 10.8728 27.0541 11.9849C31.2047 13.0971 33.6682 17.3635 32.556 21.5145C32.1842 22.903 31.4589 24.1028 30.5031 25.0428C30.0452 25.4932 29.953 26.1734 30.2741 26.7295L30.6426 27.3679C30.8919 27.3329 31.1494 27.4484 31.2829 27.6792L33.7923 32.0257C34.1544 32.6532 33.9374 33.4624 33.3103 33.8244ZM30.7821 21.0388C31.6318 17.8677 29.75 14.6082 26.5789 13.7585C23.4078 12.9088 20.1483 14.7906 19.2985 17.9617C18.4488 21.1328 20.3306 24.3923 23.5018 25.242C26.6729 26.0918 29.9324 24.2099 30.7821 21.0388ZM2.54622 19.0987V1.03455C4.06786 -0.489346 11.147 -0.38106 14.6099 1.70231V18.9649C9.48365 17.6173 4.739 18.3802 2.54622 19.0987ZM4.05282 3.14875C4.09719 3.41232 4.34948 3.58829 4.61568 3.54054C6.94909 3.12206 9.60284 3.29426 12.5025 4.05301C12.5435 4.06354 12.5878 4.06918 12.6288 4.06918C12.8439 4.06918 13.0383 3.92442 13.0962 3.70673C13.1642 3.44767 13.0074 3.18222 12.7484 3.11416C9.70887 2.32007 6.91525 2.14185 4.44197 2.58589C4.17915 2.63327 4.00507 2.88518 4.05282 3.14875ZM4.05282 5.77092C4.10057 6.03374 4.35624 6.20707 4.61906 6.15744C6.95247 5.71527 9.60622 5.86116 12.5093 6.59096C12.5469 6.60111 12.5878 6.606 12.6288 6.606C12.8439 6.606 13.0417 6.45899 13.0962 6.23903C13.1609 5.97922 13.0041 5.71527 12.745 5.64985C9.70548 4.88546 6.91186 4.73582 4.43859 5.20355C4.17577 5.25356 4.00168 5.50735 4.05282 5.77092ZM4.05282 8.39271C4.10395 8.65591 4.36 8.82623 4.62245 8.77359C6.95585 8.30849 9.60961 8.42843 12.5126 9.12891C12.5502 9.13793 12.5878 9.14244 12.6288 9.14244C12.8473 9.14244 13.045 8.99317 13.0996 8.77096C13.1609 8.51078 13.0007 8.24833 12.7412 8.18517C9.70172 7.45123 6.90472 7.32903 4.43483 7.82158C4.17201 7.87422 4.00168 8.1299 4.05282 8.39271ZM4.05282 11.0149C4.10734 11.2773 4.36677 11.4454 4.62921 11.3905C6.96262 10.9017 9.61637 10.995 12.516 11.6672C12.5536 11.6759 12.5912 11.68 12.6284 11.68C12.8469 11.68 13.0481 11.5285 13.0992 11.304C13.1605 11.0431 12.9969 10.7825 12.7341 10.7216C9.69458 10.0174 6.90096 9.923 4.42768 10.4404C4.16825 10.4953 3.9983 10.7524 4.05282 11.0149ZM12.7311 13.2577C9.73256 12.5925 6.86035 12.523 4.42467 13.0573C4.16186 13.1148 3.9983 13.3735 4.0562 13.6352C4.11411 13.8972 4.37016 14.0627 4.6326 14.0051C6.93179 13.5009 9.65736 13.5701 12.5194 14.2052C12.557 14.2131 12.5912 14.2172 12.6284 14.2172C12.8503 14.2172 13.0514 14.0631 13.0992 13.8367C13.1571 13.5746 12.9939 13.316 12.7311 13.2577ZM12.5266 16.7397C12.5608 16.7469 12.5946 16.7503 12.6288 16.7503C12.8507 16.7503 13.0552 16.5935 13.1029 16.3652C13.1575 16.1028 12.9905 15.8453 12.7277 15.79C9.68142 15.1485 6.88742 15.1102 4.42129 15.6753C4.15847 15.7355 3.99492 15.9956 4.0562 16.257C4.11749 16.5179 4.37692 16.6815 4.63598 16.6217C6.966 16.0874 9.62013 16.1272 12.5266 16.7397ZM18.148 14.104C17.4299 15.0215 16.896 16.0825 16.5873 17.2349C16.45 17.7466 16.3609 18.2651 16.3177 18.7844C16.0729 18.8397 15.827 18.8994 15.5804 18.9645V1.70231C19.0432 -0.38106 26.1224 -0.489346 27.6441 1.03455V11.1457C27.532 11.1108 27.4192 11.078 27.3053 11.0476C26.9191 10.9442 26.5289 10.8675 26.1371 10.8179C26.0984 10.6344 25.9547 10.4817 25.7618 10.4407C23.2886 9.92338 20.495 10.0178 17.4554 10.722C17.1926 10.7829 17.0291 11.0435 17.0903 11.3044C17.1415 11.5289 17.3426 11.6804 17.5611 11.6804C17.5987 11.6804 17.6363 11.6763 17.6735 11.6676C19.4238 11.2615 21.0845 11.0671 22.6396 11.0841C21.9557 11.2796 21.2921 11.5593 20.6641 11.9222C20.1599 12.2132 19.6903 12.5508 19.2602 12.9283C18.6665 13.014 18.0653 13.1242 17.4584 13.2588C17.1956 13.3167 17.0321 13.5758 17.09 13.8378C17.1377 14.0638 17.3389 14.2183 17.5607 14.2183C17.5983 14.2183 17.6325 14.2142 17.6697 14.2063C17.8295 14.171 17.9886 14.1375 18.1473 14.1055L18.148 14.104ZM17.0941 3.70597C17.152 3.92405 17.3464 4.06843 17.5615 4.06843C17.6024 4.06843 17.6468 4.06279 17.6878 4.05226C20.5874 3.29351 23.2412 3.12131 25.5746 3.53978C25.8408 3.58716 26.0931 3.41157 26.1375 3.148C26.1852 2.88443 26.0111 2.63214 25.7487 2.58477C23.2754 2.14109 20.4818 2.31894 17.4423 3.11303C17.1832 3.18109 17.0257 3.44654 17.0941 3.70597ZM25.7521 5.20317C23.2788 4.73506 20.4852 4.88471 17.4457 5.64948C17.1862 5.7149 17.0294 5.97885 17.0945 6.23866C17.149 6.45861 17.3468 6.60562 17.5618 6.60562C17.6028 6.60562 17.6438 6.60074 17.6814 6.59058C20.5844 5.86078 23.2386 5.7149 25.5716 6.15707C25.8344 6.2067 26.0901 6.03374 26.1378 5.77055C26.189 5.50735 26.0145 5.25356 25.7521 5.20317ZM17.0907 8.77096C17.1452 8.99317 17.343 9.14244 17.5615 9.14244C17.6024 9.14244 17.64 9.13793 17.6776 9.12891C20.5807 8.42806 23.2344 8.30849 25.5678 8.77359C25.8307 8.82623 26.0863 8.65553 26.1375 8.39271C26.1886 8.1299 26.0179 7.8746 25.7555 7.82196C23.2856 7.32941 20.4886 7.45161 17.449 8.18554C17.1896 8.24871 17.0294 8.51078 17.0907 8.77096Z" fill="#252B33"/>
</svg>
