<svg width="140" height="50" viewBox="0 0 140 50" fill="none" xmlns="http://www.w3.org/2000/svg">
<g clip-path="url(#clip0_1_1154)">
<g clip-path="url(#clip1_1_1154)">
<path d="M49.298 30.5016H51.6734C54.0653 30.5016 55.9129 31.0789 57.15 32.2172C58.3872 33.3554 58.9811 34.8731 58.9811 36.836C58.9811 38.8155 58.3872 40.3332 57.15 41.4548C55.9129 42.5931 54.0653 43.1704 51.6734 43.1704H49.298V30.5016ZM42.2048 23.6888V49.9667H52.0034C56.1108 49.9667 59.509 48.746 62.1318 46.3541C64.8206 43.8962 66.1897 40.696 66.1897 36.836C66.1897 32.9925 64.8206 29.8088 62.1318 27.3509C59.4925 24.926 56.0778 23.7053 52.0034 23.7053H42.2048V23.6888ZM68.6806 23.6888V49.9667H88.3932V43.1704H75.7739V39.4588H86.0507V34.1967H75.7739V30.4851H88.3932V23.6888H68.6806ZM108.42 23.6888L103.817 30.9965L99.2145 23.6888H90.6366L98.934 36.9185L90.6366 49.9832H99.1649L103.768 42.6755L108.37 49.9832H116.947L108.65 36.7865L116.947 23.7053H108.42V23.6888Z" fill="#6BB64A"/>
<path d="M32.802 36.1437V14.6166L31.103 13.5774L23.0035 17.8168V19.8293C23.0035 19.8293 24.6695 20.918 24.6695 21.6933V24.5306C24.6695 24.5306 24.6695 25.1904 24.6695 26.1967C25.2469 26.741 25.7747 27.3184 26.2532 27.9452L24.6695 27.7473C24.6695 27.1699 24.6695 26.6421 24.6695 26.1967C22.2117 23.8707 18.896 22.4521 15.2504 22.4521C7.66235 22.4521 1.47641 28.6381 1.47641 36.2261C1.47641 43.8143 7.66235 50.0001 15.2504 50.0001C20.1167 50.0001 24.4056 47.4598 26.847 43.6493C26.55 43.1874 26.2861 42.7091 26.0552 42.2142L27.7543 41.9996C27.4903 42.5605 27.1934 43.1214 26.847 43.6328C29.2884 47.4433 33.5773 49.9837 38.4436 49.9837V41.7852C35.3259 41.7852 32.802 39.2614 32.802 36.1437ZM28.4801 32.3826C28.6286 32.894 28.7441 33.4053 28.843 33.9333L24.686 33.4548C24.686 33.2569 24.686 33.059 24.686 32.861L28.4801 32.3826ZM24.6695 31.5413C24.6695 31.3434 24.6695 31.1454 24.6695 30.9475L27.8038 30.5516C28.0182 31.0135 28.1996 31.4918 28.3646 31.9867L24.6695 31.5413ZM28.876 34.2301C28.9585 34.758 29.008 35.3024 29.008 35.8467L24.6695 35.3519C24.6695 35.1704 24.6695 34.9725 24.6695 34.758L28.876 34.2301ZM29.0245 36.1272C29.0245 36.1601 29.0245 36.1932 29.0245 36.2261C29.0245 36.7375 28.9915 37.2489 28.942 37.7438L24.7191 37.2654C24.7026 37.0674 24.686 36.8695 24.686 36.6715L29.0245 36.1272ZM28.909 38.0407C28.843 38.5686 28.7441 39.0799 28.6121 39.5913L24.9995 39.1954C24.95 38.9809 24.917 38.7665 24.8675 38.5521L28.909 38.0407ZM26.8305 28.77C27.078 29.1659 27.3254 29.5784 27.5398 29.9907L24.686 29.6444C24.686 29.4463 24.686 29.2484 24.686 29.0504L26.8305 28.77ZM15.2504 42.973C11.5224 42.973 8.50364 39.9543 8.50364 36.2261C8.50364 32.4981 11.5224 29.4794 15.2504 29.4794C18.9785 29.4794 21.9972 32.4981 21.9972 36.2261C21.9972 39.9543 18.9785 42.973 15.2504 42.973ZM25.5934 41.1584C25.4944 40.9109 25.4119 40.647 25.3294 40.3831L28.4966 39.9872C28.3646 40.4656 28.1996 40.944 28.0017 41.4058L25.5934 41.1584Z" fill="#6BB64A"/>
<path d="M135.082 0.980347H124.157C123.074 0.980347 122.196 1.85822 122.196 2.94113V22.1137C122.196 23.1966 123.074 24.0745 124.157 24.0745H135.082C136.164 24.0745 137.042 23.1966 137.042 22.1137V2.94113C137.042 1.85822 136.164 0.980347 135.082 0.980347Z" stroke="#6BB64A" stroke-width="1.96078" stroke-miterlimit="10" stroke-linecap="round" stroke-linejoin="round"/>
<path d="M122.196 5.24878H137.042" stroke="#6BB64A" stroke-width="1.96078"/>
<path d="M122.196 18.9707H137.042" stroke="#6BB64A" stroke-width="1.96078"/>
<path d="M128.95 21.4445H130.288" stroke="#6BB64A" stroke-width="1.96078" stroke-linecap="round"/>
</g>
</g>
<defs>
<clipPath id="clip0_1_1154">
<rect width="140" height="50" fill="white"/>
</clipPath>
<clipPath id="clip1_1_1154">
<rect width="196.078" height="50" fill="white" transform="translate(1.47641)"/>
</clipPath>
</defs>
</svg>
