<svg width="105" height="73" viewBox="0 0 105 73" fill="none" xmlns="http://www.w3.org/2000/svg">
<path d="M57.3251 33.0464V23.3913H46.7045V33.0464H57.3251ZM57.3251 0.0582123H46.7045V9.8742H57.3251V0.0582123ZM70.0376 23.3913H59.417V33.0464H70.0376V23.3913ZM44.7735 11.8052H34.1529V21.4603H44.7735V11.8052ZM57.3251 11.8052H46.7045V21.4603H57.3251V11.8052ZM101.899 27.897C99.6464 26.2878 94.3362 25.8051 90.1523 26.6096C89.6695 22.7476 87.4167 19.3683 83.5547 16.3109L81.3018 14.8626L79.8536 17.1155C76.7961 21.6212 75.9915 28.8625 79.2099 33.8509C77.7616 34.4946 75.026 35.621 71.4858 35.4601H1.48662C0.0383554 43.6669 2.45212 54.2875 8.567 61.5288C14.521 68.6092 23.5323 72.3103 35.1184 72.3103C60.5434 72.3103 79.2099 60.5633 88.0604 39.3221C91.4396 39.4831 98.8419 39.3221 102.704 32.0808C103.026 31.759 103.83 29.9889 104.152 29.3452L101.899 27.897ZM19.6703 23.3913H9.04975V33.0464H19.6703V23.3913ZM32.2219 23.3913H21.6013V33.0464H32.2219V23.3913ZM44.7735 23.3913H34.1529V33.0464H44.7735V23.3913ZM32.2219 11.8052H21.6013V21.4603H32.2219V11.8052Z" fill="#6BB64A"/>
</svg>
