<svg width="433" height="601" viewBox="0 0 433 601" fill="none" xmlns="http://www.w3.org/2000/svg">
<g clip-path="url(#clip0_2108_2550)">
<path d="M11.965 6.88086H383.968C407.997 6.88086 427.477 26.3605 427.477 50.3899V592.078" stroke="white" stroke-width="2.17545" stroke-dasharray="4.35 4.35"/>
<path d="M13.0527 7.37597C13.0527 3.77156 10.1308 0.849609 6.52636 0.849609C2.92195 0.849609 0 3.77156 0 7.37597C0 10.9804 2.92195 13.9023 6.52636 13.9023C10.1308 13.9023 13.0527 10.9804 13.0527 7.37597Z" fill="#6BB64A"/>
<path d="M9.13857 7.37617C9.13857 5.93441 7.96979 4.76562 6.52803 4.76562C5.08626 4.76562 3.91748 5.93441 3.91748 7.37617C3.91748 8.81793 5.08626 9.98671 6.52803 9.98671C7.96979 9.98671 9.13857 8.81793 9.13857 7.37617Z" fill="#FBFCFD"/>
<path d="M430.68 594.746H424.273C422.758 594.746 422.061 596.631 423.212 597.617L426.415 600.362C427.026 600.886 427.927 600.886 428.538 600.362L431.742 597.617C432.893 596.631 432.195 594.746 430.68 594.746Z" fill="#6BB64A"/>
</g>
<defs>
<clipPath id="clip0_2108_2550">
<rect width="432.915" height="600.425" fill="white" transform="translate(0 0.355469)"/>
</clipPath>
</defs>
</svg>
