<svg width="33" height="34" viewBox="0 0 33 34" fill="none" xmlns="http://www.w3.org/2000/svg">
<path d="M29.9108 12.9114H29.588C30.8792 12.9114 31.8834 11.7637 31.7399 10.4726C31.5965 9.39662 30.6281 8.6076 29.5163 8.6076H29.2653C30.5564 8.6076 31.5606 7.45992 31.4172 6.16878C31.2737 5.09283 30.3053 4.3038 29.1935 4.3038H28.9425C30.126 4.3038 31.0944 3.33544 31.0944 2.1519C31.0944 0.968355 30.126 0 28.9425 0C28.9425 0 24.1724 0 21.0522 0C15.9952 0 14.2737 1.4346 12.7674 2.0443C12.3729 2.22363 12.0859 2.61814 12.0859 3.04852V15.3143C12.0859 15.673 12.2653 15.9958 12.5522 16.211C13.9509 17.2152 18.183 20.6582 19.3307 25.7869C19.9404 28.5127 24.1724 28.0105 23.8497 25.0338C23.5627 21.9494 22.9172 20.9451 22.4868 17.9684C22.4151 17.5738 22.702 17.2511 23.0965 17.2511H29.9467C31.1302 17.2511 32.0986 16.2827 32.0986 15.0992C32.0627 13.8797 31.0944 12.9114 29.9108 12.9114Z" fill="black"/>
<path d="M3.76806 15.8882H9.07608C9.68579 15.8882 10.1879 15.3861 10.1879 14.7764V3.40722C10.1879 2.79752 9.68579 2.29541 9.07608 2.29541H3.76806C3.15836 2.29541 2.65625 2.79752 2.65625 3.40722V14.8123C2.65625 15.3861 3.15836 15.8882 3.76806 15.8882ZM6.42207 4.73423C7.06764 4.73423 7.56975 5.23634 7.56975 5.88191C7.56975 6.52748 7.06764 7.02959 6.42207 7.02959C5.7765 7.02959 5.27439 6.52748 5.27439 5.88191C5.27439 5.23634 5.7765 4.73423 6.42207 4.73423Z" fill="black"/>
<path d="M7.31646 19.3671C3.26371 19.3671 0 22.6308 0 26.6835C0 30.7363 3.26371 34 7.31646 34C11.3692 34 14.6329 30.7363 14.6329 26.6835C14.6329 22.6308 11.3692 19.3671 7.31646 19.3671ZM9.827 27.7595H4.80591C4.23207 27.7595 3.76582 27.2932 3.76582 26.7194C3.76582 26.1455 4.23207 25.6793 4.80591 25.6793H9.86287C10.4367 25.6793 10.903 26.1455 10.903 26.7194C10.903 27.2932 10.4008 27.7595 9.827 27.7595Z" fill="black"/>
</svg>
