<svg width="64" height="64" viewBox="0 0 64 64" fill="none" xmlns="http://www.w3.org/2000/svg">
<rect x="0.5" y="0.5" width="63" height="63" rx="7.5" fill="white"/>
<rect x="0.5" y="0.5" width="63" height="63" rx="7.5" stroke="#1D4354"/>
<path fill-rule="evenodd" clip-rule="evenodd" d="M32.0006 50.0011C41.9418 50.0011 50.0011 41.9418 50.0011 32.0006C50.0011 22.0593 41.9418 14 32.0006 14C22.0593 14 14 22.0593 14 32.0006C14 41.9418 22.0593 50.0011 32.0006 50.0011ZM32.0006 47.9241C40.795 47.9241 47.9241 40.7951 47.9241 32.0006C47.9241 23.206 40.7951 16.077 32.0006 16.077C23.206 16.077 16.077 23.206 16.077 32.0006C16.077 40.7951 23.206 47.9241 32.0006 47.9241Z" fill="#1D4354"/>
<path fill-rule="evenodd" clip-rule="evenodd" d="M34.2171 31.7525C34.1794 31.8183 34.0705 31.7913 34.0603 31.7163C34.0255 31.4546 33.9401 31.1956 33.7998 30.9528C33.2264 29.9595 31.9562 29.6191 30.9626 30.1928C29.9692 30.7662 29.6288 32.0364 30.2025 33.0297C30.776 34.0233 32.0462 34.3637 33.0395 33.7901C33.0401 33.7898 33.0407 33.7903 33.0404 33.7909L32.9117 34.014C32.8912 34.0494 32.9056 34.0949 32.943 34.112L40.7383 37.6585C41.3485 37.9361 41.8353 37.0932 41.2897 36.7038L34.3248 31.7293C34.2892 31.7038 34.2394 31.7148 34.2173 31.7525L34.2171 31.7525Z" fill="#6BB64A"/>
<path d="M33.0398 19.1908C33.0398 19.7645 32.5748 20.2293 32.0014 20.2293C31.4279 20.2293 30.9629 19.7645 30.9629 19.1908C30.9629 18.6174 31.4279 18.1523 32.0014 18.1523C32.5748 18.1523 33.0398 18.6174 33.0398 19.1908Z" fill="#6BB64A"/>
<path d="M20.2313 31.9994C20.2313 32.5728 19.7665 33.0379 19.1928 33.0379C18.6194 33.0379 18.1543 32.5728 18.1543 31.9994C18.1543 31.426 18.6194 30.9609 19.1928 30.9609C19.7665 30.9609 20.2313 31.426 20.2313 31.9994Z" fill="#6BB64A"/>
<path d="M45.8465 31.9916C45.8465 32.565 45.3814 33.0301 44.808 33.0301C44.2343 33.0301 43.7695 32.565 43.7695 31.9916C43.7695 31.4182 44.2343 30.9531 44.808 30.9531C45.3814 30.9531 45.8465 31.4182 45.8465 31.9916Z" fill="#6BB64A"/>
</svg>
