<svg width="64" height="64" viewBox="0 0 64 64" fill="none" xmlns="http://www.w3.org/2000/svg">
<rect x="0.5" y="0.5" width="63" height="63" rx="7.5" fill="white"/>
<rect x="0.5" y="0.5" width="63" height="63" rx="7.5" stroke="#1D4354"/>
<path d="M47.4901 16C47.7786 16 47.9992 16.2192 47.9992 16.5091V20.8888C47.9992 21.1772 47.78 21.3978 47.4901 21.3978H45.8083V25.8585H47.4901C47.7786 25.8585 47.9992 26.0777 47.9992 26.3675V30.7497C47.9992 31.0382 47.78 31.2588 47.4901 31.2588H45.8083V35.7172H47.4901C47.7775 35.7172 47.9992 35.9389 47.9992 36.2285V40.6081C47.9992 40.8966 47.78 41.1172 47.4901 41.1172H43.108C42.8195 41.1172 42.5989 40.898 42.5989 40.6081V38.9263H38.1405V40.6081C38.1405 40.8955 37.9188 41.1172 37.6292 41.1172H33.2495C32.9611 41.1172 32.7405 40.898 32.7405 40.6081V38.9263H28.6974L24.4571 51.648C24.3867 51.8591 24.1956 51.9988 23.9761 51.9988C23.7569 51.9988 23.5633 51.8591 23.4929 51.648L20.6496 43.1279L12.1295 40.2846C11.9195 40.2142 11.7812 40.0242 11.7812 39.8036C11.7812 39.583 11.9209 39.3967 12.1273 39.3252L25.0734 35.0086V31.2588H23.3915C23.103 31.2588 22.8824 31.0396 22.8824 30.7497V26.3675C22.8824 26.0791 23.1016 25.8585 23.3915 25.8585H25.0734V21.3978H23.3915C23.103 21.3978 22.8824 21.1786 22.8824 20.8888V16.5091C22.8824 16.2206 23.1016 16 23.3915 16H27.7712C28.0597 16 28.2802 16.2192 28.2802 16.5091V18.1909H32.7409V16.5091C32.7409 16.2206 32.9601 16 33.25 16H37.6296C37.9181 16 38.1409 16.2217 38.1409 16.5091V18.1909H42.5993V16.5091C42.5993 16.2206 42.8185 16 43.1084 16H47.4901ZM46.9811 17.017H43.6159V20.3822H46.9811V17.017ZM37.1236 17.017H33.7584V20.3822H37.1236V17.017ZM27.2639 17.017H23.901V20.3822H27.2639V17.017ZM42.5992 19.208H38.1409V20.8899C38.1409 21.1772 37.9192 21.3989 37.6296 21.3989H33.2499C32.9614 21.3989 32.7408 21.1797 32.7408 20.8899V19.208H28.2802V20.8899C28.2802 21.1783 28.061 21.3989 27.7711 21.3989H26.0892V25.8596H27.7711C28.0596 25.8596 28.2802 26.0788 28.2802 26.3687V30.7483C28.2802 31.0368 28.061 31.2574 27.7711 31.2574H26.0892V34.6682L29.6539 33.4787C29.8358 33.4178 30.0364 33.4645 30.171 33.6008C30.3106 33.7416 30.3574 33.9422 30.2965 34.1227L29.0368 37.9079H32.7385V36.226C32.7385 35.9375 32.9577 35.7169 33.2476 35.7169H37.6273C37.9158 35.7169 38.1386 35.9387 38.1386 36.226V37.9079H42.597V36.226C42.597 35.9375 42.8162 35.7169 43.106 35.7169H44.7904V31.2563H43.106C42.8176 31.2563 42.597 31.0371 42.597 30.7472V26.3675C42.597 26.0791 42.8162 25.8585 43.106 25.8585H44.7904V21.3978H43.106C42.8176 21.3978 42.597 21.1786 42.597 20.8888V19.7933L42.5992 19.208ZM46.9814 26.8756H43.6163V30.2386H46.9814V26.8756ZM27.2643 26.8756H23.9013V30.2386H27.2643V26.8756ZM29.0143 34.7648L13.9034 39.8026L21.2156 42.2423C21.3692 42.294 21.4855 42.41 21.5358 42.5625L23.9755 49.8747L28.6425 35.8769L29.0143 34.7648ZM46.9817 36.7332H43.6165V40.0962H46.9817V36.7332ZM37.1242 36.7332H33.759V40.0984L37.1242 40.0961V36.7332Z" fill="#1D4354"/>
</svg>
