<svg width="108" height="71" viewBox="0 0 108 71" fill="none" xmlns="http://www.w3.org/2000/svg">
<path d="M108 46.1333C108 61.4217 101.351 71 89.3869 71C78.8231 71 73.2206 65.2061 62.91 48.1259L57.6113 39.3179C56.2106 37.2248 55.1644 35.2656 54.0338 33.4571C50.6419 39.117 46.0856 47.3557 46.0856 47.3557C34.7794 66.8807 28.4344 71 19.6087 71C7.32712 71 0 61.405 0 46.5686C0 22.6229 13.4629 0 31.0331 0C39.5044 0 46.8619 4.13273 55.4681 14.987C61.7288 6.59764 68.6475 0 77.5069 0C94.23 0 108 21.0488 108 46.1333ZM48.4987 25.0844C41.2594 14.6856 36.5344 11.6045 30.8813 11.6045C20.4356 11.6045 11.6809 29.3712 11.6809 46.7696C11.6809 54.891 14.7994 59.4458 20.0475 59.4458C25.1438 59.4458 28.3162 56.2642 37.4625 42.0642C37.4625 42.0642 41.6306 35.5167 48.4987 25.0844ZM89.64 59.4458C95.0738 59.4458 97.5544 54.8408 97.5544 46.9035C97.5544 26.1059 88.3913 9.15632 76.7644 9.15632C71.1619 9.15632 66.4538 13.4967 60.75 22.221C62.3363 24.5318 63.9731 27.0771 65.6944 29.8233L72.0225 40.2724C81.9281 56.0297 84.4256 59.4458 89.64 59.4458Z" fill="#AEC0D5"/>
</svg>
