<svg width="122" height="102" viewBox="0 0 122 102" fill="none" xmlns="http://www.w3.org/2000/svg">
<path d="M2 100C5.46529 100 10.6632 92.7214 16.7237 91.6848C20.189 91.6848 22.7842 98.9634 31.4474 100C37.5079 100 40.1107 92.7214 46.1711 92.7214C52.2316 92.7214 54.8344 100 60.8948 100C66.9553 100 69.5581 92.7214 75.6185 92.7214C81.679 92.7214 84.2818 100 90.3423 100C96.4027 100 99.0055 92.7214 105.066 92.7214C111.126 92.7214 113.729 100 119.79 100" stroke="#AEC0D5" stroke-width="3.11725" stroke-linecap="round" stroke-linejoin="round"/>
<path d="M13.8475 92.7592L9.88281 85.1704L112.079 78.5878C104.043 85.8967 93.7157 91.821 83.2744 96.6709" stroke="#AEC0D5" stroke-width="3.11725" stroke-linecap="round" stroke-linejoin="round"/>
<path fill-rule="evenodd" clip-rule="evenodd" d="M50.5742 14.4799C67.9612 19.7989 92.2788 45.4935 100.564 73.1099C96.024 71.3243 92.6268 69.5085 86.2561 71.1352C80.0897 48.7016 69.0507 27.2667 50.5742 14.4799Z" stroke="#AEC0D5" stroke-width="3.11725" stroke-linecap="round" stroke-linejoin="round"/>
<path fill-rule="evenodd" clip-rule="evenodd" d="M18.2306 2.20007C40.5053 11.7258 71.0649 38.2527 76.679 73.5791C50.9844 63.2134 31.4335 68.7443 17.8145 77.1503C38.5835 50.7444 29.2696 20.7144 18.2306 2.20007Z" stroke="#AEC0D5" stroke-width="3.11725" stroke-linecap="round" stroke-linejoin="round"/>
</svg>
