<svg width="98" height="100" viewBox="0 0 98 100" fill="none" xmlns="http://www.w3.org/2000/svg">
<path d="M91.5392 40.9271C92.6527 37.561 93.039 33.9941 92.6725 30.4654C92.3059 26.9368 91.1948 23.5276 89.4137 20.4663C86.7728 15.8357 82.7391 12.1696 77.8945 9.99693C73.05 7.8243 67.6452 7.2575 62.4599 8.37831C60.1214 5.72452 57.2469 3.60425 54.0288 2.15942C50.8107 0.714585 47.3231 -0.0214825 43.7996 0.000477275C38.4986 -0.0123448 33.3304 1.66994 29.0401 4.80485C24.7497 7.93975 21.5589 12.3653 19.9274 17.4437C16.4734 18.1552 13.2103 19.6016 10.3566 21.6859C7.50279 23.7701 5.12424 26.4443 3.38016 29.5292C0.719065 34.1471 -0.416679 39.4966 0.136698 44.8063C0.690076 50.1161 2.90398 55.1117 6.45917 59.0729C5.34569 62.4394 4.9593 66.0067 5.32587 69.5358C5.69243 73.0649 6.80349 76.4744 8.58468 79.5362C11.2259 84.1665 15.2596 87.8324 20.1041 90.005C24.9485 92.1776 30.3532 92.7446 35.5385 91.6242C37.8776 94.2777 40.7526 96.3976 43.9711 97.842C47.1897 99.2864 50.6775 100.022 54.2012 99.9995C59.5049 100.014 64.6758 98.3308 68.9679 95.1938C73.26 92.0568 76.4511 87.6279 78.081 82.5463C81.5345 81.8344 84.7971 80.3879 87.6504 78.3036C90.5037 76.2194 92.8819 73.5454 94.6257 70.4608C97.2839 65.8433 98.4173 60.4953 97.8626 55.1875C97.3079 49.8798 95.0937 44.8864 91.5392 40.9271ZM54.2087 93.4692C49.8542 93.4757 45.6361 91.9403 42.2924 89.1316C42.4439 89.0491 42.7096 88.9041 42.8809 88.7965L62.6561 77.2961C63.1532 77.0119 63.5659 76.5993 63.8518 76.101C64.1377 75.6026 64.2864 75.0365 64.2825 74.461V46.3873L72.6405 51.2475C72.6845 51.2693 72.7225 51.3017 72.7511 51.3419C72.7797 51.382 72.798 51.4286 72.8044 51.4776V74.726C72.7985 79.6919 70.8376 84.453 67.3515 87.9658C63.8654 91.4787 59.1383 93.4568 54.2062 93.4667L54.2087 93.4692ZM14.2163 76.2685C12.0357 72.4745 11.2499 68.0291 11.9964 63.7105C12.1454 63.8005 12.3987 63.9581 12.5849 64.0631L32.3601 75.5635C32.8529 75.8533 33.4134 76.0059 33.984 76.0059C34.5547 76.0059 35.1152 75.8533 35.608 75.5635L59.7534 61.528V71.2483C59.7562 71.2978 59.7468 71.3473 59.726 71.3922C59.7052 71.4371 59.6737 71.4762 59.6342 71.5059L39.643 83.1288C35.3665 85.6088 30.2875 86.2792 25.5206 84.9931C20.7536 83.7069 16.6882 80.5693 14.2163 76.2685ZM9.01426 32.8018C11.1864 29.0019 14.6172 26.0928 18.7057 24.584C18.7057 24.754 18.6958 25.059 18.6958 25.269V48.2724C18.6925 48.8468 18.8412 49.4118 19.1267 49.9091C19.4121 50.4065 19.8238 50.8184 20.3197 51.1025L44.4626 65.1381L36.1046 69.9983C36.0632 70.0259 36.0156 70.0426 35.9662 70.047C35.9168 70.0513 35.867 70.0432 35.8215 70.0233L15.8253 58.3928C11.5564 55.9036 8.44201 51.8114 7.16521 47.0137C5.8884 42.2159 6.55336 37.1067 9.01426 32.8018ZM77.6911 48.8949L53.5457 34.8569L61.9062 29.9992C61.9474 29.9722 61.9945 29.9559 62.0434 29.9515C62.0923 29.9472 62.1416 29.9549 62.1868 29.9742L82.1805 41.5947C85.2435 43.3762 87.739 45.9995 89.3749 49.1573C91.0107 52.3151 91.7193 55.8768 91.4176 59.4254C91.1159 62.9739 89.8165 66.3626 87.6713 69.1945C85.5262 72.0264 82.6242 74.1845 79.3051 75.416V51.7251C79.3096 51.1516 79.1625 50.5872 78.8789 50.0899C78.5952 49.5925 78.1853 49.1801 77.6911 48.8949ZM86.0094 36.2869C85.8629 36.1944 85.6072 36.0394 85.4234 35.9344L65.6457 24.434C65.1528 24.1445 64.5924 23.9919 64.0218 23.9919C63.4512 23.9919 62.8908 24.1445 62.3979 24.434L38.2549 38.4695V28.7491C38.2521 28.6996 38.2615 28.6502 38.2823 28.6053C38.3031 28.5603 38.3347 28.5213 38.3741 28.4916L58.3629 16.8787C61.4258 15.0996 64.9285 14.2357 68.4613 14.388C71.994 14.5403 75.4106 15.7025 78.3113 17.7386C81.2119 19.7748 83.4766 22.6005 84.8404 25.8853C86.2041 29.1701 86.608 32.7781 86.0094 36.2869ZM33.7084 53.6101L25.3479 48.7499C25.3044 48.7278 25.2669 48.6953 25.2387 48.6552C25.2106 48.6151 25.1927 48.5686 25.1865 48.5199V25.2715C25.1895 21.7113 26.1994 18.2256 28.0981 15.2223C29.9969 12.2189 32.7059 9.82217 35.9082 8.31247C39.1104 6.80278 42.6735 6.24258 46.1805 6.69744C49.6874 7.15229 52.9932 8.60339 55.7109 10.8809C55.5135 10.9887 55.3181 11.1004 55.1249 11.2159L35.3473 22.7164C34.8514 23.0005 34.4396 23.4124 34.1542 23.9098C33.8688 24.4072 33.7201 24.9721 33.7233 25.5465L33.7084 53.6101ZM38.25 43.7522L49.0017 37.4995L59.7584 43.7497V56.2502L49.0042 62.5005L38.25 56.2502V43.7522Z" fill="#AEC0D5"/>
</svg>
