<svg width="67" height="66" viewBox="0 0 67 66" fill="none" xmlns="http://www.w3.org/2000/svg">
<g clip-path="url(#clip0_1559_9757)">
<path d="M40.1053 21.1992C40.7857 21.3355 41.0573 20.7232 41.4652 20.3826C43.4382 18.4105 45.4776 16.4384 47.4506 14.3981C47.9947 13.854 48.5389 13.2417 49.4227 13.5134C50.3747 13.7859 50.4428 14.6016 50.5791 15.3501C52.2787 25.9601 53.9792 36.5692 55.6797 47.1102V47.4509C55.9513 49.0142 56.9715 50.851 56.1557 52.0755C55.4072 53.231 53.5032 53.7751 52.1434 54.5236C46.7702 57.5159 41.3971 60.44 36.093 63.5004C34.0527 64.6568 32.1487 64.8611 30.0403 63.6366C23.7833 60.0321 17.4591 56.5639 11.1331 53.0275C10.5898 52.755 9.7732 52.6869 9.70508 51.803C9.97758 51.6667 10.1138 51.4633 10.1138 51.1907C10.7933 50.9873 11.2021 50.4431 11.6781 49.9671C17.3228 44.3224 22.9676 38.7458 28.5442 33.101C30.5163 31.128 32.4203 29.1559 34.3243 27.1837C36.4327 25.2797 38.6773 23.5792 40.1053 21.1992Z" fill="white"/>
<path d="M40.1045 21.199C38.6765 23.6471 36.4327 25.2795 34.3916 27.1835C32.2151 23.7834 30.7871 19.9745 28.339 16.4381C25.959 20.9265 23.7143 25.1441 21.4697 29.4281C18.75 34.5288 16.0293 39.6294 13.3768 44.73C12.2886 46.9065 10.8606 48.8786 10.1121 51.1905C10.1121 51.463 9.90857 51.6665 9.70508 51.8028C10.3846 46.9746 11.065 42.1456 11.8126 37.3166C13.0371 29.6316 14.2607 22.0829 15.4852 14.466C16.1656 10.3174 16.7769 6.23775 17.4582 2.08824C17.5936 1.20348 17.798 0.455859 18.8181 0.320491C19.7701 0.184238 20.178 0.864617 20.5177 1.61224L27.6586 14.8748C27.8621 15.2817 28.0665 15.6224 28.4071 16.1665C29.6988 14.3979 30.4473 12.562 31.3993 10.7934C31.8072 10.113 32.1478 9.36537 33.0317 9.36537C33.9165 9.36537 34.2553 10.0457 34.596 10.6571C36.4318 14.1254 38.2677 17.6626 40.1045 21.199Z" fill="white"/>
<path d="M10.1797 51.1225C10.9282 48.8106 12.3562 46.8385 13.4444 44.662C16.0969 39.4933 18.8176 34.4608 21.5373 29.3601C23.7819 25.1434 26.0266 20.9266 28.4066 16.3701C30.8547 19.9065 32.2827 23.7154 34.4592 27.1155C32.5552 29.0885 30.6503 31.0597 28.6782 33.0319L11.8121 49.8989C11.2679 50.4421 10.8601 50.9871 10.1797 51.1225Z" fill="#E0E0E0"/>
</g>
<defs>
<clipPath id="clip0_1559_9757">
<rect width="65.4721" height="65.4721" fill="white" transform="translate(0.539062 0.188721)"/>
</clipPath>
</defs>
</svg>
