<svg width="109" height="46" viewBox="0 0 109 46" fill="none" xmlns="http://www.w3.org/2000/svg">
<g clip-path="url(#clip0_2476_27939)">
<path fill-rule="evenodd" clip-rule="evenodd" d="M38.7338 27.1454C39.0044 27.186 39.3209 27.2184 39.6482 27.2455C39.9187 27.2726 40.2515 27.2969 40.614 27.3131C40.9765 27.3294 41.3607 27.3375 41.7637 27.3375C42.1928 27.3471 42.6217 27.3118 43.0433 27.232C43.3047 27.188 43.5521 27.0833 43.7656 26.9262C43.9309 26.8021 44.0476 26.6241 44.0957 26.423C44.1464 26.1975 44.17 25.9668 44.166 25.7358C44.1673 25.5478 44.1583 25.3599 44.139 25.173C44.1218 25.015 44.075 24.8617 44.001 24.7211C43.9255 24.5847 43.82 24.4673 43.6926 24.3775C43.5282 24.266 43.3448 24.1853 43.1515 24.1394L40.7357 23.509C40.3929 23.4262 40.0652 23.2902 39.7645 23.1059C39.4965 22.9455 39.2703 22.7239 39.1045 22.4592C38.9281 22.1702 38.807 21.8509 38.7474 21.5176C38.6662 21.0896 38.6281 20.6546 38.6337 20.2189C38.6224 19.6983 38.7144 19.1806 38.9043 18.6957C39.0661 18.2875 39.323 17.9239 39.6536 17.635C39.9975 17.3485 40.3988 17.1391 40.8304 17.0209C41.3298 16.8824 41.8461 16.815 42.3643 16.8206C42.7967 16.8182 43.2287 16.8453 43.6574 16.9018C44.047 16.9532 44.3824 17.01 44.6665 17.0723C44.9718 17.1362 45.2734 17.2166 45.57 17.3131V18.8472C45.3212 18.8147 45.0587 18.7849 44.7828 18.7579C44.5447 18.7281 44.2769 18.7065 43.9712 18.6848C43.6655 18.6632 43.3707 18.6578 43.0541 18.6578C42.5618 18.6578 42.1587 18.674 41.8422 18.7065C41.5816 18.7237 41.3274 18.7946 41.0955 18.9148C40.9176 19.0127 40.7819 19.1725 40.7141 19.364C40.633 19.6126 40.5963 19.8737 40.6059 20.1351C40.6037 20.2934 40.6136 20.4517 40.6356 20.6086C40.6507 20.7417 40.6977 20.8693 40.7726 20.9805C40.8474 21.0916 40.948 21.1831 41.0658 21.2471C41.2364 21.3414 41.4182 21.4141 41.6068 21.4635L43.8603 22.1102C44.1209 22.1871 44.3773 22.2774 44.6286 22.3807C44.8371 22.464 45.0343 22.5731 45.2157 22.7054C45.3792 22.8283 45.5233 22.9752 45.6431 23.141C45.7695 23.3221 45.8663 23.5221 45.9298 23.7336C46.0093 23.9982 46.0618 24.2701 46.0868 24.5453C46.1243 24.9048 46.1414 25.2661 46.1382 25.6275C46.1472 26.1731 46.0927 26.7179 45.9758 27.2509C45.885 27.6718 45.6724 28.0566 45.3644 28.3575C45.0133 28.6688 44.5888 28.8857 44.1308 28.9879C43.4645 29.1384 42.7822 29.2065 42.0992 29.1909C41.564 29.1966 41.0291 29.1677 40.4977 29.1043C40.1497 29.0594 39.8047 28.9944 39.4643 28.9095C39.212 28.8508 38.9683 28.7599 38.7392 28.6389L38.7338 27.1454Z" fill="white"/>
<path fill-rule="evenodd" clip-rule="evenodd" d="M52.7824 29.1718C52.3068 29.1748 51.8318 29.1386 51.3621 29.0636C50.9469 28.999 50.5438 28.8723 50.1664 28.6875C49.8066 28.507 49.4821 28.2633 49.2087 27.9678C48.9062 27.6351 48.6652 27.2513 48.4972 26.8341C48.2875 26.3122 48.1404 25.7673 48.059 25.2107C47.9524 24.4879 47.9027 23.7579 47.9102 23.0273C47.8851 21.9936 47.9961 20.9611 48.2402 19.9564C48.4091 19.2585 48.7389 18.6099 49.2033 18.0624C49.6168 17.6057 50.1487 17.2723 50.7399 17.0992C51.4042 16.9115 52.0921 16.8204 52.7824 16.8286C53.2556 16.827 53.728 16.8659 54.1945 16.945C54.6103 17.0162 55.0132 17.1484 55.3903 17.3373C55.751 17.5209 56.0747 17.7695 56.3452 18.0705C56.6402 18.4099 56.8769 18.7957 57.0459 19.2123C57.254 19.7346 57.4002 20.2794 57.4814 20.8357C57.5855 21.5614 57.6325 22.2942 57.6221 23.0273C57.6289 23.7516 57.5792 24.4753 57.4733 25.1918C57.3928 25.7482 57.2466 26.2932 57.0378 26.8152C56.8709 27.2321 56.6339 27.6173 56.3371 27.9543C56.0659 28.2503 55.7421 28.4934 55.3821 28.6713C55.0039 28.8545 54.6012 28.9821 54.1864 29.05C53.7225 29.129 53.2529 29.1697 52.7824 29.1718ZM52.7824 27.3374C53.2409 27.3503 53.6982 27.2853 54.135 27.1453C54.4865 27.0223 54.7859 26.7839 54.9845 26.4689C55.2238 26.065 55.375 25.615 55.4281 25.1485C55.5243 24.4457 55.5677 23.7366 55.558 23.0273C55.5676 22.3135 55.5242 21.5999 55.4281 20.8925C55.3739 20.4229 55.2228 19.9696 54.9845 19.5613C54.7875 19.2419 54.4881 18.9986 54.135 18.8714C53.252 18.6112 52.3127 18.6112 51.4298 18.8714C51.0794 18.9996 50.7828 19.2429 50.5884 19.5613C50.3502 19.9699 50.1983 20.423 50.142 20.8925C50.0484 21.6001 50.0059 22.3136 50.0149 23.0273C50.0058 23.7365 50.0483 24.4454 50.142 25.1485C50.1973 25.6149 50.3493 26.0646 50.5884 26.4689C50.7879 26.7853 51.0895 27.0239 51.4433 27.1453C51.8764 27.2802 52.3289 27.3423 52.7824 27.3293V27.3374Z" fill="white"/>
<path fill-rule="evenodd" clip-rule="evenodd" d="M60.0977 17.0625H62.089V27.0734H66.9889V28.9241H60.0977V17.0625Z" fill="white"/>
<path fill-rule="evenodd" clip-rule="evenodd" d="M68.8652 17.0625H70.8566V28.9132H68.8652V17.0625Z" fill="white"/>
<path fill-rule="evenodd" clip-rule="evenodd" d="M73.8779 17.0625H78.1306C78.5516 17.0623 78.9721 17.0931 79.3886 17.1545C79.773 17.2118 80.148 17.321 80.5031 17.4792C80.8522 17.638 81.1701 17.8579 81.4418 18.1285C81.7456 18.4359 81.9904 18.7962 82.1642 19.1918C82.3843 19.6904 82.5397 20.215 82.6268 20.753C82.7404 21.4615 82.7938 22.1784 82.7864 22.8959C82.7943 23.6364 82.7446 24.3763 82.6376 25.1091C82.5585 25.6609 82.4141 26.2013 82.2074 26.719C82.0452 27.1227 81.8115 27.4939 81.5176 27.8147C81.2542 28.0954 80.9403 28.3239 80.5924 28.4884C80.2315 28.6562 79.8477 28.7692 79.4535 28.8239C79.0154 28.8876 78.5732 28.9184 78.1306 28.9159H73.8779V17.0625ZM77.5896 27.0734C77.8736 27.0734 78.1468 27.0734 78.4011 27.0518C78.655 27.0405 78.9058 26.9913 79.1451 26.9056C79.3817 26.8178 79.5993 26.6856 79.7862 26.516C79.9999 26.3147 80.167 26.069 80.2759 25.7963C80.4298 25.4196 80.5362 25.0251 80.5924 24.6221C80.673 24.0431 80.7101 23.4588 80.7033 22.8742C80.7102 22.3311 80.674 21.7883 80.5951 21.2508C80.5423 20.8693 80.4395 20.4963 80.2894 20.1415C80.1786 19.8799 80.0136 19.6447 79.8052 19.4516C79.6218 19.2901 79.4086 19.166 79.1775 19.0863C78.9357 19.0033 78.6835 18.9541 78.4282 18.9402C78.1577 18.924 77.8871 18.9159 77.5841 18.9159H75.8663V27.0572L77.5896 27.0734Z" fill="white"/>
<path fill-rule="evenodd" clip-rule="evenodd" d="M85.2539 17.0625H87.2453V28.9132H85.2539V17.0625Z" fill="white"/>
<path fill-rule="evenodd" clip-rule="evenodd" d="M92.4089 18.8996H88.8569V17.0625H97.9737V18.8996H94.3865V28.9105H92.4089V18.8996Z" fill="white"/>
<path fill-rule="evenodd" clip-rule="evenodd" d="M102.156 24.3515L98.0713 17.076H100.406L103.125 22.2276H103.157L105.884 17.0625H108.211L104.134 24.3515V28.9268H102.156V24.3515Z" fill="white"/>
<path d="M29.5577 13.1452H14.7762L7.38808 26.2812L0 13.1452L7.38808 0.00390625H22.1697L29.5577 13.1452Z" fill="white"/>
<path d="M29.6337 32.8508L22.2429 45.9948H7.45862L0.0732422 32.8508H14.8521L22.2429 19.7148L29.6337 32.8508Z" fill="white"/>
</g>
<defs>
<clipPath id="clip0_2476_27939">
<rect width="108.219" height="46" fill="white"/>
</clipPath>
</defs>
</svg>
