<svg width="136" height="46" viewBox="0 0 136 46" fill="none" xmlns="http://www.w3.org/2000/svg">
<g clip-path="url(#clip0_2476_27576)">
<path fill-rule="evenodd" clip-rule="evenodd" d="M31.3122 18.4625C31.0589 18.3195 30.773 18.2444 30.4821 18.2444C30.1912 18.2444 29.9053 18.3195 29.652 18.4625L25.8508 20.7347L23.2657 22.1912L19.4427 24.478C19.1894 24.621 18.9035 24.6961 18.6126 24.6961C18.3217 24.6961 18.0358 24.621 17.7824 24.478L14.7605 22.701C14.5063 22.5526 14.2958 22.3398 14.1501 22.0841C14.0043 21.8284 13.9285 21.5388 13.9303 21.2445V17.7488C13.919 17.4527 13.9908 17.1594 14.1375 16.902C14.2842 16.6446 14.5 16.4333 14.7605 16.2922L17.7315 14.5662C17.9836 14.4197 18.27 14.3426 18.5616 14.3426C18.8532 14.3426 19.1396 14.4197 19.3917 14.5662L22.3701 16.2922C22.6223 16.4421 22.831 16.6554 22.9753 16.9109C23.1197 17.1665 23.1947 17.4553 23.1929 17.7488V20.0137L25.778 18.4843V16.2485C25.7902 15.9523 25.7188 15.6586 25.572 15.4011C25.4252 15.1435 25.2089 14.9324 24.9478 14.792L19.4427 11.5657C19.1894 11.4228 18.9035 11.3477 18.6126 11.3477C18.3217 11.3477 18.0358 11.4228 17.7824 11.5657L12.1754 14.8211C11.9154 14.9629 11.7001 15.1742 11.5535 15.4315C11.4069 15.6887 11.3348 15.9817 11.3452 16.2776V22.8321C11.3348 23.128 11.4069 23.421 11.5535 23.6783C11.7001 23.9355 11.9154 24.1469 12.1754 24.2887L17.7824 27.5368C18.0346 27.6832 18.321 27.7604 18.6126 27.7604C18.9042 27.7604 19.1906 27.6832 19.4427 27.5368L23.2439 25.3519L25.829 23.8226L29.6301 21.6377C29.8823 21.4913 30.1687 21.4142 30.4603 21.4142C30.7518 21.4142 31.0382 21.4913 31.2904 21.6377L34.2687 23.3638C34.5209 23.5144 34.7298 23.7277 34.8752 23.9829C35.0207 24.2381 35.0977 24.5266 35.0988 24.8203V28.316C35.1085 28.6118 35.036 28.9045 34.8895 29.1616C34.7429 29.4187 34.5281 29.6301 34.2687 29.7726L31.3122 31.3748C31.0601 31.5212 30.7737 31.5984 30.4821 31.5984C30.1905 31.5984 29.9041 31.5212 29.652 31.3748L26.6809 29.6488C26.4288 29.4981 26.2198 29.2849 26.0744 29.0297C25.9289 28.7744 25.8519 28.486 25.8508 28.1922V25.9564L23.2657 27.4785V29.7507C23.2569 30.0464 23.3297 30.3387 23.4762 30.5956C23.6226 30.8526 23.837 31.0642 24.0959 31.2073L29.7029 34.4554C29.9551 34.6018 30.2415 34.679 30.5331 34.679C30.8247 34.679 31.1111 34.6018 31.3632 34.4554L36.9703 31.2073C37.2215 31.0556 37.4297 30.8421 37.575 30.5871C37.7203 30.3321 37.7979 30.0442 37.8004 29.7507V23.1963C37.81 22.9005 37.7376 22.6078 37.5911 22.3507C37.4445 22.0936 37.2297 21.8821 36.9703 21.7397L31.3122 18.4625Z" fill="white"/>
<path fill-rule="evenodd" clip-rule="evenodd" d="M48.0608 32.5547V27.1145C48.4332 27.5074 48.8866 27.8145 49.3896 28.0144C49.8926 28.2144 50.4332 28.3024 50.9736 28.2724C54.1631 28.2724 56.3258 26.0221 56.3258 22.5919C56.3258 19.1617 54.3379 16.9113 51.2285 16.9113C50.6301 16.8807 50.0327 16.989 49.4831 17.2278C48.9336 17.4666 48.4468 17.8294 48.0608 18.2878V17.0861H45.0024V32.5547H48.0608ZM50.6168 25.6506C48.9638 25.6506 47.8861 24.4271 47.8861 22.5919C47.8861 20.7566 48.9638 19.5113 50.6168 19.5113C52.2698 19.5113 53.3257 20.7348 53.3257 22.5919C53.3257 24.449 52.2407 25.6506 50.6314 25.6506H50.6168Z" fill="white"/>
<path fill-rule="evenodd" clip-rule="evenodd" d="M63.3089 28.2733C64.4256 28.2446 65.5091 27.8873 66.4238 27.2459C67.3385 26.6046 68.0438 25.7077 68.4515 24.6676C68.8591 23.6274 68.951 22.4901 68.7157 21.3979C68.4804 20.3058 67.9282 19.3073 67.1284 18.5273C66.3286 17.7474 65.3165 17.2207 64.2189 17.013C63.1213 16.8054 61.9868 16.9261 60.9574 17.36C59.9279 17.7939 59.0493 18.5217 58.4314 19.4525C57.8135 20.3832 57.4837 21.4755 57.4834 22.5927C57.4561 24.0718 58.0165 25.5013 59.0417 26.5676C60.067 27.6339 61.4733 28.25 62.9521 28.2806L63.3089 28.2733ZM63.3089 25.6515C61.6632 25.6515 60.5345 24.4061 60.5345 22.5927C60.5345 20.7793 61.6632 19.5121 63.3089 19.5121C64.9546 19.5121 66.0906 20.7575 66.0906 22.5782C66.0906 24.3989 64.9619 25.6515 63.3089 25.6515Z" fill="white"/>
<path fill-rule="evenodd" clip-rule="evenodd" d="M74.0865 28.0971V12.3008H71.0205V28.0971H74.0865Z" fill="white"/>
<path fill-rule="evenodd" clip-rule="evenodd" d="M83.2908 17.0859L80.9751 24.1866L78.6449 17.0859H75.5137L79.5406 28.0101L77.9167 32.5545H80.8295L82.3951 28.0538L86.422 17.0859H83.2908Z" fill="white"/>
<path fill-rule="evenodd" clip-rule="evenodd" d="M95.036 18.2075C94.6518 17.783 94.1782 17.4491 93.6493 17.23C93.1204 17.0109 92.5494 16.9119 91.9776 16.9403C88.7372 16.9403 86.7783 19.1907 86.7783 22.6208C86.7783 26.051 88.7372 28.3014 92.0213 28.3014C92.5925 28.3345 93.1636 28.2353 93.6902 28.0118C94.2169 27.7882 94.6849 27.4462 95.0579 27.0123V28.4689C95.0923 28.8922 94.9589 29.312 94.6864 29.6377C94.4139 29.9634 94.0242 30.1688 93.6015 30.2095H88.3731V32.5545H93.9364C96.4487 32.5545 98.1235 31.047 98.1235 28.7529V17.1005H95.036V18.2075ZM92.4801 25.6505C90.8489 25.6505 89.7712 24.4488 89.7712 22.5917C89.7712 20.7346 90.8489 19.5111 92.4801 19.5111C94.1112 19.5111 95.2108 20.7346 95.2108 22.5917C95.2108 24.4488 94.1549 25.6505 92.4801 25.6505Z" fill="white"/>
<path fill-rule="evenodd" clip-rule="evenodd" d="M105.843 28.2733C106.959 28.2446 108.043 27.8873 108.958 27.2459C109.872 26.6046 110.577 25.7077 110.985 24.6676C111.393 23.6274 111.485 22.4901 111.249 21.3979C111.014 20.3058 110.462 19.3073 109.662 18.5273C108.862 17.7474 107.85 17.2207 106.753 17.013C105.655 16.8054 104.52 16.9261 103.491 17.36C102.462 17.7939 101.583 18.5217 100.965 19.4525C100.347 20.3832 100.017 21.4755 100.017 22.5927C99.9898 24.0718 100.55 25.5013 101.575 26.5676C102.601 27.6339 104.007 28.25 105.486 28.2806L105.843 28.2733ZM105.843 25.6515C104.19 25.6515 103.061 24.4061 103.061 22.5927C103.061 20.7793 104.19 19.5121 105.843 19.5121C107.496 19.5121 108.617 20.7575 108.617 22.5927C108.617 24.428 107.488 25.6515 105.843 25.6515Z" fill="white"/>
<path fill-rule="evenodd" clip-rule="evenodd" d="M116.46 28.0983V22.0682C116.437 21.7691 116.474 21.4684 116.568 21.1835C116.662 20.8986 116.811 20.6352 117.008 20.4083C117.204 20.1815 117.443 19.9958 117.712 19.862C117.98 19.7281 118.272 19.6488 118.572 19.6285H118.746C119.028 19.6207 119.308 19.6691 119.571 19.7706C119.834 19.8722 120.074 20.025 120.277 20.2202C120.481 20.4153 120.643 20.6489 120.755 20.9074C120.867 21.1659 120.927 21.4441 120.931 21.7259C120.935 21.7914 120.935 21.8571 120.931 21.9226V28.1056H124.011V21.238C124.011 18.7036 122.38 16.912 119.875 16.912C119.212 16.8692 118.55 17.0047 117.957 17.3044C117.364 17.6041 116.862 18.057 116.504 18.6162V17.0868H113.416V28.0983H116.46Z" fill="white"/>
</g>
<defs>
<clipPath id="clip0_2476_27576">
<rect width="135.312" height="46" fill="white"/>
</clipPath>
</defs>
</svg>
