<svg width="134" height="46" viewBox="0 0 134 46" fill="none" xmlns="http://www.w3.org/2000/svg">
<g clip-path="url(#clip0_2476_27428)">
<path fill-rule="evenodd" clip-rule="evenodd" d="M45.6717 38.5575C42.8156 38.5575 40.9653 36.9349 39.7937 35.1438V38.2231H38.4214V16.2988H39.7937V27.1371C41.0322 25.2618 42.8454 23.6094 45.6717 23.6094C49.1147 23.6094 52.6073 26.3815 52.6073 31.0265V31.0834C52.6247 35.7309 49.1147 38.5575 45.6717 38.5575ZM51.1211 31.0834C51.1211 27.3328 48.5178 24.9248 45.5206 24.9248C42.5234 24.9248 39.6995 27.417 39.6995 31.0562V31.1107C39.6995 34.7796 42.5556 37.242 45.5206 37.242C48.6292 37.242 51.1211 34.9753 51.1211 31.1404V31.0834ZM54.0019 38.2231V23.9438H55.3742V38.2231H54.0019ZM62.456 38.4708C60.244 38.4708 58.4531 37.2693 58.4531 34.5517V25.2048H56.3898V23.9438H58.4631V19.3806H59.8328V23.9438H64.8439V25.2048H59.8328V34.4154C59.8328 36.4592 61.0367 37.1875 62.6889 37.1875C63.4176 37.1845 64.1361 37.015 64.7894 36.6921V37.9803C64.0629 38.3205 63.268 38.4892 62.4659 38.4733L62.456 38.4708ZM70.4321 38.5005C68.3087 38.4637 66.2551 37.7367 64.5813 36.4295L65.3938 35.337C66.9617 36.541 68.6957 37.2123 70.5163 37.2123C72.4484 37.2123 73.9594 36.1495 73.9594 34.4873V34.4352C73.9594 32.7556 72.1685 32.1413 70.1794 31.5814C67.856 30.9076 65.2823 30.2089 65.2823 27.6598V27.6053C65.2823 25.3088 67.2144 23.6565 69.9887 23.6565C71.7912 23.6959 73.5468 24.2391 75.0567 25.2246L74.3284 26.3741C73.0316 25.4848 71.5059 24.9885 69.9342 24.9447C67.9749 24.9447 66.6868 26.0099 66.6868 27.4368V27.4988C66.6868 29.0942 68.6189 29.6813 70.65 30.2684C72.9463 30.9125 75.3564 31.7548 75.3564 34.2717V34.3287C75.3688 36.8779 73.184 38.503 70.442 38.503L70.4321 38.5005ZM87.5062 38.2206V29.7407C87.5062 26.8002 85.8541 24.8679 82.9708 24.8679C80.1718 24.8679 78.0167 26.9959 78.0167 29.9637V38.2231H76.6519V16.2988H78.0217V26.6045C78.9753 24.9248 80.5706 23.6094 83.1739 23.6094C86.7829 23.6094 88.8711 26.0718 88.8711 29.488V38.2231L87.5062 38.2206ZM100.523 38.2206V35.8399C99.5322 37.2123 97.7785 38.5649 95.0736 38.5649C92.4132 38.5649 89.5597 37.0538 89.5597 34.0859V34.0314C89.5597 31.0587 92.1061 29.384 95.8018 29.384C97.3998 29.3678 98.9921 29.5746 100.533 29.9984V29.384C100.533 26.5004 98.7693 25.0165 95.8266 25.0165C94.2625 25.0269 92.7247 25.4207 91.3481 26.1635L90.8527 24.9595C92.4182 24.2312 93.9589 23.7209 95.9182 23.7209C99.5843 23.7209 101.88 25.6259 101.88 29.3196V38.2231L100.523 38.2206ZM100.55 31.2494C98.9706 30.8268 97.3429 30.6103 95.7077 30.6053C92.6832 30.6053 91.0013 31.948 91.0013 33.9373V33.9918C91.0013 36.0653 92.9607 37.2693 95.1454 37.2693C98.0559 37.2693 100.548 35.4757 100.548 32.8721L100.55 31.2494ZM111.271 25.2295C107.967 25.2295 105.078 27.7217 105.078 32.3692V38.2206H103.706V23.9438H105.078V27.9942C106.198 25.4476 108.578 23.5995 111.405 23.711V25.2221L111.271 25.2295ZM117.203 37.2693C119.415 37.2693 120.919 36.2784 122.103 35.0397L123.054 35.882C121.598 37.4477 119.891 38.5674 117.149 38.5674C113.396 38.5674 110.149 35.5723 110.149 31.1206V31.0661C110.149 26.9216 113.062 23.6193 116.923 23.6193C120.926 23.6193 123.475 26.8671 123.475 31.0934V31.1503C123.479 31.316 123.469 31.4817 123.445 31.6458H111.605C111.868 35.1983 114.414 37.2718 117.213 37.2718L117.203 37.2693ZM121.991 30.4096C121.796 27.526 120.144 24.8654 116.869 24.8654C114.04 24.8654 111.858 27.2461 111.605 30.4096H121.991ZM129.016 38.5005C126.893 38.4642 124.839 37.7372 123.166 36.4295L123.978 35.337C125.544 36.541 127.28 37.2123 129.101 37.2123C131.03 37.2123 132.544 36.1495 132.544 34.4873V34.4352C132.544 32.7556 130.75 32.1413 128.764 31.5814C126.44 30.9076 123.864 30.2089 123.864 27.6598V27.6053C123.864 25.3088 125.796 23.6565 128.57 23.6565C130.372 23.6953 132.127 24.2386 133.636 25.2246L132.908 26.3741C131.611 25.4848 130.085 24.9885 128.514 24.9447C126.554 24.9447 125.266 26.0099 125.266 27.4368V27.4988C125.266 29.0942 127.198 29.6813 129.242 30.2684C131.538 30.9125 133.948 31.7548 133.948 34.2717V34.3287C133.953 36.8779 131.768 38.503 129.026 38.503L129.016 38.5005ZM52.9145 20.6341L52.8947 17.7852L55.2107 19.725L55.228 22.5739L52.9145 20.6341Z" fill="white"/>
<path fill-rule="evenodd" clip-rule="evenodd" d="M10.2675 28.8285L0.359375 18.9193V30.8252H9.48971C9.59698 30.11 9.86272 29.4278 10.2675 28.8285ZM9.49219 32.7922H0.359375C0.572704 35.8954 1.78994 38.8449 3.82722 41.1953L10.2675 34.675C9.85736 34.1212 9.59097 33.4743 9.49219 32.7922ZM23.8912 21.0398C21.5604 18.9722 18.5977 17.7557 15.4866 17.5889V26.7104C16.1856 26.8232 16.8522 27.0851 17.441 27.4784L23.8912 21.0398ZM18.9371 34.5709L25.3774 41.0119C27.3765 38.6919 28.566 35.7839 28.766 32.7278H19.601C19.4909 33.3767 19.2661 34.0009 18.9371 34.5709ZM19.5985 30.8302H28.7263C28.5125 27.7271 27.2953 24.7777 25.2585 22.4271L18.8182 28.8979C19.2247 29.4727 19.4919 30.1342 19.5985 30.8302ZM5.19454 42.538C7.5224 44.6112 10.4843 45.8338 13.5966 46.0062V36.855C12.8986 36.7431 12.2328 36.482 11.6447 36.0895L5.20445 42.5305L5.19454 42.538ZM15.4866 36.8401V45.9715C18.5975 45.7679 21.5532 44.5386 23.8912 42.476L17.4881 36.0722C16.8801 36.4642 16.1994 36.7296 15.4866 36.8525V36.8401ZM0.359375 15.9688C2.80668 18.4164 10.4781 26.158 11.7711 27.4288C12.3214 27.0828 12.926 26.8315 13.5595 26.6856V11.792L0.381668 0C0.359375 0 0.359375 15.5328 0.359375 15.9688Z" fill="white"/>
</g>
<defs>
<clipPath id="clip0_2476_27428">
<rect width="133.594" height="46" fill="white" transform="translate(0.359375)"/>
</clipPath>
</defs>
</svg>
