<svg width="108" height="46" viewBox="0 0 108 46" fill="none" xmlns="http://www.w3.org/2000/svg">
<g clip-path="url(#clip0_2476_27996)">
<path fill-rule="evenodd" clip-rule="evenodd" d="M29.9575 11.9609H34.9423V21.8656L44.1386 11.9609H50.1597L40.9362 21.5771L50.5841 34.6238H44.5918L37.5662 24.9759L34.9439 27.6949V34.6238H29.959L29.9575 11.9609Z" fill="white"/>
<path fill-rule="evenodd" clip-rule="evenodd" d="M47.9312 26.0419V25.9784C47.9312 20.9936 51.9462 16.9453 57.3525 16.9453C62.727 16.9453 66.7088 20.9271 66.7088 25.9135V25.9784C66.7088 30.9632 62.6938 35.01 57.2875 35.01C51.913 35.0055 47.9312 31.0282 47.9312 26.0419ZM61.8524 26.0419V25.9784C61.8524 23.4195 60.0065 21.1854 57.2875 21.1854C54.4703 21.1854 52.7876 23.3546 52.7876 25.9135V25.9784C52.7876 28.5358 54.6335 30.7699 57.3525 30.7699C60.1697 30.7759 61.8524 28.6007 61.8524 26.0419Z" fill="white"/>
<path fill-rule="evenodd" clip-rule="evenodd" d="M68.0671 29.701V21.4776H65.9961V17.2692H68.0671V12.8342H72.9884V17.2692H77.0669V21.4776H72.9884V28.8929C72.9884 30.0258 73.4748 30.5756 74.576 30.5756C75.4242 30.58 76.2596 30.3684 77.0035 29.9608V33.9109C75.9673 34.5257 74.7694 34.9139 73.1184 34.9139C70.1078 34.9139 68.0671 33.7161 68.0671 29.701ZM78.4808 10.9883H83.4022V34.6224H78.4808V10.9883ZM85.1801 10.9883H90.3613V15.3583H85.1801V10.9883ZM85.31 17.2692H90.2314V34.6224H85.31V17.2692ZM92.1075 17.2692H97.0289V19.7299C98.1618 18.2722 99.6195 16.9459 102.112 16.9459C105.835 16.9459 108.003 19.4066 108.003 23.3884V34.6224H103.079V24.9428C103.079 22.6195 101.977 21.4111 100.1 21.4111C98.2222 21.4111 97.0244 22.6195 97.0244 24.9428V34.6224H92.103L92.1075 17.2692Z" fill="white"/>
<path fill-rule="evenodd" clip-rule="evenodd" d="M11.376 11.9453L0 23.9104V34.6051L11.3594 23.2216L22.6583 11.9453H11.376Z" fill="white"/>
<path fill-rule="evenodd" clip-rule="evenodd" d="M0 34.6101L11.3594 23.2266L22.6583 34.6101H0Z" fill="white"/>
<path fill-rule="evenodd" clip-rule="evenodd" d="M0 11.9453H11.376L0 23.9104V11.9453Z" fill="white"/>
</g>
<defs>
<clipPath id="clip0_2476_27996">
<rect width="108" height="46" fill="white"/>
</clipPath>
</defs>
</svg>
