<svg width="141" height="46" viewBox="0 0 141 46" fill="none" xmlns="http://www.w3.org/2000/svg">
<g clip-path="url(#clip0_2476_27559)">
<path d="M8.91858 20.7662L14.3593 15.3254L19.8001 20.7662L22.9628 17.6035L14.3593 9L5.75586 17.6035L8.91858 20.7662Z" fill="white"/>
<path d="M0.359375 23.0006L3.52209 19.8379L6.68481 23.0006L3.52209 26.1633L0.359375 23.0006Z" fill="white"/>
<path d="M8.91858 25.2344L14.3593 30.6751L19.8001 25.2344L22.9628 28.3971L14.3593 37.0006L5.75586 28.3971L8.91858 25.2344Z" fill="white"/>
<path d="M22.0342 23.0006L25.1969 19.8379L28.3596 23.0006L25.1969 26.1633L22.0342 23.0006Z" fill="white"/>
<path d="M17.5661 22.9999L14.3592 19.793L11.9926 22.1595L11.7272 22.4249L11.1743 22.9778L14.3813 26.1848L17.5661 22.9999Z" fill="white"/>
<path d="M33.3024 15.7891H40.1807C41.8837 15.7891 43.1886 16.2314 44.0512 17.1161C44.7147 17.7796 45.0907 18.6864 45.0686 19.6153V19.6595C45.0686 20.0355 45.0243 20.4115 44.9138 20.7875C44.8253 21.0971 44.6705 21.4068 44.4935 21.6722C44.3166 21.9376 44.1176 22.1587 43.8743 22.3578C43.6531 22.5568 43.3877 22.7338 43.1223 22.8665C43.8964 23.1319 44.6041 23.5963 45.1571 24.1935C45.6436 24.7464 45.8869 25.5205 45.8869 26.5158V26.56C45.909 27.1793 45.7763 27.7985 45.4888 28.3515C45.2234 28.8602 44.8474 29.3025 44.3608 29.6342C43.83 29.9881 43.2329 30.2535 42.6136 30.3862C41.8616 30.5632 41.1097 30.6516 40.3356 30.6516H33.2803L33.3024 15.7891ZM39.4951 21.7827C40.0923 21.8049 40.6894 21.6943 41.2202 21.4068C41.6405 21.1635 41.8837 20.699 41.8616 20.2124V20.1682C41.8837 19.7259 41.6847 19.2835 41.3087 19.0402C40.9327 18.7748 40.4019 18.6421 39.7163 18.6421H36.4872V21.7827H39.4951ZM40.3577 27.7764C40.9548 27.8207 41.552 27.6658 42.0607 27.3783C42.4809 27.1129 42.7021 26.6485 42.68 26.1619V26.1177C42.7021 25.6532 42.4809 25.2109 42.1049 24.9455C41.7289 24.6579 41.1097 24.5031 40.2692 24.5031H36.4872V27.7764H40.3577Z" fill="white"/>
<path d="M50.0005 15.7891H53.2738V30.6295H50.0005V15.7891Z" fill="white"/>
<path d="M58.2061 15.7891H61.214L68.1808 24.9233V15.7891H71.4098V30.6295H68.6231L61.4351 21.1856V30.6295H58.2061V15.7891Z" fill="white"/>
<path d="M81.2963 15.6797H84.3042L90.6738 30.6307H87.2678L85.9187 27.2911H79.6375L78.2884 30.6307H74.9487L81.2963 15.6797ZM84.7244 24.4159L82.756 19.5944L80.7876 24.4159H84.7244Z" fill="white"/>
<path d="M94.1904 15.7891H97.1983L104.165 24.9233V15.7891H107.394V30.6295H104.607L97.4195 21.1856V30.6295H94.1904V15.7891Z" fill="white"/>
<path d="M119.16 30.8957C118.121 30.8957 117.081 30.6967 116.13 30.2986C114.295 29.5466 112.857 28.0869 112.127 26.2512C111.751 25.3001 111.552 24.2828 111.552 23.2654V23.2211C111.53 21.2085 112.304 19.2622 113.72 17.8025C114.405 17.0948 115.246 16.5197 116.153 16.1437C117.148 15.7235 118.209 15.5245 119.293 15.5466C119.935 15.5466 120.576 15.5908 121.195 15.7235C121.726 15.8341 122.257 15.9889 122.765 16.188C123.23 16.387 123.65 16.6303 124.048 16.9178C124.446 17.2053 124.822 17.515 125.154 17.8467L123.075 20.2354C122.544 19.7488 121.947 19.3286 121.306 18.9968C120.664 18.6872 119.979 18.5324 119.271 18.5545C118.099 18.5324 116.971 19.0411 116.175 19.9036C115.799 20.3459 115.489 20.8325 115.29 21.3854C115.069 21.9605 114.98 22.5576 114.98 23.1769V23.2211C114.98 23.8404 115.091 24.4376 115.29 25.0126C115.489 25.5655 115.799 26.0521 116.175 26.4944C116.949 27.3791 118.077 27.8878 119.271 27.8657C120.023 27.8878 120.753 27.733 121.416 27.4012C122.058 27.0474 122.633 26.6272 123.164 26.1185L125.22 28.2417C124.844 28.6398 124.446 29.0158 124.026 29.3475C123.606 29.6793 123.164 29.9668 122.677 30.188C122.168 30.4313 121.638 30.6082 121.085 30.7188C120.443 30.8294 119.802 30.8957 119.16 30.8957Z" fill="white"/>
<path d="M129.091 15.7891H140.26V18.6864H132.298V21.6943H139.309V24.5916H132.298V27.7101H140.37V30.6074H129.091V15.7891Z" fill="white"/>
</g>
<defs>
<clipPath id="clip0_2476_27559">
<rect width="140" height="46" fill="white" transform="translate(0.359375)"/>
</clipPath>
</defs>
</svg>
