<svg width="140" height="46" viewBox="0 0 140 46" fill="none" xmlns="http://www.w3.org/2000/svg">
<g clip-path="url(#clip0_1_171)">
<path d="M47.4256 24.2504H52.7022C53.4442 24.2504 54.0454 24.858 54.0454 25.5999C54.0454 26.3482 53.4442 26.9495 52.7022 26.9495H46.3383C46.236 26.9495 46.14 26.9878 46.0697 27.0518L44.1509 28.7083C43.8567 28.9642 44.0358 29.4439 44.4195 29.4439H52.3825C52.3825 29.4439 52.3888 29.4439 52.3888 29.4375C52.3888 29.4311 52.3952 29.4311 52.3952 29.4311C52.4976 29.4375 52.5935 29.4439 52.7022 29.4439C54.8129 29.4439 56.527 27.7234 56.527 25.5999C56.527 23.5852 54.9856 21.9287 53.0156 21.7688C53.0156 21.7688 53.0092 21.7688 53.0092 21.7624C53.0092 21.756 53.0093 21.756 53.0029 21.756H47.3233C46.5814 21.756 45.9802 21.1484 45.9802 20.4064C45.9802 19.6581 46.5814 19.0569 47.3233 19.0569H53.6744C53.7768 19.0569 53.8791 19.0185 53.9558 18.9482L55.7403 17.2916C56.0217 17.0358 55.8362 16.5625 55.4589 16.5625H47.4256C47.3936 16.5625 47.3553 16.5625 47.3233 16.5625C45.2126 16.5625 43.4985 18.283 43.4985 20.4064C43.4985 22.5299 45.2126 24.2504 47.3233 24.2504C47.3553 24.2504 47.3936 24.2504 47.4256 24.2504Z" fill="white"/>
<path d="M78.1452 16.5566C77.915 16.5566 77.7295 16.7421 77.7295 16.9788V29.0287C77.7295 29.2589 77.915 29.4508 78.1452 29.4508H87.803C87.9182 29.4508 88.0269 29.3996 88.11 29.3165L89.3189 28.0181C89.5683 27.7495 89.3828 27.3146 89.0119 27.3146H80.5821C80.3518 27.3146 80.1663 27.1291 80.1663 26.8924V16.9788C80.1663 16.7485 79.9808 16.5566 79.7506 16.5566H78.1452Z" fill="white"/>
<path fill-rule="evenodd" clip-rule="evenodd" d="M62.6735 16.5566C61.4391 16.6142 60.4477 17.6056 60.3901 18.84V26.9436C60.3901 26.9756 60.3901 27.0139 60.3901 27.0459C60.3901 28.3315 61.4007 29.3804 62.6735 29.4316H71.4359C72.7023 29.374 73.7192 28.3251 73.7192 27.0459C73.7192 27.0139 73.7192 26.9756 73.7192 26.9436V18.8464C73.668 17.612 72.6767 16.6142 71.4423 16.563H62.6735V16.5566ZM64.3108 18.8464C63.5369 18.8784 62.9165 19.5052 62.8845 20.2855V25.383C62.8845 25.4022 62.8845 25.4278 62.8845 25.447C62.8845 26.2528 63.5177 26.918 64.3108 26.95H69.8049C70.598 26.918 71.2312 26.2528 71.2312 25.447C71.2312 25.4278 71.2312 25.4022 71.2312 25.383V20.2855C71.1992 19.5052 70.5788 18.8848 69.8049 18.8464H64.3108Z" fill="white"/>
<path fill-rule="evenodd" clip-rule="evenodd" d="M103.358 29.0281C103.358 29.2584 103.543 29.4503 103.774 29.4503H105.411C105.641 29.4503 105.827 29.2648 105.827 29.0281V19.0505C105.827 19.0185 105.827 18.9802 105.827 18.9482C105.827 17.6626 104.822 16.6137 103.569 16.5625H95.1582C95.1262 16.5625 95.0879 16.5625 95.0559 16.5625C93.7511 16.5625 92.6958 17.6306 92.6958 18.9546C92.6958 18.9865 92.6958 19.0249 92.6958 19.0569V29.0281C92.6958 29.2584 92.8813 29.4503 93.1115 29.4503H94.7489C94.9791 29.4503 95.1646 29.2648 95.1646 29.0281V24.8772C95.1646 24.6469 95.3501 24.455 95.5804 24.455H102.961C103.191 24.455 103.377 24.6405 103.377 24.8772V29.0281H103.358ZM95.1454 22.1653V20.093C95.1454 19.2872 95.7914 18.6348 96.5845 18.6348H101.919C102.712 18.6348 103.358 19.2872 103.358 20.093V22.1653C103.358 22.3956 103.172 22.5874 102.942 22.5874H95.5612C95.3309 22.5874 95.1454 22.3956 95.1454 22.1653Z" fill="white"/>
<path fill-rule="evenodd" clip-rule="evenodd" d="M137.928 29.4444C137.697 29.4444 137.512 29.2589 137.512 29.0223V24.8713C137.512 24.6411 137.326 24.4492 137.096 24.4492H129.632C129.402 24.4492 129.216 24.6347 129.216 24.8713V29.0223C129.216 29.2525 129.031 29.4444 128.801 29.4444H127.151C126.92 29.4444 126.735 29.2589 126.735 29.0223V19.051C126.735 19.0191 126.735 18.9807 126.735 18.9487C126.735 17.6312 127.803 16.5566 129.121 16.5566C129.153 16.5566 129.191 16.5566 129.223 16.5566H137.729C138.996 16.6142 140.013 17.6631 140.013 18.9423C140.013 18.9743 140.013 19.0127 140.013 19.0446V29.0159C140.013 29.2461 139.827 29.438 139.597 29.438H137.928V29.4444ZM129.21 20.0936V22.1659C129.21 22.3961 129.396 22.588 129.626 22.588H137.09C137.32 22.588 137.506 22.4025 137.506 22.1659V20.0936C137.506 19.2877 136.853 18.6353 136.054 18.6353H130.662C129.856 18.6353 129.21 19.2877 129.21 20.0936Z" fill="white"/>
<path d="M111.986 16.5566C112.107 16.5566 112.222 16.6078 112.299 16.7037L119.641 25.4597C119.891 25.754 120.371 25.5749 120.371 25.1847V16.9788C120.371 16.7485 120.556 16.5566 120.786 16.5566H122.424C122.654 16.5566 122.839 16.7421 122.839 16.9788V29.0287C122.839 29.2589 122.654 29.4508 122.424 29.4508H120.39C120.383 29.4508 120.377 29.4444 120.377 29.438C120.377 29.4316 120.377 29.4316 120.371 29.4252L112.9 20.7332C112.651 20.439 112.171 20.6244 112.171 21.0082V29.0351C112.171 29.2653 111.986 29.4572 111.755 29.4572H110.105C109.875 29.4572 109.689 29.2717 109.689 29.0351V16.9788C109.689 16.7485 109.875 16.5566 110.105 16.5566H111.986Z" fill="white"/>
<path d="M5.42353 29.8918C5.6282 29.6872 5.90323 29.5721 6.19104 29.5721H32.83C33.3161 29.5721 33.5591 30.1605 33.2138 30.4995L27.9499 35.7633C27.7452 35.968 27.4702 36.0831 27.1824 36.0831H0.543458C0.0573687 36.0831 -0.185676 35.4947 0.159703 35.1557L5.42353 29.8918Z" fill="white"/>
<path d="M5.42353 10.2436C5.6282 10.039 5.90323 9.92383 6.19104 9.92383H32.83C33.3161 9.92383 33.5591 10.5123 33.2138 10.8512L27.9499 16.1151C27.7452 16.3197 27.4702 16.4349 27.1824 16.4349H0.543458C0.0573687 16.4349 -0.185676 15.8464 0.159703 15.5075L5.42353 10.2436Z" fill="white"/>
<path d="M27.9499 20.0034C27.7452 19.7987 27.4702 19.6836 27.1824 19.6836H0.543458C0.0573687 19.6836 -0.185676 20.272 0.159703 20.611L5.42353 25.8684C5.6282 26.0731 5.90323 26.1882 6.19104 26.1882H32.83C33.3161 26.1882 33.5591 25.5998 33.2138 25.2608L27.9499 20.0034Z" fill="white"/>
</g>
<defs>
<clipPath id="clip0_1_171">
<rect width="140" height="46" fill="white"/>
</clipPath>
</defs>
</svg>
