<svg width="116" height="46" viewBox="0 0 116 46" fill="none" xmlns="http://www.w3.org/2000/svg">
<g clip-path="url(#clip0_2476_27433)">
<path fill-rule="evenodd" clip-rule="evenodd" d="M15.0072 25.5092C14.6001 27.145 11.846 26.2609 10.9526 26.0387L11.6762 23.1406C12.5691 23.3624 15.4327 23.8035 15.0072 25.5092Z" fill="white"/>
<path fill-rule="evenodd" clip-rule="evenodd" d="M15.4146 21.2655C15.0429 22.7532 12.7507 21.9969 12.0068 21.812L12.6628 19.1816C13.4067 19.3656 15.8015 19.7134 15.4146 21.2655Z" fill="white"/>
<path fill-rule="evenodd" clip-rule="evenodd" d="M15.6262 11.3528C9.19523 9.75152 2.68099 13.6616 1.0783 20.0967C-0.524383 26.5319 3.38849 33.0433 9.81855 34.647C16.2486 36.2506 22.7656 32.3381 24.3692 25.9039C25.9728 19.4697 22.0586 12.9564 15.6262 11.3528ZM18.0183 21.2891C17.8453 22.4585 17.1967 23.0247 16.336 23.2235C17.5182 23.8389 18.1195 24.7829 17.5468 26.4187C16.8356 28.4501 15.1464 28.6212 12.9006 28.1962L12.3551 30.3813L11.038 30.0528L11.5749 27.8976C11.2335 27.8125 10.8849 27.7228 10.5251 27.6249L9.98553 29.7911L8.66943 29.4626L9.21455 27.2739C8.90726 27.1952 8.59445 27.1115 8.27566 27.0319L6.56074 26.6041L7.21487 25.0957C7.21487 25.0957 8.1855 25.3538 8.17216 25.3349C8.54523 25.4269 8.71084 25.184 8.77616 25.0216L9.6373 21.5683L9.77531 21.6028C9.73028 21.5847 9.68419 21.5694 9.6373 21.5568L10.2519 19.0916C10.268 18.8115 10.1718 18.4586 9.63822 18.3252C9.65892 18.3114 8.6814 18.0874 8.6814 18.0874L9.03192 16.6807L10.8485 17.1343V17.1407C11.1218 17.2088 11.4005 17.2732 11.6899 17.3385L12.229 15.1764L13.546 15.5049L13.017 17.626C13.3697 17.7051 13.7214 17.7879 14.0723 17.8744L14.5976 15.7671L15.9146 16.0956L15.375 18.2576C17.0398 18.8331 18.2561 19.6919 18.0174 21.2896L18.0183 21.2891Z" fill="white"/>
<path fill-rule="evenodd" clip-rule="evenodd" d="M35.9035 18.2569C36.8769 18.2569 37.7182 18.4317 38.4248 18.774C39.1109 19.1018 39.7146 19.5796 40.1913 20.172C40.6683 20.786 41.019 21.4885 41.2231 22.2388C41.4503 23.0711 41.5622 23.9306 41.5557 24.7933C41.564 26.1535 41.301 27.5017 40.7819 28.759C40.2633 30.0051 39.5594 31.0885 38.67 32.0095C37.7687 32.9367 36.695 33.6791 35.5092 34.195C34.2962 34.7323 32.9792 35.0009 31.5614 35.0009C31.3774 35.0009 31.0554 34.9954 30.6018 34.9862C30.0784 34.97 29.5562 34.9249 29.0378 34.851C28.4086 34.7611 27.7846 34.6382 27.1683 34.483C26.5231 34.3274 25.8962 34.1036 25.2983 33.8155L30.5567 11.7252L35.2659 10.9961L33.3835 18.8347C33.775 18.658 34.1812 18.516 34.5975 18.4101C35.025 18.3063 35.4636 18.2549 35.9035 18.2569ZM31.9538 31.2652C32.6552 31.2661 33.3453 31.0883 33.959 30.7486C34.5907 30.4038 35.1451 29.9332 35.5879 29.3658C36.0506 28.7743 36.4145 28.1119 36.6657 27.4043C36.9293 26.673 37.0632 25.9013 37.0613 25.124C37.0613 24.1515 36.8989 23.3944 36.5751 22.8456C36.2512 22.2968 35.6523 22.0249 34.781 22.0249C34.4963 22.0249 34.1292 22.0792 33.6738 22.1762C33.2149 22.2809 32.7903 22.5008 32.44 22.8152L30.4358 31.1414C30.5567 31.1631 30.6658 31.1833 30.755 31.2022C30.8494 31.2234 30.9449 31.2387 31.0411 31.2482C31.1634 31.2608 31.2863 31.2666 31.4091 31.2656L31.9538 31.2652ZM46.4392 34.5773H41.9411L45.7395 18.595H50.2678L46.4392 34.5773ZM48.6274 16.651C48.0138 16.656 47.4157 16.4588 46.9254 16.0898C46.4162 15.7177 46.1636 15.1445 46.1636 14.3726C46.1616 13.9589 46.2497 13.5496 46.4217 13.1733C46.587 12.8083 46.8193 12.4775 47.1066 12.1981C47.3944 11.9239 47.7285 11.7027 48.0934 11.5449C48.4734 11.3822 48.8829 11.2993 49.2963 11.3015C49.9099 11.2967 50.5081 11.4941 50.9983 11.8632C51.5034 12.2395 51.7564 12.8119 51.7574 13.5804C51.7597 13.9949 51.6713 14.4049 51.4984 14.7815C51.3339 15.1462 51.1018 15.4763 50.8143 15.7545C50.5273 16.0294 50.193 16.2504 49.8276 16.4068C49.4491 16.5701 49.0406 16.6525 48.6284 16.6487L48.6274 16.651ZM54.2092 14.6141L58.9198 13.8841L57.7628 18.595H62.8078L61.897 22.3014H56.8828L55.5488 27.8919C55.4322 28.3184 55.361 28.756 55.3363 29.1974C55.3137 29.6041 55.3657 29.9528 55.4871 30.2467C55.6086 30.5407 55.8248 30.7679 56.1399 30.9285C56.455 31.089 56.9031 31.1736 57.4923 31.1736C57.9671 31.1745 58.4408 31.1283 58.9064 31.0356C59.375 30.9428 59.8362 30.8161 60.2865 30.6566L60.6227 34.1214C59.9773 34.3553 59.3175 34.5477 58.6474 34.6973C57.9372 34.8611 57.0963 34.9393 56.1247 34.9393C54.7275 34.9393 53.6434 34.7326 52.8724 34.3192C52.1019 33.9052 51.5573 33.3348 51.2311 32.6172C50.905 31.8995 50.7656 31.0738 50.8061 30.1423C50.8554 29.1484 50.9977 28.1614 51.2311 27.1941L54.2092 14.6141ZM62.6104 28.1974C62.6104 26.8207 62.8329 25.5239 63.2779 24.307C63.7014 23.1277 64.3524 22.043 65.1939 21.1145C66.0219 20.2065 67.0301 19.4876 68.2185 18.958C69.3989 18.4322 70.7237 18.1691 72.1815 18.1691C73.0944 18.1691 73.9099 18.2554 74.6278 18.4281C75.3036 18.5865 75.9609 18.8155 76.5889 19.1112L75.0382 22.6381C74.6251 22.4716 74.2048 22.3247 73.7773 22.1974C73.3421 22.0635 72.8112 21.9991 72.1829 21.9991C70.6809 21.9991 69.4945 22.5167 68.6113 23.5475C67.7281 24.5784 67.2883 25.9695 67.2883 27.7125C67.2883 28.7454 67.5117 29.5809 67.9586 30.2191C68.4054 30.8573 69.2256 31.1764 70.4192 31.1764C70.9915 31.177 71.5622 31.1153 72.1212 30.9924C72.6206 30.8853 73.1092 30.7329 73.5808 30.537L73.9166 34.1522C73.3006 34.3885 72.6708 34.5869 72.0306 34.7466C71.3406 34.9154 70.5199 35.0023 69.5677 35.0023C68.3103 35.0023 67.2471 34.8205 66.3779 34.4568C65.5076 34.0887 64.7881 33.6011 64.2214 32.9847C63.6513 32.3627 63.2303 31.6191 62.9904 30.8102C62.734 29.9632 62.605 29.0828 62.6077 28.1978L62.6104 28.1974ZM82.5897 35.0028C81.5164 35.0028 80.5839 34.8402 79.7924 34.5152C79.0009 34.1901 78.3481 33.7344 77.8341 33.148C77.3161 32.562 76.9293 31.8678 76.6638 31.0674C76.3984 30.267 76.271 29.3814 76.271 28.4108C76.2739 27.171 76.4732 25.9394 76.8616 24.762C77.2419 23.5721 77.8341 22.4608 78.6097 21.4816C79.3826 20.5054 80.3427 19.6934 81.4337 19.0932C82.5456 18.4773 83.8258 18.1672 85.2606 18.1672C86.3146 18.1672 87.2423 18.3298 88.0436 18.6548C88.845 18.9799 89.5034 19.4358 90.0189 20.0225C90.5452 20.63 90.9421 21.3385 91.1855 22.1045C91.4505 22.9026 91.5811 23.7909 91.5811 24.762C91.5769 26.0004 91.3829 27.2308 91.0057 28.4103C90.6365 29.5959 90.0602 30.7066 89.3036 31.6912C88.5432 32.673 87.586 33.4852 86.4934 34.0754C85.3703 34.6933 84.0688 35.0025 82.5888 35.0028H82.5897ZM84.8369 21.9982C84.1703 21.9982 83.5806 22.1914 83.076 22.5742C82.5594 22.972 82.1264 23.4679 81.8017 24.0333C81.4504 24.6362 81.1886 25.2871 81.0248 25.9654C80.8588 26.6157 80.7724 27.2838 80.7676 27.9549C80.7676 28.967 80.9314 29.76 81.2529 30.3277C81.5745 30.8953 82.1642 31.1778 83.0152 31.1778C83.6844 31.1778 84.2721 30.9849 84.7785 30.5991C85.2949 30.2013 85.728 29.7058 86.0532 29.1408C86.4043 28.5386 86.6662 27.8886 86.8306 27.2111C86.9952 26.5604 87.0814 25.8923 87.0873 25.2211C87.0873 24.209 86.9247 23.4187 86.5997 22.8502C86.2746 22.2816 85.687 21.9984 84.8369 22.0005V21.9982ZM96.4826 34.5791H91.9818L95.7801 18.5969H100.312L96.484 34.5791H96.4826ZM98.6681 16.651C98.0544 16.6565 97.4561 16.4592 96.966 16.0898C96.4588 15.7175 96.2049 15.1451 96.2043 14.3726C96.2027 13.9588 96.2911 13.5496 96.4633 13.1733C96.628 12.8087 96.8602 12.4786 97.1478 12.2004C97.4361 11.925 97.7712 11.703 98.1372 11.5449C98.5158 11.3826 98.9237 11.3 99.3356 11.3025C99.9492 11.2977 100.547 11.4951 101.038 11.8641C101.544 12.2404 101.799 12.8131 101.799 13.5814C101.799 13.9958 101.71 14.4055 101.538 14.7825C101.374 15.1468 101.143 15.4769 100.857 15.7554C100.569 16.0298 100.235 16.2507 99.8696 16.4077C99.4901 16.5713 99.0805 16.6537 98.6672 16.6497L98.6681 16.651ZM103.552 19.3251C103.893 19.2253 104.274 19.1052 104.688 18.9746C105.148 18.8313 105.615 18.7108 106.089 18.613C106.661 18.491 107.238 18.3988 107.82 18.337C108.541 18.2608 109.265 18.2248 109.99 18.2293C112.362 18.2293 113.999 18.9194 114.9 20.2994C115.801 21.6794 115.959 23.5632 115.373 25.9507L113.303 34.5805H108.776L110.782 26.1273C110.904 25.6001 111 25.09 111.071 24.5918C111.142 24.0936 111.139 23.6625 111.055 23.2863C110.982 22.9254 110.783 22.6021 110.495 22.3731C110.198 22.1431 109.75 22.0244 109.142 22.0244C108.539 22.0264 107.939 22.088 107.348 22.2084L104.4 34.5741H99.8715L103.552 19.3214V19.3251Z" fill="white"/>
</g>
<defs>
<clipPath id="clip0_2476_27433">
<rect width="115" height="46" fill="white" transform="translate(0.71875)"/>
</clipPath>
</defs>
</svg>
