<svg width="39" height="38" viewBox="0 0 39 38" fill="none" xmlns="http://www.w3.org/2000/svg">
<g clip-path="url(#clip0_2476_27987)">
<path fill-rule="evenodd" clip-rule="evenodd" d="M0.359375 0V38H38.3594V0H0.359375ZM20.3889 32.5456C19.8289 33.6832 18.7597 34.4312 17.5202 34.7928C15.6165 35.23 13.7962 34.9807 12.4414 34.1679C11.5349 33.6116 10.8269 32.7555 10.3464 31.7695C11.3112 31.1808 12.2747 30.5906 13.2368 29.999C13.262 30.0098 13.3379 30.1471 13.4391 30.3242C13.8076 30.9417 14.1254 31.3789 14.7503 31.6859C15.3644 31.8954 16.7111 32.029 17.2318 30.949C17.5497 30.4 17.4486 28.6082 17.4486 26.6541C17.4486 23.5837 17.4638 20.5352 17.4638 17.4648H21.0182C21.0182 20.7339 21.0362 23.992 21.0182 27.2503C21.0245 29.2477 21.1986 31.0536 20.3889 32.5456ZM35.1338 31.5415C33.8983 35.7671 27.01 35.905 24.2576 33.1127C23.6759 32.4553 23.3111 32.1121 22.9644 31.3536C24.4272 30.512 24.4272 30.512 25.8504 29.6885C26.6235 30.8768 27.3386 31.5306 28.6245 31.7979C30.3693 32.0107 32.1248 31.4114 31.7311 29.5584C31.3265 28.0449 28.1591 27.6765 26.0021 26.0583C23.8133 24.588 23.3003 21.0157 25.099 18.9751C25.6987 18.2201 26.721 17.6566 27.7939 17.3858C28.1658 17.3386 28.5415 17.2882 28.9135 17.2412C31.0628 17.1979 32.4064 17.765 33.3926 18.8667C33.6671 19.1449 33.8912 19.4443 34.3101 20.0949C33.1651 20.8245 33.1687 20.8173 31.5285 21.8792C31.1789 21.1244 30.5966 20.651 29.9825 20.4452C29.0289 20.1564 27.8259 20.4704 27.5768 21.4788C27.49 21.7895 27.5081 22.0785 27.6454 22.5915C28.0319 23.4731 29.3286 23.8556 30.4917 24.3902C33.8403 25.7485 34.9708 27.2042 35.2493 28.9379C35.517 30.4289 35.1842 31.397 35.1338 31.5415Z" fill="white"/>
</g>
<defs>
<clipPath id="clip0_2476_27987">
<rect width="38" height="38" fill="white" transform="translate(0.359375)"/>
</clipPath>
</defs>
</svg>
