<svg width="107" height="46" viewBox="0 0 107 46" fill="none" xmlns="http://www.w3.org/2000/svg">
<g clip-path="url(#clip0_2476_27971)">
<path fill-rule="evenodd" clip-rule="evenodd" d="M41.2999 23.0037C41.2999 20.3149 37.9333 17.7669 32.7721 16.1877C33.9632 10.927 33.4337 6.74104 31.101 5.401C30.5633 5.08679 29.9372 4.93551 29.2483 4.93551V6.78003C29.6283 6.78003 29.9349 6.85451 30.1909 6.99532C31.3157 7.64061 31.8039 10.0973 31.4233 13.2568C31.3326 14.0348 31.1836 14.8534 31.0015 15.689C29.2726 15.2722 27.5179 14.9709 25.749 14.7871C24.6946 13.3341 23.5444 11.9532 22.306 10.6535C25.0047 8.14742 27.5359 6.77421 29.2565 6.77421V4.92969C26.9813 4.92969 24.0039 6.55077 20.9939 9.36352C17.9816 6.56764 15.0042 4.96285 12.7297 4.96285V6.80737C14.4415 6.80737 16.9808 8.17244 19.6777 10.6622C18.4457 11.958 17.3043 13.337 16.2616 14.7894C14.489 14.9712 12.731 15.2753 11.0004 15.6995C10.8101 14.8721 10.6699 14.0702 10.5704 13.3004C10.1817 10.1409 10.6611 7.68425 11.7783 7.03081C12.0262 6.88185 12.3485 6.81552 12.7297 6.81552V4.971C12.0343 4.971 11.4059 5.11996 10.8601 5.43649C8.53556 6.77479 8.01421 10.9538 9.21402 16.201C4.06856 17.7837 0.71875 20.3236 0.71875 23.0037C0.71875 25.6837 4.08544 28.2405 9.24719 29.8191C8.05552 35.0803 8.58502 39.2657 10.9177 40.6057C11.4554 40.9199 12.0844 41.0712 12.7797 41.0712C15.0542 41.0712 18.0322 39.4502 21.0422 36.6374C24.0534 39.4333 27.0314 41.0381 29.3047 41.0381C29.9995 41.0381 30.6285 40.8897 31.1743 40.5726C33.4983 39.2343 34.0196 35.0553 32.8204 29.8109C37.949 28.2312 41.2988 25.6837 41.2988 23.0031L41.2999 23.0037ZM30.5302 17.4864C30.2241 18.5535 29.8436 19.6533 29.4136 20.7536C29.0743 20.092 28.7188 19.4298 28.3301 18.7682C27.9414 18.1067 27.5429 17.4614 27.1385 16.833C28.3132 17.0075 29.4467 17.2216 30.5302 17.4864ZM26.7416 26.2959C26.0963 27.4125 25.4347 28.4709 24.7481 29.4554C23.5157 29.5631 22.2665 29.6207 21.0096 29.6207C19.7528 29.6207 18.5111 29.5625 17.2857 29.4636C16.5997 28.479 15.9294 27.427 15.2841 26.3215C14.6568 25.2369 14.086 24.1366 13.5646 23.0258C14.0779 21.9173 14.6568 20.8089 15.2771 19.7254C15.9224 18.6088 16.584 17.5498 17.2706 16.5659C18.503 16.4582 19.7522 16.4 21.0096 16.4C22.2583 16.4 23.5076 16.4582 24.7336 16.5577C25.4202 17.5417 26.0899 18.5943 26.7352 19.6998C27.3636 20.7833 27.9345 21.8836 28.4558 22.992C27.9327 24.1034 27.3619 25.2119 26.7416 26.2959ZM29.4136 25.2206C29.8476 26.2982 30.2282 27.3954 30.5552 28.5122C29.4712 28.777 28.3301 29.0004 27.1472 29.1744C27.5545 28.5372 27.9577 27.8838 28.3383 27.2135C28.7188 26.5432 29.0743 25.8822 29.4136 25.2206ZM21.0259 34.0463C20.2146 33.204 19.4471 32.3205 18.7264 31.3994C19.4706 31.4326 20.2317 31.4576 21.0009 31.4576C21.7789 31.4576 22.5481 31.4413 23.3005 31.3994C22.5906 32.3221 21.8313 33.2057 21.0259 34.0463ZM14.8715 29.1744C13.6973 28.9998 12.5638 28.7857 11.4804 28.5209C11.7865 27.4538 12.167 26.3535 12.597 25.2532C12.938 25.9153 13.2917 26.5752 13.6804 27.2385C14.0691 27.9018 14.4665 28.5454 14.8715 29.1744ZM20.9846 11.961C21.7962 12.8031 22.5637 13.6866 23.2842 14.6079C22.5394 14.5747 21.7789 14.5497 21.0096 14.5497C20.2317 14.5497 19.4625 14.566 18.7101 14.6079C19.4198 13.6851 20.1791 12.8015 20.9846 11.961ZM14.8634 16.833C14.4561 17.4695 14.0528 18.123 13.6723 18.7933C13.2917 19.4636 12.938 20.1164 12.597 20.778C12.1649 19.7004 11.7843 18.6032 11.4554 17.4864C12.5388 17.2298 13.6804 17.0064 14.8634 16.833ZM7.37764 27.1902C4.4491 25.9409 2.55512 24.3036 2.55512 23.0048C2.55512 21.7061 4.4491 20.0582 7.37764 18.8183C8.08869 18.5116 8.86664 18.2364 9.66904 17.9827C10.1753 19.7019 10.7974 21.3848 11.531 23.02C10.8056 24.6472 10.192 26.322 9.69464 28.0327C8.87595 27.7761 8.09858 27.4951 7.37881 27.189L7.37764 27.1902ZM11.8278 39.0103C10.703 38.3656 10.2148 35.9089 10.5954 32.7488C10.6861 31.9714 10.8351 31.1521 11.0172 30.3166C12.7461 30.7337 14.5008 31.035 16.2697 31.2185C17.3234 32.6722 18.473 34.0539 19.7109 35.3544C17.014 37.8605 14.4828 39.2337 12.7622 39.2337C12.3904 39.2244 12.0762 39.1499 11.8278 39.0091V39.0103ZM31.4483 32.7075C31.837 35.867 31.3576 38.3237 30.2404 38.9771C29.9925 39.1261 29.6702 39.1924 29.289 39.1924C27.5772 39.1924 25.0379 37.8279 22.341 35.3381C23.573 34.042 24.7146 32.6629 25.7577 31.2103C27.5302 31.0284 29.2879 30.7239 31.0183 30.2991C31.2041 31.0934 31.3476 31.8969 31.4483 32.7063V32.7075ZM34.6329 27.1902C33.9213 27.4963 33.1439 27.7692 32.3415 28.0258C31.8352 26.3064 31.2131 24.6233 30.4795 22.988C31.2051 21.3608 31.8186 19.686 32.3159 17.9752C33.1346 18.2318 33.912 18.5128 34.6399 18.8195C37.5684 20.0681 39.4624 21.7061 39.4624 23.0048C39.4624 24.3036 37.5597 25.9497 34.6329 27.1902Z" fill="white"/>
<path fill-rule="evenodd" clip-rule="evenodd" d="M21.0009 26.783C21.7489 26.783 22.4802 26.5612 23.1021 26.1456C23.7241 25.73 24.2089 25.1393 24.4951 24.4483C24.7814 23.7572 24.8563 22.9967 24.7104 22.263C24.5644 21.5294 24.2042 20.8555 23.6753 20.3265C23.1463 19.7976 22.4724 19.4374 21.7387 19.2914C21.0051 19.1455 20.2446 19.2204 19.5535 19.5066C18.8624 19.7929 18.2717 20.2777 17.8562 20.8996C17.4406 21.5216 17.2188 22.2529 17.2188 23.0009C17.2188 24.004 17.6172 24.966 18.3265 25.6753C19.0358 26.3846 19.9978 26.783 21.0009 26.783Z" fill="white"/>
<path fill-rule="evenodd" clip-rule="evenodd" d="M54.5627 24.5186H50.535V31.4551H48.2622V14.3086H53.9383C55.8697 14.3086 57.3535 14.7483 58.3896 15.6277C59.4343 16.5071 59.9564 17.7872 59.956 19.468C59.956 20.5363 59.6651 21.4673 59.0832 22.261C58.5103 23.0535 57.7096 23.646 56.6813 24.0386L60.7095 31.3137V31.4551H58.2837L54.5627 24.5186ZM50.535 22.67H54.0087C55.1317 22.67 56.023 22.3791 56.6824 21.7972C57.3492 21.2154 57.6828 20.438 57.6832 19.4651C57.6832 18.4057 57.3653 17.5932 56.7295 17.0277C56.1011 16.4629 55.1895 16.1764 53.9948 16.1682H50.5327L50.535 22.67ZM68.0818 31.689C66.354 31.689 64.9486 31.1236 63.8656 29.9928C62.7821 28.8547 62.2404 27.3356 62.2404 25.4356V25.0353C62.2404 23.7715 62.48 22.645 62.959 21.6558C63.4455 20.6577 64.1206 19.8804 64.9845 19.3237C65.8219 18.7696 66.8042 18.4751 67.8083 18.4771C69.4647 18.4771 70.7522 19.0229 71.6707 20.1145C72.5893 21.2061 73.0486 22.7682 73.0486 24.8008V25.708H64.4189C64.4503 26.9644 64.8156 27.9811 65.5146 28.7581C66.221 29.5273 67.1159 29.9122 68.1993 29.9125C68.9693 29.9125 69.6208 29.7554 70.1538 29.4412C70.6969 29.1191 71.1728 28.6953 71.5555 28.1931L72.8863 29.2294C71.818 30.8695 70.2165 31.69 68.0818 31.6907V31.689ZM67.8083 20.2675C67.392 20.2602 66.9791 20.3426 66.5976 20.5092C66.216 20.6758 65.8748 20.9226 65.5972 21.2328C65.001 21.8694 64.6325 22.7645 64.4917 23.9181H70.8742V23.7535C70.8117 22.6468 70.5134 21.7908 69.9793 21.1857C69.4451 20.5736 68.7228 20.2675 67.8124 20.2675H67.8083ZM83.4472 31.4551C83.3215 31.2037 83.2195 30.7561 83.1411 30.1121C82.1283 31.1641 80.9191 31.6903 79.5137 31.6907C78.2581 31.6907 77.2258 31.3373 76.417 30.6306C75.6164 29.916 75.2159 29.0132 75.2155 27.922C75.2155 26.5953 75.718 25.5673 76.7231 24.8381C77.7355 24.101 79.1565 23.7325 80.9859 23.7325H83.1056V22.7317C83.1056 21.9702 82.8781 21.3657 82.4231 20.918C81.9692 20.4615 81.2985 20.2332 80.411 20.2332C79.6352 20.2332 78.9837 20.4293 78.4565 20.8214C77.9293 21.2136 77.6663 21.6886 77.6675 22.2464H75.4773C75.4773 21.611 75.701 20.9985 76.1482 20.4089C76.604 19.8127 77.2165 19.3417 77.9858 18.9961C78.7913 18.6449 79.662 18.4682 80.5407 18.4777C82.0094 18.4777 83.1595 18.8462 83.9912 19.5832C84.8233 20.3129 85.255 21.3215 85.2864 22.6089V28.4753C85.2864 29.6457 85.4358 30.5766 85.7345 31.2683V31.4574L83.4472 31.4551ZM79.832 29.7944C80.5156 29.7945 81.1866 29.6114 81.7755 29.2643C82.3868 28.9113 82.8302 28.4521 83.1056 27.8865V25.2727H81.3978C78.729 25.2727 77.3944 26.0538 77.394 27.6159C77.394 28.2986 77.6217 28.8324 78.0771 29.2172C78.5325 29.602 79.1175 29.7944 79.832 29.7944ZM93.8102 29.9108C94.5512 29.9227 95.2725 29.6723 95.8468 29.2038C96.4286 28.7325 96.7504 28.1437 96.8121 27.4373H98.8731C98.8343 28.1673 98.5821 28.8623 98.1166 29.5221C97.6511 30.1819 97.0305 30.7078 96.2547 31.0995C95.4974 31.4895 94.6574 31.6917 93.8056 31.689C92.0704 31.689 90.6887 31.112 89.6604 29.9579C88.6398 28.7942 88.1295 27.2082 88.1295 25.2V24.8352C88.1295 23.5938 88.3572 22.4908 88.8126 21.5261C89.268 20.5613 89.9197 19.8115 90.7676 19.2766C91.621 18.7424 92.6296 18.4753 93.7934 18.4753C95.2228 18.4753 96.4085 18.9034 97.3503 19.7595C98.2999 20.6129 98.8063 21.7237 98.8696 23.0919H96.808C96.7459 22.2672 96.4321 21.592 95.8665 21.0664C95.3153 20.5342 94.6266 20.2679 93.8003 20.2675C92.6936 20.2675 91.834 20.6678 91.2215 21.4685C90.6175 22.2614 90.3153 23.4115 90.3149 24.919V25.3309C90.3149 26.7988 90.6171 27.9293 91.2215 28.7226C91.8259 29.5159 92.6896 29.9125 93.8126 29.9125L93.8102 29.9108ZM104.279 15.6259V18.7098H106.658V20.3938H104.279V28.2984C104.279 28.8093 104.385 29.1941 104.597 29.4529C104.809 29.7042 105.17 29.8299 105.681 29.8299C105.932 29.8299 106.277 29.7828 106.717 29.6885V31.4551C106.172 31.6079 105.61 31.6872 105.044 31.6907C104.071 31.6907 103.338 31.3961 102.843 30.8069C102.348 30.2176 102.1 29.3815 102.101 28.2984V20.3973H99.7808V18.7133H102.101V15.6294L104.279 15.6259Z" fill="white"/>
</g>
<defs>
<clipPath id="clip0_2476_27971">
<rect width="106" height="46" fill="white" transform="translate(0.71875)"/>
</clipPath>
</defs>
</svg>
