<svg width="117" height="46" viewBox="0 0 117 46" fill="none" xmlns="http://www.w3.org/2000/svg">
<g clip-path="url(#clip0_2476_27956)">
<path fill-rule="evenodd" clip-rule="evenodd" d="M34.839 30.5897V16.3143H36.6741L45.3973 27.801V16.3143H47.1419V30.5897H45.3064L36.5859 18.9897V30.5897H34.839ZM61.3468 30.0231C60.1576 30.4628 58.8991 30.6853 57.6311 30.6802C52.4653 30.6802 49.8823 28.203 49.8823 23.2487C49.8823 18.5592 52.3745 16.2106 57.3588 16.2029C58.786 16.2029 60.1228 16.4066 61.3464 16.7917V18.3777C60.1401 17.9097 58.8568 17.6716 57.5629 17.6756C53.6653 17.6756 51.7165 19.5316 51.7165 23.2037C51.7165 27.1686 53.6426 29.1397 57.4701 29.1397C58.0821 29.1397 58.7619 29.0469 59.5094 28.8905V24.1113H61.3445V30.0213L61.3468 30.0231ZM64.2923 25.0843V16.3147H66.1274V25.0843C66.1274 27.8256 67.4865 29.2074 70.2283 29.2074C72.9468 29.2074 74.3291 27.8256 74.3291 25.0843V16.3147H76.1651V25.0843C76.1651 28.8223 74.1941 30.7029 70.2292 30.7029C66.2643 30.7029 64.2923 28.8204 64.2923 25.0825V25.0843ZM81.2845 16.3147V29.0923H88.7609V30.5897H79.4493V16.3143L81.2845 16.3147ZM91.4117 30.5897H89.4861L96.5774 14.4355L103.669 30.5897H101.629L99.7943 26.1037H95.082L95.5803 24.6082H99.1828L96.5092 18.1512L91.4117 30.5897ZM105.64 30.5897V16.3143H111.734C114.453 16.3143 115.813 17.4469 115.813 19.7353C115.813 21.5913 114.476 22.9754 111.825 23.8589L116.719 30.5897H114.294L109.763 24.1758V22.9754C112.482 22.5448 113.864 21.5027 113.864 19.8258C113.864 18.5118 113.116 17.8547 111.599 17.8547H107.52V30.5897H105.64ZM15.3774 17.4696L12.6811 23.9039H18.4584L15.3774 17.4696ZM15.332 7.29688L0.71875 12.5081L2.96173 31.8337L15.332 38.7009L27.9064 31.7455L30.3303 12.4199L15.332 7.29688ZM21.608 31.1994L19.6128 26.5775H11.4803L9.64518 31.1539L6.24685 31.2221L15.3547 10.9676L24.8468 31.2676L21.608 31.1994Z" fill="white"/>
</g>
<defs>
<clipPath id="clip0_2476_27956">
<rect width="116" height="46" fill="white" transform="translate(0.71875)"/>
</clipPath>
</defs>
</svg>
