<svg width="167" height="46" viewBox="0 0 167 46" fill="none" xmlns="http://www.w3.org/2000/svg">
<g clip-path="url(#clip0_2476_27502)">
<path fill-rule="evenodd" clip-rule="evenodd" d="M5.15398 10.2715C1.99036 13.523 0.152686 17.8372 0 22.3712H7.63946C7.7836 19.8615 8.81277 17.4842 10.5441 15.6616L5.15398 10.2715Z" fill="white"/>
<path fill-rule="evenodd" clip-rule="evenodd" d="M0 23.2344C0.0518452 27.8102 1.8232 32.1991 4.96211 35.5289L10.3552 30.1359C8.64628 28.2376 7.67712 25.788 7.6247 23.2344H0Z" fill="white"/>
<path fill-rule="evenodd" clip-rule="evenodd" d="M17.8633 4.71094C13.3555 4.80989 9.04416 6.57559 5.76172 9.66714L11.1602 15.0602C13.0071 13.3958 15.379 12.4316 17.8633 12.3356V4.71094Z" fill="white"/>
<path fill-rule="evenodd" clip-rule="evenodd" d="M30.8179 9.66714C27.5377 6.57574 23.2282 4.80995 18.7222 4.71094V12.3356C21.2061 12.4334 23.5775 13.3973 25.4253 15.0602L30.8179 9.66714Z" fill="white"/>
<path fill-rule="evenodd" clip-rule="evenodd" d="M5.56396 36.1401C8.86631 39.3483 13.2605 41.1876 17.8633 41.2882V33.6635C15.2832 33.5653 12.8276 32.5294 10.9566 30.75L5.56396 36.1401Z" fill="white"/>
<path fill-rule="evenodd" clip-rule="evenodd" d="M31.0215 36.1401L25.6289 30.75C23.7579 32.5294 21.3022 33.5653 18.7222 33.6635V41.2882C23.325 41.1876 27.7192 39.3483 31.0215 36.1401Z" fill="white"/>
<path fill-rule="evenodd" clip-rule="evenodd" d="M36.5998 19.1074H18.2998V25.8525H28.5684C28.1292 27.4399 27.328 28.904 26.2278 30.1297L31.6234 35.5287C34.7674 32.2011 36.5439 27.812 36.5998 23.2341H36.5703L36.5998 23.0128V19.1074Z" fill="white"/>
<path d="M47.562 23.0418V23.0123C47.562 18.9003 50.7645 15.5293 55.1447 15.5293C57.748 15.5293 59.3183 16.2348 60.8265 17.5159L58.8224 19.9335C57.7067 19.0037 56.7149 18.4576 55.0414 18.4576C52.7273 18.4576 50.8885 20.5032 50.8885 22.9621V23.0123C50.8885 25.669 52.7067 27.5995 55.2687 27.5995C56.3336 27.6318 57.3817 27.3282 58.2645 26.7317V24.6654H55.062V21.9054H61.3431V28.187C59.6287 29.673 57.4341 30.4878 55.1654 30.4806C50.6612 30.4806 47.562 27.3191 47.562 23.0418Z" fill="white"/>
<path d="M64.4014 15.7695H71.013C72.8518 15.7695 74.2774 16.2861 75.2279 17.2455C75.6448 17.6858 75.9693 18.2052 76.1822 18.7731C76.3952 19.3409 76.4922 19.9456 76.4675 20.5516V20.5929C76.4675 22.9278 75.2072 24.3949 73.3684 25.0768L76.9103 30.2426H73.1913L70.0921 25.614H67.5921V30.2337H64.4014V15.7695ZM70.8064 22.795C72.3559 22.795 73.2444 21.9685 73.2444 20.7494V20.708C73.2444 19.3443 72.294 18.6417 70.7444 18.6417H67.5921V22.795H70.8064Z" fill="white"/>
<path d="M84.298 15.666H87.2319L93.4303 30.2335H90.1038L88.7815 26.9865H82.6658L81.3434 30.2335H78.0967L84.298 15.666ZM87.6451 24.194L85.7236 19.5035L83.8021 24.194H87.6451Z" fill="white"/>
<path d="M95.6616 15.7695H101.565C105.015 15.7695 107.102 17.8152 107.102 20.77V20.8113C107.102 24.1588 104.499 25.8945 101.255 25.8945H98.8375V30.2337H95.6616V15.7695ZM101.364 23.0636C102.955 23.0636 103.885 22.1131 103.885 20.8733V20.832C103.885 19.4062 102.893 18.6417 101.302 18.6417H98.8435V23.0695L101.364 23.0636Z" fill="white"/>
<path d="M109.463 15.7695H112.645V21.4932H118.513V15.7695H121.695V30.2337H118.513V24.4274H112.645V30.2337H109.463V15.7695Z" fill="white"/>
<path d="M125.166 15.7695H136.087V18.6004H128.327V21.5375H135.145V24.3684H128.327V27.4029H136.178V30.2337H125.166V15.7695Z" fill="white"/>
<path d="M139.021 15.7695H141.954L148.743 24.6753V15.7695H151.86V30.2337H149.153L142.149 21.0386V30.2337H139.021V15.7695Z" fill="white"/>
<path d="M155.332 15.7695H166.252V18.6004H158.502V21.5375H165.32V24.3684H158.502V27.4029H166.353V30.2337H155.332V15.7695Z" fill="white"/>
</g>
<defs>
<clipPath id="clip0_2476_27502">
<rect width="166.344" height="46" fill="white"/>
</clipPath>
</defs>
</svg>
