<svg width="121" height="46" viewBox="0 0 121 46" fill="none" xmlns="http://www.w3.org/2000/svg">
<g clip-path="url(#clip0_2476_27453)">
<path fill-rule="evenodd" clip-rule="evenodd" d="M95.9484 20.2844C95.4315 17.8406 93.9698 16.2353 91.5091 15.5848C90.3196 15.2865 89.082 15.2326 87.8711 15.4265C85.2249 15.8173 83.3008 17.5561 82.7468 20.1261C82.3239 22.0063 82.3239 23.957 82.7468 25.8372C83.3008 28.2167 84.7698 29.7675 87.1638 30.3834C87.5867 30.4922 88.017 30.564 88.4449 30.653H90.2577C90.3863 30.6233 90.505 30.5788 90.6435 30.5615C93.5 30.1806 95.4562 28.3577 95.978 25.5404C96.3113 23.8033 96.3012 22.0176 95.9484 20.2844ZM94.8058 25.3796C94.2642 27.9372 92.6492 29.3372 90.0376 29.4658C89.2388 29.5114 88.4374 29.4599 87.651 29.3124C85.5167 28.9043 84.2777 27.5266 83.835 25.4464C83.5185 23.8969 83.5076 22.3006 83.8028 20.7469C84.2529 18.2363 85.8704 16.7399 88.4226 16.542C89.2791 16.4672 90.1417 16.508 90.9873 16.6632C93.1191 17.0788 94.509 18.5727 94.875 20.737C94.9937 21.4493 95.0234 22.1765 95.1025 22.9631C95.0135 23.7472 94.9789 24.5832 94.8058 25.3895V25.3796ZM59.0616 15.5329H68.2122V16.6558H60.2586V22.4016H67.2724V23.5419H60.2413V29.2629H68.2023V30.4057H59.0518L59.0616 15.5329ZM110.837 28.3626C112.133 29.0311 113.563 29.3981 115.021 29.4361C115.862 29.464 116.703 29.3596 117.512 29.1269C118.696 28.7732 119.332 27.8531 119.413 26.6238C119.49 25.4464 118.884 24.6055 117.848 24.1503C116.997 23.7769 116.08 23.5617 115.202 23.2451C114.324 22.9285 113.441 22.6762 112.652 22.226C112.065 21.9268 111.585 21.4546 111.275 20.8734C110.965 20.2921 110.842 19.6298 110.921 18.9759C111.047 17.5289 111.766 16.453 113.114 15.8965C115.224 15.0258 117.338 15.2212 119.413 16.0671C119.488 16.1146 119.551 16.1776 119.599 16.2519C119.647 16.3262 119.678 16.41 119.69 16.4975C119.718 16.8266 119.722 17.1572 119.703 17.4869C119.53 17.4077 119.406 17.3459 119.277 17.2915C117.635 16.6063 115.936 16.3392 114.185 16.7325C112.701 17.0664 111.873 18.2784 112.09 19.6635C112.132 19.9966 112.255 20.3142 112.45 20.5875C112.645 20.8609 112.905 21.0814 113.206 21.2292C113.987 21.5842 114.789 21.8915 115.607 22.1493C116.428 22.4412 117.296 22.6242 118.08 22.9779C119.93 23.8041 120.766 25.2659 120.529 27.0814C120.304 28.7732 118.889 30.1831 117.039 30.4799C115.195 30.7736 113.307 30.6088 111.541 30C110.819 29.7527 110.827 29.7378 110.827 28.9785L110.837 28.3626Z" fill="white"/>
<path fill-rule="evenodd" clip-rule="evenodd" d="M17.3329 23.0031L13.9888 28.9047L16.1159 19.1816L17.3329 23.0031Z" fill="white"/>
<path fill-rule="evenodd" clip-rule="evenodd" d="M20.2914 32.2929H13.5513L17.8674 24.6797L20.2914 32.2929Z" fill="white"/>
<path fill-rule="evenodd" clip-rule="evenodd" d="M20.7014 33.584L22.2003 38.2885L14.6909 33.584H20.7014Z" fill="white"/>
<path fill-rule="evenodd" clip-rule="evenodd" d="M18.2009 21.4721L16.7144 16.8071L22.705 8.625V13.5224L18.2009 21.4721Z" fill="white"/>
<path fill-rule="evenodd" clip-rule="evenodd" d="M24.6533 33.584L23.3547 37.6602L22.0562 33.584H24.6533Z" fill="white"/>
<path fill-rule="evenodd" clip-rule="evenodd" d="M18.7324 23.1476L23.3547 14.9902L27.9745 23.1476L25.0636 32.292H21.6458L18.7324 23.1476Z" fill="white"/>
<path fill-rule="evenodd" clip-rule="evenodd" d="M28.509 21.4721L24.0049 13.5224V8.625L29.9956 16.8071L28.509 21.4721Z" fill="white"/>
<path fill-rule="evenodd" clip-rule="evenodd" d="M26.0082 33.584H32.0186L24.5093 38.2885L26.0082 33.584Z" fill="white"/>
<path fill-rule="evenodd" clip-rule="evenodd" d="M29.3765 23.0031L30.5934 19.1816L32.7206 28.9047L29.3765 23.0031Z" fill="white"/>
<path fill-rule="evenodd" clip-rule="evenodd" d="M28.8429 24.6777L33.1566 32.2935H26.4189L28.8429 24.6777Z" fill="white"/>
<path fill-rule="evenodd" clip-rule="evenodd" d="M23.3595 0.00195312C18.8105 0.00195313 14.3637 1.35106 10.5813 3.87866C6.79896 6.40626 3.85099 9.99884 2.11016 14.2021C0.369341 18.4053 -0.086138 23.0305 0.801326 27.4926C1.68879 31.9548 3.87934 36.0535 7.09596 39.2705C10.3126 42.4876 14.4108 44.6784 18.8724 45.566C23.334 46.4535 27.9585 45.998 32.1612 44.257C36.3639 42.5159 39.9561 39.5676 42.4834 35.7847C45.0106 32.0019 46.3596 27.5545 46.3596 23.005C46.3596 16.9042 43.9363 11.0533 39.623 6.73938C35.3096 2.42548 29.4595 0.00195313 23.3595 0.00195312ZM34.8941 33.0991C34.8822 33.1416 34.8665 33.183 34.8472 33.2227C34.7938 33.325 34.7134 33.4105 34.6147 33.4701L23.7032 40.3191C23.5996 40.382 23.4807 40.4154 23.3595 40.4155C23.2382 40.4154 23.1193 40.382 23.0157 40.3191L12.1043 33.4849C12.0943 33.4806 12.0852 33.4748 12.0771 33.4676C11.9892 33.4034 11.9187 33.3184 11.8718 33.2203C11.8525 33.1805 11.8368 33.1391 11.8248 33.0966C11.802 33.0077 11.7978 32.9151 11.8124 32.8245V32.7874L15.3663 16.574C15.3857 16.4788 15.4263 16.3892 15.485 16.3118L22.8278 6.26718C22.8888 6.18402 22.9691 6.11678 23.0616 6.07115C23.1541 6.02551 23.2563 6.00282 23.3595 6.005C23.4609 6.0046 23.5611 6.02814 23.6517 6.07369C23.7424 6.11925 23.821 6.18554 23.8813 6.26718L31.224 16.3019C31.2827 16.3793 31.3233 16.4689 31.3427 16.5641L34.8941 32.7948V32.8344C34.9112 32.922 34.9095 33.0122 34.8892 33.0991H34.8941Z" fill="white"/>
</g>
<defs>
<clipPath id="clip0_2476_27453">
<rect width="120.219" height="46" fill="white" transform="translate(0.359375)"/>
</clipPath>
</defs>
</svg>
