<svg width="94" height="46" viewBox="0 0 94 46" fill="none" xmlns="http://www.w3.org/2000/svg">
<g clip-path="url(#clip0_2476_27420)">
<path fill-rule="evenodd" clip-rule="evenodd" d="M-9.78219e-05 22.961C0.0748119 10.2178 10.3851 -0.107828 23.0381 0.00283439C35.8851 0.115199 46.0336 10.1548 45.9979 23.0427C45.9672 36.1468 35.582 46.0178 22.8695 45.9957C10.157 45.9736 -0.0733051 35.5679 -9.78219e-05 22.961ZM33.4999 4.28801C26.186 -0.201465 14.3707 0.300771 6.83712 8.76727C-0.487011 17.0005 -0.340597 29.4849 7.37681 37.7982C14.7741 45.7488 26.3085 46.1404 33.4948 41.7139C23.7497 44.7903 15.2985 42.778 9.31936 34.1242C4.40936 26.9942 4.37191 19.1899 9.24104 12.0156C15.1947 3.23757 23.6833 1.21161 33.4999 4.28801ZM35.3079 7.06137C29.4888 3.19501 19.3402 3.07584 12.6528 9.99988C5.58749 17.3206 5.50236 28.3511 12.4826 35.8114C19.0491 42.8427 29.2998 42.9108 35.3198 38.9167C31.5744 40.3332 27.7642 40.5477 23.9216 39.3968C20.0791 38.246 16.9908 35.951 14.6975 32.6465C10.7392 26.9448 10.8056 18.9567 14.7282 13.2823C18.1672 8.311 25.6973 3.62574 35.3079 7.06137ZM37.0428 9.74621C31.3258 5.99732 22.2634 6.40251 16.7507 13.0712C11.4883 19.4402 12.1966 28.9827 18.2643 34.5396C24.223 40.0029 32.6708 39.373 36.7925 36.3511C29.9059 38.7022 23.5454 35.9833 20.1421 31.1653C16.6946 26.2842 16.7371 19.5628 20.2392 14.7073C23.7276 9.8773 30.1034 7.3542 37.0428 9.74621ZM24.8444 33.5811C29.94 37.0202 37.3339 36.3051 41.6599 30.9984C45.8293 25.891 45.259 18.2297 40.492 13.7573C35.725 9.28483 28.6376 9.59298 25.0521 12.3834C30.0523 10.7796 34.9896 12.3068 37.9911 16.3842C40.8019 20.1961 40.8495 25.5658 38.1324 29.4492C35.5173 33.1844 30.512 35.4675 24.8444 33.5743V33.5811ZM23.2151 15.075C27.0185 14.0433 30.1817 14.9218 32.555 17.959C34.6099 20.5894 34.9998 23.5977 33.4573 26.5788C31.3105 30.7277 27.7795 32.071 23.2134 30.9763C27.2653 33.9591 32.9653 33.2406 36.3226 29.3862C39.6067 25.61 39.445 19.8897 35.9498 16.2293C32.5873 12.7017 26.8074 12.1552 23.2151 15.0682V15.075ZM21.7646 17.6526C25.4249 17.1248 28.3583 19.3721 28.5048 22.8333C28.578 24.5834 27.8833 26.0901 26.4941 27.224C25.1321 28.3323 23.576 28.6779 21.785 28.3681C24.1157 30.5609 28.4009 30.2919 30.8184 27.8795C33.4522 25.2542 33.4828 20.9435 30.8882 18.2127C28.549 15.7458 24.2332 15.4325 21.7646 17.6458V17.6526ZM23.0227 19.1048C21.0359 18.9771 19.1206 20.8771 19.1274 23.0206C19.1274 25.0721 20.9746 26.9908 23.0585 26.9227C25.2717 26.8495 26.9572 25.2083 26.9538 22.9848C26.9504 20.7613 25.2462 19.0946 23.0227 19.098V19.1048Z" fill="white"/>
<path fill-rule="evenodd" clip-rule="evenodd" d="M61.8652 24.7101V26.2219H58.954C57.9052 26.2219 56.8548 26.2032 55.8061 26.2219C55.2732 26.2338 55.0467 26.0704 55.0518 25.4966C55.074 22.8578 55.0518 20.2189 55.0825 17.58C55.0825 17.3366 55.3702 16.8905 55.5319 16.8871C57.6209 16.8394 59.7133 16.8565 61.8567 16.8565V18.3904H56.705V20.762H60.4879V22.2602C59.5362 22.2602 58.5862 22.301 57.6396 22.2466C56.8769 22.204 56.533 22.4304 56.642 23.2425C56.7033 23.6801 56.6539 24.1346 56.6539 24.7135L61.8652 24.7101Z" fill="white"/>
<path fill-rule="evenodd" clip-rule="evenodd" d="M77.8722 20.362C78.2205 20.1875 78.5773 20.0307 78.9414 19.8921C80.6183 19.3558 82.2391 20.4369 82.3242 22.1854C82.3787 23.3158 82.3157 24.4531 82.3498 25.5904C82.3668 26.1624 82.0722 26.2373 81.6143 26.2339C81.1563 26.2305 80.8379 26.2067 80.8447 25.6193C80.8584 24.5978 80.8567 23.5763 80.7886 22.5548C80.7256 21.6321 80.1927 21.1537 79.3959 21.1724C79.2035 21.1685 79.0123 21.2028 78.8333 21.2733C78.6542 21.3438 78.4909 21.449 78.3527 21.5829C78.2145 21.7168 78.1042 21.8767 78.0282 22.0535C77.9521 22.2302 77.9119 22.4203 77.9096 22.6127C77.8586 23.5746 77.8569 24.5399 77.8807 25.5069C77.8943 26.0756 77.656 26.2458 77.1197 26.2373C76.6226 26.2373 76.3297 26.1488 76.3365 25.541C76.3604 22.8771 76.3604 20.2127 76.3365 17.5478C76.3365 16.9451 76.6055 16.8549 77.1129 16.8497C77.6202 16.8446 77.9011 16.9791 77.8807 17.5614C77.8467 18.4603 77.8722 19.366 77.8722 20.362Z" fill="white"/>
<path fill-rule="evenodd" clip-rule="evenodd" d="M89.7217 19.5823C89.043 19.5745 88.3774 19.7686 87.8094 20.1399C87.2413 20.5112 86.7964 21.043 86.5311 21.6676C86.2659 22.2923 86.1923 22.9817 86.3196 23.6483C86.447 24.3149 86.7696 24.9286 87.2465 25.4115C87.7234 25.8944 88.333 26.2246 88.998 26.3603C89.6629 26.496 90.3532 26.431 90.9811 26.1736C91.6091 25.9162 92.1464 25.478 92.5247 24.9146C92.9031 24.3512 93.1055 23.688 93.1062 23.0094C93.1091 22.5621 93.0239 22.1186 92.8554 21.7043C92.6868 21.2899 92.4383 20.9128 92.124 20.5946C91.8097 20.2763 91.4357 20.0231 91.0235 19.8494C90.6113 19.6757 90.169 19.5849 89.7217 19.5823ZM89.7353 24.9094C89.3576 24.909 88.9886 24.7962 88.6752 24.5855C88.3618 24.3748 88.1181 24.0755 87.9753 23.7259C87.8324 23.3763 87.7968 22.9921 87.8729 22.6222C87.9491 22.2523 88.1336 21.9134 88.4029 21.6486C88.6722 21.3838 89.0143 21.2052 89.3854 21.1354C89.7566 21.0656 90.1401 21.1078 90.4873 21.2566C90.8344 21.4054 91.1294 21.6541 91.3347 21.9711C91.5401 22.2881 91.6465 22.659 91.6404 23.0366C91.6276 23.5341 91.4222 24.0072 91.0675 24.3562C90.7127 24.7053 90.2363 24.903 89.7387 24.9077L89.7353 24.9094Z" fill="white"/>
<path fill-rule="evenodd" clip-rule="evenodd" d="M71.8912 25.3702C70.4355 26.7816 68.367 26.7424 67.0493 25.3532C66.7358 25.0249 66.4911 24.6372 66.3296 24.213C66.1682 23.7887 66.0932 23.3365 66.109 22.8828C66.1249 22.4291 66.2313 21.9832 66.422 21.5713C66.6127 21.1593 66.8839 20.7897 67.2195 20.4841C68.6104 19.2259 70.6415 19.2923 71.8775 20.6662C71.4247 21.2281 71.1029 21.8222 70.1512 21.2213C69.4566 20.7837 68.4674 21.2042 67.9788 21.8767C67.732 22.2063 67.6001 22.6077 67.6031 23.0194C67.6062 23.4311 67.7442 23.8305 67.9959 24.1564C68.4896 24.8135 69.4957 25.2102 70.1819 24.771C71.1182 24.1785 71.4111 24.8118 71.8912 25.3702Z" fill="white"/>
</g>
<defs>
<clipPath id="clip0_2476_27420">
<rect width="93.1094" height="46" fill="white"/>
</clipPath>
</defs>
</svg>
