<svg width="115" height="46" viewBox="0 0 115 46" fill="none" xmlns="http://www.w3.org/2000/svg">
<g clip-path="url(#clip0_2476_28013)">
<path fill-rule="evenodd" clip-rule="evenodd" d="M105.8 18.3089C105.524 18.3038 105.251 18.3707 105.008 18.503L97.3967 22.8983C97.1549 23.0408 96.9546 23.2442 96.8159 23.4882C96.6771 23.7321 96.6048 24.0082 96.606 24.2889V33.0639C96.6048 33.3447 96.6773 33.6209 96.8162 33.865C96.9551 34.1091 97.1556 34.3125 97.3976 34.4549L99.3858 35.6021C100.352 36.0782 100.707 36.0709 101.147 36.0709C102.577 36.0709 103.393 35.2033 103.393 33.6954V25.0318C103.392 25.0031 103.386 24.9749 103.374 24.9488C103.362 24.9226 103.345 24.8991 103.324 24.8796C103.303 24.86 103.278 24.8448 103.251 24.8349C103.224 24.8249 103.196 24.8204 103.167 24.8216H102.212C102.183 24.8202 102.155 24.8246 102.128 24.8345C102.101 24.8444 102.076 24.8596 102.055 24.8791C102.034 24.8987 102.017 24.9223 102.005 24.9485C101.993 24.9747 101.986 25.0031 101.986 25.0318V33.6941C101.986 34.362 101.289 35.0345 100.159 34.4696L98.0895 33.2575C98.0526 33.2397 98.0213 33.2123 97.9985 33.1783C97.9758 33.1442 97.9626 33.1047 97.9602 33.0639V24.2889C97.9624 24.2458 97.9754 24.204 97.998 24.1673C98.0206 24.1305 98.052 24.1001 98.0895 24.0787L105.685 19.6995C105.719 19.6796 105.758 19.6692 105.798 19.6692C105.838 19.6692 105.877 19.6796 105.911 19.6995L113.506 24.0792C113.544 24.1005 113.575 24.1309 113.598 24.1677C113.621 24.2044 113.634 24.2463 113.636 24.2894V33.0639C113.637 33.1057 113.627 33.1469 113.607 33.1837C113.587 33.2205 113.558 33.2516 113.523 33.2741L105.911 37.6533C105.876 37.6727 105.837 37.6829 105.798 37.6829C105.758 37.6829 105.719 37.6727 105.685 37.6533L103.73 36.4899C103.7 36.4739 103.666 36.4655 103.632 36.4655C103.599 36.4655 103.565 36.4739 103.535 36.4899C102.996 36.7958 102.894 36.8313 102.388 37.007C102.264 37.0507 102.074 37.1183 102.453 37.329L105.006 38.8318C105.247 38.9696 105.52 39.042 105.798 39.042C106.076 39.042 106.349 38.9696 106.59 38.8318L114.205 34.4549C114.446 34.3126 114.647 34.1094 114.786 33.8656C114.925 33.6218 114.997 33.3458 114.996 33.0652V24.2889C114.997 24.0083 114.925 23.7323 114.786 23.4884C114.647 23.2446 114.447 23.0414 114.205 22.8993L106.593 18.5039C106.35 18.3706 106.077 18.3034 105.8 18.3089Z" fill="white"/>
<path fill-rule="evenodd" clip-rule="evenodd" d="M107.837 24.5804C105.67 24.5804 104.379 25.5027 104.379 27.0368C104.379 28.7006 105.66 29.1579 107.741 29.3635C110.229 29.6073 110.423 29.973 110.423 30.4629C110.423 31.3125 109.745 31.6745 108.145 31.6745C106.133 31.6745 105.691 31.1722 105.543 30.1717C105.537 30.1196 105.512 30.0713 105.474 30.0357C105.435 30.0001 105.385 29.9795 105.333 29.9776H104.347C104.287 29.9786 104.23 30.0028 104.188 30.0451C104.146 30.0874 104.121 30.1446 104.121 30.2044C104.121 31.485 104.818 32.9998 108.145 32.9998C110.553 32.9998 111.942 32.0545 111.942 30.398C111.942 28.7563 110.82 28.3152 108.484 28.006C106.123 27.6937 105.898 27.5405 105.898 26.9876C105.898 26.5313 106.089 25.9209 107.837 25.9209C109.399 25.9209 109.976 26.258 110.213 27.311C110.223 27.36 110.249 27.4042 110.287 27.4365C110.325 27.4687 110.373 27.4871 110.423 27.4885H111.409C111.472 27.4836 111.53 27.4546 111.571 27.4076C111.592 27.3867 111.609 27.3616 111.62 27.3338C111.631 27.3059 111.636 27.2761 111.635 27.2461C111.482 25.4328 110.273 24.5781 107.837 24.5781V24.5804Z" fill="white"/>
<path fill-rule="evenodd" clip-rule="evenodd" d="M61.0531 6.80469C60.9894 6.80445 60.9262 6.81682 60.8672 6.84109C60.8083 6.86537 60.7547 6.90106 60.7096 6.94613C60.6645 6.99119 60.6288 7.04473 60.6044 7.10367C60.5801 7.1626 60.5677 7.22577 60.5678 7.28953V19.652C60.5695 19.7106 60.5553 19.7685 60.5269 19.8197C60.4985 19.8709 60.4569 19.9136 60.4064 19.9432C60.3549 19.9732 60.2964 19.9891 60.2369 19.9891C60.1773 19.9891 60.1188 19.9732 60.0674 19.9432L58.047 18.7794C57.8997 18.6942 57.7324 18.6494 57.5622 18.6494C57.392 18.6494 57.2247 18.6942 57.0774 18.7794L49.0136 23.4337C48.8654 23.5221 48.7429 23.6477 48.6581 23.798C48.5733 23.9483 48.5292 24.1181 48.5301 24.2907V33.5988C48.5296 33.7692 48.5742 33.9367 48.6594 34.0843C48.7445 34.2319 48.8672 34.3543 49.0149 34.4392L57.0787 39.0935C57.226 39.1789 57.3933 39.224 57.5636 39.224C57.7339 39.224 57.9011 39.1789 58.0484 39.0935L66.1113 34.4392C66.2591 34.3543 66.3817 34.2319 66.4669 34.0843C66.552 33.9367 66.5966 33.7692 66.5961 33.5988V10.3922C66.5959 10.2179 66.5494 10.0468 66.4614 9.89631C66.3734 9.74584 66.247 9.62141 66.0952 9.53571L61.2951 6.85299C61.2199 6.8166 61.1364 6.80073 61.0531 6.80699V6.80469ZM9.17757 18.4238C9.02504 18.4246 8.87513 18.4635 8.74149 18.537L0.677227 23.1913C0.529469 23.2761 0.40679 23.3986 0.32164 23.5462C0.236489 23.6938 0.191897 23.8613 0.192387 24.0317L0.208947 36.5239C0.207977 36.6092 0.22992 36.6931 0.272482 36.767C0.315045 36.8409 0.376665 36.902 0.450907 36.9439C0.524183 36.9879 0.608064 37.0112 0.693557 37.0112C0.77905 37.0112 0.86293 36.9879 0.936207 36.9439L5.72021 34.1968C5.86957 34.1123 5.99433 33.9904 6.08218 33.843C6.17003 33.6956 6.21793 33.5279 6.22115 33.3564V27.5226C6.22065 27.3524 6.26514 27.1851 6.35012 27.0376C6.4351 26.8901 6.55755 26.7676 6.70507 26.6827L8.74011 25.5023C8.88765 25.4176 9.05482 25.373 9.22495 25.373C9.39508 25.373 9.56224 25.4176 9.70979 25.5023L11.7471 26.6827C11.895 26.7675 12.0179 26.89 12.1031 27.0377C12.1883 27.1854 12.233 27.353 12.2324 27.5236V33.3564C12.2359 33.5278 12.2838 33.6954 12.3716 33.8427C12.4593 33.9901 12.5838 34.1121 12.7329 34.1968L17.5169 36.9439C17.5901 36.9879 17.6739 37.0111 17.7593 37.0111C17.8447 37.0111 17.9285 36.9879 18.0017 36.9439C18.0754 36.9012 18.1366 36.84 18.1793 36.7663C18.2219 36.6926 18.2444 36.609 18.2446 36.5239L18.2621 24.0317C18.263 23.8612 18.2186 23.6935 18.1334 23.5459C18.0482 23.3982 17.9253 23.2758 17.7773 23.1913L9.71117 18.537C9.57748 18.4632 9.42734 18.4242 9.27463 18.4238H9.17757ZM81.6414 18.537C81.4712 18.5368 81.304 18.5814 81.1565 18.6663L73.0941 23.3205C72.9464 23.4054 72.8237 23.5279 72.7385 23.6755C72.6534 23.8231 72.6088 23.9906 72.6093 24.1609V33.4695C72.6111 33.6413 72.6584 33.8095 72.7463 33.9571C72.8342 34.1047 72.9596 34.2264 73.1097 34.3099L81.1096 38.8671C81.2538 38.9516 81.4173 38.9974 81.5843 39.0002C81.7514 39.0029 81.9163 38.9625 82.0632 38.8828L86.9111 36.184C86.9875 36.1431 87.0517 36.0827 87.0971 36.0089C87.1426 35.9351 87.1676 35.8506 87.1696 35.764C87.1705 35.6787 87.1484 35.5948 87.1058 35.5209C87.0631 35.447 87.0015 35.386 86.9272 35.344L78.8133 30.6897C78.7367 30.6449 78.6727 30.5813 78.6275 30.5049C78.5823 30.4286 78.5572 30.3419 78.5548 30.2532V27.3446C78.5577 27.2581 78.583 27.1739 78.6284 27.1002C78.6737 27.0264 78.7374 26.9658 78.8133 26.9242L81.3341 25.4697C81.4079 25.4271 81.4916 25.4048 81.5767 25.4048C81.6619 25.4048 81.7456 25.4271 81.8194 25.4697L84.3402 26.9242C84.414 26.9667 84.4752 27.0279 84.5178 27.1016C84.5604 27.1753 84.5827 27.259 84.5826 27.3442V29.6391C84.5826 29.7241 84.605 29.8077 84.6476 29.8813C84.6901 29.955 84.7512 30.0162 84.8249 30.0587C84.8985 30.1013 84.982 30.1237 85.0671 30.1238C85.1521 30.1238 85.2357 30.1015 85.3094 30.0591L90.1394 27.2476C90.2873 27.1626 90.4103 27.0401 90.4958 26.8925C90.5813 26.7448 90.6264 26.5773 90.6265 26.4067V24.1614C90.6267 23.991 90.582 23.8236 90.4968 23.676C90.4117 23.5284 90.2892 23.4058 90.1417 23.3205L82.1262 18.6663C81.9789 18.581 81.8115 18.5366 81.6414 18.5375V18.537ZM57.53 25.4867C57.5751 25.4863 57.6196 25.4974 57.6593 25.5189L60.4229 27.1188C60.4608 27.1396 60.4925 27.1699 60.5152 27.2066C60.5378 27.2434 60.5506 27.2854 60.5522 27.3285V30.5283C60.5508 30.5715 60.5381 30.6136 60.5154 30.6505C60.4927 30.6874 60.4609 30.7177 60.4229 30.7385L57.6593 32.3384C57.6223 32.3594 57.5806 32.3704 57.5381 32.3704C57.4956 32.3704 57.4538 32.3594 57.4168 32.3384L54.6536 30.7385C54.6157 30.7177 54.5838 30.6873 54.561 30.6505C54.5383 30.6137 54.5255 30.5715 54.5239 30.5283V27.3267C54.5257 27.2835 54.5385 27.2415 54.5612 27.2048C54.584 27.168 54.6158 27.1378 54.6536 27.1169L57.4168 25.517C57.4508 25.4959 57.49 25.4848 57.53 25.4848V25.4867Z" fill="white"/>
<path fill-rule="evenodd" clip-rule="evenodd" d="M33.4021 18.4844C33.2321 18.484 33.065 18.5286 32.9178 18.6136L24.8535 23.2518C24.7051 23.34 24.5824 23.4655 24.4973 23.6157C24.4123 23.7659 24.3679 23.9357 24.3687 24.1083V33.4164C24.3682 33.5868 24.4128 33.7543 24.4979 33.9019C24.5831 34.0495 24.7057 34.172 24.8535 34.2569L32.9178 38.9111C33.065 38.9966 33.2323 39.0416 33.4026 39.0416C33.5729 39.0416 33.7402 38.9966 33.8874 38.9111L41.9522 34.2569C42.0999 34.172 42.2226 34.0495 42.3077 33.9019C42.3929 33.7543 42.4375 33.5868 42.437 33.4164V24.1083C42.4377 23.9357 42.3933 23.7659 42.3083 23.6157C42.2232 23.4655 42.1005 23.3401 41.9522 23.2518L33.8874 18.6136C33.7399 18.5285 33.5725 18.4839 33.4021 18.4844ZM81.6253 26.7911C81.5921 26.7882 81.5588 26.7938 81.5283 26.8072L79.9771 27.712C79.9481 27.728 79.9239 27.7514 79.9068 27.7799C79.8898 27.8083 79.8806 27.8408 79.8801 27.8739V29.6513C79.8806 29.6844 79.8899 29.7167 79.9069 29.7451C79.924 29.7734 79.9482 29.7968 79.9771 29.8128L81.5283 30.7015C81.555 30.7182 81.5858 30.7271 81.6173 30.7271C81.6488 30.7271 81.6796 30.7182 81.7063 30.7015L83.2574 29.8128C83.2863 29.7967 83.3104 29.7733 83.3274 29.745C83.3444 29.7167 83.3538 29.6844 83.3545 29.6513V27.8744C83.3538 27.8413 83.3445 27.809 83.3275 27.7807C83.3104 27.7523 83.2863 27.729 83.2574 27.7129L81.7063 26.8076C81.6815 26.7943 81.6533 26.7888 81.6253 26.792V26.7911Z" fill="white"/>
</g>
<defs>
<clipPath id="clip0_2476_28013">
<rect width="115" height="46" fill="white"/>
</clipPath>
</defs>
</svg>
