<svg width="168" height="46" viewBox="0 0 168 46" fill="none" xmlns="http://www.w3.org/2000/svg">
<g clip-path="url(#clip0_2476_27468)">
<path fill-rule="evenodd" clip-rule="evenodd" d="M10.7238 38.2307L10.5852 38.1752L0.746465 24.2334L0.71875 24.0671L7.84143 8.57319L7.98001 8.49004L24.9414 6.91016L25.08 6.96559L34.9187 20.9074L34.9464 21.0737L27.8237 36.5676L27.6852 36.6508L10.7238 38.2307ZM1.07904 24.1226L10.8069 37.8981L27.5743 36.3459L34.6139 21.0182L24.886 7.24276L8.11858 8.79493L1.07904 24.1226Z" fill="white"/>
<path fill-rule="evenodd" clip-rule="evenodd" d="M10.6682 38.2028L7.95215 24.0115V8.51758L21.2275 12.4257L34.974 20.9903L24.7473 30.0816L10.6682 38.2028ZM8.09072 8.73932V24.0115L10.779 37.9533L24.6364 29.943L34.6691 21.0181L21.1166 12.592L8.09072 8.73932Z" fill="white"/>
<path fill-rule="evenodd" clip-rule="evenodd" d="M21.9207 12.5927C21.9207 12.6913 21.8914 12.7878 21.8366 12.8698C21.7818 12.9519 21.7039 13.0158 21.6127 13.0536C21.5215 13.0914 21.4212 13.1012 21.3244 13.082C21.2277 13.0627 21.1388 13.0152 21.069 12.9455C20.9992 12.8757 20.9517 12.7868 20.9324 12.69C20.9132 12.5932 20.9231 12.4929 20.9608 12.4017C20.9986 12.3106 21.0625 12.2327 21.1446 12.1778C21.2266 12.123 21.3231 12.0938 21.4218 12.0938C21.4874 12.0934 21.5524 12.106 21.6131 12.131C21.6738 12.1559 21.729 12.1927 21.7754 12.2391C21.8218 12.2855 21.8585 12.3406 21.8834 12.4013C21.9084 12.462 21.921 12.527 21.9207 12.5927Z" fill="white"/>
<path fill-rule="evenodd" clip-rule="evenodd" d="M21.4215 13.5901C21.2187 13.5901 21.0204 13.53 20.8518 13.4173C20.6831 13.3046 20.5517 13.1445 20.4741 12.9571C20.3964 12.7697 20.3761 12.5635 20.4157 12.3645C20.4553 12.1656 20.5529 11.9829 20.6964 11.8394C20.8398 11.696 21.0225 11.5983 21.2215 11.5588C21.4204 11.5192 21.6266 11.5395 21.814 11.6171C22.0014 11.6947 22.1616 11.8262 22.2742 11.9948C22.3869 12.1635 22.4471 12.3618 22.4471 12.5646C22.4428 12.8353 22.3334 13.0936 22.142 13.285C21.9506 13.4764 21.6922 13.5859 21.4215 13.5901ZM21.4215 12.5646L21.3938 12.5923L21.4215 12.62V12.5646Z" fill="white"/>
<path fill-rule="evenodd" clip-rule="evenodd" d="M25.2185 29.9716C25.2185 30.0702 25.1893 30.1667 25.1344 30.2488C25.0796 30.3308 25.0017 30.3947 24.9105 30.4325C24.8194 30.4703 24.7191 30.4801 24.6223 30.4609C24.5255 30.4416 24.4366 30.3941 24.3668 30.3244C24.2971 30.2546 24.2495 30.1657 24.2303 30.0689C24.211 29.9721 24.2209 29.8718 24.2587 29.7806C24.2964 29.6895 24.3604 29.6116 24.4424 29.5567C24.5245 29.5019 24.6209 29.4727 24.7196 29.4727C24.7852 29.4723 24.8503 29.485 24.911 29.5099C24.9717 29.5348 25.0268 29.5716 25.0732 29.618C25.1196 29.6644 25.1564 29.7195 25.1813 29.7802C25.2062 29.8409 25.2189 29.906 25.2185 29.9716Z" fill="white"/>
<path fill-rule="evenodd" clip-rule="evenodd" d="M24.7196 30.9966C24.5848 30.9969 24.4513 30.9707 24.3267 30.9193C24.2021 30.8679 24.0889 30.7923 23.9936 30.697C23.8983 30.6017 23.8228 30.4885 23.7714 30.3639C23.7199 30.2393 23.6937 30.1058 23.694 29.971C23.6914 29.8356 23.7161 29.7011 23.7667 29.5755C23.8173 29.4499 23.8928 29.3358 23.9885 29.24C24.0843 29.1442 24.1984 29.0688 24.324 29.0182C24.4496 28.9676 24.5842 28.9429 24.7196 28.9455C24.9916 28.9455 25.2524 29.0536 25.4447 29.2459C25.6371 29.4382 25.7451 29.6991 25.7451 29.971C25.7451 30.243 25.6371 30.5039 25.4447 30.6962C25.2524 30.8885 24.9916 30.9966 24.7196 30.9966ZM24.7196 29.9433L24.6919 29.971L24.7196 29.9988V29.9433Z" fill="white"/>
<path fill-rule="evenodd" clip-rule="evenodd" d="M11.3338 38.0634C11.3338 38.162 11.3045 38.2585 11.2497 38.3406C11.1949 38.4226 11.1169 38.4865 11.0258 38.5243C10.9346 38.5621 10.8343 38.5719 10.7375 38.5527C10.6407 38.5334 10.5518 38.4859 10.4821 38.4162C10.4123 38.3464 10.3648 38.2575 10.3455 38.1607C10.3263 38.0639 10.3362 37.9636 10.3739 37.8724C10.4117 37.7813 10.4756 37.7034 10.5577 37.6485C10.6397 37.5937 10.7362 37.5645 10.8348 37.5645C10.9005 37.5641 10.9655 37.5767 11.0262 37.6017C11.0869 37.6266 11.142 37.6634 11.1885 37.7098C11.2349 37.7562 11.2716 37.8113 11.2965 37.872C11.3215 37.9327 11.3341 37.9978 11.3338 38.0634Z" fill="white"/>
<path fill-rule="evenodd" clip-rule="evenodd" d="M10.8346 39.0901C10.6318 39.0901 10.4335 39.03 10.2649 38.9173C10.0962 38.8046 9.96477 38.6444 9.88715 38.4571C9.80953 38.2697 9.78922 38.0635 9.82879 37.8645C9.86836 37.6656 9.96603 37.4829 10.1095 37.3394C10.2529 37.196 10.4356 37.0983 10.6345 37.0588C10.8335 37.0192 11.0397 37.0395 11.2271 37.1171C11.4145 37.1947 11.5746 37.3262 11.6873 37.4948C11.8 37.6635 11.8602 37.8618 11.8602 38.0646C11.8605 38.1994 11.8342 38.3329 11.7828 38.4575C11.7314 38.5821 11.6559 38.6953 11.5606 38.7906C11.4653 38.8859 11.3521 38.9614 11.2275 39.0128C11.1029 39.0642 10.9694 39.0905 10.8346 39.0901ZM10.8346 38.0369L10.8069 38.0646L10.8346 38.0923V38.0369Z" fill="white"/>
<path fill-rule="evenodd" clip-rule="evenodd" d="M8.50661 24.1786C8.50661 24.2773 8.47735 24.3737 8.42253 24.4558C8.36771 24.5378 8.28979 24.6018 8.19863 24.6395C8.10746 24.6773 8.00715 24.6872 7.91037 24.6679C7.81359 24.6487 7.72469 24.6012 7.65492 24.5314C7.58514 24.4616 7.53763 24.3727 7.51838 24.2759C7.49913 24.1792 7.50901 24.0788 7.54677 23.9877C7.58453 23.8965 7.64848 23.8186 7.73052 23.7638C7.81257 23.709 7.90902 23.6797 8.0077 23.6797C8.07332 23.6793 8.13836 23.692 8.19906 23.7169C8.25976 23.7419 8.3149 23.7786 8.3613 23.825C8.4077 23.8714 8.44444 23.9266 8.46938 23.9872C8.49432 24.0479 8.50698 24.113 8.50661 24.1786Z" fill="white"/>
<path fill-rule="evenodd" clip-rule="evenodd" d="M8.00796 25.1761C7.80513 25.1761 7.60685 25.1159 7.4382 25.0032C7.26955 24.8906 7.13811 24.7304 7.06049 24.543C6.98287 24.3556 6.96256 24.1494 7.00213 23.9505C7.0417 23.7515 7.13937 23.5688 7.2828 23.4254C7.42622 23.2819 7.60895 23.1843 7.80789 23.1447C8.00682 23.1051 8.21302 23.1254 8.40042 23.2031C8.58781 23.2807 8.74798 23.4121 8.86067 23.5808C8.97335 23.7494 9.0335 23.9477 9.0335 24.1505C9.03387 24.2853 9.00759 24.4188 8.95618 24.5434C8.90477 24.668 8.82924 24.7812 8.73394 24.8765C8.63864 24.9718 8.52544 25.0473 8.40085 25.0988C8.27626 25.1502 8.14274 25.1764 8.00796 25.1761ZM8.00796 24.1505L7.98024 24.1783L8.00796 24.206V24.1505Z" fill="white"/>
<path fill-rule="evenodd" clip-rule="evenodd" d="M35.3069 21.0185C35.3069 21.1171 35.2776 21.2136 35.2228 21.2956C35.168 21.3777 35.0901 21.4416 34.9989 21.4794C34.9078 21.5171 34.8074 21.527 34.7107 21.5078C34.6139 21.4885 34.525 21.441 34.4552 21.3712C34.3854 21.3015 34.3379 21.2126 34.3187 21.1158C34.2994 21.019 34.3093 20.9187 34.3471 20.8275C34.3848 20.7364 34.4488 20.6584 34.5308 20.6036C34.6129 20.5488 34.7093 20.5195 34.808 20.5195C34.8736 20.5192 34.9387 20.5318 34.9994 20.5568C35.06 20.5817 35.1152 20.6184 35.1616 20.6648C35.208 20.7112 35.2447 20.7664 35.2697 20.8271C35.2946 20.8878 35.3073 20.9528 35.3069 21.0185Z" fill="white"/>
<path fill-rule="evenodd" clip-rule="evenodd" d="M34.8078 22.0433C34.6049 22.0433 34.4067 21.9831 34.238 21.8704C34.0694 21.7577 33.9379 21.5976 33.8603 21.4102C33.7827 21.2228 33.7624 21.0166 33.8019 20.8177C33.8415 20.6187 33.9392 20.436 34.0826 20.2926C34.226 20.1491 34.4088 20.0515 34.6077 20.0119C34.8066 19.9723 35.0128 19.9926 35.2002 20.0703C35.3876 20.1479 35.5478 20.2793 35.6605 20.448C35.7732 20.6166 35.8333 20.8149 35.8333 21.0177C35.829 21.2884 35.7196 21.5467 35.5282 21.7382C35.3368 21.9296 35.0784 22.039 34.8078 22.0433ZM34.8078 20.99L34.78 21.0177L34.8078 21.0454V20.99Z" fill="white"/>
<path fill-rule="evenodd" clip-rule="evenodd" d="M8.50661 8.62782C8.50661 8.7265 8.47735 8.82296 8.42253 8.905C8.36771 8.98705 8.28979 9.051 8.19863 9.08876C8.10746 9.12652 8.00715 9.1364 7.91037 9.11715C7.81359 9.0979 7.72469 9.05038 7.65492 8.98061C7.58514 8.91083 7.53763 8.82194 7.51838 8.72516C7.49913 8.62838 7.50901 8.52806 7.54677 8.4369C7.58453 8.34574 7.64848 8.26782 7.73052 8.213C7.81257 8.15817 7.90902 8.12891 8.0077 8.12891C8.07332 8.12855 8.13836 8.1412 8.19906 8.16614C8.25976 8.19108 8.3149 8.22782 8.3613 8.27422C8.4077 8.32062 8.44444 8.37577 8.46938 8.43647C8.49432 8.49716 8.50698 8.5622 8.50661 8.62782Z" fill="white"/>
<path fill-rule="evenodd" clip-rule="evenodd" d="M8.00796 9.65459C7.80513 9.65459 7.60685 9.59445 7.4382 9.48176C7.26955 9.36907 7.13811 9.2089 7.06049 9.02151C6.98287 8.83412 6.96256 8.62792 7.00213 8.42898C7.0417 8.23005 7.13937 8.04731 7.2828 7.90389C7.42622 7.76047 7.60895 7.66279 7.80789 7.62322C8.00682 7.58365 8.21302 7.60396 8.40042 7.68158C8.58781 7.7592 8.74798 7.89065 8.86067 8.0593C8.97335 8.22794 9.0335 8.42622 9.0335 8.62905C9.02921 8.89971 8.91979 9.15807 8.72839 9.34948C8.53698 9.54088 8.27861 9.65031 8.00796 9.65459ZM8.00796 8.60134L7.98024 8.62905L8.00796 8.65677V8.60134Z" fill="white"/>
<path fill-rule="evenodd" clip-rule="evenodd" d="M27.6852 36.6504H27.6297L14.7147 32.0771L0.801894 24.2885L0.71875 24.1776L0.774179 24.039L11.2226 14.4489L24.886 6.9375H25.0246L25.1077 7.04837L28.1563 20.519L27.8237 36.5395L27.7406 36.6781L27.6852 36.6504ZM1.16219 24.0945L14.8255 31.7722L27.5189 36.2624L27.8515 20.519L24.8306 7.29782L11.3889 14.6983L1.16219 24.0945Z" fill="white"/>
<path fill-rule="evenodd" clip-rule="evenodd" d="M24.775 30.0255L24.7196 29.9978L7.95215 24.1772L8.00758 24.1217L21.4492 12.4805L24.775 30.0255ZM8.09072 24.1494L24.6641 29.9146L21.3938 12.6468L8.09072 24.1494Z" fill="white"/>
<path fill-rule="evenodd" clip-rule="evenodd" d="M14.6593 32.2436L11.1118 14.3105L28.3504 20.4638L14.6593 32.2436ZM11.5553 14.8095L14.8533 31.6338L27.7129 20.6024L11.5553 14.8095Z" fill="white"/>
<path d="M8.14641 8.5441L7.85645 8.70703L11.1826 14.6274L11.4725 14.4645L8.14641 8.5441Z" fill="white"/>
<path d="M36.3069 -1.48104L32.3857 4.61914L32.6651 4.79876L36.5863 -1.30142L36.3069 -1.48104Z" fill="white"/>
<path fill-rule="evenodd" clip-rule="evenodd" d="M42.5127 17.0554L45.2567 17.0277L45.2844 21.6565L50.5784 21.6288L50.5507 17H53.267L53.3501 29.3619L50.6061 29.3896L50.5784 24.0402L45.2844 24.0679L45.3121 29.4173H42.5958L42.5127 17.0554Z" fill="white"/>
<path fill-rule="evenodd" clip-rule="evenodd" d="M58.6979 24.0667L54.0142 16.9988L57.3954 16.9711L60.056 21.5999L62.7997 16.9434H66.0423L61.414 24.039L61.4417 29.333H58.7257L58.6979 24.0667Z" fill="white"/>
<path fill-rule="evenodd" clip-rule="evenodd" d="M66.7627 16.9165L71.3638 16.8887C71.9774 16.8865 72.5899 16.9422 73.1931 17.055C73.726 17.1466 74.2351 17.3446 74.6898 17.6371C75.1205 17.9252 75.4729 18.3156 75.7154 18.7735C75.9919 19.3425 76.1251 19.9706 76.1034 20.6028C76.1212 21.2291 76.0079 21.8522 75.7708 22.4322C75.5669 22.8978 75.2414 23.2999 74.8284 23.5963C74.3948 23.902 73.905 24.1187 73.3871 24.2338C72.7875 24.3727 72.1732 24.4378 71.5578 24.4278H69.5621L69.5899 29.2506L66.8736 29.2783L66.7627 16.9165ZM69.5344 22.155H71.3638C71.6064 22.1547 71.8481 22.1268 72.0844 22.0719C72.2984 22.0177 72.5036 21.9337 72.6942 21.8224C72.8747 21.7113 73.0265 21.5594 73.1377 21.3789C73.2541 21.157 73.3114 20.9088 73.304 20.6583C73.311 20.3917 73.2334 20.1296 73.0822 19.9099C72.9368 19.7187 72.7464 19.5663 72.5279 19.4664C72.2924 19.3566 72.0387 19.2908 71.7795 19.2724C71.5023 19.2447 71.2252 19.2447 70.9757 19.2447H69.5899L69.5344 22.155Z" fill="white"/>
<path fill-rule="evenodd" clip-rule="evenodd" d="M77.7104 16.8597L86.1365 16.832V19.3543L80.4545 19.382L80.4822 21.6826L85.8316 21.6548L85.8593 24.1771L80.4822 24.2048L80.5099 26.6994L86.4968 26.6717V29.1939L77.7936 29.2494L77.7104 16.8597Z" fill="white"/>
<path fill-rule="evenodd" clip-rule="evenodd" d="M88.4634 16.8051L93.2585 16.7774C93.8629 16.7752 94.4662 16.8309 95.0601 16.9437C95.5918 17.0546 96.099 17.2612 96.5568 17.5535C96.9875 17.8416 97.3399 18.232 97.5824 18.6899C97.8555 19.2502 97.9887 19.8684 97.9704 20.4915C97.9924 21.2915 97.7595 22.0778 97.3052 22.7366C96.8184 23.3714 96.1017 23.7895 95.3095 23.9007L98.497 29.1116L95.2264 29.1393L92.621 24.2056H91.2628L91.2905 29.1393L88.5742 29.167L88.4634 16.8051ZM91.2074 21.9051H92.815C93.074 21.9092 93.333 21.9 93.5911 21.8774C93.8467 21.8545 94.0982 21.7986 94.3394 21.7111C94.5616 21.6311 94.7547 21.4862 94.8938 21.2953C95.0489 21.067 95.1266 20.795 95.1155 20.5192C95.1312 20.2556 95.0633 19.9937 94.9215 19.7709C94.7971 19.5886 94.6243 19.4446 94.4226 19.3551C94.2081 19.2416 93.9719 19.1755 93.7297 19.1611C93.4814 19.1288 93.2316 19.1103 92.9813 19.1057H91.2074V21.9051Z" fill="white"/>
<path fill-rule="evenodd" clip-rule="evenodd" d="M99.7158 16.75H102.432L102.488 26.5896L107.532 26.5619L107.56 29.0842L99.7712 29.1119L99.7158 16.75Z" fill="white"/>
<path fill-rule="evenodd" clip-rule="evenodd" d="M108.917 16.6937L117.343 16.666V19.1883L111.661 19.216L111.689 21.5165L117.038 21.4888L117.066 24.0111L111.689 24.0388L111.716 26.5334L117.703 26.5056V29.0279L109 29.0833L108.917 16.6937Z" fill="white"/>
<path fill-rule="evenodd" clip-rule="evenodd" d="M119.67 16.639L123.772 16.6113C124.723 16.6108 125.671 16.713 126.599 16.9162C127.434 17.1189 128.224 17.4762 128.927 17.9695C129.597 18.4738 130.138 19.1291 130.507 19.882C130.914 20.788 131.122 21.7711 131.117 22.7646C131.148 23.6399 130.977 24.5106 130.617 25.3088C130.256 26.107 129.716 26.8109 129.038 27.3656C128.379 27.8968 127.627 28.3009 126.821 28.5575C125.971 28.8368 125.082 28.9772 124.188 28.9732L119.726 29.0009L119.67 16.639ZM122.442 26.4787H123.855C124.443 26.4751 125.028 26.4101 125.601 26.2847C126.111 26.1694 126.591 25.9526 127.015 25.6472C127.408 25.3304 127.729 24.9335 127.957 24.483C128.195 23.9226 128.308 23.3175 128.29 22.7091C128.309 22.1602 128.184 21.6157 127.929 21.1292C127.712 20.6955 127.399 20.3165 127.015 20.0206C126.605 19.7263 126.145 19.5102 125.657 19.3831C125.124 19.2377 124.574 19.1631 124.022 19.1613H122.414L122.442 26.4787Z" fill="white"/>
<path fill-rule="evenodd" clip-rule="evenodd" d="M144.032 28.003C143.235 28.4178 142.387 28.7254 141.51 28.9177C140.634 29.1027 139.743 29.2048 138.849 29.2226C137.934 29.2355 137.023 29.0853 136.161 28.7791C135.369 28.4934 134.643 28.0503 134.027 27.4764C133.418 26.8986 132.936 26.2 132.613 25.4253C131.929 23.7017 131.909 21.7855 132.558 20.0481C132.861 19.2696 133.334 18.5688 133.943 17.9971C134.545 17.4179 135.263 16.9738 136.05 16.6943C136.901 16.3763 137.802 16.2167 138.71 16.2232C139.636 16.2142 140.558 16.326 141.454 16.5558C142.271 16.7825 143.021 17.2005 143.644 17.7753L141.731 19.8818C141.369 19.5123 140.935 19.22 140.456 19.0226C139.379 18.6417 138.202 18.6515 137.131 19.0503C136.668 19.2351 136.252 19.5189 135.911 19.8818C135.574 20.2534 135.31 20.6862 135.135 21.1568C134.958 21.6651 134.865 22.1986 134.858 22.7367C134.848 23.2853 134.942 23.8307 135.135 24.3443C135.317 24.8033 135.58 25.2258 135.911 25.5916C136.252 25.9545 136.668 26.2383 137.131 26.4231C137.63 26.6315 138.17 26.7262 138.71 26.7003C139.227 26.7069 139.741 26.6321 140.235 26.4785C140.588 26.3695 140.931 26.2304 141.26 26.0628V24.0671H139.043V21.5449L143.893 21.5172L144.032 28.003Z" fill="white"/>
<path fill-rule="evenodd" clip-rule="evenodd" d="M146.276 16.5004L154.702 16.4727V18.9672L149.02 19.0226L149.048 21.3232L154.398 21.2955L154.425 23.8177L149.048 23.8454L149.076 26.34L155.063 26.3123V28.8346L146.36 28.89L146.276 16.5004Z" fill="white"/>
<path fill-rule="evenodd" clip-rule="evenodd" d="M157.03 16.4458L161.825 16.418C162.429 16.4158 163.033 16.4715 163.626 16.5843C164.158 16.6952 164.665 16.9018 165.123 17.1941C165.554 17.4822 165.906 17.8727 166.149 18.3305C166.422 18.8908 166.555 19.5091 166.537 20.1321C166.559 20.9321 166.326 21.7184 165.872 22.3772C165.385 23.0121 164.668 23.4302 163.876 23.5414L167.063 28.7522L163.793 28.7799L161.187 23.8463H159.829L159.857 28.7799H157.141L157.03 16.4458ZM159.774 21.5457H161.381C161.64 21.5498 161.899 21.5406 162.157 21.518C162.413 21.4952 162.665 21.4393 162.906 21.3517C163.128 21.2717 163.321 21.1269 163.46 20.9359C163.615 20.7077 163.693 20.4356 163.682 20.1599C163.698 19.8962 163.63 19.6343 163.488 19.4115C163.364 19.2292 163.191 19.0852 162.989 18.9957C162.775 18.8823 162.538 18.8161 162.296 18.8017C162.048 18.7695 161.798 18.751 161.548 18.7463H159.774V21.5457Z" fill="white"/>
</g>
<defs>
<clipPath id="clip0_2476_27468">
<rect width="166.344" height="46" fill="white" transform="translate(0.71875)"/>
</clipPath>
</defs>
</svg>
