<svg width="123" height="46" viewBox="0 0 123 46" fill="none" xmlns="http://www.w3.org/2000/svg">
<g clip-path="url(#clip0_2476_27964)">
<path fill-rule="evenodd" clip-rule="evenodd" d="M46.3594 23.2306C46.3594 19.4893 45.2925 17.5667 43.1586 17.4629C42.3109 17.4222 41.4642 17.5614 40.6742 17.8714C40.0305 18.1017 39.5972 18.3296 39.3693 18.56V27.4904C40.7357 28.3467 41.9471 28.7441 43.0034 28.6826C45.2395 28.5349 46.3581 26.7176 46.3594 23.2306ZM48.9917 23.3858C48.9917 25.2871 48.5442 26.8649 47.6492 28.1194C46.6498 29.5395 45.2648 30.2702 43.4944 30.3115C42.1605 30.3542 40.7855 29.9368 39.3693 29.0593V37.1758L37.0801 36.3593V18.3418C37.4554 17.8812 37.939 17.4854 38.5251 17.1496C39.8876 16.3558 41.543 15.9492 43.4914 15.9296L43.5241 15.9618C45.305 15.94 46.6775 16.6706 47.6414 18.1535C48.541 19.5137 48.9911 21.2585 48.9917 23.3878V23.3858ZM62.9818 28.7133C62.9818 31.2633 62.7264 33.0291 62.2156 34.0106C61.7048 34.9921 60.7272 35.7752 59.2827 36.3598C58.1115 36.8205 56.8476 37.0718 55.4909 37.1138L55.1132 35.6713C56.4933 35.4835 57.4652 35.2957 58.029 35.1076C59.1384 34.7319 59.9013 34.1575 60.3178 33.3845C60.6535 32.7559 60.8206 31.5546 60.8189 29.7806V29.1847C59.2745 29.8907 57.5955 30.2538 55.8974 30.2491C54.7708 30.2491 53.7785 29.8943 52.9206 29.1847C51.9586 28.4108 51.4778 27.4291 51.4781 26.2397V16.7119L53.7673 15.9277V25.5174C53.7673 26.5419 54.0978 27.3308 54.7589 27.8842C55.42 28.4376 56.2756 28.7039 57.3258 28.6831C58.3757 28.6606 59.4981 28.2531 60.693 27.4606V16.2732H62.9822V28.7133H62.9818ZM71.9181 30.1861C71.6672 30.2071 71.4154 30.2178 71.1641 30.2183C69.8689 30.2183 68.8604 29.9093 68.1385 29.2911C67.4166 28.673 67.0567 27.819 67.059 26.7291V17.7133H65.4911V16.2732H67.059V12.4507L69.3458 11.6367V16.2751H71.9181V17.7152H69.3458V26.6671C69.3458 27.526 69.5761 28.1339 70.0368 28.4908C70.4326 28.7836 71.0616 28.9515 71.9176 28.9939V30.1861H71.9181ZM85.7773 29.9982H83.4881V21.162C83.4881 20.2631 83.2787 19.4901 82.86 18.843C82.3766 18.1113 81.7044 17.7457 80.8436 17.746C79.7941 17.746 78.4817 18.299 76.9064 19.4052V29.9982H74.6177V8.87752L76.9069 8.15625V17.7757C78.3709 16.7112 79.9698 16.1787 81.7035 16.178C82.9157 16.178 83.8974 16.5855 84.6486 17.4005C85.3998 18.2154 85.7763 19.2289 85.7783 20.4407V29.9982H85.7773ZM97.9442 22.8705C97.9442 21.4328 97.672 20.2454 97.1277 19.3081C96.4816 18.1632 95.479 17.5596 94.1197 17.4971C91.6104 17.6425 90.3564 19.4392 90.3577 22.8871C90.3577 24.4672 90.6199 25.7871 91.1444 26.8467C91.8155 28.1965 92.8224 28.861 94.1651 28.8402C96.6848 28.8197 97.9445 26.8303 97.9442 22.8719V22.8705ZM100.452 22.8851C100.452 24.9315 99.9289 26.6346 98.8836 27.9945C97.7338 29.5177 96.1459 30.2798 94.1197 30.2808C92.1117 30.2808 90.5439 29.5187 89.4163 27.9945C88.3919 26.6343 87.8801 24.9312 87.8811 22.8851C87.8811 20.9621 88.4342 19.3426 89.5403 18.0266C90.7095 16.6276 92.2456 15.9282 94.1485 15.9282C96.0514 15.9282 97.5983 16.6276 98.7894 18.0266C99.8955 19.3439 100.449 20.9634 100.449 22.8851H100.452ZM113.576 29.9982H111.287V20.6613C111.287 19.6368 110.979 18.837 110.363 18.2618C109.747 17.6866 108.926 17.4101 107.901 17.4322C106.814 17.452 105.78 17.8068 104.798 18.4965V29.9982H102.508V18.2145C103.826 17.2554 105.038 16.6293 106.145 16.3361C107.189 16.0633 108.111 15.9277 108.905 15.9277C109.421 15.9249 109.935 15.9778 110.44 16.0853C111.339 16.2932 112.071 16.6799 112.636 17.2453C113.263 17.8716 113.576 18.6237 113.576 19.5018V29.9982Z" fill="white"/>
<path fill-rule="evenodd" clip-rule="evenodd" d="M18.0604 9.2424C16.8739 9.04823 15.6733 8.9542 14.4711 8.96131C13.3678 8.96242 12.2666 9.05645 11.179 9.2424C8.26518 9.75773 7.73423 10.8357 7.73423 12.8238V15.4498H14.6238V16.3248H5.1488C3.14799 16.3248 1.39118 17.5282 0.844621 19.8179C0.210218 22.4419 0.183866 24.0796 0.844621 26.8197C1.33262 28.8596 2.50383 30.3129 4.50464 30.3129H6.8734V27.1653C6.8734 24.8912 8.84102 22.8855 11.1776 22.8855H18.0584C19.9738 22.8855 21.5032 21.3083 21.5032 19.3845V12.8234C21.5052 10.9568 19.9284 9.55375 18.0604 9.2424ZM10.7452 13.6988C10.5744 13.6978 10.4054 13.6631 10.248 13.5968C10.0906 13.5305 9.94775 13.4338 9.8277 13.3122C9.70765 13.1907 9.61273 13.0467 9.54835 12.8885C9.48397 12.7302 9.4514 12.5608 9.45249 12.39C9.45249 11.6639 10.0313 11.0724 10.7452 11.0724C11.4592 11.0724 12.0379 11.6634 12.0379 12.39C12.0397 12.7349 11.9046 13.0664 11.6623 13.3118C11.4199 13.5572 11.0901 13.6964 10.7452 13.6988Z" fill="white"/>
<path fill-rule="evenodd" clip-rule="evenodd" d="M28.3939 19.8222C27.8991 17.8278 26.9553 16.3281 24.9496 16.3281H22.3632V19.3869C22.3632 21.7591 20.3522 23.7555 18.059 23.7555H11.1782C9.29305 23.7555 7.7334 25.3659 7.7334 27.2564V33.8167C7.7334 35.6837 9.35698 36.7817 11.1782 37.3176C13.3591 37.9588 15.4502 38.0745 18.059 37.3176C19.7934 36.8154 21.5038 35.8048 21.5038 33.8167V31.1927H14.623V30.3143H24.9496C26.9504 30.3143 27.6976 28.9176 28.3939 26.8211C29.1137 24.6652 29.083 22.5892 28.3939 19.8222ZM18.4934 32.9412C18.6642 32.9421 18.8332 32.9768 18.9906 33.0431C19.1481 33.1094 19.2909 33.2061 19.411 33.3276C19.5311 33.4492 19.626 33.5932 19.6903 33.7515C19.7547 33.9097 19.7872 34.0792 19.7861 34.25C19.7861 34.9761 19.2078 35.5676 18.4934 35.5676C17.7789 35.5676 17.2006 34.9766 17.2006 34.25C17.1988 33.9051 17.3339 33.5736 17.5763 33.3282C17.8186 33.0828 18.1485 32.9436 18.4934 32.9412Z" fill="white"/>
<path fill-rule="evenodd" clip-rule="evenodd" d="M118.033 14.2352H118.434V11.7181H119.383V11.418H117.08V11.7181H118.031V14.2352M119.739 14.2352H120.081V11.9362L120.825 14.2347H121.207L121.983 11.944V14.2376H122.36V11.4185H121.865L121.017 13.8316L120.295 11.4185H119.742V14.2352" fill="white"/>
</g>
<defs>
<clipPath id="clip0_2476_27964">
<rect width="122" height="46" fill="white" transform="translate(0.359375)"/>
</clipPath>
</defs>
</svg>
