<svg width="129" height="46" viewBox="0 0 129 46" fill="none" xmlns="http://www.w3.org/2000/svg">
<g clip-path="url(#clip0_2476_27536)">
<path fill-rule="evenodd" clip-rule="evenodd" d="M17.2767 11.2694H4.46276V20.4046H13.5118C14.3878 20.4046 14.5532 20.5747 14.5532 21.4461C14.5532 22.0937 14.5532 22.7414 14.5532 23.3891C14.5532 23.9599 14.3528 24.1766 13.796 24.1789C9.72659 24.196 5.65485 24.2077 1.58078 24.2139C0.928433 24.2139 0.71875 24.0065 0.71875 23.3518V8.42473C0.71875 7.63492 0.886497 7.46484 1.67397 7.46484L20.0259 7.48115C20.7994 7.48115 20.9881 7.66754 20.9881 8.44337C20.9881 16.986 20.9881 25.5225 20.9881 34.0527V34.7516H32.8702V25.5838C32.6791 25.5838 32.4648 25.5489 32.2505 25.5489L23.7676 25.5675C22.9825 25.5675 22.8194 25.4021 22.8194 24.6123C22.8194 23.9296 22.8194 23.2493 22.8194 22.5667C22.8061 22.4816 22.8111 22.3947 22.8341 22.3117C22.857 22.2288 22.8974 22.1516 22.9525 22.0855C23.0076 22.0194 23.0762 21.9657 23.1537 21.9282C23.2312 21.8906 23.3158 21.87 23.4018 21.8678C23.5559 21.8421 23.7116 21.8273 23.8678 21.8235C27.7508 21.8235 31.6338 21.8235 35.5169 21.8235C36.4488 21.8235 36.6002 21.9516 36.6026 22.8719C36.6134 27.8142 36.6196 32.7558 36.6212 37.6965C36.6212 38.3162 36.3882 38.505 35.6613 38.505H20.2845C19.553 38.505 18.8214 38.5352 18.0898 38.5306C17.5027 38.5306 17.2907 38.3139 17.2907 37.7245C17.2907 34.5722 17.2907 31.4223 17.2907 28.2701C17.2907 27.3521 17.2558 26.4319 17.2558 25.5116C17.2558 22.7018 17.2558 19.8921 17.2558 17.0823C17.2558 15.3443 17.2814 13.6062 17.2954 11.8682L17.2767 11.2694Z" fill="white"/>
<path fill-rule="evenodd" clip-rule="evenodd" d="M114.341 30.0308H112.303V16.2313C113.701 15.5766 113.701 16.9745 114.211 17.5709C117.153 15.1479 119.336 15.1852 121.571 18.1091C121.769 17.6874 121.86 17.2704 122.109 17.0001C123.302 15.7117 124.812 15.6255 126.391 16.0333C127.871 16.4153 128.625 17.5523 128.663 18.9432C128.763 22.6173 128.698 26.2961 128.698 30.0331H126.617V28.8216C126.617 25.9093 126.617 22.9978 126.617 20.0871C126.617 18.0625 125.762 17.3496 123.772 17.6991C122.142 17.9856 121.561 18.6776 121.561 20.3364V30.0308H119.43V28.7936C119.43 25.8845 119.43 22.9738 119.43 20.0615C119.43 19.0364 119.283 18.0975 118.13 17.7317C117.084 17.3985 114.91 17.9647 114.481 18.7428C114.327 19.0201 114.344 19.4138 114.344 19.754C114.344 22.7431 114.344 25.7323 114.344 28.7191L114.341 30.0308Z" fill="white"/>
<path fill-rule="evenodd" clip-rule="evenodd" d="M53.9921 29.7051L57.1676 33.1998C56.3685 33.3816 55.7208 33.5749 55.0568 33.6658C54.7722 33.6698 54.4966 33.5657 54.2856 33.3746C54.0383 33.1272 53.8301 32.8436 53.6682 32.5335C52.9134 31.2731 52.0374 30.418 50.3762 30.234C48.4797 30.022 47.189 28.6357 46.511 26.879C45.1132 23.2632 45.0712 19.5821 46.553 15.9895C47.5268 13.6271 49.4396 12.3993 52.0211 12.3294C54.6374 12.2595 56.6807 13.3382 57.7594 15.7332C59.4415 19.4935 59.3786 23.3587 57.8037 27.1493C57.0535 28.9433 56.2357 29.3929 53.9921 29.7051ZM56.5386 21.4879C56.5673 19.9541 56.3758 18.4241 55.9701 16.9447C55.4785 15.1345 54.1062 14.2608 52.2144 14.2561C50.3809 14.2561 49.0342 15.0902 48.5217 16.8632C47.5973 19.9701 47.6404 23.2847 48.6452 26.3665C49.1717 28.009 50.509 28.8175 52.2284 28.8175C53.9478 28.8175 55.2805 28.0113 55.7674 26.3362C56.238 24.7614 56.4973 23.131 56.5386 21.4879Z" fill="white"/>
<path fill-rule="evenodd" clip-rule="evenodd" d="M74.8813 23.2137C74.8935 21.8153 75.1416 20.429 75.6152 19.1132C76.3724 16.9814 78.157 15.8351 80.3447 15.8282C82.5324 15.8212 84.3287 16.9768 85.1208 19.0759C86.6305 23.0739 86.0877 30.4268 80.4798 30.5293C78.1733 30.5642 76.4865 29.5018 75.6548 27.391C75.1316 26.061 74.869 24.6428 74.8813 23.2137ZM83.5948 23.23C83.6075 22.002 83.4507 20.7782 83.1288 19.5931C82.7584 18.2139 81.8847 17.6501 80.4752 17.6081C79.0004 17.5662 78.0335 18.1044 77.6048 19.472C76.8187 21.8847 76.8441 24.4885 77.6771 26.8855C78.143 28.2274 79.1076 28.8402 80.4076 28.8145C81.7076 28.7889 82.6675 28.1156 83.0263 26.8994C83.3813 25.7077 83.5726 24.4732 83.5948 23.23Z" fill="white"/>
<path fill-rule="evenodd" clip-rule="evenodd" d="M62.1281 16.1465H64.2133V17.3976C64.2133 20.2703 64.1993 23.1429 64.2133 26.0179C64.2133 27.078 64.2738 28.1683 65.5273 28.6087C66.5897 28.9814 68.7401 28.4898 69.3295 27.6907C69.5089 27.4577 69.5276 27.0477 69.5299 26.7192C69.5439 23.6531 69.5299 20.5871 69.5299 17.5187V16.1698H71.5825V29.9763C70.2754 30.5401 70.1287 29.3822 69.5718 28.5784C68.81 29.8877 67.6591 30.3723 66.2588 30.4189C63.717 30.5051 62.2189 29.3006 62.1421 26.7565C62.0489 23.2711 62.1281 19.7787 62.1281 16.1465Z" fill="white"/>
<path fill-rule="evenodd" clip-rule="evenodd" d="M98.7224 16.1309H100.693C100.712 16.5782 100.749 16.9906 100.749 17.4006C100.749 20.3113 100.749 23.2205 100.749 26.1281C100.749 27.1718 100.831 28.1853 102.026 28.6024C103.142 28.9914 105.4 28.4393 105.903 27.6075C106.082 27.3093 106.064 26.869 106.066 26.4915C106.078 23.083 106.066 19.6745 106.066 16.1751H108.123V29.9536C106.814 30.5501 106.62 29.4434 106.087 28.5371C105.19 30.168 103.757 30.4615 102.196 30.401C100.265 30.3427 98.8505 29.3409 98.7667 27.4514C98.6082 23.7214 98.7224 19.9681 98.7224 16.1309Z" fill="white"/>
<path fill-rule="evenodd" clip-rule="evenodd" d="M89.063 16.235C90.5494 15.5919 90.4818 17.0038 91.1016 17.7563C92.3737 15.9601 94.0208 15.3729 96.1759 16.2117C96.0454 16.8687 95.9313 17.4605 95.8707 17.7657C94.4728 17.9823 93.2473 18.1105 92.0498 18.39C91.3509 18.5555 91.1016 19.1379 91.1179 19.9137C91.1645 22.8214 91.1365 25.7383 91.1365 28.6412V30.0018H89.0676L89.063 16.235Z" fill="white"/>
</g>
<defs>
<clipPath id="clip0_2476_27536">
<rect width="128" height="46" fill="white" transform="translate(0.71875)"/>
</clipPath>
</defs>
</svg>
