<svg width="150" height="46" viewBox="0 0 150 46" fill="none" xmlns="http://www.w3.org/2000/svg">
<g clip-path="url(#clip0_2476_27440)">
<path fill-rule="evenodd" clip-rule="evenodd" d="M46.0122 19.8672C43.1746 19.8672 41.1484 22.407 41.1484 25.1295C41.1484 27.8519 43.167 30.3917 46.0122 30.3917C47.6712 30.3917 49.3617 29.6649 50.2087 28.1813C50.2611 28.094 50.28 27.9906 50.2618 27.8903C50.2508 27.8237 50.2233 27.7609 50.1819 27.7075C50.1405 27.6542 50.0865 27.6119 50.0247 27.5847C49.7953 27.4853 49.6121 27.5924 49.4897 27.7602C48.6406 28.9689 47.5243 29.5425 46.0101 29.5425C43.7999 29.5425 42.2332 27.6378 42.0178 25.5498H50.4703C50.5855 25.5488 50.6958 25.5025 50.7774 25.421C50.859 25.3396 50.9054 25.2294 50.9067 25.1141C50.9067 22.3924 48.849 19.8602 46.0122 19.8672ZM42.0199 24.6937C42.2339 22.6057 43.802 20.701 46.0122 20.701C48.2223 20.701 49.8177 22.6064 50.0037 24.6937H42.0199Z" fill="white"/>
<path fill-rule="evenodd" clip-rule="evenodd" d="M61.1546 20.0781C61.2652 20.0806 61.3705 20.1256 61.4486 20.2038C61.5268 20.2819 61.5718 20.3872 61.5743 20.4978C61.5756 20.5532 61.5656 20.6084 61.5449 20.6598C61.5243 20.7113 61.4934 20.7581 61.4542 20.7973C61.4149 20.8365 61.3682 20.8674 61.3167 20.888C61.2652 20.9087 61.2101 20.9187 61.1546 20.9175H58.8911V29.801C58.8911 29.9123 58.8469 30.019 58.7682 30.0977C58.6894 30.1764 58.5827 30.2207 58.4714 30.2207C58.3601 30.2207 58.2533 30.1764 58.1746 30.0977C58.0959 30.019 58.0517 29.9123 58.0517 29.801V20.9175H55.87C55.8145 20.9187 55.7594 20.9087 55.7079 20.888C55.6564 20.8674 55.6097 20.8365 55.5705 20.7973C55.5312 20.7581 55.5004 20.7113 55.4797 20.6598C55.4591 20.6084 55.4491 20.5532 55.4503 20.4978C55.4528 20.3872 55.4978 20.2819 55.576 20.2038C55.6542 20.1256 55.7595 20.0806 55.87 20.0781H58.0496V16.8248C58.0459 16.724 58.0787 16.6252 58.1419 16.5466C58.2051 16.468 58.2945 16.4148 58.3937 16.3967C58.455 16.383 58.5186 16.3834 58.5798 16.3979C58.6409 16.4124 58.6979 16.4406 58.7465 16.4803C58.7952 16.5201 58.8341 16.5703 58.8605 16.6273C58.8869 16.6843 58.9 16.7466 58.8988 16.8094V20.0781H61.1546Z" fill="white"/>
<path fill-rule="evenodd" clip-rule="evenodd" d="M74.9737 24.3646V29.7506C74.9714 29.8612 74.9264 29.9666 74.8482 30.0448C74.77 30.1231 74.6646 30.168 74.554 30.1703C74.4985 30.1717 74.4433 30.1617 74.3918 30.1411C74.3403 30.1205 74.2935 30.0896 74.2542 30.0504C74.215 30.0112 74.1841 29.9644 74.1635 29.9128C74.1429 29.8613 74.133 29.8061 74.1343 29.7506V24.3646C74.1343 22.5522 73.1095 20.7391 71.0831 20.7391C68.4824 20.7391 67.366 23.0034 67.5157 25.3362C67.5157 25.397 67.5465 25.6649 67.5465 25.6957V29.7339C67.5502 29.8347 67.5174 29.9334 67.4542 30.012C67.391 30.0906 67.3016 30.1439 67.2024 30.1619C67.1411 30.1756 67.0775 30.1752 67.0164 30.1607C66.9552 30.1462 66.8982 30.118 66.8496 30.0783C66.801 30.0386 66.762 29.9883 66.7356 29.9313C66.7092 29.8743 66.6962 29.812 66.6973 29.7492V12.0662C66.6973 11.9549 66.7416 11.8481 66.8203 11.7694C66.899 11.6907 67.0057 11.6465 67.117 11.6465C67.2283 11.6465 67.3351 11.6907 67.4138 11.7694C67.4925 11.8481 67.5367 11.9549 67.5367 12.0662V22.0689C68.2635 20.7685 69.5652 19.8893 71.0705 19.8893C73.5481 19.8893 74.9709 22.0689 74.9709 24.366L74.9737 24.3646Z" fill="white"/>
<path fill-rule="evenodd" clip-rule="evenodd" d="M85.2207 19.8672C82.3831 19.8672 80.3569 22.407 80.3569 25.1295C80.3569 27.8519 82.3755 30.3917 85.2207 30.3917C86.8797 30.3917 88.5702 29.6649 89.4172 28.1813C89.4702 28.0942 89.4894 27.9907 89.471 27.8903C89.46 27.8237 89.4325 27.7609 89.3911 27.7075C89.3497 27.6542 89.2957 27.6119 89.2339 27.5847C89.0045 27.4853 88.8206 27.5924 88.6989 27.7602C87.8498 28.9689 86.7328 29.5425 85.2193 29.5425C83.0091 29.5425 81.4424 27.6378 81.227 25.5498H89.6774C89.7925 25.5486 89.9026 25.5023 89.9841 25.4208C90.0655 25.3394 90.1118 25.2292 90.1131 25.1141C90.104 22.3924 88.0575 19.8602 85.2207 19.8672ZM81.2214 24.6937C81.4354 22.6057 83.0035 20.701 85.2137 20.701C87.4238 20.701 89.022 22.6057 89.2052 24.6937H81.2214Z" fill="white"/>
<path fill-rule="evenodd" clip-rule="evenodd" d="M100.486 20.4644C100.486 20.7393 100.332 20.8841 100.095 20.9156C97.6177 21.2751 96.5006 23.3015 96.5006 25.6651V29.7032C96.5043 29.804 96.4715 29.9028 96.4083 29.9814C96.3451 30.06 96.2557 30.1132 96.1565 30.1313C96.0952 30.145 96.0316 30.1446 95.9705 30.1301C95.9095 30.1156 95.8525 30.0874 95.8039 30.0477C95.7553 30.0079 95.7164 29.9576 95.6901 29.9006C95.6638 29.8436 95.6508 29.7814 95.6521 29.7186V20.5022C95.6485 20.4014 95.6813 20.3026 95.7445 20.224C95.8077 20.1454 95.8971 20.0922 95.9963 20.0741C96.0576 20.0606 96.1211 20.0613 96.1821 20.0759C96.2432 20.0906 96.3001 20.1188 96.3486 20.1586C96.3971 20.1984 96.436 20.2486 96.4623 20.3056C96.4887 20.3626 96.5017 20.4247 96.5006 20.4875V22.3607C97.2001 21.1835 98.5886 20.0664 100.034 20.0664C100.244 20.0741 100.486 20.2196 100.486 20.4644Z" fill="white"/>
<path fill-rule="evenodd" clip-rule="evenodd" d="M109.462 19.8672C106.626 19.8672 104.599 22.407 104.599 25.1295C104.599 27.8519 106.618 30.3917 109.462 30.3917C111.122 30.3917 112.813 29.6649 113.659 28.1813C113.712 28.0942 113.731 27.9907 113.713 27.8903C113.702 27.8237 113.674 27.7609 113.633 27.7075C113.591 27.6542 113.537 27.6119 113.476 27.5847C113.246 27.4853 113.062 27.5924 112.94 27.7602C112.091 28.9689 110.975 29.5425 109.46 29.5425C107.251 29.5425 105.683 27.6378 105.469 25.5498H113.919C114.034 25.5486 114.144 25.5023 114.226 25.4208C114.307 25.3394 114.354 25.2292 114.355 25.1141C114.349 22.3924 112.3 19.8602 109.462 19.8672ZM105.463 24.6937C105.677 22.6057 107.245 20.701 109.455 20.701C111.666 20.701 113.264 22.6057 113.447 24.6937H105.463Z" fill="white"/>
<path fill-rule="evenodd" clip-rule="evenodd" d="M127.994 20.5727V29.801C127.991 29.9115 127.946 30.0167 127.868 30.0948C127.79 30.173 127.684 30.218 127.574 30.2207C127.518 30.2221 127.463 30.2121 127.412 30.1915C127.36 30.1709 127.313 30.14 127.274 30.1008C127.235 30.0615 127.204 30.0147 127.183 29.9632C127.163 29.9117 127.153 29.8565 127.154 29.801V28.0523C126.455 29.4443 125.219 30.439 123.644 30.439C121.135 30.439 119.743 28.2593 119.743 25.9622V20.5496C119.743 20.4383 119.787 20.3315 119.866 20.2528C119.945 20.1741 120.052 20.1299 120.163 20.1299C120.274 20.1299 120.381 20.1741 120.46 20.2528C120.538 20.3315 120.583 20.4383 120.583 20.5496V25.9643C120.583 27.7774 121.607 29.5898 123.634 29.5898C126.479 29.5898 127.144 26.9282 127.144 23.9988V20.5496C127.146 20.4842 127.162 20.42 127.191 20.3618C127.221 20.3036 127.264 20.253 127.316 20.2139C127.369 20.1748 127.43 20.1482 127.494 20.1362C127.558 20.1242 127.624 20.127 127.687 20.1446C127.777 20.175 127.854 20.2326 127.909 20.3094C127.964 20.3862 127.994 20.4782 127.994 20.5727Z" fill="white"/>
<path fill-rule="evenodd" clip-rule="evenodd" d="M149.359 24.3341V29.7495C149.357 29.8601 149.312 29.9655 149.234 30.0437C149.156 30.1219 149.05 30.1669 148.94 30.1692C148.884 30.1705 148.829 30.1606 148.778 30.14C148.726 30.1194 148.679 30.0885 148.64 30.0493C148.601 30.01 148.57 29.9632 148.549 29.9117C148.529 29.8602 148.519 29.805 148.52 29.7495V24.3341C148.52 22.5217 147.495 20.7394 145.469 20.7394C142.93 20.7394 141.958 23.4625 141.958 25.5736V29.7418C141.956 29.8524 141.911 29.9578 141.833 30.036C141.755 30.1142 141.649 30.1592 141.539 30.1615C141.483 30.1628 141.428 30.1529 141.376 30.1323C141.325 30.1117 141.278 30.0808 141.239 30.0416C141.2 30.0023 141.169 29.9555 141.148 29.904C141.128 29.8525 141.118 29.7973 141.119 29.7418V24.3264C141.119 22.514 140.094 20.7317 138.068 20.7317C135.498 20.7317 134.443 22.7602 134.535 25.4511C134.535 25.512 134.565 25.6344 134.535 25.6652V29.7341C134.538 29.8349 134.506 29.9337 134.442 30.0123C134.379 30.0909 134.29 30.1441 134.191 30.1622C134.129 30.1758 134.066 30.1752 134.005 30.1607C133.944 30.1461 133.887 30.1179 133.838 30.0782C133.79 30.0385 133.751 29.9883 133.724 29.9313C133.698 29.8744 133.685 29.8122 133.686 29.7495V20.5023C133.683 20.4023 133.716 20.3046 133.778 20.2266C133.841 20.1487 133.929 20.0956 134.028 20.077C134.089 20.0636 134.152 20.0642 134.213 20.0788C134.274 20.0935 134.331 20.1217 134.38 20.1615C134.428 20.2013 134.467 20.2515 134.494 20.3085C134.52 20.3655 134.533 20.4276 134.532 20.4904V22.0355C135.259 20.7352 136.56 19.8867 138.065 19.8867C139.786 19.8867 141.116 20.9723 141.66 22.579C142.359 21.0031 143.717 19.8867 145.468 19.8867C147.938 19.8944 149.36 22.0432 149.36 24.3376L149.359 24.3341Z" fill="white"/>
<path fill-rule="evenodd" clip-rule="evenodd" d="M14.8358 31.7727L28.9528 23.4285L14.8358 0.00195312L0.71875 23.4285L14.8358 31.7727Z" fill="white"/>
<path fill-rule="evenodd" clip-rule="evenodd" d="M14.8358 45.9982L28.964 26.1055L14.8358 34.442L0.71875 26.1055L14.8358 45.9982Z" fill="white"/>
</g>
<defs>
<clipPath id="clip0_2476_27440">
<rect width="148.641" height="46" fill="white" transform="translate(0.71875)"/>
</clipPath>
</defs>
</svg>
