<svg width="101" height="46" viewBox="0 0 101 46" fill="none" xmlns="http://www.w3.org/2000/svg">
<g clip-path="url(#clip0_2476_27991)">
<path fill-rule="evenodd" clip-rule="evenodd" d="M31.7811 16.0712C31.7811 15.7584 31.7763 15.446 31.7668 15.134C31.7584 14.4505 31.6986 13.7686 31.5878 13.0941C31.4721 12.4192 31.2565 11.7652 30.9482 11.1537C30.3229 9.92588 29.3249 8.92748 28.0973 8.30159C27.4861 7.9938 26.8326 7.77848 26.1582 7.66266C25.4833 7.55172 24.801 7.49168 24.1171 7.48304C23.8063 7.47434 23.4918 7.47061 23.1792 7.46875C22.8063 7.46875 22.4371 7.46875 22.0661 7.46875H10.4362C10.0633 7.46875 9.69473 7.46875 9.32369 7.46875C9.01293 7.46875 8.69844 7.47497 8.38581 7.48304C8.21614 7.48802 8.04522 7.49423 7.8743 7.50231C7.36151 7.52249 6.85057 7.57606 6.34474 7.66266C5.84088 7.75122 5.34805 7.89396 4.87485 8.0884C3.43797 8.68144 2.26026 9.76834 1.55407 11.1531C1.24531 11.7643 1.02994 12.4184 0.91515 13.0935C0.803875 13.7679 0.743831 14.4498 0.735531 15.1333C0.72683 15.4472 0.722479 15.7592 0.71875 16.0712C0.71875 16.4441 0.71875 16.8133 0.71875 17.1843V28.8136C0.71875 29.1865 0.71875 29.5594 0.71875 29.9274C0.721858 30.2381 0.725587 30.5526 0.733666 30.8646C0.742222 31.5481 0.802265 32.23 0.913286 32.9044C1.02817 33.5797 1.24354 34.234 1.55221 34.8454C2.17736 36.0745 3.17675 37.0732 4.40623 37.6976C5.01728 38.0057 5.67084 38.221 6.34537 38.3365C7.02001 38.4478 7.70211 38.5079 8.38581 38.5161C8.69657 38.5242 9.01106 38.5279 9.32369 38.5298C9.6966 38.5298 10.0652 38.5298 10.4362 38.5298H22.0661C22.4359 38.5298 22.8076 38.5298 23.1786 38.5298C23.4894 38.5298 23.8032 38.5242 24.1159 38.5161C24.7998 38.5076 25.482 38.4475 26.1569 38.3365C26.8317 38.2213 27.4855 38.006 28.0967 37.6976C29.3249 37.0724 30.3233 36.0738 30.9482 34.8454C31.2566 34.2342 31.4722 33.5805 31.5878 32.9057C31.6989 32.231 31.7587 31.5489 31.7668 30.8652C31.7755 30.5545 31.7792 30.2406 31.7811 29.928C31.7811 29.5551 31.7811 29.1859 31.7811 28.8142V17.1843C31.7829 16.8133 31.7829 16.4429 31.7811 16.0712ZM26.9332 32.7826C25.5385 30.0684 22.9393 30.7614 21.6236 31.4445C21.5148 31.5066 21.4029 31.5688 21.2904 31.6309C21.2774 31.6396 21.2618 31.6477 21.2494 31.6558V31.6527C18.511 33.1077 14.8341 33.2158 11.136 31.6266C8.12799 30.3231 5.584 28.1411 3.83753 25.3666C4.68725 25.9951 5.59702 26.5381 6.55358 26.9876C10.4617 28.8167 14.3847 28.6849 17.1635 26.9876C13.2113 23.944 9.9104 19.9843 7.3802 16.776C6.89902 16.2137 6.4638 15.6137 6.07873 14.9817C9.10926 17.7543 13.895 21.2373 15.6122 22.2006C11.9683 18.3497 8.755 13.6069 8.90541 13.7585C14.6464 19.5436 19.9436 22.8141 19.9436 22.8141C20.1027 22.8998 20.2575 22.9918 20.4097 23.0894C20.5207 22.8064 20.6167 22.5179 20.6975 22.2249C21.6149 18.8743 20.5831 15.0432 18.25 11.8797C23.5739 15.0768 26.7213 21.1503 25.4322 26.2871C25.4012 26.4071 25.3663 26.5227 25.3322 26.6401C28.0035 29.9267 27.2775 33.4464 26.9351 32.7826H26.9332Z" fill="white"/>
<path fill-rule="evenodd" clip-rule="evenodd" d="M43.5726 27.6274C43.8156 29.7823 45.8723 31.195 48.7263 31.195C51.438 31.195 53.3939 29.7829 53.3939 27.827C53.3939 26.1426 52.2086 25.1146 49.482 24.4297L46.8418 23.7585C43.0443 22.8187 41.3321 21.1034 41.3321 18.2773C41.3321 14.7968 44.3725 12.3828 48.6977 12.3828C52.8936 12.3828 55.8769 14.8067 55.9775 18.3065H53.1938C52.9799 16.1648 51.2378 14.8521 48.6262 14.8521C46.0419 14.8521 44.2439 16.1791 44.2439 18.1201C44.2439 19.6328 45.357 20.5328 48.0973 21.232L50.2956 21.8032C54.5493 22.8449 56.2908 24.5012 56.2908 27.4845C56.2908 31.2814 53.2783 33.6649 48.4826 33.6649C44.0294 33.6649 40.989 31.2957 40.7603 27.6268H43.5726V27.6274ZM73.9718 33.3224H71.1749L67.9051 21.9318H67.8486L64.5937 33.3224H61.7968L57.6575 18.406H60.3692L63.2524 30.3814H63.3096L66.5639 18.406H69.191L72.4739 30.3814H72.5305L75.4143 18.406H78.098L73.9718 33.3224ZM79.9036 14.3953C79.9021 14.0685 79.9977 13.7487 80.1783 13.4764C80.3589 13.2041 80.6164 12.9916 80.918 12.8659C81.2196 12.7402 81.5517 12.7069 81.8723 12.7703C82.1928 12.8337 82.4873 12.9909 82.7184 13.2219C82.9494 13.453 83.1066 13.7474 83.17 14.068C83.2334 14.3885 83.2001 14.7207 83.0744 15.0223C82.9487 15.3239 82.7362 15.5813 82.4639 15.7619C82.1916 15.9426 81.8717 16.0382 81.545 16.0367C81.3293 16.0371 81.1157 15.9948 80.9164 15.9124C80.7171 15.8301 80.5361 15.7092 80.3836 15.5567C80.2311 15.4042 80.1102 15.2231 80.0278 15.0238C79.9455 14.8245 79.9032 14.6109 79.9036 14.3953ZM80.1895 18.4066H82.9154V33.3224H80.1895V18.4066ZM100.721 20.6043V18.406H97.8387V14.8372H95.1258V18.406H89.915V17.0927C89.9287 15.7651 90.4427 15.2082 91.6708 15.2082C92.0487 15.2102 92.4259 15.2439 92.7982 15.3089V13.1665C92.3214 13.0921 91.8395 13.0539 91.3569 13.0522C88.4445 13.0522 87.217 14.266 87.217 17.0492V18.406H85.133V20.6043H87.217V33.3224H89.9287V20.6043H95.1264V29.4106C95.1264 32.2938 96.2253 33.407 99.0805 33.407C99.694 33.407 100.393 33.3641 100.708 33.2932V31.0663C100.367 31.1085 100.023 31.1323 99.6797 31.1378C98.4093 31.1378 97.8387 30.5386 97.8387 29.1962V20.6043H100.721Z" fill="white"/>
</g>
<defs>
<clipPath id="clip0_2476_27991">
<rect width="100" height="46" fill="white" transform="translate(0.71875)"/>
</clipPath>
</defs>
</svg>
