<svg width="108" height="46" viewBox="0 0 108 46" fill="none" xmlns="http://www.w3.org/2000/svg">
<g clip-path="url(#clip0_2476_28005)">
<path fill-rule="evenodd" clip-rule="evenodd" d="M1.05573 31.6723V19.7644H15.9236V19.0677H1.05573V8.20417H16.8639V7.50781H0.359375V32.3686H17.003V31.6723H1.05573ZM30.4084 14.4718L24.2452 22.5845L18.2215 14.4718H17.3163L23.8279 23.1071L16.6893 32.3686H17.5252L24.2448 23.6289L30.9999 32.3686H31.8704L24.698 23.1067L31.2439 14.4714H30.4084V14.4718ZM33.9608 38.4972V27.355H34.0306C34.4486 28.9797 35.2726 30.2854 36.5027 31.2721C37.7328 32.2588 39.2997 32.7521 41.2034 32.7521C42.4335 32.7521 43.5245 32.5026 44.4763 32.0035C45.4159 31.5147 46.2317 30.8181 46.8616 29.9667C47.4999 29.1075 47.9874 28.1089 48.3241 26.9707C48.6645 25.8059 48.8346 24.598 48.8291 23.3845C48.8291 22.038 48.6549 20.7961 48.3065 19.6587C47.9581 18.5214 47.4532 17.5349 46.7918 16.6991C46.1474 15.8772 45.3263 15.2107 44.3895 14.7491C43.4478 14.2846 42.3858 14.0525 41.2034 14.0528C40.2983 14.0528 39.4566 14.1862 38.6782 14.453C37.9265 14.7058 37.2251 15.089 36.6063 15.585C35.9991 16.0764 35.4707 16.6578 35.0394 17.309C34.5945 17.9791 34.254 18.713 34.0297 19.4854H33.9599V14.4718H33.2636V38.4972H33.9608ZM41.2026 32.0904C39.0206 32.0904 37.2681 31.3417 35.945 29.8443C34.6219 28.3468 33.9602 26.1943 33.9599 23.3866C33.954 22.2657 34.1185 21.1505 34.4479 20.079C34.7726 19.0341 35.2425 18.1172 35.8577 17.3283C36.4701 16.5411 37.249 15.8991 38.1385 15.4481C39.0436 14.9835 40.0649 14.7513 41.2026 14.7513C42.3633 14.7513 43.3788 14.9835 44.2491 15.4481C45.108 15.9018 45.8477 16.5518 46.4079 17.3454C46.9766 18.1466 47.4061 19.0635 47.6966 20.0961C47.9916 21.1679 48.1379 22.2751 48.1315 23.3866C48.1307 24.4381 47.9963 25.4853 47.7313 26.5029C47.4822 27.4956 47.0639 28.438 46.4948 29.2887C45.9394 30.1117 45.2085 30.8013 44.3548 31.308C43.4837 31.8308 42.4332 32.092 41.2034 32.0917L41.2026 32.0904ZM52.658 32.3686V22.2366C52.6569 21.2695 52.7978 20.3075 53.0761 19.3814C53.3373 18.4852 53.7754 17.6505 54.3644 16.9264C54.9448 16.2185 55.6818 15.6614 56.5755 15.255C57.4691 14.8487 58.5311 14.6804 59.7615 14.75V14.0536C58.6932 14.0308 57.7589 14.1469 56.9585 14.402C56.1582 14.6571 55.4675 15.0054 54.8866 15.4468C54.325 15.8667 53.8517 16.3932 53.4939 16.9961C53.1459 17.5873 52.8877 18.2269 52.7277 18.8939H52.658V14.4718H51.9616V32.369H52.658V32.3686ZM60.6316 23.5578H75.6039C75.6542 22.3622 75.5311 21.1657 75.2384 20.0054C74.9482 18.8678 74.484 17.858 73.8457 16.976C73.2074 16.0941 72.3834 15.3862 71.3736 14.8523C70.3638 14.3181 69.1625 14.0511 67.7698 14.0511C66.7428 14.0572 65.7284 14.2791 64.7927 14.7025C63.8569 15.1258 63.0206 15.7412 62.3381 16.5087C61.6182 17.3093 61.0378 18.2901 60.597 19.4512C60.1561 20.6122 59.9361 21.9353 59.937 23.4204C59.937 24.7432 60.0879 25.9793 60.3898 27.1286C60.6917 28.2779 61.1559 29.2766 61.7825 30.1246C62.4109 30.9738 63.2432 31.6509 64.2024 32.0934C65.1891 32.5577 66.3788 32.7781 67.7715 32.7547C69.8139 32.7547 71.5316 32.1803 72.9246 31.0315C74.3176 29.8828 75.1417 28.2635 75.3968 26.1737H74.6987C74.3968 28.1474 73.625 29.6273 72.3832 30.6134C71.1414 31.5995 69.5804 32.0928 67.7 32.0934C66.4232 32.0934 65.3438 31.8729 64.4618 31.4317C63.6058 31.0126 62.8648 30.3912 62.303 29.6213C61.746 28.8552 61.334 27.9555 61.0669 26.9223C60.7998 25.8891 60.6547 24.7676 60.6316 23.5578ZM74.9076 22.8615H60.632C60.7014 21.608 60.9334 20.4822 61.328 19.4841C61.7226 18.486 62.2392 17.6329 62.8778 16.9247C63.4958 16.2315 64.2557 15.6793 65.1059 15.3055C65.9683 14.9313 66.8995 14.7417 67.8396 14.7491C68.9997 14.7491 70.0211 14.964 70.9036 15.3937C71.7636 15.8059 72.5194 16.4069 73.1147 17.1519C73.7065 17.8938 74.1533 18.7585 74.4552 19.746C74.7603 20.7565 74.9128 21.8068 74.9076 22.8623V22.8615ZM90.0541 19.7627H90.7504C90.7504 17.7654 90.1702 16.3145 89.0097 15.41C87.8493 14.5055 86.2708 14.0528 84.2743 14.0519C83.1598 14.0519 82.2197 14.1913 81.4538 14.4701C80.688 14.7489 80.0613 15.1085 79.5736 15.5491C79.0863 15.9905 78.738 16.478 78.5289 17.0116C78.3197 17.5451 78.2153 18.0559 78.2156 18.5438C78.2156 19.5188 78.3896 20.2965 78.7377 20.8768C79.0858 21.4572 79.6314 21.9099 80.3744 22.2349C80.9386 22.4862 81.5205 22.6957 82.1155 22.8615C82.7652 23.0472 83.5196 23.2445 84.3788 23.4534C85.1446 23.6391 85.899 23.8246 86.642 24.0098C87.385 24.195 88.0413 24.4445 88.6108 24.7584C89.1572 25.0524 89.6325 25.4625 90.0035 25.9597C90.3636 26.4468 90.5435 27.0851 90.5433 27.8746C90.5433 28.6407 90.3634 29.2906 90.0035 29.8242C89.6467 30.3567 89.1765 30.8038 88.6267 31.1334C88.0499 31.4775 87.4205 31.7244 86.7636 31.8644C86.1065 32.0121 85.4353 32.088 84.7618 32.0908C82.6504 32.0908 81.0312 31.62 79.9045 30.6784C78.7777 29.7368 78.2147 28.257 78.2156 26.2388H77.5192C77.5192 28.4907 78.1285 30.1389 79.3472 31.1835C80.5659 32.2281 82.3705 32.7508 84.761 32.7517C85.5401 32.7502 86.3166 32.6627 87.0765 32.4906C87.8176 32.3314 88.5248 32.0426 89.1655 31.6376C89.7755 31.2484 90.288 30.7243 90.6635 30.1058C91.0467 29.4781 91.2382 28.7119 91.2379 27.8074C91.2379 26.9486 91.0697 26.2522 90.7333 25.7184C90.3963 25.1843 89.9441 24.7323 89.4099 24.3954C88.8375 24.0349 88.2158 23.7593 87.5644 23.5771C86.8759 23.3773 86.1854 23.1857 85.4929 23.0023C84.6403 22.7789 83.7871 22.5584 82.9334 22.341C82.2401 22.1676 81.5595 21.9465 80.8966 21.6793C80.2931 21.4225 79.8114 21.0569 79.4516 20.5824C79.0918 20.1078 78.9119 19.4289 78.9119 18.5455C78.9119 18.3832 78.9583 18.093 79.051 17.675C79.1438 17.2569 79.3643 16.8334 79.7127 16.4042C80.0611 15.9762 80.595 15.5932 81.3143 15.255C82.0336 14.9169 83.0202 14.7486 84.2739 14.75C85.1331 14.75 85.9166 14.8429 86.6245 15.0286C87.3324 15.2144 87.9417 15.5104 88.4525 15.9167C88.9676 16.3288 89.374 16.8608 89.6363 17.4661C89.9151 18.0938 90.0543 18.8599 90.0541 19.7644V19.7627ZM106.176 19.7627H106.872C106.872 17.7654 106.292 16.3145 105.131 15.41C103.97 14.5055 102.392 14.0528 100.395 14.0519C99.2826 14.0519 98.3426 14.1913 97.5753 14.4701C96.808 14.7489 96.1813 15.1085 95.6951 15.5491C95.2072 15.9905 94.8589 16.478 94.6504 17.0116C94.4418 17.5451 94.3373 18.0559 94.3371 18.5438C94.3371 19.5188 94.5111 20.2965 94.8592 20.8768C95.2073 21.4572 95.7529 21.9099 96.4959 22.2349C97.0599 22.4862 97.6417 22.6956 98.2366 22.8615C98.8868 23.0472 99.6413 23.2445 100.5 23.4534C101.266 23.6391 102.02 23.8246 102.763 24.0098C103.506 24.195 104.162 24.4445 104.732 24.7584C105.278 25.0524 105.754 25.4625 106.125 25.9597C106.485 26.4468 106.665 27.0851 106.664 27.8746C106.664 28.6407 106.484 29.2906 106.125 29.8242C105.768 30.3564 105.298 30.8035 104.749 31.1334C104.172 31.4775 103.542 31.7244 102.885 31.8644C102.228 32.0122 101.557 32.0881 100.883 32.0908C98.7718 32.0908 97.1529 31.62 96.0264 30.6784C94.8999 29.7368 94.3369 28.257 94.3375 26.2388H93.6411C93.6411 28.4907 94.2505 30.1389 95.4691 31.1835C96.6878 32.2281 98.4925 32.7503 100.883 32.75C101.662 32.7486 102.439 32.661 103.199 32.4889C103.94 32.3297 104.647 32.0409 105.288 31.6359C105.898 31.2467 106.411 30.7226 106.786 30.1041C107.169 29.4763 107.361 28.7102 107.361 27.8057C107.361 26.9469 107.192 26.2505 106.856 25.7166C106.519 25.1824 106.067 24.7304 105.533 24.3937C104.96 24.0333 104.339 23.7577 103.687 23.5754C102.998 23.3756 102.308 23.184 101.616 23.0006C100.763 22.7771 99.9099 22.5567 99.0562 22.3393C98.3628 22.1659 97.6822 21.9448 97.0193 21.6776C96.4158 21.4208 95.9342 21.0552 95.5744 20.5806C95.2146 20.1061 95.0341 19.4278 95.033 18.5455C95.033 18.3832 95.0793 18.093 95.1721 17.675C95.2648 17.2569 95.4854 16.8334 95.8338 16.4042C96.1819 15.9762 96.7157 15.5932 97.4353 15.255C98.1549 14.9169 99.1415 14.7486 100.395 14.75C101.254 14.75 102.038 14.8429 102.746 15.0286C103.453 15.2144 104.063 15.5104 104.574 15.9167C105.089 16.3288 105.495 16.8608 105.757 17.4661C106.036 18.0938 106.175 18.8599 106.175 19.7644L106.176 19.7627Z" fill="white"/>
</g>
<defs>
<clipPath id="clip0_2476_28005">
<rect width="107" height="46" fill="white" transform="translate(0.359375)"/>
</clipPath>
</defs>
</svg>
