<svg width="126" height="46" viewBox="0 0 126 46" fill="none" xmlns="http://www.w3.org/2000/svg">
<g clip-path="url(#clip0_2476_27524)">
<path fill-rule="evenodd" clip-rule="evenodd" d="M0.459473 33.9234C1.9354 33.1387 3.40132 32.3339 4.88727 31.5859C15.3056 26.2699 25.7239 20.9639 36.1423 15.6679C36.3493 15.5611 36.5597 15.4742 36.8368 15.334C36.8368 16.3157 36.8702 17.2173 36.8135 18.1089C36.7788 18.2379 36.7154 18.3575 36.6281 18.4587C36.5408 18.5599 36.4318 18.64 36.3092 18.6932C34.4025 19.4312 33.9718 20.8403 34.0085 22.7838C34.0957 26.4965 32.8183 30.1122 30.4182 32.9462C28.0181 35.7802 24.662 37.6355 20.9856 38.1608C17.1856 38.7085 13.5659 38.0406 10.3101 35.8635C10.1198 35.7366 9.93949 35.5896 9.68237 35.4026C10.6073 34.9318 11.4321 34.4777 12.2936 34.1037C12.5756 34.0589 12.8644 34.1157 13.1084 34.264C16.7815 35.9803 20.4981 36.0104 24.1712 34.264C26.4419 33.1752 28.3284 31.4222 29.5806 29.2374C30.8329 27.0525 31.3918 24.5388 31.1835 22.0291C31.1835 21.8388 31.1268 21.6484 31.0867 21.4013C30.873 21.4915 30.7161 21.5483 30.5658 21.6251C20.9355 26.5226 11.3052 31.4201 1.67495 36.3176C1.29428 36.5446 0.870196 36.7049 0.459473 36.8752V33.9234Z" fill="white"/>
<path fill-rule="evenodd" clip-rule="evenodd" d="M20.7052 7.76588C22.9804 8.08906 25.1554 8.91367 27.0731 10.1801C27.1712 10.2442 27.2659 10.3133 27.3569 10.3872C27.4211 10.4548 27.4813 10.5262 27.5372 10.6009C26.6456 11.0483 25.7941 11.5125 24.9059 11.8965C24.7122 11.98 24.3817 11.8163 24.1379 11.7095C19.3862 9.6325 14.8549 9.94972 10.7543 13.2188C7.34166 15.9403 5.78225 19.5633 6.07944 23.9711C6.07944 24.1447 6.13287 24.305 6.17962 24.6122L36.7234 9.04146C36.7234 10.0766 36.7601 11.0283 36.6933 11.9699C36.6933 12.167 36.306 12.3807 36.0555 12.5076C32.0707 14.5489 28.0915 16.5803 24.1179 18.6016C16.4711 22.4951 8.82427 26.3909 1.17748 30.2889C0.917023 30.4224 0.63319 30.5059 0.359375 30.6228V27.6576C0.69856 27.4249 1.05087 27.2119 1.41457 27.0198C2.82705 26.3519 3.36466 25.27 3.27784 23.734C3.05546 19.8579 4.32407 16.0435 6.82366 13.0727C9.32324 10.1019 12.8645 8.19963 16.7215 7.75586C16.9352 7.72915 17.7834 7.65234 17.9937 7.65234C18.4312 7.65234 18.5781 7.65234 19.0155 7.65234C19.2326 7.65234 20.4581 7.72915 20.7052 7.76588Z" fill="white"/>
<path fill-rule="evenodd" clip-rule="evenodd" d="M125.359 20.4481C124.671 20.4481 123.984 20.4214 123.296 20.4481C121.833 20.5082 120.828 21.2896 120.527 22.7221C120.315 23.7196 120.195 24.7346 120.17 25.7541C120.117 28.0915 120.147 30.3989 120.143 32.7197V33.8049C119.295 33.8049 118.497 33.8049 117.699 33.8049C117.622 33.8049 117.512 33.6714 117.485 33.5812C117.461 33.4468 117.456 33.3097 117.469 33.1738C117.469 28.2351 117.469 23.2964 117.469 18.3578C117.469 17.8435 117.569 17.6064 118.137 17.6565C118.704 17.7066 119.385 17.6565 120.083 17.6565V19.9272C121.482 18.2275 123.172 17.356 125.363 17.6098L125.359 20.4481Z" fill="white"/>
<path fill-rule="evenodd" clip-rule="evenodd" d="M64.4156 17.5776C63.4606 17.5776 62.6158 17.5943 61.7743 17.5576C61.6746 17.5361 61.5816 17.4909 61.5031 17.4258C61.4247 17.3606 61.363 17.2776 61.3235 17.1836C60.4085 14.1984 55.0825 13.21 52.4579 15.3504C52.1181 15.6229 51.8486 15.9728 51.6717 16.3708C51.4949 16.7689 51.4159 17.2034 51.4414 17.6382C51.4669 18.073 51.5962 18.4954 51.8183 18.87C52.0405 19.2446 52.3491 19.5606 52.7183 19.7915C53.394 20.19 54.124 20.4881 54.8855 20.6764C56.6085 21.1539 58.3816 21.4745 60.0813 22.0121C61.0943 22.3316 62.0411 22.8316 62.8762 23.488C65.8381 25.899 65.4307 30.6039 62.0648 32.6442C58.602 34.7445 54.979 34.7512 51.416 32.918C49.3558 31.8628 48.2071 30.0129 47.7429 27.7522C47.6995 27.5485 47.6861 27.3382 47.6494 27.0577C48.5644 27.0577 49.4058 27.0577 50.2473 27.0577C50.3709 27.0577 50.5312 27.238 50.6046 27.3716C50.7693 27.6855 50.9154 28.0088 51.0421 28.3399C51.7867 30.2032 53.1925 31.1816 55.1493 31.4521C56.8189 31.6825 58.4518 31.6391 59.9711 30.7842C60.4731 30.5167 60.8948 30.1204 61.193 29.6361C61.4913 29.1517 61.6553 28.5967 61.6682 28.0281C61.6811 27.4594 61.5425 26.8976 61.2665 26.4002C60.9906 25.9028 60.5873 25.4878 60.098 25.1977C58.7957 24.3896 57.3164 24.1258 55.8505 23.8286C54.1809 23.4947 52.5113 23.1241 51.0087 22.2058C47.3355 19.9451 47.4023 14.9597 51.1856 12.8794C54.4046 11.1063 57.7138 11.1029 60.9795 12.7325C62.8862 13.7309 63.9247 15.4105 64.4156 17.5776Z" fill="white"/>
<path fill-rule="evenodd" clip-rule="evenodd" d="M89.2759 29.1345C89.082 29.6454 88.859 30.1449 88.6081 30.6304C88.0545 31.6265 87.2602 32.468 86.2978 33.0781C85.3354 33.6882 84.2354 34.0475 83.0984 34.1233C82.0412 34.2176 80.976 34.1659 79.9328 33.9696C78.4089 33.639 77.0315 32.8273 76.004 31.6543C74.9765 30.4813 74.3532 29.0091 74.2261 27.4548C74.0641 26.1283 74.1069 24.7847 74.353 23.4712C75.5952 17.7077 81.9697 15.5873 86.5111 18.8998C88.2308 20.1553 88.9554 22.042 89.286 24.0756C89.4195 24.887 89.4429 25.7151 89.5264 26.6267H88.7751C85.0719 26.6267 81.3687 26.6267 77.6688 26.6267C77.1513 26.6267 77.0177 26.797 77.0678 27.2745C77.1228 28.1366 77.4117 28.9674 77.9036 29.6776C78.3955 30.3877 79.0716 30.9504 79.8594 31.305C80.6264 31.6991 81.4835 31.885 82.3449 31.844C83.2063 31.803 84.0419 31.5365 84.768 31.0712C85.2079 30.7726 85.58 30.3846 85.8599 29.9325C86.0064 29.6555 86.2347 29.4303 86.5137 29.2875C86.7927 29.1447 87.1089 29.0913 87.4193 29.1345C87.9937 29.1745 88.5613 29.1345 89.2759 29.1345ZM86.5344 24.1958C86.3942 22.4928 85.7163 21.1337 84.2437 20.3323C83.4228 19.8447 82.4739 19.6158 81.5209 19.6753C80.5679 19.7349 79.6549 20.0802 78.901 20.6662C78.3338 21.0625 77.8737 21.5933 77.5619 22.211C77.2501 22.8287 77.0964 23.5141 77.1145 24.2058L86.5344 24.1958Z" fill="white"/>
<path fill-rule="evenodd" clip-rule="evenodd" d="M111.989 23.8509C112.323 21.7038 111.321 19.974 109.545 19.6401C106.873 19.1326 105.314 20.1009 104.716 22.6721H101.975C102.021 21.5291 102.455 20.4359 103.207 19.5733C104.813 17.7 106.94 17.2025 109.281 17.316C109.772 17.3438 110.26 17.4187 110.737 17.5398C113.054 18.1074 114.36 19.4765 114.627 21.8807C114.811 23.517 114.774 25.1799 114.834 26.8328L115.075 33.1439C115.075 33.3376 115.095 33.5346 115.108 33.7783H112.47C112.386 33.1472 112.306 32.5295 112.226 31.9184C112.156 31.9184 112.099 31.9017 112.086 31.9184C110.633 33.8718 108.56 34.3393 106.312 34.1791C105.356 34.0926 104.422 33.8383 103.554 33.4277C101.955 32.6931 101.217 31.3207 101.19 29.5743C101.163 27.878 102.015 26.7026 103.457 25.9011C105.267 24.8994 107.254 24.5087 109.268 24.2315L111.989 23.8509ZM112.25 25.9646C110.663 26.225 109.141 26.4187 107.651 26.7426C106.85 26.9349 106.079 27.2372 105.361 27.6409C104.955 27.833 104.624 28.155 104.422 28.5559C104.219 28.9569 104.156 29.4139 104.242 29.8548C104.285 30.3406 104.49 30.7979 104.824 31.1529C105.159 31.5079 105.603 31.7399 106.085 31.8115C106.661 31.9362 107.249 31.9934 107.838 31.9818C109.361 31.9284 110.707 31.4509 111.548 30.0718C112.303 28.843 112.393 27.4873 112.25 25.9646Z" fill="white"/>
<path fill-rule="evenodd" clip-rule="evenodd" d="M70.6799 19.8149V29.6155C70.6799 29.6956 70.6799 29.7724 70.6799 29.8526C70.71 31.2083 70.9571 31.4621 72.3095 31.4954C72.7569 31.4954 73.2044 31.4954 73.6819 31.4954V33.8062C72.3061 33.7628 70.9538 33.9698 69.6281 33.5691C69.1928 33.4583 68.8054 33.2086 68.5246 32.8579C68.2439 32.5073 68.085 32.0747 68.072 31.6257C67.9752 30.4135 67.9418 29.1914 67.9318 27.9726C67.9117 25.5149 67.9318 23.0539 67.9318 20.5929V19.885H65.4741V17.6511H67.9218V13.6641H70.6699V17.611H73.6752V19.8149H70.6799Z" fill="white"/>
<path fill-rule="evenodd" clip-rule="evenodd" d="M93.8573 33.7591H91.2661V12.0977H93.8573V33.7591Z" fill="white"/>
<path fill-rule="evenodd" clip-rule="evenodd" d="M99.3402 33.8149C98.512 33.8149 97.7674 33.8316 97.0261 33.8149C96.9059 33.8149 96.779 33.6012 96.6922 33.461C96.6454 33.3909 96.6922 33.2706 96.6922 33.1705V12.0566C97.537 12.0566 98.3351 12.0566 99.1298 12.0566C99.2033 12.0566 99.3068 12.1935 99.3335 12.287C99.352 12.4233 99.352 12.5615 99.3335 12.6978C99.3335 19.5031 99.3335 26.3095 99.3335 33.117L99.3402 33.8149Z" fill="white"/>
</g>
<defs>
<clipPath id="clip0_2476_27524">
<rect width="125" height="46" fill="white" transform="translate(0.359375)"/>
</clipPath>
</defs>
</svg>
