<svg width="77" height="46" viewBox="0 0 77 46" fill="none" xmlns="http://www.w3.org/2000/svg">
<g clip-path="url(#clip0_2476_27977)">
<path fill-rule="evenodd" clip-rule="evenodd" d="M18.0767 11.998H32.5411V13.1404H19.4007V21.7411H31.7437V22.8834H19.4007V32.3298H32.6746V33.4721H18.0767V11.998ZM33.8206 11.998H35.3561L42.158 21.4407L49.1121 11.998L58.5696 0L43.0222 22.4347L51.0295 33.4721H49.4347L42.158 23.4249L34.8628 33.4721H33.2791L41.3458 22.4347L33.8206 11.998ZM51.6229 13.1404V11.998H68.0864V13.1404H60.4907V33.4721H59.1667V13.1404H51.6229Z" fill="white"/>
<path fill-rule="evenodd" clip-rule="evenodd" d="M0 11.9961H1.65413L24.4856 45.9986L15.0504 33.4739L1.38339 13.6206L1.32405 33.4739H0V11.9961Z" fill="white"/>
<path fill-rule="evenodd" clip-rule="evenodd" d="M67.9421 31.9867C68.0378 31.9881 68.1317 31.9608 68.2117 31.9083C68.2917 31.8557 68.3542 31.7804 68.3909 31.692C68.4277 31.6037 68.4371 31.5063 68.4179 31.4125C68.3987 31.3187 68.3519 31.2329 68.2834 31.166C68.2149 31.0991 68.1279 31.0543 68.0337 31.0374C67.9395 31.0205 67.8424 31.0322 67.7549 31.0711C67.6675 31.1099 67.5936 31.1741 67.543 31.2554C67.4924 31.3366 67.4674 31.4312 67.4711 31.5268C67.473 31.6501 67.5236 31.7676 67.6119 31.8538C67.7001 31.9399 67.8188 31.9877 67.9421 31.9867ZM69.2439 30.7257C69.2399 30.9084 69.2747 31.0898 69.3458 31.258C69.417 31.4263 69.523 31.5776 69.6568 31.702C69.7906 31.8263 69.9493 31.9209 70.1223 31.9796C70.2953 32.0383 70.4788 32.0597 70.6606 32.0423C70.8579 32.0597 71.0565 32.0329 71.242 31.9638C71.4276 31.8948 71.5954 31.7852 71.7332 31.6431C71.8711 31.5009 71.9755 31.3299 72.0389 31.1423C72.1023 30.9548 72.123 30.7554 72.0997 30.5588V27.2988H71.3579V30.5737C71.3579 31.0892 71.0983 31.3673 70.6384 31.3673C70.5493 31.3745 70.4598 31.3632 70.3752 31.3343C70.2907 31.3054 70.213 31.2595 70.1469 31.1993C70.0809 31.1392 70.0279 31.0661 69.9912 30.9846C69.9545 30.9032 69.935 30.815 69.9337 30.7257H69.2439ZM73.0417 30.6849C73.0936 31.512 73.7835 32.0423 74.8182 32.0423C75.9309 32.0423 76.6096 31.486 76.6096 30.6033C76.6096 29.9061 76.2165 29.5203 75.2633 29.2978L74.7515 29.1717C74.1432 29.0308 73.8984 28.8416 73.8984 28.5115C73.8984 28.0962 74.2693 27.8217 74.8516 27.8217C75.0725 27.7934 75.296 27.8489 75.4779 27.9773C75.6599 28.1057 75.7871 28.2977 75.8345 28.5153H76.5354C76.4946 27.7364 75.7937 27.1875 74.859 27.1875C73.8465 27.1875 73.1678 27.7364 73.1678 28.5598C73.1678 29.2422 73.5387 29.6464 74.3917 29.8393L74.9925 29.9839C75.6082 30.1286 75.879 30.3548 75.879 30.696C75.879 31.0373 75.4524 31.4044 74.8739 31.4044C74.2953 31.4044 73.8206 31.1263 73.7612 30.6849H73.0417Z" fill="white"/>
</g>
<defs>
<clipPath id="clip0_2476_27977">
<rect width="76.6094" height="46" fill="white"/>
</clipPath>
</defs>
</svg>
