<svg width="61" height="61" viewBox="0 0 61 61" fill="none" xmlns="http://www.w3.org/2000/svg">
<ellipse cx="30.6206" cy="30.4951" rx="30.0532" ry="29.9257" fill="#E4E4E4"/>
<path style="mix-blend-mode:multiply" opacity="0.65" d="M59.7359 37.4847C56.7366 50.7617 44.8246 60.6759 30.5821 60.6759H30.4955L14.9238 45.1604L46.7972 24.5244L59.7359 37.4847Z" fill="url(#paint0_linear_847_1415)"/>
<path d="M46.7989 25.514C46.8024 25.4054 46.7764 25.2979 46.7236 25.2028L43.436 19.3499C43.3844 19.2573 43.3088 19.1802 43.2172 19.1265C43.1256 19.0728 43.0212 19.0445 42.9148 19.0444H18.2927C18.1872 19.0444 18.0837 19.0723 17.9926 19.1252C17.9015 19.1781 17.8262 19.2542 17.7743 19.3456L14.4498 25.1788C14.3925 25.2778 14.3617 25.3898 14.3604 25.5041L14.3675 44.9706C14.3659 45.3746 14.5256 45.7627 14.8113 46.0497C15.097 46.3366 15.4855 46.4988 15.8912 46.5006H45.2779C45.4788 46.4997 45.6775 46.4594 45.8627 46.382C46.0479 46.3046 46.216 46.1916 46.3574 46.0496C46.4987 45.9075 46.6106 45.7391 46.6866 45.5539C46.7626 45.3688 46.8012 45.1706 46.8003 44.9706V25.5309C46.8003 25.5309 46.7989 25.5196 46.7989 25.514ZM16.012 24.8663L18.6364 20.2549C18.638 20.2518 18.6404 20.2493 18.6434 20.2475C18.6465 20.2457 18.6499 20.2449 18.6534 20.245H42.5541C42.5578 20.2448 42.5615 20.2456 42.5648 20.2473C42.568 20.2491 42.5707 20.2517 42.5726 20.2549L45.1629 24.8677C45.1646 24.8707 45.1656 24.8741 45.1656 24.8776C45.1656 24.881 45.1647 24.8844 45.1629 24.8874C45.1612 24.8904 45.1587 24.8929 45.1557 24.8947C45.1527 24.8964 45.1493 24.8974 45.1459 24.8974H16.0333C16.0294 24.8979 16.0255 24.8973 16.0219 24.8957C16.0184 24.894 16.0153 24.8915 16.0131 24.8883C16.0109 24.8851 16.0097 24.8813 16.0094 24.8775C16.0092 24.8736 16.0101 24.8697 16.012 24.8663Z" fill="#BDC1C6"/>
<path d="M42.9138 18.8667H18.2618L15.1318 24.1752H46.0452L42.9138 18.8667Z" fill="#073042"/>
<path d="M46.7989 24.5242C46.8024 24.4156 46.7764 24.3081 46.7236 24.2131L43.436 18.3601C43.3844 18.2676 43.3088 18.1905 43.2172 18.1368C43.1256 18.0831 43.0212 18.0547 42.9148 18.0547H18.2927C18.1872 18.0547 18.0837 18.0825 17.9926 18.1354C17.9015 18.1884 17.8262 18.2645 17.7743 18.3559L14.4498 24.1891C14.3925 24.288 14.3617 24.4 14.3604 24.5143L14.3675 43.9808C14.3659 44.3849 14.5256 44.773 14.8113 45.0599C15.097 45.3468 15.4855 45.509 15.8912 45.5109H45.2779C45.4788 45.51 45.6775 45.4696 45.8627 45.3923C46.0479 45.3149 46.216 45.2019 46.3574 45.0598C46.4987 44.9177 46.6106 44.7493 46.6866 44.5642C46.7626 44.3791 46.8012 44.1808 46.8003 43.9808V24.5412C46.8003 24.5412 46.7989 24.5299 46.7989 24.5242ZM16.012 23.8765L18.6364 19.2652C18.638 19.2621 18.6404 19.2595 18.6434 19.2578C18.6465 19.256 18.6499 19.2551 18.6534 19.2553H42.5541C42.5578 19.255 42.5615 19.2558 42.5648 19.2576C42.568 19.2593 42.5707 19.262 42.5726 19.2652L45.1629 23.878C45.1646 23.881 45.1656 23.8844 45.1656 23.8878C45.1656 23.8913 45.1647 23.8947 45.1629 23.8977C45.1612 23.9007 45.1587 23.9032 45.1557 23.9049C45.1527 23.9067 45.1493 23.9076 45.1459 23.9077H16.0333C16.0294 23.9081 16.0255 23.9075 16.0219 23.9059C16.0184 23.9043 16.0153 23.9018 16.0131 23.8985C16.0109 23.8953 16.0097 23.8916 16.0094 23.8877C16.0092 23.8838 16.0101 23.88 16.012 23.8765Z" fill="#4285F4"/>
<path d="M46.7011 24.1474L43.4192 18.3001C43.3677 18.2077 43.2923 18.1307 43.201 18.0771C43.1096 18.0234 43.0055 17.9949 42.8994 17.9946H18.2716C18.166 17.9946 18.0622 18.0225 17.9709 18.0754C17.8796 18.1283 17.804 18.2044 17.7518 18.2958L14.4216 24.1474C14.3693 24.2385 14.3418 24.3416 14.3418 24.4465C14.3418 24.5514 14.3693 24.6545 14.4216 24.7455C14.4734 24.8363 14.5484 24.9118 14.6389 24.9645C14.7294 25.0171 14.8323 25.045 14.9371 25.0453H46.1799C46.2846 25.0452 46.3874 25.0175 46.4779 24.9651C46.5684 24.9127 46.6435 24.8375 46.6954 24.747C46.7489 24.6562 46.7775 24.5531 46.7785 24.4479C46.7795 24.3427 46.7528 24.2391 46.7011 24.1474ZM15.9696 23.8419L18.6181 19.198H42.5444L45.1574 23.8504L15.9696 23.8419Z" fill="#3870B2"/>
<path d="M36.5982 17.8945H25.0625V20.0171H36.5982V17.8945Z" fill="white"/>
<path d="M34.9257 19.7621C34.7686 19.7638 34.6146 19.7189 34.4832 19.6332C34.3517 19.5476 34.2488 19.4249 34.1876 19.2809C34.1263 19.1369 34.1094 18.9779 34.139 18.8243C34.1686 18.6707 34.2434 18.5293 34.3538 18.4181C34.4643 18.3069 34.6055 18.2309 34.7594 18.1998C34.9134 18.1686 35.0732 18.1838 35.2184 18.2432C35.3637 18.3027 35.488 18.4038 35.5755 18.5338C35.6629 18.6637 35.7096 18.8166 35.7096 18.973C35.7102 19.0761 35.6904 19.1782 35.6513 19.2737C35.6122 19.3691 35.5546 19.4559 35.4818 19.5292C35.409 19.6025 35.3224 19.6608 35.227 19.7007C35.1316 19.7407 35.0292 19.7615 34.9257 19.7621ZM26.253 19.7621C26.096 19.7635 25.9421 19.7184 25.8108 19.6325C25.6796 19.5467 25.5769 19.424 25.5158 19.2799C25.4548 19.1358 25.4381 18.977 25.4678 18.8234C25.4976 18.6699 25.5725 18.5287 25.6831 18.4176C25.7936 18.3065 25.9348 18.2307 26.0887 18.1997C26.2426 18.1686 26.4023 18.1838 26.5475 18.2433C26.6927 18.3029 26.8169 18.404 26.9043 18.5339C26.9917 18.6638 27.0383 18.8166 27.0383 18.973C27.0389 19.0762 27.019 19.1785 26.9798 19.274C26.9407 19.3695 26.8829 19.4564 26.81 19.5297C26.7371 19.603 26.6503 19.6612 26.5547 19.7011C26.4592 19.741 26.3566 19.7617 26.253 19.7621ZM35.2069 15.0121L36.769 12.2829C36.8125 12.2076 36.8243 12.1183 36.802 12.0343C36.7797 11.9504 36.7249 11.8786 36.6498 11.8346C36.6127 11.8132 36.5718 11.7993 36.5293 11.7938C36.4868 11.7882 36.4436 11.7911 36.4023 11.8023C36.361 11.8135 36.3222 11.8327 36.2884 11.8589C36.2546 11.8851 36.2263 11.9177 36.2052 11.9548L34.6161 14.7194C33.3495 14.1472 31.9746 13.8512 30.5837 13.8512C29.1928 13.8512 27.8179 14.1472 26.5512 14.7194L24.9635 11.9548C24.9194 11.8845 24.8499 11.8338 24.7693 11.813C24.6887 11.7922 24.6032 11.803 24.5304 11.8431C24.4552 11.8871 24.4005 11.9589 24.3781 12.0428C24.3558 12.1267 24.3676 12.2161 24.4111 12.2914L25.9732 15.0206C24.6147 15.7676 23.4642 16.8396 22.6255 18.1398C21.7867 19.4401 21.2862 20.9277 21.1689 22.4687H40.0098C39.8925 20.9277 39.392 19.4401 38.5533 18.1398C37.7146 16.8396 36.5641 15.7676 35.2055 15.0206" fill="#3DDC84"/>
<path d="M15.8955 45.5134H45.2765C45.4774 45.5125 45.6761 45.4722 45.8613 45.3948C46.0465 45.3174 46.2146 45.2045 46.3559 45.0624C46.4973 44.9203 46.6092 44.7519 46.6852 44.5667C46.7612 44.3816 46.7998 44.1834 46.7989 43.9834V26.334" fill="#3E7FDD"/>
<path d="M36.2684 13.173L36.7752 12.2895C36.8187 12.2143 36.8305 12.125 36.8082 12.0411C36.7859 11.9571 36.7312 11.8854 36.656 11.8414C36.619 11.82 36.578 11.8061 36.5356 11.8006C36.4931 11.795 36.45 11.7979 36.4086 11.8091C36.3673 11.8203 36.3286 11.8395 36.2948 11.8657C36.261 11.8919 36.2327 11.9245 36.2117 11.9616L35.5146 13.173H36.2684Z" fill="#3DDB85"/>
<path d="M24.9133 13.172H25.6671L24.9715 11.9605C24.9282 11.8875 24.8578 11.8342 24.7755 11.8123C24.6932 11.7903 24.6056 11.8015 24.5314 11.8432C24.4562 11.8872 24.4015 11.9589 24.3792 12.0428C24.3569 12.1268 24.3687 12.2161 24.4122 12.2913L24.9133 13.172Z" fill="#3DDB85"/>
<path d="M21.6604 38.5495C21.1558 38.1684 20.7927 37.6312 20.6279 37.0223L21.9259 36.5132C22.0085 36.865 22.1898 37.1862 22.4485 37.4395C22.5716 37.5546 22.7161 37.6444 22.874 37.7038C23.0319 37.7633 23.2001 37.7912 23.3688 37.7859C23.6487 37.7937 23.9239 37.7135 24.1555 37.5568C24.26 37.4874 24.3449 37.3924 24.4021 37.281C24.4592 37.1696 24.4868 37.0455 24.4822 36.9205C24.4852 36.7929 24.4588 36.6664 24.4048 36.5506C24.3509 36.4349 24.2709 36.3331 24.1711 36.253C23.8321 36.0128 23.4581 35.8258 23.062 35.6987L22.6118 35.5347C22.1567 35.3818 21.7434 35.1257 21.4047 34.7866C21.2386 34.6196 21.1084 34.4206 21.0222 34.2018C20.936 33.9829 20.8956 33.7489 20.9034 33.5139C20.9 33.1463 21.0031 32.7854 21.2002 32.4746C21.4061 32.156 21.6966 31.9005 22.0395 31.7364C22.4217 31.5523 22.842 31.4602 23.2665 31.4677C23.9293 31.4677 24.45 31.6218 24.8287 31.9301C25.1892 32.2101 25.4626 32.5862 25.6168 33.0147L24.3998 33.5238C24.3259 33.3016 24.1894 33.1052 24.0064 32.9582C23.8006 32.7995 23.5451 32.7183 23.285 32.7291C23.0219 32.719 22.7623 32.7923 22.5437 32.9384C22.4544 32.9982 22.3816 33.0794 22.332 33.1745C22.2823 33.2696 22.2575 33.3756 22.2597 33.4828C22.2584 33.5909 22.2821 33.6979 22.3289 33.7954C22.3757 33.893 22.4443 33.9786 22.5295 34.0456C22.8051 34.2441 23.1131 34.3939 23.4398 34.4882L23.8999 34.641C24.4481 34.8063 24.948 35.1013 25.357 35.5007C25.6591 35.8621 25.8362 36.3109 25.8617 36.7804C25.8873 37.2499 25.7601 37.7151 25.499 38.1069C25.2567 38.4338 24.9298 38.6889 24.5532 38.8451C24.177 39.0068 23.7714 39.0901 23.3617 39.0897C22.7505 39.1 22.1528 38.9102 21.6604 38.5495Z" fill="white"/>
<path d="M27.0273 31.6417H29.5012C30.192 31.6262 30.8756 31.7837 31.4894 32.0998C32.0412 32.3918 32.4956 32.8375 32.7973 33.3824C33.0997 33.972 33.2574 34.6245 33.2574 35.2865C33.2574 35.9485 33.0997 36.6011 32.7973 37.1906C32.4956 37.7355 32.0412 38.1812 31.4894 38.4732C30.8756 38.7893 30.192 38.9468 29.5012 38.9314H27.0273V31.6417ZM29.4416 37.6276C30.2321 37.6276 30.8357 37.4192 31.2522 37.0025C31.6688 36.5858 31.8766 36.0136 31.8757 35.2858C31.8757 34.5608 31.6678 33.9891 31.2522 33.5705C30.8366 33.1519 30.233 32.9431 29.4416 32.9441H28.4077V37.6276H29.4416Z" fill="white"/>
<path d="M34.4307 31.6411H35.811V34.7663H35.892L38.5718 31.6411H40.2376V31.7217L37.5961 34.7309L40.5202 38.8431V38.9252H38.8274L36.639 35.8141L35.811 36.7814V38.9195H34.4307V31.6411Z" fill="white"/>
<defs>
<linearGradient id="paint0_linear_847_1415" x1="31.332" y1="34.7045" x2="46.6781" y2="51.7839" gradientUnits="userSpaceOnUse">
<stop offset="0.2" stop-color="#E6E6E6"/>
<stop offset="1" stop-color="white" stop-opacity="0"/>
</linearGradient>
</defs>
</svg>
