<svg width="61" height="61" viewBox="0 0 61 61" fill="none" xmlns="http://www.w3.org/2000/svg">
<ellipse cx="29.9469" cy="30.0593" rx="29.3795" ry="29.3176" fill="#E4E4E4"/>
<path style="mix-blend-mode:multiply" opacity="0.65" d="M60.6723 36.9681C57.5906 50.6389 45.3516 60.8471 30.7181 60.8471H30.6291L14.6299 44.8715L47.3783 23.6235L60.6723 36.9681Z" fill="url(#paint0_linear_847_1397)"/>
<path d="M47.3789 24.6433C47.3826 24.5315 47.3558 24.4208 47.3016 24.323L43.9237 18.2964C43.8707 18.2011 43.793 18.1217 43.6989 18.0664C43.6047 18.0111 43.4975 17.982 43.3882 17.9819H18.0901C17.9817 17.9819 17.8753 18.0106 17.7818 18.0651C17.6882 18.1196 17.6108 18.1979 17.5575 18.2921L14.1417 24.2982C14.0828 24.4001 14.0512 24.5155 14.0498 24.6331L14.0571 44.6769C14.0555 45.093 14.2196 45.4926 14.5132 45.788C14.8067 46.0834 15.2058 46.2504 15.6227 46.2524H45.8162C46.0226 46.2514 46.2267 46.2099 46.417 46.1302C46.6073 46.0505 46.78 45.9342 46.9253 45.7879C47.0705 45.6416 47.1855 45.4682 47.2636 45.2776C47.3416 45.087 47.3813 44.8829 47.3804 44.6769V24.6608C47.3804 24.6608 47.3789 24.6491 47.3789 24.6433ZM15.7468 23.9764L18.4432 19.2283C18.4449 19.2251 18.4474 19.2225 18.4505 19.2207C18.4536 19.2189 18.4571 19.218 18.4607 19.2181H43.0176C43.0214 19.2179 43.0252 19.2187 43.0286 19.2205C43.0319 19.2223 43.0347 19.225 43.0366 19.2283L45.698 23.9779C45.6998 23.981 45.7007 23.9845 45.7008 23.988C45.7008 23.9916 45.6998 23.9951 45.6981 23.9982C45.6963 24.0013 45.6937 24.0039 45.6907 24.0057C45.6876 24.0075 45.6841 24.0084 45.6805 24.0085H15.7686C15.7647 24.009 15.7606 24.0083 15.757 24.0067C15.7533 24.005 15.7502 24.0024 15.7479 23.9991C15.7457 23.9958 15.7444 23.9919 15.7442 23.9879C15.744 23.9839 15.7449 23.98 15.7468 23.9764Z" fill="#BDC1C6"/>
<path d="M43.3894 17.7979H18.0606L14.8447 23.2638H46.6068L43.3894 17.7979Z" fill="#073042"/>
<path d="M47.3789 23.6233C47.3826 23.5115 47.3558 23.4008 47.3016 23.303L43.9237 17.2764C43.8707 17.1811 43.793 17.1017 43.6989 17.0464C43.6047 16.9911 43.4975 16.9619 43.3882 16.9619H18.0901C17.9817 16.9619 17.8753 16.9906 17.7818 17.0451C17.6882 17.0996 17.6108 17.1779 17.5575 17.2721L14.1417 23.2782C14.0828 23.3801 14.0512 23.4954 14.0498 23.6131L14.0571 43.6569C14.0555 44.0729 14.2196 44.4726 14.5132 44.768C14.8067 45.0634 15.2058 45.2304 15.6227 45.2323H45.8162C46.0226 45.2314 46.2267 45.1899 46.417 45.1102C46.6073 45.0305 46.78 44.9142 46.9253 44.7679C47.0705 44.6216 47.1855 44.4482 47.2636 44.2576C47.3416 44.0669 47.3813 43.8628 47.3804 43.6569V23.6408C47.3804 23.6408 47.3789 23.6291 47.3789 23.6233ZM15.7468 22.9564L18.4432 18.2083C18.4449 18.2051 18.4474 18.2025 18.4505 18.2007C18.4536 18.1989 18.4571 18.198 18.4607 18.1981H43.0176C43.0214 18.1979 43.0252 18.1987 43.0286 18.2005C43.0319 18.2023 43.0347 18.205 43.0366 18.2083L45.698 22.9579C45.6998 22.961 45.7007 22.9645 45.7008 22.968C45.7008 22.9716 45.6998 22.9751 45.6981 22.9782C45.6963 22.9813 45.6937 22.9839 45.6907 22.9857C45.6876 22.9875 45.6841 22.9884 45.6805 22.9885H15.7686C15.7647 22.9889 15.7606 22.9883 15.757 22.9867C15.7533 22.985 15.7502 22.9824 15.7479 22.9791C15.7457 22.9758 15.7444 22.9719 15.7442 22.9679C15.744 22.9639 15.7449 22.9599 15.7468 22.9564Z" fill="#5454D4"/>
<path d="M47.2799 23.2356L43.9079 17.2149C43.855 17.1198 43.7776 17.0405 43.6837 16.9853C43.5898 16.93 43.4829 16.9007 43.3739 16.9004H18.0699C17.9614 16.9004 17.8548 16.9291 17.761 16.9836C17.6672 17.0381 17.5895 17.1164 17.5359 17.2105L14.1142 23.2356C14.0605 23.3294 14.0322 23.4355 14.0322 23.5436C14.0322 23.6516 14.0605 23.7577 14.1142 23.8515C14.1675 23.945 14.2445 24.0227 14.3375 24.0769C14.4305 24.1311 14.5362 24.1599 14.6439 24.1602H46.7444C46.852 24.16 46.9576 24.1315 47.0506 24.0776C47.1436 24.0236 47.2207 23.9461 47.2741 23.853C47.329 23.7595 47.3584 23.6534 47.3595 23.5451C47.3605 23.4368 47.3331 23.3301 47.2799 23.2356ZM15.7047 22.9211L18.4259 18.1395H43.0091L45.6939 22.9298L15.7047 22.9211Z" fill="#3870B2"/>
<path d="M36.8993 16.7974H25.0469V18.9829H36.8993V16.7974Z" fill="white"/>
<path d="M35.1823 18.7211C35.0209 18.7228 34.8626 18.6767 34.7276 18.5885C34.5926 18.5002 34.4868 18.374 34.4239 18.2257C34.3609 18.0774 34.3435 17.9137 34.374 17.7556C34.4044 17.5974 34.4812 17.4518 34.5947 17.3373C34.7082 17.2228 34.8533 17.1445 35.0115 17.1125C35.1696 17.0804 35.3338 17.096 35.4831 17.1572C35.6324 17.2185 35.76 17.3226 35.8499 17.4564C35.9397 17.5902 35.9877 17.7476 35.9877 17.9086C35.9883 18.0148 35.9679 18.12 35.9278 18.2182C35.8876 18.3165 35.8284 18.4059 35.7536 18.4813C35.6789 18.5568 35.5899 18.6168 35.4919 18.6579C35.3938 18.6991 35.2887 18.7205 35.1823 18.7211ZM26.2715 18.7211C26.1102 18.7226 25.952 18.6761 25.8172 18.5877C25.6823 18.4993 25.5768 18.373 25.5141 18.2246C25.4513 18.0763 25.4342 17.9127 25.4648 17.7547C25.4954 17.5966 25.5723 17.4511 25.6859 17.3368C25.7995 17.2224 25.9445 17.1443 26.1026 17.1124C26.2608 17.0804 26.4249 17.0961 26.5741 17.1574C26.7233 17.2186 26.8508 17.3228 26.9406 17.4565C27.0304 17.5903 27.0784 17.7476 27.0784 17.9086C27.079 18.0149 27.0585 18.1202 27.0183 18.2186C26.978 18.3169 26.9187 18.4064 26.8438 18.4819C26.7688 18.5573 26.6797 18.6173 26.5815 18.6583C26.4833 18.6994 26.378 18.7207 26.2715 18.7211ZM35.4712 13.8303L37.0762 11.0201C37.1209 10.9426 37.1331 10.8506 37.1101 10.7642C37.0872 10.6778 37.0309 10.6039 36.9537 10.5586C36.9156 10.5365 36.8735 10.5222 36.8299 10.5165C36.7862 10.5108 36.7419 10.5138 36.6994 10.5253C36.6569 10.5368 36.6172 10.5566 36.5824 10.5836C36.5477 10.6105 36.5186 10.6441 36.497 10.6823L34.8642 13.5289C33.5628 12.9397 32.1502 12.6349 30.7211 12.6349C29.2919 12.6349 27.8793 12.9397 26.5779 13.5289L24.9466 10.6823C24.9013 10.61 24.8299 10.5577 24.7471 10.5363C24.6643 10.5149 24.5764 10.526 24.5016 10.5673C24.4243 10.6126 24.3681 10.6865 24.3451 10.7729C24.3222 10.8594 24.3344 10.9513 24.379 11.0289L25.984 13.839C24.5882 14.6082 23.4061 15.7119 22.5443 17.0508C21.6826 18.3896 21.1683 19.9213 21.0479 21.508H40.4059C40.2855 19.9213 39.7712 18.3896 38.9094 17.0508C38.0477 15.7119 36.8656 14.6082 35.4698 13.839" fill="#3DDC84"/>
<path d="M15.6279 45.236H45.8156C46.0219 45.2351 46.2261 45.1936 46.4164 45.1139C46.6067 45.0342 46.7794 44.9179 46.9246 44.7716C47.0699 44.6253 47.1848 44.4519 47.2629 44.2613C47.341 44.0706 47.3807 43.8665 47.3797 43.6606V25.4878" fill="#5454D4"/>
<path d="M36.5606 11.936L37.0813 11.0263C37.126 10.9488 37.1381 10.8568 37.1152 10.7704C37.0922 10.684 37.036 10.6102 36.9588 10.5649C36.9208 10.5428 36.8787 10.5286 36.8351 10.5228C36.7914 10.5171 36.7471 10.5201 36.7047 10.5316C36.6622 10.5431 36.6224 10.5629 36.5877 10.5899C36.553 10.6168 36.5239 10.6504 36.5023 10.6886L35.7861 11.936H36.5606Z" fill="#3DDB85"/>
<path d="M24.8931 11.9358H25.6676L24.9529 10.6884C24.9084 10.6132 24.8361 10.5583 24.7515 10.5358C24.667 10.5132 24.5769 10.5246 24.5007 10.5676C24.4235 10.6129 24.3673 10.6868 24.3443 10.7732C24.3214 10.8596 24.3336 10.9515 24.3782 11.029L24.8931 11.9358Z" fill="#3DDB85"/>
<path d="M22.5655 31.8945H23.1979V30.4351H24.4238V29.8514H23.1979V29.073H24.7205V28.4893H22.5655V31.8945ZM25.2144 29.0147C25.3652 29.1655 25.6182 29.1655 25.769 29.0147C25.9198 28.8638 25.9198 28.6109 25.769 28.4601C25.6182 28.3093 25.3652 28.3093 25.2144 28.4601C25.0636 28.6109 25.0636 28.8638 25.2144 29.0147ZM25.1901 31.8945H25.7933V29.4427H25.1901V31.8945ZM27.7953 31.3594C27.7223 31.3983 27.6445 31.4178 27.5618 31.4178C27.3477 31.4178 27.2407 31.3108 27.2407 31.0189V29.9584H27.8877V29.4427H27.2407V28.4504L26.6375 28.8298V29.4427H26.258V29.9584H26.6375V31.0286C26.6375 31.627 26.9731 31.9334 27.5374 31.9334C27.6785 31.9334 27.8099 31.9043 27.9363 31.8459L27.7953 31.3594ZM28.4647 31.8945H29.0679V30.9167C29.0679 30.2989 29.316 29.9195 29.6273 29.9195C29.8608 29.9195 29.9776 30.0557 29.9776 30.3232V31.8945H30.5808V30.1433C30.5808 29.6617 30.2792 29.4038 29.8268 29.4038C29.5203 29.4038 29.2673 29.5498 29.0679 29.8368V29.4427H28.4647V31.8945ZM33.4412 30.6151C33.4412 30.3378 33.3537 30.0508 33.1785 29.8125C33.0034 29.5644 32.6872 29.4038 32.298 29.4038C31.4565 29.4038 31.1208 30.0849 31.1208 30.6686C31.1208 31.2524 31.4565 31.9334 32.298 31.9334C32.8332 31.9334 33.2029 31.6951 33.412 31.2183L32.9256 31.0384C32.7796 31.2913 32.5802 31.4178 32.3321 31.4178C31.9818 31.4178 31.7678 31.16 31.7532 30.8632H33.4412V30.6151ZM32.298 29.9195C32.5802 29.9195 32.7553 30.0751 32.8234 30.3865H31.7678C31.8116 30.1287 32.011 29.9195 32.298 29.9195ZM34.7385 29.4038C34.5098 29.4038 34.3201 29.4719 34.1742 29.613C34.0282 29.7541 33.9553 29.9195 33.9553 30.1189C33.9553 30.4692 34.1401 30.6492 34.4515 30.7805C34.5439 30.8194 34.7141 30.873 34.7968 30.9119C34.8406 30.9265 34.8893 30.9459 34.9331 30.9702C35.0255 31.014 35.0644 31.0773 35.0644 31.1551C35.0644 31.3302 34.9622 31.4178 34.7628 31.4178C34.5342 31.4178 34.3688 31.2816 34.2715 31.014L33.7899 31.2719C33.8628 31.447 33.9844 31.6027 34.1547 31.734C34.325 31.8653 34.5293 31.9334 34.7628 31.9334C35.0206 31.9334 35.2298 31.8556 35.3903 31.6951C35.5509 31.5345 35.6336 31.3448 35.6336 31.1162C35.6336 30.9459 35.5557 30.8 35.4828 30.7173C35.4487 30.6735 35.3903 30.6346 35.3076 30.5908C35.2298 30.547 35.1714 30.513 35.1325 30.4984L34.9233 30.4254L34.7482 30.3622C34.5925 30.3038 34.5147 30.226 34.5147 30.1238C34.5147 29.9925 34.6168 29.9195 34.7385 29.9195C34.899 29.9195 35.0352 29.9925 35.1471 30.1335L35.5071 29.8027C35.3514 29.5644 35.0644 29.4038 34.7385 29.4038ZM36.9333 29.4038C36.7046 29.4038 36.5149 29.4719 36.369 29.613C36.223 29.7541 36.1501 29.9195 36.1501 30.1189C36.1501 30.4692 36.3349 30.6492 36.6462 30.7805C36.7387 30.8194 36.9089 30.873 36.9916 30.9119C37.0354 30.9265 37.0841 30.9459 37.1278 30.9702C37.2203 31.014 37.2592 31.0773 37.2592 31.1551C37.2592 31.3302 37.157 31.4178 36.9576 31.4178C36.7289 31.4178 36.5635 31.2816 36.4663 31.014L35.9847 31.2719C36.0576 31.447 36.1792 31.6027 36.3495 31.734C36.5198 31.8653 36.7241 31.9334 36.9576 31.9334C37.2154 31.9334 37.4246 31.8556 37.5851 31.6951C37.7457 31.5345 37.8284 31.3448 37.8284 31.1162C37.8284 30.9459 37.7505 30.8 37.6776 30.7173C37.6435 30.6735 37.5851 30.6346 37.5024 30.5908C37.4246 30.547 37.3662 30.513 37.3273 30.4984L37.1181 30.4254L36.943 30.3622C36.7873 30.3038 36.7095 30.226 36.7095 30.1238C36.7095 29.9925 36.8116 29.9195 36.9333 29.9195C37.0938 29.9195 37.23 29.9925 37.3419 30.1335L37.7019 29.8027C37.5462 29.5644 37.2592 29.4038 36.9333 29.4038ZM27.9153 35.0682C27.7207 34.6547 27.3948 34.4504 26.9326 34.4504C26.6651 34.4504 26.4462 34.5379 26.2662 34.7179C26.091 34.8979 26.0035 35.1168 26.0035 35.3746C25.9937 36.0022 26.5191 36.26 26.9229 36.4303C27.2099 36.5519 27.4288 36.7076 27.4288 36.907C27.4288 37.2037 27.2829 37.3497 26.9861 37.3497C26.6651 37.3497 26.4413 37.1211 26.31 36.6589L25.7992 36.98C25.8527 37.2475 25.9889 37.4762 26.2029 37.661C26.417 37.841 26.6748 37.9334 26.9715 37.9334C27.6331 37.9334 28.0612 37.5345 28.0612 36.873C28.0661 36.2843 27.5261 36.0314 27.1175 35.8514C26.8402 35.72 26.6067 35.5595 26.6067 35.3455C26.6067 35.1655 26.7429 35.0341 26.9326 35.0341C27.1224 35.0341 27.2829 35.1557 27.4045 35.3941L27.9153 35.0682ZM29.6879 37.8945C30.4906 37.8945 31.2738 37.3789 31.2738 36.1919C31.2738 35.0049 30.4906 34.4893 29.6879 34.4893H28.6226V37.8945H29.6879ZM29.255 35.073H29.4885C29.7852 35.073 30.0285 35.1363 30.2571 35.2919C30.4906 35.4476 30.6317 35.7589 30.6317 36.1919C30.6317 36.6249 30.4906 36.9362 30.2571 37.0919C30.0285 37.2475 29.7852 37.3108 29.4885 37.3108H29.255V35.073ZM31.8387 37.8945H32.4712V36.2697L33.7068 37.8945H34.5094L33.0306 36.0119L34.4122 34.4893H33.6338L32.4712 35.7541V34.4893H31.8387V37.8945Z" fill="white"/>
<defs>
<linearGradient id="paint0_linear_847_1397" x1="31.4885" y1="34.1056" x2="47.2933" y2="51.6578" gradientUnits="userSpaceOnUse">
<stop offset="0.2" stop-color="#E6E6E6"/>
<stop offset="1" stop-color="white" stop-opacity="0"/>
</linearGradient>
</defs>
</svg>
