<svg width="61" height="62" viewBox="0 0 61 62" fill="none" xmlns="http://www.w3.org/2000/svg">
<circle cx="30.6245" cy="30.9566" r="30.0532" fill="#E4E4E4"/>
<path d="M20.282 14.8126C23.0216 14.3618 25.9388 15.0526 28.1351 16.7125C30.3476 18.3521 31.8096 20.9124 32.0457 23.6107C32.3153 26.2966 31.3764 29.0699 29.5113 31.0701C27.5557 33.2191 24.5962 34.4564 21.6443 34.3426C18.708 34.2733 15.8511 32.8714 14.0359 30.6306C12.118 28.316 11.3965 25.1326 12.1139 22.2472C12.9833 18.4761 16.3522 15.4064 20.282 14.8126Z" fill="#4285F4"/>
<path d="M45.572 21.2922C47.0405 20.7806 48.7618 21.912 48.8308 23.4175C48.9851 24.7873 47.7387 26.0933 46.3231 26.0387C44.9115 26.0775 43.6797 24.7687 43.8403 23.4074C43.9035 22.4445 44.629 21.579 45.572 21.2922Z" fill="#34A853"/>
<path d="M37.4233 24.5813C38.8541 24.1914 40.4623 24.4455 41.6686 25.2946C43.0604 26.2333 43.8834 27.8977 43.7703 29.5412C43.6955 31.0732 42.8064 32.5275 41.4783 33.3529C39.6318 34.5361 36.9924 34.3181 35.3923 32.8306C34.008 31.6175 33.4373 29.619 33.9854 27.8875C34.4453 26.3065 35.7937 25.0162 37.4233 24.5813Z" fill="#EA4335"/>
<path d="M37.6414 35.9838C40.7871 35.2806 44.1745 37.5907 44.566 40.7015C45.1349 43.7677 42.6354 46.9331 39.4398 47.1889C36.3783 47.6059 33.3063 45.2569 32.9943 42.2723C32.5465 39.4112 34.7132 36.4875 37.6414 35.9838Z" fill="#FBBC05"/>
</svg>
