<svg width="129" height="66" viewBox="0 0 129 66" fill="none" xmlns="http://www.w3.org/2000/svg">
<g clip-path="url(#clip0_1559_9791)">
<path d="M61.027 32.6465V47.4401H56.334V10.9065H68.781C70.2667 10.8755 71.7438 11.139 73.1272 11.6818C74.5106 12.2247 75.7728 13.0361 76.8409 14.0692C77.9197 15.0397 78.7784 16.2299 79.3592 17.5598C79.9399 18.8896 80.2292 20.3285 80.2077 21.7794C80.2386 23.2381 79.9537 24.6863 79.3726 26.0247C78.7914 27.363 77.9278 28.56 76.8409 29.5333C74.6644 31.6088 71.9777 32.6456 68.781 32.6436H61.027V32.6465ZM61.027 15.4043V28.1574H68.8976C69.7604 28.1829 70.6191 28.0282 71.4186 27.7029C72.2183 27.3776 72.9412 26.8892 73.5411 26.2685C74.138 25.6882 74.6124 24.9942 74.9364 24.2274C75.2603 23.4606 75.4272 22.6366 75.4272 21.8042C75.4272 20.9718 75.2603 20.1478 74.9364 19.3811C74.6124 18.6143 74.138 17.9201 73.5411 17.3399C72.9486 16.7062 72.2283 16.2057 71.4277 15.8715C70.6272 15.5373 69.7647 15.377 68.8976 15.4014H61.027V15.4043Z" fill="white"/>
<path d="M91.0234 21.6273C94.4922 21.6273 97.2304 22.5543 99.2378 24.4082C101.245 26.2621 102.248 28.8041 102.246 32.0338V47.4395H97.757V43.9707H97.5529C95.6096 46.8274 93.025 48.2557 89.7991 48.2557C87.0454 48.2557 84.7415 47.4395 82.8876 45.8072C81.9979 45.058 81.2865 44.1197 80.8055 43.0607C80.3245 42.0016 80.0857 40.8486 80.1067 39.6857C80.1067 37.0991 81.0842 35.0422 83.0393 33.5146C84.9942 31.9872 87.6041 31.2215 90.8688 31.2177C93.6556 31.2177 95.9506 31.7277 97.754 32.7479V31.6752C97.7594 30.8825 97.5882 30.0984 97.2529 29.38C96.9177 28.6615 96.4266 28.0266 95.8156 27.5215C94.5745 26.4018 92.9571 25.7907 91.2857 25.8103C88.6642 25.8103 86.5896 26.916 85.0622 29.1276L80.9287 26.5245C83.2024 23.2598 86.5673 21.6273 91.0234 21.6273ZM84.9514 39.7877C84.9482 40.3849 85.0879 40.9744 85.3586 41.5068C85.6294 42.0392 86.0235 42.4992 86.508 42.8485C87.546 43.665 88.8343 44.0975 90.1547 44.0727C92.1351 44.0695 94.0334 43.2811 95.4338 41.8806C96.9884 40.4173 97.7657 38.7004 97.7657 36.7299C96.3024 35.5639 94.2619 34.9809 91.6442 34.9809C89.7378 34.9809 88.1483 35.4405 86.8753 36.3597C85.5898 37.2925 84.9514 38.4264 84.9514 39.7877Z" fill="white"/>
<path d="M128.013 22.4435L112.342 58.4582H107.497L113.312 45.8567L103.008 22.4435H108.109L115.557 40.3999H115.659L122.903 22.4435H128.013Z" fill="white"/>
<path d="M42.0626 29.4571C42.0642 28.0268 41.9433 26.5991 41.701 25.1896H21.9082V33.2728H33.2446C33.0126 34.5639 32.5217 35.7945 31.8013 36.8907C31.0808 37.9868 30.146 38.9257 29.0529 39.6508V44.8978H35.8186C39.78 41.2454 42.0626 35.8438 42.0626 29.4571Z" fill="white"/>
<path d="M21.9083 49.9673C27.5722 49.9673 32.3411 48.1075 35.8187 44.9011L29.053 39.6541C27.17 40.9309 24.7447 41.6596 21.9083 41.6596C16.434 41.6596 11.7875 37.9693 10.126 32.9963H3.15625V38.4036C4.90311 41.8796 7.58172 44.8017 10.893 46.8438C14.2043 48.8858 18.018 49.9672 21.9083 49.9673Z" fill="white"/>
<path d="M10.1245 32.996C9.24611 30.3902 9.24611 27.5682 10.1245 24.9623V19.5549H3.15477C1.68525 22.4792 0.919922 25.7065 0.919922 28.9792C0.919922 32.2518 1.68525 35.4791 3.15477 38.4033L10.1245 32.996Z" fill="#E0E0E0"/>
<path d="M21.9083 16.2989C24.9014 16.2499 27.7935 17.3808 29.9596 19.447L35.9499 13.4567C32.1514 9.889 27.1193 7.93026 21.9083 7.99112C18.018 7.9913 14.2043 9.07275 10.893 11.1147C7.58172 13.1567 4.90311 16.0788 3.15625 19.5549L10.126 24.9622C11.7875 19.9892 16.434 16.2989 21.9083 16.2989Z" fill="white"/>
</g>
<defs>
<clipPath id="clip0_1559_9791">
<rect width="128.377" height="65.4721" fill="white" transform="translate(0.279297 0.487793)"/>
</clipPath>
</defs>
</svg>
