<svg width="67" height="66" viewBox="0 0 67 66" fill="none" xmlns="http://www.w3.org/2000/svg">
<g clip-path="url(#clip0_1559_9764)">
<path d="M27.5025 11.7975H45.9538L55.2616 27.9017H65.8912C63.4714 12.2067 49.8928 0.188721 33.5031 0.188721C29.358 0.188721 25.3967 0.964953 21.7461 2.36748L27.5022 11.7977" fill="white"/>
<path d="M55.757 37.6018L45.9557 54.5594H21.24L8.88237 33.1789L18.7552 16.0974L13.3005 7.16064C5.65225 13.1537 0.732422 22.4625 0.732422 32.9252C0.732422 51.0049 15.4053 65.6614 33.505 65.6614C50.0146 65.6614 63.6666 53.4652 65.9392 37.6018H55.7568" fill="white"/>
<path d="M45.1237 32.8384C45.1237 39.2956 39.8835 44.5299 33.4192 44.5299C26.9548 44.5299 21.7148 39.2956 21.7148 32.8384C21.7148 26.3813 26.9551 21.1469 33.4192 21.1469C39.8835 21.1469 45.1237 26.3813 45.1237 32.8384Z" fill="white"/>
</g>
<defs>
<clipPath id="clip0_1559_9764">
<rect width="65.4721" height="65.4721" fill="white" transform="translate(0.732422 0.188721)"/>
</clipPath>
</defs>
</svg>
