<svg width="1728" height="176" viewBox="0 0 1728 176" fill="none" xmlns="http://www.w3.org/2000/svg">
<path d="M1759 175.438L1759 166.574C1755.21 162.143 1752.05 157.711 1750.16 153.912C1737.53 129.855 1736.27 112.128 1738.8 85.5382C1740.69 64.6461 1753.95 26.0274 1738.8 7.66771C1728.06 -4.99415 1715.43 -1.1956 1709.75 13.3656C1700.91 37.4231 1714.17 65.2792 1713.54 89.3368C1712.91 112.761 1693.34 124.157 1669.97 120.358C1644.72 116.56 1639.67 95.0346 1639.04 73.5094C1638.4 62.1138 1645.98 29.1929 1639.04 19.6965C1635.25 14.6317 1628.93 12.0994 1623.88 16.531C1615.04 23.4951 1623.25 50.7181 1623.25 60.2145C1622.62 83.6389 1621.36 114.661 1597.36 126.689C1565.79 142.517 1558.22 116.56 1563.27 91.2361C1565.79 80.4735 1569.58 32.9915 1544.96 51.3512C1535.49 58.3152 1540.54 73.5095 1541.8 82.3728C1544.33 97.567 1544.33 109.596 1535.49 123.524C1529.8 132.387 1520.33 143.15 1508.97 142.517C1493.81 141.884 1491.92 128.589 1483.71 119.092C1474.24 107.697 1472.35 105.164 1464.77 118.459C1457.83 130.488 1457.19 136.186 1442.04 139.351C1433.83 141.25 1411.73 148.215 1404.79 142.517C1395.32 135.553 1401 124.79 1402.26 115.294C1403.53 108.33 1406.05 89.9699 1390.9 93.7685C1380.16 96.3008 1392.79 119.725 1387.11 129.222C1378.9 143.15 1350.49 138.085 1342.91 126.056C1334.7 112.761 1339.75 89.3368 1342.28 74.7757C1344.81 60.2145 1349.86 43.121 1346.07 27.9267C1337.86 -4.36103 1318.29 22.2289 1318.92 43.121C1319.55 70.9771 1331.55 98.8332 1322.08 125.423C1316.39 140.617 1293.03 167.207 1273.46 153.912C1256.41 142.517 1270.3 104.531 1272.2 88.7037C1273.46 77.9411 1277.25 59.5814 1270.93 49.4519C1265.25 40.5886 1258.31 39.9555 1254.52 51.3512C1251.36 60.8476 1260.2 79.8404 1260.83 89.9699C1262.09 100.733 1263.36 113.394 1259.57 124.157C1248.2 159.61 1237.47 108.963 1219.79 120.358C1210.95 126.056 1192.64 179.869 1181.28 139.984C1177.49 126.056 1189.48 90.603 1176.86 83.639C1150.34 69.0778 1167.38 128.589 1162.96 134.286C1143.39 159.61 1133.29 110.229 1124.45 108.33C1104.88 103.898 1106.77 158.344 1073.31 136.819C1062.57 129.855 1055 115.927 1053.1 103.898C1050.58 89.9699 1059.42 75.4088 1056.89 62.1138C1050.58 34.8908 1029.11 52.6174 1029.11 72.8764C1029.11 89.9699 1048.05 125.423 1020.27 130.488C992.489 136.186 974.178 108.33 971.021 86.8045C969.127 74.1426 980.492 17.7973 962.813 15.2649C936.926 11.4663 983.018 114.661 932.506 115.294C902.831 115.927 914.827 89.3369 907.882 73.5095C901.568 58.3153 894.623 67.1786 893.36 78.5743C891.466 90.603 899.042 98.8333 885.152 105.797C847.9 124.157 847.9 71.6102 850.425 51.9843C852.319 39.3225 861.159 -1.19552 837.797 0.703755C794.231 3.86922 855.476 107.697 807.49 119.092C777.815 126.689 768.975 96.3009 767.713 74.1426C767.081 63.38 775.289 22.862 763.924 16.5311C741.825 3.86923 751.928 60.8477 751.296 69.711C750.034 95.0347 743.72 130.488 710.887 131.754C681.212 133.02 690.683 102.632 693.84 84.2721C696.365 70.3441 685.631 29.8261 669.847 56.416C662.901 68.4448 671.741 82.3728 671.741 94.4016C671.741 105.164 669.215 114.661 663.533 123.524C657.219 133.653 645.222 145.682 631.332 141.884C615.547 138.085 616.81 115.927 605.444 110.862C593.448 105.797 595.342 116.56 590.922 124.157C583.346 137.452 577.663 137.452 563.141 139.351C554.302 140.617 540.411 148.848 532.203 142.517C517.681 131.754 536.623 114.661 531.572 101.366C527.783 91.8693 518.312 90.6031 513.892 99.4664C509.473 108.33 520.838 120.992 515.787 129.855C506.947 145.682 476.64 137.452 470.326 123.524C455.804 93.1355 491.162 47.5527 471.589 20.3297C452.647 -5.62714 446.965 38.0563 447.596 50.7182C450.122 77.9412 460.855 107.064 447.596 133.653C439.388 149.481 410.344 169.74 397.716 148.848C385.088 128.589 405.924 86.8045 402.767 64.0131C399.61 36.157 380.668 43.1211 385.72 69.0779C388.245 81.1067 400.873 132.387 381.931 139.351C358.57 148.215 364.252 93.7686 340.891 136.819C327 162.776 309.952 156.445 308.058 129.222C307.427 119.725 311.847 109.596 310.584 100.099C309.321 88.0707 299.219 76.675 289.748 91.8693C283.434 101.999 306.164 157.711 271.437 138.085C255.021 128.589 261.335 96.934 241.131 120.992C232.922 130.488 230.397 143.783 215.875 144.416C201.984 145.049 190.619 129.855 185.568 118.459C177.36 100.1 195.039 65.2794 179.885 53.2506C153.367 32.3585 160.944 88.0707 162.838 96.934C166.626 121.625 156.524 142.517 128.111 128.589C102.224 115.294 100.961 79.8405 102.224 55.1499C102.224 50.0851 106.012 -4.99403 86.4392 22.229C78.8625 32.9916 87.0705 70.9772 85.8077 83.006C83.9136 101.366 78.2311 117.826 58.658 122.258C30.2452 128.589 10.0405 112.761 11.9347 85.5384C13.1975 63.3801 23.2998 36.7902 15.0917 15.265C8.77769 -1.82854 -7.63857 -2.46164 -16.478 13.9988C-26.5803 33.6247 -16.4779 66.5456 -13.9523 87.4377C-11.4268 114.028 -12.6896 131.754 -25.3175 155.812C-25.3175 155.812 -24.686 155.179 -24.686 154.546C-23.4232 152.013 -22.7919 150.114 -22.1605 149.481L-22.1605 148.848C-21.5292 147.582 -21.5292 147.582 -22.1605 148.848L-22.1605 149.481L-24.686 154.546C-24.686 155.179 -25.3175 155.179 -25.3175 155.812C-26.5803 158.344 -28.4744 160.877 -30.3685 163.409L-30.3685 175.438L1759 175.438Z" fill="#F3F6FF"/>
</svg>
