<svg width="573" height="32" viewBox="0 0 573 32" fill="none" xmlns="http://www.w3.org/2000/svg">
<rect y="14" width="508" height="4" rx="2" fill="#1D4354"/>
<path d="M573 16.0005C573 15.611 572.758 15.0935 572.512 14.8421L558.645 0.525541C557.997 -0.124728 556.949 -0.199917 556.194 0.45975C555.519 1.05011 555.502 2.20084 556.126 2.84175L567.257 14.3158H522.733C521.776 14.3158 521 15.0701 521 15.9999C521 16.9304 521.776 17.684 522.733 17.684H567.257L556.126 29.1581C555.503 29.7989 555.547 30.9216 556.194 31.5395C556.877 32.1921 558.008 32.1339 558.645 31.4737L572.512 17.1578C572.919 16.7695 572.993 16.3953 573 16V16.0005Z" fill="#6BB64A"/>
</svg>
