<svg width="338" height="13" viewBox="0 0 338 13" fill="none" xmlns="http://www.w3.org/2000/svg">
<path d="M7.32739 6.09469C9.97373 6.10347 12.7465 6.04013 15.3932 5.97637C16.5273 5.98014 17.536 5.91094 18.6701 5.9147C23.4595 5.78552 28.249 5.65633 33.0384 5.52713C38.8361 5.40129 44.508 5.20249 50.3055 5.07664C58.4983 4.81367 66.6906 4.62323 74.8834 4.36025C76.774 4.29398 78.6642 4.30026 80.5548 4.23398C85.3444 4.1048 90.1338 3.97561 94.9229 3.91896C99.7123 3.78977 104.502 3.66058 109.291 3.60394C111.181 3.53767 113.072 3.4714 114.962 3.47767C122.524 3.35769 130.212 3.23811 137.774 3.11813C142.437 3.06107 147.1 3.004 151.889 2.87481C153.779 2.88108 155.544 2.8144 157.435 2.82067C164.744 2.77239 172.179 2.72453 179.488 2.67624C186.797 2.62796 193.981 2.57927 201.29 2.53099C203.18 2.53726 205.071 2.54353 207.087 2.55022C211.875 2.56612 216.538 2.58159 221.327 2.59749C228.761 2.62216 236.07 2.64643 243.506 2.59856C245.901 2.60651 248.295 2.61446 250.689 2.6224C255.73 2.63914 260.77 2.65587 265.81 2.6726C266.189 2.67385 266.693 2.67553 267.072 2.67678C255.729 2.71168 244.261 2.74616 232.919 2.8536C228.13 2.91024 223.468 2.89477 218.679 2.95142C216.662 2.94472 214.52 2.93761 212.503 3.00346C205.572 3.053 198.766 3.17549 191.835 3.22503C183.895 3.34377 175.955 3.38996 168.016 3.50869C166.63 3.50409 165.37 3.57245 163.983 3.56785C159.698 3.69871 155.538 3.75745 151.253 3.88831C142.683 4.0775 134.113 4.26667 125.542 4.45586C124.282 4.45167 123.021 4.52003 121.761 4.5884C117.601 4.71968 113.316 4.92308 109.156 5.05436C101.594 5.31944 94.1569 5.58493 86.5943 5.85C84.5776 5.91584 82.4345 6.05381 80.4179 6.11967C75.628 6.3214 70.8381 6.52313 66.0478 6.7974C59.9973 7.06749 53.8209 7.33717 47.7704 7.60726C39.3247 8.01451 30.7532 8.4213 22.3076 8.82853C20.2909 8.89442 18.2738 9.03276 16.1311 9.09821C12.4753 9.30369 8.81964 9.50917 5.16391 9.71464C4.78586 9.7134 4.40696 9.85725 4.40527 10.1474C4.40399 10.3651 4.78078 10.584 5.15882 10.5852C6.54499 10.5898 7.80473 10.6665 9.1909 10.6711C8.93675 11.033 8.80946 11.2502 8.80819 11.4678C8.80352 12.2658 9.93342 12.9949 11.4456 13C21.9071 12.672 32.2429 12.2711 42.7039 12.0156C51.7783 11.8281 60.8532 11.568 69.9275 11.3805C79.8845 11.1234 89.9675 10.8667 99.924 10.6821C103.075 10.62 106.226 10.558 109.377 10.4233C110.259 10.4263 111.141 10.3567 112.15 10.3599C128.28 10.1959 144.412 9.95928 160.544 9.79518C169.114 9.6785 177.81 9.56236 186.379 9.51822C189.531 9.45615 192.554 9.46619 195.706 9.40412C212.215 9.31381 228.724 9.2235 245.233 9.13319C252.289 9.08409 259.346 9.03498 266.404 8.98588C272.453 8.9334 278.501 8.95347 284.552 8.82844C289.593 8.77267 294.508 8.64392 299.549 8.58806C302.07 8.52386 304.59 8.5323 306.985 8.46765C312.657 8.26883 318.329 8.0701 324 7.87126C323.621 8.16014 323.619 8.59543 323.742 8.88598C323.867 9.24916 324.243 9.5406 324.873 9.68774C325.376 9.83452 326.13 9.9821 326.636 9.8387C327.897 9.55268 329.16 9.26675 330.295 8.98028C330.295 8.98028 330.295 8.98028 330.17 8.97993C330.295 8.98028 330.296 8.90774 330.422 8.90818C330.548 8.90862 330.674 8.83652 330.674 8.83652L330.548 8.83608C331.179 8.69311 331.811 8.55006 332.567 8.33499C333.198 8.19193 333.956 7.97685 334.586 7.83386C335.344 7.61874 335.975 7.4032 336.733 7.18809C337.49 6.97297 337.998 6.3943 338 5.88651C338.002 5.59634 337.877 5.37829 337.627 5.08729C337.376 4.79628 336.749 4.43148 336.119 4.35685C335.489 4.28222 334.86 4.20759 334.229 4.20549C334.104 4.20507 333.978 4.20465 333.852 4.20424C333.474 4.20299 332.969 4.20131 332.591 4.27259C331.583 4.34179 330.7 4.4114 329.692 4.40806C328.936 4.40555 328.179 4.47558 327.297 4.47266C325.154 4.53808 323.138 4.60394 320.995 4.74191C320.49 4.74023 319.86 4.81069 319.356 4.80902C319.609 4.66476 319.736 4.5201 319.737 4.37501C319.863 4.23034 319.864 4.08527 319.866 3.94018C319.866 3.86764 319.867 3.72255 319.993 3.65043C319.994 3.50534 319.994 3.36026 319.869 3.2873C319.869 3.2873 319.995 3.28772 319.995 3.21518C320.375 3.07135 320.753 2.92752 321.007 2.63818C321.26 2.42139 321.388 2.13164 321.39 1.84148C321.392 1.55131 321.267 1.33326 321.016 1.04226C320.891 0.969293 320.766 0.823797 320.64 0.750832C320.263 0.531953 319.886 0.458153 319.508 0.384362C318.753 0.236761 317.871 0.161292 316.988 0.158371C316.233 0.155858 315.602 0.153762 314.847 0.151258C313.839 0.14791 312.83 0.144562 311.822 0.141215C310.436 0.136615 308.924 0.131598 307.538 0.126998C303.757 0.114451 299.977 0.101895 296.196 0.0893477C292.668 0.0776352 289.013 0.0655053 285.485 0.0537928C282.208 0.0429239 279.058 0.0324635 275.782 0.0215857C262.802 -0.0214965 249.949 0.00838149 236.969 0.0378358C227.264 0.0781769 217.561 0.118509 207.857 0.0863019C203.572 0.0720764 199.162 0.129982 194.877 0.188304C185.173 0.301176 175.47 0.341508 165.766 0.454388C162.993 0.445189 160.22 0.508528 157.447 0.49932C155.809 0.493885 154.297 0.561408 152.658 0.555973C143.08 0.74181 133.502 0.927647 123.923 1.11348C121.024 1.17641 118.126 1.23932 115.101 1.30182C113.463 1.29639 111.824 1.3635 110.186 1.4306C100.607 1.68898 91.1537 1.94778 81.5749 2.20615C76.6595 2.33492 71.7439 2.4637 66.8281 2.66501C58.3833 2.92715 49.9385 3.18929 41.6193 3.5244C34.3088 3.79031 26.9986 3.98367 19.6884 4.17704C18.5538 4.24582 17.4197 4.24206 16.1591 4.31041C14.2685 4.37668 12.3782 4.37041 10.4875 4.43668C8.84764 4.72141 7.08342 4.71555 5.44521 4.71011C5.32089 4.41952 4.81811 4.20022 4.43964 4.27151C3.30549 4.26775 2.29694 4.33695 1.16237 4.40572C0.657889 4.47659 0.152976 4.62 0.0252638 4.90975C-0.102873 5.27204 0.273053 5.63601 0.776692 5.71023C1.28033 5.78444 1.78397 5.85865 2.28761 5.93287C2.79124 6.00709 3.16929 6.00834 3.67336 6.01001C4.93309 6.08674 6.06724 6.09051 7.32739 6.09469ZM302.218 4.75212C303.73 4.75715 305.369 4.76258 306.881 4.7676C307.005 4.98564 307.257 5.13157 307.508 5.27749C306.878 5.2754 306.247 5.34584 305.744 5.34418C304.608 5.34041 303.475 5.40918 302.341 5.40542C297.299 5.46124 292.384 5.59 287.343 5.64581C285.074 5.71083 282.805 5.77584 280.537 5.76831C277.008 5.7566 273.354 5.81702 269.825 5.8053C261.634 5.85065 253.568 5.89643 245.376 5.94178C229.498 6.03416 213.745 6.12696 197.866 6.21934C186.525 6.25423 175.182 6.43422 163.84 6.61419C146.825 6.8479 129.686 7.00864 112.672 7.24233C109.269 7.30359 105.866 7.36483 102.463 7.49862C92.758 7.75658 83.0536 7.942 73.3486 8.19993C63.8957 8.45877 54.3173 8.64463 44.8644 8.90338C43.9823 8.90045 43.0998 8.97007 42.2176 8.96714C44.7388 8.83039 47.3855 8.76664 49.9068 8.62998C58.856 8.29698 67.8056 7.8914 76.7549 7.55838C79.9062 7.42375 83.0573 7.28912 86.0826 7.15408C87.7212 7.08697 89.3598 7.01987 90.872 7.02489C100.325 6.76609 109.652 6.43433 118.979 6.17512C120.744 6.10843 122.634 6.04216 124.399 5.97548C127.045 5.91172 129.693 5.84796 132.213 5.85633C141.791 5.67049 151.37 5.48465 160.948 5.29882C163.091 5.23339 165.233 5.24049 167.25 5.17465C167.754 5.17632 168.383 5.17842 168.888 5.18009C170.4 5.1851 171.913 5.19013 173.299 5.12218C182.877 5.00889 192.581 4.96855 202.159 4.85526C206.57 4.79736 210.981 4.73946 215.391 4.75409C229.631 4.72882 243.997 4.70396 258.238 4.67869C273.108 4.72804 287.726 4.70402 302.218 4.75212Z" fill="#6BB64A"/>
</svg>
