<svg width="28" height="21" viewBox="0 0 28 21" fill="none" xmlns="http://www.w3.org/2000/svg">
<path d="M-1.45396e-06 10.6277C-1.43125e-06 10.1081 0.492869 9.68663 1.09964 9.68663L24.3934 9.68631L14.9529 1.60711C14.7385 1.42296 14.6311 1.18268 14.6311 0.941745C14.6311 0.700811 14.7385 0.459875 14.9529 0.27573C15.3825 -0.0919081 16.0786 -0.091908 16.5086 0.27573L27.6778 9.8343C28.1074 10.2019 28.1074 10.7977 27.6778 11.1657L16.5086 20.7243C16.079 21.0919 15.3829 21.0919 14.9529 20.7243C14.5233 20.3566 14.5233 19.7609 14.9529 19.3929L24.0961 11.5688L1.09983 11.5688C0.492661 11.5688 0.00019498 11.147 0.000195003 10.6277L-1.45396e-06 10.6277Z" fill="#6BB64A"/>
</svg>
