<svg width="74" height="66" viewBox="0 0 74 66" fill="none" xmlns="http://www.w3.org/2000/svg">
<path d="M12.8769 49.2719C9.03063 46.2003 9.03063 41.2203 12.8769 38.1487L30.0053 24.4699C33.8515 21.3984 40.0875 21.3984 43.9336 24.4699L61.0621 38.1487C64.9084 41.2203 64.9084 46.2003 61.0621 49.2719L43.9336 62.9505C40.0875 66.0221 33.8515 66.0221 30.0053 62.9505L12.8769 49.2719Z" fill="#ADB0B5"/>
<g filter="url(#filter0_d_1_4516)">
<path d="M12.8769 41.3767C9.03063 38.3051 9.03063 33.3252 12.8769 30.2536L30.0053 16.5749C33.8515 13.5033 40.0875 13.5033 43.9336 16.5749L61.0621 30.2536C64.9084 33.3252 64.9084 38.3051 61.0621 41.3767L43.9336 55.0555C40.0875 58.1271 33.8515 58.1271 30.0053 55.0555L12.8769 41.3767Z" fill="#CCCED0"/>
</g>
<g filter="url(#filter1_d_1_4516)">
<path d="M12.8769 32.668C9.03063 29.5964 9.03063 24.6165 12.8769 21.5449L30.0053 7.86618C33.8515 4.79461 40.0875 4.79461 43.9336 7.86618L61.0621 21.5449C64.9084 24.6165 64.9084 29.5964 61.0621 32.668L43.9336 46.3468C40.0875 49.4184 33.8515 49.4184 30.0053 46.3468L12.8769 32.668Z" fill="white"/>
</g>
<g filter="url(#filter2_d_1_4516)">
<path fill-rule="evenodd" clip-rule="evenodd" d="M30.2454 8.05796L13.117 21.7367C9.40346 24.7023 9.40346 29.5106 13.117 32.4762L30.2454 46.155C33.9591 49.1206 39.9799 49.1206 43.6935 46.155L60.822 32.4762C64.5355 29.5106 64.5355 24.7023 60.822 21.7367L43.6935 8.05796C39.9799 5.0923 33.9591 5.0923 30.2454 8.05796ZM12.8769 21.5449C9.03063 24.6165 9.03063 29.5964 12.8769 32.668L30.0053 46.3468C33.8515 49.4184 40.0875 49.4184 43.9336 46.3468L61.0621 32.668C64.9084 29.5964 64.9084 24.6165 61.0621 21.5449L43.9336 7.86618C40.0875 4.79461 33.8515 4.79461 30.0053 7.86618L12.8769 21.5449Z" fill="#CCCED0"/>
</g>
<path fill-rule="evenodd" clip-rule="evenodd" d="M31.0467 17.2396C26.5504 17.1948 24.0777 20.8074 25.4223 23.7914C26.1103 25.318 27.7808 26.6672 30.6126 27.3214C33.4353 27.9734 37.4072 27.9358 42.7385 26.722C42.7835 26.7119 42.8189 26.6878 42.8396 26.6574C42.8776 26.641 42.9077 26.6127 42.9205 26.5768C44.4402 22.3192 44.4874 19.1473 43.6709 16.893C42.8518 14.6315 41.1624 13.2975 39.2506 12.7481C35.5142 11.6743 30.9907 13.6487 31.0467 17.2396Z" fill="#1D4354"/>
<defs>
<filter id="filter0_d_1_4516" x="7.57514" y="13.0627" width="58.7887" height="47.922" filterUnits="userSpaceOnUse" color-interpolation-filters="sRGB">
<feFlood flood-opacity="0" result="BackgroundImageFix"/>
<feColorMatrix in="SourceAlpha" type="matrix" values="0 0 0 0 0 0 0 0 0 0 0 0 0 0 0 0 0 0 127 0" result="hardAlpha"/>
<feOffset dy="1.20852"/>
<feGaussianBlur stdDeviation="1.20852"/>
<feComposite in2="hardAlpha" operator="out"/>
<feColorMatrix type="matrix" values="0 0 0 0 0 0 0 0 0 0 0 0 0 0 0 0 0 0 0.1 0"/>
<feBlend mode="normal" in2="BackgroundImageFix" result="effect1_dropShadow_1_4516"/>
<feBlend mode="normal" in="SourceGraphic" in2="effect1_dropShadow_1_4516" result="shape"/>
</filter>
<filter id="filter1_d_1_4516" x="7.57514" y="4.35398" width="58.7887" height="47.922" filterUnits="userSpaceOnUse" color-interpolation-filters="sRGB">
<feFlood flood-opacity="0" result="BackgroundImageFix"/>
<feColorMatrix in="SourceAlpha" type="matrix" values="0 0 0 0 0 0 0 0 0 0 0 0 0 0 0 0 0 0 127 0" result="hardAlpha"/>
<feOffset dy="1.20852"/>
<feGaussianBlur stdDeviation="1.20852"/>
<feComposite in2="hardAlpha" operator="out"/>
<feColorMatrix type="matrix" values="0 0 0 0 0 0 0 0 0 0 0 0 0 0 0 0 0 0 0.1 0"/>
<feBlend mode="normal" in2="BackgroundImageFix" result="effect1_dropShadow_1_4516"/>
<feBlend mode="normal" in="SourceGraphic" in2="effect1_dropShadow_1_4516" result="shape"/>
</filter>
<filter id="filter2_d_1_4516" x="0.324004" y="0.728408" width="73.291" height="62.4243" filterUnits="userSpaceOnUse" color-interpolation-filters="sRGB">
<feFlood flood-opacity="0" result="BackgroundImageFix"/>
<feColorMatrix in="SourceAlpha" type="matrix" values="0 0 0 0 0 0 0 0 0 0 0 0 0 0 0 0 0 0 127 0" result="hardAlpha"/>
<feOffset dy="4.83409"/>
<feGaussianBlur stdDeviation="4.83409"/>
<feComposite in2="hardAlpha" operator="out"/>
<feColorMatrix type="matrix" values="0 0 0 0 0 0 0 0 0 0 0 0 0 0 0 0 0 0 0.1 0"/>
<feBlend mode="normal" in2="BackgroundImageFix" result="effect1_dropShadow_1_4516"/>
<feBlend mode="normal" in="SourceGraphic" in2="effect1_dropShadow_1_4516" result="shape"/>
</filter>
</defs>
</svg>
