<svg width="142" height="71" viewBox="0 0 142 71" fill="none" xmlns="http://www.w3.org/2000/svg">
<g opacity="0.9" clip-path="url(#clip0_1559_10089)">
<path d="M24.6291 23.9561C18.6418 23.9561 13.7949 28.8028 13.7949 34.7901C13.7949 40.7776 18.6418 45.6244 24.6291 45.6244C30.6164 45.6244 35.4634 40.7776 35.4634 34.7901C35.4443 28.8028 30.5785 23.9561 24.6291 23.9561Z" fill="white"/>
<path d="M40.1626 24.9266C42.892 24.9266 45.1045 22.714 45.1045 19.9846C45.1045 17.2553 42.892 15.0427 40.1626 15.0427C37.4333 15.0427 35.2207 17.2553 35.2207 19.9846C35.2207 22.714 37.4333 24.9266 40.1626 24.9266Z" fill="white"/>
<path d="M46.2228 24.9255L46.0327 24.4885L45.7095 24.8876C44.9113 25.8 43.8659 26.5033 42.7254 26.9213L42.4024 27.0544L42.5353 27.3776C43.5427 29.7534 44.0179 32.2625 44.0179 34.8094C44.0179 45.5107 35.3125 54.2351 24.5923 54.2351C13.8722 54.2351 5.20479 45.5107 5.20479 34.8094C5.20479 24.1082 13.9102 15.4029 24.6303 15.4029C27.5385 15.4029 30.3136 16.0682 32.9366 17.2846L33.2218 17.4177L33.3547 17.0945C33.849 15.973 34.5713 14.9847 35.5597 14.2054L35.9588 13.8823L35.5215 13.6542C32.1192 11.9055 28.4698 10.9932 24.6303 10.9932C11.5343 10.9932 0.871094 21.6563 0.871094 34.7524C0.871094 47.8485 11.5343 58.5117 24.6303 58.5117C37.7265 58.5117 48.3896 47.8485 48.3896 34.7524C48.3706 31.3501 47.6483 28.0618 46.2228 24.9255Z" fill="white"/>
<path d="M65.6293 24.4341H60.6113V45.1142H65.6293V24.4341Z" fill="white"/>
<path d="M119.686 24.4341H114.668V45.1142H119.686V24.4341Z" fill="white"/>
<path d="M103.091 23.9587C99.5746 23.9587 96.8566 26.0876 96.2484 26.6768L95.9062 24.453H91.7246V45.1329H96.7426V32.6262C96.7426 30.1552 100.069 28.1783 102.54 28.1783C104.935 28.1783 106.816 30.4973 106.816 33.2915V45.152H111.834V33.7856C111.777 28.3305 109.439 23.9587 103.091 23.9587Z" fill="white"/>
<path d="M132.805 41.3693C129.023 41.3693 126.552 38.442 126.552 34.7737C126.552 31.1052 129.042 28.1781 132.805 28.1781C135.998 28.1781 137.956 31.2763 137.956 31.2763L141.568 28.8623C140.541 27.2468 139.325 26.2773 137.652 25.2699C136.436 24.5287 134.763 23.9014 132.938 23.9014C126.685 23.9014 121.895 28.6152 121.838 34.7356C121.857 40.8371 126.647 45.5698 132.938 45.5698C134.782 45.5698 136.436 44.9617 137.652 44.2014C139.287 43.194 140.541 42.2245 141.568 40.609L137.956 38.1951C137.956 38.2521 136.018 41.3693 132.805 41.3693Z" fill="white"/>
<path d="M78.6741 23.9587C72.3636 23.9587 67.8398 28.9007 67.8398 34.6789C67.8398 40.5712 72.2305 45.6081 78.7691 45.6081C84.6804 45.6081 89.4892 41.0844 89.4892 34.812C89.4892 27.6461 83.8822 23.9587 78.6741 23.9587ZM78.7501 28.2354C81.8483 28.2354 84.7945 30.7444 84.7945 34.8309C84.7945 38.8036 81.8674 41.4076 78.712 41.4076C75.2907 41.4076 72.5727 38.6325 72.5727 34.812C72.5727 31.0105 75.2527 28.2354 78.7501 28.2354Z" fill="white"/>
</g>
<defs>
<clipPath id="clip0_1559_10089">
<rect width="140.712" height="70.3559" fill="white" transform="translate(0.871094)"/>
</clipPath>
</defs>
</svg>
