<svg width="58" height="58" viewBox="0 0 58 58" fill="none" xmlns="http://www.w3.org/2000/svg">
<circle cx="29" cy="29" r="29" fill="#449620"/>
<path d="M36.1073 38.9246C39.4884 36.2804 39.2716 31.729 39.2716 31.6855C39.2716 31.4254 39.3582 31.1221 39.5317 30.9053C39.705 30.6884 39.9652 30.5585 40.2687 30.5585H40.3553C40.9187 30.5585 41.3524 30.9919 41.3957 31.5556C41.3957 31.7724 41.6992 37.1907 37.4078 40.572C37.2345 40.7019 36.9744 40.7888 36.7575 40.7888C36.454 40.7888 36.1505 40.6588 35.934 40.3987C35.5872 39.9652 35.6305 39.2716 36.1073 38.9248L36.1073 38.9246Z" fill="white"/>
<path d="M17.293 31.5556C17.3363 30.9922 17.7697 30.5585 18.3334 30.5585H18.42C18.6802 30.5585 18.9401 30.6884 19.157 30.9053C19.3303 31.1221 19.4171 31.3821 19.4171 31.6422C19.4171 31.6855 19.2438 36.2371 22.5814 38.8813C23.0149 39.2281 23.1015 39.9217 22.7547 40.3551C22.5379 40.6153 22.2346 40.7453 21.9312 40.7453C21.7143 40.7453 21.4544 40.6586 21.2809 40.5284C17.0328 37.2339 17.293 31.8152 17.293 31.5555L17.293 31.5556Z" fill="white"/>
<path d="M26.0957 33.5063C26.0957 35.5412 27.5513 37.1907 29.3467 37.1907C31.1421 37.1907 32.5977 35.5411 32.5977 33.5063C32.5977 31.4712 31.1421 29.8217 29.3467 29.8217C27.5513 29.8217 26.0957 31.4712 26.0957 33.5063Z" fill="white"/>
<path d="M27.5243 39.2278L28.9982 40.7016C29.215 40.9184 29.5183 40.9184 29.7351 40.7016L31.2089 39.2278C31.3389 39.0978 31.5991 39.0545 31.7723 39.1411C33.8529 40.008 35.3268 41.9587 35.5003 44.2994C35.5437 44.5596 35.327 44.8195 35.0236 44.8195H23.6664C23.4063 44.8195 23.1897 44.6027 23.1897 44.2994C23.3629 41.9587 24.8801 40.008 26.9176 39.1411C27.134 39.0112 27.3509 39.0545 27.5242 39.2278H27.5243Z" fill="white"/>
<path d="M16.9041 17.6844C16.9041 19.7193 18.3596 21.3688 20.155 21.3688C21.9507 21.3688 23.4062 19.7193 23.4062 17.6844C23.4062 15.6496 21.9507 14 20.155 14C18.3596 14 16.9041 15.6496 16.9041 17.6844" fill="white"/>
<path d="M18.2921 23.363L19.7659 24.8368C19.9828 25.0536 20.286 25.0536 20.5029 24.8368L21.9765 23.363C22.1065 23.233 22.3666 23.1897 22.5399 23.2763C24.6205 24.1432 26.0943 26.0939 26.2679 28.4346C26.3112 28.6946 26.0946 28.9547 25.8344 28.9547H14.4773C14.2171 28.9547 14.0005 28.7379 14.0005 28.4346C14.1738 26.0939 15.691 24.1432 17.7285 23.2763C17.9451 23.1894 18.1618 23.2328 18.2919 23.363H18.2921Z" fill="white"/>
<path d="M35.283 17.6844C35.283 19.7193 36.7385 21.3688 38.5342 21.3688C40.3296 21.3688 41.7852 19.7193 41.7852 17.6844C41.7852 15.6496 40.3296 14 38.5342 14C36.7385 14 35.283 15.6496 35.283 17.6844" fill="white"/>
<path d="M36.7138 23.363L38.1877 24.8368C38.4045 25.0537 38.7078 25.0537 38.9246 24.8368L40.3985 23.363C40.5284 23.233 40.7886 23.1897 40.9619 23.2763C43.0425 24.1433 44.5163 26.0939 44.6898 28.4346C44.7329 28.6946 44.5163 28.9547 44.2129 28.9547H32.8557C32.5956 28.9547 32.3789 28.7379 32.3789 28.4346C32.5522 26.0939 34.0694 24.1433 36.1069 23.2763C36.3235 23.1895 36.5837 23.2328 36.7137 23.363H36.7138Z" fill="white"/>
</svg>
