<svg width="110" height="83" viewBox="0 0 110 83" fill="none" xmlns="http://www.w3.org/2000/svg">
<mask id="path-1-outside-1_2_3772" maskUnits="userSpaceOnUse" x="-1" y="0.984863" width="112" height="82" fill="black">
<rect fill="white" x="-1" y="0.984863" width="112" height="82"/>
<path fill-rule="evenodd" clip-rule="evenodd" d="M109.962 39.1511C109.925 38.4674 109.862 37.4989 109.767 36.7899C109.607 35.5871 109.205 33.6468 109.205 33.6468L103.607 11.4901C102.816 6.04111 98.1822 1.9975 92.7144 1.98486H17.3675C11.8804 1.99332 7.21492 6.02083 6.36744 11.4806L0.883144 33.6374C0.883144 33.6374 0.392856 35.8214 0.295429 36.6887C0.232571 37.2488 0.169714 38.4579 0.132 39.2398L0 39.11V68.5215C0.0208003 75.4944 5.64771 81.1318 12.5714 81.1159H97.4285C104.346 81.1159 109.964 75.4879 110 68.5215V39.11L109.962 39.1511ZM3.41949 37.0493C3.47292 36.5682 3.76207 35.1724 3.93492 34.4063L9.43178 12.2496L9.46949 12.0946L9.49149 11.9363C10.0948 8.02696 13.4392 5.1453 17.3675 5.14994H92.7144C96.6115 5.16988 99.9111 8.05085 100.483 11.9332L100.509 12.0976L100.549 12.2592L106.115 34.2924C106.222 34.7989 106.521 36.315 106.64 37.2076C106.76 38.1001 106.857 39.5784 106.857 39.9677C106.857 45.2119 102.636 49.4634 97.4285 49.4634H12.6595C7.50214 49.464 3.30141 45.291 3.23092 40.0975C3.27178 39.208 3.35349 37.5938 3.41634 37.0493H3.41949ZM106.857 68.5215C106.846 71.0348 105.844 73.4407 104.071 75.2093C102.298 76.9779 99.8991 77.9641 97.4035 77.9507H12.5715C10.078 77.965 7.68154 76.9782 5.91216 75.2088C4.14275 73.4393 3.14622 71.0327 3.14292 68.5215V48.1214C5.50131 50.9619 8.98303 52.611 12.6595 52.6287H97.4285C101.055 52.6151 104.496 51.0139 106.857 48.2418V68.5215ZM33.5124 24.4579C34.8834 23.4331 36.5614 22.9115 38.2675 22.9797C39.0672 23.0012 39.8626 23.1074 40.6404 23.2963C41.0704 23.4022 41.509 23.4689 41.9509 23.4957C42.3746 23.4687 42.7952 23.4051 43.208 23.3058C44.2013 23.0734 45.2181 22.9598 46.2378 22.9672C47.7324 22.9172 49.207 23.3268 50.4649 24.1414L50.5529 24.208L50.4271 24.2585L50.3738 24.2776C49.676 24.5118 48.0544 25.1859 48.0764 26.3793C48.0984 27.8447 50.2764 28.4746 50.9331 28.6329C50.9625 28.6375 50.991 28.6461 51.018 28.6581L51.0904 28.6961L51.0495 28.7596C50.6387 29.3974 50.1131 29.9524 49.5 30.396C48.5176 31.2868 47.2541 31.7992 45.9329 31.8425C45.3301 31.842 44.7296 31.7675 44.1445 31.6209C43.5277 31.4659 42.8947 31.3861 42.2589 31.3836C41.5888 31.3827 40.9209 31.4625 40.2695 31.6209C39.7267 31.754 39.1715 31.8292 38.6131 31.8456H38.5251C37.1898 31.7715 35.9193 31.2413 34.9235 30.3422C32.802 28.7659 31.5889 26.1672 33.5124 24.4579ZM63.8378 24.518H60.6353V29.307C60.6353 30.0223 61.2009 30.3295 62.5209 30.3326C62.8353 30.3326 63.4324 30.3104 63.6273 30.2946H63.8189V31.776L63.6964 31.7918C63.0695 31.8488 62.4401 31.8731 61.8107 31.8646C58.4887 31.8646 57.134 31.1651 57.134 29.4622V24.5244H54.6858V23.0366H57.1404V20.9762H60.6478V23.0272H63.8504L63.8378 24.518ZM74.8378 31.8172H71.2549L65.0571 23.0368H68.7815L73.0558 29.8453L77.33 23.0493H80.9884L74.8378 31.8172ZM42.8215 21.0553C43.8754 20.486 45.0483 20.1758 46.244 20.15H46.4011L46.4169 20.2323C46.5458 20.8653 46.1025 21.5681 45.2258 22.1315C44.2478 22.6843 43.1446 22.9732 42.0231 22.9703H41.7529H41.6178L41.5989 22.9007C41.4135 22.1979 42.1426 21.4762 42.8184 21.0743L42.8215 21.0553Z"/>
</mask>
<path fill-rule="evenodd" clip-rule="evenodd" d="M109.962 39.1511C109.925 38.4674 109.862 37.4989 109.767 36.7899C109.607 35.5871 109.205 33.6468 109.205 33.6468L103.607 11.4901C102.816 6.04111 98.1822 1.9975 92.7144 1.98486H17.3675C11.8804 1.99332 7.21492 6.02083 6.36744 11.4806L0.883144 33.6374C0.883144 33.6374 0.392856 35.8214 0.295429 36.6887C0.232571 37.2488 0.169714 38.4579 0.132 39.2398L0 39.11V68.5215C0.0208003 75.4944 5.64771 81.1318 12.5714 81.1159H97.4285C104.346 81.1159 109.964 75.4879 110 68.5215V39.11L109.962 39.1511ZM3.41949 37.0493C3.47292 36.5682 3.76207 35.1724 3.93492 34.4063L9.43178 12.2496L9.46949 12.0946L9.49149 11.9363C10.0948 8.02696 13.4392 5.1453 17.3675 5.14994H92.7144C96.6115 5.16988 99.9111 8.05085 100.483 11.9332L100.509 12.0976L100.549 12.2592L106.115 34.2924C106.222 34.7989 106.521 36.315 106.64 37.2076C106.76 38.1001 106.857 39.5784 106.857 39.9677C106.857 45.2119 102.636 49.4634 97.4285 49.4634H12.6595C7.50214 49.464 3.30141 45.291 3.23092 40.0975C3.27178 39.208 3.35349 37.5938 3.41634 37.0493H3.41949ZM106.857 68.5215C106.846 71.0348 105.844 73.4407 104.071 75.2093C102.298 76.9779 99.8991 77.9641 97.4035 77.9507H12.5715C10.078 77.965 7.68154 76.9782 5.91216 75.2088C4.14275 73.4393 3.14622 71.0327 3.14292 68.5215V48.1214C5.50131 50.9619 8.98303 52.611 12.6595 52.6287H97.4285C101.055 52.6151 104.496 51.0139 106.857 48.2418V68.5215ZM33.5124 24.4579C34.8834 23.4331 36.5614 22.9115 38.2675 22.9797C39.0672 23.0012 39.8626 23.1074 40.6404 23.2963C41.0704 23.4022 41.509 23.4689 41.9509 23.4957C42.3746 23.4687 42.7952 23.4051 43.208 23.3058C44.2013 23.0734 45.2181 22.9598 46.2378 22.9672C47.7324 22.9172 49.207 23.3268 50.4649 24.1414L50.5529 24.208L50.4271 24.2585L50.3738 24.2776C49.676 24.5118 48.0544 25.1859 48.0764 26.3793C48.0984 27.8447 50.2764 28.4746 50.9331 28.6329C50.9625 28.6375 50.991 28.6461 51.018 28.6581L51.0904 28.6961L51.0495 28.7596C50.6387 29.3974 50.1131 29.9524 49.5 30.396C48.5176 31.2868 47.2541 31.7992 45.9329 31.8425C45.3301 31.842 44.7296 31.7675 44.1445 31.6209C43.5277 31.4659 42.8947 31.3861 42.2589 31.3836C41.5888 31.3827 40.9209 31.4625 40.2695 31.6209C39.7267 31.754 39.1715 31.8292 38.6131 31.8456H38.5251C37.1898 31.7715 35.9193 31.2413 34.9235 30.3422C32.802 28.7659 31.5889 26.1672 33.5124 24.4579ZM63.8378 24.518H60.6353V29.307C60.6353 30.0223 61.2009 30.3295 62.5209 30.3326C62.8353 30.3326 63.4324 30.3104 63.6273 30.2946H63.8189V31.776L63.6964 31.7918C63.0695 31.8488 62.4401 31.8731 61.8107 31.8646C58.4887 31.8646 57.134 31.1651 57.134 29.4622V24.5244H54.6858V23.0366H57.1404V20.9762H60.6478V23.0272H63.8504L63.8378 24.518ZM74.8378 31.8172H71.2549L65.0571 23.0368H68.7815L73.0558 29.8453L77.33 23.0493H80.9884L74.8378 31.8172ZM42.8215 21.0553C43.8754 20.486 45.0483 20.1758 46.244 20.15H46.4011L46.4169 20.2323C46.5458 20.8653 46.1025 21.5681 45.2258 22.1315C44.2478 22.6843 43.1446 22.9732 42.0231 22.9703H41.7529H41.6178L41.5989 22.9007C41.4135 22.1979 42.1426 21.4762 42.8184 21.0743L42.8215 21.0553Z" fill="#252B33"/>
<path fill-rule="evenodd" clip-rule="evenodd" d="M109.962 39.1511C109.925 38.4674 109.862 37.4989 109.767 36.7899C109.607 35.5871 109.205 33.6468 109.205 33.6468L103.607 11.4901C102.816 6.04111 98.1822 1.9975 92.7144 1.98486H17.3675C11.8804 1.99332 7.21492 6.02083 6.36744 11.4806L0.883144 33.6374C0.883144 33.6374 0.392856 35.8214 0.295429 36.6887C0.232571 37.2488 0.169714 38.4579 0.132 39.2398L0 39.11V68.5215C0.0208003 75.4944 5.64771 81.1318 12.5714 81.1159H97.4285C104.346 81.1159 109.964 75.4879 110 68.5215V39.11L109.962 39.1511ZM3.41949 37.0493C3.47292 36.5682 3.76207 35.1724 3.93492 34.4063L9.43178 12.2496L9.46949 12.0946L9.49149 11.9363C10.0948 8.02696 13.4392 5.1453 17.3675 5.14994H92.7144C96.6115 5.16988 99.9111 8.05085 100.483 11.9332L100.509 12.0976L100.549 12.2592L106.115 34.2924C106.222 34.7989 106.521 36.315 106.64 37.2076C106.76 38.1001 106.857 39.5784 106.857 39.9677C106.857 45.2119 102.636 49.4634 97.4285 49.4634H12.6595C7.50214 49.464 3.30141 45.291 3.23092 40.0975C3.27178 39.208 3.35349 37.5938 3.41634 37.0493H3.41949ZM106.857 68.5215C106.846 71.0348 105.844 73.4407 104.071 75.2093C102.298 76.9779 99.8991 77.9641 97.4035 77.9507H12.5715C10.078 77.965 7.68154 76.9782 5.91216 75.2088C4.14275 73.4393 3.14622 71.0327 3.14292 68.5215V48.1214C5.50131 50.9619 8.98303 52.611 12.6595 52.6287H97.4285C101.055 52.6151 104.496 51.0139 106.857 48.2418V68.5215ZM33.5124 24.4579C34.8834 23.4331 36.5614 22.9115 38.2675 22.9797C39.0672 23.0012 39.8626 23.1074 40.6404 23.2963C41.0704 23.4022 41.509 23.4689 41.9509 23.4957C42.3746 23.4687 42.7952 23.4051 43.208 23.3058C44.2013 23.0734 45.2181 22.9598 46.2378 22.9672C47.7324 22.9172 49.207 23.3268 50.4649 24.1414L50.5529 24.208L50.4271 24.2585L50.3738 24.2776C49.676 24.5118 48.0544 25.1859 48.0764 26.3793C48.0984 27.8447 50.2764 28.4746 50.9331 28.6329C50.9625 28.6375 50.991 28.6461 51.018 28.6581L51.0904 28.6961L51.0495 28.7596C50.6387 29.3974 50.1131 29.9524 49.5 30.396C48.5176 31.2868 47.2541 31.7992 45.9329 31.8425C45.3301 31.842 44.7296 31.7675 44.1445 31.6209C43.5277 31.4659 42.8947 31.3861 42.2589 31.3836C41.5888 31.3827 40.9209 31.4625 40.2695 31.6209C39.7267 31.754 39.1715 31.8292 38.6131 31.8456H38.5251C37.1898 31.7715 35.9193 31.2413 34.9235 30.3422C32.802 28.7659 31.5889 26.1672 33.5124 24.4579ZM63.8378 24.518H60.6353V29.307C60.6353 30.0223 61.2009 30.3295 62.5209 30.3326C62.8353 30.3326 63.4324 30.3104 63.6273 30.2946H63.8189V31.776L63.6964 31.7918C63.0695 31.8488 62.4401 31.8731 61.8107 31.8646C58.4887 31.8646 57.134 31.1651 57.134 29.4622V24.5244H54.6858V23.0366H57.1404V20.9762H60.6478V23.0272H63.8504L63.8378 24.518ZM74.8378 31.8172H71.2549L65.0571 23.0368H68.7815L73.0558 29.8453L77.33 23.0493H80.9884L74.8378 31.8172ZM42.8215 21.0553C43.8754 20.486 45.0483 20.1758 46.244 20.15H46.4011L46.4169 20.2323C46.5458 20.8653 46.1025 21.5681 45.2258 22.1315C44.2478 22.6843 43.1446 22.9732 42.0231 22.9703H41.7529H41.6178L41.5989 22.9007C41.4135 22.1979 42.1426 21.4762 42.8184 21.0743L42.8215 21.0553Z" stroke="#252B33" stroke-width="2" mask="url(#path-1-outside-1_2_3772)"/>
</svg>
