<svg width="48" height="65" viewBox="0 0 48 65" fill="none" xmlns="http://www.w3.org/2000/svg">
<path d="M23.7658 12.023C20.7999 14.109 17.4384 16.4733 15.6373 20.385C12.5087 27.2093 22.0388 34.6534 22.4461 34.9669C22.5407 35.0398 22.6541 35.0761 22.767 35.0761C22.8871 35.0761 23.0071 35.035 23.1047 34.9534C23.2939 34.7951 23.3474 34.5264 23.2339 34.3074C23.1994 34.241 19.7787 27.5965 19.9058 22.8298C19.9507 21.1695 22.2742 19.2861 24.7339 17.2921C26.9868 15.4657 29.5406 13.3958 31.0347 10.9743C34.3148 5.64414 30.6691 0.402993 30.6319 0.350589C30.4871 0.147241 30.2198 0.0736509 29.9913 0.173819C29.7629 0.274615 29.6365 0.521466 29.6886 0.765558C29.696 0.800283 30.4049 4.26622 28.4322 7.83708C27.6195 9.31266 25.8338 10.5686 23.7658 12.023Z" fill="white"/>
<path d="M36.2614 14.3733C36.4707 14.2158 36.5322 13.9283 36.4056 13.6989C36.2789 13.4694 36.0031 13.3682 35.7581 13.4613C35.2543 13.6528 23.4199 18.2146 23.4199 23.7264C23.4199 27.526 25.0429 29.5331 26.228 30.9989C26.6929 31.5738 27.0942 32.0704 27.2264 32.4941C27.5987 33.7157 26.7166 35.9233 26.3458 36.6711C26.2388 36.8859 26.2912 37.1465 26.4731 37.3034C26.5713 37.3884 26.6942 37.4314 26.817 37.4314C26.9215 37.4314 27.0265 37.4003 27.1173 37.3372C27.3208 37.1958 32.0903 33.8236 31.235 29.7608C30.9162 28.2165 30.1574 27.0882 29.4878 26.0925C28.4505 24.5498 27.7013 23.4356 28.8379 21.3775C30.1696 18.977 36.2004 14.419 36.2614 14.3733Z" fill="white"/>
<path d="M5.45529 37.519C5.25245 38.1264 5.34835 38.7289 5.73206 39.2619C7.01493 41.043 11.5592 42.0237 18.5281 42.0237C18.5285 42.0237 18.5288 42.0237 18.529 42.0237C19.4732 42.0237 20.4702 42.0052 21.4913 41.9685C32.6334 41.5698 36.7661 38.0986 36.9366 37.9509C37.1223 37.7901 37.172 37.5224 37.0566 37.3057C36.9409 37.0892 36.6919 36.9804 36.4537 37.046C32.5296 38.1173 25.2022 38.4977 20.1197 38.4977C14.4327 38.4977 11.5365 38.0881 10.8273 37.7855C11.1912 37.286 13.4353 36.3937 16.2161 35.8469C16.4818 35.7946 16.6645 35.5491 16.6382 35.2797C16.6119 35.0101 16.3854 34.8046 16.1145 34.8046C14.4845 34.8046 6.30989 34.9354 5.45529 37.519Z" fill="white"/>
<path d="M42.7385 33.9438C40.4403 33.9438 38.261 35.0958 38.1694 35.1446C37.9568 35.2584 37.8491 35.5021 37.9073 35.7362C37.9659 35.9701 38.176 36.1345 38.4171 36.1347C38.4659 36.1347 43.3193 36.1745 43.7589 38.9475C44.1482 41.3398 39.1667 45.216 37.2144 46.5077C37.0036 46.6472 36.9217 46.9168 37.0196 47.1499C37.1029 47.3484 37.2961 47.4726 37.5045 47.4726C37.5408 47.4726 37.5777 47.4687 37.6143 47.461C38.0777 47.3618 48.9484 44.9663 47.799 38.637C47.0978 34.7581 44.6598 33.9438 42.7385 33.9438Z" fill="white"/>
<path d="M35.2849 45.7333C35.3228 45.5306 35.2384 45.3244 35.0696 45.2059L32.463 43.3801C32.3359 43.2912 32.1753 43.2632 32.0262 43.3026C31.999 43.3095 29.2733 44.0261 25.3158 44.4656C23.7452 44.6417 21.9861 44.7348 20.2281 44.7348C16.2718 44.7348 13.6849 44.2699 13.3082 43.9288C13.2583 43.833 13.2741 43.7895 13.2829 43.7654C13.3515 43.5751 13.7183 43.3489 13.9547 43.2595C14.2158 43.1628 14.3567 42.8792 14.2754 42.6128C14.1944 42.3462 13.9197 42.1894 13.6487 42.2544C11.034 42.8854 9.75553 43.7678 9.84848 44.8769C10.0138 46.8435 14.5686 47.8528 18.4193 48.1195C18.9731 48.1574 19.572 48.1765 20.199 48.1765C20.1994 48.1765 20.1996 48.1765 20.2 48.1765C26.603 48.1765 34.8116 46.1676 34.8936 46.1472C35.0941 46.0982 35.2469 45.9364 35.2849 45.7333Z" fill="white"/>
<path d="M15.6351 49.9538C15.8326 49.8254 15.92 49.5814 15.8499 49.3566C15.7801 49.1318 15.5699 48.9841 15.3337 48.9872C14.9832 48.9965 11.905 49.1354 11.6895 51.0953C11.6243 51.6811 11.7921 52.2163 12.1884 52.6858C13.2936 53.9956 16.2772 54.7741 21.3077 55.0657C21.9029 55.1014 22.5074 55.1194 23.1047 55.1194C29.5005 55.1194 33.8079 53.1169 33.9882 53.0316C34.1631 52.9489 34.2785 52.777 34.2888 52.584C34.299 52.3909 34.2026 52.2077 34.0377 52.1068L30.7436 50.0959C30.6293 50.0262 30.4924 50.0031 30.3621 50.0298C30.3413 50.0341 28.2498 50.4679 25.0934 50.8964C24.4961 50.9777 23.7482 51.0189 22.8706 51.0189C19.7175 51.0189 16.2105 50.5039 15.538 50.1665C15.5282 50.1035 15.5405 50.0235 15.6351 49.9538Z" fill="white"/>
<path d="M20.1227 61.1648C34.7726 61.1524 42.6352 58.5471 44.1499 56.9077C44.6862 56.3277 44.7441 55.7787 44.6985 55.42C44.5859 54.5374 43.782 53.9971 43.6909 53.9384C43.471 53.7969 43.1758 53.8339 43.0043 54.0317C42.8332 54.2296 42.8292 54.5187 43.001 54.7164C43.0933 54.8352 43.1467 55.0342 42.8766 55.3046C42.271 55.8702 36.1638 57.5869 25.9949 58.1026C24.602 58.175 23.141 58.2118 21.6527 58.2121C12.5481 58.2121 5.88487 56.9649 5.01024 56.2383C5.34736 55.7539 7.70422 54.9799 10.2108 54.5422C10.4932 54.4929 10.684 54.2267 10.6402 53.9434C10.5965 53.6602 10.3353 53.4652 10.0499 53.5022C9.97918 53.5119 9.73925 53.5262 9.46144 53.5433C5.32579 53.7958 0.546585 54.3584 0.297278 56.4894C0.221536 57.1387 0.414486 57.7281 0.870865 58.2412C1.98787 59.4961 5.19818 61.1646 20.1222 61.1646C20.1225 61.1648 20.1225 61.1648 20.1227 61.1648Z" fill="white"/>
<path d="M47.0268 57.3702C46.8197 57.2745 46.575 57.3229 46.4206 57.4896C46.3991 57.5127 44.1964 59.8159 37.574 61.1684C35.0387 61.6764 30.2798 61.934 23.4292 61.934C16.566 61.934 10.0352 61.6639 9.9701 61.6612C9.6973 61.6479 9.46404 61.8462 9.42694 62.1148C9.38958 62.3831 9.56263 62.6361 9.82606 62.6988C9.89397 62.7148 16.7382 64.3182 26.0963 64.3182C30.5846 64.3182 34.952 63.9538 39.0778 63.2345C46.7705 61.8859 47.3092 58.0714 47.3283 57.9097C47.3552 57.6836 47.2336 57.466 47.0268 57.3702Z" fill="white"/>
</svg>
