<svg width="66" height="66" viewBox="0 0 66 66" fill="none" xmlns="http://www.w3.org/2000/svg">
<g clip-path="url(#clip0_1559_9742)">
<path d="M55.8967 29.2901C56.0622 29.2158 56.1666 29.0512 56.302 28.93C57.0814 28.1505 57.8317 27.3551 58.6262 26.6208C60.1569 25.1813 62.5855 25.2406 64.0409 26.7261C64.7614 27.4548 65.1655 28.4383 65.1655 29.4631C65.1655 30.4879 64.7614 31.4713 64.0409 32.2001C62.2263 34.0297 60.4108 35.8594 58.5961 37.7041L52.0277 44.3186C51.9525 44.3938 51.8472 44.454 51.8472 44.5884H51.787C42.9235 42.2341 34.0592 39.8638 25.1957 37.5245C24.3702 37.2998 23.5456 37.0441 22.706 36.8946C22.706 36.8796 22.706 36.8645 22.6909 36.8495C22.8112 36.8052 22.8705 36.6849 22.9307 36.5796C23.2607 36.055 23.5757 35.5144 23.9057 34.9747C24.0703 34.7048 24.2658 34.45 24.3852 34.105C24.3109 34.135 24.2808 34.135 24.2658 34.1651L22.0158 36.4142C21.9822 36.4445 21.9555 36.4817 21.9373 36.5232C21.9192 36.5647 21.91 36.6095 21.9106 36.6548C21.7602 36.6398 21.6717 36.7592 21.5805 36.8495C20.5763 37.8696 19.5562 38.8738 18.5511 39.8939C18.4759 39.9691 18.3866 40.0142 18.3866 40.1337C17.5504 40.9174 16.7398 41.7279 15.9561 42.5641C15.7765 42.6836 15.5969 42.8189 15.4164 42.9384C14.8467 43.3135 14.2017 43.494 13.5266 43.5542C12.2525 43.5683 11.1873 43.1189 10.3477 42.1589C9.98757 41.7537 9.79204 41.2741 9.58235 40.7937C9.56731 40.7194 9.56731 40.6592 9.55227 40.584C9.29746 39.31 9.52219 38.1394 10.3618 37.1193C10.6326 36.7893 10.9475 36.5044 11.2324 36.1903C11.3076 36.1293 11.3828 36.0842 11.4421 36.0098L17.8761 29.5308C17.9513 29.4556 18.0265 29.3954 18.0566 29.2901C18.3715 29.0955 18.5662 28.7805 18.8511 28.5558C19.7509 27.8506 20.2012 26.9207 20.441 25.8112C20.8161 24.116 21.3107 22.4509 21.761 20.7858C21.7911 20.6965 21.7761 20.5761 21.8654 20.5168C22.6458 20.7265 23.4262 20.9362 24.2056 21.1318C31.9897 23.2012 39.7738 25.2556 47.5579 27.3251C50.2272 28.0302 52.8824 28.7354 55.5517 29.4556C55.6871 29.4556 55.8366 29.5308 55.8967 29.2901Z" fill="white"/>
<path d="M50.4815 49.6282C50.0471 51.2624 49.6569 52.8974 49.1765 54.5174C48.5766 56.4674 46.5222 57.5618 44.5421 57.0522C43.2079 56.7071 41.8578 56.3471 40.5227 55.987C40.2979 55.9268 40.1776 55.9719 40.0272 56.1223C37.8289 58.3581 35.6194 60.5827 33.3986 62.796C32.2741 63.9215 30.8947 64.2807 29.3792 63.787C27.8644 63.2915 26.9797 62.2121 26.7399 60.6372C26.5453 59.3915 26.9045 58.282 27.7892 57.3813C28.9447 56.1975 30.1294 55.0279 31.2991 53.8423C31.3743 53.7671 31.4636 53.722 31.4937 53.5875C30.6541 53.3628 29.8295 53.1371 28.9899 52.9124C28.8695 52.8823 28.8244 52.9425 28.7642 53.0027C27.5194 54.2475 26.2896 55.5065 25.0447 56.7523C23.6052 58.1918 22.21 59.6614 20.7253 61.0717C19.6601 62.0767 18.3409 62.3457 16.9457 61.8662C15.5654 61.4017 14.7408 60.3815 14.5462 58.927C14.3657 57.7122 14.7408 56.6178 15.6106 55.7321C16.9757 54.3378 18.356 52.9575 19.7353 51.5773C19.96 51.3526 20.1856 51.1128 20.4104 50.8872C20.5608 50.7377 20.5749 50.6625 20.3352 50.6023C19.5858 50.4227 18.8505 50.213 18.1153 50.0184C16.2555 49.5229 15.0717 47.9631 15.116 46.0432C15.116 45.9388 15.1009 45.8184 15.1602 45.7132C15.5053 45.6981 15.8662 45.7583 16.2113 45.6831C17.1553 45.4442 17.8304 44.8585 18.3409 44.0489L19.7353 41.7539C19.8105 41.6486 19.8556 41.5141 20.0653 41.5743C20.5006 41.7238 20.9501 41.8291 21.4004 41.9485C24.3095 42.7138 27.2044 43.4933 30.1144 44.2577C33.0084 45.023 35.9034 45.8034 38.7983 46.5678C42.1427 47.4526 45.487 48.3373 48.8173 49.2221C49.372 49.3584 49.8967 49.5831 50.4815 49.6282ZM22.21 19.181C22.5536 17.5244 23.2162 15.9504 24.1609 14.5467C26.3807 11.2023 29.5004 9.13197 33.3092 8.02248C33.5198 7.96321 33.7295 7.888 33.9551 7.85792C34.209 7.82784 34.2692 7.73759 34.194 7.48278C33.7856 5.8251 33.386 4.16527 32.9952 2.50337L32.9509 2.32376C32.8757 1.9035 33.0553 1.58941 33.4305 1.51332C33.8056 1.439 34.1055 1.63365 34.2099 2.05303C34.5249 3.343 34.8248 4.63298 35.1398 5.90791C35.2451 6.3733 35.3654 6.82275 35.4698 7.28814C35.5149 7.49782 35.5901 7.52702 35.7998 7.49782C41.0942 6.86788 45.879 8.12777 50.1683 11.3076C50.3337 11.427 50.4081 11.3969 50.5284 11.2625C51.7281 9.97249 52.9438 8.69755 54.1426 7.42262C54.3231 7.22797 54.5178 7.0926 54.8027 7.12269C55.0424 7.15277 55.2229 7.27309 55.3123 7.49782C55.4184 7.75263 55.3724 7.99329 55.1928 8.20297C54.5178 8.92228 53.8427 9.62743 53.1676 10.3476C52.6129 10.9325 52.0732 11.5173 51.5184 12.0871C51.368 12.2525 51.353 12.3268 51.5335 12.4923C53.8126 14.6219 55.4476 17.1567 56.3023 20.172C56.8579 22.1361 56.9924 24.1313 56.6925 26.1556C56.5872 26.8457 56.3926 27.5057 56.1528 28.1649C55.7025 28.1056 55.268 27.9552 54.8327 27.8357L24.6864 19.826C23.8618 19.5871 23.0514 19.3465 22.2117 19.181H22.21ZM35.1991 14.022C35.1991 13.0921 34.4497 12.3277 33.5198 12.3419C32.6191 12.3569 31.8697 13.1222 31.8697 14.022C31.8697 14.9369 32.6191 15.6721 33.5349 15.6721C34.4639 15.6721 35.1991 14.9377 35.1991 14.022ZM49.3729 19.8712C49.8138 19.8695 50.2361 19.6937 50.5479 19.3819C50.8596 19.0702 51.0355 18.6478 51.0371 18.2069C51.0221 17.2921 50.2727 16.5418 49.372 16.5418C48.9326 16.5442 48.5121 16.7208 48.2028 17.0331C47.8936 17.3453 47.7209 17.7675 47.7228 18.2069C47.7078 19.1518 48.4421 19.8712 49.372 19.8712H49.3729Z" fill="white"/>
<path d="M22.7073 36.8638C23.5478 37.0292 24.3724 37.284 25.1978 37.4937L51.7892 44.5576H51.8494C52.1944 44.6479 52.5245 44.7523 52.8695 44.8275C53.0199 44.8576 53.0792 44.9027 53.0341 45.0832C52.689 46.313 52.3741 47.5278 52.0591 48.7576C51.9989 48.9673 51.9246 48.9823 51.7591 48.9221C51.4291 48.8328 51.0991 48.7576 50.7691 48.6673C50.739 48.6523 50.7249 48.6372 50.6948 48.6231C48.7297 48.0975 46.7497 47.5729 44.7846 47.0482C38.6807 45.4282 32.5767 43.8082 26.4878 42.1882C24.4927 41.6636 22.4825 41.1239 20.4883 40.5833C20.9227 39.864 21.358 39.1288 21.7924 38.4086C22.0782 37.9131 22.4383 37.4185 22.7081 36.8638H22.7073Z" fill="#FAFAFA"/>
<path d="M1.66406 41.9636C1.91976 40.794 2.15953 39.6385 2.41434 38.4688C3.80871 32.2295 5.20398 25.9601 6.6134 19.7058C6.65852 19.481 6.62844 19.2103 6.85405 19.0466C6.89829 19.1962 7.03366 19.1962 7.13894 19.2262C8.14314 19.4961 9.16327 19.7659 10.1684 20.0358C11.1734 20.3056 12.1776 20.5613 13.1827 20.8312C13.3632 20.8754 13.4225 20.9506 13.3632 21.1462C13.2579 21.4611 13.1827 21.7911 13.1084 22.1061C12.8212 23.1739 12.541 24.2436 12.2679 25.3151C12.2528 25.3151 12.2236 25.3302 12.2077 25.3302C10.7833 24.9108 9.31368 25.8557 9.04382 27.3554C8.84918 28.4348 8.65365 29.5142 8.45812 30.6095C7.91841 33.5646 7.39375 36.5339 6.85405 39.489L6.17898 43.1784C6.02857 43.1333 5.86401 43.1032 5.7136 43.0581C4.36136 42.7021 3.01149 42.3373 1.66406 41.9636Z" fill="white"/>
<path d="M12.2526 25.3158C12.5375 24.2506 12.8224 23.1703 13.0922 22.1059C13.1825 21.7909 13.2426 21.46 13.3471 21.146C13.4072 20.9513 13.3621 20.8752 13.1674 20.831C12.1605 20.5729 11.1554 20.3077 10.1522 20.0356C9.14799 19.7657 8.12787 19.4959 7.12278 19.226C7.0175 19.1959 6.86797 19.1959 6.83789 19.0455C7.46784 18.3714 7.66248 17.591 7.43776 16.7062C7.51296 16.7062 7.60321 16.7062 7.67753 16.7213C8.57732 16.9611 9.47801 17.2008 10.3628 17.4264C11.6076 17.7564 12.8374 18.0714 14.0823 18.4005C13.8876 19.1057 13.7222 19.825 13.5116 20.531C13.4223 20.8159 13.5116 20.9354 13.7824 20.9955C14.9137 21.2835 16.0433 21.5784 17.171 21.8803L20.096 22.6456C19.9916 23.2154 19.781 23.7551 19.6005 24.3098C19.0877 25.9518 18.5681 27.5915 18.0416 29.2291C18.0115 29.3353 17.9363 29.3945 17.862 29.4698C15.7164 31.6286 13.5718 33.7891 11.4271 35.9488C11.3605 36.0124 11.2905 36.0723 11.2174 36.1284C11.2475 36.0391 11.2617 35.9488 11.2926 35.8736C12.1473 33.4742 13.0179 31.0897 13.8717 28.6894C14.0522 28.1647 14.1124 27.6542 13.962 27.1145C13.7222 26.2147 13.1073 25.6458 12.2526 25.3149V25.3158ZM16.9312 7.51184C17.3966 7.58705 17.7416 7.8569 18.0566 8.17187C19.8111 9.91219 20.8312 12.0268 21.1763 14.4563C21.4461 16.3461 21.2656 18.2059 20.8011 20.0506C20.7889 20.0868 20.7738 20.1221 20.756 20.1559C20.6658 20.1409 20.5755 20.1409 20.4862 20.1108C18.7425 19.6647 17.0024 19.2047 15.2661 18.7306C14.8918 18.6262 14.4716 18.5961 14.1265 18.3705C14.1265 18.2661 14.1416 18.1457 14.1716 18.0405C14.4265 17.0964 14.6671 16.1506 14.9219 15.2066C15.4174 13.3468 15.927 11.4871 16.4065 9.6273C16.5861 8.93718 16.8268 8.24707 16.9312 7.51273V7.51184Z" fill="white"/>
<path d="M16.9322 7.51274C16.8269 8.24709 16.5871 8.9372 16.4075 9.65739C15.9271 11.5172 15.4166 13.3769 14.9229 15.2367C14.6672 16.1816 14.4274 17.1265 14.1726 18.0714C14.1426 18.1767 14.1284 18.2811 14.1284 18.4015C14.1125 18.4015 14.0974 18.4165 14.0674 18.4165C12.8225 18.0865 11.5927 17.7715 10.3478 17.4415C9.44803 17.2017 8.56327 16.962 7.66348 16.7363C7.58827 16.7213 7.49803 16.7213 7.42371 16.7213C7.36354 16.6771 7.36354 16.6169 7.39362 16.5567C7.97756 14.6368 8.77385 12.8222 10.0629 11.2482C11.6228 9.35746 13.5577 8.08252 15.9572 7.51274C16.2749 7.41519 16.6145 7.41519 16.9322 7.51274ZM1.00391 54.0519C1.00391 52.7469 1.12423 51.4719 1.63385 50.2421C2.11428 49.1025 2.86367 48.2328 4.1386 48.0674C5.65331 47.8727 7.04857 48.262 8.1731 49.3122C8.93841 50.0174 9.1481 50.9623 9.05785 51.9824C8.92337 53.4511 8.30846 54.742 7.55819 55.9718C6.49383 57.7112 5.20385 59.256 3.5989 60.5309C3.46353 60.6513 3.31401 60.7406 3.14856 60.8459C2.75927 61.1007 2.54869 61.0406 2.33901 60.6362C1.9037 59.7957 1.64889 58.8959 1.43921 57.982C1.16936 56.6902 1.00391 55.3861 1.00391 54.051V54.0519ZM2.83358 51.7718C2.78935 52.0567 2.86367 52.3425 2.89375 52.6124C2.98399 53.7068 3.26889 54.757 3.79355 55.732C3.959 56.032 4.09436 56.062 4.37837 55.8824C5.29321 55.3268 6.0134 54.5615 6.65839 53.7369C7.19809 53.0468 7.66348 52.2824 7.82804 51.3967C8.00853 50.3615 7.7838 49.6874 6.8088 49.1477C6.24023 48.8341 5.59806 48.6786 4.94904 48.6973C4.09348 48.7124 3.46353 49.1326 3.14856 49.9271C2.90967 50.527 2.84863 51.1419 2.83358 51.7718Z" fill="white"/>
<path d="M20.4588 40.6133C22.4539 41.1531 24.464 41.6777 26.4583 42.2183C32.5631 43.8374 38.6671 45.4574 44.756 47.0774C46.721 47.602 48.7011 48.1267 50.6661 48.6523C50.6953 48.6523 50.7104 48.6823 50.7405 48.6965C50.6502 49.0124 50.5609 49.3123 50.4706 49.6273C49.8858 49.5821 49.3602 49.3724 48.8055 49.222C45.4611 48.3523 42.1167 47.4525 38.7874 46.5678C35.8925 45.8025 32.9975 45.0221 30.1026 44.2577C27.1935 43.4923 24.2986 42.7129 21.3886 41.9485C20.9392 41.8281 20.4888 41.7228 20.0544 41.5733C19.8438 41.4981 19.7996 41.6476 19.7244 41.7529L18.3291 44.048C17.8337 44.8575 17.1445 45.4424 16.1995 45.6821C15.8545 45.7724 15.4944 45.6972 15.1502 45.7122C15.1803 45.1283 15.405 44.6027 15.5395 44.0329C15.6598 43.5074 15.8094 42.9978 15.9447 42.4881C16.7392 41.6627 17.5346 40.8381 18.3743 40.0586C19.0794 40.2683 19.7695 40.4329 20.4596 40.6133H20.4588ZM12.9896 45.023C12.8994 45.3229 12.6747 45.5627 12.5092 45.8175C12.1792 46.343 11.8492 46.8527 11.505 47.3623C11.2201 47.7976 10.7999 48.0223 10.2902 47.902C9.00897 47.6062 7.73829 47.2662 6.48047 46.8827C6.55479 46.2829 6.75032 45.7131 6.89984 45.1283C7.51475 45.2176 7.96509 44.9628 8.2199 44.378C8.31015 44.1683 8.34023 43.9427 8.47471 43.7631C9.24003 43.9728 9.98942 44.1683 10.7547 44.378C11.505 44.6027 12.2544 44.7673 12.9896 45.023ZM14.0841 18.4015C14.0991 18.3865 14.1142 18.3865 14.1442 18.3865C14.4893 18.6121 14.9087 18.6413 15.2838 18.7466C17.0241 19.227 18.7636 19.6765 20.5039 20.1268C20.5932 20.1569 20.6835 20.1569 20.7737 20.171C20.3986 20.5913 20.0836 21.0266 20.0084 21.6114C19.9642 21.9715 20.0526 22.3166 20.0987 22.6616L17.1736 21.8963C16.0491 21.5964 14.9087 21.2964 13.785 21.0115C13.5143 20.9363 13.424 20.8311 13.5143 20.5462C13.7089 19.8269 13.8894 19.1217 14.0841 18.4015Z" fill="white"/>
<path d="M6.89829 45.1434C6.74876 45.7291 6.55323 46.2989 6.47891 46.8987C5.62424 46.7333 4.79876 46.4634 3.95912 46.2537C3.5539 46.1484 3.14957 46.029 2.72931 45.9237C2.17457 45.7733 1.81447 45.3389 1.79943 44.7691L1.66406 41.9644C3.0142 42.3245 4.3493 42.6846 5.69856 43.0589C5.84897 43.104 6.01353 43.1341 6.16394 43.1792C6.13386 43.3739 6.10378 43.5844 6.05865 43.7791C5.93921 44.4241 6.26923 44.9487 6.89917 45.1292V45.1443L6.89829 45.1434ZM12.9872 45.023C12.2528 44.7532 11.4875 44.6037 10.7523 44.3931C9.98786 44.1834 9.23759 43.9888 8.47316 43.7782C8.80897 42.7535 9.17393 41.7385 9.5676 40.7346C9.79233 41.1991 9.98786 41.6937 10.3329 42.0989C11.1726 43.0589 12.2528 43.5083 13.5118 43.4933C13.3774 43.9436 13.227 44.378 13.0925 44.8284C13.0774 44.9036 13.0624 44.9788 12.9872 45.023Z" fill="white"/>
<path d="M9.57059 40.7337C9.17658 41.7382 8.81132 42.7537 8.47526 43.779C8.34078 43.9586 8.31069 44.1833 8.22045 44.3939C7.98068 44.9637 7.5153 45.2336 6.90039 45.1433V45.1283C7.15609 44.1683 7.4109 43.2234 7.66571 42.2643C9.19045 36.6302 10.6951 30.9908 12.1797 25.346C12.1948 25.346 12.2249 25.3309 12.2399 25.3309C13.1096 25.6609 13.7245 26.2157 13.9652 27.1305C14.1156 27.6702 14.0545 28.1807 13.8749 28.7054C13.0052 31.1049 12.1497 33.4902 11.295 35.8896C11.2649 35.9799 11.2507 36.0692 11.2198 36.1444C10.9349 36.4453 10.6199 36.7443 10.3501 37.0743C9.50954 38.0944 9.27066 39.2641 9.54051 40.539C9.55555 40.5992 9.55555 40.6744 9.57059 40.7337ZM20.4584 40.6142L18.3881 40.0745C18.3881 39.9542 18.4783 39.9091 18.5535 39.8339C19.5586 38.8146 20.5787 37.8096 21.5829 36.7903C21.6732 36.7001 21.7484 36.5797 21.913 36.5948C22.1686 36.6549 22.4385 36.7293 22.6933 36.7894C22.6933 36.8045 22.7084 36.8195 22.7084 36.8345C22.4385 37.3893 22.0784 37.8848 21.7785 38.4245C21.3281 39.1747 20.8937 39.894 20.4584 40.6142Z" fill="white"/>
<path d="M22.6912 36.8036C22.4365 36.7444 22.1667 36.6692 21.9111 36.6091C21.896 36.5038 21.9412 36.4295 22.0172 36.3694L24.2655 34.1202C24.3019 34.0935 24.3426 34.0732 24.3858 34.0601C24.2655 34.405 24.07 34.6597 23.9055 34.9295C23.5756 35.4548 23.2608 35.9944 22.9309 36.5339C22.8707 36.6391 22.8106 36.7594 22.6912 36.8036Z" fill="white"/>
<path d="M12.1933 25.331C11.5784 27.6402 10.9785 29.9494 10.3636 32.2445C9.47887 35.5747 8.57907 38.9191 7.67928 42.2484C7.42358 43.2084 7.16877 44.1533 6.91396 45.1133C6.28401 44.9337 5.96904 44.4081 6.07344 43.7631C6.10441 43.5685 6.13449 43.3738 6.17961 43.1633L6.8538 39.4738C7.3935 36.5187 7.91904 33.5495 8.45875 30.5953C8.65339 29.5159 8.84804 28.4356 9.04357 27.3403C9.29838 25.8707 10.7688 24.9107 12.1933 25.331ZM2.83523 51.7728C2.85027 51.1429 2.91043 50.528 3.13516 49.9432C3.45013 49.1486 4.08008 48.7284 4.93476 48.7133C5.58369 48.6944 6.22586 48.8496 6.79452 49.1628C7.78456 49.7025 8.00929 50.3785 7.81464 51.4127C7.64919 52.2975 7.18469 53.0478 6.64499 53.7529C5.99912 54.5775 5.26477 55.3428 4.36497 55.8976C4.08008 56.0772 3.94471 56.048 3.78015 55.7472C3.2546 54.7722 2.96971 53.7379 2.88035 52.6275C2.88035 52.3276 2.80515 52.0577 2.83523 51.7728Z" fill="white"/>
</g>
<defs>
<clipPath id="clip0_1559_9742">
<rect width="65.4721" height="65.4721" fill="white" transform="translate(0.349609 0.188721)"/>
</clipPath>
</defs>
</svg>
