<svg width="61" height="61" viewBox="0 0 61 61" fill="none" xmlns="http://www.w3.org/2000/svg">
<circle cx="30.9048" cy="30.7901" r="30.0532" fill="#E4E4E4"/>
<path d="M25.6247 41.7327C25.6247 41.7327 24.0855 42.6691 26.6962 42.9374C29.8322 43.3381 31.5135 43.2719 34.9927 42.6029C34.9927 42.6029 35.9291 43.204 37.2009 43.6744C29.3723 47.0194 19.4704 43.474 25.6256 41.7344L25.6247 41.7327ZM24.6212 37.3841C24.6212 37.3841 22.9487 38.6559 25.5577 38.9233C28.9698 39.2578 31.6554 39.324 36.2636 38.3885C36.2636 38.3885 36.8647 39.0575 37.8691 39.392C28.435 42.2022 17.8632 39.6594 24.6212 37.385V37.3841ZM43.0888 45.0115C43.0888 45.0115 44.2264 45.948 41.8169 46.684C37.3342 48.0221 23.0158 48.4237 19.0008 46.684C17.5957 46.083 20.2727 45.2032 21.142 45.0786C22.0131 44.8782 22.48 44.8782 22.48 44.8782C20.9417 43.8068 12.2428 47.0865 18.0635 48.0142C34.0545 50.6232 47.2352 46.8766 43.087 45.0037L43.0888 45.0115ZM26.36 32.8343C26.36 32.8343 19.067 34.5739 23.7501 35.1758C25.7572 35.4433 29.705 35.3762 33.3846 35.1087C36.3951 34.8413 39.4066 34.3056 39.4066 34.3056C39.4066 34.3056 38.3351 34.7742 37.5999 35.242C30.1728 37.182 15.9215 36.3135 20.0035 34.3056C23.4827 32.6331 26.36 32.8247 26.36 32.8247V32.8343ZM39.4074 40.1272C46.9007 36.2464 43.4215 32.4998 41.0129 32.9684C40.4118 33.1026 40.1418 33.2359 40.1418 33.2359C40.1418 33.2359 40.3421 32.8351 40.8108 32.701C45.561 31.0285 49.3085 37.7186 39.2716 40.3284C39.2716 40.3284 39.3386 40.2614 39.4057 40.1281L39.4074 40.1272ZM27.0969 50.6981C34.3228 51.1668 45.3641 50.4307 45.6307 47.0186C45.6307 47.0186 45.0958 48.3566 39.6757 49.3601C33.5205 50.4978 25.8931 50.3636 21.4086 49.6275C21.4086 49.6275 22.345 50.4307 27.0969 50.699V50.6981Z" fill="#4E7896"/>
<path d="M34.8585 10.7544C34.8585 10.7544 39.0067 14.9706 30.9107 21.3262C24.4209 26.4779 29.4298 29.4223 30.9107 32.7673C27.0969 29.3552 24.3538 26.3446 26.2267 23.5336C28.9707 19.3853 36.5302 17.3783 34.8576 10.7544H34.8585ZM32.7173 29.9571C34.6573 32.1654 32.1816 34.1733 32.1816 34.1733C32.1816 34.1733 37.133 31.6297 34.8576 28.485C32.7844 25.4744 31.1781 24.0022 39.8752 18.9838C39.8752 18.9838 26.1587 22.3959 32.7165 29.9563L32.7173 29.9571Z" fill="#F58219"/>
</svg>
