<svg width="90" height="100" viewBox="0 0 90 100" fill="none" xmlns="http://www.w3.org/2000/svg">
<path d="M90 0H-10V100H90V0Z" fill="#FF0066"/>
<path d="M20.9978 32.9393C22.4144 32.9276 23.7831 32.4254 24.871 31.518C25.9589 30.6106 26.6988 29.3542 26.9645 27.9628C27.2303 26.5713 27.0056 25.1307 26.3286 23.8862C25.6517 22.6418 24.5644 21.6704 23.2518 21.1375C21.9392 20.6046 20.4825 20.543 19.1297 20.9634C17.7768 21.3837 16.6115 22.2599 15.832 23.4428C15.0525 24.6257 14.7071 26.0422 14.8546 27.4512C15.002 28.8601 15.6333 30.1744 16.6408 31.1703C17.214 31.7385 17.8943 32.1874 18.6421 32.491C19.39 32.7947 20.1906 32.947 20.9978 32.9393Z" fill="white"/>
<path d="M8.13879 65.6448C7.78814 67.1513 7.6047 68.692 7.5918 70.2388C7.5918 75.6178 10.5148 79.1878 16.7088 79.1878C21.8498 79.1878 26.0178 76.1348 29.0158 71.2028L27.1868 78.5568H37.3918L43.2388 55.1708C44.6878 49.2278 47.5148 46.1378 51.7998 46.1378C55.1698 46.1378 57.2668 48.2258 57.2668 51.6958C57.2824 52.8065 57.129 53.9132 56.8118 54.9778L53.8058 65.7628C53.3769 67.2433 53.1617 68.7774 53.1668 70.3188C53.1668 75.4258 56.1738 79.1598 62.4668 79.1598C67.8458 79.1598 72.1308 75.6978 74.4978 67.4038L70.4888 65.8548C68.4888 71.4128 66.7298 72.4158 65.3888 72.4158C64.0478 72.4158 63.3008 71.5058 63.3008 69.6848C63.3402 68.7278 63.4929 67.7788 63.7558 66.8578L66.6788 56.3798C67.3368 54.2248 67.6758 51.985 67.6848 49.7318C67.6848 41.8928 62.9448 37.8008 57.1988 37.8008C51.8238 37.8008 46.3408 42.6538 43.6178 47.7568L45.6268 38.5948H30.0138L27.8258 46.6678H35.1258L30.6318 64.6458C27.1068 72.4848 20.6088 72.6098 19.8158 72.4298C18.4798 72.1298 17.6278 71.6198 17.6278 69.8868C17.6686 68.4738 17.8832 67.0713 18.2668 65.7108L25.1028 38.5908H7.77982L5.5918 46.6628H12.7918L8.13879 65.6448Z" fill="white"/>
</svg>
