<svg width="35" height="35" viewBox="0 0 35 35" fill="none" xmlns="http://www.w3.org/2000/svg">
<path d="M33.904 0.769577C32.8782 -0.2562 31.2147 -0.2562 30.189 0.769577L29.459 1.49957C31.2416 2.03748 32.6361 3.43203 33.174 5.21461L33.904 4.48463C34.9301 3.45856 34.9301 1.79536 33.904 0.769577Z" fill="white"/>
<path d="M19.6938 20.4469C19.3765 20.7643 18.9788 20.9895 18.5431 21.0984L17.3368 21.4V24.1482C17.3368 24.3931 17.1928 24.6145 16.9692 24.7143L11.3966 27.191C11.3949 27.1918 11.393 27.1912 11.3913 27.1921C11.3156 27.225 11.233 27.244 11.1451 27.244C11.0571 27.244 10.9745 27.225 10.8988 27.1921C10.8971 27.1912 10.8952 27.1918 10.8935 27.191L5.32094 24.7143C5.09731 24.6145 4.9533 24.3931 4.9533 24.1482V17.9564C4.9533 17.7115 5.09732 17.4901 5.32094 17.3903L10.8935 14.9136C11.0533 14.8423 11.2371 14.8423 11.3966 14.9136L13.6599 15.9195C13.7826 15.5701 13.9637 15.2437 14.2268 14.9805L19.8135 9.39411V3.7154C19.8135 3.03154 19.259 2.47705 18.5751 2.47705H13.6217C13.6217 3.84475 12.5127 4.95375 11.145 4.95375C9.7773 4.95375 8.66831 3.84475 8.66831 2.47705H3.71491C3.03105 2.47705 2.47656 3.03154 2.47656 3.7154V30.9591C2.47656 31.6429 3.03105 32.1974 3.71491 32.1974H18.5751C19.259 32.1974 19.8135 31.6429 19.8135 30.9591V20.327L19.6938 20.4469Z" fill="white"/>
<path d="M6.19141 18.9092V23.7457L10.5256 25.6718V20.8353L6.19141 18.9092Z" fill="white"/>
<path d="M7.09766 17.956L11.1455 19.7553L12.8606 18.9929L13.327 17.1269L11.1455 16.1575L7.09766 17.956Z" fill="white"/>
<path d="M16.0989 21.7094L13.9227 22.2533C13.0158 22.4803 12.1942 21.6588 12.4209 20.7518L12.4795 20.5177L11.7646 20.8353V25.6715L16.0989 23.7457L16.0989 21.7094Z" fill="white"/>
<path d="M21.0519 19.0883V30.9587C21.0519 32.3248 19.9413 33.4354 18.5752 33.4354H3.71505C2.34897 33.4354 1.23835 32.3248 1.23835 30.9587V3.71505C1.23835 2.34897 2.34897 1.23835 3.71505 1.23835H18.5752C19.9413 1.23835 21.0519 2.34897 21.0519 3.71505V8.15541L22.2903 6.91707V3.71505C22.2903 1.66654 20.6238 0 18.5752 0H3.71505C1.66654 0 0 1.66654 0 3.71505V30.9587C0 33.0072 1.66654 34.6738 3.71505 34.6738H18.5752C20.6238 34.6738 22.2903 33.0072 22.2903 30.9587V17.8499L21.0519 19.0883Z" fill="white"/>
<path d="M15.8369 15.1213C16.5246 15.3288 17.1515 15.66 17.6994 16.0981L30.4459 3.35234C29.8657 2.91754 29.1771 2.63311 28.4248 2.53418L15.8369 15.1213Z" fill="white"/>
<path d="M31.3217 4.22719L18.5752 16.9737C19.0133 17.5216 19.3447 18.1485 19.5521 18.8362L32.1401 6.24818C32.0411 5.49604 31.7567 4.80752 31.3219 4.22705L31.3217 4.22719Z" fill="white"/>
<path d="M14.8462 16.1594L13.623 21.0518L18.5154 19.8286C18.2464 17.9257 16.7491 16.4284 14.8462 16.1594Z" fill="white"/>
</svg>
