<svg width="37" height="37" viewBox="0 0 37 37" fill="none" xmlns="http://www.w3.org/2000/svg">
<path d="M2.61888 19.6416H0V35.3549H2.61888C3.34199 35.3549 3.92831 34.7685 3.92831 34.0454V20.951C3.92831 20.2279 3.34199 19.6416 2.61888 19.6416Z" fill="white"/>
<path d="M9.16588 19.6438V3.92833C9.16588 2.48383 10.3403 1.30945 11.7848 1.30945H24.8791C26.3236 1.30945 27.498 2.48383 27.498 3.92833V22.3158L28.8075 21.6117V3.92831C28.8075 1.7622 27.0452 0 24.8791 0H11.7848C9.61865 0 7.85645 1.7622 7.85645 3.92831V19.6438L9.16588 19.6438Z" fill="white"/>
<path d="M35.1634 21.3934C34.2179 20.8284 33.0721 20.8039 32.1041 21.3268L23.5291 25.9364C23.3286 27.5512 21.9636 28.8093 20.2958 28.8093H15.0318C14.6699 28.8093 14.377 28.5164 14.377 28.1546C14.377 27.7927 14.6699 27.4998 15.0318 27.4998H20.2958C21.3791 27.4998 22.26 26.6189 22.26 25.536C22.26 24.4735 21.4106 23.6107 20.3561 23.5783C19.9641 23.5736 13.6361 23.5721 13.6361 23.5721L11.4007 21.3373C11.1552 21.0918 10.822 20.9538 10.4748 20.9538L5.2373 20.9535V34.0487H7.54925L11.7845 35.3558C13.5441 35.9214 15.4261 36.6649 17.5112 36.6649C19.3967 36.6649 21.2548 36.0397 22.8583 34.811L35.3286 26.5578C36.1646 25.9852 36.6638 25.0391 36.6638 24.0289C36.6638 22.9381 36.1032 21.9537 35.1632 21.3937L35.1634 21.3934Z" fill="white"/>
<path d="M14.1794 22.2629C15.7221 22.2635 20.0488 22.2649 20.3712 22.2687C21.8136 22.3134 22.9933 23.2379 23.4095 24.515L26.1888 23.0202V3.92858C26.1888 3.20546 25.6025 2.61914 24.8794 2.61914H20.9511C20.9511 4.06536 19.7784 5.23802 18.3322 5.23802C16.886 5.23802 15.7133 4.06536 15.7133 2.61914H11.785C11.0619 2.61914 10.4756 3.20546 10.4756 3.92858V19.6441C11.175 19.6441 11.8324 19.9165 12.3272 20.4113L14.1794 22.2629ZM21.1428 12.9038C20.887 12.648 20.887 12.2335 21.1428 11.9778C21.3985 11.722 21.813 11.722 22.0688 11.9778L24.6876 14.5967C24.9434 14.8524 24.9434 15.2669 24.6876 15.5226L22.0688 18.1415C21.9407 18.2695 21.7733 18.3335 21.6058 18.3335C21.4383 18.3335 21.2708 18.2695 21.1428 18.1418C20.887 17.886 20.887 17.4716 21.1428 17.2158L23.2986 15.06L21.1428 12.9038ZM17.0426 17.521L18.352 12.2832C18.4391 11.9316 18.7951 11.7142 19.1456 11.8068C19.4966 11.8945 19.7103 12.2499 19.622 12.6003L18.3126 17.8381C18.2383 18.1359 17.9717 18.3344 17.6783 18.3344C17.626 18.3344 17.5722 18.3279 17.519 18.3145C17.168 18.2268 16.9543 17.8714 17.0426 17.521L17.0426 17.521ZM11.9767 14.597L14.5956 11.9781C14.8514 11.7223 15.2658 11.7223 15.5216 11.9781C15.7773 12.2338 15.7773 12.6483 15.5216 12.9041L13.3657 15.0599L15.5216 17.2158C15.7773 17.4715 15.7773 17.886 15.5216 18.1417C15.3935 18.2695 15.2261 18.3335 15.0586 18.3335C14.8911 18.3335 14.7236 18.2695 14.5956 18.1417L11.9767 15.5229C11.721 15.2668 11.721 14.8526 11.9767 14.5969V14.597Z" fill="white"/>
</svg>
