<svg width="36" height="36" viewBox="0 0 36 36" fill="none" xmlns="http://www.w3.org/2000/svg">
<path d="M21.4524 30.2857V31.5476C21.4524 32.9397 20.3206 34.0714 18.9286 34.0714H3.78571C2.39365 34.0714 1.2619 32.9397 1.2619 31.5476V3.78571C1.2619 2.39365 2.39365 1.2619 3.78571 1.2619H18.9286C20.3206 1.2619 21.4524 2.39365 21.4524 3.78571V5.04762H22.7143V3.78571C22.7143 1.69824 21.016 0 18.9286 0H3.78571C1.69823 0 0 1.69824 0 3.78571V31.5476C0 33.6351 1.69823 35.3333 3.78571 35.3333H18.9286C21.016 35.3333 22.7143 33.6351 22.7143 31.5476V30.2857H21.4524Z" fill="white"/>
<path d="M22.7148 6.30933H30.2863L29.0244 8.83313H23.9767L22.7148 6.30933Z" fill="white"/>
<path d="M18.9282 30.2856C17.5362 30.2856 16.4044 29.1539 16.4044 27.7618V19.0136L13.6536 21.3059C13.5353 21.4044 13.3925 21.4526 13.2494 21.4526C13.0694 21.4526 12.8894 21.3749 12.7652 21.2259C12.5421 20.9586 12.5779 20.5603 12.8452 20.3375L16.0493 17.6669L12.8452 14.9964C12.5779 14.7733 12.5421 14.3753 12.7652 14.108C12.9883 13.8407 13.3874 13.8049 13.6536 14.028L16.4044 16.3203V7.57203C16.4044 6.17997 17.5361 5.04822 18.9282 5.04822H20.1901V3.78632C20.1901 3.08945 19.6251 2.52441 18.9282 2.52441H13.8806C13.8806 3.91813 12.7505 5.04822 11.3568 5.04822C9.96305 5.04822 8.83296 3.91813 8.83296 2.52441H3.78534C3.08848 2.52441 2.52344 3.08945 2.52344 3.78632V31.5482C2.52344 32.2451 3.08848 32.8101 3.78534 32.8101H18.9282C19.6251 32.8101 20.1901 32.2451 20.1901 31.5482V30.2863L18.9282 30.2856ZM9.86846 20.3375C10.1358 20.5606 10.1715 20.9586 9.94846 21.2259C9.82424 21.3749 9.64425 21.4526 9.46427 21.4526C9.32117 21.4526 9.17837 21.4045 9.06006 21.3059L5.27435 18.1511C5.13013 18.0317 5.0476 17.8542 5.0476 17.6669C5.0476 17.4796 5.13013 17.3021 5.27435 17.1827L9.06006 14.028C9.32624 13.8049 9.72566 13.8406 9.94844 14.108C10.1715 14.3753 10.1358 14.7736 9.86844 14.9963L6.66436 17.6669L9.86846 20.3375Z" fill="white"/>
<path d="M34.0708 6.30933H31.6959L30.1518 9.39731C29.9383 9.8249 29.5014 10.095 29.0234 10.095H23.9755C23.4975 10.095 23.0606 9.8249 22.8469 9.39731L21.3028 6.30933H18.9279C18.2311 6.30933 17.666 6.87436 17.666 7.57123V27.7617C17.666 28.4586 18.2311 29.0236 18.9279 29.0236H34.0708C34.7676 29.0236 35.3327 28.4586 35.3327 27.7617V7.57123C35.3327 6.87436 34.7676 6.30933 34.0708 6.30933ZM23.9085 24.8889L22.6466 27.4127C22.5559 27.5938 22.3835 27.7208 22.1832 27.7535C22.1494 27.7589 22.1153 27.7614 22.0821 27.7614C21.9165 27.7614 21.7548 27.6961 21.6359 27.5766L20.374 26.3147C20.1276 26.0683 20.1276 25.6688 20.374 25.4224C20.6205 25.1759 21.0199 25.1759 21.2664 25.4224L21.9092 26.0652L22.7798 24.3244C22.9364 24.0126 23.3141 23.8869 23.6265 24.0421C23.938 24.1982 24.0642 24.577 23.9085 24.8888L23.9085 24.8889ZM23.9085 18.5794L22.6466 21.1032C22.5559 21.2843 22.3835 21.4113 22.1832 21.444C22.1494 21.4494 22.1153 21.4519 22.0821 21.4519C21.9165 21.4519 21.7548 21.3865 21.6359 21.2671L20.374 20.0052C20.1276 19.7587 20.1276 19.3593 20.374 19.1129C20.6205 18.8664 21.0199 18.8664 21.2664 19.1129L21.9092 19.7556L22.7798 18.0149C22.9364 17.7031 23.3141 17.5774 23.6265 17.7326C23.938 17.8887 24.0642 18.2675 23.9085 18.5793L23.9085 18.5794ZM23.9085 12.2698L22.6466 14.7937C22.5559 14.9748 22.3835 15.1018 22.1832 15.1345C22.1494 15.1398 22.1153 15.1424 22.0821 15.1424C21.9165 15.1424 21.7548 15.077 21.6359 14.9576L20.374 13.6957C20.1276 13.4492 20.1276 13.0498 20.374 12.8033C20.6205 12.5569 21.0199 12.5569 21.2664 12.8033L21.9092 13.4461L22.7798 11.7053C22.9364 11.3935 23.3141 11.2679 23.6265 11.4231C23.938 11.5792 24.0642 11.958 23.9085 12.2698L23.9085 12.2698Z" fill="white"/>
</svg>
