<svg width="36" height="36" viewBox="0 0 36 36" fill="none" xmlns="http://www.w3.org/2000/svg">
<path d="M14.8256 14.8259C13.1956 14.8259 11.8609 13.4912 11.8609 11.8612V0H2.96538C1.33472 0 0 1.33472 0 2.96538V32.6168C0 34.2475 1.33472 35.5822 2.96538 35.5822H20.7564C22.3864 35.5822 23.7211 34.2475 23.7211 32.6168V14.8258L14.8256 14.8259ZM13.3433 32.617H10.3779C9.55854 32.617 8.89551 31.9543 8.89551 31.1346C8.89551 30.3149 9.55852 29.6522 10.3779 29.6522H13.3433C14.1629 29.6522 14.8256 30.3149 14.8256 31.1346C14.8256 31.9543 14.1629 32.617 13.3433 32.617Z" fill="white"/>
<path d="M35.1472 4.88288L31.006 0.741943L29.4336 2.31613L33.0518 5.9312L29.4352 9.5481L31.0075 11.1198L35.1485 6.97889C35.7271 6.39995 35.7271 5.4599 35.1472 4.8828L35.1472 4.88288Z" fill="white"/>
<path d="M20.9761 2.31455L19.4037 0.742188L15.2616 4.88313C14.6823 5.46237 14.6823 6.40338 15.2616 6.97977L19.4037 11.1201L20.9761 9.54771L17.3579 5.93081L20.9761 2.31455Z" fill="white"/>
<path d="M24.8255 0.000732422H27.0655L25.584 11.8619H23.3428L24.8255 0.000732422Z" fill="white"/>
</svg>
