<svg width="29" height="27" viewBox="0 0 29 27" fill="none" xmlns="http://www.w3.org/2000/svg">
<path d="M26.0302 19.1056V4.63359C26.0302 4.50959 25.9812 4.39159 25.8932 4.30359L22.1602 0.570594C22.0722 0.482594 21.9542 0.433594 21.8302 0.433594H8.76322C8.39191 0.433594 8.03582 0.581093 7.77327 0.843644C7.51072 1.1062 7.36322 1.46229 7.36322 1.83359V23.7666C7.36322 24.1379 7.51072 24.494 7.77327 24.7565C8.03582 25.0191 8.39191 25.1666 8.76322 25.1666H15.9802C16.1684 25.5831 16.4726 25.9366 16.8563 26.1849C17.2401 26.4331 17.6872 26.5657 18.1442 26.5666H25.9822C27.2952 26.5666 28.3632 25.4986 28.3632 24.1856V21.4816C28.3623 20.8591 28.1175 20.2618 27.6814 19.8177C27.2453 19.3735 26.6526 19.1179 26.0302 19.1056ZM22.2972 2.02759L24.4372 4.16759H22.2972V2.02759ZM8.76322 24.2336C8.6396 24.2328 8.52128 24.1834 8.43387 24.0959C8.34646 24.0085 8.297 23.8902 8.29622 23.7666V1.83359C8.297 1.70998 8.34646 1.59165 8.43387 1.50424C8.52128 1.41683 8.6396 1.36738 8.76322 1.36659H21.3632V4.63359C21.3632 4.89159 21.5722 5.10059 21.8302 5.10059H25.0972V19.1006H18.1452C16.8322 19.1006 15.7642 20.1686 15.7642 21.4816V24.1856C15.7642 24.2016 15.7692 24.2166 15.7692 24.2336H8.76422H8.76322ZM27.4302 24.1856C27.4297 24.5695 27.277 24.9375 27.0055 25.2089C26.7341 25.4803 26.3661 25.6331 25.9822 25.6336H18.1442C17.7603 25.6331 17.3924 25.4803 17.1209 25.2089C16.8495 24.9375 16.6967 24.5695 16.6962 24.1856V21.4816C16.6967 21.0977 16.8495 20.7297 17.1209 20.4583C17.3924 20.1868 17.7603 20.0341 18.1442 20.0336H25.9822C26.3661 20.0341 26.7341 20.1868 27.0055 20.4583C27.277 20.7297 27.4297 21.0977 27.4302 21.4816V24.1856ZM22.7652 21.9006C23.0232 21.9006 23.2322 21.6916 23.2322 21.4336C23.2322 21.1756 23.0232 20.9666 22.7652 20.9666H21.3652C21.1072 20.9666 20.8982 21.1756 20.8982 21.4336V24.2336C20.8982 24.4916 21.1072 24.7006 21.3652 24.7006C21.6232 24.7006 21.8322 24.4916 21.8322 24.2336V23.3006H22.7652C23.0232 23.3006 23.2322 23.0916 23.2322 22.8336C23.2322 22.5756 23.0232 22.3666 22.7652 22.3666H21.8322V21.9006H22.7652ZM19.9622 20.9676C19.7042 20.9676 19.4952 21.1766 19.4952 21.4346V22.1746L18.4252 21.1046C18.2912 20.9706 18.0912 20.9306 17.9172 21.0036C17.8322 21.0393 17.7596 21.0992 17.7084 21.1758C17.6572 21.2524 17.6297 21.3424 17.6292 21.4346V24.2346C17.6292 24.4926 17.8382 24.7016 18.0962 24.7016C18.3542 24.7016 18.5632 24.4926 18.5632 24.2346V22.5606L19.4962 23.4936V24.2336C19.4962 24.4916 19.7052 24.7006 19.9632 24.7006C20.2212 24.7006 20.4302 24.4916 20.4302 24.2336V21.4336C20.4302 21.1756 20.2212 20.9666 19.9632 20.9666L19.9622 20.9676ZM26.0292 20.9676H24.1622C23.9042 20.9676 23.6952 21.1766 23.6952 21.4346C23.6952 21.6926 23.9042 21.9016 24.1622 21.9016H24.6292V24.2346C24.6292 24.4926 24.8382 24.7016 25.0962 24.7016C25.3542 24.7016 25.5632 24.4926 25.5632 24.2346V21.9006H26.0302C26.2882 21.9006 26.4972 21.6916 26.4972 21.4336C26.4972 21.1756 26.2882 20.9666 26.0302 20.9666L26.0292 20.9676ZM2.75322 15.3106C2.57122 15.1286 2.27522 15.1286 2.09322 15.3106L1.76322 15.6406L1.43322 15.3106C1.25122 15.1286 0.955219 15.1286 0.773219 15.3106C0.591219 15.4926 0.591219 15.7886 0.773219 15.9706L1.10322 16.3006L0.773219 16.6306C0.591219 16.8126 0.591219 17.1086 0.773219 17.2906C0.864219 17.3816 0.984219 17.4276 1.10322 17.4276C1.22222 17.4276 1.34222 17.3816 1.43322 17.2906L1.76322 16.9606L2.09322 17.2906C2.18422 17.3816 2.30422 17.4276 2.42322 17.4276C2.54222 17.4276 2.66222 17.3816 2.75322 17.2906C2.93522 17.1086 2.93522 16.8126 2.75322 16.6306L2.42322 16.3006L2.75322 15.9706C2.93522 15.7886 2.93522 15.4926 2.75322 15.3106ZM5.02922 15.3676C5.28722 15.3676 5.49622 15.1586 5.49622 14.9006C5.49622 14.6426 5.28722 14.4336 5.02922 14.4336C4.77122 14.4336 4.56222 14.6426 4.56222 14.9006C4.56222 15.1586 4.77122 15.3676 5.02922 15.3676ZM3.63122 10.2336C3.88922 10.2336 4.09822 10.0246 4.09822 9.76659C4.09822 9.50859 3.88922 9.29959 3.63122 9.29959C3.37322 9.29959 3.16422 9.50859 3.16422 9.76659C3.16422 10.0246 3.37322 10.2336 3.63122 10.2336ZM15.7632 10.1146L19.4962 8.99459V12.2406C19.2743 12.1487 19.0365 12.1011 18.7962 12.1006C17.8952 12.1006 17.1632 12.7286 17.1632 13.5006C17.1632 14.2726 17.8962 14.9006 18.7962 14.9006C19.6962 14.9006 20.4292 14.2726 20.4292 13.5006V8.36759C20.4292 8.22059 20.3592 8.08159 20.2412 7.99359C20.1827 7.95028 20.115 7.92114 20.0433 7.90847C19.9716 7.8958 19.898 7.89995 19.8282 7.92059L15.1612 9.32059C14.9632 9.37959 14.8282 9.56159 14.8282 9.76759V13.6416C14.6063 13.5497 14.3685 13.5021 14.1282 13.5016C13.2272 13.5016 12.4952 14.1296 12.4952 14.9016C12.4952 15.6736 13.2282 16.3016 14.1282 16.3016C15.0282 16.3016 15.7612 15.6736 15.7612 14.9016V10.1156L15.7632 10.1146ZM18.7962 13.9676C18.4232 13.9676 18.0962 13.7496 18.0962 13.5006C18.0962 13.2516 18.4232 13.0336 18.7962 13.0336C19.1692 13.0336 19.4962 13.2516 19.4962 13.5006C19.4962 13.7496 19.1692 13.9676 18.7962 13.9676ZM14.1292 15.3676C13.7562 15.3676 13.4292 15.1496 13.4292 14.9006C13.4292 14.6516 13.7562 14.4336 14.1292 14.4336C14.5022 14.4336 14.8292 14.6516 14.8292 14.9006C14.8292 15.1496 14.5022 15.3676 14.1292 15.3676Z" fill="white"/>
</svg>
