<svg width="42" height="58" viewBox="0 0 42 58" fill="none" xmlns="http://www.w3.org/2000/svg">
<path d="M17.1191 24.6833H27.1937V22.668H17.1191V24.6833Z" fill="white" stroke="white" stroke-width="0.999658"/>
<path d="M17.1191 36.7731H27.1937V34.7578H17.1191V36.7731Z" fill="white" stroke="white" stroke-width="0.999658"/>
<path d="M17.1191 12.5934V10.5781H29.208V12.5934H17.1191Z" fill="white" stroke="white" stroke-width="0.999658"/>
<path d="M5.99672 11.2158L8.7238 13.9429C8.81729 14.0365 8.92831 14.1108 9.05053 14.1614C9.17274 14.2121 9.30375 14.2382 9.43605 14.2382C9.56835 14.2382 9.69935 14.2121 9.82157 14.1614C9.94378 14.1108 10.0548 14.0365 10.1483 13.9429L14.8907 9.20054C15.0712 9.00994 15.1702 8.75643 15.1666 8.49396C15.163 8.23148 15.0572 7.98075 14.8716 7.79514C14.686 7.60952 14.4352 7.50366 14.1728 7.50009C13.9103 7.49652 13.6568 7.59552 13.4662 7.77602L9.43655 11.8056L7.42123 9.79033C7.23064 9.60983 6.97714 9.51083 6.71466 9.5144C6.45218 9.51797 6.20146 9.62383 6.01585 9.80945C5.83023 9.99506 5.72437 10.2458 5.7208 10.5083C5.71723 10.7707 5.81622 11.0253 5.99672 11.2158Z" fill="white" stroke="white" stroke-width="0.999658"/>
<path d="M6.00096 23.3057L8.72802 26.0328C8.82151 26.1264 8.93255 26.2006 9.05477 26.2513C9.17698 26.302 9.30799 26.328 9.44029 26.328C9.57259 26.328 9.70359 26.302 9.82581 26.2513C9.94802 26.2006 10.059 26.1264 10.1525 26.0328L14.8949 21.2904C15.0754 21.0998 15.1744 20.8463 15.1708 20.5838C15.1673 20.3213 15.0614 20.0706 14.8758 19.885C14.6902 19.6994 14.4395 19.5935 14.177 19.5899C13.9145 19.5864 13.661 19.6854 13.4704 19.8659L9.44077 23.8955L7.42547 21.8802C7.23604 21.6932 6.98032 21.5888 6.71415 21.5897C6.44799 21.5906 6.19299 21.6968 6.00485 21.8851C5.8167 22.0733 5.71069 22.3284 5.70996 22.5946C5.70924 22.8607 5.81385 23.1164 6.00096 23.3057Z" fill="white" stroke="white" stroke-width="0.999658"/>
<path d="M5.99672 35.3955L8.7238 38.1226C8.81729 38.2162 8.92831 38.2905 9.05053 38.3411C9.17274 38.3918 9.30375 38.4179 9.43605 38.4179C9.56835 38.4179 9.69935 38.3918 9.82157 38.3411C9.94378 38.2905 10.0548 38.2162 10.1483 38.1226L14.8907 33.3802C15.0712 33.1896 15.1702 32.9361 15.1666 32.6736C15.163 32.4112 15.0572 32.1604 14.8716 31.9748C14.686 31.7892 14.4352 31.6834 14.1728 31.6798C13.9103 31.6762 13.6568 31.7752 13.4662 31.9557L9.43655 35.9853L7.42123 33.97C7.23064 33.7895 6.97714 33.6905 6.71466 33.6941C6.45218 33.6977 6.20146 33.8035 6.01585 33.9891C5.83023 34.1748 5.72437 34.4255 5.7208 34.6879C5.71723 34.9504 5.81622 35.2049 5.99672 35.3955Z" fill="white" stroke="white" stroke-width="0.999658"/>
<path d="M1 0.503906V56.9206H28.6176L41.2972 44.2419V23.9269L39.2819 26.0402V42.8164H27.193V54.9063H3.01531V2.52421H39.2829V26.595C39.9307 26.0578 40.6025 25.5513 41.2982 25.0755V0.503906H1ZM29.2084 44.8307H37.8584L29.2084 53.4858V44.8307Z" fill="white" stroke="white" stroke-width="0.999658"/>
</svg>
