<svg width="51" height="63" viewBox="0 0 51 63" fill="none" xmlns="http://www.w3.org/2000/svg">
<mask id="mask0_2497_190" style="mask-type:luminance" maskUnits="userSpaceOnUse" x="0" y="0" width="51" height="63">
<path d="M50.3101 0H0.500977V62.2969H50.3101V0Z" fill="white"/>
</mask>
<g mask="url(#mask0_2497_190)">
<path d="M4.9005 53.2108H31.4139V57.5933H31.0809C22.3625 57.5933 13.6436 57.5933 4.9245 57.5933C4.34831 57.5981 3.77683 57.4893 3.24269 57.2732C2.70855 57.057 2.22221 56.7378 1.81144 56.3337C1.40067 55.9296 1.07351 55.4486 0.848656 54.9181C0.6238 54.3876 0.505644 53.8179 0.500937 53.2418C0.500937 53.1418 0.500937 53.0508 0.500937 52.9558C0.500937 36.824 0.500937 20.6896 0.500937 4.55254C0.463563 3.60361 0.737138 2.66844 1.28005 1.88927C1.82296 1.11009 2.6055 0.52956 3.50864 0.235963C3.9916 0.0853642 4.4946 0.00883585 5.00049 0.00898534C15.9548 -0.00368008 26.909 -0.00701309 37.8633 -0.00101368C38.4528 -0.0195263 39.04 0.0819294 39.5892 0.297198C40.1383 0.512466 40.638 0.837059 41.058 1.25128C41.4779 1.66551 41.8093 2.16073 42.032 2.7069C42.2548 3.25306 42.3643 3.83879 42.3538 4.42855C42.3708 11.8868 42.3598 19.3451 42.3588 26.8024C42.3588 26.8853 42.3468 26.9673 42.3388 27.0703C41.3595 27.0932 40.4014 27.361 39.5521 27.8493C39.4673 27.8762 39.3754 27.8698 39.2951 27.8312C38.9152 27.6733 38.5362 27.5123 38.1682 27.3313C38.0772 27.2659 38.0112 27.1713 37.9813 27.0633C37.9636 26.9697 37.9612 26.8738 37.9743 26.7794V4.39855H4.9005V53.2108Z" fill="white"/>
<path d="M31.1858 44.8637C31.2518 44.4878 31.3388 43.8918 31.4647 43.3049C31.5119 43.1142 31.5039 42.914 31.4418 42.7276C31.3797 42.5412 31.2659 42.3763 31.1138 42.252C30.7358 41.897 30.3449 41.5521 29.9989 41.1681C29.831 41.0158 29.6973 40.8296 29.6065 40.6219C29.5157 40.4141 29.47 40.1895 29.4722 39.9628C29.4745 39.7361 29.5248 39.5125 29.6197 39.3066C29.7146 39.1007 29.852 38.9173 30.0229 38.7683C30.3074 38.4544 30.6146 38.1616 30.9418 37.8924C31.1744 37.7239 31.3469 37.4853 31.434 37.2116C31.5211 36.9379 31.5182 36.6435 31.4257 36.3716C31.3061 35.9335 31.2301 35.4847 31.1988 35.0317C31.159 34.8078 31.1682 34.578 31.2257 34.3581C31.2832 34.1381 31.3877 33.9332 31.5319 33.7574C31.6761 33.5817 31.8567 33.4392 32.0612 33.3399C32.2657 33.2405 32.4893 33.1866 32.7166 33.1819C33.1956 33.1039 33.6795 33.0499 34.1615 32.9909C34.3367 32.9799 34.5055 32.9211 34.6495 32.8208C34.7936 32.7204 34.9074 32.5825 34.9784 32.422C35.1604 32.029 35.3324 31.632 35.5303 31.2471C35.8093 30.7031 36.1243 30.1552 36.7942 30.0612C37.1461 30.0148 37.504 30.0546 37.8371 30.1772C38.3228 30.3808 38.791 30.6239 39.237 30.9041C39.4332 31.0304 39.662 31.0967 39.8954 31.0949C40.1288 31.0932 40.3565 31.0234 40.5508 30.8941C40.9428 30.6641 41.3378 30.4382 41.7507 30.2442C41.9463 30.1175 42.1673 30.0353 42.3981 30.0033C42.6289 29.9714 42.8639 29.9904 43.0865 30.0592C43.3092 30.1279 43.514 30.2447 43.6866 30.4012C43.8592 30.5577 43.9954 30.7502 44.0855 30.9651C44.2925 31.3088 44.4662 31.6714 44.6045 32.048C44.6999 32.3588 44.8974 32.6283 45.1651 32.8128C45.4328 32.9974 45.7549 33.0862 46.0793 33.0649C46.4909 33.0866 46.8994 33.1479 47.2992 33.2479C47.5177 33.2834 47.7265 33.3641 47.9121 33.4848C48.0978 33.6055 48.2562 33.7635 48.3774 33.9489C48.4985 34.1342 48.5798 34.3427 48.6159 34.5612C48.652 34.7796 48.6422 35.0032 48.5871 35.2177C48.5081 35.6966 48.4111 36.1726 48.3151 36.6485C48.2658 36.8337 48.2694 37.029 48.3254 37.2123C48.3814 37.3956 48.4876 37.5595 48.6321 37.6854C48.984 38.0064 49.34 38.3244 49.671 38.6674C49.8706 38.8253 50.0318 39.0263 50.1427 39.2554C50.2536 39.4845 50.3112 39.7357 50.3112 39.9902C50.3112 40.2447 50.2536 40.4959 50.1427 40.725C50.0318 40.9541 49.8706 41.1552 49.671 41.3131C49.347 41.6471 49 41.96 48.6581 42.276C48.5046 42.4072 48.3915 42.5793 48.332 42.7722C48.2726 42.9652 48.2691 43.1711 48.3221 43.3659C48.4221 43.8198 48.4981 44.2778 48.5731 44.7368C48.6356 44.9662 48.647 45.2066 48.6063 45.4409C48.5656 45.6752 48.4739 45.8977 48.3377 46.0926C48.2014 46.2876 48.024 46.4501 47.8179 46.5688C47.6118 46.6875 47.3822 46.7595 47.1452 46.7796C46.6782 46.8655 46.2053 46.9245 45.7323 46.9705C45.5149 46.9792 45.3047 47.0509 45.1272 47.1767C44.9497 47.3025 44.8126 47.4772 44.7324 47.6795C44.5122 48.1939 44.2614 48.6948 43.9815 49.1793C43.8334 49.478 43.5868 49.7164 43.2833 49.8543C42.9798 49.9922 42.638 50.0211 42.3157 49.9362C41.9834 49.8338 41.6616 49.6999 41.3548 49.5363C41.0418 49.3843 40.7438 49.2003 40.4399 49.0303C40.2708 48.9294 40.0772 48.877 39.8804 48.879C39.6835 48.8809 39.491 48.9371 39.324 49.0413C39.011 49.2183 38.702 49.4033 38.3821 49.5633C38.1208 49.7008 37.8481 49.8156 37.5671 49.9062C37.2743 50.0113 36.9546 50.015 36.6593 49.917C36.364 49.8189 36.1102 49.6247 35.9383 49.3653C35.6378 48.9446 35.3927 48.4869 35.2094 48.0034C35.1024 47.6639 34.8837 47.3704 34.5889 47.1708C34.2942 46.9711 33.9406 46.8769 33.5855 46.9035C33.1954 46.8824 32.8084 46.8214 32.4306 46.7216C31.5647 46.5016 31.1798 45.9786 31.1868 44.8707M39.8739 36.2046C39.1218 36.2062 38.387 36.431 37.7628 36.8505C37.1385 37.27 36.6528 37.8653 36.3671 38.5611C36.0814 39.2568 36.0087 40.0217 36.1581 40.7589C36.3074 41.496 36.6722 42.1722 37.2062 42.7019C37.7402 43.2316 38.4194 43.5908 39.1578 43.7342C39.8961 43.8775 40.6604 43.7985 41.3538 43.5072C42.0472 43.2158 42.6386 42.7253 43.0529 42.0976C43.4673 41.4699 43.6861 40.7333 43.6815 39.9812C43.6755 38.9761 43.2714 38.0143 42.5577 37.3065C41.8441 36.5987 40.879 36.2025 39.8739 36.2046Z" fill="white"/>
<path d="M39.8811 58.3758L37.1864 60.8506L35.8305 62.0954C35.7497 62.1875 35.6419 62.2516 35.5225 62.2787C35.4031 62.3059 35.2782 62.2946 35.1656 62.2464C35.0474 62.1992 34.9472 62.1157 34.8797 62.0078C34.8121 61.9 34.7805 61.7734 34.7896 61.6465C34.7896 61.3715 34.7896 61.0955 34.7896 60.8206V49.7596C34.8896 49.8716 34.9476 49.9256 34.9946 49.9866C35.3352 50.4798 35.8372 50.8385 36.4141 51.001C36.9909 51.1635 37.6064 51.1194 38.1543 50.8765C38.6408 50.6727 39.1114 50.4327 39.5621 50.1586C39.6608 50.0912 39.7776 50.0551 39.8971 50.0551C40.0166 50.0551 40.1334 50.0912 40.2321 50.1586C40.6545 50.4185 41.0949 50.6481 41.5499 50.8455C42.1152 51.1172 42.7603 51.1725 43.3635 51.0012C43.9668 50.8299 44.4865 50.4438 44.8246 49.9156C44.8606 49.8676 44.9006 49.8246 44.9876 49.7227V50.0296C44.9876 53.8626 44.9856 57.6955 44.9816 61.5285C44.9846 61.7164 44.9358 61.9014 44.8406 62.0634C44.6346 62.3794 44.2337 62.3634 43.9037 62.0634C42.8505 61.0975 41.7983 60.131 40.747 59.1637C40.4681 58.9067 40.1871 58.6518 39.8831 58.3748" fill="white"/>
<path d="M21.44 19.0054C24.9664 19.0054 28.492 19.0054 32.017 19.0054C32.2131 19.0016 32.408 19.0374 32.59 19.1105C32.772 19.1836 32.9375 19.2926 33.0765 19.431C33.2155 19.5694 33.3252 19.7343 33.3991 19.916C33.4731 20.0977 33.5097 20.2924 33.5068 20.4885C33.5039 20.6846 33.4616 20.8782 33.3824 21.0576C33.3031 21.237 33.1886 21.3987 33.0455 21.5329C32.9025 21.6671 32.7339 21.7712 32.5499 21.8389C32.3658 21.9067 32.1699 21.9367 31.974 21.9271C27.9611 21.9271 23.9481 21.9271 19.9352 21.9271C16.8968 21.9271 13.8585 21.9271 10.8201 21.9271C10.4841 21.9283 10.158 21.8129 9.89751 21.6007C9.63698 21.3885 9.45807 21.0925 9.39124 20.7632C9.31791 20.4234 9.37019 20.0685 9.5384 19.7643C9.70661 19.46 9.97936 19.227 10.3061 19.1084C10.5165 19.0395 10.7368 19.0057 10.9581 19.0084C14.4517 19.0024 17.9457 19.0024 21.44 19.0084" fill="white"/>
<path d="M18.6162 11.8092C21.1786 11.8092 23.7413 11.8092 26.3044 11.8092C26.6564 11.7812 27.0063 11.8841 27.2871 12.0982C27.5679 12.3122 27.7599 12.6223 27.8263 12.9691C27.87 13.1797 27.8667 13.3973 27.8167 13.6065C27.7666 13.8157 27.6711 14.0113 27.5369 14.1793C27.4026 14.3474 27.233 14.4838 27.04 14.5788C26.847 14.6737 26.6355 14.725 26.4204 14.7289C26.3464 14.7289 26.2724 14.7289 26.1984 14.7289C21.1363 14.7289 16.0744 14.7289 11.0129 14.7289C10.5865 14.7571 10.166 14.6167 9.84203 14.3379C9.62962 14.1446 9.47894 13.893 9.40887 13.6144C9.33879 13.3359 9.35243 13.0429 9.44807 12.7721C9.53877 12.4928 9.71567 12.2494 9.95336 12.0769C10.191 11.9045 10.4773 11.8118 10.7709 11.8122C13.3867 11.8042 16.0024 11.8122 18.6182 11.8122L18.6162 11.8092Z" fill="white"/>
</g>
</svg>
