<svg width="54" height="60" viewBox="0 0 54 60" fill="none" xmlns="http://www.w3.org/2000/svg">
<path d="M47.0694 4.99035C43.7016 2.1378 39.3612 0.698089 34.9562 0.972409C30.5513 1.24673 26.423 3.21383 23.4351 6.46217C20.4473 9.71052 18.8313 13.9884 18.9253 18.401C19.0193 22.8135 20.8159 27.0187 23.9394 30.1369L18.8962 36.1472C17.9459 35.3581 16.7227 34.9758 15.4923 35.0835C14.2619 35.1911 13.1236 35.78 12.3249 36.7221L1.33481 49.8195C0.546035 50.7698 0.164056 51.9929 0.27182 53.2231C0.379585 54.4534 0.968401 55.5914 1.91037 56.39L4.29242 58.3888C5.2425 59.1778 6.4655 59.56 7.69577 59.4525C8.92604 59.345 10.0642 58.7565 10.863 57.8147L21.8518 44.7187C22.6409 43.7685 23.0232 42.5453 22.9155 41.3149C22.8079 40.0845 22.219 38.9462 21.2769 38.1475L26.3201 32.1372C29.9332 34.6795 34.39 35.7246 38.7565 35.0534C43.1231 34.3823 47.0603 32.047 49.7431 28.5371C52.4259 25.0271 53.6459 20.615 53.1475 16.2254C52.649 11.8357 50.4709 7.80945 47.0694 4.99035ZM45.0707 7.3724C47.1911 9.15067 48.7367 11.5178 49.5118 14.1745C50.2869 16.8312 50.2568 19.658 49.4253 22.2976C48.5938 24.9371 46.9982 27.2708 44.8403 29.0035C42.6824 30.7362 40.0592 31.7901 37.3023 32.0319C34.5455 32.2737 31.7788 31.6926 29.3523 30.3619C26.9257 29.0313 24.9483 27.011 23.67 24.5565C22.3917 22.1019 21.8699 19.3235 22.1708 16.5724C22.4716 13.8214 23.5815 11.2214 25.3601 9.10112C26.5391 7.6911 27.9848 6.52763 29.6144 5.67741C31.2439 4.8272 33.0252 4.30695 34.8562 4.1465C36.6872 3.98604 38.5319 4.18854 40.2844 4.74237C42.037 5.2962 43.6631 6.19047 45.0694 7.37394L45.0707 7.3724ZM29.8152 10.7759C29.492 10.56 29.0996 10.473 28.7154 10.5321C28.3312 10.5912 27.983 10.7921 27.7396 11.0951C25.8897 13.3087 24.9922 16.1651 25.2435 19.0389C25.4948 21.9127 26.8744 24.5699 29.0804 26.4288C29.3963 26.6939 29.8045 26.8226 30.2153 26.7867C30.6261 26.7507 31.0058 26.5531 31.2708 26.2372C31.5359 25.9213 31.6646 25.5131 31.6287 25.1023C31.5927 24.6915 31.3951 24.3118 31.0792 24.0468C30.2944 23.3924 29.6468 22.5894 29.1736 21.6838C28.7004 20.7782 28.4109 19.7879 28.3219 18.7701C28.2328 17.7522 28.346 16.7267 28.6547 15.7527C28.9635 14.7787 29.4618 13.8754 30.121 13.0947C30.2669 12.9282 30.3756 12.7325 30.4397 12.5206C30.5039 12.3088 30.5221 12.0857 30.4931 11.8662C30.4641 11.6468 30.3885 11.4361 30.2715 11.2482C30.1545 11.0602 29.9994 10.8987 29.8152 10.7759ZM16.898 38.5285L19.2801 40.5272C19.4407 40.6556 19.5736 40.8152 19.6707 40.9964C19.7678 41.1776 19.8271 41.3766 19.845 41.5814C19.8629 41.7862 19.8391 41.9925 19.7749 42.1878C19.7107 42.3831 19.6076 42.5634 19.4717 42.7176L8.48162 55.8151C8.35337 55.9758 8.19381 56.1089 8.01261 56.206C7.8314 56.3032 7.63234 56.3626 7.4275 56.3805C7.22266 56.3984 7.01631 56.3745 6.82098 56.3103C6.62565 56.246 6.44541 56.1428 6.29121 56.0068L3.90915 54.008C3.74842 53.8797 3.61542 53.7202 3.51823 53.539C3.42104 53.3578 3.36169 53.1587 3.34377 52.9538C3.32584 52.749 3.34973 52.5427 3.41398 52.3473C3.47822 52.152 3.58149 51.9718 3.7175 51.8176L14.7076 38.7201C14.8362 38.5593 14.9961 38.4264 15.1776 38.3294C15.3592 38.2324 15.5585 38.1733 15.7636 38.1556C15.9687 38.138 16.1752 38.1623 16.3707 38.227C16.5661 38.2916 16.7463 38.3953 16.9004 38.5318L16.898 38.5285Z" fill="white"/>
</svg>
