<svg width="27" height="35" viewBox="0 0 27 35" fill="none" xmlns="http://www.w3.org/2000/svg">
<path d="M25.8948 25.351C25.9622 25.3513 26.0289 25.3382 26.0911 25.3126C26.1533 25.2869 26.2099 25.2492 26.2575 25.2016C26.3051 25.154 26.3428 25.0975 26.3684 25.0352C26.394 24.973 26.4071 24.9063 26.4068 24.839V1.203C26.4068 0.54 25.8668 0 25.2038 0H1.79184C1.12884 0 0.589844 0.539 0.589844 1.203V33.798C0.589844 34.461 1.12884 35.001 1.79284 35.001H25.2048C25.8678 35.001 26.4078 34.462 26.4078 33.798V27.022C26.4078 26.8862 26.3539 26.756 26.2579 26.66C26.1619 26.5639 26.0316 26.51 25.8958 26.51C25.7601 26.51 25.6298 26.5639 25.5338 26.66C25.4378 26.756 25.3838 26.8862 25.3838 27.022V33.798C25.3838 33.896 25.3038 33.976 25.2058 33.976H1.79184C1.69384 33.976 1.61384 33.896 1.61384 33.798V1.203C1.61384 1.105 1.69384 1.025 1.79184 1.025H25.2038C25.3018 1.025 25.3818 1.105 25.3818 1.203V24.839C25.3816 24.9063 25.3946 24.973 25.4203 25.0352C25.4459 25.0975 25.4836 25.154 25.5312 25.2016C25.5788 25.2492 25.6354 25.2869 25.6976 25.3126C25.7598 25.3382 25.8265 25.3513 25.8938 25.351H25.8948ZM6.29284 27.012V29.31C6.29284 29.78 6.67484 30.162 7.14484 30.162H19.8548C20.3248 30.162 20.7068 29.78 20.7068 29.31V27.012C20.7068 26.542 20.3248 26.16 19.8548 26.16H7.14484C6.67484 26.16 6.29284 26.542 6.29284 27.012ZM7.31684 27.184H19.6828V29.138H7.31684V27.184ZM20.5278 7.459C20.4652 7.35643 20.3771 7.27173 20.2722 7.21305C20.1673 7.15438 20.049 7.12371 19.9288 7.124H18.0588V6.261C18.0583 6.00974 17.9583 5.76892 17.7806 5.59125C17.6029 5.41358 17.3621 5.31353 17.1108 5.313H9.81284C9.56158 5.31353 9.32076 5.41358 9.14309 5.59125C8.96542 5.76892 8.86537 6.00974 8.86484 6.261V7.124H6.99484C6.87427 7.12297 6.75547 7.15311 6.64996 7.2115C6.54446 7.26988 6.45582 7.35453 6.39265 7.45724C6.32948 7.55995 6.2939 7.67723 6.28938 7.79773C6.28486 7.91822 6.31154 8.03785 6.36684 8.145L6.95684 9.312L6.36684 10.479C6.31154 10.5862 6.28486 10.7058 6.28938 10.8263C6.2939 10.9468 6.32948 11.0641 6.39265 11.1668C6.45582 11.2695 6.54446 11.3541 6.64996 11.4125C6.75547 11.4709 6.87427 11.501 6.99484 11.5H10.4038C10.9408 11.5 11.3788 11.063 11.3788 10.525V9.518H15.5438V10.525C15.5438 11.062 15.9808 11.5 16.5188 11.5H19.9278C20.0484 11.501 20.1672 11.4709 20.2727 11.4125C20.3782 11.3541 20.4669 11.2695 20.53 11.1668C20.5932 11.0641 20.6288 10.9468 20.6333 10.8263C20.6378 10.7058 20.6111 10.5862 20.5558 10.479L19.9658 9.312L20.5558 8.145C20.6105 8.03788 20.6366 7.91849 20.6317 7.79833C20.6268 7.67818 20.591 7.56131 20.5278 7.459ZM9.89084 6.338H17.0348V8.494H9.89084V6.338ZM10.3558 10.476H7.51884L7.94684 9.63C7.99613 9.53142 8.02179 9.42272 8.02179 9.3125C8.02179 9.20228 7.99613 9.09358 7.94684 8.995L7.51884 8.149H8.86584V8.571C8.86637 8.82226 8.96642 9.06308 9.14409 9.24075C9.32176 9.41842 9.56258 9.51847 9.81384 9.519H10.3558V10.476ZM18.9788 9.63L19.4068 10.476H16.5698V9.519H17.1118C17.3631 9.51847 17.6039 9.41842 17.7816 9.24075C17.9593 9.06308 18.0593 8.82226 18.0598 8.571V8.149H19.4078L18.9798 8.995C18.8788 9.194 18.8778 9.432 18.9788 9.63ZM17.7018 2.049H4.86684C4.79953 2.04874 4.73284 2.0618 4.6706 2.08744C4.60836 2.11307 4.55181 2.15078 4.50422 2.19837C4.45662 2.24597 4.41891 2.30252 4.39328 2.36475C4.36764 2.42699 4.35458 2.49369 4.35484 2.561C4.35379 2.88053 4.22639 3.18667 4.00045 3.41261C3.77451 3.63855 3.46837 3.76595 3.14884 3.767C3.08153 3.76674 3.01484 3.7798 2.9526 3.80543C2.89036 3.83107 2.83381 3.86878 2.78622 3.91637C2.73862 3.96397 2.70092 4.02052 2.67528 4.08275C2.64964 4.14499 2.63658 4.21169 2.63684 4.279V30.721C2.63658 30.7883 2.64964 30.855 2.67528 30.9172C2.70092 30.9795 2.73862 31.036 2.78622 31.0836C2.83381 31.1312 2.89036 31.1689 2.9526 31.1946C3.01484 31.2202 3.08153 31.2333 3.14884 31.233C3.46837 31.2341 3.77451 31.3615 4.00045 31.5874C4.22639 31.8133 4.35379 32.1195 4.35484 32.439C4.35458 32.5063 4.36764 32.573 4.39328 32.6352C4.41891 32.6975 4.45662 32.754 4.50422 32.8016C4.55181 32.8492 4.60836 32.8869 4.6706 32.9126C4.73284 32.9382 4.79953 32.9513 4.86684 32.951H22.1268C22.1942 32.9513 22.2609 32.9382 22.3231 32.9126C22.3853 32.8869 22.4419 32.8492 22.4895 32.8016C22.5371 32.754 22.5748 32.6975 22.6004 32.6352C22.626 32.573 22.6391 32.5063 22.6388 32.439C22.6399 32.1195 22.7673 31.8133 22.9932 31.5874C23.2192 31.3615 23.5253 31.2341 23.8448 31.233C23.9122 31.2333 23.9789 31.2202 24.0411 31.1946C24.1033 31.1689 24.1599 31.1312 24.2075 31.0836C24.2551 31.036 24.2928 30.9795 24.3184 30.9172C24.344 30.855 24.3571 30.7883 24.3568 30.721V4.279C24.3571 4.21169 24.344 4.14499 24.3184 4.08275C24.2928 4.02052 24.2551 3.96397 24.2075 3.91637C24.1599 3.86878 24.1033 3.83107 24.0411 3.80543C23.9789 3.7798 23.9122 3.76674 23.8448 3.767C23.5253 3.76595 23.2192 3.63855 22.9932 3.41261C22.7673 3.18667 22.6399 2.88053 22.6388 2.561C22.6391 2.49369 22.626 2.42699 22.6004 2.36475C22.5748 2.30252 22.5371 2.24597 22.4895 2.19837C22.4419 2.15078 22.3853 2.11307 22.3231 2.08744C22.2609 2.0618 22.1942 2.04874 22.1268 2.049H19.8848C19.7491 2.049 19.6188 2.10294 19.5228 2.19896C19.4268 2.29498 19.3728 2.42521 19.3728 2.561C19.3728 2.69679 19.4268 2.82702 19.5228 2.92304C19.6188 3.01906 19.7491 3.073 19.8848 3.073H21.6738C21.77 3.47587 21.9759 3.84421 22.2688 4.13707C22.5616 4.42994 22.93 4.63588 23.3328 4.732V30.269C22.93 30.3651 22.5616 30.5711 22.2688 30.8639C21.9759 31.1568 21.77 31.5251 21.6738 31.928H5.31984C5.22372 31.5251 5.01779 31.1568 4.72492 30.8639C4.43205 30.5711 4.06372 30.3651 3.66084 30.269V4.732C4.06372 4.63588 4.43205 4.42994 4.72492 4.13707C5.01779 3.84421 5.22372 3.47587 5.31984 3.073H17.7018C17.8376 3.073 17.9679 3.01906 18.0639 2.92304C18.1599 2.82702 18.2138 2.69679 18.2138 2.561C18.2138 2.42521 18.1599 2.29498 18.0639 2.19896C17.9679 2.10294 17.8376 2.049 17.7018 2.049ZM8.60884 17.476C8.66401 17.3519 8.66761 17.2109 8.61885 17.0842C8.57009 16.9574 8.47296 16.8552 8.34884 16.8C8.22472 16.7448 8.08377 16.7412 7.957 16.79C7.83022 16.8388 7.72801 16.9359 7.67284 17.06C7.42436 17.6188 7.26995 18.2148 7.21584 18.824L7.02684 20.93C6.99484 21.283 7.14284 21.625 7.42084 21.845C7.49392 21.9024 7.57429 21.9498 7.65984 21.986L7.49584 23.183C7.42484 23.699 7.65484 24.194 8.09384 24.473C8.31284 24.612 8.55684 24.682 8.80084 24.682C9.04484 24.682 9.29584 24.611 9.51584 24.469L10.3288 23.944C11.2703 23.3375 12.3665 23.0149 13.4863 23.0149C14.6062 23.0149 15.7024 23.3375 16.6438 23.944L17.4568 24.469C17.8948 24.752 18.4398 24.753 18.8788 24.474C19.3178 24.195 19.5478 23.7 19.4768 23.184L19.3148 21.997C19.409 21.9596 19.4973 21.9087 19.5768 21.846C19.7135 21.7386 19.8211 21.5987 19.8897 21.439C19.9584 21.2794 19.9859 21.1051 19.9698 20.932L19.7808 18.825C19.6742 17.6097 19.1701 16.4634 18.3466 15.5634C17.523 14.6634 16.4259 14.0598 15.2248 13.846V13.824C15.2238 13.3666 15.0416 12.9282 14.7181 12.6047C14.3947 12.2812 13.9563 12.0991 13.4988 12.098C13.0414 12.0991 12.603 12.2812 12.2795 12.6047C11.9561 12.9282 11.7739 13.3666 11.7728 13.824V13.846C10.7928 14.023 9.87084 14.461 9.10984 15.123C9.00734 15.2121 8.94443 15.3383 8.93496 15.4738C8.92549 15.6093 8.97023 15.743 9.05934 15.8455C9.14846 15.948 9.27464 16.0109 9.41013 16.0204C9.54563 16.0299 9.67934 15.9851 9.78184 15.896C10.6078 15.1778 11.6653 14.7822 12.7598 14.782H14.2398C15.3745 14.7797 16.4687 15.2033 17.306 15.9689C18.1434 16.7346 18.6629 17.7867 18.7618 18.917L18.9508 21.024C18.9518 21.029 18.9518 21.036 18.9428 21.043C18.9338 21.05 18.9278 21.048 18.9228 21.047L16.0828 20.097C14.3983 19.537 12.5777 19.538 10.8938 20.1L8.07784 21.046C8.07284 21.048 8.06684 21.05 8.05784 21.043C8.04884 21.036 8.04884 21.029 8.04984 21.024L8.23884 18.918C8.28277 18.4211 8.40846 17.9349 8.61084 17.479L8.60884 17.476ZM13.4988 13.12C13.8638 13.12 14.1648 13.4 14.1978 13.756H12.7998C12.8328 13.4 13.1338 13.12 13.4988 13.12ZM11.2188 21.069C12.6915 20.5781 14.2835 20.5771 15.7568 21.066L18.2688 21.906L18.4628 23.321C18.4858 23.489 18.3778 23.578 18.3298 23.608C18.2818 23.638 18.1558 23.699 18.0128 23.607L17.1998 23.082C16.0926 22.3693 14.8036 21.9903 13.4868 21.9903C12.1701 21.9903 10.8811 22.3693 9.77384 23.082L8.96084 23.607C8.81784 23.699 8.69184 23.638 8.64384 23.608C8.59584 23.578 8.48784 23.489 8.51084 23.321L8.70384 21.913L11.2188 21.069Z" fill="white"/>
</svg>
