<svg width="33" height="32" viewBox="0 0 33 32" fill="none" xmlns="http://www.w3.org/2000/svg">
<path d="M26.8909 18.6887C26.8912 18.364 26.7952 18.0466 26.6149 17.7765C26.4347 17.5065 26.1784 17.296 25.8784 17.1718C25.5784 17.0476 25.2483 17.0152 24.93 17.0787C24.6116 17.1423 24.3192 17.2989 24.0899 17.5287C23.86 17.758 23.7034 18.0504 23.6399 18.3688C23.5764 18.6872 23.6088 19.0172 23.733 19.3172C23.8572 19.6172 24.0677 19.8735 24.3377 20.0538C24.6078 20.234 24.9252 20.33 25.2499 20.3297C25.4654 20.3298 25.6789 20.2875 25.878 20.2051C26.0772 20.1226 26.2581 20.0018 26.4105 19.8494C26.5629 19.697 26.6838 19.516 26.7662 19.3168C26.8487 19.1177 26.891 18.9042 26.8909 18.6887ZM24.7039 18.6887C24.704 18.5805 24.736 18.4748 24.7959 18.3847C24.8556 18.2947 24.941 18.2247 25.0409 18.1837C25.1409 18.1425 25.2508 18.1317 25.3569 18.1527C25.4629 18.1737 25.5599 18.2257 25.6369 18.3027C25.7139 18.3797 25.7659 18.4767 25.7869 18.5827C25.8078 18.6888 25.7971 18.7987 25.7559 18.8987C25.7149 18.9986 25.6449 19.084 25.5549 19.1437C25.4494 19.2135 25.3232 19.2449 25.1973 19.2325C25.0714 19.2201 24.9537 19.1648 24.8639 19.0757C24.7609 18.9737 24.7039 18.8337 24.7039 18.6887ZM30.1719 21.4227C30.1722 21.098 30.0762 20.7806 29.8959 20.5105C29.7157 20.2405 29.4594 20.03 29.1594 19.9058C28.8594 19.7816 28.5293 19.7492 28.211 19.8127C27.8926 19.8763 27.6002 20.0329 27.3709 20.2627C27.141 20.492 26.9844 20.7844 26.9209 21.1028C26.8574 21.4212 26.8898 21.7512 27.014 22.0512C27.1382 22.3512 27.3487 22.6075 27.6187 22.7878C27.8888 22.968 28.2062 23.064 28.5309 23.0637C28.7464 23.0638 28.9599 23.0215 29.159 22.9391C29.3582 22.8566 29.5391 22.7358 29.6915 22.5834C29.8439 22.431 29.9648 22.25 30.0472 22.0508C30.1297 21.8517 30.172 21.6382 30.1719 21.4227ZM27.9849 21.4227C27.985 21.3145 28.017 21.2088 28.0769 21.1187C28.1369 21.0287 28.2229 20.9587 28.3219 20.9177C28.4219 20.8765 28.5318 20.8657 28.6379 20.8867C28.7441 20.9075 28.8417 20.9598 28.9179 21.0367C28.9939 21.1137 29.0469 21.2107 29.0679 21.3167C29.0888 21.4228 29.0781 21.5327 29.0369 21.6327C28.9959 21.7326 28.9259 21.818 28.8359 21.8777C28.7304 21.9475 28.6042 21.9789 28.4783 21.9665C28.3524 21.9541 28.2347 21.8988 28.1449 21.8097C28.0419 21.7077 27.9849 21.5677 27.9849 21.4227ZM21.9689 23.0637C21.9685 23.3884 22.0646 23.7058 22.2448 23.9759C22.4251 24.2459 22.6814 24.4564 22.9814 24.5806C23.2813 24.7048 23.6114 24.7372 23.9298 24.6737C24.2482 24.6102 24.5406 24.4535 24.7699 24.2237C24.9997 23.9944 25.1563 23.702 25.2199 23.3836C25.2834 23.0652 25.251 22.7352 25.1268 22.4352C25.0026 22.1352 24.7921 21.8789 24.5221 21.6987C24.252 21.5184 23.9346 21.4224 23.6099 21.4227C23.3944 21.4226 23.1809 21.4649 22.9817 21.5473C22.7826 21.6298 22.6016 21.7506 22.4492 21.903C22.2968 22.0555 22.176 22.2364 22.0935 22.4356C22.0111 22.6347 21.9688 22.8482 21.9689 23.0637ZM24.1569 23.0637C24.1568 23.1719 24.1248 23.2776 24.0649 23.3677C24.0052 23.4577 23.9198 23.5277 23.8199 23.5687C23.7199 23.6099 23.61 23.6207 23.5039 23.5997C23.3976 23.5789 23.3001 23.5266 23.2239 23.4497C23.1479 23.3727 23.0949 23.2757 23.0739 23.1697C23.0529 23.0636 23.0637 22.9537 23.1049 22.8537C23.1459 22.7538 23.2159 22.6684 23.3059 22.6087C23.4113 22.5389 23.5376 22.5075 23.6635 22.5199C23.7893 22.5323 23.9071 22.5877 23.9969 22.6767C24.0999 22.7787 24.1569 22.9187 24.1569 23.0637ZM26.8909 27.4387C27.2156 27.439 27.533 27.343 27.8031 27.1628C28.0731 26.9825 28.2836 26.7262 28.4078 26.4262C28.532 26.1262 28.5644 25.7962 28.5009 25.4778C28.4373 25.1594 28.2807 24.867 28.0509 24.6377C27.8216 24.4079 27.5292 24.2513 27.2108 24.1877C26.8924 24.1242 26.5623 24.1566 26.2624 24.2808C25.9624 24.405 25.7061 24.6155 25.5258 24.8855C25.3456 25.1556 25.2495 25.473 25.2499 25.7977C25.2498 26.0132 25.2921 26.2267 25.3745 26.4258C25.457 26.625 25.5778 26.806 25.7302 26.9584C25.8826 27.1108 26.0636 27.2316 26.2627 27.3141C26.4619 27.3965 26.6754 27.4388 26.8909 27.4387ZM26.8909 25.2517C26.9991 25.2518 27.1048 25.2838 27.1949 25.3437C27.2849 25.4037 27.3549 25.4897 27.3959 25.5887C27.4371 25.6887 27.4478 25.7986 27.4269 25.9047C27.4059 26.0107 27.3539 26.1077 27.2769 26.1847C27.1999 26.2617 27.1029 26.3137 26.9969 26.3347C26.8908 26.3557 26.7809 26.3449 26.6809 26.3037C26.581 26.2627 26.4956 26.1927 26.4359 26.1027C26.366 25.9973 26.3347 25.871 26.3471 25.7451C26.3594 25.6193 26.4148 25.5015 26.5039 25.4117C26.6059 25.3087 26.7459 25.2517 26.8909 25.2517ZM2.28089 11.5787C2.76445 11.5768 3.23377 11.4148 3.61564 11.1182C3.9975 10.8215 4.27045 10.4068 4.39189 9.9387H7.74989V12.1267H6.65589C6.58385 12.1262 6.51245 12.1402 6.44589 12.1677C6.37941 12.195 6.31894 12.2351 6.26789 12.2857L5.56289 12.9857C5.31317 12.8348 5.03546 12.736 4.74652 12.6953C4.45758 12.6547 4.1634 12.673 3.88173 12.7491C3.60006 12.8253 3.33674 12.9578 3.10766 13.1385C2.87859 13.3192 2.68851 13.5445 2.54889 13.8007C2.47989 13.9267 2.46389 14.0757 2.50389 14.2137C2.54415 14.3516 2.63675 14.4682 2.76189 14.5387C2.84089 14.5867 2.93189 14.6107 3.02389 14.6097C3.12432 14.6099 3.22288 14.5826 3.30889 14.5307C3.39489 14.4787 3.46489 14.4037 3.51089 14.3147C3.60765 14.1467 3.74745 14.0076 3.91589 13.9117C4.08489 13.8157 4.27489 13.7657 4.46789 13.7677C4.62058 13.768 4.7715 13.8004 4.91089 13.8627C5.05089 13.9247 5.17489 14.0157 5.27689 14.1287C5.37289 14.2377 5.50789 14.3037 5.65189 14.3127C5.79652 14.3216 5.93882 14.2731 6.04789 14.1777C6.12991 14.1025 6.18564 14.0029 6.20689 13.8937L6.87989 13.2207H7.74989V13.7287C7.7508 13.8248 7.77121 13.9197 7.80989 14.0077C7.8669 14.1255 7.96405 14.2191 8.08389 14.2717C8.20389 14.3247 8.33789 14.3317 8.46289 14.2937C8.58789 14.2557 8.69489 14.1737 8.76489 14.0627C8.83489 13.9517 8.86289 13.8207 8.84389 13.6907V6.1487C8.84662 5.86132 8.92483 5.5797 9.07068 5.33206C9.21652 5.08443 9.42488 4.87946 9.67489 4.7377L15.7179 1.3907C15.958 1.26047 16.2268 1.19226 16.4999 1.19226C16.773 1.19226 17.0418 1.26047 17.2819 1.3907L23.2979 4.7317C23.5537 4.8704 23.7679 5.07465 23.9187 5.32348C24.0695 5.57232 24.1513 5.85679 24.1559 6.1477V13.6887C24.1439 13.7997 24.1669 13.9117 24.2209 14.0097C24.2743 14.1076 24.3568 14.1865 24.4569 14.2357C24.5316 14.2805 24.6159 14.3069 24.7029 14.3127C24.8053 14.3129 24.9057 14.2845 24.9929 14.2307C25.0799 14.1767 25.1499 14.0987 25.1949 14.0067C25.2336 13.9187 25.254 13.8238 25.2549 13.7277V13.2197H26.1249L26.7919 13.8927C26.8159 14.0017 26.8739 14.1017 26.9559 14.1767C27.0649 14.2727 27.2069 14.3207 27.3519 14.3117C27.4235 14.3075 27.4935 14.289 27.5579 14.2574C27.6223 14.2258 27.6797 14.1817 27.7269 14.1277C27.8289 14.0147 27.9529 13.9247 28.0909 13.8627C28.2482 13.7916 28.4202 13.7588 28.5927 13.7672C28.7651 13.7755 28.9332 13.8247 29.0829 13.9107C29.2509 14.0067 29.3909 14.1457 29.4879 14.3137C29.5349 14.3987 29.6039 14.4707 29.6869 14.5207C29.7707 14.5708 29.8663 14.5977 29.9639 14.5987C30.0561 14.5996 30.1468 14.5751 30.2259 14.5277C30.352 14.458 30.4457 14.3417 30.4869 14.2037C30.5279 14.0657 30.5129 13.9167 30.4439 13.7897C30.2529 13.4503 29.9749 13.168 29.6384 12.9718C29.302 12.7756 28.9193 12.6727 28.5299 12.6737C28.1399 12.6747 27.7659 12.7857 27.4359 12.9857L26.7409 12.2857C26.6889 12.2337 26.6259 12.1927 26.5579 12.1657C26.4899 12.1387 26.4159 12.1257 26.3419 12.1267H25.2479V9.9397H28.6059C28.7059 10.324 28.9086 10.674 29.1922 10.952C29.4758 11.23 29.8297 11.4256 30.216 11.518C30.6023 11.6103 31.0064 11.5959 31.3851 11.4763C31.7638 11.3566 32.1028 11.1362 32.3659 10.8387C32.7179 10.4397 32.9119 9.9247 32.9119 9.3927C32.9119 8.8607 32.7179 8.3457 32.3659 7.9467C32.1027 7.64945 31.7637 7.42934 31.385 7.30991C31.0064 7.19048 30.6024 7.17623 30.2163 7.26867C29.8302 7.36111 29.4765 7.55678 29.193 7.83474C28.9095 8.1127 28.7069 8.46249 28.6069 8.8467H25.2489V6.1097H26.3429C26.4149 6.11018 26.4863 6.09624 26.5529 6.0687C26.6194 6.04138 26.6798 6.00129 26.7309 5.9507L27.4369 5.2507C27.9009 5.5247 28.4499 5.6197 28.9789 5.5187C29.5079 5.4177 29.9829 5.1257 30.3129 4.6997C30.6429 4.2737 30.8069 3.7417 30.7729 3.2037C30.7389 2.6657 30.5099 2.1587 30.1289 1.7777C29.7479 1.3967 29.2409 1.1677 28.7019 1.1337C28.1638 1.09941 27.6317 1.26301 27.2059 1.5937C26.78 1.92418 26.4889 2.39835 26.3869 2.9277C26.2851 3.45719 26.3804 4.0056 26.6549 4.4697L26.1079 5.0167H24.9979C24.7549 4.4937 24.3529 4.0617 23.8499 3.7807L17.8339 0.428703C17.4329 0.210703 16.9839 0.0957031 16.5269 0.0957031C16.0699 0.0957031 15.6209 0.209703 15.2199 0.428703L9.14389 3.7807C8.64262 4.06255 8.24274 4.49497 8.00089 5.0167H6.87989L6.33289 4.4697C6.60498 4.0036 6.6971 3.45405 6.59189 2.9247C6.48695 2.39562 6.19297 1.92285 5.76489 1.5947C5.33658 1.26664 4.80305 1.10658 4.26489 1.1447C3.72685 1.1826 3.22102 1.41508 2.84189 1.7987C2.46289 2.1827 2.23789 2.6917 2.20789 3.2307C2.17813 3.76939 2.34556 4.30048 2.67889 4.7247C3.01256 5.14886 3.4899 5.43626 4.02089 5.5327C4.55189 5.6297 5.09989 5.5297 5.56189 5.2517L6.25689 5.9517C6.30889 6.0037 6.37189 6.0447 6.43989 6.0717C6.50789 6.0987 6.58189 6.1117 6.65589 6.1097H7.74989V8.8437H4.39089C4.28824 8.4474 4.07657 8.08779 3.77989 7.8057C3.48275 7.52393 3.11288 7.33068 2.71189 7.2477C2.31085 7.16574 1.89487 7.19781 1.51114 7.34027C1.1274 7.48274 0.791274 7.72989 0.540885 8.0537C0.290899 8.37779 0.136737 8.76545 0.0958853 9.1727C0.0548853 9.5797 0.129885 9.9907 0.310885 10.3577C0.492231 10.7248 0.77285 11.0337 1.12089 11.2493C1.46893 11.465 1.87045 11.5787 2.27989 11.5777L2.28089 11.5787ZM30.7189 8.2977C30.9349 8.2977 31.1469 8.3617 31.3269 8.4817C31.5069 8.6017 31.6469 8.7727 31.7299 8.9727C31.8129 9.1727 31.8349 9.3927 31.7919 9.6047C31.7494 9.8167 31.6454 10.0115 31.4929 10.1647C31.34 10.3177 31.1451 10.4218 30.9329 10.4637C30.7209 10.5057 30.5009 10.4847 30.3009 10.4017C30.1009 10.3187 29.9299 10.1787 29.8099 9.9987C29.6899 9.8187 29.6259 9.6077 29.6259 9.3907C29.6259 9.1007 29.7409 8.8227 29.9459 8.6177C30.1509 8.4127 30.4289 8.2977 30.7189 8.2977ZM28.5319 2.2817C28.8219 2.2817 29.0999 2.3967 29.3049 2.6017C29.5099 2.8067 29.6249 3.0847 29.6249 3.3747C29.6249 3.6647 29.5099 3.9427 29.3049 4.1477C29.0999 4.3527 28.8219 4.4677 28.5319 4.4677C28.2419 4.4677 27.9649 4.3507 27.7609 4.1447C27.556 3.94022 27.4399 3.66319 27.4379 3.3737C27.4377 3.23013 27.4659 3.08793 27.5208 2.95528C27.5757 2.82262 27.6563 2.70213 27.7579 2.6007C27.9629 2.3957 28.2409 2.2807 28.5309 2.2807L28.5319 2.2817ZM3.37389 3.3757C3.37419 3.19608 3.41848 3.01926 3.50289 2.8607C3.58689 2.7017 3.70989 2.5667 3.85889 2.4677C4.00789 2.3687 4.17989 2.3067 4.35889 2.2887C4.53789 2.2707 4.71789 2.2977 4.88389 2.3657C5.04989 2.4337 5.19689 2.5427 5.31089 2.6807C5.42489 2.8187 5.50389 2.9837 5.53889 3.1597C5.57389 3.3357 5.56589 3.5177 5.51489 3.6897C5.46348 3.8617 5.37039 4.01834 5.24389 4.1457C5.09089 4.2997 4.89589 4.4047 4.68389 4.4477C4.47151 4.49074 4.25113 4.4695 4.05089 4.3867C3.85089 4.3037 3.67889 4.1637 3.55889 3.9837C3.43855 3.80337 3.37419 3.5925 3.37389 3.3757ZM2.28089 8.2977C2.49689 8.2977 2.70889 8.3617 2.88889 8.4817C3.06889 8.6017 3.20889 8.7727 3.29189 8.9727C3.37489 9.1727 3.39589 9.3927 3.35389 9.6047C3.31211 9.81696 3.20812 10.012 3.05515 10.165C2.90218 10.3179 2.70715 10.4219 2.49489 10.4637C2.28289 10.5057 2.06289 10.4847 1.86289 10.4017C1.66289 10.3187 1.49189 10.1787 1.37189 9.9987C1.25189 9.8187 1.18789 9.6077 1.18789 9.3907C1.18789 9.1007 1.30289 8.8227 1.50789 8.6177C1.71289 8.4127 1.99089 8.2977 2.28089 8.2977ZM14.3129 29.6257H12.1259V31.8137H14.3139V29.6267L14.3129 29.6257ZM20.3279 29.0787H18.1409V31.2667H20.3289V29.0797L20.3279 29.0787Z" fill="white"/>
</svg>
