<svg width="31" height="35" viewBox="0 0 31 35" fill="none" xmlns="http://www.w3.org/2000/svg">
<path d="M12.608 12.7394C13.703 12.7394 14.595 11.8514 14.595 10.7604C14.5942 10.2337 14.3846 9.72874 14.0121 9.35628C13.6396 8.98381 13.1347 8.77422 12.608 8.77342C11.517 8.77342 10.629 9.66442 10.629 10.7604C10.6292 11.2852 10.8378 11.7884 11.2089 12.1595C11.58 12.5306 12.0832 12.7392 12.608 12.7394ZM12.608 9.82142C12.7316 9.82022 12.8543 9.84369 12.9687 9.89045C13.0832 9.93721 13.1872 10.0063 13.2746 10.0938C13.3621 10.1812 13.4312 10.2852 13.4779 10.3997C13.5247 10.5141 13.5482 10.6368 13.547 10.7604C13.547 11.2734 13.126 11.6914 12.608 11.6914C12.4857 11.6916 12.3645 11.6676 12.2515 11.6208C12.1385 11.5741 12.0358 11.5055 11.9494 11.419C11.8629 11.3326 11.7943 11.2299 11.7476 11.1169C11.7008 11.0038 11.6768 10.8827 11.677 10.7604C11.6772 10.5128 11.7751 10.2754 11.9495 10.0995C12.1238 9.92374 12.3604 9.82379 12.608 9.82142ZM30.059 26.9834C29.769 26.9834 29.535 27.2184 29.535 27.5074V27.7854C29.535 28.0744 29.769 28.3094 30.059 28.3094C30.349 28.3094 30.583 28.0744 30.583 27.7854V27.5074C30.583 27.2184 30.349 26.9834 30.059 26.9834ZM30.583 19.5374C30.583 17.9974 29.33 16.7444 27.79 16.7444H27.198V7.90442C27.198 6.60142 26.294 5.51242 25.081 5.20942V3.44642C25.0794 2.72625 24.7922 2.0361 24.2825 1.52732C23.7728 1.01855 23.0821 0.732685 22.362 0.732422H8.63397C7.91466 0.734007 7.22526 1.02045 6.71663 1.52908C6.208 2.03772 5.92155 2.72711 5.91997 3.44642V5.20942C4.70697 5.51342 3.80297 6.60142 3.80297 7.90542V16.7454H3.20497C1.66797 16.7454 0.417969 17.9984 0.417969 19.5384V31.4744C0.417969 33.0144 1.66897 34.2674 3.20497 34.2674H27.79C29.33 34.2674 30.583 33.0144 30.583 31.4744V30.1804C30.583 29.8914 30.349 29.6564 30.059 29.6564C29.769 29.6564 29.535 29.8914 29.535 30.1804V31.4744C29.5336 31.9368 29.3494 32.3799 29.0224 32.7069C28.6954 33.0338 28.2524 33.2181 27.79 33.2194H3.20497C2.24597 33.2194 1.46597 32.4364 1.46597 31.4744V19.5374C1.46597 18.5754 2.24597 17.7924 3.20497 17.7924H27.79C28.2524 17.7937 28.6954 17.978 29.0224 18.305C29.3494 18.6319 29.5336 19.075 29.535 19.5374V25.1124C29.535 25.4014 29.769 25.6364 30.059 25.6364C30.349 25.6364 30.583 25.4014 30.583 25.1124V19.5374ZM8.63397 1.77942H22.363C22.8054 1.77916 23.2298 1.95444 23.5431 2.26679C23.8564 2.57913 24.0329 3.00303 24.034 3.44542V5.11642H6.96797V3.44642C6.96903 3.0049 7.14489 2.58176 7.4571 2.26955C7.7693 1.95734 8.19244 1.78148 8.63397 1.78042V1.77942ZM4.85097 7.90542C4.85097 6.94642 5.63297 6.16542 6.59497 6.16542H24.405C25.367 6.16542 26.15 6.94542 26.15 7.90542V16.7454H20.188L17.437 13.1724C17.337 13.0424 17.165 12.9504 17.017 12.9684C16.852 12.9704 16.698 13.0484 16.601 13.1804L13.96 16.7464H12.724L11.817 15.7004C11.7631 15.6378 11.6951 15.5889 11.6186 15.5577C11.5421 15.5266 11.4593 15.5142 11.377 15.5214C11.211 15.5354 11.061 15.6274 10.973 15.7704L10.377 16.7454H4.85097V7.90542ZM18.866 16.7454H15.265L17.031 14.3614L18.866 16.7454ZM21.915 22.2134C21.9142 21.6655 21.6961 21.1402 21.3087 20.7527C20.9212 20.3652 20.3959 20.1472 19.848 20.1464H11.153C10.605 20.1472 10.0797 20.3652 9.69226 20.7527C9.30479 21.1402 9.08676 21.6655 9.08597 22.2134C9.08676 22.7614 9.30479 23.2867 9.69226 23.6741C10.0797 24.0616 10.605 24.2796 11.153 24.2804H19.848C20.3959 24.2796 20.9212 24.0616 21.3087 23.6741C21.6961 23.2867 21.9142 22.7614 21.915 22.2134ZM19.848 23.2324H11.153C10.8828 23.2322 10.6238 23.1247 10.4327 22.9337C10.2417 22.7426 10.1342 22.4836 10.134 22.2134C10.1342 21.9432 10.2417 21.6842 10.4327 21.4932C10.6238 21.3021 10.8828 21.1947 11.153 21.1944H19.848C20.1181 21.1947 20.3772 21.3021 20.5682 21.4932C20.7593 21.6842 20.8667 21.9432 20.867 22.2134C20.8667 22.4836 20.7593 22.7426 20.5682 22.9337C20.3772 23.1247 20.1181 23.2322 19.848 23.2324ZM12.412 27.6424V29.0514L11.302 27.3554C11.019 26.9244 10.339 27.1204 10.339 27.6424V30.8084C10.339 31.0974 10.573 31.3324 10.863 31.3324C11.153 31.3324 11.387 31.0974 11.387 30.8084V29.3994L12.497 31.0954C12.781 31.5284 13.46 31.3304 13.46 30.8084V27.6424C13.46 27.3534 13.226 27.1184 12.936 27.1184C12.646 27.1184 12.412 27.3534 12.412 27.6424ZM19.013 31.3334C19.303 31.3334 19.537 31.0984 19.537 30.8094V28.1674H20.138C20.428 28.1674 20.662 27.9324 20.662 27.6434C20.662 27.3544 20.428 27.1194 20.138 27.1194H17.887C17.597 27.1194 17.363 27.3544 17.363 27.6434C17.363 27.9324 17.597 28.1674 17.887 28.1674H18.489V30.8094C18.489 31.0984 18.723 31.3334 19.013 31.3334ZM16.367 28.1674C16.657 28.1674 16.891 27.9324 16.891 27.6434C16.891 27.3544 16.657 27.1194 16.367 27.1194H14.782C14.492 27.1194 14.258 27.3544 14.258 27.6434V30.8094C14.258 31.0984 14.492 31.3334 14.782 31.3334C15.072 31.3334 15.306 31.0984 15.306 30.8094V29.7504H16.367C16.657 29.7504 16.891 29.5154 16.891 29.2264C16.891 28.9374 16.657 28.7024 16.367 28.7024H15.306V28.1674H16.367Z" fill="white"/>
</svg>
