<svg width="57" height="57" viewBox="0 0 57 57" fill="none" xmlns="http://www.w3.org/2000/svg">
<mask id="mask0_2497_208" style="mask-type:luminance" maskUnits="userSpaceOnUse" x="0" y="0" width="57" height="57">
<path d="M56.6182 0H0.00634766V56.4219H56.6182V0Z" fill="white"/>
</mask>
<g mask="url(#mask0_2497_208)">
<path d="M56.6182 14.1689V15.7165C56.5798 15.7775 56.5483 15.8426 56.5242 15.9105C56.3796 16.6643 56.0616 17.3741 55.5954 17.9838C55.1293 18.5935 54.5277 19.0864 53.8382 19.4236C53.1487 19.7608 52.3902 19.933 51.6227 19.9266C50.8552 19.9201 50.0998 19.7353 49.416 19.3866C49.317 19.3273 49.2003 19.3047 49.0863 19.323C48.9724 19.3413 48.8686 19.3992 48.7932 19.4866C47.9824 20.1864 47.1426 20.8443 46.3378 21.5471C45.882 21.9534 45.2862 22.1667 44.6762 22.1419C41.415 22.1219 38.1528 22.1329 34.8916 22.1329H34.3268V26.5598C38.4447 26.5598 42.5167 26.5538 46.5887 26.5698C46.9386 26.5698 47.0016 26.3699 47.1196 26.1409C47.5197 25.2777 48.1587 24.547 48.9609 24.0355C49.7631 23.5239 50.6951 23.2527 51.6466 23.2541C52.5981 23.2555 53.5293 23.5293 54.33 24.0432C55.1308 24.5571 55.7677 25.2895 56.1653 26.1539C56.3429 26.5741 56.4945 27.0048 56.6192 27.4436V28.9912C56.5755 29.0887 56.5381 29.1889 56.5072 29.2911C56.2781 30.304 55.741 31.2211 54.9696 31.9164C54.1982 32.6117 53.2305 33.0511 52.1993 33.1742C51.1663 33.2883 50.1234 33.0759 49.2173 32.5669C48.3112 32.0578 47.5874 31.2776 47.1476 30.3359C47.1011 30.1843 47.0029 30.0538 46.8701 29.9672C46.7373 29.8806 46.5782 29.8433 46.4208 29.862C42.5517 29.877 38.6817 29.871 34.8117 29.871H34.3118V34.2919H34.9446C38.2058 34.2919 41.468 34.3009 44.7292 34.2839C45.3026 34.2628 45.8622 34.4633 46.2918 34.8438C47.0856 35.5306 47.9134 36.1784 48.7052 36.8682C48.8027 36.9825 48.9385 37.0572 49.0872 37.0786C49.2359 37.0999 49.3872 37.0664 49.513 36.9842C50.1164 36.6955 50.7721 36.5319 51.4405 36.5034C52.1089 36.4748 52.7761 36.5819 53.402 36.8182C54.0279 37.0544 54.5995 37.4149 55.0823 37.878C55.5651 38.3411 55.9491 38.8971 56.2113 39.5126C56.3763 39.8965 56.4822 40.3054 56.6112 40.7033V42.2509C56.5832 42.2969 56.5372 42.3409 56.5292 42.3899C56.4048 43.0549 56.1462 43.6877 55.7693 44.2496C55.3925 44.8115 54.9051 45.2908 54.337 45.6583C53.769 46.0258 53.132 46.2738 52.465 46.3872C51.798 46.5006 51.1148 46.477 50.4572 46.3179C49.7996 46.1587 49.1813 45.8674 48.6399 45.4616C48.0985 45.0558 47.6454 44.5441 47.3081 43.9575C46.9709 43.3709 46.7566 42.7219 46.6783 42.0498C46.6 41.3778 46.6593 40.6968 46.8526 40.0485C46.8613 39.9491 46.8473 39.8492 46.8118 39.756C46.7763 39.6629 46.7202 39.579 46.6477 39.5106C46.0308 38.9587 45.398 38.4199 44.7372 37.921C44.4972 37.7402 44.2085 37.6358 43.9084 37.6211C40.8871 37.6001 37.8649 37.6071 34.8427 37.6091C34.6647 37.6091 34.4877 37.6251 34.3148 37.6341V49.775C35.6984 49.775 37.0431 49.743 38.3848 49.79C38.619 49.8282 38.8591 49.7828 39.0633 49.6618C39.2674 49.5408 39.4225 49.3519 39.5015 49.1282C40.0523 48.0693 40.9662 47.2443 42.0757 46.8043C43.1852 46.3643 44.4161 46.3387 45.5429 46.7322C46.6697 47.1258 47.6171 47.9121 48.2114 48.9472C48.8058 49.9822 49.0073 51.1968 48.7792 52.3684C48.5855 53.4031 48.0676 54.3494 47.3005 55.0703C46.5334 55.7913 45.5569 56.2495 44.5122 56.3788C43.4674 56.508 42.4087 56.3015 41.489 55.7893C40.5694 55.277 39.8365 54.4854 39.3965 53.5291C39.3475 53.3772 39.2452 53.2482 39.1085 53.1658C38.9718 53.0835 38.8099 53.0534 38.6527 53.0812C37.8609 53.1032 37.0681 53.0882 36.2763 53.0882H34.2768C34.2768 53.677 34.2818 54.1879 34.2768 54.7038C34.2865 54.9301 34.2489 55.1559 34.1666 55.3669C34.0842 55.5779 33.9588 55.7694 33.7984 55.9293C33.6379 56.0891 33.446 56.2138 33.2347 56.2955C33.0234 56.3771 32.7975 56.4138 32.5712 56.4034C29.66 56.4094 26.7487 56.4094 23.8374 56.4034C23.6064 56.4158 23.3755 56.379 23.1598 56.2955C22.9441 56.212 22.7486 56.0836 22.5862 55.9189C22.4238 55.7541 22.2983 55.5568 22.2179 55.3399C22.1375 55.123 22.1041 54.8916 22.1198 54.6608C22.1148 53.889 22.1198 53.1172 22.1198 52.3384C19.8756 51.7715 17.7188 50.9024 15.7084 49.755C15.6246 49.7279 15.5355 49.7213 15.4486 49.7355C15.3616 49.7498 15.2794 49.7846 15.2086 49.837C14.7177 50.2819 14.2698 50.7738 13.7899 51.2317C13.6351 51.4044 13.4453 51.5424 13.2332 51.6365C13.0212 51.7306 12.7915 51.7786 12.5595 51.7775C12.3275 51.7764 12.0984 51.7261 11.8872 51.6299C11.6761 51.5337 11.4877 51.3939 11.3345 51.2197C9.28172 49.1815 7.23656 47.1357 5.19907 45.0822C5.02319 44.9304 4.88176 44.7428 4.78426 44.532C4.68675 44.3211 4.63543 44.0919 4.63373 43.8596C4.63203 43.6273 4.67998 43.3973 4.77438 43.185C4.86877 42.9728 5.00744 42.7831 5.18108 42.6288C5.61097 42.1729 6.04886 41.723 6.51274 41.3031C6.78967 41.0532 6.76868 40.8573 6.60172 40.5493C6.14501 39.7516 5.73347 38.9288 5.36903 38.0849C4.86915 36.8503 4.45226 35.5796 3.98838 34.2909C3.28355 34.2909 2.54774 34.2909 1.81192 34.2909C1.57179 34.315 1.3293 34.286 1.10162 34.206C0.87394 34.126 0.66663 33.9969 0.494367 33.8279C0.322105 33.6588 0.189102 33.454 0.104773 33.2279C0.0204439 33.0018 -0.0131489 32.7599 0.00637253 32.5193C0.00637253 29.6447 0.00637253 26.7698 0.00637253 23.8945C-0.0122422 23.6592 0.0201959 23.4227 0.101467 23.2011C0.182738 22.9795 0.310924 22.778 0.477253 22.6106C0.643582 22.4431 0.844127 22.3135 1.06516 22.2308C1.2862 22.148 1.52252 22.1139 1.75793 22.1309C2.52774 22.1309 3.29755 22.1309 4.06736 22.1309C4.62442 19.8992 5.4945 17.7575 6.65171 15.7695C6.68727 15.723 6.71274 15.6696 6.72652 15.6126C6.74029 15.5557 6.74207 15.4965 6.73172 15.4389C6.72138 15.3812 6.69914 15.3264 6.66643 15.2778C6.63372 15.2292 6.59126 15.188 6.54174 15.1567C6.08785 14.7248 5.64196 14.2799 5.21007 13.83C5.02903 13.6765 4.88333 13.4855 4.78297 13.2704C4.68261 13.0553 4.62996 12.8209 4.62863 12.5835C4.6273 12.3461 4.67732 12.1113 4.77527 11.895C4.87321 11.6788 5.01676 11.4862 5.19607 11.3306C7.23623 9.28249 9.28272 7.23867 11.3355 5.19918C11.4888 5.0248 11.6774 4.88498 11.8887 4.78898C12.1001 4.69298 12.3295 4.64299 12.5617 4.64233C12.7938 4.64167 13.0235 4.69035 13.2354 4.78514C13.4473 4.87993 13.6367 5.01868 13.7909 5.19218C14.2178 5.59908 14.6467 6.00598 15.0366 6.44687C15.3165 6.76279 15.5255 6.76379 15.9184 6.58483C17.618 5.80903 19.3495 5.09221 21.0761 4.37139C21.4182 4.25008 21.7674 4.14992 22.1218 4.07146C22.1218 3.26566 22.1218 2.51085 22.1218 1.75704C22.1063 1.5263 22.14 1.2949 22.2207 1.07816C22.3013 0.861424 22.4271 0.664293 22.5897 0.499825C22.7523 0.335358 22.9479 0.207306 23.1637 0.124151C23.3795 0.0409966 23.6105 0.00463586 23.8414 0.0174772C26.7527 0.0121452 29.6639 0.0121452 32.5752 0.0174772C32.801 0.00770443 33.0264 0.0449778 33.237 0.126932C33.4476 0.208885 33.6389 0.33373 33.7987 0.493541C33.9585 0.653353 34.0834 0.844642 34.1653 1.05527C34.2473 1.26589 34.2846 1.49126 34.2748 1.71705C34.2808 2.24392 34.2748 2.77079 34.2748 3.33165C35.8744 3.33165 37.401 3.34264 38.9276 3.31465C39.0746 3.31465 39.2735 3.09471 39.3525 2.93075C39.8006 1.93901 40.5607 1.121 41.5169 0.601414C42.4732 0.08183 43.5731 -0.110822 44.6489 0.0528278C45.7248 0.216477 46.7177 0.72745 47.4762 1.50785C48.2347 2.28825 48.7172 3.29527 48.8501 4.37539C48.9812 5.4819 48.7394 6.60051 48.163 7.5541C47.5866 8.50768 46.7086 9.24175 45.6679 9.64007C44.627 10.0722 43.466 10.1188 42.3938 9.7715C41.3216 9.42423 40.4084 8.70586 39.8184 7.74554C39.6298 7.3397 39.3101 7.00919 38.9107 6.80732C38.5113 6.60545 38.0556 6.54398 37.617 6.63282C36.5172 6.69581 35.4175 6.64682 34.3178 6.64682V18.8138H34.9586C37.63 18.8138 40.3033 18.7768 42.9736 18.8338C43.4251 18.8891 43.8832 18.8381 44.3115 18.6848C44.7397 18.5315 45.1262 18.2802 45.44 17.951C45.7874 17.5943 46.1707 17.2743 46.5837 16.9962C46.7143 16.918 46.8114 16.7944 46.8566 16.6491C46.9018 16.5038 46.8918 16.3469 46.8287 16.2084C46.5428 15.1263 46.63 13.9793 47.0763 12.9528C47.5226 11.9264 48.3019 11.0803 49.2883 10.5513C50.2747 10.0223 51.4107 9.84133 52.5126 10.0375C53.6146 10.2337 54.6183 10.7957 55.3615 11.6326C55.9697 12.3707 56.3997 13.2389 56.6182 14.1699M3.34354 30.9307C3.39387 30.9488 3.44574 30.9621 3.4985 30.9707C4.08835 30.9707 4.6772 30.9707 5.26706 30.9777C5.69501 30.9366 6.12216 31.0637 6.45805 31.332C6.79395 31.6004 7.01221 31.9889 7.0666 32.4154C7.62506 35.1809 8.71127 37.8129 10.2658 40.1674C10.4035 40.3373 10.506 40.5329 10.5675 40.7428C10.6289 40.9526 10.648 41.1726 10.6236 41.3899C10.5992 41.6073 10.5319 41.8176 10.4255 42.0086C10.3191 42.1997 10.1758 42.3677 10.0039 42.5028C9.56698 42.9447 9.11309 43.3686 8.7042 43.7685L12.6632 47.7505C13.0631 47.3226 13.457 46.8647 13.8839 46.4359C14.0182 46.257 14.1873 46.1073 14.3811 45.9958C14.5749 45.8842 14.7892 45.8131 15.0113 45.7867C15.2333 45.7604 15.4584 45.7793 15.6729 45.8424C15.8874 45.9056 16.0869 46.0115 16.2593 46.1539C18.5996 47.695 21.2123 48.7757 23.9574 49.3381C24.1792 49.3605 24.3943 49.4273 24.5897 49.5346C24.7851 49.6419 24.957 49.7874 25.095 49.9626C25.233 50.1377 25.3343 50.3388 25.3929 50.5539C25.4515 50.769 25.4661 50.9938 25.436 51.2147C25.436 51.8325 25.436 52.4513 25.436 53.0652H30.9416V42.9137C28.7229 43.3369 26.4365 43.2434 24.2598 42.6404C22.0831 42.0374 20.0745 40.9411 18.3898 39.4366C16.6628 37.9809 15.3021 36.1398 14.4175 34.0616C13.5329 31.9834 13.1491 29.7264 13.297 27.4726C13.3572 25.5879 13.7905 23.7339 14.572 22.0178C15.3535 20.3017 16.4676 18.7577 17.8499 17.4751C19.5487 15.8087 21.6248 14.577 23.9016 13.8848C26.1784 13.1925 28.5887 13.0602 30.9276 13.4991V3.35864H25.435C25.435 4.02547 25.435 4.66531 25.435 5.30515C25.4723 5.72487 25.3466 6.14283 25.0839 6.47232C24.8213 6.80181 24.4418 7.01753 24.0244 7.07471C21.2427 7.63463 18.595 8.72561 16.2263 10.2879C16.0595 10.4219 15.8679 10.5216 15.6624 10.5815C15.457 10.6413 15.2418 10.66 15.0291 10.6365C14.8164 10.613 14.6105 10.5478 14.4231 10.4445C14.2357 10.3413 14.0704 10.2021 13.9369 10.035C13.494 9.59508 13.0821 9.1242 12.6922 8.7063L8.72919 12.7053C9.14808 13.1052 9.62896 13.5311 10.0779 13.99C10.3866 14.2498 10.5848 14.6175 10.6321 15.0183C10.6795 15.419 10.5724 15.8228 10.3328 16.1474C8.73283 18.5603 7.61896 21.2621 7.05361 24.1014C6.9858 24.4989 6.77219 24.8567 6.45455 25.105C6.13692 25.3533 5.73808 25.4742 5.33604 25.4441C4.6792 25.4491 4.02137 25.4441 3.34354 25.4441V30.9307ZM30.9466 16.9892C28.6124 16.4104 26.1559 16.5738 23.9189 17.4566C21.6819 18.3394 19.7758 19.8978 18.466 21.9147C17.1562 23.9316 16.5079 26.3067 16.6112 28.7093C16.7146 31.112 17.5645 33.4227 19.0426 35.3196C20.4042 37.0972 22.2598 38.4337 24.3772 39.1617C26.4947 39.8897 28.7798 39.977 30.9466 39.4126V16.9892ZM45.56 4.97824C45.5572 4.53875 45.3799 4.11837 45.0672 3.80957C44.7545 3.50078 44.3319 3.32886 43.8924 3.33165C43.4529 3.33443 43.0325 3.51169 42.7237 3.82442C42.4149 4.13715 42.243 4.55974 42.2458 4.99923C42.2491 5.43872 42.4269 5.85889 42.74 6.16731C43.0531 6.47573 43.4759 6.64713 43.9154 6.64382C44.3549 6.6405 44.775 6.46274 45.0835 6.14963C45.3919 5.83653 45.5633 5.41372 45.56 4.97424M53.3 14.9147C53.2953 14.587 53.1934 14.268 53.0074 13.9981C52.8214 13.7283 52.5595 13.5196 52.2549 13.3985C51.9503 13.2775 51.6166 13.2494 51.2961 13.3179C50.9755 13.3865 50.6825 13.5485 50.454 13.7835C50.2256 14.0186 50.0719 14.3161 50.0125 14.6384C49.9531 14.9608 49.9906 15.2935 50.1202 15.5946C50.2499 15.8956 50.4659 16.1515 50.7409 16.3298C51.016 16.5081 51.3377 16.6008 51.6654 16.5963C52.1005 16.5768 52.5117 16.392 52.8153 16.0798C53.1188 15.7675 53.2918 15.3512 53.299 14.9157M51.6384 26.5538C51.3106 26.5546 50.9903 26.6526 50.7181 26.8355C50.4459 27.0183 50.2341 27.2778 50.1094 27.581C49.9847 27.8843 49.9528 28.2177 50.0176 28.5391C50.0824 28.8605 50.2411 29.1555 50.4736 29.3867C50.706 29.6179 51.0019 29.775 51.3236 29.838C51.6454 29.9011 51.9786 29.8673 52.2812 29.741C52.5837 29.6147 52.842 29.4014 53.0234 29.1283C53.2047 28.8551 53.301 28.5343 53.3 28.2064C53.2857 27.7711 53.1057 27.3577 52.797 27.0506C52.4882 26.7435 52.0738 26.5658 51.6384 26.5538ZM51.6284 39.8225C51.3006 39.8253 50.9809 39.9252 50.7099 40.1097C50.4388 40.2942 50.2286 40.5549 50.1057 40.8589C49.9828 41.1629 49.9529 41.4965 50.0196 41.8175C50.0864 42.1385 50.2469 42.4325 50.4807 42.6623C50.7146 42.8921 51.0113 43.0474 51.3335 43.1086C51.6556 43.1697 51.9886 43.1339 52.2904 43.0057C52.5922 42.8776 52.8492 42.6628 53.0289 42.3886C53.2086 42.1143 53.303 41.793 53.3 41.4651C53.2833 41.0298 53.1009 40.6174 52.7902 40.312C52.4795 40.0067 52.064 39.8316 51.6284 39.8225ZM45.56 51.4036C45.5548 51.0758 45.4525 50.7569 45.266 50.4872C45.0796 50.2175 44.8174 50.0092 44.5125 49.8885C44.2076 49.7679 43.8738 49.7404 43.5533 49.8094C43.2328 49.8785 42.94 50.0411 42.7119 50.2766C42.4838 50.5121 42.3307 50.81 42.2719 51.1325C42.2131 51.4551 42.2513 51.7878 42.3816 52.0887C42.5119 52.3895 42.7285 52.645 43.004 52.8227C43.2795 53.0005 43.6016 53.0925 43.9294 53.0872C44.3645 53.0666 44.7754 52.8809 45.0784 52.5679C45.3814 52.2549 45.5536 51.8392 45.56 51.4036Z" fill="white"/>
</g>
</svg>
