<svg width="34" height="33" viewBox="0 0 34 33" fill="none" xmlns="http://www.w3.org/2000/svg">
<g clip-path="url(#clip0_3131_2679)">
<path d="M24.6973 16.377C24.6973 11.9954 21.1472 8.44531 16.7656 8.44531C12.384 8.44531 8.83398 11.9954 8.83398 16.377C8.83398 20.7585 12.384 24.3086 16.7656 24.3086C21.1472 24.3086 24.6973 20.7585 24.6973 16.377ZM10.3691 16.377C10.3691 12.8429 13.2316 9.98047 16.7656 9.98047C20.2997 9.98047 23.1621 12.8429 23.1621 16.377C23.1621 19.911 20.2997 22.7734 16.7656 22.7734C13.2316 22.7734 10.3691 19.911 10.3691 16.377ZM12.6719 17.0166V15.7373C12.6719 15.5262 12.8446 15.3535 13.0557 15.3535H16.7656V13.2107C16.7656 12.8685 17.1782 12.699 17.4213 12.9388L20.5875 16.1051C20.7378 16.2554 20.7378 16.4985 20.5875 16.6488L17.4213 19.8151C17.1782 20.0581 16.7656 19.8854 16.7656 19.5432V17.4004H13.0557C12.8446 17.4004 12.6719 17.2277 12.6719 17.0166Z" fill="#6BB64A"/>
</g>
<rect x="0.890625" y="0.5" width="31.75" height="31.75" rx="15.875" stroke="#6BB64A"/>
<defs>
<clipPath id="clip0_3131_2679">
<rect width="16.375" height="16.375" fill="white" transform="translate(8.57812 8.1875)"/>
</clipPath>
</defs>
</svg>
