<svg width="64" height="64" viewBox="0 0 64 64" fill="none" xmlns="http://www.w3.org/2000/svg">
<g clip-path="url(#clip0_3947_442)">
<g clip-path="url(#clip1_3947_442)">
<path d="M61.2967 41.1673C60.1728 39.5194 58.6995 38.1394 56.9816 37.1256C55.2638 36.1118 53.3435 35.4891 51.3576 35.3019C52.5824 34.0659 53.326 32.4336 53.4549 30.6983C53.987 30.2734 54.3971 29.7153 54.6436 29.0805C54.89 28.4458 54.9641 27.7571 54.8581 27.0845C54.8084 26.644 54.6681 26.2185 54.4462 25.8347C54.2242 25.4509 53.9253 25.1172 53.5682 24.8545C53.6769 23.9619 53.6045 23.0566 53.3552 22.1927C53.1059 21.3288 52.685 20.5241 52.1175 19.8266C50.3117 17.7272 47.3682 17.2868 45.2094 17.2868C44.8496 17.2868 44.4984 17.2969 44.1559 17.3171C43.9133 16.2907 43.4293 15.3371 42.7441 14.5355C40.7126 12.1727 37.3795 11.6772 34.9411 11.6772C34.0117 11.6705 33.0833 11.7388 32.1649 11.8812C31.8793 11.1992 31.4885 10.5662 31.0067 10.0052C28.781 7.4147 25.1176 6.875 22.4353 6.875C18.4728 6.875 15.7139 7.81191 13.9987 9.73863C13.2564 10.6602 12.708 11.7224 12.3865 12.8613C12.0651 14.0002 11.9772 15.1924 12.1281 16.3661C11.6619 16.6713 11.269 17.0759 10.9775 17.5508C10.686 18.0257 10.5032 18.5593 10.4421 19.1132C10.3048 19.9402 10.3987 20.7891 10.7136 21.5661C11.0285 22.3431 11.552 23.0179 12.2264 23.516C12.2947 24.7044 12.5978 25.8674 13.118 26.938C13.6382 28.0087 14.3653 28.9657 15.2573 29.7538C15.307 29.7981 15.3588 29.8391 15.4095 29.8812C12.8186 30.0484 10.2993 30.8013 8.04152 32.0832C5.7837 33.365 3.84614 35.1424 2.37473 37.2815C0.809231 39.5976 -0.0186166 42.3333 6.52193e-05 45.1287V50.8279C0.00177961 52.464 0.652476 54.0326 1.80937 55.1895C2.96627 56.3464 4.53486 56.9971 6.17096 56.9988H9.16304C9.49054 56.9988 9.80462 56.8687 10.0362 56.6371C10.2678 56.4056 10.3979 56.0915 10.3979 55.764V46.1207C10.3884 45.7997 10.2542 45.4949 10.0237 45.2712C9.79329 45.0475 9.48476 44.9224 9.16358 44.9224C8.84241 44.9224 8.53387 45.0475 8.30343 45.2712C8.07299 45.4949 7.93879 45.7997 7.92929 46.1207V54.5302H6.17096C5.18931 54.5294 4.24811 54.139 3.55397 53.4449C2.85984 52.7508 2.4695 51.8096 2.46864 50.8279V45.1287C2.45154 42.8294 3.13075 40.5788 4.41695 38.6729C6.58893 35.4883 9.93552 33.2954 13.7224 32.5754C13.9422 33.4967 14.3007 34.3793 14.7856 35.1929C15.8801 37.0063 18.1166 39.1661 22.5572 39.1661C26.9979 39.1661 29.2311 37.0074 30.3289 35.1918C30.8132 34.3788 31.1713 33.497 31.391 32.5764C33.6966 32.9956 35.862 33.9808 37.6929 35.4435C39.5237 36.9063 40.9627 38.8007 41.8806 40.9569C42.3841 42.2903 42.6402 43.7044 42.6361 45.1298V50.829C42.635 51.8106 42.2446 52.7516 41.5505 53.4457C40.8564 54.1398 39.9154 54.5302 38.9338 54.5313H37.223V46.1207C37.2279 45.9555 37.1995 45.7911 37.1397 45.637C37.0799 45.483 36.9897 45.3426 36.8746 45.224C36.7595 45.1055 36.6218 45.0112 36.4696 44.9469C36.3175 44.8825 36.1539 44.8494 35.9887 44.8494C35.8234 44.8494 35.6599 44.8825 35.5077 44.9469C35.3555 45.0112 35.2178 45.1055 35.1027 45.224C34.9876 45.3426 34.8975 45.483 34.8377 45.637C34.7778 45.7911 34.7495 45.9555 34.7544 46.1207V54.5302H19.9224C19.7573 54.5254 19.5928 54.5537 19.4388 54.6135C19.2848 54.6733 19.1443 54.7635 19.0258 54.8786C18.9072 54.9937 18.813 55.1314 18.7486 55.2836C18.6843 55.4357 18.6511 55.5993 18.6511 55.7645C18.6511 55.9298 18.6843 56.0933 18.7486 56.2455C18.813 56.3977 18.9072 56.5354 19.0258 56.6505C19.1443 56.7656 19.2848 56.8557 19.4388 56.9156C19.5928 56.9754 19.7573 57.0037 19.9224 56.9988H58.1092C59.4594 56.9971 60.7538 56.4598 61.7083 55.5049C62.6629 54.55 63.1996 53.2554 63.2007 51.9052V47.4527C63.2148 45.2134 62.551 43.0223 61.2967 41.1673ZM50.2448 21.4371C50.6542 21.9962 50.9363 22.6381 51.0713 23.3177C51.2063 23.9974 51.1909 24.6984 51.0263 25.3715C50.9804 25.6756 51.0497 25.986 51.2206 26.2417C51.3915 26.4974 51.6517 26.6802 51.9502 26.7542C52.08 26.8079 52.1919 26.8972 52.273 27.0118C52.3542 27.1264 52.4013 27.2616 52.409 27.4018C52.4716 27.7129 52.4283 28.0359 52.2861 28.3195C52.1439 28.6032 51.9109 28.8311 51.6242 28.967C51.4383 29.0758 51.2841 29.2314 51.1769 29.4183C51.0698 29.6052 51.0134 29.8169 51.0133 30.0323C51.0292 30.7396 50.8905 31.4419 50.6067 32.0899C50.3229 32.738 49.901 33.3163 49.3705 33.7843C49.0692 34.0495 48.739 34.2798 48.3861 34.4708C46.3155 33.2526 43.9901 32.5323 41.5934 32.367C43.152 30.9253 44.1021 28.9434 44.2498 26.8254C44.8604 26.3621 45.3329 25.7408 45.6163 25.0286C45.8998 24.3164 45.9834 23.5404 45.8581 22.7842C45.7971 22.287 45.6325 21.8081 45.375 21.3785C45.1176 20.9488 44.7728 20.5779 44.3632 20.2897C44.3761 20.1213 44.3858 19.9562 44.3912 19.7921C44.3912 19.7921 44.3912 19.7824 44.3912 19.7781C44.6546 19.7644 44.928 19.7576 45.2116 19.7576C46.55 19.7576 48.9894 19.9734 50.2437 21.4382L50.2448 21.4371ZM32.7586 14.2872C33.4815 14.1888 34.2105 14.1416 34.94 14.1458C38.6046 14.1458 40.2291 15.3979 40.8713 16.1448C41.5407 16.9694 41.9096 17.9972 41.9173 19.0592C41.9421 19.6982 41.8287 20.3091 41.7996 20.9438C41.7752 21.23 41.8553 21.5154 42.0252 21.747C42.1951 21.9786 42.4432 22.1408 42.7236 22.2035C42.9133 22.272 43.0787 22.3946 43.1996 22.5561C43.3204 22.7176 43.3913 22.911 43.4036 23.1123C43.4795 23.5068 43.4232 23.9152 43.2435 24.2745C43.0638 24.6337 42.7706 24.9237 42.4095 25.0995C42.2237 25.2084 42.0696 25.364 41.9626 25.5509C41.8556 25.7378 41.7994 25.9495 41.7996 26.1649C41.801 26.5997 41.759 27.0336 41.6744 27.4601C41.4168 28.5842 40.848 29.6131 40.0332 30.4291C39.2183 31.2452 38.1902 31.8154 37.0665 32.0745C34.7448 30.759 32.1469 30.0067 29.4816 29.878C30.4069 29.0839 31.1638 28.1125 31.7075 27.0211C32.2513 25.9298 32.5709 24.7405 32.6474 23.5236C33.3131 23.016 33.83 22.3388 34.1441 21.5629C34.4582 20.787 34.5579 19.9408 34.4327 19.1132C34.2513 18.0237 33.6625 17.044 32.7856 16.3726C32.8099 16.0548 32.8181 15.736 32.8104 15.4173C32.8126 15.04 32.7946 14.6628 32.7586 14.2872ZM14.668 22.8446C14.668 22.6293 14.6118 22.4177 14.5048 22.2308C14.3978 22.0439 14.2438 21.8883 14.0581 21.7793C13.6324 21.5712 13.2869 21.2288 13.0751 20.8049C12.8632 20.381 12.7967 19.8992 12.8859 19.4338C12.9039 19.1831 12.9944 18.9432 13.1464 18.7431C13.2983 18.543 13.5052 18.3914 13.7418 18.3069C14.0365 18.2421 14.2954 18.0675 14.466 17.8187C14.6366 17.5699 14.7061 17.2655 14.6604 16.9673C14.369 14.4707 14.7683 12.5904 15.8477 11.3815C17.0674 10.0106 19.2241 9.34465 22.4407 9.34465C25.5018 9.34465 27.8808 10.151 29.1415 11.6114C29.6743 12.2444 30.0372 13.0025 30.1961 13.8144C30.3647 14.868 30.3705 15.9412 30.2134 16.9965C30.1745 17.2901 30.2477 17.5875 30.4183 17.8296C30.589 18.0716 30.8445 18.2405 31.1341 18.3025C31.3686 18.3904 31.5734 18.5429 31.7249 18.7423C31.8764 18.9417 31.9683 19.18 31.9901 19.4294C32.0579 19.773 32.0389 20.128 31.9349 20.4624C31.8308 20.7967 31.645 21.0999 31.3942 21.3443C31.2202 21.5109 31.0266 21.6558 30.8178 21.776C30.6327 21.8858 30.4792 22.0416 30.3721 22.2283C30.265 22.415 30.2081 22.6262 30.2069 22.8414C30.2279 23.7954 30.0402 24.7425 29.6569 25.6164C29.2735 26.4903 28.7038 27.2699 27.9877 27.9005C26.434 29.1969 24.4637 29.8871 22.4407 29.8434C20.417 29.8915 18.4451 29.2008 16.8937 27.9005C16.1776 27.27 15.608 26.4906 15.2247 25.6169C14.8413 24.7432 14.6536 23.7963 14.6744 22.8425L14.668 22.8446ZM22.5594 36.6965C19.957 36.6965 18.0691 35.7855 16.9466 33.9894C16.6261 33.4689 16.3781 32.9071 16.2093 32.3196H28.903C28.7345 32.9063 28.4868 33.4673 28.1668 33.9872C27.0464 35.7833 25.1597 36.6943 22.554 36.6943L22.5594 36.6965ZM44.048 54.2906C44.7387 53.271 45.109 52.0681 45.1112 50.8366V45.1287C45.0951 43.2002 44.6948 41.2942 43.9339 39.5221C43.1729 37.75 42.0665 36.1473 40.6792 34.8076C43.0699 34.8247 45.4082 35.51 47.43 36.786C49.4518 38.0621 51.0766 39.878 52.1208 42.0287C52.6943 43.3442 52.9884 44.7644 52.9843 46.1995V51.3244C52.9831 52.174 52.6451 52.9885 52.0444 53.5893C51.4436 54.19 50.6292 54.528 49.7796 54.5292H43.8753C43.9314 54.4515 43.9918 54.3694 44.048 54.2906ZM60.7332 51.9095C60.7327 52.605 60.4562 53.272 59.9644 53.7639C59.4727 54.2559 58.8059 54.5326 58.1103 54.5335H54.463C55.1092 53.5896 55.4557 52.4727 55.4572 51.3288V46.1952C55.4507 43.1876 54.3943 40.2766 52.4705 37.9648C55.2348 38.5731 57.6625 40.214 59.2577 42.5522C60.2322 43.9972 60.7466 45.7033 60.7332 47.4462V51.9095Z" fill="#6BB64A"/>
<path d="M15.7894 55.3727C15.697 55.1502 15.5385 54.9614 15.3352 54.8321C15.1319 54.7027 14.8938 54.639 14.6531 54.6496C14.4124 54.6601 14.1808 54.7445 13.9896 54.8912C13.7985 55.0379 13.6571 55.2398 13.5846 55.4696C13.5122 55.6994 13.5122 55.9459 13.5846 56.1757C13.657 56.4055 13.7983 56.6075 13.9894 56.7542C14.1805 56.901 14.4121 56.9854 14.6528 56.9961C14.8935 57.0067 15.1316 56.943 15.3349 56.8137C15.5662 56.6636 15.738 56.4378 15.8209 56.1748C15.9039 55.9119 15.8927 55.6283 15.7894 55.3727Z" fill="#6BB64A"/>
</g>
</g>
<defs>
<clipPath id="clip0_3947_442">
<rect width="63.2018" height="63.2018" fill="white" transform="translate(0 0.335938)"/>
</clipPath>
<clipPath id="clip1_3947_442">
<rect width="63.2018" height="50.1238" fill="white" transform="translate(0 6.875)"/>
</clipPath>
</defs>
</svg>
