<svg width="64" height="64" viewBox="0 0 64 64" fill="none" xmlns="http://www.w3.org/2000/svg">
<g clip-path="url(#clip0_3947_359)">
<g clip-path="url(#clip1_3947_359)">
<path d="M52.6529 35.3946L43.2158 20.601C43.9273 20.2293 44.5171 19.6612 44.9153 18.9642C45.3135 18.2673 45.5034 17.4707 45.4624 16.669C45.4213 15.8673 45.1511 15.0943 44.6838 14.4416C44.2165 13.789 43.5717 13.2841 42.826 12.987L45.6849 2.99175C45.7452 2.77989 45.7479 2.55579 45.6926 2.34258C45.6373 2.12936 45.5262 1.93476 45.3706 1.77885C44.4552 0.865496 43.215 0.352546 41.9219 0.352546C40.6288 0.352546 39.3885 0.865496 38.4732 1.77885C38.2501 2.00321 37.9847 2.18109 37.6923 2.30219C37.4 2.42328 37.0866 2.48518 36.7702 2.48431C36.4532 2.48505 36.1392 2.42285 35.8464 2.30133C35.5537 2.17981 35.288 2.00137 35.0647 1.77637C34.1508 0.865835 32.9139 0.353656 31.6238 0.351569C30.3338 0.349482 29.0952 0.857658 28.1784 1.76524L28.1425 1.80113C27.6905 2.24969 27.0794 2.50139 26.4426 2.50139C25.8058 2.50139 25.1947 2.24969 24.7427 1.80113L24.734 1.79246C23.8187 0.87911 22.5784 0.36616 21.2853 0.36616C19.9922 0.36616 18.752 0.87911 17.8366 1.79246C17.681 1.94837 17.5699 2.14298 17.5146 2.35619C17.4593 2.56941 17.462 2.79351 17.5223 3.00536L20.3874 12.9969C19.6407 13.293 18.9948 13.7974 18.5263 14.4499C18.0579 15.1025 17.7867 15.8758 17.745 16.678C17.7033 17.4802 17.8928 18.2775 18.291 18.9752C18.6892 19.6728 19.2794 20.2414 19.9914 20.6134L10.5481 35.3946C8.78299 38.1617 7.79424 41.3525 7.68537 44.6329C7.5765 47.9132 8.35152 51.1625 9.92929 54.0406C11.5071 56.9187 13.8295 59.3196 16.6536 60.9922C19.4777 62.6647 22.6994 63.5472 25.9816 63.5474H37.2194C40.5016 63.5472 43.7234 62.6647 46.5474 60.9922C49.3715 59.3196 51.694 56.9187 53.2717 54.0406C54.8495 51.1625 55.6245 47.9132 55.5156 44.6329C55.4068 41.3525 54.418 38.1617 52.6529 35.3946ZM22.9815 3.52517L22.9902 3.53384C23.9041 4.44438 25.141 4.95655 26.431 4.95864C27.7211 4.96073 28.9596 4.45255 29.8765 3.54497L29.9124 3.50908C30.3657 3.06092 30.9778 2.81029 31.6153 2.81192C32.2527 2.81354 32.8636 3.06728 33.3147 3.51775C34.23 4.4311 35.4703 4.94405 36.7634 4.94405C38.0564 4.94405 39.2967 4.4311 40.2121 3.51775C40.5809 3.14976 41.059 2.91111 41.5748 2.83748C42.0906 2.76386 42.6164 2.85923 43.0735 3.10932L40.3445 12.6862H22.8652L20.1201 3.11551C20.5772 2.86542 21.1029 2.77005 21.6187 2.84367C22.1346 2.9173 22.6127 3.15719 22.9815 3.52517ZM51.1071 52.8541C49.7594 55.3587 47.754 57.4481 45.3068 58.8973C42.8596 60.3465 40.0634 61.1006 37.2194 61.0783H25.9816C23.1426 61.0769 20.3562 60.3126 17.9138 58.8653C15.4714 57.4181 13.4627 55.3411 12.098 52.8517C10.7333 50.3622 10.0627 47.5518 10.1562 44.7144C10.2498 41.8769 11.1041 39.1168 12.6298 36.7226L22.6078 21.0812H26.0459C26.2154 21.0932 26.3855 21.0702 26.5457 21.0136C26.7059 20.957 26.8528 20.868 26.9771 20.7522C27.1014 20.6364 27.2005 20.4962 27.2683 20.3404C27.3361 20.1846 27.371 20.0166 27.371 19.8467C27.371 19.6768 27.3361 19.5087 27.2683 19.3529C27.2005 19.1971 27.1014 19.0569 26.9771 18.9411C26.8528 18.8253 26.7059 18.7363 26.5457 18.6797C26.3855 18.6231 26.2154 18.6001 26.0459 18.6121H21.9308C21.4935 18.5811 21.0843 18.3856 20.7854 18.0649C20.4866 17.7441 20.3205 17.3221 20.3205 16.8837C20.3205 16.4454 20.4866 16.0233 20.7854 15.7026C21.0843 15.3819 21.4935 15.1863 21.9308 15.1554H41.2702C41.5075 15.1385 41.7457 15.1708 41.97 15.25C42.1942 15.3293 42.3998 15.4538 42.5738 15.616C42.7479 15.7781 42.8866 15.9743 42.9815 16.1925C43.0764 16.4106 43.1254 16.6459 43.1254 16.8837C43.1254 17.1216 43.0764 17.3569 42.9815 17.575C42.8866 17.7931 42.7479 17.9894 42.5738 18.1515C42.3998 18.3136 42.1942 18.4382 41.97 18.5174C41.7457 18.5967 41.5075 18.6289 41.2702 18.6121H37.1563C36.9868 18.6001 36.8167 18.6231 36.6565 18.6797C36.4963 18.7363 36.3495 18.8253 36.2252 18.9411C36.1009 19.0569 36.0017 19.1971 35.934 19.3529C35.8662 19.5087 35.8312 19.6768 35.8312 19.8467C35.8312 20.0166 35.8662 20.1846 35.934 20.3404C36.0017 20.4962 36.1009 20.6364 36.2252 20.7522C36.3495 20.868 36.4963 20.957 36.6565 21.0136C36.8167 21.0702 36.9868 21.0932 37.1563 21.0812H40.5945L50.5724 36.7226C52.1207 39.1084 52.9886 41.8714 53.0829 44.714C53.1771 47.5566 52.494 50.371 51.1071 52.8541Z" fill="#6BB64A"/>
<path d="M33.6228 42.2888C33.3357 42.1873 33.0411 42.0809 32.7478 41.9707V36.7726C33.217 36.9092 33.6621 37.118 34.0671 37.3914C34.3107 37.5627 34.6113 37.6326 34.9055 37.5863C35.1996 37.54 35.4643 37.3812 35.6434 37.1433C35.8226 36.9055 35.9023 36.6073 35.8657 36.3118C35.829 36.0163 35.6789 35.7466 35.4471 35.5597C34.6384 34.9929 33.7189 34.6037 32.749 34.4174V33.2787C32.7541 33.125 32.7282 32.9718 32.6728 32.8282C32.6174 32.6847 32.5338 32.5538 32.4268 32.4432C32.3198 32.3327 32.1917 32.2448 32.0501 32.1847C31.9084 32.1247 31.7562 32.0938 31.6023 32.0938C31.4485 32.0938 31.2963 32.1247 31.1546 32.1847C31.013 32.2448 30.8849 32.3327 30.7779 32.4432C30.6709 32.5538 30.5872 32.6847 30.5319 32.8282C30.4765 32.9718 30.4506 33.125 30.4557 33.2787V34.4112C30.2565 34.4493 30.0595 34.4977 29.8653 34.556C29.0603 34.8091 28.3405 35.2792 27.7851 35.9145C27.2297 36.5498 26.86 37.3259 26.7167 38.1575C26.5511 38.8805 26.5873 39.6352 26.8213 40.339C27.0552 41.0429 27.478 41.669 28.0435 42.149C28.787 42.7058 29.5979 43.1666 30.4569 43.5203V50.1714C29.5454 50.1216 28.6697 49.8005 27.942 49.2494C27.8161 49.1665 27.6751 49.1092 27.5271 49.0808C27.3791 49.0524 27.2269 49.0534 27.0793 49.0838C26.9317 49.1142 26.7915 49.1733 26.6668 49.2579C26.542 49.3425 26.4351 49.4508 26.3522 49.5767C26.2694 49.7026 26.2121 49.8436 26.1837 49.9916C26.1553 50.1396 26.1563 50.2918 26.1867 50.4394C26.2171 50.587 26.2762 50.7272 26.3608 50.852C26.4454 50.9767 26.5537 51.0836 26.6796 51.1665C27.7775 51.9675 29.0911 52.4194 30.4495 52.4635V53.6492C30.4444 53.8029 30.4704 53.9562 30.5257 54.0997C30.5811 54.2432 30.6647 54.3742 30.7717 54.4847C30.8787 54.5953 31.0068 54.6832 31.1484 54.7432C31.2901 54.8032 31.4423 54.8342 31.5962 54.8342C31.75 54.8342 31.9023 54.8032 32.0439 54.7432C32.1855 54.6832 32.3137 54.5953 32.4206 54.4847C32.5276 54.3742 32.6113 54.2432 32.6666 54.0997C32.722 53.9562 32.7479 53.8029 32.7428 53.6492V52.3385C33.8121 52.0904 34.7833 51.5295 35.5327 50.7274C36.2821 49.9254 36.7758 48.9184 36.9508 47.8347C37.1754 46.6628 36.9601 45.4492 36.3462 44.4261C35.7322 43.4029 34.7626 42.642 33.6228 42.2888ZM29.4569 40.3408C29.2247 40.1182 29.0568 39.8372 28.9709 39.5272C28.8851 39.2172 28.8845 38.8899 28.9693 38.5796C29.0361 38.1744 29.2086 37.794 29.4693 37.4768C29.7301 37.1595 30.0699 36.9167 30.4544 36.7726V40.972C30.104 40.7906 29.7698 40.5794 29.4556 40.3408H29.4569ZM34.7008 47.4585C34.61 48.0032 34.3835 48.5163 34.0422 48.9504C33.7009 49.3845 33.2557 49.7257 32.7478 49.9424V44.4176L32.8579 44.4572C33.4858 44.6351 34.0237 45.0426 34.3649 45.5989C34.7061 46.1552 34.8256 46.8194 34.6996 47.4597L34.7008 47.4585Z" fill="#6BB64A"/>
<path d="M31.6017 20.9587C31.8672 20.9587 32.1244 20.8666 32.3296 20.6981C32.5348 20.5297 32.6752 20.2953 32.7269 20.0349C32.7787 19.7746 32.7385 19.5043 32.6133 19.2702C32.4881 19.0361 32.2856 18.8527 32.0403 18.7512C31.795 18.6497 31.5221 18.6364 31.2681 18.7136C31.0141 18.7908 30.7947 18.9537 30.6473 19.1745C30.5 19.3953 30.4337 19.6604 30.4599 19.9246C30.4862 20.1888 30.6032 20.4357 30.791 20.6232C31.0067 20.8372 31.2979 20.9577 31.6017 20.9587Z" fill="#6BB64A"/>
</g>
</g>
<defs>
<clipPath id="clip0_3947_359">
<rect width="63.2018" height="63.2018" fill="white" transform="translate(0 0.335938)"/>
</clipPath>
<clipPath id="clip1_3947_359">
<rect width="47.9304" height="63.2018" fill="white" transform="translate(7.6355 0.335938)"/>
</clipPath>
</defs>
</svg>
