<svg width="64" height="64" viewBox="0 0 64 64" fill="none" xmlns="http://www.w3.org/2000/svg">
<g clip-path="url(#clip0_3947_397)">
<g clip-path="url(#clip1_3947_397)">
<path d="M55.6151 53.5391C55.35 53.539 55.093 53.6308 54.8879 53.799C54.6829 53.9671 54.5426 54.2012 54.4908 54.4613C54.439 54.7213 54.4791 54.9913 54.604 55.2251C54.729 55.459 54.9312 55.6423 55.1762 55.7437C55.4212 55.8452 55.6938 55.8585 55.9475 55.7815C56.2012 55.7045 56.4204 55.5419 56.5677 55.3214C56.7149 55.1009 56.7812 54.8361 56.7551 54.5722C56.729 54.3084 56.6122 54.0617 56.4246 53.8743C56.2095 53.6603 55.9186 53.5398 55.6151 53.5391Z" fill="#5CBD2C"/>
<path d="M63.0796 34.8555C62.5596 29.6384 60.4071 24.7182 56.9284 20.7955C53.4498 16.8727 48.8223 14.1473 43.7048 13.0072V9.87177C44.6991 9.62421 45.5685 9.02151 46.1491 8.17726C46.7297 7.33302 46.9814 6.30554 46.8569 5.28851C46.7323 4.27148 46.24 3.33515 45.4728 2.656C44.7055 1.97686 43.7164 1.60181 42.6918 1.60156H33.8047C32.7801 1.60181 31.7909 1.97686 31.0237 2.656C30.2565 3.33515 29.7642 4.27148 29.6396 5.28851C29.515 6.30554 29.7668 7.33302 30.3474 8.17726C30.928 9.02151 31.7974 9.62421 32.7916 9.87177V13.017C28.1855 14.0432 23.9681 16.3629 20.635 19.7036C19.887 20.4514 19.1871 21.2458 18.5394 22.082C18.509 22.082 18.4773 22.082 18.4456 22.082H9.64872C9.48336 22.0768 9.31864 22.1049 9.16435 22.1646C9.01006 22.2243 8.86933 22.3144 8.75052 22.4295C8.63172 22.5446 8.53726 22.6825 8.47275 22.8348C8.40824 22.9872 8.375 23.1509 8.375 23.3163C8.375 23.4818 8.40824 23.6455 8.47275 23.7979C8.53726 23.9502 8.63172 24.088 8.75052 24.2032C8.86933 24.3183 9.01006 24.4084 9.16435 24.4681C9.31864 24.5278 9.48336 24.5559 9.64872 24.5507H16.8595C15.9626 26.0503 15.2271 27.6407 14.6652 29.2953H1.23466C1.0693 29.2901 0.904585 29.3182 0.750291 29.3779C0.595997 29.4376 0.45527 29.5277 0.336464 29.6428C0.217658 29.7579 0.123197 29.8957 0.0586878 30.0481C-0.00582118 30.2004 -0.0390625 30.3642 -0.0390625 30.5296C-0.0390625 30.6951 -0.00582118 30.8588 0.0586878 31.0111C0.123197 31.1635 0.217658 31.3013 0.336464 31.4164C0.45527 31.5316 0.595997 31.6217 0.750291 31.6814C0.904585 31.741 1.0693 31.7691 1.23466 31.7639H13.9716C13.6178 33.3225 13.4137 34.9112 13.362 36.5086H7.90056C7.73521 36.5034 7.57049 36.5315 7.4162 36.5911C7.2619 36.6508 7.12117 36.7409 7.00237 36.8561C6.88356 36.9712 6.7891 37.109 6.72459 37.2614C6.66008 37.4137 6.62684 37.5774 6.62684 37.7429C6.62684 37.9083 6.66008 38.0721 6.72459 38.2244C6.7891 38.3768 6.88356 38.5146 7.00237 38.6297C7.12117 38.7448 7.2619 38.8349 7.4162 38.8946C7.57049 38.9543 7.73521 38.9824 7.90056 38.9772H13.3986C13.5028 40.5798 13.7608 42.1686 14.169 43.7218H6.17191C6.00656 43.7166 5.84184 43.7447 5.68755 43.8044C5.53325 43.8641 5.39253 43.9542 5.27372 44.0693C5.15491 44.1845 5.06045 44.3223 4.99594 44.4746C4.93143 44.627 4.89819 44.7907 4.89819 44.9562C4.89819 45.1216 4.93143 45.2853 4.99594 45.4377C5.06045 45.59 5.15491 45.7279 5.27372 45.843C5.39253 45.9581 5.53325 46.0482 5.68755 46.1079C5.84184 46.1676 6.00656 46.1957 6.17191 46.1905H14.9566C16.6026 50.5269 19.4256 54.3182 23.1083 57.1381C26.7909 59.958 31.1872 61.6947 35.8028 62.153C36.6155 62.2343 37.431 62.275 38.2494 62.275C43.0791 62.2771 47.8058 60.8798 51.858 58.252C52.1328 58.0734 52.3254 57.7929 52.3934 57.4722C52.4614 57.1516 52.3993 56.8171 52.2207 56.5422C52.042 56.2674 51.7615 56.0748 51.4409 56.0068C51.1203 55.9388 50.7857 56.0009 50.5109 56.1796C45.8555 59.2031 40.2456 60.396 34.7628 59.5284C29.28 58.6608 24.3125 55.7941 20.8181 51.481C17.3236 47.1679 15.5496 41.7139 15.8382 36.1703C16.1267 30.6268 18.4574 25.3864 22.3807 21.4594C26.3041 17.5324 31.5424 15.1969 37.0857 14.9033C42.6289 14.6096 48.0846 16.3786 52.401 19.869C56.7173 23.3595 59.5885 28.3244 60.4612 33.8064C61.3338 39.2884 60.146 44.8994 57.1268 49.5576C57.0322 49.6935 56.9659 49.8472 56.9318 50.0093C56.8978 50.1715 56.8967 50.3388 56.9287 50.5014C56.9607 50.6639 57.025 50.8184 57.1179 50.9556C57.2109 51.0928 57.3304 51.2098 57.4695 51.2998C57.6086 51.3899 57.7644 51.451 57.9276 51.4795C58.0908 51.508 58.2581 51.5035 58.4195 51.466C58.5809 51.4286 58.7331 51.359 58.8671 51.2615C59.001 51.1641 59.114 51.0406 59.1993 50.8985C62.2705 46.1439 63.6384 40.4882 63.0796 34.8555ZM32.076 5.79274C32.0764 5.33438 32.2586 4.89488 32.5827 4.57076C32.9068 4.24665 33.3463 4.06442 33.8047 4.06409H42.6918C43.1421 4.07606 43.57 4.26337 43.8843 4.58613C44.1986 4.9089 44.3745 5.34162 44.3745 5.79213C44.3745 6.24265 44.1986 6.67537 43.8843 6.99814C43.57 7.3209 43.1421 7.50821 42.6918 7.52017H33.8047C33.3465 7.51985 32.9072 7.33779 32.5831 7.01394C32.2591 6.69009 32.0767 6.2509 32.076 5.79274ZM35.2603 12.5867V9.99002H41.2337V12.5818C39.2493 12.3477 37.244 12.351 35.2603 12.5915V12.5867Z" fill="#5CBD2C"/>
<path d="M38.842 20.1406C35.3271 20.1406 31.8911 21.1829 28.9686 23.1357C26.046 25.0885 23.7682 27.864 22.4231 31.1114C21.078 34.3587 20.7261 37.932 21.4118 41.3794C22.0975 44.8268 23.7901 47.9934 26.2755 50.4788C28.7609 52.9642 31.9275 54.6568 35.3749 55.3425C38.8223 56.0283 42.3956 55.6763 45.6429 54.3312C48.8903 52.9861 51.6658 50.7083 53.6186 47.7857C55.5714 44.8632 56.6137 41.4272 56.6137 37.9123C56.6085 33.2006 54.7345 28.6833 51.4028 25.3515C48.0711 22.0198 43.5538 20.1458 38.842 20.1406ZM38.842 53.3921C35.7799 53.3921 32.7866 52.4841 30.2405 50.7829C27.6945 49.0817 25.7101 46.6637 24.5383 43.8347C23.3664 41.0057 23.0598 37.8927 23.6572 34.8894C24.2546 31.8862 25.7292 29.1275 27.8944 26.9623C30.0596 24.797 32.8183 23.3225 35.8216 22.7251C38.8248 22.1277 41.9378 22.4343 44.7668 23.6061C47.5958 24.778 50.0138 26.7623 51.715 29.3084C53.4162 31.8544 54.3242 34.8478 54.3242 37.9099C54.3201 42.0147 52.6875 45.9503 49.785 48.8528C46.8824 51.7554 42.9469 53.3879 38.842 53.3921Z" fill="#5CBD2C"/>
<path d="M45.8468 28.3091L40.1732 33.9827C39.6841 33.7411 39.1461 33.6155 38.6006 33.6155C38.0552 33.6155 37.517 33.7411 37.028 33.9827L34.4887 31.4433C34.2721 31.2367 33.9834 31.1229 33.6841 31.1264C33.3849 31.1299 33.0988 31.2503 32.8872 31.462C32.6755 31.6736 32.5551 31.9596 32.5516 32.2589C32.5481 32.5582 32.6619 32.847 32.8685 33.0635L35.4078 35.6028C35.1403 36.1455 35.0155 36.7475 35.0452 37.3518C35.0749 37.9562 35.2582 38.543 35.5778 39.0568C35.8973 39.5706 36.3426 39.9945 36.8715 40.2884C37.4004 40.5824 37.9955 40.7366 38.6006 40.7366C39.2057 40.7366 39.8008 40.5824 40.3297 40.2884C40.8586 39.9945 41.3039 39.5706 41.6234 39.0568C41.943 38.543 42.1263 37.9562 42.156 37.3518C42.1858 36.7475 42.0609 36.1455 41.7934 35.6028L47.3011 30.095L47.4682 29.928C47.5786 29.8226 47.6669 29.6961 47.7278 29.556C47.7887 29.4159 47.821 29.2651 47.8228 29.1124C47.8246 28.9597 47.7958 28.8081 47.7382 28.6667C47.6806 28.5253 47.5952 28.3968 47.4872 28.2888C47.3792 28.1808 47.2508 28.0954 47.1093 28.0378C46.9679 27.9802 46.8163 27.9514 46.6636 27.9532C46.5109 27.955 46.36 27.9873 46.22 28.0482C46.0799 28.1091 45.9535 28.1974 45.848 28.3079L45.8468 28.3091ZM38.5994 38.4432C38.3484 38.4432 38.103 38.3688 37.8943 38.2294C37.6857 38.0899 37.523 37.8917 37.4269 37.6598C37.3309 37.428 37.3057 37.1728 37.3547 36.9266C37.4037 36.6804 37.5246 36.4543 37.702 36.2768C37.8795 36.0993 38.1056 35.9785 38.3518 35.9295C38.598 35.8806 38.8531 35.9057 39.085 36.0017C39.3169 36.0978 39.5151 36.2604 39.6546 36.4691C39.794 36.6778 39.8684 36.9232 39.8684 37.1742C39.8681 37.5107 39.7343 37.8333 39.4964 38.0712C39.2585 38.3091 38.9359 38.4429 38.5994 38.4432Z" fill="#5CBD2C"/>
<path d="M51.508 36.2272H50.4462C50.1489 36.2369 49.867 36.3618 49.6602 36.5755C49.4533 36.7893 49.3376 37.0751 49.3376 37.3725C49.3376 37.67 49.4533 37.9557 49.6602 38.1695C49.867 38.3832 50.1489 38.5081 50.4462 38.5178H51.508C51.6616 38.5229 51.8145 38.4969 51.9579 38.4416C52.1012 38.3863 52.232 38.3028 52.3424 38.1959C52.4528 38.0891 52.5405 37.9611 52.6005 37.8197C52.6604 37.6782 52.6913 37.5261 52.6913 37.3725C52.6913 37.2189 52.6604 37.0668 52.6005 36.9254C52.5405 36.7839 52.4528 36.6559 52.3424 36.5491C52.232 36.4422 52.1012 36.3587 51.9579 36.3034C51.8145 36.2481 51.6616 36.2222 51.508 36.2272Z" fill="#5CBD2C"/>
<path d="M26.1453 36.1953H25.0834C24.7795 36.1953 24.4881 36.3161 24.2731 36.531C24.0582 36.7459 23.9375 37.0373 23.9375 37.3412C23.9375 37.6452 24.0582 37.9366 24.2731 38.1515C24.4881 38.3664 24.7795 38.4872 25.0834 38.4872H26.1453C26.4492 38.4872 26.7407 38.3664 26.9556 38.1515C27.1705 37.9366 27.2912 37.6452 27.2912 37.3412C27.2912 37.0373 27.1705 36.7459 26.9556 36.531C26.7407 36.3161 26.4492 36.1953 26.1453 36.1953Z" fill="#5CBD2C"/>
<path d="M38.3018 26.352C38.6057 26.352 38.8972 26.2313 39.1121 26.0164C39.327 25.8015 39.4477 25.51 39.4477 25.2061V24.1442C39.4528 23.9907 39.4269 23.8377 39.3716 23.6944C39.3162 23.551 39.2327 23.4203 39.1258 23.3099C39.019 23.1995 38.891 23.1117 38.7496 23.0518C38.6081 22.9918 38.4561 22.9609 38.3024 22.9609C38.1488 22.9609 37.9967 22.9918 37.8553 23.0518C37.7138 23.1117 37.5859 23.1995 37.479 23.3099C37.3722 23.4203 37.2886 23.551 37.2333 23.6944C37.178 23.8377 37.1521 23.9907 37.1571 24.1442V25.2061C37.1571 25.5098 37.2777 25.801 37.4923 26.0159C37.7069 26.2308 37.9981 26.3517 38.3018 26.352Z" fill="#5CBD2C"/>
<path d="M38.2714 48.375C37.9675 48.375 37.676 48.4957 37.4611 48.7106C37.2462 48.9255 37.1255 49.217 37.1255 49.5209V50.5828C37.1255 50.8867 37.2462 51.1781 37.4611 51.393C37.676 51.6079 37.9675 51.7287 38.2714 51.7287C38.5753 51.7287 38.8668 51.6079 39.0817 51.393C39.2966 51.1781 39.4174 50.8867 39.4174 50.5828V49.5209C39.4174 49.217 39.2966 48.9255 39.0817 48.7106C38.8668 48.4957 38.5753 48.375 38.2714 48.375Z" fill="#5CBD2C"/>
<path d="M1.14557 43.8516C0.956513 43.8505 0.770126 43.8963 0.603026 43.9847C0.435927 44.0731 0.293306 44.2015 0.187877 44.3585C0.0824484 44.5154 0.0174875 44.696 -0.00121501 44.8841C-0.0199176 45.0723 0.00821938 45.2621 0.0806877 45.4367C0.153156 45.6114 0.267704 45.7653 0.414121 45.8849C0.560538 46.0045 0.734275 46.0861 0.919845 46.1222C1.10541 46.1584 1.29705 46.1481 1.47767 46.0923C1.6583 46.0364 1.82229 45.9367 1.95504 45.8021C2.11331 45.6416 2.22073 45.438 2.26386 45.2168C2.30698 44.9955 2.2839 44.7664 2.1975 44.5583C2.1111 44.3501 1.96522 44.172 1.77811 44.0463C1.591 43.9206 1.37098 43.8529 1.14557 43.8516Z" fill="#5CBD2C"/>
</g>
</g>
<defs>
<clipPath id="clip0_3947_397">
<rect width="63.2018" height="63.2018" fill="white" transform="translate(0 0.335938)"/>
</clipPath>
<clipPath id="clip1_3947_397">
<rect width="63.2018" height="60.6685" fill="white" transform="translate(0 1.60156)"/>
</clipPath>
</defs>
</svg>
