<svg width="72" height="72" viewBox="0 0 72 72" fill="none" xmlns="http://www.w3.org/2000/svg">
<path d="M66.726 5.274C70.1122 8.66025 71.8703 12.9021 71.9989 17.9997V54C71.8703 59.0962 70.1125 63.3395 66.726 66.7257C63.3397 70.112 59.0965 71.8701 53.9991 71.9997H17.9997C12.9021 71.8703 8.66025 70.1123 5.274 66.7257C1.88775 63.3397 0.129375 59.0965 0 54.0003V18C0.129375 12.9023 1.88747 8.66053 5.274 5.27428C8.66025 1.88775 12.9021 0.129375 17.9997 0H53.9991C59.0965 0.129375 63.3397 1.88747 66.726 5.274ZM61.7605 34.2427C60.6291 33.1172 60.041 31.7048 59.9943 30.0054V18C59.9583 16.3007 59.375 14.886 58.2446 13.7557C57.114 12.6242 55.6982 12.042 53.9991 12.0063H48.0051V41.9948L23.9948 12.0057H17.9997C16.3004 12.0417 14.8857 12.6239 13.7554 13.7554C12.6239 14.886 12.0417 16.3007 12.006 17.9994V30.0054C11.959 31.7048 11.3709 33.1172 10.2395 34.2427C9.10884 35.3669 7.69416 35.9528 5.99512 35.9994C7.69416 36.0472 9.10912 36.6331 10.2392 37.7573C11.3709 38.8828 11.959 40.2952 12.0057 41.9946V54C12.0417 55.6979 12.6239 57.114 13.7554 58.2443C14.886 59.375 16.3007 59.958 17.9994 59.9937H23.9948V30.0057L48.0051 59.9946H53.9991C55.6982 59.9586 57.1143 59.3753 58.2446 58.2449C59.3752 57.1143 59.9583 55.6985 59.994 54.0008V41.9948C60.041 40.2955 60.6291 38.8831 61.7605 37.7575C62.8912 36.6334 64.3058 36.0475 66.0049 35.9997C64.3058 35.9528 62.8909 35.3672 61.7608 34.243L61.7605 34.2427Z" fill="white"/>
</svg>
