<svg width="79" height="66" viewBox="0 0 79 66" fill="none" xmlns="http://www.w3.org/2000/svg">
<path d="M74.2975 1.57157C74.2975 0.691556 73.606 0 72.726 0H5.83134C4.96703 0 4.25977 0.691572 4.25977 1.57157V48.1893H74.2965L74.2975 1.57157ZM50.7097 28.086L44.1132 35.1374C45.3852 36.3899 46.1792 38.1273 46.1792 40.0487C46.1792 43.852 43.0831 46.9487 39.2792 46.9487C35.4759 46.9487 32.395 43.8526 32.395 40.0487C32.395 36.2448 35.4759 33.1488 39.2792 33.1488C40.0022 33.1488 40.6862 33.2914 41.3413 33.4986L48.414 25.9384C49.0094 25.3053 50.0031 25.272 50.6356 25.8637C51.2694 26.4579 51.302 27.4522 50.7097 28.086L50.7097 28.086ZM63.8043 35.1826C62.9363 35.1826 62.2328 34.4791 62.2328 33.611C62.2328 33.0545 62.1882 32.5099 62.1492 31.9635H56.2487C55.3806 31.9635 54.6771 31.2599 54.6771 30.3919C54.6771 29.5238 55.3806 28.8203 56.2487 28.8203H61.7209C61.0563 25.7061 59.7498 22.8331 57.9596 20.3243L55.503 22.7802C55.1959 23.0873 54.7939 23.2406 54.3919 23.2406C53.9899 23.2406 53.5879 23.0873 53.2807 22.7802C52.667 22.1665 52.667 21.1709 53.2807 20.5579L55.9527 17.8865C54.7097 16.57 53.3215 15.396 51.7996 14.4017L48.8153 17.3853C48.5081 17.6925 48.1061 17.8457 47.7041 17.8457C47.3021 17.8457 46.9001 17.6925 46.5929 17.3853C45.9793 16.7716 45.9793 15.776 46.5929 15.163L48.9352 12.8208C46.4484 11.6613 43.7255 10.939 40.8543 10.743V13.0538C40.8543 13.9219 40.1508 14.6254 39.2827 14.6254C38.4147 14.6254 37.7112 13.9219 37.7112 13.0538V10.743C34.9499 10.9314 32.3237 11.601 29.9149 12.6838L31.4909 15.5084C31.9142 16.2666 31.6429 17.2239 30.8847 17.6466C30.6423 17.7823 30.3797 17.8464 30.1203 17.8464C29.5694 17.8464 29.0343 17.5562 28.7466 17.0405L27.1455 14.1718C25.3678 15.2861 23.7581 16.634 22.3504 18.1767L24.7317 20.558C25.3454 21.1717 25.3454 22.1666 24.7317 22.7802C24.4246 23.0874 24.0226 23.2407 23.6206 23.2407C23.2185 23.2407 22.8165 23.0874 22.5094 22.7802L20.3699 20.6408C18.6973 23.0723 17.4818 25.8385 16.8455 28.8196H21.4497C22.3178 28.8196 23.0213 29.5231 23.0213 30.3912C23.0213 31.2592 22.3178 31.9627 21.4497 31.9627H16.4171C16.3782 32.5092 16.3336 33.0544 16.3336 33.6103C16.3336 34.4784 15.6301 35.1819 14.762 35.1819C13.894 35.1819 13.1905 34.4784 13.1905 33.6103C13.1905 32.523 13.2784 31.4577 13.4084 30.4049C13.4084 30.3999 13.4053 30.3955 13.4053 30.3904C13.4053 30.3534 13.4235 30.3226 13.426 30.2868C14.0585 25.3441 16.0604 20.8259 19.0646 17.1439C19.0703 17.1383 19.0716 17.1307 19.0772 17.1257C19.0778 17.1251 19.0797 17.1245 19.0803 17.1238C21.2405 14.4819 23.9044 12.2696 26.9282 10.6371C26.9402 10.6302 26.9464 10.6183 26.9584 10.6114C26.9804 10.5988 27.0055 10.6001 27.0281 10.5888C30.685 8.63472 34.8546 7.51845 39.2822 7.51845C52.5578 7.51845 63.5261 17.4907 65.1454 30.3344C65.146 30.3545 65.1567 30.3715 65.1567 30.3916C65.1567 30.3941 65.1548 30.3966 65.1548 30.3998C65.2848 31.4544 65.3734 32.5215 65.3734 33.6114C65.3753 34.4795 64.6712 35.183 63.8037 35.183L63.8043 35.1826Z" fill="#1D4354"/>
<path d="M77.016 51.333H1.57157C0.707266 51.333 0 52.0403 0 52.9046V56.0006C0 61.2976 4.3064 65.6197 9.60349 65.6197H68.9839C74.2809 65.6197 78.5874 61.2976 78.5874 56.0006V52.9052C78.5874 52.0409 77.8801 51.333 77.0158 51.333L77.016 51.333ZM42.3056 60.0452H36.2743C35.4062 60.0452 34.7027 59.3417 34.7027 58.4736C34.7027 57.6055 35.4062 56.902 36.2743 56.902H42.3056C43.1736 56.902 43.8771 57.6055 43.8771 58.4736C43.8771 59.341 43.1736 60.0452 42.3056 60.0452Z" fill="#6BB64A"/>
</svg>
