<svg width="77" height="65" viewBox="0 0 77 65" fill="none" xmlns="http://www.w3.org/2000/svg">
<path d="M48.5476 30.8355L43.9755 35.3334L42.8686 34.2472C43.7926 33.6831 44.6477 33.0177 45.419 32.2642C46.1936 31.5091 46.8725 30.6651 47.4407 29.7493L48.5476 30.8355ZM36.9007 21.8167C35.892 21.8167 34.9839 22.4171 34.6053 23.3344C34.226 24.2526 34.4517 25.3033 35.1751 25.9934C35.8994 26.6826 36.977 26.8729 37.9002 26.4743C38.8242 26.0749 39.4092 25.1666 39.3798 24.1775C39.3462 22.8591 38.2443 21.8092 36.9007 21.8166V21.8167ZM43.9267 30.8125H43.9276C41.6969 32.9881 38.6772 34.207 35.5319 34.2002C32.3864 34.1945 29.3719 32.9642 27.1504 30.7794C24.9281 28.5948 23.6811 25.6343 23.6811 22.5478C23.6811 19.4622 24.9282 16.5017 27.1504 14.3171C29.3719 12.1325 32.3864 10.9022 35.5319 10.8963C38.6774 10.8897 41.6969 12.1084 43.9276 14.284C46.1566 16.4737 47.4087 19.4415 47.4087 22.5362C47.4087 25.6309 46.1566 28.5988 43.9276 30.7885L43.9267 30.8125ZM30.0794 17.248C31.5036 15.8366 33.4456 15.0461 35.469 15.0518C36.0539 15.0518 36.5281 14.5865 36.5281 14.0134C36.5281 13.4394 36.0539 12.9741 35.469 12.9741C32.8833 12.9675 30.4008 13.9747 28.5755 15.7722C28.3749 15.9666 28.2616 16.2326 28.2616 16.5101C28.2616 16.7868 28.3749 17.0527 28.5755 17.2479C28.7736 17.4414 29.0413 17.5518 29.3216 17.5542C29.6053 17.5526 29.8763 17.4422 30.0794 17.2479V17.248ZM43.2051 23.3508C43.2051 22.8559 42.7964 22.454 42.2912 22.454H41.9781L41.7616 21.9468L41.9781 21.7343V21.7335C42.146 21.5622 42.2408 21.3341 42.2425 21.0961C42.2433 20.8581 42.1485 20.6292 41.9781 20.4588L40.7747 19.2779H40.7755C40.6035 19.1082 40.3693 19.0119 40.1251 19.0119C39.8817 19.0119 39.6476 19.1082 39.4755 19.2779L39.2229 19.4549C39.0551 19.3742 38.8822 19.3034 38.706 19.2425V18.9353V18.9361C38.706 18.6957 38.6078 18.4659 38.4341 18.2971C38.2595 18.1283 38.0237 18.0353 37.7795 18.0385H36.0229C35.5177 18.0385 35.1082 18.4404 35.1082 18.9361V19.2433V19.2425C34.9311 19.3018 34.7582 19.3726 34.5912 19.4549L34.3747 19.2425C34.2027 19.0728 33.9685 18.9765 33.7251 18.9765C33.4809 18.9765 33.2468 19.0728 33.0747 19.2425L31.8713 20.4234H31.8721C31.6942 20.5897 31.5943 20.8203 31.5952 21.0607C31.5968 21.3012 31.6967 21.5309 31.8721 21.6981L32.0886 21.9105C32.0047 22.0761 31.9443 22.2408 31.8721 22.4178L31.523 22.4186C31.0178 22.4186 30.6091 22.8205 30.6091 23.3154V25.039C30.6091 25.5363 31.0161 25.9415 31.523 25.9481H31.836C31.9082 26.1136 31.9686 26.2906 32.0525 26.4553L31.836 26.6678V26.6686C31.6623 26.8366 31.565 27.0664 31.565 27.306C31.565 27.5456 31.6623 27.7746 31.836 27.9434L33.0395 29.1242H33.0387C33.2124 29.2906 33.4457 29.3836 33.6891 29.3836C33.9308 29.3812 34.1632 29.2889 34.3386 29.1242L34.5551 28.9118L35.0721 29.1127V29.4314V29.4306C35.0721 29.9263 35.4816 30.3282 35.9868 30.3282H37.7795C38.0237 30.3315 38.2595 30.2384 38.4341 30.0696C38.6078 29.9008 38.706 29.671 38.706 29.4306V29.1119L39.2229 28.911L39.4394 29.1234V29.1242C39.8003 29.4717 40.3786 29.4717 40.7386 29.1242L41.9421 27.9434C42.1158 27.7745 42.2131 27.5456 42.2131 27.306C42.2131 27.0664 42.1158 26.8366 41.9421 26.6686L41.7616 26.5385L41.9781 26.0313H42.2912C42.7981 26.0247 43.2051 25.6195 43.2051 25.1221L43.2051 23.3508ZM77 3.91901V49.1571C76.9966 50.1972 76.5737 51.1944 75.8226 51.9289C75.0714 52.6634 74.0543 53.076 72.9935 53.076H47.4271V56.9604H60.2161C60.8547 56.9604 61.4665 57.2091 61.9181 57.6521C62.3696 58.0944 62.623 58.6955 62.623 59.3213V62.6383C62.623 63.2649 62.3695 63.8652 61.9181 64.3083C61.4665 64.7513 60.8547 65 60.2161 65H16.8434C15.5384 64.9679 14.4969 63.9196 14.4978 62.6383V59.2619C14.4969 57.9806 15.5384 56.9331 16.8434 56.901H29.5729V53.0758H4.00651C2.94572 53.0758 1.92857 52.6633 1.17745 51.9287C0.426336 51.1942 0.00337305 50.197 0 49.157V3.91886C0.00335693 2.8788 0.426336 1.88156 1.17745 1.14711C1.92857 0.412558 2.94572 0 4.00651 0H72.9928C74.0536 0 75.0708 0.412558 75.8219 1.14711C76.573 1.88166 76.996 2.87889 76.9994 3.91886L77 3.91901ZM55.1633 40.3515L48.5098 33.8229L50.0859 32.2764H50.0867C50.8924 31.4842 50.8924 30.2004 50.0867 29.4083L48.4628 27.8025H48.4619C50.1245 23.8531 49.8207 19.3692 47.6387 15.6709C45.4567 11.9735 41.6456 9.48169 37.327 8.92978C33.0091 8.37722 28.6746 9.8282 25.6004 12.8545C22.5256 15.8807 21.061 20.1382 21.6376 24.3743C22.2133 28.6095 24.7655 32.3415 28.5412 34.4703C32.3169 36.5999 36.8875 36.8839 40.9065 35.2402L42.543 36.846V36.8452C42.9341 37.2232 43.4612 37.4356 44.0108 37.4356C44.5564 37.4348 45.0792 37.2232 45.4669 36.8452L47.043 35.2987L53.6595 41.8866C53.8626 42.0809 54.1345 42.1913 54.4182 42.1937C54.6977 42.1904 54.9654 42.0801 55.1634 41.8866C55.3833 41.6898 55.5084 41.4114 55.5084 41.1191C55.5084 40.8267 55.3833 40.5484 55.1634 40.3516L55.1633 40.3515Z" fill="#1D4354"/>
<rect x="16" y="60" width="45" height="2" fill="#6BB64A"/>
<rect x="48" y="51" width="26" height="2" fill="#6BB64A"/>
<rect x="3" y="51" width="26" height="2" fill="#6BB64A"/>
<circle cx="37" cy="24" r="3" fill="#6BB64A"/>
</svg>
