<svg width="63" height="65" viewBox="0 0 63 65" fill="none" xmlns="http://www.w3.org/2000/svg">
<path d="M62.4262 35.6219V29.3974L57.671 28.514C57.3432 27.3527 56.8766 26.2306 56.2908 25.1978L59.031 21.2168L54.6332 16.8186L50.6423 19.5587C49.6096 18.9729 48.4978 18.5063 47.3261 18.179L46.4427 13.4233H40.2276L39.3438 18.179C38.1721 18.5063 37.0604 18.973 36.0276 19.5587L32.0367 16.8186L28.4922 20.3631H28.8496C31.4806 20.3631 33.6251 22.5076 33.6251 25.138V39.3946C33.6251 41.8367 31.7985 43.8819 29.3761 44.1601C29.1675 44.1799 29.0088 44.1799 28.8496 44.1799H28.0156L32.0363 48.2006L36.0272 45.4604C37.0599 46.0462 38.1717 46.5129 39.3433 46.8401L40.2272 51.5958H46.4423L47.3257 46.8401C48.4974 46.5124 49.6091 46.0457 50.6419 45.4604L54.6328 48.2006L59.0305 43.8023L56.2904 39.8213C56.8762 38.7886 57.3429 37.6669 57.6706 36.5057L62.4262 35.6219ZM43.3343 40.7049C38.8074 40.7049 35.1438 37.0318 35.1438 32.5144C35.1438 27.9871 38.8075 24.3141 43.3343 24.3141C47.8616 24.3141 51.5248 27.9872 51.5248 32.5144C51.5248 37.0319 47.8615 40.7049 43.3343 40.7049Z" fill="#6BB64A"/>
<path d="M41.4485 54.9405H1.98564V11.6851H38.5299L38.5798 11.4369H43.4349C43.4349 3.56425 43.4151 4.35821 43.3355 3.97112C42.8688 1.70751 40.8637 0 38.4611 0H4.98364C2.2336 0 0 2.23396 0 4.97375V59.5575C0 62.1687 2.18405 64.5313 4.98364 64.5313H38.4611C41.2012 64.5313 43.4348 62.2973 43.4348 59.5575V53.5808H41.4494L41.4485 54.9405ZM21.7213 4.0903C22.6843 4.0903 23.4688 4.87436 23.4688 5.84723C23.4688 6.81024 22.6843 7.59476 21.7213 7.59476C20.7484 7.59476 19.9639 6.8107 19.9639 5.84723C19.9643 4.87481 20.7484 4.0903 21.7213 4.0903ZM21.5626 60.2328H18.8526C18.5747 60.2328 18.3562 60.0143 18.3562 59.7365C18.3562 59.4586 18.5747 59.2401 18.8526 59.2401H21.5626C21.8404 59.2401 22.0589 59.4586 22.0589 59.7365C22.0589 60.0143 21.8404 60.2328 21.5626 60.2328ZM24.5905 60.2328H23.4387C23.1707 60.2328 22.9423 60.0143 22.9423 59.7365C22.9423 59.4586 23.1707 59.2401 23.4387 59.2401H24.5905C24.8683 59.2401 25.0869 59.4586 25.0869 59.7365C25.0869 60.0143 24.8688 60.2328 24.5905 60.2328Z" fill="#1D4354"/>
<path d="M21.7208 27.292C18.9708 27.292 16.7471 29.5259 16.7471 32.2657C16.7471 35.0158 18.9707 37.2395 21.7208 37.2395C24.461 37.2395 26.6946 35.0159 26.6946 32.2657C26.6946 29.5256 24.4611 27.292 21.7208 27.292ZM21.7208 34.4992C20.4899 34.4992 19.4869 33.4967 19.4869 32.2653C19.4869 31.0343 20.4894 30.0417 21.7208 30.0417H21.7406C21.6615 30.2103 21.6116 30.409 21.6116 30.6176C21.6116 31.372 22.2369 31.9874 22.9913 31.9874C23.3191 31.9874 23.627 31.8683 23.8648 31.6597C23.9246 31.8485 23.9543 32.0571 23.9543 32.2653C23.9548 33.4967 22.9517 34.4992 21.7208 34.4992L21.7208 34.4992Z" fill="#1D4354"/>
<path d="M28.8491 22.3479H14.5926C13.0536 22.3479 11.793 23.5986 11.793 25.1376V39.3941C11.793 40.9331 13.0541 42.1937 14.5926 42.1937H28.8491C28.9485 42.1937 29.0478 42.1937 29.1571 42.1839C30.5669 42.0252 31.6392 40.8239 31.6392 39.3941L31.6388 25.1376C31.6388 23.5986 30.388 22.3479 28.8491 22.3479L28.8491 22.3479ZM21.7209 38.2319C18.425 38.2319 15.7541 35.5614 15.7541 32.265C15.7541 28.979 18.4246 26.2982 21.7209 26.2982C25.007 26.2982 27.6878 28.9785 27.6878 32.265C27.6878 35.5614 25.0075 38.2319 21.7209 38.2319Z" fill="#6BB64A"/>
</svg>
