<svg width="77" height="53" viewBox="0 0 77 53" fill="none" xmlns="http://www.w3.org/2000/svg">
<path d="M50.4485 6.62508C45.1671 6.62508 40.1016 8.71905 36.3671 12.4462C32.6327 16.1734 30.5346 21.2292 30.5346 26.5003C30.5346 31.7714 32.6327 36.8271 36.3671 40.5544C40.1015 44.2816 45.1671 46.3755 50.4485 46.3755C55.7299 46.3755 60.7953 44.2816 64.5299 40.5544C68.2643 36.8272 70.3624 31.7714 70.3624 26.5003C70.3564 21.231 68.2566 16.1788 64.5234 12.4527C60.7902 8.72662 55.728 6.63098 50.4485 6.62508ZM58.0253 34.0624C57.5049 34.5747 56.6681 34.5747 56.1477 34.0624L49.5098 27.4374C49.2608 27.1889 49.121 26.8517 49.121 26.5004V14.5746C49.121 13.8429 49.7154 13.2496 50.4486 13.2496C51.1817 13.2496 51.7761 13.8429 51.7761 14.5746V25.952L58.0254 32.1892C58.2749 32.4376 58.4154 32.7742 58.4154 33.1255C58.4154 33.4769 58.2748 33.814 58.0253 34.0624ZM50.4485 0C43.4063 0 36.6528 2.79207 31.6741 7.76201C26.6945 12.7314 23.8969 19.4718 23.8969 26.5C23.8969 33.5282 26.6945 40.269 31.6741 45.238C36.6531 50.2079 43.4066 53 50.4485 53C57.4903 53 64.2442 50.2079 69.2229 45.238C74.2025 40.2687 77 33.5282 77 26.5C76.9917 19.4739 74.1919 12.7382 69.2141 7.7711C64.2368 2.80282 57.4877 0.00817724 50.4485 0ZM50.4485 49.0256C44.4631 49.0256 38.7224 46.6523 34.4901 42.4283C30.2577 38.2037 27.88 32.4742 27.88 26.5009C27.88 20.5276 30.2579 14.7976 34.4901 10.5735C38.7229 6.34932 44.4635 3.97626 50.4485 3.97626C56.4334 3.97626 62.1745 6.34947 66.4069 10.5735C70.6392 14.7981 73.0169 20.5276 73.0169 26.5009C73.0104 32.473 70.6303 38.1983 66.3992 42.4208C62.168 46.6437 56.4317 49.0191 50.4485 49.0256ZM23.8966 11.9251C23.8966 12.2765 23.7568 12.6137 23.5079 12.8621C23.2589 13.1105 22.9211 13.2502 22.5691 13.2502H11.9483C11.2152 13.2502 10.6207 12.6568 10.6207 11.9251V7.95009C10.6207 7.21838 11.2152 6.62508 11.9483 6.62508H22.5691C22.9211 6.62508 23.2589 6.76468 23.5079 7.01312C23.7568 7.26156 23.8966 7.59873 23.8966 7.95009V11.9251ZM1.32759 23.8503C0.594458 23.8503 0 23.257 0 22.5253V18.5502C0 17.8185 0.594458 17.2252 1.32759 17.2252H11.9483C12.3004 17.2252 12.6382 17.3648 12.8871 17.6132C13.136 17.8617 13.2759 18.1988 13.2759 18.5502V22.5253C13.2759 22.8766 13.136 23.2138 12.8871 23.4622C12.6382 23.7107 12.3004 23.8503 11.9483 23.8503H1.32759ZM14.6035 41.0755V45.0505C14.6035 45.4019 14.4636 45.7391 14.2147 45.9875C13.9658 46.2359 13.628 46.3755 13.2759 46.3755H2.65518C1.92205 46.3755 1.32759 45.7822 1.32759 45.0505V41.0755C1.32759 40.3438 1.92205 39.7505 2.65518 39.7505H13.2759C13.628 39.7505 13.9658 39.8901 14.2147 40.1385C14.4636 40.3869 14.6035 40.7241 14.6035 41.0755Z" fill="#1D4354"/>
<rect x="10" y="6" width="14" height="8" rx="2" fill="#6BB64A"/>
<rect x="8" y="28" width="14" height="8" rx="2" fill="#6BB64A"/>
<circle cx="33.5" cy="26.5" r="1.5" fill="#6BB64A"/>
<circle cx="67.5" cy="26.5" r="1.5" fill="#6BB64A"/>
<circle cx="50.5" cy="9.5" r="1.5" fill="#6BB64A"/>
<circle cx="50.5" cy="43.5" r="1.5" fill="#6BB64A"/>
</svg>
