<svg width="62" height="53" viewBox="0 0 62 53" fill="none" xmlns="http://www.w3.org/2000/svg">
<path d="M57.0691 0.730828H4.63289C4.04162 0.723295 3.45486 0.834201 2.90713 1.057C2.35939 1.2798 1.86177 1.60999 1.44365 2.02811C1.02553 2.44623 0.695363 2.94382 0.472562 3.49156C0.249761 4.03929 0.138823 4.62607 0.146356 5.21734V47.8392C0.153709 49.0269 0.628755 50.1637 1.46855 51.0035C2.30835 51.8433 3.44526 52.3184 4.63289 52.3257H22.7192C22.6035 51.9157 22.5561 51.4894 22.5789 51.0639V46.5774H6.31535C6.2431 46.5711 6.17537 46.5395 6.12409 46.4882C6.07281 46.4369 6.04124 46.3692 6.03492 46.297V13.91H56.0876V46.297C56.0813 46.3692 56.0497 46.4369 55.9984 46.4882C55.9472 46.5395 55.8794 46.5711 55.8072 46.5774H39.4034V51.0639C39.4261 51.4893 39.3788 51.9157 39.2632 52.3257H57.2933C57.8846 52.3333 58.4714 52.2224 59.0191 51.9996C59.5668 51.7768 60.0645 51.4466 60.4826 51.0284C60.9007 50.6103 61.2309 50.1127 61.4537 49.565C61.6765 49.0173 61.7874 48.4305 61.7799 47.8392V5.21734C61.7089 4.01192 61.1831 2.87836 60.3087 2.0456C59.4343 1.21284 58.2765 0.742947 57.0691 0.730828ZM7.71738 9.28325C7.32917 9.28325 6.94962 9.16813 6.62683 8.95245C6.30405 8.73677 6.05247 8.43022 5.90391 8.07156C5.75535 7.71289 5.7165 7.31823 5.79224 6.93747C5.86797 6.55672 6.05487 6.20696 6.32938 5.93245C6.60389 5.65794 6.95369 5.471 7.33444 5.39527C7.7152 5.31953 8.10988 5.3584 8.46855 5.50696C8.82721 5.65552 9.13376 5.9071 9.34944 6.22989C9.56512 6.55268 9.68018 6.93218 9.68018 7.32039C9.68018 7.84097 9.4734 8.34024 9.1053 8.70835C8.73719 9.07646 8.23796 9.28325 7.71738 9.28325ZM13.6059 9.28325C13.0887 9.27251 12.5956 9.06226 12.2298 8.69646C11.864 8.33065 11.6538 7.8376 11.6431 7.32039C11.6431 6.93218 11.7582 6.55268 11.9739 6.22989C12.1896 5.9071 12.4961 5.65552 12.8548 5.50696C13.2134 5.3584 13.6081 5.31953 13.9888 5.39527C14.3696 5.471 14.7194 5.65794 14.9939 5.93245C15.2684 6.20696 15.4553 6.55672 15.531 6.93747C15.6067 7.31823 15.5679 7.71289 15.4193 8.07156C15.2708 8.43022 15.0192 8.73677 14.6964 8.95245C14.3736 9.16813 13.9942 9.28325 13.6059 9.28325ZM19.4944 9.28325C19.1062 9.28325 18.7268 9.16813 18.404 8.95245C18.0812 8.73677 17.8296 8.43022 17.681 8.07156C17.5325 7.71289 17.4935 7.31823 17.5693 6.93747C17.645 6.55672 17.832 6.20696 18.1065 5.93245C18.381 5.65794 18.7307 5.471 19.1115 5.39527C19.4922 5.31953 19.8869 5.3584 20.2456 5.50696C20.6043 5.65552 20.9108 5.9071 21.1265 6.22989C21.3422 6.55268 21.4573 6.93218 21.4573 7.32039C21.4635 7.58463 21.415 7.84728 21.3149 8.09192C21.2149 8.33657 21.0655 8.55795 20.876 8.74219C20.6865 8.92644 20.461 9.06958 20.2136 9.16268C19.9662 9.25578 19.7023 9.29683 19.4384 9.28325H19.4944Z" fill="#6BB64A"/>
<path d="M41.2263 36.6233L31.8327 24.5658C31.7253 24.4038 31.5795 24.271 31.4082 24.1791C31.237 24.0872 31.0456 24.0391 30.8513 24.0391C30.657 24.0391 30.4656 24.0872 30.2944 24.1791C30.1231 24.271 29.9773 24.4038 29.8699 24.5658L20.4762 36.6233C20.329 36.8128 20.2369 37.0392 20.2101 37.2776C20.1833 37.5161 20.2228 37.7573 20.3242 37.9747C20.4257 38.1922 20.5852 38.3774 20.7852 38.51C20.9852 38.6426 21.2179 38.7175 21.4576 38.7263H26.4489V51.2044C26.4489 51.5391 26.5818 51.8601 26.8185 52.0967C27.0551 52.3333 27.3761 52.4663 27.7108 52.4663H33.8797C34.2143 52.4663 34.5353 52.3333 34.7719 52.0967C35.0086 51.8601 35.1415 51.5391 35.1415 51.2044V38.7263H40.1888C40.4381 38.7396 40.6858 38.6794 40.9012 38.5533C41.1166 38.4271 41.2903 38.2406 41.4007 38.0167C41.5112 37.7929 41.5535 37.5415 41.5225 37.2939C41.4915 37.0462 41.3885 36.813 41.2263 36.6233Z" fill="#6BB64A"/>
</svg>
