<svg width="33" height="46" viewBox="0 0 33 46" fill="none" xmlns="http://www.w3.org/2000/svg">
<path d="M16.3686 45.5391L9.77905 42.3145H22.9582L16.3686 45.5391Z" fill="#6BB64A"/>
<path d="M22.9582 36.0054V39.0899H9.77905V35.8652H22.9582V36.0054Z" fill="#6BB64A"/>
<path d="M26.7437 28.8568C25.2545 29.697 24.1117 31.0385 23.519 32.6423H9.30233C8.89189 31.4039 8.04465 30.3574 6.91888 29.6981C4.70387 28.0815 2.9399 25.9244 1.79516 23.4326C0.650416 20.9407 0.163076 18.1972 0.379589 15.4636C0.596102 12.7299 1.50925 10.0973 3.03198 7.81673C4.55471 5.53617 6.63625 3.68368 9.07812 2.43591C11.52 1.18814 14.2408 0.586687 16.9811 0.68889C19.7214 0.791092 22.3898 1.59354 24.732 3.01974C27.0741 4.44594 29.0119 6.44832 30.3605 8.83598C31.7091 11.2236 32.4236 13.917 32.4359 16.6591C32.4389 18.9852 31.9306 21.2835 30.947 23.3913C29.9633 25.4992 28.5283 27.365 26.7437 28.8568Z" fill="#6BB64A"/>
<path d="M17.911 3.89999C17.488 3.89852 17.08 4.05641 16.7682 4.34221C16.4565 4.62801 16.2638 5.02076 16.2285 5.44224C16.2338 5.65525 16.2819 5.86502 16.3701 6.05899C16.4583 6.25296 16.5847 6.42714 16.7418 6.57112C16.8989 6.7151 17.0834 6.82592 17.2842 6.89694C17.4851 6.96797 17.6983 6.99775 17.911 6.98449C20.0454 7.05452 22.0733 7.93373 23.5834 9.44382C25.0935 10.9539 25.9727 12.9818 26.0428 15.1163C26.048 15.3293 26.0962 15.5391 26.1844 15.733C26.2725 15.927 26.399 16.1012 26.556 16.2452C26.7131 16.3891 26.8976 16.5 27.0985 16.571C27.2994 16.642 27.5125 16.6718 27.7252 16.6585C28.1482 16.66 28.5561 16.5021 28.8679 16.2163C29.1797 15.9305 29.3724 15.5378 29.4076 15.1163C29.4081 13.6194 29.109 12.1377 28.5279 10.7582C27.9467 9.37881 27.0954 8.12965 26.024 7.08437C24.9526 6.03909 23.6828 5.21884 22.2894 4.67195C20.8961 4.12506 19.4073 3.86257 17.911 3.89999Z" fill="#EFF0F0"/>
</svg>
