<svg width="55" height="56" viewBox="0 0 55 56" fill="none" xmlns="http://www.w3.org/2000/svg">
<path d="M2.03446 54.748C1.75406 54.748 1.61385 54.6077 1.33344 54.4675C1.23486 54.3945 1.15477 54.2994 1.09957 54.1898C1.04438 54.0803 1.01562 53.9593 1.01562 53.8366C1.01562 53.7139 1.04438 53.593 1.09957 53.4834C1.15477 53.3738 1.23486 53.2787 1.33344 53.2057L14.2322 39.8864C14.3113 39.7884 14.41 39.7082 14.5221 39.651C14.6342 39.5937 14.757 39.5607 14.8827 39.554C15.0084 39.5473 15.1341 39.5672 15.2516 39.6122C15.3691 39.6573 15.4758 39.7266 15.5648 39.8156C15.6538 39.9045 15.7231 40.0113 15.7681 40.1288C15.8132 40.2463 15.833 40.372 15.8263 40.4977C15.8197 40.6233 15.7866 40.7462 15.7294 40.8583C15.6721 40.9704 15.592 41.0691 15.4941 41.1482L2.59531 54.4675C2.44073 54.6151 2.24529 54.7128 2.03446 54.748Z" fill="#6BB64A"/>
<path d="M11.0076 55.308C10.8991 55.3059 10.7925 55.2796 10.6955 55.2311C10.5984 55.1826 10.5134 55.1131 10.4467 55.0276C10.3546 54.9539 10.2779 54.8629 10.221 54.7596C10.1641 54.6564 10.1281 54.5429 10.1151 54.4257C10.1021 54.3085 10.1123 54.1899 10.1451 54.0767C10.178 53.9634 10.2328 53.8577 10.3065 53.7657L18.7187 44.3721C18.7924 44.28 18.8834 44.2034 18.9867 44.1465C19.0899 44.0896 19.2034 44.0537 19.3206 44.0406C19.4378 44.0276 19.5564 44.0378 19.6696 44.0706C19.7829 44.1034 19.8885 44.1582 19.9805 44.2319C20.0726 44.3055 20.1492 44.3966 20.2061 44.4999C20.263 44.6031 20.2989 44.7166 20.312 44.8338C20.325 44.9509 20.3148 45.0695 20.282 45.1828C20.2492 45.296 20.1944 45.4016 20.1208 45.4937L11.7086 54.8873C11.6429 55.0161 11.5423 55.1238 11.4184 55.1982C11.2944 55.2726 11.1521 55.3106 11.0076 55.308Z" fill="#6BB64A"/>
<path d="M1.33348 46.3353C1.22503 46.3332 1.11841 46.307 1.02139 46.2585C0.924373 46.21 0.839447 46.1404 0.772716 46.0549C0.680608 45.9813 0.603874 45.8903 0.546973 45.787C0.490072 45.6837 0.454054 45.5702 0.441033 45.453C0.428012 45.3358 0.438226 45.2172 0.471069 45.104C0.503913 44.9908 0.558759 44.8851 0.632461 44.7931L9.04467 35.3994C9.11832 35.3074 9.20942 35.2307 9.31269 35.1738C9.41596 35.117 9.52943 35.081 9.6466 35.068C9.76377 35.055 9.88233 35.0652 9.99557 35.098C10.1088 35.1308 10.2145 35.1856 10.3065 35.2592C10.3986 35.3329 10.4752 35.4239 10.5321 35.5272C10.589 35.6305 10.6249 35.7439 10.638 35.8611C10.651 35.9783 10.6408 36.0969 10.608 36.2101C10.5752 36.3233 10.5204 36.429 10.4467 36.5211L2.0345 45.9147C1.96882 46.0435 1.86827 46.1512 1.74432 46.2255C1.62037 46.2999 1.478 46.338 1.33348 46.3353Z" fill="#6BB64A"/>
<path d="M32.7394 36.2417C31.1971 36.9427 29.5147 37.6437 27.9724 38.3447L28.5333 46.0559C30.9167 44.9343 36.665 41.5694 41.0113 32.1758C39.0485 33.1572 37.0857 34.1386 35.5434 34.8396C34.6376 35.3626 33.7012 35.8308 32.7394 36.2417Z" fill="#6BB64A"/>
<path d="M20.8218 17.0333C21.3826 16.0519 21.9434 14.9302 22.5042 13.8086C13.1106 18.1549 9.60552 23.7631 8.48389 26.1465L16.1951 26.7073C17.0363 24.7445 17.8775 22.7816 18.8589 20.8188C19.4197 19.5569 20.1208 18.2951 20.8218 17.0333Z" fill="#6BB64A"/>
<path d="M40.5908 1.89129L52.9287 14.089C53.4961 11.7874 53.8713 9.44258 54.0504 7.07883V0.629454C49.5286 0.478216 45.0058 0.902225 40.5908 1.89129Z" fill="#6BB64A"/>
<path d="M47.4606 24.8818C47.7345 24.6375 47.9707 24.354 48.1616 24.0406C48.1616 24.0034 48.1764 23.9677 48.2027 23.9414C48.229 23.9151 48.2646 23.9004 48.3018 23.9004C48.5682 23.5979 48.8031 23.269 49.0028 22.9189C49.143 22.7787 49.143 22.6385 49.2832 22.6385C49.4234 22.3581 49.7038 22.0777 49.844 21.7973C49.9916 21.6427 50.0892 21.4473 50.1244 21.2365C50.2646 20.9561 50.4049 20.8159 50.5451 20.5355C50.6853 20.2551 50.6852 20.1149 50.8254 19.9747C50.9656 19.8345 50.9656 19.6943 51.1058 19.554C51.2643 19.1666 51.4518 18.7917 51.6667 18.4324C51.6667 18.3952 51.6815 18.3596 51.7077 18.3333C51.734 18.307 51.7697 18.2922 51.8068 18.2922C52.0872 17.5912 52.3677 16.8902 52.6481 16.049L38.9081 2.44922C35.6547 3.45321 32.6465 5.12447 30.0753 7.35634L29.9351 7.49653L29.0938 8.33776C28.9536 8.47797 28.9537 8.61817 28.8135 8.61817C26.5 11.4144 24.5236 14.4732 22.9249 17.7314C22.5408 18.4044 22.2125 19.1077 21.9435 19.8345C20.6817 22.4983 19.56 25.1622 18.4384 27.826C18.2982 27.9663 18.2982 28.1065 18.0178 28.2467C17.3168 30.0693 16.6157 31.892 16.0549 33.8548L20.9621 38.6217C22.9249 38.0609 24.8878 37.3599 26.7105 36.6589C26.8507 36.5187 26.9908 36.5187 27.131 36.3785C28.9537 35.6775 30.7763 34.9764 32.5989 34.1352C32.9987 34.0054 33.3769 33.8163 33.7206 33.5744C38.2071 31.4714 43.3946 28.9477 46.8997 25.5828L47.741 24.7416C47.2643 25.022 47.2643 25.022 47.4606 24.8818ZM40.871 21.2365C39.8982 22.1984 38.5935 22.7504 37.2257 22.7787C36.2004 22.7832 35.1969 22.4819 34.3434 21.9136C33.49 21.3452 32.8253 20.5354 32.4341 19.5876C32.043 18.6397 31.9431 17.5969 32.1473 16.592C32.3514 15.5872 32.8503 14.6659 33.5804 13.9459C34.5865 13.0005 35.9152 12.4743 37.2958 12.4743C38.6764 12.4743 40.005 13.0005 41.0111 13.9459C41.4986 14.4197 41.8863 14.9864 42.1512 15.6125C42.416 16.2386 42.5529 16.9114 42.5534 17.5912C42.4086 18.9582 41.8172 20.2394 40.871 21.2365Z" fill="#6BB64A"/>
</svg>
