<svg width="40" height="51" viewBox="0 0 40 51" fill="none" xmlns="http://www.w3.org/2000/svg">
<path d="M25.9195 23.0057C27.3357 21.4785 28.1351 19.4802 28.1628 17.3975C28.1757 15.4234 27.4724 13.5116 26.1834 12.0163C24.8944 10.5211 23.107 9.54383 21.1526 9.26573L22.134 8.28431V3.23697L20.0309 0.853516L17.7877 3.23697V8.28431L18.6289 9.26573C16.6744 9.54383 14.887 10.5211 13.598 12.0163C12.309 13.5116 11.6058 15.4234 11.6187 17.3975C11.6464 19.4802 12.4457 21.4785 13.862 23.0057L5.30954 40.1105C4.26843 40.2151 3.30368 40.7041 2.60371 41.4818C1.90374 42.2596 1.51883 43.2703 1.52407 44.3166C1.49248 45.0584 1.68814 45.7921 2.08488 46.4197L0.262207 50.065L5.30954 48.5227H5.73018C6.5113 48.5227 7.27698 48.3052 7.94144 47.8946C8.60591 47.4839 9.14287 46.8963 9.4922 46.1977C9.84153 45.499 9.98941 44.7168 9.91926 43.9389C9.84911 43.1609 9.56373 42.4179 9.09506 41.7929L17.3671 25.2489C18.9757 25.6694 20.6655 25.6694 22.2742 25.2489L33.7709 48.2423L39.2388 50.065L25.9195 23.0057ZM6.01056 46.4197C5.56689 46.4197 5.13317 46.2881 4.76427 46.0416C4.39537 45.7951 4.10784 45.4448 3.93806 45.0349C3.76827 44.625 3.72387 44.1739 3.81043 43.7388C3.89698 43.3036 4.1106 42.9039 4.42433 42.5902C4.73805 42.2765 5.13779 42.0628 5.57294 41.9762C6.00809 41.8897 6.45913 41.9341 6.86903 42.1039C7.27894 42.2737 7.62927 42.5612 7.87576 42.9301C8.12226 43.299 8.25383 43.7327 8.25383 44.1764C8.21446 44.7584 7.96549 45.3064 7.55302 45.7188C7.14056 46.1313 6.59255 46.3803 6.01056 46.4197ZM20.0309 21.7438C19.1713 21.7438 18.331 21.4889 17.6162 21.0114C16.9015 20.5338 16.3444 19.855 16.0155 19.0608C15.6865 18.2666 15.6004 17.3927 15.7681 16.5496C15.9358 15.7065 16.3498 14.9321 16.9576 14.3242C17.5655 13.7164 18.3399 13.3024 19.183 13.1347C20.0261 12.967 20.9 13.0531 21.6942 13.3821C22.4883 13.711 23.1671 14.2681 23.6447 14.9828C24.1223 15.6976 24.3772 16.5379 24.3772 17.3975C24.3772 17.9683 24.2648 18.5335 24.0464 19.0608C23.828 19.5881 23.5078 20.0673 23.1042 20.4708C22.7007 20.8744 22.2215 21.1946 21.6942 21.413C21.1668 21.6314 20.6017 21.7438 20.0309 21.7438Z" fill="#6BB64A"/>
</svg>
