<svg width="50" height="38" viewBox="0 0 50 38" fill="none" xmlns="http://www.w3.org/2000/svg">
<path d="M15.7576 30.7451L14.3555 32.1471C14.201 32.2947 14.0055 32.3924 13.7947 32.4275C13.5408 32.396 13.2993 32.2993 13.0937 32.1471L0.559477 19.669C0.411878 19.5144 0.314161 19.319 0.279053 19.1082C0.281129 18.9997 0.307388 18.8931 0.355898 18.7961C0.404407 18.6991 0.473962 18.6141 0.559477 18.5474L13.0376 6.06924C13.1029 5.98218 13.1876 5.91151 13.2849 5.86284C13.3823 5.81417 13.4896 5.78884 13.5984 5.78884C13.7072 5.78884 13.8146 5.81417 13.9119 5.86284C14.0093 5.91151 14.0939 5.98218 14.1592 6.06924L15.5613 7.47128C15.7088 7.62591 15.8065 7.82128 15.8417 8.03208C15.8627 8.22971 15.813 8.4284 15.7014 8.59291L5.18618 19.1082L15.7014 29.4832C15.791 29.5622 15.8627 29.6593 15.9118 29.768C15.9609 29.8768 15.9862 29.9948 15.9862 30.1141C15.9862 30.2335 15.9609 30.3515 15.9118 30.4603C15.8627 30.569 15.791 30.6661 15.7014 30.7451H15.7576ZM31.6006 2.28375L21.59 36.7738C21.59 37.0542 21.3096 37.1944 21.1694 37.3346C21.0657 37.404 20.9437 37.4409 20.8189 37.4409C20.6941 37.4409 20.5722 37.404 20.4684 37.3346L18.7859 36.914C18.5055 36.914 18.3653 36.6336 18.2251 36.4934C18.1558 36.3897 18.1188 36.2677 18.1188 36.1429C18.1188 36.0181 18.1558 35.8961 18.2251 35.7924L28.1796 1.44252C28.1796 1.16211 28.46 1.02192 28.6002 0.881716C28.7039 0.812394 28.8259 0.775391 28.9507 0.775391C29.0755 0.775391 29.1975 0.812394 29.3012 0.881716L30.9837 1.30231C31.2641 1.30231 31.4042 1.58272 31.5444 1.72292L31.6006 2.28375ZM49.2662 19.669L36.7881 32.1471C36.7228 32.2342 36.6381 32.3048 36.5408 32.3535C36.4435 32.4022 36.3361 32.4275 36.2273 32.4275C36.1184 32.4275 36.0111 32.4022 35.9137 32.3535C35.8164 32.3048 35.7317 32.2342 35.6664 32.1471L34.2644 30.7451C34.1168 30.5905 34.0191 30.3951 33.984 30.1843C33.9861 30.0758 34.0123 29.9692 34.0608 29.8722C34.1093 29.7751 34.1789 29.6902 34.2644 29.6234L44.7796 19.1082L34.2644 8.59291C34.1773 8.52761 34.1066 8.44292 34.058 8.34558C34.0093 8.24824 33.984 8.14091 33.984 8.03208C33.984 7.92325 34.0093 7.81593 34.058 7.71859C34.1066 7.62125 34.1773 7.53658 34.2644 7.47128L35.6664 6.06924C35.7317 5.98218 35.8164 5.91151 35.9137 5.86284C36.0111 5.81417 36.1184 5.78884 36.2273 5.78884C36.3361 5.78884 36.4435 5.81417 36.5408 5.86284C36.6381 5.91151 36.7228 5.98218 36.7881 6.06924L49.2662 18.5474C49.3532 18.6126 49.4239 18.6973 49.4726 18.7947C49.5213 18.892 49.5466 18.9993 49.5466 19.1082C49.5466 19.217 49.5213 19.3243 49.4726 19.4217C49.4239 19.519 49.3532 19.6037 49.2662 19.669Z" fill="#6BB64A"/>
</svg>
