<svg width="614" height="372" viewBox="0 0 614 372" fill="none" xmlns="http://www.w3.org/2000/svg">
<path d="M600.063 356.268H14.489C12.7941 356.271 11.1151 355.94 9.54849 355.293C7.98187 354.647 6.55842 353.697 5.35992 352.498C4.16143 351.3 3.21149 349.876 2.56458 348.31C1.91767 346.743 1.58654 345.064 1.59024 343.369V28.7523C1.58654 27.0573 1.91767 25.3784 2.56458 23.8118C3.21149 22.2451 4.16143 20.8217 5.35992 19.6232C6.55842 18.4247 7.98187 17.4748 9.54849 16.8279C11.1151 16.1809 12.7941 15.8498 14.489 15.8535H600.063C601.758 15.8498 603.437 16.1809 605.004 16.8279C606.57 17.4748 607.994 18.4247 609.192 19.6232C610.391 20.8217 611.341 22.2451 611.988 23.8118C612.634 25.3784 612.966 27.0573 612.962 28.7523V343.229C612.992 344.938 612.68 346.635 612.044 348.221C611.408 349.808 610.461 351.251 609.259 352.466C608.057 353.681 606.625 354.643 605.045 355.296C603.466 355.949 601.772 356.279 600.063 356.268Z" stroke="white" stroke-width="1.40204" stroke-dasharray="7.02 7.02"/>
<path d="M303.449 340.568C303.746 340.27 304.149 340.103 304.57 340.103C304.991 340.103 305.394 340.27 305.692 340.568C305.989 340.865 306.156 341.269 306.156 341.689C306.156 342.11 305.989 342.513 305.692 342.811L294.475 354.027H331.77C332.179 354.027 332.571 354.19 332.86 354.479C333.149 354.768 333.312 355.16 333.312 355.569C333.312 355.978 333.149 356.371 332.86 356.66C332.571 356.949 332.179 357.112 331.77 357.112H294.419L305.636 368.328C305.783 368.475 305.9 368.65 305.98 368.843C306.059 369.035 306.1 369.241 306.1 369.45C306.1 369.658 306.059 369.864 305.98 370.057C305.9 370.249 305.783 370.424 305.636 370.571C305.488 370.719 305.314 370.835 305.121 370.915C304.929 370.995 304.722 371.036 304.514 371.036C304.306 371.036 304.099 370.995 303.907 370.915C303.715 370.835 303.54 370.719 303.392 370.571L289.372 356.551C289.099 356.241 288.948 355.842 288.948 355.429C288.948 355.016 289.099 354.617 289.372 354.308L303.449 340.568Z" fill="white"/>
<path d="M329.386 30.8569C329.089 31.1544 328.685 31.3215 328.264 31.3215C327.844 31.3215 327.44 31.1544 327.143 30.8569C326.845 30.5595 326.678 30.156 326.678 29.7353C326.678 29.3146 326.845 28.9112 327.143 28.6137L338.359 17.3974H301.065C300.656 17.3974 300.264 17.2349 299.974 16.9457C299.685 16.6565 299.523 16.2642 299.523 15.8552C299.523 15.4461 299.685 15.0539 299.974 14.7646C300.264 14.4754 300.656 14.3129 301.065 14.3129H338.359L327.143 3.09664C326.873 2.78547 326.724 2.38717 326.724 1.97501C326.724 1.56285 326.873 1.16456 327.143 0.853383C327.453 0.580335 327.851 0.429688 328.264 0.429688C328.677 0.429688 329.076 0.580335 329.386 0.853383L343.406 14.8737C343.679 15.1836 343.83 15.5824 343.83 15.9954C343.83 16.4084 343.679 16.8072 343.406 17.117L329.386 30.8569Z" fill="white"/>
</svg>
