<svg width="139" height="60" viewBox="0 0 139 60" fill="none" xmlns="http://www.w3.org/2000/svg">
<g clip-path="url(#clip0_3003_1916)">
<g clip-path="url(#clip1_3003_1916)">
<mask id="mask0_3003_1916" style="mask-type:luminance" maskUnits="userSpaceOnUse" x="0" y="0" width="139" height="60">
<path d="M138.763 0.328125H0.784424V59.6078H138.763V0.328125Z" fill="white"/>
</mask>
<g mask="url(#mask0_3003_1916)">
<path d="M1.06827 29.2803V16.1519C1.07288 16.0696 1.10904 15.9922 1.16933 15.9357C1.22962 15.8791 1.30944 15.8476 1.39236 15.8478H16.4626C17.6544 15.8142 18.843 15.9898 19.9735 16.3665C20.3697 16.5096 20.7838 16.5096 21.1798 16.6527C22.7059 17.2033 24.1386 17.9813 25.4291 18.96C26.025 19.4933 26.5567 20.0935 27.0135 20.7486C27.9702 21.9891 28.6848 23.3965 29.1201 24.8982C29.3728 25.9097 29.5533 26.9377 29.6602 27.9746C29.8256 29.1379 29.7645 30.3219 29.4802 31.4624C29.2817 32.3998 29.0108 33.3207 28.6699 34.2169C28.2282 35.3261 27.6213 36.3631 26.8695 37.2933C25.8776 38.6108 24.6584 39.7433 23.2684 40.638C22.5972 41.0652 21.8782 41.4134 21.1259 41.6754C20.1356 42.0152 19.1273 42.1225 18.1191 42.3908C17.6755 42.4855 17.2222 42.5276 16.7686 42.516H1.75246C1.65962 42.5214 1.56668 42.507 1.47996 42.4736C1.39323 42.4403 1.31476 42.3888 1.24985 42.3225C1.18495 42.2564 1.13514 42.1771 1.10381 42.0901C1.07248 42.0031 1.06036 41.9104 1.06827 41.8185C1.06827 37.651 1.06827 33.4835 1.06827 29.2803ZM11.6193 37.7762H16.5886C17.8372 37.7354 19.0635 37.4369 20.1896 36.8998C21.162 36.4148 22.0255 35.7394 22.7283 34.9144C23.3399 34.191 23.8432 33.3838 24.2227 32.5177C24.3462 32.1192 24.4425 31.7128 24.5109 31.3014C24.7461 30.5356 24.8734 29.7409 24.8889 28.9404C24.8736 28.5741 24.8315 28.2095 24.7629 27.8494C24.6188 27.1518 24.4928 26.4543 24.3128 25.7746C24.2276 25.5843 24.1315 25.3992 24.0247 25.2201C23.6966 24.3851 23.1933 23.629 22.5483 23.0023C21.6222 22.1046 20.492 21.442 19.2534 21.0706C18.2738 20.7696 17.2538 20.6188 16.2285 20.6234H6.28973C5.94763 20.6234 5.82159 20.7128 5.82159 21.0527V36.7388C5.83961 36.8574 5.83961 36.9779 5.82159 37.0965C5.77627 37.2364 5.78874 37.3885 5.85627 37.5193C5.9238 37.6501 6.04085 37.7489 6.1817 37.7941C6.26721 37.8504 6.36714 37.8815 6.46978 37.8835H11.6732L11.6193 37.7762Z" fill="white"/>
<path d="M95.6997 41.2241L95.4871 42.1195C95.4871 42.296 95.8805 42.5405 96.1925 42.5655H99.3367C99.6395 42.6187 99.9514 42.5766 100.229 42.4451C100.507 42.3137 100.736 42.0994 100.885 41.8322C101.299 41.0989 101.659 40.5981 102.181 39.668C102.704 38.7379 103.099 38.1119 103.784 36.9493C104.468 35.7867 105.188 34.6241 105.89 33.4615C106.755 31.9591 107.655 30.4387 108.555 28.9363L111.022 24.8225C111.454 24.1249 111.832 23.4274 112.228 22.7298C112.236 22.7024 112.25 22.677 112.268 22.6554C112.288 22.6337 112.31 22.6165 112.337 22.6046C112.39 22.5542 112.46 22.5262 112.534 22.5262C112.608 22.5262 112.679 22.5542 112.732 22.6046C112.912 22.8371 113.075 23.0697 113.236 23.3201L115.181 26.6111L116.621 28.9363L118.314 31.4404C118.332 31.5709 118.332 31.7032 118.314 31.8339C118.278 31.9591 118.08 31.9591 117.935 31.9591H111.13C110.84 31.9413 110.552 32.017 110.309 32.1749C110.066 32.3328 109.88 32.5644 109.779 32.8355C109.48 33.4512 109.144 34.0485 108.772 34.6241L108.321 35.1607C108.253 35.2138 108.208 35.2905 108.195 35.3753C108.185 35.4769 108.215 35.5786 108.279 35.6587C108.342 35.7389 108.435 35.7911 108.538 35.8046H120.006C120.154 35.7648 120.312 35.771 120.457 35.8221C120.601 35.8732 120.727 35.9669 120.817 36.0908C121.249 36.7347 121.663 37.2712 122.113 38.0225C122.563 38.7737 123.121 39.6143 123.464 40.2761C123.805 40.9379 124.148 41.4924 124.436 42.0647C124.498 42.2402 124.616 42.391 124.771 42.4942C124.927 42.5974 125.112 42.6476 125.299 42.6371H129.801C129.891 42.6398 129.979 42.6218 130.06 42.5846C130.142 42.5473 130.214 42.4918 130.27 42.4224C130.286 42.2266 130.236 42.0309 130.126 41.868C130.053 41.7249 129.909 41.6176 129.801 41.4566L127.658 37.8794L125.192 33.7834C124.4 32.442 123.59 31.1184 122.779 29.777L120.978 27.0404C120.24 25.8778 119.521 24.6615 118.782 23.4632C118.278 22.694 117.81 21.8176 117.27 20.9054C116.729 19.9932 116.171 19.0989 115.595 18.2046C115.284 17.4844 114.865 16.8151 114.353 16.2193C114.122 15.9829 113.839 15.802 113.527 15.6904C113.216 15.5788 112.882 15.5395 112.552 15.5754C112.196 15.6132 111.851 15.7251 111.541 15.9038C111.231 16.0825 110.962 16.324 110.751 16.6128C110.566 16.8886 110.398 17.1753 110.248 17.4713L109.096 19.3493L108.051 21.2095C107.295 22.6046 106.34 23.9819 105.494 25.3591L103.063 29.2404L101.731 31.4761L100.075 34.1591C99.3546 35.3038 98.6164 36.5737 97.8962 37.7363C97.176 38.8989 96.4378 40.0615 95.6997 41.2241Z" fill="white"/>
<path d="M45.4121 15.8558H56.8813C56.9547 15.8625 57.0261 15.8837 57.0912 15.9179C57.1564 15.9521 57.214 15.999 57.261 16.0555C57.3079 16.112 57.343 16.1772 57.3643 16.2473C57.3856 16.3174 57.3929 16.391 57.3854 16.4639C57.3939 16.4931 57.3939 16.5242 57.3854 16.5533V18.5208C57.36 18.9886 57.3963 19.4576 57.4935 19.9159C57.5104 20.0385 57.4812 20.1628 57.4114 20.2653C57.3416 20.3676 57.2361 20.4406 57.1153 20.4704C56.8059 20.5298 56.4933 20.5715 56.1791 20.5956H38.4262C38.374 20.6001 38.3233 20.6148 38.277 20.6388C38.2306 20.6629 38.1895 20.6958 38.156 20.7357C38.1226 20.7757 38.0974 20.8218 38.0819 20.8713C38.0665 20.921 38.0611 20.9731 38.066 21.0249V36.9793C38.0586 37.063 38.0683 37.1473 38.0944 37.2272C38.1206 37.307 38.1626 37.3809 38.218 37.4443C38.2735 37.5078 38.3411 37.5595 38.4172 37.5963C38.4931 37.6332 38.5758 37.6545 38.6602 37.659H56.6652C57.2954 37.659 57.5115 38.0168 57.4394 38.5534C57.4034 39.2206 57.4034 39.8893 57.4394 40.5565V41.6654C57.4718 41.8124 57.4445 41.9661 57.3637 42.0934C57.2828 42.2205 57.1548 42.311 57.0073 42.3451H34.9152C34.495 42.3451 34.081 42.3451 33.6728 42.3451C33.3847 42.3451 33.2947 42.1127 33.2947 41.8265V16.7858C33.2947 15.5875 33.4027 15.8736 34.231 15.8736L45.4121 15.8558Z" fill="white"/>
<path d="M135.795 15.8361H137.596C138.171 15.8361 138.37 16.0687 138.37 16.641V41.6816C138.37 42.2003 138.208 42.3791 137.703 42.3791H135.003C134.679 42.397 134.355 42.397 134.031 42.3791C133.4 42.3791 133.4 41.932 133.454 41.5385C133.473 41.1929 133.473 40.8467 133.454 40.5011V17.2491C133.473 16.9234 133.436 16.597 133.346 16.2833C133.239 15.9792 133.49 15.7109 133.904 15.7109L135.795 15.8361Z" fill="white"/>
<path d="M83.7144 26.8645C83.7397 25.9553 83.5393 25.054 83.1311 24.2399C82.7229 23.4258 82.1194 22.724 81.3738 22.1962L81.7338 21.8206L83.5344 20.032L85.1548 18.2434L86.9554 16.3653C87.2615 16.0613 87.5495 15.7572 87.8196 15.4352C87.9905 15.2619 88.1952 15.1249 88.4212 15.0327C88.6472 14.9405 88.8897 14.8949 89.1339 14.8987H94.6975C95.1116 14.8987 95.1117 14.8987 95.1476 15.0239C95.1922 15.0967 95.2157 15.1802 95.2157 15.2654C95.2157 15.3505 95.1922 15.434 95.1476 15.5068C94.9624 15.7384 94.7576 15.9538 94.5354 16.1507L90.1603 20.6043C89.6201 21.1767 89.044 21.7133 88.3597 22.3929L85.0649 25.7376C84.8127 25.988 84.5967 26.2921 84.3626 26.5425C84.2823 26.6371 84.1833 26.7144 84.0718 26.7697C83.9604 26.8251 83.8388 26.8573 83.7144 26.8645Z" fill="white"/>
<path d="M48.898 30.9798H42.2181C41.4619 30.9798 41.2639 30.6578 41.3539 29.9066C41.4259 29.157 41.4259 28.4024 41.3539 27.6529C41.3539 27.1342 41.3539 26.9375 41.966 26.9375H55.7579C56.226 26.9375 56.4961 27.1521 56.4781 27.7245C56.46 28.2968 56.4781 29.3521 56.4781 30.1749C56.4781 30.6757 56.226 30.9798 55.6139 30.9976H48.898V30.9798Z" fill="white"/>
<path d="M43.4231 58.782L41.4246 58.6031C40.9024 58.6031 40.6864 58.2633 40.6864 57.6552V50.769C40.6683 50.4652 40.6683 50.1606 40.6864 49.8568C40.6946 49.7552 40.739 49.6598 40.8115 49.5877C40.8841 49.5156 40.9802 49.4715 41.0825 49.4633C42.1349 49.286 43.2052 49.238 44.2694 49.3202C44.6651 49.3197 45.059 49.3739 45.4397 49.4812C45.8176 49.5842 46.1712 49.7606 46.4803 50C46.7893 50.2395 47.0475 50.5373 47.2402 50.8763C47.4771 51.257 47.5872 51.7021 47.5549 52.1483C47.5225 52.5946 47.3495 53.0195 47.0601 53.3625C46.6461 53.7739 46.628 53.8991 47.0601 54.3105C47.3597 54.5727 47.5901 54.9038 47.7312 55.2748C47.8725 55.6458 47.9203 56.0454 47.8704 56.4389C47.8072 56.7811 47.6699 57.1056 47.4677 57.3897C47.2656 57.674 47.0037 57.911 46.7 58.0844C46.0207 58.5031 45.2301 58.7088 44.4315 58.6747H43.4952L43.4231 58.782ZM44.1074 56.8503H44.4854C44.7326 56.819 44.9711 56.74 45.1876 56.6178C45.3384 56.4921 45.4482 56.3244 45.5027 56.1365C45.5573 55.9485 45.5541 55.7487 45.4937 55.5625C45.4405 55.3532 45.327 55.1639 45.1671 55.0177C45.0072 54.8716 44.8079 54.775 44.5935 54.7397C44.2283 54.704 43.8603 54.704 43.4952 54.7397C43.3715 54.724 43.2465 54.7561 43.146 54.8293C43.0454 54.9026 42.9771 55.0113 42.955 55.1332C42.9466 55.1531 42.9422 55.1743 42.9422 55.1958C42.9422 55.2174 42.9466 55.2386 42.955 55.2584C42.973 55.5682 42.973 55.8787 42.955 56.1885C42.955 56.5105 42.955 56.743 43.3151 56.8145C43.5945 56.869 43.8772 56.9049 44.1613 56.9218L44.1074 56.8503ZM43.063 52.182V52.3788C43.063 52.8975 43.1711 53.1121 43.6572 53.1479C44.1118 53.1623 44.5663 53.114 45.0076 53.0048C45.1944 52.9552 45.3581 52.8423 45.4699 52.6854C45.5817 52.5286 45.6347 52.3379 45.6197 52.1463C45.6214 51.9357 45.551 51.7308 45.4202 51.565C45.2894 51.3993 45.1058 51.2826 44.8996 51.2341C44.402 51.1983 43.9027 51.1983 43.4051 51.2341C43.3539 51.234 43.3032 51.2443 43.2562 51.2642C43.2091 51.2842 43.1666 51.3135 43.1312 51.3503C43.0958 51.3871 43.0683 51.4307 43.0505 51.4783C43.0326 51.526 43.0246 51.5768 43.027 51.6276V52.182H43.063Z" fill="white"/>
<path d="M3.91084 49.2891C4.5144 49.2943 5.11653 49.348 5.71133 49.45C6.25574 49.5587 6.75726 49.8204 7.15625 50.2041C7.55523 50.5878 7.83489 51.0773 7.96196 51.6143C8.11406 52.185 8.07105 52.7898 7.83967 53.3337C7.6083 53.8775 7.20166 54.3297 6.6836 54.6191C6.60899 54.6507 6.54811 54.7076 6.51184 54.7797C6.47555 54.8517 6.46624 54.9343 6.48555 55.0126V55.1021C6.89967 55.889 7.31378 56.6581 7.74591 57.4272C7.83752 57.5873 7.94618 57.7372 8.06999 57.8744C8.35807 58.2679 8.19602 58.6435 7.7279 58.6614C7.2184 58.6973 6.70697 58.6973 6.19747 58.6614C6.10566 58.6376 6.01983 58.5951 5.94544 58.5366C5.87105 58.478 5.80972 58.4048 5.76535 58.3216C5.35123 57.6061 4.93712 56.8728 4.55902 56.1394C4.55902 55.9785 4.39697 55.7996 4.28894 55.6386C4.16742 55.4804 4.00591 55.357 3.82081 55.2809C3.38868 55.1736 3.20864 55.2809 3.22665 55.8354C3.24464 56.3899 3.22665 56.6403 3.22665 57.0338C3.20823 57.2419 3.20823 57.4515 3.22665 57.6598C3.33467 58.3394 3.22665 58.6614 2.47043 58.6972H1.39013C1.13806 58.6972 1.03003 58.5004 1.03003 58.2321V49.9687C1.03003 49.5574 1.22808 49.4679 1.60619 49.4322L3.91084 49.2891ZM4.1449 51.1671H3.82081C3.6948 51.1621 3.57179 51.2059 3.47773 51.2893C3.38366 51.3728 3.32591 51.4893 3.31667 51.6143V52.9021C3.30528 53.0382 3.34493 53.1738 3.428 53.2827C3.51109 53.3916 3.63173 53.4662 3.7668 53.4923H3.87482C4.23492 53.4923 4.61302 53.4923 4.97313 53.4923C5.11491 53.4951 5.25487 53.4601 5.37839 53.3909C5.5019 53.3217 5.60445 53.2207 5.67533 53.0988C5.83125 52.8442 5.8845 52.5405 5.82438 52.2486C5.76428 51.9566 5.59526 51.6981 5.35123 51.5248C5.05304 51.2893 4.56545 51.1277 4.1449 51.1671Z" fill="white"/>
<path d="M67.6919 54.0854C67.7701 54.9166 67.6845 55.755 67.4398 56.5536C67.1742 57.2138 66.7166 57.7806 66.1254 58.1812C65.5293 58.6024 64.8017 58.7991 64.0728 58.7357C63.6022 58.7535 63.1309 58.7174 62.6684 58.6284C61.9667 58.4363 61.346 58.0245 60.8984 57.4542C60.4507 56.8839 60.2002 56.1855 60.1838 55.4626V53.3877C60.1589 52.707 60.2628 52.0275 60.4899 51.3845C60.7906 50.6737 61.3408 50.0953 62.0383 49.7569C62.6459 49.455 63.3198 49.3084 63.9988 49.3303C64.6778 49.3521 65.3407 49.5418 65.9274 49.8821C66.4818 50.1871 66.9423 50.6361 67.2595 51.1813C67.5767 51.7264 67.7386 52.3469 67.7278 52.9764L67.6919 54.0854ZM62.4164 54.4074V55.3731C62.4089 55.7535 62.5436 56.1231 62.7945 56.4106C63.0646 56.6782 63.4304 56.8284 63.8118 56.8284C64.1932 56.8284 64.559 56.6782 64.8291 56.4106C65.1106 56.0211 65.2504 55.548 65.2252 55.0691V52.9764C65.2317 52.7265 65.1854 52.478 65.0893 52.2469C64.9931 52.0158 64.8493 51.8074 64.6671 51.6349C64.4944 51.4675 64.2759 51.3544 64.0389 51.3098C63.8019 51.2652 63.5569 51.2913 63.3347 51.3845C63.0875 51.4599 62.8691 51.6079 62.7084 51.8092C62.5477 52.0103 62.4521 52.2552 62.4344 52.5114L62.4164 54.4074Z" fill="white"/>
<path d="M28.0837 54.1758C28.0812 54.8698 28.033 55.5628 27.9396 56.2506C27.7631 57.0364 27.2852 57.723 26.6073 58.1644C26.0338 58.5912 25.3229 58.7947 24.6087 58.7367C24.1082 58.7539 23.6072 58.7179 23.1144 58.6294C22.3918 58.4107 21.76 57.9651 21.3138 57.3595C21.0466 56.944 20.8802 56.4726 20.8277 55.9823C20.5214 54.5414 20.5398 53.051 20.8817 51.6181C21.0963 51.0687 21.4488 50.583 21.9059 50.2073C22.3628 49.8316 22.909 49.5784 23.4924 49.4717C24.2116 49.3458 24.9501 49.3825 25.6531 49.579C26.3012 49.7843 26.8702 50.1827 27.2825 50.7203C27.6949 51.2579 27.9306 51.9086 27.9577 52.5839C27.9757 53.0132 28.0837 53.5498 28.0837 54.1758ZM22.8082 54.1758V55.4099C22.8154 55.7881 22.9627 56.1503 23.2217 56.4275C23.4808 56.7047 23.8336 56.8773 24.2127 56.9124C24.5295 56.9534 24.8501 56.8698 25.1057 56.6793C25.3615 56.4888 25.532 56.2066 25.581 55.8928C25.7249 54.8185 25.7249 53.7299 25.581 52.6555C25.5872 52.4509 25.5456 52.2478 25.4594 52.0618C25.3732 51.8759 25.2448 51.7125 25.0843 51.5842C24.9238 51.456 24.7355 51.3664 24.5343 51.3227C24.3331 51.2788 24.1244 51.282 23.9245 51.3319C23.675 51.3838 23.4455 51.5057 23.2636 51.6833C23.0816 51.8608 22.9549 52.0865 22.8983 52.3335C22.7971 52.925 22.7369 53.5226 22.7182 54.1221L22.8082 54.1758Z" fill="white"/>
<path d="M134.432 58.7685L132.775 58.6075C132.217 58.6075 132.054 58.1962 131.983 57.6775C131.983 57.0336 131.983 56.8905 132.721 56.8905H134.647C134.829 56.9165 135.014 56.901 135.189 56.8453C135.364 56.7895 135.523 56.6948 135.656 56.5685C135.744 56.4627 135.792 56.33 135.792 56.1929C135.792 56.0557 135.744 55.923 135.656 55.8173C135.502 55.6079 135.314 55.4264 135.098 55.2807C134.359 54.7978 133.603 54.3685 132.883 53.8498C132.609 53.6801 132.372 53.4584 132.185 53.1972C131.997 52.9361 131.864 52.6408 131.792 52.3284C131.72 52.0159 131.711 51.6923 131.765 51.3764C131.82 51.0604 131.937 50.7582 132.108 50.4872L132.271 50.2547C132.465 50.0171 132.705 49.8203 132.978 49.676C133.25 49.5317 133.549 49.4426 133.855 49.4141H137.078C137.219 49.4155 137.356 49.4588 137.471 49.5386C137.587 49.6183 137.676 49.7307 137.727 49.8612C137.806 50.0328 137.867 50.2128 137.907 50.3978C137.922 50.5326 137.905 50.6693 137.856 50.796C137.806 50.9226 137.727 51.0357 137.625 51.1253C137.522 51.2149 137.399 51.2786 137.266 51.3107C137.133 51.3429 136.995 51.3426 136.862 51.31C136.08 51.2054 135.292 51.1635 134.503 51.1848C134.407 51.2019 134.315 51.2395 134.234 51.2951C134.154 51.3506 134.085 51.4228 134.035 51.5067C133.982 51.6039 133.966 51.7167 133.989 51.8249C134.012 51.933 134.073 52.0295 134.162 52.097C134.414 52.3019 134.679 52.4929 134.954 52.6693C135.656 53.0986 136.412 53.4742 137.096 53.9571C137.413 54.1929 137.676 54.4939 137.866 54.8396C138.055 55.1854 138.167 55.5676 138.195 55.9604C138.212 56.0789 138.212 56.1994 138.195 56.3181C138.054 56.8657 137.767 57.3657 137.365 57.7653C136.962 58.1651 136.459 58.4498 135.907 58.5896C135.42 58.6833 134.927 58.7431 134.432 58.7685Z" fill="white"/>
<path d="M113.814 53.9756V52.187C113.843 51.5238 114.104 50.8914 114.552 50.3984C114.815 50.0598 115.142 49.7765 115.516 49.5648C115.891 49.3529 116.303 49.2167 116.731 49.1642C117.542 49.039 118.368 49.039 119.18 49.1642C119.294 49.1854 119.398 49.2416 119.479 49.325C119.56 49.4084 119.612 49.5148 119.629 49.6293C119.684 49.81 119.72 49.9958 119.738 50.1837C119.738 50.8276 119.557 51.0244 118.946 50.9886H117.523C117.172 50.9881 116.834 51.1215 116.579 51.3611C116.325 51.6008 116.173 51.9284 116.154 52.2764V55.1203C116.137 55.3418 116.167 55.5644 116.241 55.7738C116.315 55.9833 116.433 56.175 116.587 56.3365C116.715 56.4586 116.869 56.5531 117.035 56.6147C117.203 56.6762 117.381 56.7033 117.559 56.6943H119.125C119.611 56.6943 119.809 56.891 119.809 57.3739V58.0178C119.809 58.2146 119.504 58.5187 119.107 58.5365C118.448 58.5723 117.786 58.5723 117.126 58.5365C116.616 58.5495 116.11 58.439 115.652 58.2148C115.195 57.9905 114.798 57.6589 114.497 57.2487C114.012 56.6472 113.763 55.8908 113.795 55.1203C113.822 54.7393 113.828 54.3572 113.814 53.9756Z" fill="white"/>
<path d="M82.8934 49.3281H85.7022C86.2783 49.3281 86.4944 49.507 86.5665 50.0436V50.4013C86.5665 50.9736 86.3143 51.1346 85.8102 51.1883H84.7299C84.3338 51.1883 84.1718 51.3314 84.1718 51.707V55.8029C84.1568 56.5135 84.1869 57.2245 84.2618 57.9313C84.2772 58.0967 84.2278 58.2616 84.1238 58.3916C84.0198 58.5215 83.8692 58.6065 83.7036 58.6289C83.2478 58.7362 82.7731 58.7362 82.3172 58.6289C81.9212 58.5037 81.8491 58.2712 81.8851 57.8419V51.8858C81.8851 51.5102 81.651 51.3314 81.2369 51.3135C80.8229 51.2956 80.4267 51.3135 80.0306 51.3135C79.6345 51.3135 79.4005 50.9736 79.4724 50.4907V50.2045C79.4724 49.6501 79.6705 49.5249 80.2286 49.5249H82.6954L82.8934 49.3281Z" fill="white"/>
<path d="M101.117 53.8555V58.2912C101.117 58.3909 101.077 58.4864 101.006 58.5569C100.935 58.6273 100.839 58.6668 100.739 58.6668C100.21 58.7744 99.665 58.7744 99.1364 58.6668C98.8303 58.6668 98.7223 58.3807 98.7763 58.0408C98.8033 57.7732 98.8033 57.5036 98.7763 57.236V49.9563C98.7763 49.5986 98.7763 49.4197 99.1904 49.4018C99.6879 49.3661 100.187 49.3661 100.685 49.4018C100.937 49.4018 101.099 49.6701 101.099 49.9742L101.117 53.8555Z" fill="white"/>
<path d="M70.6921 4.97029L73.6089 4.75566L76.6877 4.45159C77.3295 4.4449 77.9553 4.25219 78.4883 3.89712C78.8045 3.67621 79.0236 3.3434 79.1004 2.96704C79.1004 2.64509 79.2625 2.34103 79.3526 2.03697C79.4188 1.89671 79.5229 1.77737 79.6532 1.69215C79.7834 1.60693 79.9348 1.55914 80.0907 1.55404C80.811 1.42884 81.5311 1.28575 82.2514 1.23209C84.3939 1.05323 86.5546 0.963802 88.6791 0.588194C89.0345 0.519046 89.4029 0.590737 89.7058 0.787939C90.0085 0.98514 90.2217 1.2922 90.2996 1.64347V1.80445L90.6417 6.06134C90.5973 6.59106 90.5973 7.1235 90.6417 7.65321C90.6632 7.74012 90.6671 7.83039 90.6534 7.91884C90.6396 8.00729 90.6085 8.09217 90.5617 8.16861C90.5148 8.24506 90.4532 8.31157 90.3804 8.36431C90.3077 8.41706 90.2251 8.45501 90.1375 8.47597C89.5434 8.58328 88.9492 8.6906 88.337 8.76215C86.9687 8.90524 85.5823 8.97678 84.2139 9.11987C83.3136 9.2093 82.4134 9.3345 81.5311 9.44182C80.6489 9.54914 80.2888 9.26296 79.7486 8.33288C79.5668 7.96522 79.356 7.61238 79.1184 7.2776C78.9339 7.04164 78.6836 6.86491 78.3986 6.76948C78.1136 6.67405 77.8066 6.66416 77.516 6.74101L75.7156 7.04508C75.5054 7.10616 75.2795 7.08212 75.0872 6.97822C74.8948 6.87432 74.7518 6.69901 74.6892 6.49061C74.6302 6.31437 74.5368 6.15142 74.4144 6.01106C74.2919 5.87071 74.1428 5.7557 73.9756 5.67265C73.8084 5.58959 73.6264 5.54009 73.4398 5.527C73.2533 5.51389 73.0661 5.53744 72.8887 5.5963C72.6796 5.64583 72.491 5.75827 72.3486 5.91825C72.0917 6.18747 71.9007 6.51184 71.7904 6.86622C71.6824 7.33126 71.2503 7.43857 70.8541 7.51012C69.9359 7.67109 69.0536 7.76052 68.0454 7.86784L65.8847 8.20768L64.0843 8.40442C62.7873 8.44893 61.4944 8.57438 60.2132 8.78003C59.565 8.92312 58.8988 8.92312 58.2506 9.03044C57.6024 9.13776 56.7563 9.29873 56.018 9.38816C55.2798 9.47759 55.0817 9.51336 54.6136 9.54914C53.7342 9.57548 52.8568 9.64712 51.9849 9.76377C51.1049 9.98789 50.1822 9.98789 49.3022 9.76377C48.9631 9.60973 48.6805 9.35494 48.4935 9.03456C48.3065 8.71418 48.2241 8.34401 48.2579 7.97516C48.2767 7.59903 48.3814 7.23207 48.5639 6.90199C48.7153 6.64761 48.9277 6.43443 49.1822 6.28148C49.4367 6.12855 49.7253 6.04063 50.0224 6.02557C51.4808 5.84671 53.0112 5.68573 54.4696 5.68573C55.928 5.68573 57.1884 5.68573 58.5567 5.56053C59.9251 5.43533 61.0234 5.31012 62.2838 5.22069L65.5426 5.05972C65.8697 5.06271 66.1854 4.9411 66.4249 4.71988L67.9014 3.48574C68.0592 3.35547 68.2488 3.26871 68.451 3.23418C68.6532 3.19964 68.8611 3.21855 69.0536 3.28899C69.2038 3.33447 69.3297 3.43711 69.4039 3.57451C69.4782 3.71191 69.4947 3.87291 69.4498 4.02232V4.12964C69.2157 4.71988 69.3238 4.88086 69.9719 4.91663H70.7822L70.6921 4.97029ZM81.4951 3.59306L82.8455 3.4142L87.4908 3.00282C87.9205 2.94608 88.3431 2.84416 88.7512 2.69875C88.9132 2.69875 89.1112 2.41257 89.0933 2.28737C89.0672 2.18929 89.0175 2.09898 88.9485 2.0242C88.8794 1.94943 88.7932 1.89242 88.6971 1.8581C88.4389 1.7611 88.1616 1.72439 87.8869 1.75079L85.5463 1.98331L82.0893 2.32314C81.6642 2.35229 81.2425 2.41812 80.8289 2.51989C80.7249 2.53888 80.63 2.59108 80.5584 2.66855C80.487 2.74601 80.4428 2.84454 80.4328 2.94916C80.4223 3.0576 80.4535 3.16598 80.5204 3.25233C80.5873 3.33869 80.6847 3.39656 80.793 3.4142L81.4771 3.57517L81.4951 3.59306ZM88.283 4.0581H87.9409L86.0504 4.25484L83.7457 4.45159L81.3691 4.75566C81.2244 4.75678 81.0846 4.8073 80.973 4.89874C80.8854 4.94452 80.8192 5.02262 80.789 5.11627C80.7586 5.20991 80.7666 5.31163 80.811 5.39956C80.8535 5.47665 80.9245 5.53435 81.009 5.56053C81.3395 5.75512 81.7272 5.8309 82.1072 5.77516L84.1059 5.52476L88.3911 5.11338C88.5555 5.12691 88.7211 5.10516 88.8764 5.04961C89.0317 4.99407 89.1732 4.90602 89.2913 4.79143C89.3254 4.76289 89.3528 4.72729 89.3716 4.68713C89.3904 4.64697 89.4002 4.6032 89.4002 4.55891C89.4002 4.51462 89.3904 4.47086 89.3716 4.43069C89.3528 4.39053 89.3254 4.35493 89.2913 4.32639C89.1761 4.20854 89.0345 4.11953 88.878 4.06667C88.7215 4.01381 88.5546 3.99861 88.3911 4.02232L88.283 4.0581ZM88.6611 6.29386L87.0047 6.49061L81.9273 7.02719C81.7008 7.04004 81.4797 7.10104 81.2791 7.20605C81.2064 7.25499 81.1449 7.31844 81.0984 7.39237C81.0519 7.46628 81.0214 7.54904 81.009 7.63532C81.0188 7.71778 81.0508 7.7961 81.1014 7.86216C81.1521 7.9282 81.2197 7.97958 81.2971 8.01093C81.565 8.12008 81.8541 8.16894 82.1433 8.15402C82.6319 8.12501 83.1187 8.07128 83.6017 7.99304L88.6791 7.47435C88.8981 7.44338 89.1074 7.36392 89.2913 7.24183C89.339 7.22136 89.3816 7.1909 89.4163 7.15252C89.451 7.11414 89.4769 7.06876 89.4924 7.01949C89.5078 6.97022 89.5122 6.91822 89.5055 6.86707C89.4988 6.81591 89.4809 6.76681 89.4533 6.72313C89.4096 6.66504 89.3545 6.61637 89.2913 6.58004C89.1025 6.46677 88.9036 6.37098 88.6971 6.29386H88.6611Z" fill="white"/>
<path d="M79.2131 32.0479C79.119 32.4184 78.9863 32.7781 78.817 33.1211C78.1327 34.2121 77.4306 35.3032 76.7284 36.3764C76.4583 36.7877 76.1523 37.1991 75.8642 37.5926C75.7581 37.7451 75.7013 37.926 75.7013 38.1113C75.7013 38.2967 75.7581 38.4776 75.8642 38.63C76.0927 39.0484 76.2855 39.4853 76.4403 39.9357C76.5652 40.435 76.6495 40.9433 76.6924 41.456C76.7082 41.5789 76.6759 41.703 76.6022 41.8029C76.5285 41.9028 76.4189 41.9707 76.2963 41.9926H60.884C60.7525 42.0105 60.6193 42.0105 60.4878 41.9926C59.9838 41.8674 59.9117 41.7064 60.0558 41.2056C60.1998 40.7048 60.1818 40.4365 60.2719 40.0609C60.6127 38.6127 61.3993 37.3061 62.5225 36.3227C62.8106 36.0902 63.0446 35.8219 63.3326 35.6251C63.6787 35.3588 64.053 35.1309 64.4489 34.9455C65.141 34.6074 65.8571 34.3205 66.5916 34.0869C67.0364 34.001 67.4888 33.9591 67.942 33.9617C68.1781 33.9433 68.4035 33.8563 68.5901 33.7113C69.1483 33.2463 69.6525 32.7276 70.1745 32.2089L72.1011 30.4203C72.3532 30.152 72.6233 29.8658 72.9113 29.6154C73.1994 29.365 73.4335 29.365 73.6676 29.7048C74.1435 30.4878 74.8182 31.1329 75.6239 31.5754C76.4297 32.018 77.3383 32.2426 78.2589 32.2268L79.2131 32.0479Z" fill="white"/>
<path d="M69.1007 16.1875L69.4248 16.3127L70.199 16.8493L73.0979 19.1745L75.7265 21.285L75.9066 21.446C76.0326 21.5891 76.0506 21.7143 75.9066 21.8395C75.1735 22.1715 74.5274 22.667 74.0184 23.2874C73.5093 23.9078 73.1512 24.6365 72.9718 25.4167C72.9718 25.6671 72.7738 25.7029 72.5937 25.6135C72.4448 25.5072 72.3115 25.3808 72.1976 25.2379C71.9443 24.9741 71.7096 24.6932 71.4954 24.3972L68.8307 21.3745L66.58 18.7452C66.2379 18.3517 66.274 18.0298 66.814 17.9046C67.57 17.6921 68.2146 17.1989 68.6146 16.5273C68.7596 16.3918 68.9234 16.2774 69.1007 16.1875Z" fill="white"/>
<path d="M81.4915 26.6477C81.5066 27.4647 81.2013 28.2555 80.6403 28.8529C80.0792 29.4504 79.3062 29.8077 78.4846 29.8493H78.3406C77.9197 29.8493 77.503 29.767 77.1142 29.607C76.7254 29.447 76.372 29.2125 76.0744 28.9169C75.7768 28.6212 75.5408 28.2702 75.3797 27.884C75.2186 27.4977 75.1357 27.0837 75.1357 26.6656C75.1965 25.8602 75.5614 25.1072 76.1575 24.5579C76.7535 24.0084 77.5366 23.7031 78.3496 23.7031C79.1628 23.7031 79.9458 24.0084 80.5418 24.5579C81.1378 25.1072 81.5028 25.8602 81.5635 26.6656L81.4915 26.6477Z" fill="white"/>
<path d="M69.7179 14.3033C69.4908 14.2832 69.2779 14.1845 69.1167 14.0242C68.9554 13.864 68.8559 13.6526 68.8357 13.4269C68.8357 13.0334 68.8357 12.8367 69.3399 12.6578L70.7443 12.0318C70.8581 11.9694 70.9581 11.8851 71.0384 11.7837C71.1189 11.6823 71.1781 11.566 71.2124 11.4415C71.4052 10.854 71.5675 10.257 71.6985 9.65291C71.8426 9.04479 71.8966 8.65129 72.0226 8.16837C72.1486 7.68544 72.3287 7.14886 72.4547 6.66593C72.5807 6.18301 73.553 6.18301 73.8232 6.55862C73.9403 6.70513 74.0183 6.87873 74.0498 7.06325C74.0812 7.24776 74.0652 7.43719 74.0031 7.6139C73.6611 8.93747 73.319 10.2789 72.9949 11.6204C72.9769 11.745 72.9769 11.8714 72.9949 11.996C72.9747 12.3078 72.8727 12.6089 72.699 12.8694C72.5252 13.1299 72.2859 13.3405 72.0046 13.4806C71.3808 13.8388 70.7075 14.104 70.0061 14.2676L69.7179 14.3033Z" fill="white"/>
<path d="M65.7692 13.0537C66.2228 13.0522 66.6602 13.221 66.9941 13.5261C67.3279 13.831 67.5335 14.2501 67.5698 14.6992V14.7886C67.5698 15.2631 67.3801 15.718 67.0424 16.0534C66.7047 16.3889 66.2467 16.5772 65.7692 16.5772C65.2917 16.5772 64.8337 16.3889 64.4961 16.0534C64.1584 15.718 63.9688 15.2631 63.9688 14.7886C63.9688 14.3143 64.1584 13.8594 64.4961 13.5239C64.8337 13.1885 65.2917 13 65.7692 13V13.0537Z" fill="white"/>
<path d="M63.6544 11.0424C63.6286 10.7777 63.5866 10.515 63.5284 10.2554C63.4759 10.0893 63.4896 9.90944 63.5665 9.75302C63.6436 9.59659 63.7782 9.47552 63.9424 9.41478C64.1118 9.33938 64.2978 9.30858 64.4826 9.32535C64.5499 9.29648 64.6222 9.28148 64.6954 9.28125C64.7686 9.28102 64.841 9.29556 64.9084 9.324C64.9758 9.35243 65.0366 9.39417 65.0872 9.44667C65.1377 9.49917 65.1771 9.56134 65.2029 9.62941C65.2106 9.66476 65.2106 9.70138 65.2029 9.73673V9.87981C65.221 10.2075 65.221 10.5359 65.2029 10.8636C65.1981 11.1356 65.086 11.3949 64.8907 11.5856C64.6953 11.7763 64.4324 11.8831 64.1585 11.8831H63.9245C63.7989 11.8614 63.6857 11.7949 63.6062 11.6961C63.5266 11.5972 63.4861 11.4729 63.4923 11.3465V11.0424H63.6544Z" fill="white"/>
<path d="M81.7084 30.8855C81.0227 31.4391 80.2142 31.8225 79.3496 32.004C79.6585 32.2094 79.9425 32.4495 80.1959 32.7195C80.754 33.3455 81.3122 34.0073 81.8523 34.6512L83.887 37.0837L85.9215 39.4626L87.4339 41.2512C87.74 41.6625 88.2801 42.1455 88.6042 42.1455H94.1317C94.4642 42.193 94.3789 42.1288 95.4856 42.1288L95.068 41.6447C94.0778 40.5536 93.1055 39.4626 92.1152 38.4073L83.6348 29.0528L83.2927 28.8203C82.9373 29.624 82.3941 30.3318 81.7084 30.8855Z" fill="white"/>
</g>
</g>
</g>
<defs>
<clipPath id="clip0_3003_1916">
<rect width="137.979" height="59.2859" fill="white" transform="translate(0.784424 0.328125)"/>
</clipPath>
<clipPath id="clip1_3003_1916">
<rect width="137.979" height="59.2797" fill="white" transform="translate(0.784424 0.328125)"/>
</clipPath>
</defs>
</svg>
