<svg width="66" height="66" viewBox="0 0 66 66" fill="none" xmlns="http://www.w3.org/2000/svg">
<path d="M32.7828 64.1047C15.9479 64.1047 1.67019 49.8856 1.53986 32.9426C1.5105 28.8558 2.29257 24.8039 3.84073 21.0217C5.38889 17.2394 7.67235 13.8021 10.5588 10.9088C13.4647 7.93269 16.933 5.56365 20.7623 3.93931C24.5915 2.31498 28.7054 1.46773 32.8649 1.44679C36.9489 1.44306 40.9932 2.24747 44.765 3.8137C48.5367 5.37992 51.9612 7.67699 54.8413 10.5726C57.7695 13.4268 60.104 16.8324 61.71 20.5929C63.3161 24.3535 64.162 28.3948 64.199 32.4838C64.2363 40.8023 60.9797 48.7974 55.1407 54.7223C49.3017 60.6473 41.3551 64.0204 33.0369 64.1047H32.7828V64.1047ZM32.8805 3.08635C28.9391 3.10958 25.0415 3.91531 21.414 5.45681C17.7864 6.99831 14.5011 9.24488 11.7487 12.0662C9.01086 14.8032 6.84363 18.0565 5.37264 21.6374C3.90165 25.2184 3.15617 29.0557 3.17942 32.9269C3.30193 48.9837 16.8329 62.4482 32.775 62.4482H32.9874C40.8747 62.3769 48.4129 59.1858 53.9542 53.5726C59.4954 47.9593 62.5888 40.3804 62.5582 32.4929C62.5215 28.6191 61.7186 24.7908 60.1957 21.2287C58.6729 17.6665 56.4602 14.4409 53.6853 11.7377C50.9626 8.9909 47.7218 6.8118 44.1507 5.32673C40.5797 3.84166 36.7494 3.08015 32.8818 3.08635H32.8805Z" fill="white"/>
<path fill-rule="evenodd" clip-rule="evenodd" d="M0.285972 32.953C0.25567 28.701 1.06949 24.4852 2.68028 20.55C4.29107 16.6147 6.66679 13.0383 9.6698 10.0278C12.6914 6.93512 16.2971 4.47332 20.2777 2.78527C24.2583 1.09723 28.5346 0.21655 32.8583 0.194349H32.8635C37.1114 0.19053 41.3181 1.027 45.2414 2.65559C49.1647 4.28419 52.7271 6.67275 55.7235 9.68374C58.7679 12.6531 61.1947 16.1955 62.8643 20.1067C64.5338 24.018 65.4131 28.2209 65.4514 32.4734V32.4786C65.4901 41.1278 62.1042 49.4408 56.0333 55.6016C49.9624 61.7623 41.7 65.2701 33.0512 65.3585H32.7827C15.2532 65.3585 0.421517 50.579 0.285972 32.953V32.953ZM54.8425 10.5726C51.9624 7.67669 48.5376 5.37933 44.7657 3.81288C40.9937 2.24643 36.9491 1.44186 32.8648 1.44553C28.7055 1.46695 24.5918 2.31455 20.7628 3.9391C16.9338 5.56365 13.4657 7.93276 10.56 10.9089C7.67304 13.8021 5.38917 17.2396 3.84077 21.0221C2.29238 24.8046 1.51025 28.8568 1.53976 32.9439C1.67009 49.8856 15.9478 64.106 32.7827 64.106H33.0368C41.3552 64.0217 49.3021 60.6484 55.1411 54.7232C60.9801 48.798 64.2366 40.8025 64.1989 32.4838C64.1621 28.3948 63.3163 24.3535 61.7102 20.5928C60.1042 16.8322 57.7696 13.4267 54.8412 10.5726H54.8425ZM11.7473 12.0649C9.0093 14.8021 6.84197 18.0556 5.37098 21.6368C3.89998 25.2179 3.15459 29.0555 3.17801 32.927C3.30053 48.9837 16.8315 62.4482 32.7736 62.4482H32.986C40.8735 62.3773 48.4121 59.1864 53.9536 53.5731C59.4951 47.9597 62.5887 40.3807 62.5581 32.493C62.5212 28.619 61.7181 24.7907 60.195 21.2286C58.672 17.6664 56.4591 14.4409 53.6838 11.7378C50.9613 8.99109 47.7208 6.81208 44.1499 5.32702C40.5791 3.84195 36.7491 3.08036 32.8817 3.08639C28.9401 3.10944 25.0423 3.9151 21.4145 5.4566C17.7867 6.99811 14.5012 9.24476 11.7486 12.0662L11.7473 12.0649ZM32.8843 4.33887C36.5858 4.33335 40.2515 5.06248 43.669 6.48401C47.0866 7.90553 50.1881 9.99118 52.7937 12.6201L52.8015 12.6279L52.8093 12.6357C55.4655 15.2233 57.5836 18.3107 59.0415 21.7202C60.4994 25.1298 61.2685 28.7941 61.3043 32.5021C61.3325 40.0568 58.3693 47.3155 53.062 52.692C47.7548 58.0686 40.5352 61.1259 32.9808 61.1957H32.7723C17.5261 61.1957 4.5491 48.2917 4.4318 32.9191C4.40964 29.2139 5.12319 25.541 6.53108 22.1136C7.93897 18.6862 10.0132 15.5723 12.6335 12.9524L12.6439 12.9394C15.2804 10.2373 18.4271 8.08567 21.9016 6.60928C25.3761 5.13289 29.1092 4.36117 32.8843 4.33887V4.33887Z" fill="white"/>
<path d="M8.56458 41.9395V23.6358H13.0167V25.2754H10.6551V40.3325H13.018V41.972L8.56458 41.9395V41.9395ZM23.6777 32.6078C23.6777 35.9442 21.6524 37.8471 18.905 37.8471C16.159 37.8471 14.3304 35.707 14.3304 32.7798C14.3304 29.7209 16.2489 27.564 19.0523 27.564C21.857 27.564 23.679 29.8109 23.679 32.6078H23.6777ZM16.2489 32.755C16.2489 34.7804 17.2655 36.3874 19.0119 36.3874C20.7583 36.3874 21.7593 34.7478 21.7593 32.6808C21.7593 30.804 20.8326 29.0315 19.0119 29.0315C17.1912 29.0315 16.2319 30.7466 16.2319 32.7967L16.2489 32.755V32.755ZM25.2196 27.908C26.0928 27.7582 26.9751 27.6839 27.8601 27.6865C28.8544 27.5895 29.8539 27.8108 30.7143 28.3186C31.0368 28.5085 31.3027 28.7812 31.4844 29.1084C31.6662 29.4357 31.7571 29.8055 31.7478 30.1797C31.7361 30.6662 31.5712 31.1365 31.2766 31.5238C30.982 31.9111 30.5727 32.1956 30.107 32.3367C30.6745 32.4519 31.1846 32.7599 31.5509 33.2084C31.9172 33.6569 32.1171 34.2183 32.1167 34.7973C32.1231 35.1895 32.04 35.5779 31.8738 35.9332C31.7076 36.2884 31.4626 36.6011 31.1574 36.8474C30.4523 37.4704 29.2794 37.7728 27.4665 37.7728C26.721 37.778 25.9768 37.7337 25.2365 37.6424L25.2196 27.908V27.908ZM27.0233 31.8362H27.95C29.2051 31.8362 29.9102 31.2458 29.9102 30.4026C29.9102 29.5567 29.2064 29.0406 28.049 29.0406C27.7024 29.0276 27.357 29.0536 27.0155 29.1136L27.0233 31.8375V31.8362ZM27.0233 36.4121C27.3426 36.4447 27.662 36.459 27.9839 36.4538C29.1477 36.4538 30.1813 36.0107 30.1813 34.813C30.1813 33.6165 29.1803 33.1734 27.9265 33.1734H27.0233V36.4121V36.4121ZM35.6995 27.7777H37.5111V34.2473C37.5111 36.9947 36.183 37.9135 34.2319 37.9135C33.7098 37.909 33.1918 37.8201 32.6979 37.6503L32.9195 36.1906C33.2844 36.3053 33.6624 36.3652 34.043 36.3717C35.0765 36.3717 35.6825 35.896 35.6825 34.1743L35.6995 27.7777V27.7777ZM42.6696 33.1643V34.4194H38.8978V33.1643H42.6696ZM51.4773 37.43C50.6618 37.7553 49.7872 37.9063 48.9098 37.8731C45.7532 37.8731 43.8347 35.896 43.8347 32.871C43.7972 32.1659 43.9094 31.4609 44.164 30.8023C44.4185 30.1436 44.8096 29.5463 45.3116 29.0497C45.8135 28.5531 46.4149 28.1683 47.0762 27.9208C47.7374 27.6733 48.4436 27.5685 49.1483 27.6135C49.9911 27.5787 50.8312 27.73 51.609 28.0566L51.2075 29.4994C50.5905 29.2371 49.9256 29.1062 49.2552 29.1149C47.2298 29.1149 45.7701 30.3856 45.7701 32.7798C45.7701 34.9615 47.0578 36.3717 49.2382 36.3717C49.9153 36.3817 50.5875 36.2563 51.2154 36.0029L51.4773 37.43V37.43ZM57.1689 23.5863V41.9395H52.7155V40.2999H55.0771V25.2271H52.7155V23.585H57.1676L57.1689 23.5863Z" fill="white"/>
</svg>
