<svg width="98" height="98" viewBox="0 0 98 98" fill="none" xmlns="http://www.w3.org/2000/svg">
<path d="M2.97363 48.7053C2.97363 23.2861 23.58 2.67969 48.9993 2.67969C74.4185 2.67969 95.0249 23.2861 95.0249 48.7053C95.0249 74.1246 74.4185 94.731 48.9993 94.731C35.2527 94.731 22.9136 88.7039 14.48 79.1492" stroke="#6BB64A" stroke-width="4.60256"/>
<path d="M70.1189 53.5611L75.4637 53.1589V44.1361L70.1189 43.7339C69.5443 41.3776 68.6248 39.1938 67.3605 37.1823L70.8661 33.1019L64.4295 26.7229L60.3492 30.2286C58.3378 28.9641 56.0964 28.0446 53.7977 27.5274L53.3953 22.2402H44.3727L43.9704 27.585C41.6141 28.1596 39.4302 29.0791 37.4188 30.3434L33.3959 26.8379L27.0743 33.2169L30.5799 37.2973C29.3156 39.3087 28.3961 41.5501 27.8789 43.8488L22.5342 44.2511V53.2738L27.8789 53.6761C28.4535 56.0324 29.373 58.2162 30.6373 60.2276L27.1318 64.2505L33.5108 70.6296L37.5912 67.124C39.6027 68.3883 41.844 69.3078 44.1428 69.8251L44.545 75.1697H53.5678L53.97 69.8251C56.3263 69.2504 58.5101 68.3309 60.5216 67.0666L64.602 70.5721L70.981 64.1931L67.4753 60.1127C68.6822 58.1588 69.6017 55.9174 70.1189 53.5611Z" stroke="#6BB64A" stroke-width="2.30128" stroke-miterlimit="10"/>
<path d="M58.5906 52.6429C56.4367 57.8928 50.3119 60.4505 45.0619 58.2967C39.8119 56.1428 37.2543 50.0179 39.4081 44.7679C41.5619 39.518 47.6868 36.9603 52.9368 39.1141C58.1868 41.268 60.7444 47.3929 58.5906 52.6429Z" stroke="#6BB64A" stroke-width="4.60256" stroke-miterlimit="10"/>
<path d="M9.87793 90.128L13.4842 76.3203L28.2882 78.6004" stroke="#6BB64A" stroke-width="4.60256" stroke-miterlimit="10"/>
</svg>
