<svg width="158" height="157" viewBox="0 0 158 157" fill="none" xmlns="http://www.w3.org/2000/svg">
<g clip-path="url(#clip0_2790_3277)">
<g clip-path="url(#clip1_2790_3277)">
<mask id="mask0_2790_3277" style="mask-type:luminance" maskUnits="userSpaceOnUse" x="0" y="0" width="158" height="157">
<path d="M157.256 0H0.768555V156.487H157.256V0Z" fill="white"/>
</mask>
<g mask="url(#mask0_2790_3277)">
<g opacity="0.4" filter="url(#filter0_f_2790_3277)">
<path d="M127.465 142.668C122.885 143.441 118.349 143.83 113.868 143.83C100.755 143.83 87.168 140.497 73.3786 133.969C62.3607 128.76 51.2075 121.468 40.2571 112.301C23.2908 98.1344 12.0025 83.7591 9.97461 81.1201C12.0025 78.4811 23.2232 64.1752 40.2571 49.9388C51.2075 40.7718 62.3607 33.48 73.4462 28.2715C87.1679 21.7436 100.822 18.4102 113.935 18.4102C118.395 18.4102 122.908 18.7955 127.465 19.5609" stroke="#6BB64A" stroke-width="6.90385"/>
<path d="M126.379 39.5552C123.049 38.6789 119.558 38.2129 115.961 38.2129C92.8706 38.2129 74.1602 57.4182 74.1602 81.1197C74.1602 104.821 92.8706 124.027 115.961 124.027C119.558 124.027 123.049 123.561 126.379 122.684" stroke="#6BB64A" stroke-width="6.90385"/>
<path d="M129.641 58.5372C126.994 57.4893 124.124 56.916 121.128 56.916C107.805 56.916 97.0049 68.245 97.0049 82.22C97.0049 96.195 107.805 107.524 121.128 107.524C124.124 107.524 126.994 106.951 129.641 105.903" stroke="#6BB64A" stroke-width="6.90385"/>
</g>
<mask id="mask1_2790_3277" style="mask-type:luminance" maskUnits="userSpaceOnUse" x="7" y="29" width="91" height="98">
<path d="M97.4238 29.918H7.67383V126.572H97.4238V29.918Z" fill="white"/>
</mask>
<g mask="url(#mask1_2790_3277)">
<path d="M98.5744 123.417C95.21 123.985 91.8782 124.27 88.5869 124.27C78.955 124.27 68.9756 121.824 58.8472 117.033C50.7544 113.21 42.5623 107.858 34.5192 101.13C22.0573 90.732 13.7659 80.1813 12.2764 78.2444C13.7659 76.3075 22.0076 65.8078 34.5192 55.3589C42.5623 48.631 50.7544 43.2792 58.8968 39.4564C68.9756 34.6652 79.0047 32.2188 88.6366 32.2188C91.9115 32.2188 95.2269 32.5016 98.5744 33.0633" stroke="#6BB64A" stroke-width="4.60256"/>
<path d="M98.1396 42.434C94.7411 41.764 91.379 41.4238 88.067 41.4238C80.1026 41.4238 71.8486 43.3907 63.4498 47.1808C56.7887 50.2512 49.9828 54.5689 43.3216 59.942C33.137 68.1936 26.2827 76.5893 24.9795 78.2204C26.2827 79.8514 33.0886 88.2471 43.3216 96.4987C49.9828 101.872 56.7887 106.189 63.4981 109.308C71.8486 113.098 80.1026 115.065 88.067 115.065C91.5207 115.065 95.0479 114.69 98.6205 113.95" stroke="#6BB64A" stroke-width="2.30128"/>
<path d="M100.876 43.6901C98.0874 42.9616 95.1647 42.5742 92.1531 42.5742C72.8184 42.5742 57.1514 58.5403 57.1514 78.2441C57.1514 97.9479 72.8184 113.914 92.1531 113.914C95.1647 113.914 98.0874 113.527 100.876 112.798" stroke="#6BB64A" stroke-width="2.30128"/>
<path d="M98.5748 64.2803C96.8947 63.6371 95.0738 63.2852 93.1718 63.2852C84.7172 63.2852 77.8633 70.2399 77.8633 78.8188C77.8633 87.3978 84.7172 94.3525 93.1718 94.3525C95.0738 94.3525 96.8947 94.0005 98.5748 93.3573" stroke="#6BB64A" stroke-width="4.60256"/>
</g>
</g>
</g>
</g>
<defs>
<filter id="filter0_f_2790_3277" x="-3.58403" y="5.75386" width="143.7" height="150.733" filterUnits="userSpaceOnUse" color-interpolation-filters="sRGB">
<feFlood flood-opacity="0" result="BackgroundImageFix"/>
<feBlend mode="normal" in="SourceGraphic" in2="BackgroundImageFix" result="shape"/>
<feGaussianBlur stdDeviation="4.60256" result="effect1_foregroundBlur_2790_3277"/>
</filter>
<clipPath id="clip0_2790_3277">
<rect width="156.487" height="156.487" fill="white" transform="translate(0.769531)"/>
</clipPath>
<clipPath id="clip1_2790_3277">
<rect width="156.487" height="156.487" fill="white" transform="translate(0.769531)"/>
</clipPath>
</defs>
</svg>
