<svg width="157" height="157" viewBox="0 0 157 157" fill="none" xmlns="http://www.w3.org/2000/svg">
<g clip-path="url(#clip0_2790_3253)">
<g clip-path="url(#clip1_2790_3253)">
<mask id="mask0_2790_3253" style="mask-type:luminance" maskUnits="userSpaceOnUse" x="0" y="0" width="157" height="157">
<path d="M156.589 0.00195312H0.101562V156.489H156.589V0.00195312Z" fill="white"/>
</mask>
<g mask="url(#mask0_2790_3253)">
<g opacity="0.4" filter="url(#filter0_f_2790_3253)">
<path d="M108.555 112.84L117.269 112.184V97.4733L108.555 96.8174C107.618 92.9757 106.118 89.4151 104.057 86.1355L109.773 79.4828L99.2783 69.0821L92.6255 74.7978C89.3461 72.7364 85.6917 71.2371 81.9438 70.3939L81.2878 61.7734H66.5768L65.921 70.4876C62.0792 71.4246 58.5187 72.9237 55.2391 74.9852L48.6801 69.2695L38.373 79.6702L44.0887 86.3229C42.0273 89.6025 40.5282 93.2568 39.6848 97.0048L30.9707 97.6607V112.372L39.6848 113.028C40.6218 116.869 42.121 120.43 44.1825 123.709L38.4667 130.268L48.8674 140.669L55.5202 134.954C58.7998 137.014 62.454 138.514 66.2021 139.357L66.8579 148.072H81.5689L82.2249 139.357C86.0665 138.42 89.6272 136.921 92.9066 134.86L99.5594 140.576L109.96 130.175L104.244 123.522C106.212 120.336 107.711 116.681 108.555 112.84Z" stroke="#6BB64A" stroke-width="6.90385" stroke-miterlimit="10"/>
<path d="M87.0909 109.604C84.0995 116.896 75.5926 120.448 68.3011 117.456C61.0095 114.465 57.4572 105.958 60.4485 98.6663C63.44 91.3747 71.9469 87.8224 79.2384 90.8138C86.53 93.8052 90.0824 102.312 87.0909 109.604Z" stroke="#6BB64A" stroke-width="4.60256" stroke-miterlimit="10"/>
<path d="M138.78 55.8092L123.246 40.2754L107.713 55.8089" stroke="#6BB64A" stroke-width="4.60256" stroke-miterlimit="10"/>
<path d="M122.957 41.1211V68.22" stroke="#6BB64A" stroke-width="4.60256"/>
<path d="M39.8251 55.8092L24.2913 40.2754L8.75781 55.8089" stroke="#6BB64A" stroke-width="4.60256" stroke-miterlimit="10"/>
<path d="M24.002 41.1211V68.2201" stroke="#6BB64A" stroke-width="4.60256"/>
<path d="M64.3035 50.8835L64.13 32.1488C64.13 32.1488 53.3662 32.0721 50.207 32.0495L73.193 8.59375L95.6887 32.374C94.2035 32.3633 85.7878 32.3033 81.7658 32.2747L81.9392 51.0093" stroke="#6BB64A" stroke-width="6.90385" stroke-miterlimit="10"/>
</g>
<path d="M80.128 98.9048L86.4022 98.4325V87.8407L80.128 87.3683C79.4534 84.6023 78.3739 82.0387 76.8897 79.6774L81.005 74.8874L73.4491 67.3989L68.6591 71.5142C66.2979 70.03 63.6667 68.9506 60.9682 68.3434L60.4959 62.1367H49.904L49.4318 68.4109C46.6657 69.0856 44.1021 70.165 41.7409 71.6492L37.0183 67.5339L29.5972 75.0224L33.7126 79.8124C32.2284 82.1736 31.149 84.8047 30.5418 87.5033L24.2676 87.9755V98.5674L30.5418 99.0397C31.2164 101.806 32.2958 104.369 33.78 106.731L29.6648 111.453L37.1533 118.942L41.9433 114.826C44.3045 116.31 46.9356 117.391 49.6342 117.997L50.1064 124.271H60.6983L61.1706 117.997C63.9366 117.323 66.5002 116.243 68.8615 114.759L73.6515 118.874L81.14 111.386L77.0247 106.596C78.4414 104.302 79.5208 101.671 80.128 98.9048Z" stroke="#6BB64A" stroke-width="4.60256" stroke-miterlimit="10"/>
<path d="M64.9256 97.1409C62.7717 102.391 56.6468 104.949 51.3968 102.795C46.1469 100.641 43.5893 94.516 45.743 89.266C47.8969 84.016 54.0218 81.4584 59.2718 83.6122C64.5217 85.766 67.0794 91.8909 64.9256 97.1409Z" stroke="#6BB64A" stroke-width="2.30128" stroke-miterlimit="10"/>
<path d="M102.51 62.1374L92.1546 51.7812L81.7988 62.137" stroke="#6BB64A" stroke-width="2.30128" stroke-miterlimit="10"/>
<path d="M92.1543 52.9316V71.3419" stroke="#6BB64A" stroke-width="2.30128"/>
<path d="M28.8697 62.1374L18.514 51.7812L8.1582 62.1371" stroke="#6BB64A" stroke-width="2.30128" stroke-miterlimit="10"/>
<path d="M18.5137 52.9316V71.3419" stroke="#6BB64A" stroke-width="2.30128"/>
<path d="M48.4303 56.382V47.1766H39.2383L54.772 32.2188L70.2925 47.1766L61.0873 47.1765V56.3816" stroke="#6BB64A" stroke-width="4.60256" stroke-miterlimit="10"/>
</g>
</g>
</g>
<defs>
<filter id="filter0_f_2790_3253" x="-2.07427" y="-5.58794" width="151.686" height="166.317" filterUnits="userSpaceOnUse" color-interpolation-filters="sRGB">
<feFlood flood-opacity="0" result="BackgroundImageFix"/>
<feBlend mode="normal" in="SourceGraphic" in2="BackgroundImageFix" result="shape"/>
<feGaussianBlur stdDeviation="4.60256" result="effect1_foregroundBlur_2790_3253"/>
</filter>
<clipPath id="clip0_2790_3253">
<rect width="156.487" height="156.487" fill="white" transform="translate(0.103516)"/>
</clipPath>
<clipPath id="clip1_2790_3253">
<rect width="156.487" height="156.487" fill="white" transform="translate(0.103516)"/>
</clipPath>
</defs>
</svg>
