<svg width="61" height="61" viewBox="0 0 61 61" fill="none" xmlns="http://www.w3.org/2000/svg">
<circle cx="30.3411" cy="30.0531" r="30.0532" fill="#E4E4E4"/>
<path d="M35.078 23.9823L36.224 24.0023L39.3375 20.8888L39.4878 19.5694C37.0134 17.3685 33.7576 16.0292 30.1943 16.0292C23.7429 16.0292 18.2972 20.419 16.6844 26.3655C17.025 26.1281 17.7513 26.3054 17.7513 26.3054L23.9743 25.2816C23.9743 25.2816 24.2949 24.7506 24.4552 24.7837C25.7909 23.3224 27.634 22.4258 29.6082 22.2769C31.5824 22.1279 33.5391 22.7379 35.079 23.9823H35.078Z" fill="#EA4335"/>
<path d="M43.7247 26.3765C43.0093 23.7446 41.5415 21.3785 39.5012 19.5685L35.0914 23.9783C35.9964 24.7057 36.7267 25.6267 37.2286 26.6737C37.7306 27.7207 37.9912 28.8669 37.9915 30.028V30.8064C40.1373 30.8064 41.8784 32.5525 41.8784 34.6933C41.8784 36.8341 40.1323 38.5802 37.9915 38.5802H30.2157L29.4374 39.3615V44.0278L30.2157 44.8022H37.9915C40.6695 44.795 43.2356 43.7276 45.1285 41.8333C47.0215 39.9391 48.0871 37.3722 48.0924 34.6943C48.0884 31.2522 46.3533 28.2028 43.7147 26.3765H43.7247Z" fill="#4285F4"/>
<path d="M22.4192 44.8093H30.1929V38.5863H22.4192C21.8671 38.5865 21.3215 38.468 20.8193 38.2386L19.6973 38.5823L16.5838 41.6958L16.3113 42.7476C18.0631 44.0927 20.2116 44.8185 22.4202 44.8113L22.4192 44.8093Z" fill="#34A853"/>
<path d="M22.4202 24.5862C19.7397 24.5904 17.1701 25.6571 15.2747 27.5526C13.3792 29.448 12.3125 32.0175 12.3083 34.6981C12.3083 36.259 12.6701 37.7986 13.3654 39.1961C14.0606 40.5936 15.0704 41.8109 16.3154 42.7524L20.8234 38.2444C20.1405 37.9371 19.561 37.4392 19.1543 36.8105C18.7477 36.1817 18.5314 35.4489 18.5313 34.7001C18.5313 32.5543 20.2774 30.8132 22.4182 30.8132C23.1667 30.8145 23.899 31.0314 24.5275 31.4378C25.1561 31.8443 25.6542 32.4232 25.9625 33.1053L30.4705 28.5973C28.6212 26.163 25.702 24.5902 22.4162 24.5902L22.4202 24.5862Z" fill="#FBBC05"/>
</svg>
