<svg width="61" height="61" viewBox="0 0 61 61" fill="none" xmlns="http://www.w3.org/2000/svg">
<circle cx="30.3412" cy="30.6225" r="30.0532" fill="#E4E4E4"/>
<path d="M14.3813 27.7471C11.6237 27.7471 9.30164 25.4716 9.30164 22.6735C9.30164 19.8755 11.6237 17.6 14.3813 17.6C15.9078 17.6 16.9936 18.2042 17.816 18.999L16.8485 19.9789C16.2626 19.4236 15.4671 18.9881 14.3813 18.9881C12.3655 18.9881 10.7906 20.6321 10.7906 22.6735C10.7906 24.7149 12.3655 26.3589 14.3813 26.3589C15.6874 26.3589 16.4346 25.8255 16.913 25.3464C17.3054 24.949 17.558 24.3829 17.6602 23.6044H14.3813V22.2163H18.9878C19.0362 22.4612 19.0631 22.7606 19.0631 23.0818C19.0631 24.1216 18.7836 25.4063 17.8805 26.3208C16.999 27.2517 15.8756 27.7471 14.3813 27.7471V27.7471Z" fill="#4285F4"/>
<path d="M26.1855 24.481C26.1855 26.359 24.7556 27.7472 23.0087 27.7472C21.2617 27.7472 19.8319 26.359 19.8319 24.481C19.8319 22.5865 21.2617 21.2147 23.0087 21.2147C24.7556 21.2147 26.1855 22.5865 26.1855 24.481ZM24.7933 24.481C24.7933 23.3051 23.9655 22.4994 23.0087 22.4994C22.0519 22.4994 21.2241 23.3051 21.2241 24.481C21.2241 25.6459 22.0519 26.4625 23.0087 26.4625C23.9655 26.4625 24.7933 25.6405 24.7933 24.481Z" fill="#EA4335"/>
<path d="M33.3122 24.4812C33.3122 26.3593 31.8824 27.7474 30.1355 27.7474C28.3831 27.7474 26.9587 26.3593 26.9587 24.4812C26.9587 22.5868 28.3885 21.215 30.1355 21.215C31.8824 21.215 33.3122 22.5868 33.3122 24.4812ZM31.92 24.4812C31.92 23.3054 31.0923 22.4997 30.1301 22.4997C29.1733 22.4997 28.3455 23.3054 28.3455 24.4812C28.3455 25.6462 29.1733 26.4627 30.1301 26.4627C31.0923 26.4573 31.92 25.6407 31.92 24.4812Z" fill="#FBBC04"/>
<path d="M40.2575 21.4109V27.2738C40.2575 29.6854 38.8546 30.6762 37.1936 30.6762C35.6294 30.6762 34.6887 29.6146 34.334 28.7436L35.5703 28.2265C35.7907 28.76 36.3282 29.3915 37.1936 29.3915C38.2579 29.3915 38.9191 28.7219 38.9191 27.4753V27.0071H38.8653C38.5482 27.4045 37.9354 27.7474 37.1667 27.7474C35.5542 27.7474 34.076 26.3266 34.076 24.4921C34.076 22.6467 35.5542 21.215 37.1667 21.215C37.9354 21.215 38.5482 21.5634 38.8653 21.9444H38.9137V21.4109H40.2575ZM39.0158 24.4921C39.0158 23.3435 38.2579 22.4997 37.2957 22.4997C36.3174 22.4997 35.5004 23.3435 35.5004 24.4921C35.5004 25.6298 36.3174 26.4573 37.2957 26.4573C38.2579 26.4573 39.0158 25.6298 39.0158 24.4921Z" fill="#4285F4"/>
<path d="M42.7412 17.9481V27.5509H41.3221V17.9481H42.7412Z" fill="#34A853"/>
<path d="M48.3151 25.5534L49.417 26.2938C49.0622 26.8273 48.2076 27.7418 46.7294 27.7418C44.8964 27.7418 43.5741 26.3047 43.5741 24.4756C43.5741 22.5322 44.9072 21.2094 46.5735 21.2094C48.2452 21.2094 49.0676 22.5594 49.3364 23.2889L49.4815 23.659L45.1706 25.4663C45.4984 26.1196 46.0145 26.4571 46.7347 26.4571C47.455 26.4571 47.9496 26.0978 48.3151 25.5534ZM44.9287 24.383L47.8098 23.1691C47.6485 22.7608 47.1755 22.4777 46.6111 22.4777C45.8962 22.4777 44.8964 23.1201 44.9287 24.383Z" fill="#EA4335"/>
<path d="M12.6558 35.1902H13.8437L17.2086 44.156H16.0583L15.166 41.69H11.3442L10.4519 44.156H9.30164L12.6558 35.1902ZM14.8059 40.6884L13.6341 37.4602L13.2739 36.4967H13.2256L12.8816 37.4602L11.7098 40.6884H14.8059V40.6884ZM17.9934 35.1902H20.9874C21.4712 35.1902 21.9281 35.3045 22.3474 35.5277C22.7667 35.7509 23.1053 36.0666 23.3526 36.4749C23.5998 36.8832 23.7288 37.335 23.7288 37.8467C23.7288 38.2659 23.6374 38.6524 23.4493 39.0117C23.2612 39.371 23.0085 39.6704 22.6806 39.9154C22.3528 40.1603 21.9926 40.3182 21.6002 40.4053L21.5733 40.4434L24.0728 44.1125V44.1615H22.8365L20.423 40.5033H19.0255V44.1615H17.988V35.1902H17.9934ZM20.9229 39.5125C21.2293 39.5125 21.5142 39.4418 21.783 39.3002C22.0517 39.1587 22.2668 38.9627 22.428 38.7069C22.5893 38.451 22.6699 38.1679 22.6699 37.8467C22.6699 37.5691 22.6 37.3078 22.4603 37.0574C22.3205 36.807 22.127 36.6001 21.8744 36.4423C21.6217 36.2844 21.3315 36.2027 21.0036 36.2027H19.0362V39.5071H20.9229V39.5125ZM32.8775 42.6427L33.716 43.7586L32.9259 44.3574L32.297 43.5082C31.7218 44.0744 31.0338 44.3574 30.2329 44.3574C29.647 44.3574 29.1095 44.2214 28.6203 43.9437C28.1312 43.6661 27.7441 43.2905 27.4592 42.8114C27.1744 42.3324 27.0346 41.7989 27.0346 41.2164C27.0346 40.6884 27.1744 40.193 27.4539 39.7194C27.7334 39.2458 28.115 38.8593 28.5934 38.5599L28.5827 38.549C28.3677 38.2659 28.2064 38.0046 28.0989 37.7651C27.9914 37.5256 27.9376 37.2806 27.9376 37.0302C27.9376 36.6655 28.0344 36.3225 28.2225 36.0068C28.4107 35.6965 28.6687 35.4461 28.9912 35.261C29.3121 35.0761 29.6755 34.9803 30.0447 34.9833C30.5393 34.9833 30.9532 35.1249 31.2918 35.4134C31.6304 35.7019 31.867 36.0612 32.0067 36.4967L31.1037 36.9866C30.9962 36.7036 30.8618 36.4695 30.7005 36.279C30.5393 36.0884 30.3189 35.9959 30.0394 35.9959C29.733 35.9959 29.4803 36.0884 29.2868 36.279C29.088 36.464 28.9912 36.7145 28.9912 37.0247C28.9912 37.335 29.0933 37.6236 29.303 37.8903L32.2809 41.837L33.0979 40.4216L33.9257 40.9225L32.8775 42.6427V42.6427ZM31.7165 42.7298L29.1686 39.3383C28.8138 39.5289 28.5289 39.7956 28.3139 40.1331C28.0989 40.4706 27.9914 40.8299 27.9914 41.2055C27.9914 41.6247 28.0882 42.0003 28.287 42.3324C28.4859 42.6644 28.7547 42.9257 29.0987 43.1163C29.4427 43.3068 29.819 43.3994 30.2275 43.3994C30.8349 43.3939 31.3294 43.1707 31.7165 42.7298ZM36.6832 35.1902H37.8442L40.032 41.69L40.3276 42.5774H40.376L40.6824 41.69L42.9669 35.1902H44.1279L40.8866 44.156H39.8008L36.6832 35.1902V35.1902ZM44.9127 35.1902H47.9067C48.3959 35.1902 48.8474 35.3045 49.2667 35.5277C49.6859 35.7509 50.0246 36.0666 50.2772 36.4749C50.5299 36.8778 50.6535 37.335 50.6535 37.8467C50.6535 38.2659 50.5621 38.6524 50.374 39.0117C50.1858 39.371 49.9332 39.6704 49.6053 39.9154C49.2774 40.1549 48.9173 40.3182 48.5249 40.4053L48.498 40.4434L50.9975 44.1125V44.1615H49.7612L47.3531 40.5033H45.9555V44.1615H44.9181V35.1902H44.9127ZM47.8476 39.5125C48.154 39.5125 48.4389 39.4418 48.7076 39.3002C48.9764 39.1587 49.1914 38.9627 49.3527 38.7069C49.5139 38.451 49.5946 38.1679 49.5946 37.8467C49.5946 37.5691 49.5247 37.3078 49.3849 37.0574C49.2452 36.807 49.0517 36.6001 48.799 36.4423C48.5464 36.2844 48.2561 36.2027 47.9282 36.2027H45.9609V39.5071H47.8476V39.5125Z" fill="black"/>
</svg>
