<svg width="61" height="61" viewBox="0 0 61 61" fill="none" xmlns="http://www.w3.org/2000/svg">
<circle cx="30.3411" cy="30.7733" r="30.0532" fill="#E4E4E4"/>
<path d="M14.3133 44.2592L14.5723 43.8965L26.8206 20.6558L26.8464 20.4098L21.4473 10.2679C20.9947 9.41833 19.7211 9.63303 19.5728 10.5841L14.3133 44.2592Z" fill="#FFC24A"/>
<path d="M14.4656 43.9825L14.6614 43.6007L26.7802 20.6035L21.3958 10.4203C20.9481 9.57959 19.8115 9.79392 19.6635 10.7351L14.4656 43.9825Z" fill="#FFA712"/>
<path d="M14.4668 43.9834L14.6626 43.6015L26.7813 20.6043L21.3969 10.4212C20.9492 9.58044 19.8126 9.79478 19.6646 10.7359L14.4668 43.9834Z" fill="black"/>
<path d="M30.7814 28.0852L34.8016 23.968L30.7803 16.2912C30.3985 15.5645 29.3326 15.5624 28.9549 16.2912L26.8063 20.39V20.7389L30.7814 28.0852Z" fill="#F4BD62"/>
<path d="M30.7109 27.9136L34.6192 23.9109L30.7109 16.4686C30.3398 15.7611 29.4382 15.6881 29.071 16.3954L26.9112 20.5553L26.8465 20.768L30.7109 27.9136Z" fill="#FFA50E"/>
<path d="M30.7099 27.9136L34.6182 23.9109L30.7099 16.4686C30.3388 15.7611 29.4372 15.6881 29.07 16.3954L26.9102 20.5553L26.8455 20.768L30.7099 27.9136Z" fill="black"/>
<path d="M26.819 20.3657L14.3134 44.2627L14.4307 44.1447L14.8572 43.9714L30.5303 28.3567L30.7286 27.8163L26.819 20.3657Z" fill="#F6820C"/>
<path d="M31.2847 52.1375L45.4691 44.2267L41.4196 19.2795C41.2927 18.499 40.3353 18.1904 39.7768 18.75L14.3134 44.2628L28.4164 52.137C28.8548 52.3817 29.3485 52.5102 29.8505 52.5103C30.3526 52.5105 30.8463 52.3822 31.2848 52.1376" fill="#FDE068"/>
<path d="M45.3426 44.1609L41.3227 19.4039C41.1971 18.6293 40.4005 18.3088 39.8462 18.8643L14.4725 44.2145L28.4206 52.0097C29.305 52.5035 30.3822 52.5038 31.2671 52.0104L45.3426 44.1609Z" fill="#FCCA3F"/>
<path d="M31.2847 51.9046C30.3941 52.4018 29.3076 52.4016 28.4163 51.9039L14.4268 44.143L14.3134 44.2629L28.4164 52.1371C29.3077 52.6348 30.3932 52.6348 31.2848 52.1377L45.4692 44.2269L45.4344 44.0132L31.2847 51.9046Z" fill="#EEAB37"/>
</svg>
