<svg width="61" height="61" viewBox="0 0 61 61" fill="none" xmlns="http://www.w3.org/2000/svg">
<circle cx="30.3411" cy="30.0531" r="30.0532" fill="#E4E4E4"/>
<g clip-path="url(#clip0_1_4079)">
<path d="M30.3378 33.6967L47.3708 16.7388V15.7645C47.3708 14.2504 46.1432 13.0228 44.629 13.0228H16.0523C14.5381 13.0228 13.3105 14.2504 13.3105 15.7646V35.7623L22.7658 26.3616L30.3378 33.6966" fill="#FF9C0B"/>
<path d="M22.7685 34.022L13.3103 43.4601V44.3414C13.3103 45.8557 14.538 47.0834 16.0522 47.0834H44.6288C46.1431 47.0834 47.3707 45.8557 47.3707 44.3415V24.5446L30.3377 41.5024L22.7685 34.022Z" fill="#FB5722"/>
<g filter="url(#filter0_d_1_4079)">
<path d="M13.3103 35.7624L22.7657 26.3618L30.3377 33.6967L47.3707 16.7392L47.3679 24.5467L30.3377 41.5024L22.7685 34.0219L13.3103 43.4601V35.7624Z" fill="#F2F2F2"/>
</g>
<path d="M26.5545 37.7659L26.5551 30.0336L22.7674 34.0221L26.5545 37.7659" fill="#FF9B07"/>
</g>
<defs>
<filter id="filter0_d_1_4079" x="-148.024" y="-1.1869" width="356.73" height="349.391" filterUnits="userSpaceOnUse" color-interpolation-filters="sRGB">
<feFlood flood-opacity="0" result="BackgroundImageFix"/>
<feColorMatrix in="SourceAlpha" type="matrix" values="0 0 0 0 0 0 0 0 0 0 0 0 0 0 0 0 0 0 127 0" result="hardAlpha"/>
<feOffset dy="143.409"/>
<feGaussianBlur stdDeviation="80.6674"/>
<feColorMatrix type="matrix" values="0 0 0 0 0 0 0 0 0 0 0 0 0 0 0 0 0 0 0.214965 0"/>
<feBlend mode="normal" in2="BackgroundImageFix" result="effect1_dropShadow_1_4079"/>
<feBlend mode="normal" in="SourceGraphic" in2="effect1_dropShadow_1_4079" result="shape"/>
</filter>
<clipPath id="clip0_1_4079">
<rect width="34.0603" height="34.0603" fill="white" transform="translate(13.3104 13.0228)"/>
</clipPath>
</defs>
</svg>
