<svg width="30" height="31" viewBox="0 0 30 31" fill="none" xmlns="http://www.w3.org/2000/svg">
<path d="M26.276 7.053C26.8327 6.619 27.2399 6.02191 27.4407 5.34517C27.6415 4.66843 27.6259 3.94587 27.3959 3.27847C27.166 2.61107 26.7333 2.03219 26.1582 1.62274C25.5832 1.21329 24.8946 0.993736 24.1888 0.994755C23.4829 0.995773 22.7949 1.21732 22.2211 1.62843C21.6473 2.03954 21.2162 2.61966 20.9882 3.28772C20.7602 3.95578 20.7466 4.67838 20.9493 5.35454C21.1521 6.0307 21.561 6.62661 22.119 7.059C21.8281 7.15104 21.5457 7.26814 21.275 7.409C19.4548 6.07478 17.2568 5.35545 15 5.35545C12.7432 5.35545 10.5452 6.07478 8.725 7.409C8.45436 7.26806 8.17196 7.15095 7.881 7.059C8.43897 6.62661 8.84791 6.0307 9.05065 5.35454C9.2534 4.67838 9.23981 3.95578 9.0118 3.28772C8.78379 2.61966 8.35275 2.03954 7.77892 1.62843C7.20509 1.21732 6.51715 0.995773 5.81125 0.994755C5.10535 0.993736 4.41677 1.21329 3.84176 1.62274C3.26674 2.03219 2.83403 2.61107 2.60409 3.27847C2.37415 3.94587 2.35848 4.66843 2.55927 5.34517C2.76006 6.02191 3.16728 6.619 3.724 7.053C2.64481 7.39418 1.70221 8.06999 1.0327 8.98258C0.36318 9.89516 0.00149116 10.9972 0 12.129V16.968C0.000793871 17.6093 0.255907 18.2241 0.709386 18.6776C1.16286 19.1311 1.77768 19.3862 2.419 19.387V29.064C2.41709 29.4581 2.53607 29.8434 2.75991 30.1678C2.98375 30.4922 3.30168 30.7401 3.67082 30.8782C4.03997 31.0163 4.44258 31.0379 4.82438 30.94C5.20617 30.8422 5.54877 30.6296 5.806 30.331C6.06323 30.6296 6.40583 30.8422 6.78762 30.94C7.16942 31.0379 7.57203 31.0163 7.94118 30.8782C8.31032 30.7401 8.62825 30.4922 8.85209 30.1678C9.07593 29.8434 9.19491 29.4581 9.193 29.064V24.915C10.9192 26.0437 12.937 26.6449 14.9995 26.6449C17.062 26.6449 19.0798 26.0437 20.806 24.915V29.064C20.8041 29.4581 20.9231 29.8434 21.1469 30.1678C21.3707 30.4922 21.6887 30.7401 22.0578 30.8782C22.427 31.0163 22.8296 31.0379 23.2114 30.94C23.5932 30.8422 23.9358 30.6296 24.193 30.331C24.4502 30.6296 24.7928 30.8422 25.1746 30.94C25.5564 31.0379 25.959 31.0163 26.3282 30.8782C26.6973 30.7401 27.0153 30.4922 27.2391 30.1678C27.4629 29.8434 27.5819 29.4581 27.58 29.064V19.387C28.2215 19.3865 28.8366 19.1315 29.2903 18.678C29.744 18.2245 29.9992 17.6095 30 16.968V12.129C29.9985 10.9972 29.6368 9.89516 28.9673 8.98258C28.2978 8.06999 27.3552 7.39418 26.276 7.053ZM21.776 4.387C21.776 3.90856 21.9179 3.44087 22.1837 3.04307C22.4495 2.64527 22.8273 2.33522 23.2693 2.15213C23.7113 1.96904 24.1977 1.92114 24.6669 2.01448C25.1362 2.10781 25.5672 2.3382 25.9055 2.6765C26.2438 3.01481 26.4742 3.44583 26.5675 3.91507C26.6609 4.38431 26.613 4.87069 26.4299 5.31271C26.2468 5.75472 25.9367 6.13252 25.5389 6.39832C25.1411 6.66412 24.6734 6.806 24.195 6.806C23.5533 6.80573 22.938 6.55085 22.4841 6.09732C22.0302 5.64378 21.7748 5.02866 21.774 4.387H21.776ZM23.37 20.839H19.945C20.4717 19.4456 20.7594 17.9732 20.796 16.484H24.653C24.5791 18.0175 24.1384 19.511 23.368 20.839H23.37ZM13.308 6.48C12.128 7.51848 11.1655 8.78044 10.476 10.193H7.276C8.74511 8.23742 10.9003 6.91078 13.308 6.48ZM15 25.6C13.5618 24.6374 12.3825 23.3359 11.566 21.81H18.433C17.6168 23.3357 16.4378 24.6373 15 25.6ZM11.1 20.843C10.5253 19.4609 10.211 17.9844 10.173 16.488H19.829C19.7908 17.9844 19.4765 19.4608 18.902 20.843H11.1ZM10.173 15.52C10.2112 14.0236 10.5255 12.5472 11.1 11.165H18.9C19.4747 12.5471 19.789 14.0236 19.827 15.52H10.173ZM11.568 10.197C12.383 8.66881 13.5617 7.36477 15 6.4C16.4382 7.36256 17.6175 8.66413 18.434 10.19L11.568 10.197ZM6.633 11.165H10.056C9.5293 12.5584 9.2416 14.0308 9.205 15.52H5.347C5.42029 13.9851 5.86097 12.4902 6.632 11.161L6.633 11.165ZM5.347 16.484H9.2C9.23612 17.9733 9.52384 19.4457 10.051 20.839H6.632C5.86119 19.5111 5.4205 18.0176 5.347 16.484ZM10.476 21.807C11.1655 23.2196 12.128 24.4815 13.308 25.52C10.9003 25.0893 8.74504 23.7626 7.276 21.807H10.476ZM19.523 21.807H22.723C21.254 23.7626 19.0987 25.0893 16.691 25.52C17.8714 24.4813 18.8343 23.219 19.524 21.806L19.523 21.807ZM20.795 15.517C20.7589 14.0277 20.4712 12.5553 19.944 11.162H23.367C24.1374 12.49 24.5781 13.9835 24.652 15.517H20.795ZM19.523 10.194C18.8339 8.78117 17.8717 7.51886 16.692 6.48C19.0997 6.91069 21.255 8.23735 22.724 10.193L19.523 10.194ZM3.387 4.387C3.387 3.90856 3.52887 3.44087 3.79467 3.04307C4.06048 2.64527 4.43827 2.33522 4.88029 2.15213C5.3223 1.96904 5.80868 1.92114 6.27792 2.01448C6.74716 2.10781 7.17819 2.3382 7.51649 2.6765C7.85479 3.01481 8.08518 3.44583 8.17852 3.91507C8.27186 4.38431 8.22395 4.87069 8.04086 5.31271C7.85778 5.75472 7.54773 6.13252 7.14992 6.39832C6.75212 6.66412 6.28443 6.806 5.806 6.806C5.16469 6.8052 4.54986 6.55009 4.09639 6.09661C3.64291 5.64313 3.38779 5.02831 3.387 4.387ZM4.355 30.032C4.09835 30.0317 3.85229 29.9297 3.67081 29.7482C3.48934 29.5667 3.38726 29.3206 3.387 29.064V11.164H2.419V18.422C2.03399 18.4217 1.66482 18.2687 1.39257 17.9964C1.12033 17.7242 0.967265 17.355 0.967 16.97V12.129C0.968324 10.9742 1.42772 9.86712 2.24437 9.05065C3.06102 8.23419 4.16821 7.77505 5.323 7.774H6.29C6.83815 7.77612 7.38097 7.88163 7.89 8.085C6.20029 9.59824 5.03948 11.6127 4.57756 13.8335C4.11563 16.0542 4.37686 18.3645 5.323 20.426V29.064C5.32274 29.3206 5.22066 29.5667 5.03919 29.7482C4.85771 29.9297 4.61165 30.0317 4.355 30.032ZM8.226 29.064C8.23017 29.1937 8.20823 29.3229 8.16148 29.4439C8.11474 29.5649 8.04414 29.6753 7.95389 29.7685C7.86364 29.8617 7.75557 29.9358 7.63611 29.9864C7.51665 30.037 7.38824 30.0631 7.2585 30.0631C7.12876 30.0631 7.00035 30.037 6.88089 29.9864C6.76143 29.9358 6.65336 29.8617 6.56311 29.7685C6.47286 29.6753 6.40226 29.5649 6.35552 29.4439C6.30877 29.3229 6.28683 29.1937 6.291 29.064V22.109C6.83957 22.8921 7.49033 23.5983 8.226 24.209V29.064ZM22.742 30.032C22.4854 30.0317 22.2393 29.9297 22.0578 29.7482C21.8763 29.5667 21.7743 29.3206 21.774 29.064V24.205C22.5096 23.5942 23.1603 22.888 23.709 22.105V29.06C23.7094 29.1873 23.6847 29.3135 23.6363 29.4313C23.5879 29.5491 23.5168 29.6561 23.427 29.7464C23.3371 29.8367 23.2304 29.9084 23.1129 29.9574C22.9954 30.0064 22.8693 30.0317 22.742 30.032ZM29.032 16.967C29.0317 17.352 28.8787 17.7212 28.6064 17.9934C28.3342 18.2657 27.965 18.4187 27.58 18.419V11.161H26.612V29.061C26.6162 29.1907 26.5942 29.3199 26.5475 29.4409C26.5007 29.5619 26.4301 29.6723 26.3399 29.7655C26.2496 29.8587 26.1416 29.9328 26.0221 29.9834C25.9027 30.034 25.7742 30.0601 25.6445 30.0601C25.5148 30.0601 25.3863 30.034 25.2669 29.9834C25.1474 29.9328 25.0394 29.8587 24.9491 29.7655C24.8589 29.6723 24.7883 29.5619 24.7415 29.4409C24.6948 29.3199 24.6728 29.1907 24.677 29.061V20.426C25.623 18.3644 25.8841 16.054 25.422 13.8333C24.9599 11.6126 23.7989 9.59812 22.109 8.085C22.618 7.88142 23.1608 7.7759 23.709 7.774H24.677C25.8316 7.77532 26.9386 8.23457 27.755 9.05101C28.5714 9.86744 29.0307 10.9744 29.032 12.129V16.967Z" fill="#12262F"/>
<path d="M13.2437 4.42402L11.7847 3.84002C14.3868 3.15162 17.1409 3.31458 19.6437 4.30502L20.0007 3.40502C17.3159 2.34239 14.3622 2.16339 11.5687 2.89402L12.0607 1.66402L11.1607 1.30402L10.0137 4.17602L12.8837 5.32402L13.2437 4.42402Z" fill="#12262F"/>
<path d="M16.7565 27.577L18.2105 28.158C15.6169 28.8367 12.8752 28.6778 10.3775 27.704L10.0225 28.604C12.7016 29.6578 15.6463 29.8329 18.4315 29.104L17.9395 30.334L18.8395 30.694L19.9875 27.824L17.1175 26.676L16.7565 27.577Z" fill="#12262F"/>
<path d="M11.8366 17.582H11.3086V18.637H11.8366V17.582Z" fill="#12262F"/>
<path d="M13.9446 17.582H12.8896V18.637H13.9446V17.582Z" fill="#12262F"/>
<path d="M16.055 17.582H15V18.637H16.055V17.582Z" fill="#12262F"/>
<path d="M18.6921 13.363H18.1641V14.418H18.6921V13.363Z" fill="#12262F"/>
<path d="M17.1087 13.363H16.0537V14.418H17.1087V13.363Z" fill="#12262F"/>
<path d="M15.0003 13.363H13.9453V14.418H15.0003V13.363Z" fill="#12262F"/>
</svg>
