<svg width="32" height="34" viewBox="0 0 32 34" fill="none" xmlns="http://www.w3.org/2000/svg">
<path d="M18.0091 1H6.52814C6.17655 1.00026 5.83943 1.14005 5.59081 1.38867C5.3422 1.63728 5.20241 1.9744 5.20215 2.326V5.11C5.20241 5.4616 5.3422 5.79872 5.59081 6.04733C5.83943 6.29595 6.17655 6.43574 6.52814 6.436H18.0091C18.3607 6.43574 18.6979 6.29595 18.9465 6.04733C19.1951 5.79872 19.3349 5.4616 19.3351 5.11V2.326C19.3349 1.9744 19.1951 1.63728 18.9465 1.38867C18.6979 1.14005 18.3607 1.00026 18.0091 1V1Z" fill="#12262F" stroke="#12262F" stroke-width="0.5"/>
<path d="M12.9271 19.701H6.21914C6.12631 19.701 6.03729 19.6642 5.97166 19.5985C5.90602 19.5329 5.86914 19.4439 5.86914 19.351C5.86914 19.2582 5.90602 19.1692 5.97166 19.1035C6.03729 19.0379 6.12631 19.001 6.21914 19.001H12.9191C13.012 19.001 13.101 19.0379 13.1666 19.1035C13.2323 19.1692 13.2691 19.2582 13.2691 19.351C13.2691 19.4439 13.2323 19.5329 13.1666 19.5985C13.101 19.6642 13.012 19.701 12.9191 19.701H12.9271Z" fill="#12262F" stroke="#12262F" stroke-width="0.5"/>
<path d="M4.26634 19.84C4.53641 19.84 4.75534 19.6215 4.75534 19.352C4.75534 19.0825 4.53641 18.864 4.26634 18.864C3.99628 18.864 3.77734 19.0825 3.77734 19.352C3.77734 19.6215 3.99628 19.84 4.26634 19.84Z" fill="#12262F" stroke="#12262F" stroke-width="0.5"/>
<path d="M12.9271 23.19H6.21914C6.12631 23.19 6.03729 23.1531 5.97166 23.0875C5.90602 23.0218 5.86914 22.9328 5.86914 22.84C5.86914 22.7472 5.90602 22.6581 5.97166 22.5925C6.03729 22.5269 6.12631 22.49 6.21914 22.49H12.9191C13.012 22.49 13.101 22.5269 13.1666 22.5925C13.2323 22.6581 13.2691 22.7472 13.2691 22.84C13.2691 22.9328 13.2323 23.0218 13.1666 23.0875C13.101 23.1531 13.012 23.19 12.9191 23.19H12.9271Z" fill="#12262F" stroke="#12262F" stroke-width="0.5"/>
<path d="M4.26634 23.328C4.53641 23.328 4.75534 23.1095 4.75534 22.84C4.75534 22.5705 4.53641 22.352 4.26634 22.352C3.99628 22.352 3.77734 22.5705 3.77734 22.84C3.77734 23.1095 3.99628 23.328 4.26634 23.328Z" fill="#12262F" stroke="#12262F" stroke-width="0.5"/>
<path d="M12.9271 26.678H6.21914C6.12631 26.678 6.03729 26.6411 5.97166 26.5755C5.90602 26.5099 5.86914 26.4209 5.86914 26.328C5.86914 26.2352 5.90602 26.1462 5.97166 26.0805C6.03729 26.0149 6.12631 25.978 6.21914 25.978H12.9191C13.012 25.978 13.101 26.0149 13.1666 26.0805C13.2323 26.1462 13.2691 26.2352 13.2691 26.328C13.2691 26.4209 13.2323 26.5099 13.1666 26.5755C13.101 26.6411 13.012 26.678 12.9191 26.678H12.9271Z" fill="#12262F" stroke="#12262F" stroke-width="0.5"/>
<path d="M4.26634 26.816C4.53641 26.816 4.75534 26.5975 4.75534 26.328C4.75534 26.0585 4.53641 25.84 4.26634 25.84C3.99628 25.84 3.77734 26.0585 3.77734 26.328C3.77734 26.5975 3.99628 26.816 4.26634 26.816Z" fill="#12262F" stroke="#12262F" stroke-width="0.5"/>
<path d="M12.9271 30.167H6.21914C6.12631 30.167 6.03729 30.1302 5.97166 30.0645C5.90602 29.9989 5.86914 29.9098 5.86914 29.817C5.86914 29.7242 5.90602 29.6352 5.97166 29.5695C6.03729 29.5039 6.12631 29.467 6.21914 29.467H12.9191C13.012 29.467 13.101 29.5039 13.1666 29.5695C13.2323 29.6352 13.2691 29.7242 13.2691 29.817C13.2691 29.9098 13.2323 29.9989 13.1666 30.0645C13.101 30.1302 13.012 30.167 12.9191 30.167H12.9271Z" fill="#12262F" stroke="#12262F" stroke-width="0.5"/>
<path d="M4.26634 30.305C4.53641 30.305 4.75534 30.0866 4.75534 29.817C4.75534 29.5475 4.53641 29.329 4.26634 29.329C3.99628 29.329 3.77734 29.5475 3.77734 29.817C3.77734 30.0866 3.99628 30.305 4.26634 30.305Z" fill="#12262F" stroke="#12262F" stroke-width="0.5"/>
<path d="M8.6699 8.901C7.91122 8.90199 7.16987 9.12787 6.53953 9.55009C5.9092 9.9723 5.41818 10.5719 5.12854 11.2731C4.83889 11.9743 4.76361 12.7456 4.91223 13.4896C5.06084 14.2336 5.42668 14.9168 5.96349 15.4529C6.5003 15.989 7.184 16.354 7.92817 16.5016C8.67233 16.6493 9.44358 16.573 10.1444 16.2824C10.8452 15.9919 11.4442 15.5001 11.8656 14.8692C12.287 14.2383 12.5119 13.4967 12.5119 12.738C12.51 11.7201 12.1045 10.7444 11.3843 10.0251C10.664 9.3058 9.68783 8.90153 8.6699 8.901ZM8.6699 15.877C7.86691 15.8781 7.09405 15.5714 6.5103 15.02C5.92654 14.4686 5.5763 13.7145 5.53159 12.9128C5.48689 12.111 5.75113 11.3226 6.26996 10.7098C6.7888 10.0969 7.52277 9.70621 8.3209 9.618V12.738C8.3209 12.8306 8.35767 12.9193 8.42312 12.9848C8.48857 13.0502 8.57734 13.087 8.6699 13.087H11.7949C11.7066 13.854 11.3394 14.5618 10.7632 15.0757C10.187 15.5895 9.44196 15.8737 8.6699 15.874V15.877Z" fill="#12262F" stroke="#12262F" stroke-width="0.5"/>
<path d="M21.7961 33.654H2.74409C2.5148 33.6543 2.28771 33.6094 2.07578 33.5219C1.86384 33.4344 1.67122 33.306 1.5089 33.144C1.34658 32.9821 1.21775 32.7898 1.12976 32.578C1.04178 32.3663 0.996356 32.1393 0.996094 31.91V4.999C0.996623 4.53663 1.18054 4.09334 1.50748 3.7664C1.83443 3.43945 2.27772 3.25553 2.74009 3.255H3.45409C3.54692 3.255 3.63594 3.29188 3.70158 3.35752C3.76722 3.42315 3.80409 3.51218 3.80409 3.605C3.80409 3.69783 3.76722 3.78685 3.70158 3.85249C3.63594 3.91813 3.54692 3.955 3.45409 3.955H2.74009C2.46353 3.95606 2.1986 4.06639 2.00304 4.26195C1.80748 4.45751 1.69715 4.72244 1.69609 4.999V31.91C1.69636 32.1876 1.80675 32.4538 2.00305 32.6501C2.19934 32.8463 2.46549 32.9567 2.74309 32.957H21.7961C22.0737 32.9567 22.3398 32.8463 22.5361 32.6501C22.7324 32.4538 22.8428 32.1876 22.8431 31.91V30.031C22.8431 29.9382 22.88 29.8492 22.9456 29.7835C23.0112 29.7179 23.1003 29.681 23.1931 29.681C23.2859 29.681 23.3749 29.7179 23.4406 29.7835C23.5062 29.8492 23.5431 29.9382 23.5431 30.031V31.914C23.5415 32.3762 23.3567 32.8189 23.0292 33.1451C22.7017 33.4713 22.2583 33.6543 21.7961 33.654Z" fill="#12262F" stroke="#12262F" stroke-width="0.5"/>
<path d="M27.0886 13.282C27.3587 13.282 27.5776 13.0635 27.5776 12.794C27.5776 12.5245 27.3587 12.306 27.0886 12.306C26.8185 12.306 26.5996 12.5245 26.5996 12.794C26.5996 13.0635 26.8185 13.282 27.0886 13.282Z" fill="#12262F" stroke="#12262F" stroke-width="0.5"/>
<path d="M28.1903 16.689C28.1863 15.8916 28.1046 15.0966 27.9463 14.315C27.9387 14.2686 27.9218 14.2242 27.8966 14.1844C27.8714 14.1447 27.8385 14.1105 27.7997 14.0838C27.7609 14.0572 27.7172 14.0386 27.6711 14.0293C27.6249 14.02 27.5774 14.0201 27.5313 14.0296C27.4853 14.0391 27.4416 14.0578 27.4029 14.0846C27.3643 14.1115 27.3315 14.1458 27.3064 14.1857C27.2814 14.2255 27.2647 14.27 27.2573 14.3164C27.2498 14.3629 27.2519 14.4104 27.2633 14.456C28.2283 19.119 25.8943 24.093 25.3883 25.095H23.5073V24.077C23.5073 23.9842 23.4704 23.8952 23.4048 23.8295C23.3392 23.7639 23.2502 23.727 23.1573 23.727C23.0645 23.727 22.9755 23.7639 22.9098 23.8295C22.8442 23.8952 22.8073 23.9842 22.8073 24.077V25.094H20.9633C20.2348 23.6234 19.6768 22.0744 19.3003 20.477C18.7363 18.049 18.4423 14.571 20.1653 11.612C22.2008 12.3915 24.4594 12.3506 26.4653 11.498C26.5114 11.4779 26.5526 11.4481 26.5861 11.4107C26.6196 11.3732 26.6447 11.329 26.6597 11.2811C26.6747 11.2331 26.6792 11.1824 26.6729 11.1326C26.6666 11.0827 26.6497 11.0348 26.6233 10.992C25.8221 9.74026 24.7658 8.67165 23.5233 7.85602L23.5343 5.00102C23.5338 4.53864 23.3499 4.09536 23.0229 3.76841C22.696 3.44146 22.2527 3.25755 21.7903 3.25702H21.0763C20.9835 3.25702 20.8945 3.29389 20.8288 3.35953C20.7632 3.42517 20.7263 3.51419 20.7263 3.60702C20.7263 3.69984 20.7632 3.78887 20.8288 3.85451C20.8945 3.92015 20.9835 3.95702 21.0763 3.95702H21.7903C22.0676 3.95728 22.3334 4.0674 22.5297 4.26326C22.7259 4.45912 22.8365 4.72476 22.8373 5.00202L22.8263 7.85802C21.3557 8.81094 20.1546 10.1258 19.3383 11.6763C18.5219 13.2269 18.1177 14.9613 18.1643 16.713C16.9604 17.9259 16.1014 19.4378 15.6759 21.093C15.2504 22.7482 15.2736 24.4868 15.7433 26.13C15.7647 26.1998 15.8073 26.2612 15.8651 26.3057C15.923 26.3502 15.9933 26.3755 16.0663 26.3781C16.1392 26.3808 16.2112 26.3606 16.2721 26.3204C16.3331 26.2803 16.38 26.2221 16.4063 26.154C16.8897 24.6852 17.8718 23.4317 19.1823 22.611C19.505 23.5835 19.8984 24.531 20.3593 25.446L19.0433 28.055C19.0171 28.1082 19.0048 28.1672 19.0076 28.2265C19.0104 28.2857 19.0281 28.3433 19.0592 28.3938C19.0903 28.4444 19.1336 28.4862 19.1852 28.5154C19.2368 28.5447 19.295 28.5604 19.3543 28.561H26.9543C27.0136 28.5604 27.0718 28.5447 27.1234 28.5154C27.175 28.4862 27.2184 28.4444 27.2494 28.3938C27.2805 28.3433 27.2982 28.2857 27.301 28.2265C27.3038 28.1672 27.2915 28.1082 27.2653 28.055L25.9653 25.483C26.4367 24.5516 26.8378 23.5862 27.1653 22.595C28.4853 23.4153 29.4747 24.6737 29.9603 26.15C29.9867 26.2181 30.0336 26.2763 30.0945 26.3164C30.1555 26.3566 30.2274 26.3768 30.3004 26.3741C30.3733 26.3715 30.4436 26.3462 30.5015 26.3017C30.5594 26.2572 30.602 26.1958 30.6233 26.126C31.0953 24.4789 31.1186 22.7356 30.6909 21.0765C30.2631 19.4173 29.3998 17.9026 28.1903 16.689ZM26.3903 27.864H19.9203L20.9653 25.792H22.8063V26.692C22.8063 26.7848 22.8432 26.8739 22.9088 26.9395C22.9745 27.0051 23.0635 27.042 23.1563 27.042C23.2491 27.042 23.3382 27.0051 23.4038 26.9395C23.4695 26.8739 23.5063 26.7848 23.5063 26.692V25.792H25.3473L26.3903 27.864Z" fill="#12262F" stroke="#12262F" stroke-width="0.5"/>
<path d="M23.1884 14.036C22.8252 14.0374 22.4705 14.1464 22.1692 14.3492C21.8679 14.552 21.6334 14.8395 21.4953 15.1755C21.3573 15.5114 21.3219 15.8808 21.3936 16.2369C21.4653 16.5929 21.6409 16.9198 21.8982 17.1761C22.1556 17.4325 22.4831 17.6068 22.8394 17.6772C23.1958 17.7475 23.565 17.7107 23.9004 17.5714C24.2358 17.4321 24.5225 17.1965 24.7242 16.8944C24.9258 16.5923 25.0334 16.2372 25.0334 15.874C25.0318 15.3858 24.8367 14.9182 24.4909 14.5736C24.145 14.2291 23.6766 14.0357 23.1884 14.036Z" fill="#12262F" stroke="#12262F" stroke-width="0.5"/>
</svg>
