<svg width="30" height="31" viewBox="0 0 30 31" fill="none" xmlns="http://www.w3.org/2000/svg">
<path d="M8.59312 12.6161L8.17912 12.8441C8.09895 12.8862 8.02822 12.9443 7.97127 13.0148C7.91432 13.0853 7.87235 13.1666 7.84792 13.2538C7.82348 13.3411 7.81711 13.4324 7.82918 13.5222C7.84125 13.612 7.87152 13.6984 7.91812 13.7761L9.06313 15.6761C9.16284 15.8345 9.31949 15.9487 9.50084 15.9952C9.68219 16.0417 9.87446 16.017 10.0381 15.9261L10.4561 15.6951C10.5839 15.6282 10.7281 15.5991 10.8718 15.6109C11.0156 15.6228 11.153 15.6752 11.2681 15.7621C11.6807 16.0654 12.1299 16.3153 12.6051 16.5061C12.7382 16.5532 12.8539 16.6394 12.937 16.7534C13.0202 16.8675 13.0669 17.004 13.0711 17.1451V17.6021C13.0761 17.7868 13.154 17.9622 13.2877 18.0897C13.4215 18.2173 13.6003 18.2868 13.7851 18.2831H16.0751C16.2601 18.2868 16.4391 18.2172 16.5729 18.0894C16.7066 17.9616 16.7844 17.786 16.7891 17.6011V17.1441C16.7933 17.003 16.8401 16.8665 16.9232 16.7524C17.0064 16.6384 17.1221 16.5522 17.2551 16.5051C17.7299 16.3149 18.1788 16.0656 18.5911 15.7631C18.7063 15.6762 18.8437 15.6238 18.9874 15.6119C19.1312 15.6001 19.2753 15.6292 19.4031 15.6961L19.8211 15.9271C19.9848 16.018 20.1771 16.0427 20.3584 15.9962C20.5398 15.9497 20.6964 15.8355 20.7961 15.6771L21.9411 13.7771C21.9877 13.6996 22.018 13.6135 22.0302 13.5239C22.0424 13.4343 22.0362 13.3432 22.0121 13.2561C21.9879 13.169 21.9463 13.0878 21.8898 13.0173C21.8332 12.9468 21.7629 12.8885 21.6831 12.8461L21.2691 12.6181C21.1499 12.5563 21.0523 12.4597 20.9894 12.3411C20.9265 12.2224 20.9013 12.0874 20.9171 11.9541C20.9923 11.4358 20.9923 10.9093 20.9171 10.3911C20.9013 10.2577 20.9265 10.1227 20.9894 10.0041C21.0523 9.88542 21.1499 9.78878 21.2691 9.72706L21.6831 9.49906C21.7633 9.45687 21.834 9.39877 21.891 9.32831C21.9479 9.25785 21.9899 9.17651 22.0143 9.08926C22.0388 9.00202 22.0451 8.91071 22.0331 8.82092C22.021 8.73113 21.9907 8.64475 21.9441 8.56706L20.7991 6.66706C20.6994 6.50861 20.5428 6.39439 20.3614 6.34789C20.1801 6.30139 19.9878 6.32614 19.8241 6.41706L19.4061 6.64806C19.2783 6.71488 19.1342 6.74406 18.9904 6.7322C18.8467 6.72034 18.7093 6.66793 18.5941 6.58106C18.1813 6.27733 17.7317 6.02701 17.2561 5.83606C17.1231 5.78894 17.0074 5.70271 16.9242 5.58867C16.8411 5.47464 16.7943 5.33813 16.7901 5.19706V4.74006C16.7841 4.55562 16.7055 4.38102 16.5714 4.25423C16.4373 4.12745 16.2586 4.05874 16.0741 4.06306H13.7841C13.5991 4.0593 13.4202 4.12893 13.2864 4.25673C13.1526 4.38452 13.0748 4.5601 13.0701 4.74506V5.20206C13.0659 5.34313 13.0192 5.47964 12.936 5.59367C12.8529 5.70771 12.7372 5.79394 12.6041 5.84106C12.1294 6.03123 11.6805 6.28053 11.2681 6.58306C11.153 6.66993 11.0156 6.72234 10.8718 6.7342C10.7281 6.74606 10.5839 6.71688 10.4561 6.65006L10.0381 6.41906C9.87446 6.32814 9.68219 6.30339 9.50084 6.34989C9.31949 6.39639 9.16284 6.51061 9.06313 6.66906L7.92112 8.56306C7.87457 8.64053 7.84427 8.72666 7.83207 8.81622C7.81987 8.90577 7.82603 8.99687 7.85016 9.08397C7.8743 9.17107 7.91591 9.25235 7.97247 9.32285C8.02902 9.39335 8.09934 9.4516 8.17912 9.49406L8.59312 9.72206C8.71238 9.78379 8.80997 9.88042 8.87286 9.99906C8.93576 10.1177 8.96097 10.2527 8.94513 10.3861C8.86996 10.9043 8.86996 11.4308 8.94513 11.9491C8.96161 12.0829 8.93671 12.2185 8.87378 12.3378C8.81085 12.457 8.7129 12.5541 8.59312 12.6161ZM14.9301 8.12506C15.5326 8.12506 16.1215 8.3037 16.6224 8.6384C17.1233 8.9731 17.5137 9.44882 17.7443 10.0054C17.9748 10.562 18.0351 11.1744 17.9176 11.7653C17.8001 12.3562 17.51 12.8989 17.084 13.3249C16.658 13.7509 16.1152 14.041 15.5244 14.1585C14.9335 14.2761 14.3211 14.2157 13.7645 13.9852C13.2079 13.7547 12.7322 13.3642 12.3975 12.8633C12.0628 12.3624 11.8841 11.7735 11.8841 11.1711C11.884 10.7711 11.9626 10.3749 12.1156 10.0053C12.2686 9.63572 12.4928 9.29986 12.7756 9.01692C13.0583 8.73398 13.394 8.5095 13.7635 8.3563C14.1331 8.20311 14.5291 8.12419 14.9291 8.12406L14.9301 8.12506Z" fill="#12262F"/>
<path d="M13.9142 30.462V23.354C13.9141 23.2194 13.8605 23.0902 13.7652 22.995L12.7502 21.98L12.0322 22.698L12.8992 23.565V30.465L13.9142 30.462Z" fill="#12262F"/>
<path d="M10.3595 30.4621V26.9081C10.3594 26.7734 10.3058 26.6442 10.2105 26.5491L9.19554 25.5341L8.47754 26.2521L9.34454 27.1191V30.4631L10.3595 30.4621Z" fill="#12262F"/>
<path d="M16.0943 22.9951C15.999 23.0903 15.9454 23.2194 15.9453 23.3541V30.4611H16.9603V23.5611L17.8273 22.6941L17.1093 21.9761L16.0943 22.9951Z" fill="#12262F"/>
<path d="M10.3599 22.3391C11.201 22.3391 11.8829 21.6572 11.8829 20.8161C11.8829 19.975 11.201 19.2931 10.3599 19.2931C9.51878 19.2931 8.83691 19.975 8.83691 20.8161C8.83691 21.6572 9.51878 22.3391 10.3599 22.3391Z" fill="#12262F"/>
<path d="M6.8062 25.893C7.64733 25.893 8.3292 25.2112 8.3292 24.37C8.3292 23.5289 7.64733 22.847 6.8062 22.847C5.96507 22.847 5.2832 23.5289 5.2832 24.37C5.2832 25.2112 5.96507 25.893 6.8062 25.893Z" fill="#12262F"/>
<path d="M19.4976 22.3391C20.3387 22.3391 21.0206 21.6572 21.0206 20.8161C21.0206 19.975 20.3387 19.2931 19.4976 19.2931C18.6565 19.2931 17.9746 19.975 17.9746 20.8161C17.9746 21.6572 18.6565 22.3391 19.4976 22.3391Z" fill="#12262F"/>
<path d="M23.0523 25.893C23.8934 25.893 24.5753 25.2112 24.5753 24.37C24.5753 23.5289 23.8934 22.847 23.0523 22.847C22.2112 22.847 21.5293 23.5289 21.5293 24.37C21.5293 25.2112 22.2112 25.893 23.0523 25.893Z" fill="#12262F"/>
<path d="M20.513 27.1181L21.38 26.2511L20.662 25.5331L19.647 26.5481C19.5518 26.6433 19.4982 26.7724 19.498 26.9071V30.4611H20.513V27.1181Z" fill="#12262F"/>
<path d="M28.007 8.64907C26.9755 6.22338 25.2895 4.13248 23.1376 2.61018C20.9857 1.08788 18.4528 0.194216 15.822 0.0291213C13.1913 -0.135974 10.5665 0.434012 8.24119 1.67534C5.91586 2.91666 3.9817 4.78038 2.655 7.05807L0 8.50307L1.577 9.33707C0.785836 11.5039 0.533556 13.8306 0.841912 16.1166C1.15027 18.4026 2.01001 20.5793 3.347 22.4591L4.173 21.8701C2.94448 20.1436 2.14994 18.1466 1.85664 16.0481C1.56334 13.9495 1.7799 11.8112 2.488 9.81407L4.004 10.6141L3.669 7.33607C4.9254 5.27838 6.72162 3.60431 8.86257 2.49571C11.0035 1.38711 13.4073 0.886367 15.8128 1.04788C18.2183 1.2094 20.5336 2.02699 22.5071 3.41185C24.4807 4.79671 26.037 6.69589 27.007 8.90307L25.375 9.32707L27.853 11.5391C28.2194 13.3171 28.2157 15.1516 27.842 16.9282C27.4683 18.7047 26.7327 20.3853 25.681 21.8651L26.507 22.4541C27.6343 20.8687 28.4246 19.069 28.829 17.1662C29.2334 15.2634 29.2432 13.2979 28.858 11.3911L29.99 8.12807L28.007 8.64907Z" fill="#12262F"/>
</svg>
