<svg width="30" height="30" viewBox="0 0 30 30" fill="none" xmlns="http://www.w3.org/2000/svg">
<path d="M15 0C12.0333 0 9.13319 0.879735 6.66645 2.52796C4.19972 4.17618 2.27713 6.51886 1.14181 9.25975C0.00649929 12.0006 -0.290551 15.0166 0.288228 17.9264C0.867006 20.8361 2.29562 23.5088 4.3934 25.6066C6.49119 27.7044 9.16394 29.133 12.0737 29.7118C14.9834 30.2906 17.9994 29.9935 20.7403 28.8582C23.4811 27.7229 25.8238 25.8003 27.472 23.3336C29.1203 20.8668 30 17.9667 30 15C30 11.0218 28.4197 7.20644 25.6066 4.3934C22.7936 1.58035 18.9783 0 15 0ZM15 28.5C12.33 28.5 9.71987 27.7082 7.49981 26.2248C5.27974 24.7414 3.54942 22.633 2.52763 20.1662C1.50585 17.6994 1.2385 14.985 1.75941 12.3663C2.28031 9.74754 3.56606 7.34207 5.45407 5.45406C7.34207 3.56605 9.74754 2.2803 12.3663 1.7594C14.985 1.2385 17.6994 1.50584 20.1662 2.52763C22.633 3.54941 24.7414 5.27974 26.2248 7.4998C27.7082 9.71987 28.5 12.33 28.5 15C28.5 18.5804 27.0777 22.0142 24.5459 24.5459C22.0142 27.0777 18.5804 28.5 15 28.5Z" fill="#12262F"/>
<path d="M20.147 8.78689L8.77738 20.1565C8.58212 20.3517 8.58212 20.6683 8.77738 20.8636L9.13801 21.2242C9.33327 21.4194 9.64985 21.4194 9.84511 21.2242L21.2147 9.85462C21.4099 9.65936 21.4099 9.34277 21.2147 9.14751L20.8541 8.78689C20.6588 8.59162 20.3422 8.59162 20.147 8.78689Z" fill="#12262F"/>
<path d="M18.9701 16.765C18.5221 16.765 18.0842 16.8979 17.7117 17.1467C17.3392 17.3956 17.0489 17.7494 16.8775 18.1632C16.7061 18.5771 16.6612 19.0325 16.7486 19.4719C16.836 19.9113 17.0517 20.3148 17.3685 20.6316C17.6852 20.9484 18.0888 21.1641 18.5282 21.2515C18.9676 21.3389 19.423 21.294 19.8369 21.1226C20.2507 20.9512 20.6045 20.6609 20.8534 20.2884C21.1022 19.9159 21.2351 19.478 21.2351 19.03C21.2351 18.7326 21.1765 18.438 21.0627 18.1632C20.9488 17.8884 20.782 17.6387 20.5717 17.4284C20.3614 17.2181 20.1117 17.0513 19.8369 16.9374C19.5621 16.8236 19.2675 16.765 18.9701 16.765ZM18.9701 19.785C18.771 19.7812 18.5812 19.7004 18.4405 19.5596C18.2997 19.4189 18.2189 19.2291 18.2151 19.03C18.2151 18.8807 18.2594 18.7347 18.3423 18.6106C18.4253 18.4864 18.5432 18.3896 18.6812 18.3325C18.8191 18.2753 18.9709 18.2604 19.1174 18.2895C19.2638 18.3187 19.3984 18.3906 19.5039 18.4961C19.6095 18.6017 19.6814 18.7363 19.7106 18.8827C19.7397 19.0292 19.7248 19.181 19.6676 19.3189C19.6105 19.4569 19.5137 19.5748 19.3895 19.6578C19.2654 19.7407 19.1194 19.785 18.9701 19.785Z" fill="#12262F"/>
<path d="M11.0052 8.78003C10.5573 8.78003 10.1193 8.91287 9.74687 9.16175C9.37439 9.41063 9.08408 9.76438 8.91265 10.1783C8.74122 10.5921 8.69636 11.0475 8.78376 11.4869C8.87115 11.9263 9.08687 12.3299 9.40364 12.6466C9.7204 12.9634 10.124 13.1791 10.5634 13.2665C11.0027 13.3539 11.4581 13.309 11.872 13.1376C12.2859 12.9662 12.6396 12.6759 12.8885 12.3034C13.1374 11.9309 13.2702 11.493 13.2702 11.045C13.2702 10.4443 13.0316 9.8682 12.6068 9.44343C12.1821 9.01866 11.606 8.78003 11.0052 8.78003ZM11.0052 11.8C10.8559 11.8 10.7099 11.7557 10.5858 11.6728C10.4616 11.5898 10.3649 11.4719 10.3077 11.334C10.2506 11.196 10.2356 11.0442 10.2647 10.8977C10.2939 10.7513 10.3658 10.6168 10.4714 10.5112C10.577 10.4056 10.7115 10.3337 10.8579 10.3045C11.0044 10.2754 11.1562 10.2904 11.2942 10.3475C11.4321 10.4046 11.55 10.5014 11.633 10.6256C11.716 10.7497 11.7602 10.8957 11.7602 11.045C11.7602 11.1442 11.7407 11.2424 11.7028 11.334C11.6648 11.4256 11.6092 11.5088 11.5391 11.5789C11.469 11.649 11.3858 11.7046 11.2942 11.7426C11.2026 11.7805 11.1044 11.8 11.0052 11.8Z" fill="#12262F"/>
</svg>
