<svg width="79" height="70" viewBox="0 0 79 70" fill="none" xmlns="http://www.w3.org/2000/svg">
<path fill-rule="evenodd" clip-rule="evenodd" d="M17.0618 2.30453L39.1005 0L61.1407 2.30453L78.2041 24.9603L39.1021 69.9994L0 24.9603L17.0618 2.30453Z" fill="#FDB300"/>
<path fill-rule="evenodd" clip-rule="evenodd" d="M15.8388 25.2344L39.1021 70.001L0 25.2344H15.8388Z" fill="#EA6C00"/>
<path fill-rule="evenodd" clip-rule="evenodd" d="M62.3697 25.2344L39.105 70.001L78.207 25.2344H62.3697Z" fill="#EA6C00"/>
<path fill-rule="evenodd" clip-rule="evenodd" d="M15.4844 25.2344H61.9183L38.7013 70.001L15.4844 25.2344Z" fill="#FDAD00"/>
<path fill-rule="evenodd" clip-rule="evenodd" d="M38.2942 0L16.6842 2.32916L15.4844 25.2328L38.2942 0Z" fill="#FDD231"/>
<path fill-rule="evenodd" clip-rule="evenodd" d="M39.0955 0L60.7054 2.32916L61.9053 25.2328L39.0955 0Z" fill="#FDD231"/>
<path fill-rule="evenodd" clip-rule="evenodd" d="M78.207 25.2327L61.0989 2.44141L62.3265 25.2327H78.207Z" fill="#FDAD00"/>
<path fill-rule="evenodd" clip-rule="evenodd" d="M0 25.2327L17.1066 2.44141L15.8789 25.2327H0Z" fill="#FDAD00"/>
<path fill-rule="evenodd" clip-rule="evenodd" d="M38.7013 0L15.4844 25.2328H61.9183L38.7013 0Z" fill="#FEEEB7"/>
</svg>
