<svg width="68" height="68" viewBox="0 0 68 68" fill="none" xmlns="http://www.w3.org/2000/svg">
<g clip-path="url(#clip0_3125_512)">
<path d="M61.8356 0H6.16436C2.75984 0 0 2.75984 0 6.16436V61.8356C0 65.2402 2.75984 68 6.16436 68H61.8356C65.2402 68 68 65.2402 68 61.8356V6.16436C68 2.75984 65.2402 0 61.8356 0Z" fill="#DC395F"/>
<path d="M22.7259 21.3967C24.9863 21.3967 26.88 19.625 26.88 17.3029C26.88 14.9824 24.9863 13.2109 22.7259 13.2109C20.4654 13.2109 18.5723 14.9824 18.5723 17.3029C18.5723 19.6247 20.4654 21.3967 22.7259 21.3967ZM14.1127 43.3161C13.8686 44.3547 13.7461 45.4761 13.7461 46.391C13.7461 49.9958 15.7009 52.3888 19.855 52.3888C23.3001 52.3888 26.0932 50.3429 28.1042 47.0393L26.8763 51.9675H33.7174L37.6274 36.2853C38.6049 32.3147 40.4986 30.2537 43.37 30.2537C45.6302 30.2537 47.0351 31.6594 47.0351 33.9799C47.0351 34.6522 46.974 35.3845 46.7296 36.179L44.7135 43.3873C44.408 44.4259 44.2864 45.465 44.2864 46.4417C44.2864 49.8637 46.3017 52.3667 50.5169 52.3667C54.1211 52.3667 56.992 50.0465 58.5805 44.4872L55.8929 43.4497C54.5488 47.174 53.388 47.8474 52.4716 47.8474C51.5552 47.8474 51.0665 47.237 51.0665 46.0159C51.0665 45.4661 51.1892 44.8559 51.3719 44.1212L53.3272 37.0986C53.8157 35.4496 53.9992 33.9873 53.9992 32.6438C53.9992 27.3903 50.8223 24.6485 46.974 24.6485C43.37 24.6485 39.7043 27.8995 37.8721 31.321L39.2156 25.1797H28.7702L27.3039 30.5889H32.1911L29.1816 42.6377C26.8183 47.8912 22.4772 47.9765 21.9324 47.8546C21.0378 47.6527 20.4657 47.3129 20.4657 46.1506C20.4657 45.4799 20.5878 44.5164 20.8933 43.3549L25.4753 25.1797H13.8686L12.4023 30.5889H17.228L14.1127 43.3161Z" fill="white"/>
</g>
<defs>
<clipPath id="clip0_3125_512">
<rect width="68" height="68" fill="white"/>
</clipPath>
</defs>
</svg>
