<svg width="169" height="44" viewBox="0 0 169 44" fill="none" xmlns="http://www.w3.org/2000/svg">
<path fill-rule="evenodd" clip-rule="evenodd" d="M82.2974 0L75.2255 3.01675V22.363C75.4783 29.7577 81.5211 35.6084 88.8596 35.563V28.512C88.0015 28.5172 87.151 28.3523 86.357 28.0269C85.563 27.7015 84.8412 27.2219 84.2334 26.6159C82.9997 25.3864 82.3014 23.7189 82.2906 21.9766V15.3299H88.8596V8.29675H82.2974V0ZM58.8298 8.29675C51.4158 8.39575 45.4774 14.5186 45.5434 21.9945C45.6093 29.4704 51.6548 35.486 59.0689 35.453C66.4829 35.4186 72.4748 29.348 72.4734 21.8721C72.4226 14.3247 66.3139 8.24725 58.8298 8.29675ZM58.8298 28.4116C55.2602 28.3635 52.3995 25.4169 52.4311 21.8171C52.4614 18.2188 55.3715 15.3216 58.9397 15.3354C62.5093 15.3491 65.396 18.2682 65.3988 21.8666C65.3905 23.6109 64.6931 25.2811 63.4587 26.5127C62.8505 27.1195 62.1281 27.5996 61.3334 27.9253C60.5386 28.251 59.6872 28.4158 58.8284 28.4103L58.8298 28.4116ZM104.219 8.29537C96.8067 8.39713 90.8683 14.5214 90.9357 21.9959C91.0016 29.4718 97.0485 35.486 104.461 35.453C111.875 35.4186 117.867 29.348 117.866 21.8721C117.815 14.3234 111.705 8.2445 104.219 8.29537ZM104.219 28.4116C100.65 28.3663 97.7877 25.4196 97.8166 21.8212C97.844 18.2215 100.754 15.3216 104.324 15.3354C107.893 15.3491 110.781 18.2682 110.784 21.8666C110.762 25.5021 107.823 28.4309 104.219 28.4116ZM14.2921 8.29537C6.80663 8.24862 0.700649 14.3261 0.648438 21.8735C0.648438 22.0522 0.648437 22.231 0.662177 22.4084H0.648438V40.9846L7.72171 44V33.7741C9.73558 34.8772 11.9949 35.4542 14.2907 35.4516C16.6806 35.481 19.0351 34.8724 21.1118 33.6884C23.1884 32.5044 24.9122 30.7878 26.1056 28.7155C27.3074 26.6358 27.9401 24.2759 27.9401 21.8735C27.9401 19.4711 27.3074 17.1112 26.1056 15.0315C24.9122 12.9596 23.1885 11.2435 21.1121 10.0598C19.0357 8.87604 16.6816 8.26611 14.2921 8.29537ZM14.2921 28.4116C10.7239 28.3635 7.8646 25.4169 7.89483 21.8171C7.92506 18.2188 10.8352 15.3216 14.4034 15.3354C17.9716 15.3491 20.8597 18.2682 20.8611 21.8666C20.8521 23.6104 20.1548 25.2799 18.921 26.5114C18.3131 27.1183 17.591 27.5987 16.7965 27.9248C16.002 28.251 15.1508 28.4164 14.2921 28.4116ZM30.5051 21.4871V35.5396H37.5797V21.868C37.5902 20.1252 38.2886 18.4572 39.5226 17.2274C40.1304 16.6214 40.8522 16.1418 41.6462 15.8164C42.4402 15.4909 43.2908 15.326 44.1488 15.3312V8.29675C36.8076 8.24588 30.7579 14.0965 30.5051 21.4967V21.4871ZM154.629 8.28712C147.215 8.38612 141.277 14.509 141.343 21.9849C141.409 29.4608 147.454 35.4764 154.868 35.442C162.283 35.409 168.274 29.3384 168.273 21.8625C168.218 14.3179 162.111 8.24588 154.629 8.29675V8.28712ZM154.629 28.4006C151.06 28.3539 148.199 25.4059 148.231 21.8061C148.262 18.2064 151.174 15.3092 154.743 15.3258C158.313 15.3395 161.198 18.2627 161.198 21.8625C161.191 23.6069 160.495 25.2776 159.261 26.51C158.653 27.1177 157.931 27.5986 157.136 27.925C156.341 28.2515 155.489 28.4168 154.629 28.4116V28.4006ZM131.138 35.4516H138.213V8.29537H131.137L131.138 35.4516ZM123.587 26.3189C121.095 26.3519 119.098 28.4089 119.119 30.9224C119.141 33.4359 121.173 35.4599 123.667 35.4489C126.158 35.4379 128.173 33.3974 128.173 30.8839C128.156 28.347 126.103 26.3038 123.587 26.3189Z" fill="#161637"/>
</svg>
