<svg width="72" height="70" viewBox="0 0 72 70" fill="none" xmlns="http://www.w3.org/2000/svg">
<g clip-path="url(#clip0_3125_530)">
<path d="M59.2502 70H12.7498C5.69952 70 0 64.3167 0 57.2866V12.7134C0 5.68328 5.69952 0 12.7498 0H59.2502C66.3005 0 72 5.68328 72 12.7134V57.2866C72 64.3167 66.3005 70 59.2502 70Z" fill="#FF26BE"/>
<path d="M58.1098 67.0074H13.8903C7.89122 67.0074 3.00098 62.1311 3.00098 56.1491V13.8504C3.00098 7.86849 7.89122 2.99219 13.8903 2.99219H58.081C64.1117 2.99219 68.9703 7.86849 68.9703 13.8504V56.1204C68.9991 62.1311 64.1088 67.0074 58.1098 67.0074Z" fill="#2E001F"/>
<path d="M28.4686 32.7551L36.8695 48.8487C37.0193 49.087 36.93 49.3283 36.6881 49.3283H31.4666C31.1354 49.3283 30.9857 49.2392 30.8359 48.9406C28.915 44.9918 26.9652 41.0431 24.955 36.7957H24.8945C23.0945 40.8048 21.113 45.0234 19.195 48.9722C19.0452 49.2105 18.8955 49.3024 18.6535 49.3024H13.7086C13.4091 49.3024 13.3774 49.0641 13.53 48.8831L21.7495 33.2663L13.8007 17.4714C13.6193 17.2331 13.8007 17.0522 13.9793 17.0522H19.1402C19.4398 17.0522 19.5607 17.1125 19.6788 17.3824C21.5681 21.3311 23.489 25.4005 25.289 29.3779H25.3495C27.0891 25.4292 29.01 21.3311 30.8705 17.4111C31.0203 17.1728 31.1095 17.0234 31.4119 17.0234H36.2417C36.4807 17.0234 36.5729 17.2044 36.4231 17.4427L28.4686 32.7551ZM38.3412 37.6314C38.3412 30.6616 42.9924 25.2167 50.371 25.2167C51.0017 25.2167 51.33 25.2167 51.9319 25.277V17.3508C51.9319 17.1699 52.0817 17.0522 52.2314 17.0522H56.9719C57.211 17.0522 57.2715 17.1412 57.2715 17.2905V44.7535C57.2715 45.5605 57.2715 46.5771 57.4212 47.6856C57.4212 47.8665 57.3607 47.924 57.1822 48.0158C54.6622 49.2134 52.0212 49.7504 49.5012 49.7504C42.9895 49.7763 38.3383 45.7701 38.3412 37.6314ZM51.9291 29.9752C51.5086 29.7943 50.9095 29.6766 50.1895 29.6766C46.4081 29.6766 43.77 32.5771 43.77 37.396C43.77 42.9012 46.4715 45.1153 49.8612 45.1153C50.5812 45.1153 51.3617 45.0263 51.9319 44.7851V29.9752H51.9291Z" fill="#FFD9F2"/>
</g>
<defs>
<clipPath id="clip0_3125_530">
<rect width="72" height="70" fill="white"/>
</clipPath>
</defs>
</svg>
