<svg width="55" height="73" viewBox="0 0 55 73" fill="none" xmlns="http://www.w3.org/2000/svg">
<g clip-path="url(#clip0_3125_540)">
<path d="M16.2499 70.0011C19.2332 70 22.0939 68.8231 24.2034 66.7292C26.3129 64.6353 27.4986 61.7958 27.4997 58.8345V47.668H16.2499C13.2662 47.668 10.4048 48.8444 8.29501 50.9386C6.18525 53.0327 5 55.873 5 58.8345C5 61.7961 6.18525 64.6364 8.29501 66.7305C10.4048 68.8246 13.2662 70.0011 16.2499 70.0011Z" fill="#0ACF83"/>
<path d="M5 36.4986C5.00116 33.5374 6.18678 30.6978 8.29629 28.6039C10.4058 26.51 13.2666 25.3332 16.2499 25.332H27.4997V47.6652H16.2499C13.2666 47.664 10.4058 46.4872 8.29629 44.3933C6.18678 42.2994 5.00116 39.4598 5 36.4986Z" fill="#A259FF"/>
<path d="M5 14.1666C5.00116 11.2054 6.18678 8.36578 8.29629 6.27189C10.4058 4.178 13.2666 3.00115 16.2499 3L27.4997 3V25.3332H16.2499C13.2666 25.332 10.4058 24.1552 8.29629 22.0613C6.18678 19.9674 5.00116 17.1278 5 14.1666Z" fill="#F24E1E"/>
<path d="M27.5 3H38.7499C41.7335 3 44.595 4.17648 46.7047 6.27061C48.8145 8.36475 49.9997 11.205 49.9997 14.1666C49.9997 17.1281 48.8145 19.9684 46.7047 22.0625C44.595 24.1567 41.7335 25.3332 38.7499 25.3332H27.5V3Z" fill="#FF7262"/>
<path d="M49.9997 36.4986C49.9997 38.7071 49.3399 40.8661 48.1038 42.7024C46.8676 44.5388 45.1107 45.97 43.055 46.8152C40.9994 47.6604 38.7374 47.8815 36.5551 47.4506C34.3729 47.0198 32.3683 45.9562 30.795 44.3946C29.2217 42.8329 28.1502 40.8432 27.7162 38.6771C27.2821 36.511 27.5049 34.2658 28.3563 32.2253C29.2078 30.1849 30.6497 28.4409 32.4998 27.2139C34.3498 25.9869 36.5249 25.332 38.7499 25.332C41.7332 25.3332 44.5939 26.51 46.7034 28.6039C48.8129 30.6978 49.9986 33.5374 49.9997 36.4986Z" fill="#1ABCFE"/>
</g>
<defs>
<clipPath id="clip0_3125_540">
<rect width="45" height="67" fill="white" transform="translate(5 3)"/>
</clipPath>
</defs>
</svg>
