<svg width="273" height="61" viewBox="0 0 273 61" fill="none" xmlns="http://www.w3.org/2000/svg">
<path d="M0 47.3151C0.133317 45.1153 0.266637 41.8516 0.266637 38.9853V0H6.06342V20.2592H6.19674C8.26068 16.6596 11.9936 14.3291 17.1929 14.3291C25.1894 14.3291 30.8554 20.9924 30.7863 30.7887C30.7863 42.3182 23.523 48.0483 16.3264 48.0483C11.6627 48.0483 7.92988 46.2485 5.53018 41.9824H5.33019L5.06355 47.3151H0ZM6.06591 34.3883C6.06591 35.1216 6.19923 35.8547 6.33254 36.5188C7.46573 40.5825 10.8628 43.3822 15.129 43.3822C21.2591 43.3822 24.9252 38.3853 24.9252 30.9862C24.9252 24.5228 21.5923 18.9902 15.3289 18.9902C11.3294 18.9902 7.59903 21.7232 6.39918 26.1893C6.26587 26.8559 6.06591 27.6558 6.06591 28.589V34.3883Z" fill="#070707"/>
<path d="M56.0565 47.318L55.59 43.2543H55.39C53.5902 45.7849 50.1264 48.0512 45.527 48.0512C38.997 48.0512 35.6641 43.4542 35.6641 38.7882C35.6641 30.9916 42.594 26.7255 55.0567 26.7922V26.1256C55.0567 23.4592 54.3234 18.6623 47.7267 18.6623C44.7271 18.6623 41.5967 19.5955 39.3303 21.062L37.9971 17.1983C40.6634 15.4652 44.5271 14.332 48.5933 14.332C58.4563 14.332 60.8559 21.062 60.8559 27.5254V39.5881C60.8559 42.3853 60.9893 45.1183 61.3892 47.318H56.0565ZM55.19 30.8584C48.7933 30.725 41.53 31.8582 41.53 38.1216C41.53 41.9187 44.0605 43.7209 47.0602 43.7209C51.2596 43.7209 53.9235 41.0545 54.8567 38.3191C55.0567 37.7216 55.19 37.0551 55.19 36.4527V30.8584Z" fill="#070707"/>
<path d="M70.3252 0H76.1887V47.3151H70.3252V0Z" fill="#070707"/>
<path d="M85.2565 41.3188C86.9897 42.452 90.0535 43.6518 92.9864 43.6518C97.2526 43.6518 99.2498 41.5212 99.2498 38.8549C99.2498 36.0528 97.5834 34.5221 93.2531 32.9248C87.4538 30.8584 84.7233 27.6588 84.7233 23.7951C84.7233 18.5982 88.9227 14.332 95.8527 14.332C99.119 14.332 101.983 15.2652 103.783 16.3318L102.316 20.598C101.05 19.7981 98.7166 18.7315 95.7194 18.7315C92.2556 18.7315 90.3226 20.7313 90.3226 23.131C90.3226 25.7973 92.2556 26.9947 96.4526 28.5945C102.052 30.7275 104.916 33.5247 104.916 38.3216C104.916 43.9876 100.519 47.9846 92.8531 47.9846C89.3202 47.9846 86.0564 47.1181 83.79 45.7849L85.2565 41.3188Z" fill="#070707"/>
<path d="M130.31 47.318L129.846 43.2543H129.646C127.846 45.7849 124.38 48.0512 119.783 48.0512C113.25 48.0512 109.92 43.4542 109.92 38.7882C109.92 30.9916 116.852 26.7255 129.313 26.7922V26.1256C129.313 23.4592 128.579 18.6623 121.98 18.6623C118.983 18.6623 115.85 19.5955 113.586 21.062L112.253 17.1983C114.917 15.4652 118.785 14.332 122.849 14.332C132.712 14.332 135.112 21.062 135.112 27.5254V39.5881C135.112 42.3853 135.245 45.1183 135.645 47.318H130.31ZM129.443 30.8584C123.047 30.725 115.783 31.8582 115.783 38.1216C115.783 41.9187 118.314 43.7209 121.314 43.7209C125.511 43.7209 128.177 41.0545 129.11 38.3191C129.31 37.7216 129.443 37.0551 129.443 36.4527V30.8584Z" fill="#070707"/>
<path d="M144.581 23.795C144.581 20.4621 144.514 17.7291 144.316 15.0653H149.447L149.711 20.2621H149.913C151.713 17.1958 154.71 14.332 160.04 14.332C164.442 14.332 167.775 16.9983 169.173 20.7954H169.303C170.306 18.9956 171.57 17.5983 172.905 16.5959C174.839 15.1294 176.969 14.332 180.038 14.332C184.301 14.332 190.632 17.1317 190.632 28.3253V47.318H184.899V29.0586C184.899 22.8618 182.638 19.1289 177.902 19.1289C174.569 19.1289 171.972 21.5953 170.972 24.4616C170.708 25.2615 170.506 26.3255 170.506 27.3946V47.3205H164.778V27.9945C164.778 22.8643 162.512 19.1314 158.046 19.1314C154.382 19.1314 151.715 22.0644 150.78 24.9949C150.446 25.8614 150.316 26.8613 150.316 27.8611V47.3205H144.583V23.795H144.581Z" fill="#070707"/>
<path d="M206.705 5.9982C206.771 7.99795 205.307 9.59777 202.972 9.59777C200.908 9.59777 199.441 7.99795 199.441 5.9982C199.441 3.93179 200.97 2.33203 203.105 2.33203C205.305 2.33203 206.705 3.93179 206.705 5.9982ZM200.175 47.314V15.0613H206.038V47.314H200.175Z" fill="#070707"/>
<path d="M237.762 42.321H237.627C235.896 45.5206 232.299 48.0512 227.1 48.0512C219.567 48.0512 213.435 41.5212 213.435 31.7249C213.435 19.6622 221.231 14.332 228.03 14.332C233.03 14.332 236.363 16.7984 237.957 19.9289H238.093L238.291 15.0653H243.821C243.69 17.7958 243.623 20.5954 243.623 23.9283V60.5114H237.76L237.762 42.321ZM237.762 28.1253C237.762 27.3254 237.696 26.3922 237.498 25.659C236.629 22.0594 233.496 18.9932 229.099 18.9932C223.038 18.9932 219.37 24.1259 219.37 31.3891C219.37 37.7883 222.436 43.3827 228.902 43.3827C232.696 43.3827 235.965 41.0521 237.296 36.986C237.56 36.1861 237.762 35.0529 237.762 34.1863V28.1253Z" fill="#070707"/>
<path d="M272.003 9.66936C272.003 13.8046 268.759 17.0487 264.537 17.0487C260.36 17.0487 257.024 13.8046 257.024 9.66936C257.024 5.62295 260.36 2.37891 264.537 2.37891C268.759 2.37891 272.003 5.62295 272.003 9.66936ZM258.891 9.66936C258.891 12.9134 261.293 15.4933 264.582 15.4933C267.784 15.4933 270.139 12.9159 270.139 9.71381C270.139 6.46977 267.784 3.84786 264.537 3.84786C261.291 3.84786 258.891 6.46729 258.891 9.66936ZM263.379 13.4911H261.69V6.20066C262.357 6.06734 263.29 5.97847 264.49 5.97847C265.87 5.97847 266.492 6.20068 267.023 6.51175C267.423 6.82282 267.734 7.40048 267.734 8.1115C267.734 8.9114 267.112 9.53359 266.223 9.80023V9.88905C266.937 10.1557 267.334 10.689 267.559 11.6691C267.781 12.7801 267.914 13.2245 268.092 13.4911H266.27C266.048 13.2245 265.912 12.5579 265.692 11.7136C265.559 10.9137 265.117 10.5581 264.182 10.5581H263.382V13.4911H263.379ZM263.424 9.35827H264.224C265.157 9.35827 265.912 9.04718 265.912 8.29172C265.912 7.62513 265.426 7.18079 264.357 7.18079C263.912 7.18079 263.601 7.22518 263.424 7.26962V9.35827Z" fill="#070707"/>
</svg>
