<svg width="272" height="72" viewBox="0 0 272 72" fill="none" xmlns="http://www.w3.org/2000/svg">
<mask id="mask0_3125_560" style="mask-type:luminance" maskUnits="userSpaceOnUse" x="0" y="0" width="272" height="72">
<path d="M272 0H0V72H272V0Z" fill="white"/>
</mask>
<g mask="url(#mask0_3125_560)">
<path d="M19.4684 57.1877H26.6565C30.6217 57.1877 33.4456 57.1161 35.1286 56.9726C36.8401 56.8292 38.2949 56.4562 39.493 55.8538C40.6053 55.2799 41.618 54.5198 42.5308 53.573C43.472 52.6548 44.2281 51.6364 44.7986 50.5175C45.3975 49.3126 45.7685 47.8637 45.9111 46.171C46.0537 44.4497 46.1249 41.5951 46.1249 37.6072V30.4205C46.1249 26.404 46.0537 23.5493 45.9111 21.8566C45.7685 20.1641 45.3975 18.7153 44.7986 17.5102C44.2281 16.3626 43.472 15.3298 42.5308 14.4118C41.618 13.4937 40.6053 12.7478 39.493 12.174C38.2949 11.5428 36.8401 11.1555 35.1286 11.012C33.4456 10.8686 30.6217 10.7969 26.6565 10.7969H19.4684C15.5033 10.7969 12.6794 10.8686 10.9964 11.012C9.2849 11.1555 7.83011 11.5428 6.63206 12.174C5.5196 12.7478 4.50695 13.4937 3.59416 14.4118C2.65282 15.3298 1.89691 16.3626 1.32641 17.5102C0.727389 18.7153 0.356562 20.1641 0.213937 21.8566C0.0713123 23.5493 0 26.404 0 30.4205V37.6072C0 41.5951 0.0713123 44.4497 0.213937 46.171C0.356562 47.8637 0.727389 49.3126 1.32641 50.5175C1.89691 51.6364 2.65282 52.6548 3.59416 53.573C4.50695 54.5198 5.5196 55.2799 6.63206 55.8538C7.83011 56.4562 9.2849 56.8292 10.9964 56.9726C12.6794 57.1161 15.5033 57.1877 19.4684 57.1877Z" fill="#3650FF"/>
<path d="M0.0166016 40.6889L13.7346 26.8919C14.191 26.4327 14.7758 26.2032 15.4889 26.2032C16.1165 26.2032 16.6584 26.4041 17.1148 26.8056C17.5713 27.2074 17.7994 27.7668 17.7994 28.4841V42.5132L33.3313 26.8919C33.8162 26.4041 34.401 26.1602 35.0857 26.1602C35.7132 26.1602 36.2551 26.3754 36.7116 26.8056C37.1965 27.236 37.439 27.7955 37.439 28.4841V49.8721H32.5611V34.0355L16.8581 49.657C16.4017 50.0872 15.8312 50.3025 15.1466 50.3025C14.5476 50.3025 14.0199 50.116 13.5635 49.743C13.1356 49.3413 12.9217 48.8249 12.9217 48.1938V34.0355L0.302305 46.9838C0.266667 46.7194 0.237163 46.4485 0.213785 46.1711C0.111072 44.9315 0.0453446 43.1041 0.0166016 40.6889Z" fill="white"/>
<path d="M62.0485 36.2398C62.0485 35.2948 61.7354 34.5073 61.1089 33.8773C60.4825 33.2473 59.6853 32.9323 58.7172 32.9323H55.4287V28.5509H58.3756C59.4291 28.5509 60.2975 28.2073 60.9807 27.52C61.6926 26.8328 62.0485 25.9594 62.0485 24.8998C62.0485 23.4394 62.3901 22.1364 63.0735 20.9909C63.7567 19.8169 64.6964 18.9148 65.8923 18.2848C67.1165 17.6262 68.4833 17.2969 69.9922 17.2969H73.6651V21.6353H70.1631C69.1665 21.6353 68.3408 21.9789 67.6861 22.6661C67.0311 23.3534 66.7036 24.1839 66.7036 25.1575C66.7036 26.1025 67.0311 26.9044 67.6861 27.563C68.3408 28.2217 69.1665 28.5509 70.1631 28.5509H73.6651V32.9323H70.0349C69.0953 32.9323 68.2981 33.2473 67.6433 33.8773C67.0168 34.5073 66.7036 35.2948 66.7036 36.2398V50.0283H62.0485V36.2398ZM77.637 50.0283V17.2969H82.3777V50.0283H77.637ZM97.411 50.5008C95.361 50.5008 93.4676 49.9997 91.7307 48.9973C90.0225 47.995 88.6558 46.6348 87.6308 44.9167C86.6343 43.1986 86.1359 41.3086 86.1359 39.2467C86.1359 37.2134 86.6343 35.3378 87.6308 33.6197C88.6558 31.9014 90.0225 30.5555 91.7307 29.5819C93.4676 28.5797 95.361 28.0784 97.411 28.0784H97.4964C99.5464 28.0784 101.426 28.5797 103.134 29.5819C104.871 30.5555 106.237 31.9014 107.234 33.6197C108.23 35.3378 108.729 37.2134 108.729 39.2467C108.729 41.3086 108.23 43.1986 107.234 44.9167C106.237 46.6348 104.871 47.995 103.134 48.9973C101.426 49.9997 99.5464 50.5008 97.4964 50.5008H97.411ZM97.4964 45.7758C98.6637 45.7758 99.7314 45.4894 100.7 44.9167C101.696 44.3153 102.479 43.5136 103.048 42.5111C103.618 41.5089 103.903 40.4208 103.903 39.2467C103.903 38.0725 103.618 36.9986 103.048 36.025C102.479 35.0228 101.696 34.2353 100.7 33.6625C99.7314 33.0611 98.6637 32.7605 97.4964 32.7605H97.411C96.2436 32.7605 95.1616 33.0469 94.1651 33.6197C93.197 34.1923 92.4141 34.9798 91.8162 35.9822C91.2466 36.9558 90.9619 38.0439 90.9619 39.2467C90.9619 40.4208 91.2466 41.5089 91.8162 42.5111C92.4141 43.5136 93.197 44.3153 94.1651 44.9167C95.1616 45.4894 96.2436 45.7758 97.411 45.7758H97.4964Z" fill="black"/>
<path d="M191.071 28.6365C191.554 28.1782 192.152 27.9492 192.864 27.9492C193.462 27.9492 193.974 28.1353 194.402 28.5076C194.829 28.8798 195.042 29.3667 195.042 29.9679V50.0278H190.302V35.5092L174.927 49.8131C174.443 50.2712 173.873 50.5003 173.218 50.5003C172.621 50.5003 172.094 50.2998 171.638 49.899C171.183 49.4981 170.955 48.9826 170.955 48.3526V35.5092L155.58 49.8131C155.096 50.2712 154.527 50.5003 153.872 50.5003C153.245 50.5003 152.704 50.2998 152.249 49.899C151.822 49.4981 151.608 48.9826 151.608 48.3526V35.2515C151.608 34.4782 151.352 33.8482 150.839 33.3615C150.355 32.8459 149.772 32.5882 149.088 32.5882C148.405 32.5882 147.807 32.8459 147.295 33.3615C146.81 33.8482 146.569 34.4782 146.569 35.2515V43.2409C146.569 44.5868 146.241 45.8182 145.586 46.9351C144.931 48.0232 144.049 48.8967 142.938 49.5553C141.828 50.1853 140.618 50.5003 139.308 50.5003C137.998 50.5003 136.788 50.1853 135.678 49.5553C134.567 48.8967 133.685 48.0232 133.03 46.9351C132.375 45.8182 132.048 44.5868 132.048 43.2409V35.2515C132.048 34.4782 131.791 33.8482 131.279 33.3615C130.795 32.8459 130.211 32.5882 129.528 32.5882C128.845 32.5882 128.247 32.8459 127.734 33.3615C127.25 33.8482 127.008 34.4782 127.008 35.2515V43.2409C127.008 44.5868 126.681 45.8182 126.026 46.9351C125.371 48.0232 124.488 48.8967 123.378 49.5553C122.267 50.1853 121.057 50.5003 119.748 50.5003C118.438 50.5003 117.228 50.1853 116.118 49.5553C115.007 48.8967 114.124 48.0232 113.47 46.9351C112.815 45.8182 112.487 44.5868 112.487 43.2409V28.5504H117.228V43.2409C117.228 44.0142 117.47 44.6584 117.954 45.174C118.466 45.6607 119.064 45.9042 119.748 45.9042C120.431 45.9042 121.015 45.6607 121.499 45.174C122.011 44.6584 122.267 44.0142 122.267 43.2409V35.2515C122.267 33.9054 122.595 32.6884 123.25 31.6003C123.905 30.4834 124.787 29.6101 125.898 28.9801C127.008 28.3215 128.218 27.9921 129.528 27.9921C130.838 27.9921 132.048 28.3215 133.158 28.9801C134.269 29.6101 135.151 30.4834 135.806 31.6003C136.461 32.6884 136.788 33.9054 136.788 35.2515V43.2409C136.788 44.0142 137.03 44.6584 137.514 45.174C138.027 45.6607 138.625 45.9042 139.308 45.9042C139.992 45.9042 140.575 45.6607 141.059 45.174C141.572 44.6584 141.828 44.0142 141.828 43.2409V35.2515C141.828 33.9054 142.155 32.6884 142.81 31.6003C143.465 30.4834 144.348 29.6101 145.458 28.9801C146.569 28.3215 147.779 27.9921 149.088 27.9921C150.398 27.9921 151.608 28.3215 152.719 28.9801C153.829 29.6101 154.712 30.4834 155.367 31.6003C156.021 32.6884 156.349 33.9054 156.349 35.2515V42.9403L171.766 28.6365C172.222 28.1782 172.82 27.9492 173.56 27.9492C174.13 27.9492 174.628 28.1353 175.055 28.5076C175.482 28.8512 175.696 29.3379 175.696 29.9679V42.9403L191.071 28.6365Z" fill="black"/>
<path d="M209.669 50.0282C207.704 50.0282 205.883 49.5557 204.202 48.6107C202.551 47.6371 201.241 46.3197 200.273 44.6588C199.304 42.9979 198.821 41.1938 198.821 39.2466C198.821 37.3279 199.304 35.5524 200.273 33.9202C201.241 32.2593 202.551 30.9563 204.202 30.0113C205.883 29.0377 207.704 28.5508 209.669 28.5508H220.175V50.0282H209.669ZM235.935 28.5508C237.843 28.5508 239.607 29.0377 241.23 30.0113C242.882 30.9563 244.192 32.2593 245.16 33.9202C246.128 35.5524 246.611 37.3279 246.611 39.2466C246.611 41.1938 246.128 42.9979 245.16 44.6588C244.192 46.3197 242.882 47.6371 241.23 48.6107C239.607 49.5557 237.843 50.0282 235.935 50.0282H229.956V61.1963H225.257V28.5508H235.935ZM260.963 28.5508C262.87 28.5508 264.635 29.0377 266.258 30.0113C267.909 30.9563 269.219 32.2593 270.187 33.9202C271.155 35.5524 271.639 37.3279 271.639 39.2466C271.639 41.1938 271.155 42.9979 270.187 44.6588C269.219 46.3197 267.909 47.6371 266.258 48.6107C264.635 49.5557 262.87 50.0282 260.963 50.0282H254.982V61.1963H250.285V28.5508H260.963ZM209.712 45.4321C210.793 45.4321 211.79 45.1599 212.702 44.616C213.613 44.0432 214.338 43.2843 214.88 42.3393C215.42 41.3943 215.691 40.3633 215.691 39.2466C215.691 38.1297 215.42 37.0988 214.88 36.1538C214.338 35.2088 213.613 34.4643 212.702 33.9202C211.79 33.376 210.793 33.1041 209.712 33.1041C208.601 33.1041 207.591 33.376 206.679 33.9202C205.768 34.4643 205.041 35.2088 204.501 36.1538C203.961 37.0988 203.69 38.1297 203.69 39.2466C203.69 40.3633 203.961 41.3943 204.501 42.3393C205.041 43.2843 205.768 44.0432 206.679 44.616C207.591 45.1599 208.601 45.4321 209.712 45.4321ZM235.806 33.1041C234.697 33.1041 233.671 33.3904 232.732 33.9632C231.821 34.5072 231.094 35.2518 230.554 36.1968C230.012 37.1132 229.742 38.1297 229.742 39.2466C229.742 40.3633 230.012 41.4085 230.554 42.3822C231.094 43.3272 231.821 44.0718 232.732 44.616C233.671 45.1599 234.697 45.4321 235.806 45.4321C236.86 45.4321 237.843 45.1599 238.753 44.616C239.664 44.0432 240.391 43.2843 240.931 42.3393C241.473 41.3943 241.744 40.3633 241.744 39.2466C241.744 38.1583 241.473 37.1418 240.931 36.1968C240.391 35.2518 239.664 34.5072 238.753 33.9632C237.843 33.3904 236.86 33.1041 235.806 33.1041ZM260.791 33.1041C259.708 33.1041 258.699 33.3904 257.759 33.9632C256.847 34.5072 256.122 35.2518 255.58 36.1968C255.039 37.1418 254.769 38.1583 254.769 39.2466C254.769 40.3633 255.039 41.3943 255.58 42.3393C256.122 43.2843 256.847 44.0432 257.759 44.616C258.699 45.1599 259.708 45.4321 260.791 45.4321C261.873 45.4321 262.87 45.1599 263.781 44.616C264.692 44.0432 265.418 43.2843 265.959 42.3393C266.499 41.3943 266.769 40.3633 266.769 39.2466C266.769 38.1583 266.499 37.1418 265.959 36.1968C265.418 35.2518 264.692 34.5072 263.781 33.9632C262.87 33.3904 261.873 33.1041 260.791 33.1041Z" fill="black"/>
</g>
</svg>
