<svg width="312" height="638" viewBox="0 0 312 638" fill="none" xmlns="http://www.w3.org/2000/svg">
<path d="M1.13908 189.025C1.22706 189.025 2.01891 189.025 2.01891 189.025V236.009C2.01891 236.009 1.22706 236.009 1.13908 236.009C1.0511 236.009 0.87513 235.736 0.87513 235.555C0.87513 235.373 0.87513 189.571 0.87513 189.389C0.787147 189.208 1.0511 189.025 1.13908 189.025Z" fill="white"/>
<path opacity="0.58" d="M1.39299 189.025C1.48097 189.025 2.27282 189.025 2.27282 189.025V236.009C2.27282 236.009 1.48097 236.009 1.39299 236.009C1.305 236.009 1.12904 235.736 1.12904 235.555C1.12904 235.373 1.12904 189.571 1.12904 189.389C1.04105 189.208 1.305 189.025 1.39299 189.025Z" fill="white"/>
<path d="M1.92969 236.296H3.60137V188.407H1.92969V236.296Z" fill="white"/>
<path d="M311.664 220.5C311.575 220.5 310.783 220.5 310.783 220.5V145.944C310.783 145.944 311.575 145.944 311.664 145.944C311.753 145.944 311.927 146.216 311.927 146.398C311.927 146.488 311.927 219.956 311.927 220.136C311.927 220.227 311.753 220.5 311.664 220.5Z" fill="white"/>
<path d="M311.157 220.5C311.069 220.5 310.276 220.5 310.276 220.5V145.944C310.276 145.944 311.069 145.944 311.157 145.944C311.246 145.944 311.422 146.216 311.422 146.398C311.422 146.488 311.422 219.956 311.422 220.136C311.422 220.227 311.246 220.5 311.157 220.5Z" fill="white"/>
<path d="M310.618 145.582H308.946V220.954H310.618V145.582Z" fill="white"/>
<path d="M1.13993 127.351C1.22791 127.351 2.01976 127.351 2.01976 127.351V174.332C2.01976 174.332 1.22791 174.332 1.13993 174.332C1.05194 174.332 0.875977 174.061 0.875977 173.879C0.875977 173.789 0.875977 127.895 0.875977 127.713C0.875977 127.532 1.05194 127.351 1.13993 127.351Z" fill="white"/>
<path opacity="0.58" d="M1.64481 127.351C1.73279 127.351 2.52463 127.351 2.52463 127.351V174.332C2.52463 174.332 1.73279 174.332 1.64481 174.332C1.55682 174.332 1.38086 174.061 1.38086 173.879C1.38086 173.789 1.38086 127.895 1.38086 127.713C1.38086 127.532 1.55682 127.351 1.64481 127.351Z" fill="white"/>
<path d="M1.92969 174.76H3.60137V126.871H1.92969V174.76Z" fill="white"/>
<path d="M1.59012 82.998C1.67811 82.998 2.46995 82.998 2.46995 82.998V107.215C2.46995 107.215 1.67811 107.215 1.59012 107.215C1.50214 107.215 1.32617 106.943 1.32617 106.761C1.32617 106.671 1.32617 83.5422 1.32617 83.3606C1.32617 83.1795 1.50214 82.998 1.59012 82.998Z" fill="white"/>
<path opacity="0.58" d="M2.09696 82.998C2.18494 82.998 2.97679 82.998 2.97679 82.998V107.215C2.97679 107.215 2.18494 107.215 2.09696 107.215C2.00898 107.215 1.83301 106.943 1.83301 106.761C1.83301 106.671 1.83301 83.5422 1.83301 83.3606C1.83301 83.1795 2.00898 82.998 2.09696 82.998Z" fill="white"/>
<path d="M2.3291 107.486H4.00078V82.3623H2.3291V107.486Z" fill="white"/>
<path d="M272.79 1.34375H40.0902C20.3723 1.34375 4.3877 17.2984 4.3877 36.9793V600.578C4.3877 620.259 20.3723 636.213 40.0902 636.213H272.79C292.508 636.213 308.491 620.259 308.491 600.578V36.9793C308.491 17.2984 292.508 1.34375 272.79 1.34375Z" stroke="white" stroke-width="1.83352"/>
<mask id="mask0_847_198" style="mask-type:alpha" maskUnits="userSpaceOnUse" x="14" y="10" width="285" height="617">
<path d="M274.537 10.9482C261.691 10.9482 240.342 10.9482 239.076 10.9482C236.001 10.9482 234.01 13.2244 233.287 17.3215C230.844 31.8891 222.884 32.8907 220.531 32.8907C218.542 32.8907 94.4301 32.8907 92.3495 32.8907C89.9973 32.8907 81.9466 31.7981 79.5946 17.3215C78.9612 13.2244 76.9712 10.9482 73.8052 10.9482C72.4482 10.9482 51.1901 10.9482 38.3445 10.9482C25.4991 10.9482 14.0107 24.6053 14.0107 37.6251C14.0107 50.6447 14.0107 586.277 14.0107 601.754C14.0107 617.871 30.2936 626.611 38.0733 626.611C42.325 626.611 270.557 626.611 274.808 626.611C282.586 626.611 298.871 617.871 298.871 601.754C298.871 586.277 298.871 44.9999 298.871 37.6251C298.961 24.6053 287.382 10.9482 274.537 10.9482Z" fill="white"/>
</mask>
<g mask="url(#mask0_847_198)">
<path d="M274.537 10.9482C261.691 10.9482 240.342 10.9482 239.076 10.9482C236.001 10.9482 234.01 13.2244 233.287 17.3215C230.844 31.8891 222.884 32.8907 220.531 32.8907C218.542 32.8907 94.4301 32.8907 92.3495 32.8907C89.9973 32.8907 81.9466 31.7981 79.5946 17.3215C78.9612 13.2244 76.9712 10.9482 73.8052 10.9482C72.4482 10.9482 51.1901 10.9482 38.3445 10.9482C25.4991 10.9482 14.0107 24.6053 14.0107 37.6251C14.0107 50.6447 14.0107 586.277 14.0107 601.754C14.0107 617.871 30.2936 626.611 38.0733 626.611C42.325 626.611 270.557 626.611 274.808 626.611C282.586 626.611 298.871 617.871 298.871 601.754C298.871 586.277 298.871 44.9999 298.871 37.6251C298.961 24.6053 287.382 10.9482 274.537 10.9482Z" fill="white" fill-opacity="0.06"/>
</g>
</svg>
