<svg width="952" height="39" viewBox="0 0 952 39" fill="none" xmlns="http://www.w3.org/2000/svg">
<g clip-path="url(#clip0_3025_455)">
<path d="M944.306 11.9976C947.343 11.9976 949.805 9.5357 949.805 6.4988C949.805 3.4619 947.343 1 944.306 1C941.27 1 938.808 3.4619 938.808 6.4988C938.808 9.5357 941.27 11.9976 944.306 11.9976Z" fill="white"/>
<path d="M945.306 13.927V37.6718C945.306 37.9369 945.201 38.1912 945.013 38.3787C944.826 38.5662 944.571 38.6716 944.306 38.6716L7.01111 38.9915C6.74595 38.9915 6.49165 38.8862 6.30415 38.6987C6.11666 38.5112 6.01133 38.2569 6.01133 37.9917V21.2174H0.847455C0.7052 21.2174 0.565307 21.181 0.441052 21.1117C0.316797 21.0425 0.212302 20.9426 0.137484 20.8216C0.0626661 20.7006 0.0200066 20.5625 0.0135545 20.4204C0.00710249 20.2783 0.0370716 20.1369 0.100618 20.0096L6.26427 7.68233C6.33357 7.54358 6.44016 7.42688 6.57207 7.34532C6.70399 7.26375 6.85601 7.22055 7.01111 7.22055C7.1662 7.22055 7.31823 7.26375 7.45014 7.34532C7.58206 7.42688 7.68864 7.54358 7.75794 7.68233L13.9216 20.0096C13.9851 20.1369 14.0151 20.2783 14.0087 20.4204C14.0022 20.5625 13.9595 20.7006 13.8847 20.8216C13.8099 20.9426 13.7054 21.0425 13.5812 21.1117C13.4569 21.181 13.317 21.2174 13.1748 21.2174H8.01089V36.9919L943.306 36.672V13.927C941.558 13.6707 939.971 12.7627 938.864 11.385C937.757 10.0073 937.212 8.26192 937.339 6.49921C937.465 4.73649 938.254 3.08687 939.546 1.8814C940.839 0.675935 942.539 0.00384287 944.306 1.13658e-05C946.078 -0.00317948 947.784 0.665585 949.082 1.8714C950.38 3.07722 951.172 4.73036 951.299 6.49736C951.426 8.26435 950.878 10.0137 949.766 11.3925C948.654 12.7714 947.06 13.6771 945.306 13.927ZM944.306 1.99957C942.98 1.99957 941.709 2.52624 940.771 3.46372C939.834 4.4012 939.307 5.67269 939.307 6.99848C939.307 8.32427 939.834 9.59577 940.771 10.5332C941.709 11.4707 942.98 11.9974 944.306 11.9974C945.632 11.9974 946.903 11.4707 947.841 10.5332C948.778 9.59577 949.305 8.32427 949.305 6.99848C949.305 5.67269 948.778 4.4012 947.841 3.46372C946.903 2.52624 945.632 1.99957 944.306 1.99957Z" fill="#6BB64A"/>
</g>
<defs>
<clipPath id="clip0_3025_455">
<rect width="951.792" height="38.9915" fill="white" transform="translate(0.0126953)"/>
</clipPath>
</defs>
</svg>
