<svg width="88" height="80" viewBox="0 0 88 80" fill="none" xmlns="http://www.w3.org/2000/svg">
<path d="M35.2135 80V41.6199H18.8571C18.8571 35.4725 20.0137 30.3219 22.3267 26.1682C24.6397 21.8484 28.9353 18.6085 35.2135 16.4486V0C30.0918 0.664591 25.3006 2.24299 20.8397 4.7352C16.5441 7.06126 12.8268 10.0519 9.68766 13.7072C6.54856 17.3624 4.07032 21.5992 2.25294 26.4174C0.600785 31.2357 -0.142686 36.3863 0.0225293 41.8692V80H35.2135ZM88 80V41.6199H71.6436C71.6436 35.4725 72.8001 30.3219 75.1132 26.1682C77.4262 21.8484 81.7218 18.6085 88 16.4486V0C82.8783 0.664591 78.087 2.24299 73.6262 4.7352C69.3306 7.06126 65.6132 10.0519 62.4741 13.7072C59.335 17.3624 56.8568 21.5992 55.0394 26.4174C53.3873 31.2357 52.6438 36.3863 52.809 41.8692V80H88Z" fill="#6BB64A"/>
</svg>
