<svg width="80" height="71" viewBox="0 0 80 71" fill="none" xmlns="http://www.w3.org/2000/svg">
<g clip-path="url(#clip0_1559_10101)">
<path d="M65.3177 22.7972C64.515 22.5173 63.6425 22.2375 62.7701 21.9925C62.9098 21.3977 63.0493 20.838 63.1539 20.2432C65.0733 10.9015 63.8171 3.34425 59.5246 0.89514C55.4067 -1.484 48.6716 1.0001 41.9016 6.91296C41.2385 7.47275 40.6104 8.10253 39.9473 8.7323C39.4937 8.31245 39.0749 7.8926 38.6561 7.50774C31.5021 1.17504 24.3831 -1.51899 20.0908 1.0001C15.9729 3.37924 14.7515 10.4467 16.4964 19.2985C16.6708 20.1382 16.8454 21.0128 17.0896 21.9225C16.0776 22.2024 15.1005 22.5173 14.1582 22.8323C5.8178 25.7711 0.478516 30.3545 0.478516 35.0777C0.478516 39.976 6.20166 44.8742 14.8911 47.8831C15.5891 48.128 16.2869 48.3379 17.0198 48.548C16.7756 49.4925 16.5661 50.4372 16.3917 51.3818C14.7515 60.0937 16.0427 67.0212 20.1257 69.3654C24.3482 71.8145 31.4672 69.2953 38.3769 63.2425C38.9352 62.7528 39.4588 62.263 40.0171 61.7381C40.7151 62.4378 41.448 63.0677 42.1458 63.6973C48.8462 69.4703 55.4766 71.8145 59.5596 69.4353C63.7822 66.9862 65.178 59.5689 63.3634 50.5072C63.2237 49.8075 63.0842 49.1077 62.8749 48.408C63.3634 48.268 63.8519 48.0931 64.3405 47.9532C73.3789 44.9443 79.2766 40.0809 79.2766 35.1478C79.3464 30.3195 73.8325 25.7362 65.3177 22.7972ZM44.1001 9.46704C49.9279 4.39388 55.3718 2.39959 57.8495 3.79909C60.5018 5.33854 61.5138 11.4963 59.8736 19.5434C59.7689 20.0682 59.6643 20.593 59.5246 21.1178C56.2444 20.3481 52.6848 19.7883 48.9857 19.4385C46.8221 16.3595 44.5886 13.5256 42.3204 11.1114C42.9136 10.5516 43.5069 9.99185 44.1001 9.46704ZM25.5348 35.1827C26.5467 33.0485 27.6635 30.9143 28.8849 28.815C30.1063 26.6809 31.3975 24.6516 32.7235 22.7272C35.0617 22.5523 37.4696 22.4474 39.9124 22.4474C42.3553 22.4474 44.7632 22.5523 47.1012 22.7272C48.3924 24.6516 49.6837 26.6809 50.9051 28.815C52.1265 30.9493 53.278 33.0834 54.2901 35.1478C53.278 37.247 52.1265 39.4162 50.9051 41.5505C49.6837 43.6846 48.3924 45.749 47.1361 47.6732C44.7981 47.8482 42.3901 47.9181 39.9124 47.9181C37.4696 47.9181 35.0617 47.8482 32.7584 47.7082C31.4324 45.749 30.1412 43.6846 28.9198 41.5854C27.6984 39.4162 26.5816 37.2819 25.5348 35.1827ZM23.755 39.1362C24.4529 40.5008 25.2207 41.8653 25.9884 43.2298C26.7911 44.6293 27.6286 45.9589 28.4661 47.2883C25.8838 47.0085 23.4409 46.6236 21.2074 46.1337C21.9054 43.8596 22.743 41.5154 23.755 39.1362ZM23.755 31.1942C22.7778 28.85 21.9403 26.5758 21.2423 24.3367C23.5107 23.8469 25.8838 23.4269 28.3963 23.1121C27.5588 24.4066 26.7562 25.7362 25.9884 27.1007C25.2207 28.4651 24.4529 29.8296 23.755 31.1942ZM53.8365 43.1949C54.6391 41.7954 55.4067 40.3959 56.1396 38.9964C57.1866 41.4105 58.0939 43.7196 58.7919 45.9589C56.4886 46.4836 54.0458 46.9035 51.4285 47.2184C52.2312 45.9238 53.0338 44.5944 53.8365 43.1949ZM56.0698 31.1942C55.3718 29.8296 54.6042 28.4651 53.8016 27.0656C53.0338 25.7012 52.2312 24.4066 51.3937 23.1121C53.9062 23.4269 56.3142 23.8469 58.5824 24.3716C57.9195 26.5758 57.0819 28.85 56.0698 31.1942ZM39.9473 13.5256C41.5177 15.2049 43.0531 17.0943 44.5886 19.1585C43.0531 19.0886 41.4828 19.0536 39.9124 19.0536C38.342 19.0536 36.8065 19.0886 35.2711 19.1585C36.8065 17.1293 38.3769 15.24 39.9473 13.5256ZM21.7659 3.90405C24.418 2.36461 30.2458 4.56881 36.3878 10.0268C36.7716 10.3767 37.1904 10.7266 37.5743 11.1114C35.2711 13.5606 33.0028 16.3945 30.874 19.4385C27.1749 19.7883 23.6154 20.3481 20.335 21.0829C20.1257 20.2432 19.9511 19.4385 19.7767 18.6338C18.311 11.0765 19.2882 5.33854 21.7659 3.90405ZM17.9271 45.2941C17.2641 45.0841 16.601 44.9092 15.9729 44.6993C12.1342 43.3698 8.95855 41.6554 6.76003 39.8011C4.80577 38.1216 3.82865 36.4423 3.82865 35.1128C3.82865 32.2438 8.12102 28.5701 15.2401 26.051C16.1125 25.7362 17.0198 25.4562 17.962 25.2113C18.9392 28.4301 20.2304 31.789 21.8008 35.1827C20.2304 38.6115 18.9392 42.0403 17.9271 45.2941ZM36.1784 60.6885C33.1074 63.3825 30.0365 65.2719 27.3494 66.2165C24.9065 67.0911 22.9873 67.0911 21.8357 66.4264C19.3579 64.9919 18.311 59.4289 19.7418 51.9766C19.9163 51.1369 20.0908 50.2623 20.3001 49.3526C23.5456 50.0524 27.1052 50.5771 30.9438 50.892C33.1423 53.9709 35.4107 56.805 37.7138 59.289C37.1904 59.7788 36.7019 60.2687 36.1784 60.6885ZM40.052 56.8749C38.4467 55.1605 36.8763 53.2362 35.306 51.1719C36.8065 51.2419 38.342 51.2769 39.9124 51.2769C41.5177 51.2769 43.123 51.2419 44.6584 51.1719C43.123 53.2712 41.5875 55.1605 40.052 56.8749ZM60.5018 61.5632C60.0482 64.1173 59.071 65.7966 57.9195 66.4615C55.4418 67.8958 50.1374 66.0415 44.3793 61.0734C43.7162 60.5136 43.0531 59.9188 42.3901 59.2541C44.6235 56.805 46.8221 53.9709 48.9857 50.8571C52.7895 50.5072 56.3839 49.9474 59.6643 49.2127C59.8387 49.8774 59.9784 50.5072 60.0831 51.1369C60.8857 55.1255 61.0252 58.7642 60.5018 61.5632ZM63.3634 44.6993C62.9446 44.8392 62.491 44.9791 62.0373 45.1191C61.0252 41.9352 59.6992 38.5765 58.059 35.1128C59.6294 31.719 60.9206 28.3952 61.8977 25.2464C62.7003 25.4913 63.5029 25.7362 64.2358 25.9811C71.5294 28.5002 75.9962 32.2088 75.9962 35.0777C75.9612 38.1567 71.1455 42.1102 63.3634 44.6993Z" fill="white"/>
<path d="M44.8871 40.0729C47.6401 37.3129 47.6401 32.8381 44.8871 30.0781C42.1343 27.3181 37.6711 27.3181 34.9181 30.0781C32.1653 32.8381 32.1653 37.3129 34.9181 40.0729C37.6711 42.8329 42.1343 42.8329 44.8871 40.0729Z" fill="white"/>
</g>
<defs>
<clipPath id="clip0_1559_10101">
<rect width="79.1504" height="70.3559" fill="white" transform="translate(0.478516)"/>
</clipPath>
</defs>
</svg>
