<svg width="79" height="71" viewBox="0 0 79 71" fill="none" xmlns="http://www.w3.org/2000/svg">
<path d="M64.8395 22.7972C64.0368 22.5173 63.1643 22.2375 62.2919 21.9925C62.4315 21.3977 62.5711 20.838 62.6757 20.2432C64.5951 10.9015 63.3388 3.34425 59.0464 0.89514C54.9285 -1.484 48.1934 1.0001 41.4234 6.91296C40.7603 7.47275 40.1322 8.10253 39.4691 8.7323C39.0155 8.31245 38.5967 7.8926 38.1779 7.50774C31.0239 1.17504 23.9049 -1.51899 19.6126 1.0001C15.4947 3.37924 14.2733 10.4467 16.0182 19.2985C16.1926 20.1382 16.3672 21.0128 16.6113 21.9225C15.5994 22.2024 14.6223 22.5173 13.68 22.8323C5.33959 25.7711 0.000305176 30.3545 0.000305176 35.0777C0.000305176 39.976 5.72345 44.8742 14.4129 47.8831C15.1109 48.128 15.8087 48.3379 16.5416 48.548C16.2974 49.4925 16.0879 50.4372 15.9135 51.3818C14.2733 60.0937 15.5645 67.0212 19.6475 69.3654C23.87 71.8145 30.989 69.2953 37.8987 63.2425C38.457 62.7528 38.9806 62.263 39.5389 61.7381C40.2369 62.4378 40.9697 63.0677 41.6676 63.6973C48.368 69.4703 54.9984 71.8145 59.0814 69.4353C63.304 66.9862 64.6998 59.5689 62.8852 50.5072C62.7455 49.8075 62.606 49.1077 62.3967 48.408C62.8852 48.268 63.3737 48.0931 63.8623 47.9532C72.9007 44.9443 78.7984 40.0809 78.7984 35.1478C78.8682 30.3195 73.3543 25.7362 64.8395 22.7972ZM43.6219 9.46704C49.4497 4.39388 54.8936 2.39959 57.3713 3.79909C60.0236 5.33854 61.0356 11.4963 59.3954 19.5434C59.2907 20.0682 59.1861 20.593 59.0464 21.1178C55.7662 20.3481 52.2066 19.7883 48.5075 19.4385C46.3439 16.3595 44.1104 13.5256 41.8422 11.1114C42.4354 10.5516 43.0287 9.99185 43.6219 9.46704ZM25.0566 35.1827C26.0685 33.0485 27.1853 30.9143 28.4067 28.815C29.6281 26.6809 30.9193 24.6516 32.2453 22.7272C34.5835 22.5523 36.9914 22.4474 39.4342 22.4474C41.877 22.4474 44.285 22.5523 46.623 22.7272C47.9142 24.6516 49.2055 26.6809 50.4269 28.815C51.6483 30.9493 52.7998 33.0834 53.8119 35.1478C52.7998 37.247 51.6483 39.4162 50.4269 41.5505C49.2055 43.6846 47.9142 45.749 46.6579 47.6732C44.3199 47.8482 41.9119 47.9181 39.4342 47.9181C36.9914 47.9181 34.5835 47.8482 32.2802 47.7082C30.9541 45.749 29.663 43.6846 28.4416 41.5854C27.2201 39.4162 26.1034 37.2819 25.0566 35.1827ZM23.2768 39.1362C23.9747 40.5008 24.7424 41.8653 25.5102 43.2298C26.3128 44.6293 27.1504 45.9589 27.9879 47.2883C25.4055 47.0085 22.9627 46.6236 20.7292 46.1337C21.4272 43.8596 22.2647 41.5154 23.2768 39.1362ZM23.2768 31.1942C22.2996 28.85 21.4621 26.5758 20.7641 24.3367C23.0325 23.8469 25.4055 23.4269 27.9181 23.1121C27.0806 24.4066 26.278 25.7362 25.5102 27.1007C24.7424 28.4651 23.9747 29.8296 23.2768 31.1942ZM53.3583 43.1949C54.1609 41.7954 54.9285 40.3959 55.6614 38.9964C56.7084 41.4105 57.6157 43.7196 58.3137 45.9589C56.0104 46.4836 53.5676 46.9035 50.9503 47.2184C51.753 45.9238 52.5556 44.5944 53.3583 43.1949ZM55.5916 31.1942C54.8936 29.8296 54.126 28.4651 53.3234 27.0656C52.5556 25.7012 51.753 24.4066 50.9154 23.1121C53.428 23.4269 55.836 23.8469 58.1042 24.3716C57.4413 26.5758 56.6037 28.85 55.5916 31.1942ZM39.4691 13.5256C41.0395 15.2049 42.5749 17.0943 44.1104 19.1585C42.5749 19.0886 41.0046 19.0536 39.4342 19.0536C37.8638 19.0536 36.3283 19.0886 34.7929 19.1585C36.3283 17.1293 37.8987 15.24 39.4691 13.5256ZM21.2877 3.90405C23.9398 2.36461 29.7676 4.56881 35.9095 10.0268C36.2934 10.3767 36.7122 10.7266 37.0961 11.1114C34.7929 13.5606 32.5245 16.3945 30.3958 19.4385C26.6967 19.7883 23.1372 20.3481 19.8568 21.0829C19.6475 20.2432 19.4729 19.4385 19.2985 18.6338C17.8328 11.0765 18.81 5.33854 21.2877 3.90405ZM17.4489 45.2941C16.7859 45.0841 16.1228 44.9092 15.4947 44.6993C11.656 43.3698 8.48034 41.6554 6.28182 39.8011C4.32756 38.1216 3.35044 36.4423 3.35044 35.1128C3.35044 32.2438 7.64281 28.5701 14.7619 26.051C15.6343 25.7362 16.5416 25.4562 17.4838 25.2113C18.461 28.4301 19.7522 31.789 21.3226 35.1827C19.7522 38.6115 18.461 42.0403 17.4489 45.2941ZM35.7002 60.6885C32.6292 63.3825 29.5583 65.2719 26.8711 66.2165C24.4283 67.0911 22.5091 67.0911 21.3574 66.4264C18.8797 64.9919 17.8328 59.4289 19.2636 51.9766C19.438 51.1369 19.6126 50.2623 19.8219 49.3526C23.0674 50.0524 26.627 50.5771 30.4656 50.892C32.6641 53.9709 34.9325 56.805 37.2356 59.289C36.7122 59.7788 36.2237 60.2687 35.7002 60.6885ZM39.5738 56.8749C37.9685 55.1605 36.3981 53.2362 34.8278 51.1719C36.3283 51.2419 37.8638 51.2769 39.4342 51.2769C41.0395 51.2769 42.6448 51.2419 44.1802 51.1719C42.6448 53.2712 41.1093 55.1605 39.5738 56.8749ZM60.0236 61.5632C59.57 64.1173 58.5927 65.7966 57.4413 66.4615C54.9636 67.8958 49.6591 66.0415 43.9011 61.0734C43.238 60.5136 42.5749 59.9188 41.9119 59.2541C44.1453 56.805 46.3439 53.9709 48.5075 50.8571C52.3113 50.5072 55.9057 49.9474 59.1861 49.2127C59.3605 49.8774 59.5002 50.5072 59.6048 51.1369C60.4075 55.1255 60.547 58.7642 60.0236 61.5632ZM62.8852 44.6993C62.4664 44.8392 62.0128 44.9791 61.5591 45.1191C60.547 41.9352 59.221 38.5765 57.5808 35.1128C59.1512 31.719 60.4424 28.3952 61.4194 25.2464C62.2221 25.4913 63.0247 25.7362 63.7576 25.9811C71.0512 28.5002 75.518 32.2088 75.518 35.0777C75.483 38.1567 70.6673 42.1102 62.8852 44.6993Z" fill="#6BB64A"/>
</svg>
