<svg width="66" height="67" viewBox="0 0 66 67" fill="none" xmlns="http://www.w3.org/2000/svg">
<path d="M33.0856 66.259C51.1652 66.259 65.8217 51.6026 65.8217 33.523C65.8217 15.4435 51.1652 0.786987 33.0856 0.786987C15.0061 0.786987 0.349609 15.4435 0.349609 33.523C0.349609 51.6026 15.0061 66.259 33.0856 66.259Z" fill="white"/>
<path d="M47.2989 3.72301C42.993 1.67675 38.1758 0.53125 33.0909 0.53125C24.2205 0.53125 16.1641 4.01661 10.2166 9.69248C3.89346 15.7272 58.4908 9.04288 47.2989 3.72327V3.72301Z" fill="white"/>
<path d="M59.0191 12.9932C59.0571 13.0405 56.3164 16.7034 48.0797 17.7433C31.4547 19.8422 2.9119 20.0639 2.95513 19.9696C4.71215 16.1136 7.19068 12.6293 10.257 9.70477C13.8442 10.825 17.7487 11.1037 21.442 10.4234C27.5402 9.30759 32.9653 5.78411 38.9975 4.34808C41.6746 3.70487 44.5918 3.5169 47.3391 3.7353C51.9042 5.90483 55.8942 9.0879 59.0191 12.9932Z" fill="#DBDBDB"/>
<path d="M65.8098 28.4954C65.8308 28.6289 28.3203 32.155 10.0441 31.1271C4.08918 30.7924 0.575171 27.1921 0.615579 26.996C1.11137 24.5775 1.87791 22.2224 2.90071 19.9753C8.18068 17.0854 14.3926 15.4174 20.4163 15.4831C27.9699 15.5606 35.3802 18.0789 42.934 17.8913C48.5436 17.7486 54.1981 15.9581 58.9645 12.999C62.4774 17.3893 64.8969 22.6923 65.8098 28.4957V28.4954Z" fill="#BCBCBC"/>
<path d="M66.1107 33.5001C66.1107 33.6837 66.1064 34.0499 66.1064 34.0499C66.1064 34.0499 55.6879 36.6778 42.2699 36.5211C23.4762 36.3013 -0.162621 33.27 -0.162109 33.2142C-0.143439 31.0157 0.0890373 28.8682 0.51614 26.7915C5.01889 29.5697 10.4794 30.9303 15.7353 30.3577C19.9145 29.905 23.8845 28.3585 27.755 26.7128C31.6255 25.0667 35.4742 23.2995 39.5654 22.3496C45.5753 20.9578 52.004 21.4438 57.7491 23.7082C60.5443 24.8104 63.3174 26.3951 65.706 28.3058C65.9761 30.0241 66.1113 31.7608 66.1107 33.5001Z" fill="white"/>
<path d="M28.5316 44.2687C18.5898 46.1048 1.52814 43.9871 1.48518 43.8562C0.416142 40.6005 -0.162109 37.1223 -0.162109 33.5093C-0.162109 33.414 -0.161598 33.3185 -0.160831 33.2234C1.34835 32.0265 3.11123 30.9594 4.83218 30.1304C9.08889 28.0649 13.919 27.2032 18.6274 27.6673C23.281 28.1312 27.7249 29.8542 32.0256 31.7099C35.6488 33.2733 39.2488 34.9622 43.0096 36.1293C43.3779 36.2433 39.4751 42.2478 28.5316 44.2687Z" fill="white"/>
<path d="M64.9546 42.4364C64.2604 43.6087 57.658 47.5583 48.708 48.2347C36.8578 49.1303 22.8585 45.5483 27.5025 43.7254C34.8136 40.8536 41.1544 35.6953 48.708 33.5415C54.3508 31.9251 60.606 32.1803 66.1456 34.1337C66.1018 36.9405 65.7016 39.7305 64.9546 42.4364Z" fill="#A3A3A3"/>
<path d="M61.8789 50.0376C56.157 59.9718 14.6577 62.463 8.5951 55.7805C5.50922 52.379 3.12026 48.333 1.6543 43.8689C6.75063 40.9559 12.7165 39.7191 18.4507 40.5032C25.8721 41.5194 32.5216 45.6618 39.8437 47.2743C45.754 48.5776 52.0179 48.1689 57.7079 46.1145C60.2801 45.1784 62.8305 43.9244 65.086 42.3738C64.3447 45.0535 63.2671 47.6286 61.8789 50.0376Z" fill="white"/>
<path d="M61.7448 49.8987C56.035 59.8784 45.2839 66.6034 32.9624 66.6034C23.2274 66.6034 14.4727 62.4054 8.41016 55.7211C9.41601 56.1056 10.5413 56.438 11.5728 56.7285C17.3399 58.3194 23.5483 58.275 29.2824 56.585C32.9547 55.5024 36.4061 53.7794 40.0122 52.476C46.8929 49.9946 54.4664 49.121 61.7448 49.8984V49.8987Z" fill="#A3A3A3"/>
</svg>
