<svg width="24" height="25" viewBox="0 0 24 25" fill="none" xmlns="http://www.w3.org/2000/svg">
<path fill-rule="evenodd" clip-rule="evenodd" d="M16.2521 1.87703C16.2521 2.91373 15.4118 3.75406 14.3751 3.75406C13.3386 3.75406 12.498 2.91373 12.498 1.87703C12.498 0.840531 13.3386 0 14.3751 0C15.4118 0 16.2521 0.840531 16.2521 1.87703Z" fill="#6BB64A"/>
<path fill-rule="evenodd" clip-rule="evenodd" d="M21.8386 21.9818H19.9388C17.4128 17.2282 18.3571 12.6148 19.2311 10.1344L19.6781 10.235L20.1431 8.17149C20.1722 8.08966 20.1901 8.00413 20.2004 7.91704L20.6084 6.10604L18.6519 5.66494L18.4095 6.74179L15.7048 7.36002L14.0795 4.72391C13.9176 4.46166 13.6674 4.28865 13.3913 4.21501C13.2366 4.13065 13.0726 4.06051 12.8914 4.02427C11.9251 3.82788 10.9801 4.45504 10.7843 5.42357L9.6956 10.8113L8.91238 14.3027L4.96604 14.1289C4.22312 14.0974 3.59891 14.6705 3.56639 15.4109C3.53365 16.1511 4.10765 16.7781 4.84818 16.8108L9.9172 17.0335C10.5769 17.0648 11.1437 16.6206 11.2853 15.9862L11.7588 13.8754L12.7703 16.0548L10.3959 20.7076C10.1826 21.1257 10.2105 21.6019 10.4261 21.9818H1.342C0.60107 21.9818 0 22.5827 0 23.3238C0 24.0646 0.600871 24.6658 1.342 24.6658H21.839C22.5798 24.6658 23.181 24.0648 23.181 23.3238C23.181 22.5825 22.58 21.9816 21.839 21.9816L21.8386 21.9818ZM12.7849 21.9282L15.4582 16.6931C15.6458 16.3254 15.6538 15.8915 15.48 15.5167L13.3287 10.8896L13.7803 8.65481L14.1674 9.28276C14.3818 9.63015 14.7576 9.83356 15.1537 9.83356C15.2392 9.83356 15.3257 9.82382 15.412 9.80414L17.8445 9.24811L17.7216 9.79501L18.2496 9.91366C17.3547 12.518 16.4511 17.1503 18.8111 21.982L12.753 21.9818C12.7633 21.9631 12.7756 21.9473 12.785 21.928L12.7849 21.9282Z" fill="#6BB64A"/>
</svg>
