<svg width="24" height="32" viewBox="0 0 24 32" fill="none" xmlns="http://www.w3.org/2000/svg">
<path d="M12.1953 10.6172H16.1953C16.1752 9.20468 16.0352 7.85372 15.7997 6.61719C14.6283 6.73158 13.4168 6.78838 12.1954 6.80271L12.1953 10.6172Z" fill="#6BB64A"/>
<path d="M11.1953 5.61718V0.617188C9.9262 0.975959 8.81742 2.85637 8.19531 5.46329C9.17087 5.55482 10.1767 5.60533 11.1953 5.61719V5.61718Z" fill="#6BB64A"/>
<path d="M7.19531 10.6172H11.1953V6.79815C9.96892 6.78858 8.76227 6.72667 7.59095 6.61719C7.35544 7.85519 7.21548 9.20299 7.19537 10.6172L7.19531 10.6172Z" fill="#6BB64A"/>
<path d="M21.1953 4.80443C19.5361 2.718 17.0619 1.19503 14.1953 0.617188C15.2579 1.70383 16.1175 3.453 16.6521 5.61719C18.2807 5.43248 19.8151 5.15941 21.1953 4.80443Z" fill="#6BB64A"/>
<path d="M6.19525 6.54166C4.56495 6.33424 3.03325 6.02284 1.66593 5.61719C0.801482 7.09834 0.275254 8.80119 0.195312 10.6172H5.82877C5.84293 9.17364 5.97429 7.80118 6.19531 6.54166H6.19525Z" fill="#6BB64A"/>
<path d="M17.5618 10.6172H23.1953C23.1153 8.80119 22.5891 7.09834 21.7247 5.61719C20.3526 6.02282 18.8209 6.33425 17.1953 6.54166C17.4163 7.80118 17.5477 9.1737 17.5619 10.6172H17.5618Z" fill="#6BB64A"/>
<path d="M9.19525 0.617188C6.73798 1.19566 4.61706 2.71887 3.19531 4.80559C4.37817 5.15999 5.69319 5.433 7.08955 5.61719C7.54781 3.45319 8.28437 1.7038 9.19531 0.617188H9.19525Z" fill="#6BB64A"/>
<path d="M12.1953 0.617188V5.61719C13.2145 5.60509 14.2202 5.55434 15.1953 5.46257C14.5731 2.85594 13.4643 0.975971 12.1953 0.617194V0.617188Z" fill="#6BB64A"/>
<path d="M22.7161 12.6172H0.674479C0.410828 12.6172 0.195312 12.8308 0.195312 13.0922V29.2422C0.195312 30.5532 1.26865 31.6172 2.59115 31.6172H20.7995C22.122 31.6172 23.1953 30.5532 23.1953 29.2422V13.0922C23.1953 12.8308 22.9798 12.6172 22.7161 12.6172ZM17.4453 18.7257V19.7422C17.4453 22.8867 14.8674 25.4422 11.6953 25.4422C8.52323 25.4422 5.94531 22.8867 5.94531 19.7422V18.7257C5.12121 18.512 4.50781 17.7757 4.50781 16.8922C4.50781 15.8425 5.36559 14.9922 6.42448 14.9922C7.47851 14.9922 8.34115 15.8425 8.34115 16.8922C8.34115 17.7757 7.72775 18.512 6.90365 18.7257V19.7422C6.90365 22.3594 9.05024 24.4922 11.6953 24.4922C14.3355 24.4922 16.487 22.3594 16.487 19.7422V18.7257C15.6629 18.512 15.0495 17.7757 15.0495 16.8922C15.0495 15.8425 15.9073 14.9922 16.9661 14.9922C18.0202 14.9922 18.8828 15.8425 18.8828 16.8922C18.8828 17.7757 18.2694 18.512 17.4453 18.7257Z" fill="#6BB64A"/>
</svg>
