<svg width="27" height="29" viewBox="0 0 27 29" fill="none" xmlns="http://www.w3.org/2000/svg">
<path fill-rule="evenodd" clip-rule="evenodd" d="M21.6626 7.69908L19.9144 6.86196L21.2056 4.3853L26.3374 6.84411V13.2335H23.4485V9.93783L21.206 11.0119L19.9131 8.53667L21.6626 7.69908ZM21.9434 21.4012L18.3496 19.2495L19.882 16.9042L23.4491 19.0399V16.0004H26.3379V22.3916L21.2061 24.8489L19.9132 22.3737L21.9434 21.4012ZM3.22672 19.0399L6.79382 16.9042L8.32613 19.2495L4.73242 21.4012L6.76262 22.3735L5.46968 24.8488L0.337891 22.3914V16.0002H3.22672V19.0399ZM3.22721 9.93819V13.2339H0.338374V6.84447L5.47016 4.38566L6.76137 6.86232L5.01314 7.69943L6.76261 8.53726L5.46966 11.0125L3.22721 9.93819ZM14.7818 4.40422V7.6992H11.8932V4.40398L9.65094 5.47782L8.35825 3.00258L13.337 0.617188L18.3172 3.00258L17.0245 5.47782L14.7818 4.40422ZM11.8932 24.8313V20.1519H14.7818V24.8313L17.025 23.7566L18.3162 26.2318L13.3374 28.6172L8.35868 26.2318L9.64989 23.7566L11.8932 24.8313ZM11.8932 14.0888L8.35874 12.3953L9.64995 9.9201L13.3374 11.687L17.0249 9.9201L18.3161 12.3953L14.7817 14.0888V17.3845H11.8931L11.8932 14.0888Z" fill="#6BB64A"/>
</svg>
