<svg width="31" height="25" viewBox="0 0 31 25" fill="none" xmlns="http://www.w3.org/2000/svg">
<path d="M12.8269 0.609375H18.773C24.3789 0.609375 27.1816 0.609375 28.9233 2.35111C30.1773 3.60485 30.5284 5.40902 30.6267 8.41341H0.973284C1.07158 5.40902 1.42271 3.60485 2.67667 2.35111C4.41815 0.609375 7.22123 0.609375 12.827 0.609375H12.8269Z" fill="#6BB64A"/>
<path fill-rule="evenodd" clip-rule="evenodd" d="M12.8278 24.3909H18.7739C24.3799 24.3909 27.1826 24.3909 28.9243 22.6492C30.6658 20.9079 30.6658 18.1049 30.6658 12.4988C30.6658 11.8419 30.6658 11.2234 30.663 10.6406H0.938894C0.936155 11.2234 0.936155 11.8418 0.936155 12.4988C0.936155 18.1047 0.936155 20.9081 2.67764 22.6492C4.41911 24.3909 7.22219 24.3909 12.828 24.3909H12.8278ZM9.7886 12.8702C9.14504 12.8702 8.55531 12.8702 8.07522 12.9347C7.5469 13.0058 6.98845 13.1728 6.52907 13.6322C6.06968 14.0916 5.90245 14.65 5.83154 15.1785C5.76684 15.6583 5.76684 16.2481 5.76709 16.8917V17.0246C5.76684 17.6681 5.76684 18.2578 5.83154 18.7377C5.90247 19.2663 6.0697 19.8246 6.52907 20.284C6.98845 20.7434 7.5469 20.9104 8.07522 20.9816C8.55526 21.046 9.14504 21.046 9.7886 21.046H9.92149C10.5651 21.046 11.1548 21.046 11.6346 20.9816C12.1629 20.9104 12.7216 20.7434 13.1808 20.284C13.6404 19.8246 13.8074 19.2662 13.8785 18.7377C13.943 18.2579 13.943 17.6681 13.9428 17.0246V16.8917C13.943 16.2481 13.943 15.6584 13.8785 15.1785C13.8074 14.65 13.6404 14.0916 13.1808 13.6322C12.7216 13.1728 12.1629 13.0058 11.6346 12.9347C11.1548 12.8702 10.5651 12.8702 9.92149 12.8702H9.7886ZM25.835 14.7284C25.835 14.1127 25.3358 13.6135 24.7201 13.6135H21.7471C21.1314 13.6135 20.6322 14.1127 20.6322 14.7284C20.6322 15.3441 21.1314 15.8433 21.7471 15.8433H24.7201C25.3358 15.8433 25.835 15.3441 25.835 14.7284ZM25.835 19.1879C25.835 18.5722 25.3358 18.073 24.7201 18.073H18.7743C18.1586 18.073 17.6594 18.5722 17.6594 19.1879C17.6594 19.8035 18.1586 20.3027 18.7743 20.3027H24.7201C25.3358 20.3027 25.835 19.8035 25.835 19.1879Z" fill="#6BB64A"/>
<path d="M11.6036 15.2106L11.6002 15.2086C11.5974 15.2071 11.5925 15.2046 11.585 15.2016C11.5526 15.1882 11.4807 15.1655 11.3371 15.1461C11.0238 15.1041 10.5869 15.1016 9.85468 15.1016C9.12231 15.1016 8.68535 15.1041 8.37204 15.1461C8.22845 15.1655 8.15654 15.1882 8.12443 15.2016C8.11672 15.2046 8.11199 15.2071 8.10901 15.2086L8.10527 15.2106L8.10328 15.2143C8.10204 15.217 8.0993 15.222 8.09631 15.2295C8.08312 15.2618 8.06023 15.3337 8.04107 15.4773C7.99901 15.7904 7.99652 16.2276 7.99652 16.9598C7.99652 17.692 7.99901 18.1291 8.04107 18.4422C8.06023 18.5858 8.08312 18.6577 8.09631 18.6901C8.0993 18.6975 8.10204 18.7025 8.10328 18.7053L8.10527 18.709L8.10901 18.711C8.11199 18.7125 8.11672 18.715 8.12443 18.718C8.15654 18.7314 8.22845 18.754 8.37204 18.7734C8.68535 18.8155 9.12231 18.818 9.85468 18.818C10.5868 18.818 11.0238 18.8155 11.3371 18.7734C11.4807 18.754 11.5526 18.7314 11.585 18.718C11.5925 18.715 11.5974 18.7125 11.6002 18.711L11.6039 18.709L11.6059 18.7053C11.6074 18.7025 11.6099 18.6975 11.6129 18.6901C11.6263 18.6577 11.6489 18.5858 11.6684 18.4422C11.7104 18.1292 11.7126 17.692 11.7126 16.9598C11.7126 16.2276 11.7104 15.7904 11.6684 15.4773C11.6489 15.3337 11.6263 15.2618 11.6129 15.2295C11.6099 15.222 11.6074 15.217 11.6059 15.2143L11.6036 15.2106Z" fill="#6BB64A"/>
</svg>
