<svg width="30" height="30" viewBox="0 0 30 30" fill="none" xmlns="http://www.w3.org/2000/svg">
<path d="M20.1228 4.13316C19.8898 4.13224 19.6636 4.22416 19.4819 4.39386C19.3003 4.56333 19.1744 4.80031 19.1249 5.06512C18.7167 7.19959 18.5106 9.3799 18.5098 11.5663V16.3949H19.5551C19.6773 16.3945 19.7944 16.4536 19.8778 16.5576C19.9611 16.6616 20.0033 16.8014 19.9945 16.9433L19.4813 25.0695C19.4664 25.3366 19.5472 25.5989 19.7043 25.7944C19.8615 25.9901 20.0812 26.1016 20.3113 26.1025C20.5327 26.1025 20.745 26.0003 20.9015 25.8181C21.0583 25.6361 21.1461 25.3893 21.1461 25.1318V5.32273C21.1457 5.00729 21.0379 4.70484 20.846 4.48179C20.6542 4.25872 20.3941 4.13327 20.1228 4.13281L20.1228 4.13316Z" fill="#6BB64A"/>
<path d="M10.0511 12.2154C9.42591 11.7386 8.97194 11.0576 8.76164 10.2812C7.44273 12.1442 6.86867 14.4666 7.16014 16.7609C7.4518 19.055 8.58602 21.1423 10.3251 22.5843L10.5982 13.4884C10.6281 12.9962 10.4235 12.5203 10.0511 12.2153L10.0511 12.2154Z" fill="#6BB64A"/>
<path d="M17.5793 16.5838V11.449C17.5832 9.98865 17.7065 8.53069 17.9487 7.0866C17.1164 6.87033 16.2537 6.7622 15.3871 6.76571V9.214C15.3857 9.958 15.1165 10.6816 14.6199 11.2776C14.3963 11.5447 14.1301 11.7812 13.8302 11.9792C13.4287 12.2626 13.2077 12.7046 13.2393 13.1617L13.6914 23.3076C15.4483 23.6226 17.2703 23.455 18.9193 22.8273L19.3878 17.0752H18.1274C17.8247 17.0752 17.5793 16.8552 17.5793 16.5838L17.5793 16.5838Z" fill="#6BB64A"/>
<path d="M22.9023 19.9479C23.4745 18.5275 23.7811 16.8416 23.7811 15.1146C23.7811 13.3876 23.4745 11.7016 22.9023 10.2812V19.9479Z" fill="#6BB64A"/>
<path d="M15.4336 0.617306C11.588 0.617306 7.90004 2.14496 5.18053 4.86423C2.46131 7.58367 0.933594 11.2721 0.933594 15.1172C0.933594 18.9624 2.46126 22.6508 5.18053 25.3703C7.89998 28.0895 11.5884 29.6172 15.4336 29.6172C19.2788 29.6172 22.9671 28.0895 25.6867 25.3703C28.4059 22.6508 29.9336 18.9624 29.9336 15.1172C29.9292 11.2728 28.4001 7.58728 25.6818 4.86896C22.9635 2.15064 19.2781 0.621567 15.4335 0.617188L15.4336 0.617306ZM12.3264 2.68874H13.3621V8.3852H12.3264V2.68874ZM10.255 2.68874H11.2907V8.3852H10.255V2.68874ZM6.09913 5.42251L6.81697 6.16923C6.52753 6.44827 6.24733 6.74396 5.98839 7.04959L5.20119 6.37637C5.48231 6.04555 5.78471 5.72535 6.09913 5.42251ZM3.04375 14.1225L2.01104 14.0407C2.20408 11.6325 3.04309 9.32079 4.4399 7.34937L5.28351 7.94908C3.99507 9.7678 3.22154 11.9008 3.04422 14.1226L3.04375 14.1225ZM22.6834 21.7531V25.0085C22.6943 25.5629 22.4765 26.0973 22.0814 26.4865C21.6863 26.8758 21.1485 27.0852 20.5944 27.0661C20.0402 27.0471 19.5182 26.8009 19.1508 26.3852C18.7837 25.9698 18.6034 25.4216 18.6524 24.8691L18.6871 24.3926V24.3929C17.1455 24.9428 15.4893 25.0922 13.874 24.8268L13.8781 24.935C13.9001 25.4838 13.6976 26.0181 13.317 26.4143C12.9365 26.8108 12.411 27.0348 11.8617 27.0353C11.3124 27.0358 10.7864 26.8124 10.4055 26.4167C10.0242 26.0209 9.8208 25.4871 9.84207 24.938L9.89386 23.2342V23.2344C8.33406 22.1758 7.11268 20.69 6.37542 18.9551C5.6384 17.2203 5.41693 15.3097 5.73759 13.4522C6.05802 11.5948 6.90719 9.869 8.18332 8.48167V2.68881H9.21904V8.90312C9.21904 9.72406 9.60836 10.4962 10.2682 10.9845C10.9229 11.4846 11.2894 12.275 11.2475 13.0978L10.8762 24.9736C10.8663 25.2409 10.9659 25.5005 11.1523 25.6924C11.3409 25.8781 11.595 25.9823 11.8597 25.9823C12.1244 25.9823 12.3785 25.8781 12.5671 25.6924C12.7537 25.5015 12.8538 25.2421 12.8441 24.9753L12.3697 13.1024V13.1022C12.3267 12.278 12.6929 11.4855 13.3485 10.9843C14.0088 10.4962 14.3981 9.72383 14.3977 8.90289V2.68858H15.4334V5.28782C16.3082 5.28458 17.1794 5.4004 18.0227 5.63205C18.0953 5.23534 18.1656 4.83816 18.2528 4.44471C18.413 3.71876 18.9227 3.11976 19.6138 2.84514C20.3046 2.57072 21.0864 2.65626 21.7014 3.07402C22.3164 3.49177 22.6841 4.18721 22.6835 4.93044V8.48148C24.3485 10.2901 25.2728 12.6588 25.2728 15.1172C25.2728 17.5756 24.3485 19.9443 22.6835 21.7529L22.6834 21.7531Z" fill="#6BB64A"/>
</svg>
