<svg width="34" height="21" viewBox="0 0 34 21" fill="none" xmlns="http://www.w3.org/2000/svg">
<path d="M16.9032 13.6082C15.9648 13.6082 15.0266 13.4693 14.1229 13.2259L6.33813 10.8974V16.2147C6.33813 17.1878 6.96357 18.0219 7.90197 18.3L11.3077 19.3077C15.0611 20.42 19.0229 20.42 22.7763 19.3077L26.182 18.3C27.1204 18.022 27.7459 17.1878 27.7459 16.2147L27.7461 10.8281L19.6834 13.2262C18.7797 13.504 17.8415 13.6082 16.9031 13.6082H16.9032Z" fill="#6BB64A"/>
<path d="M32.7163 4.98823L18.9888 0.922098C17.6334 0.505134 16.1739 0.505134 14.7835 0.922098L1.09076 4.98823C0.152363 5.26628 0.152363 6.62163 1.09076 6.89972L14.8183 10.9658C16.1737 11.3828 17.6332 11.3828 19.0236 10.9658L30.7702 7.49052V10.5836C30.5268 10.7225 30.3532 10.9659 30.3532 11.2439V12.0781C30.3532 12.3908 30.527 12.6688 30.8051 12.7731L30.0751 14.476C29.9709 14.7194 30.1098 14.9626 30.3878 14.9972L31.1524 15.0668H31.6043L32.3688 14.9972C32.6122 14.9626 32.7511 14.7192 32.6816 14.476L31.9516 12.7731C32.2297 12.6342 32.4035 12.3908 32.4035 12.0781V11.2439C32.4035 10.9659 32.2297 10.7227 31.9865 10.5836V7.14293L32.7511 6.89954C33.6546 6.58706 33.6546 5.26638 32.7162 4.9883L32.7163 4.98823Z" fill="#6BB64A"/>
</svg>
