<svg width="31" height="29" viewBox="0 0 31 29" fill="none" xmlns="http://www.w3.org/2000/svg">
<path d="M17.5462 19.3904C17.5139 19.2933 17.4491 19.1962 17.4168 19.1313C17.3519 19.0342 17.2873 18.9694 17.2225 18.9045C17.1577 18.8397 17.0931 18.7751 16.9957 18.7103C16.8986 18.6454 16.8014 18.5808 16.7043 18.5483C16.6072 18.516 16.51 18.4512 16.3804 18.4189C16.2509 18.3866 16.1213 18.3217 16.0242 18.2894C15.927 18.2571 15.7974 18.2246 15.6356 18.16C15.2794 18.0629 15.0528 17.9332 14.8909 17.8361C14.7289 17.7389 14.6641 17.6093 14.6641 17.4475C14.6641 17.2856 14.7289 17.1561 14.8583 17.059C14.9878 16.9619 15.1823 16.9296 15.4088 16.9296C15.8299 16.9296 16.2832 17.0915 16.704 17.3829C16.7689 17.4152 16.8335 17.4152 16.8983 17.3506L17.4488 16.6705C17.4811 16.6056 17.4811 16.5085 17.4165 16.4762C17.2222 16.3468 17.028 16.2171 16.8012 16.12C16.5098 15.9905 16.2507 15.8932 15.9592 15.8286V15.0513C15.9592 14.9865 15.8944 14.9219 15.8298 14.9219H15.1496C15.0848 14.9219 15.0202 14.9867 15.0202 15.0513V15.7961C14.502 15.8609 14.0812 16.0552 13.7896 16.3789C13.4982 16.7028 13.3362 17.0913 13.3362 17.577C13.3362 17.7064 13.3362 17.8038 13.3685 17.9009C13.4008 17.9981 13.4008 18.0952 13.4333 18.1923C13.4657 18.2895 13.4982 18.3543 13.5628 18.4191C13.5951 18.4839 13.6599 18.5485 13.7247 18.6134C13.7896 18.6782 13.8542 18.7428 13.919 18.7753C13.9838 18.8402 14.0485 18.8725 14.1458 18.9373C14.2429 18.9696 14.3078 19.0344 14.4049 19.0667C14.4697 19.099 14.5669 19.1316 14.6963 19.1962C14.7934 19.2285 14.8906 19.261 14.9877 19.2933C15.0848 19.3256 15.182 19.3581 15.2791 19.3904C15.4085 19.4227 15.5382 19.4553 15.603 19.4876C15.7002 19.5199 15.7973 19.5524 15.8621 19.5847C15.927 19.617 16.0241 19.6495 16.0564 19.7141C16.1212 19.7464 16.1535 19.8113 16.1858 19.8436C16.2181 19.8759 16.2507 19.9407 16.2507 20.0055C16.283 20.0704 16.283 20.135 16.283 20.1998C16.283 20.3618 16.2181 20.5237 16.0887 20.6209C15.9593 20.718 15.7648 20.7828 15.5382 20.7828C15.2791 20.7828 14.9877 20.718 14.6963 20.5886C14.4372 20.4914 14.2106 20.3295 14.0161 20.1675C13.9513 20.1027 13.8542 20.1352 13.8219 20.1675L13.2391 20.8477C13.2068 20.9125 13.2068 20.9771 13.2391 21.0419C13.7247 21.4953 14.3077 21.7867 14.9877 21.8839V22.564C14.9877 22.6289 15.0525 22.6935 15.1171 22.6935H15.7973C15.8621 22.6935 15.9267 22.6286 15.9267 22.564V21.8839C16.4449 21.819 16.8657 21.6248 17.1897 21.3011C17.4811 20.9771 17.643 20.5886 17.643 20.1029C17.643 19.9735 17.643 19.8438 17.6107 19.7467C17.6107 19.5847 17.5784 19.4876 17.5461 19.3905L17.5462 19.3904Z" fill="#6BB64A"/>
<path d="M30.2394 14.599L16.7679 1.15987C16.4117 0.803635 15.926 0.609375 15.4078 0.609375C14.8896 0.609375 14.404 0.803641 14.0477 1.15987L0.57615 14.599C-0.168612 15.3438 -0.168612 16.5744 0.57615 17.3192C1.32091 18.0639 2.55154 18.0639 3.2963 17.3192L4.9478 15.6677V26.419C4.9478 27.6819 5.98419 28.7183 7.24715 28.7183H23.536C24.799 28.7183 25.8354 27.6819 25.8354 26.419V15.7L27.4869 17.3515C27.8754 17.7401 28.3613 17.902 28.847 17.902C29.3326 17.902 29.8508 17.7078 30.2071 17.3515C30.9844 16.6068 30.9844 15.3762 30.2396 14.5988L30.2394 14.599ZM15.4078 24.5407C12.2343 24.5407 9.64353 21.95 9.64353 18.7765C9.64353 15.603 12.2343 13.0122 15.4078 13.0122C18.5813 13.0122 21.172 15.603 21.172 18.7765C21.172 21.9823 18.5813 24.5407 15.4078 24.5407Z" fill="#6BB64A"/>
</svg>
