<svg width="29" height="29" viewBox="0 0 29 29" fill="none" xmlns="http://www.w3.org/2000/svg">
<path d="M23.5212 14.4434L24.3593 13.6062C24.5799 13.3859 24.5799 13.0334 24.3593 12.7691L24.227 12.6369C24.0064 12.4166 23.6536 12.4166 23.3889 12.6369L22.9478 13.0776L21.8891 10.3901L27.2701 5.01516C28.2404 4.04591 28.4168 2.50375 27.623 1.6669C26.8292 0.874025 25.1531 0.917964 24.1827 1.93119L18.7577 7.35015L16.4641 6.51298L16.9053 6.07229C17.1259 5.85194 17.1259 5.49945 16.9053 5.23512L16.773 5.10297C16.5524 4.88262 16.1995 4.88262 15.9349 5.10297L15.0968 5.94014L1.82087 0.609375L0.762243 1.66683L8.5691 7.83468L13.5532 12.5929L7.64272 18.4525L7.28983 19.3778L1.99718 16.3378C1.90888 16.2938 1.73259 16.2496 1.64429 16.3378L0.718215 17.307C0.629916 17.3952 0.718216 17.6595 0.806515 17.7477L6.01088 21.9774L4.73196 24.5327C4.68796 24.5767 4.77595 24.6209 4.82026 24.6209L7.42244 23.2991C7.42244 23.3431 7.42244 23.3431 7.46643 23.3873L11.6125 28.542C11.7008 28.6742 11.7888 28.586 11.9214 28.4981L12.8917 27.5288C12.98 27.4406 13.068 27.3967 12.98 27.3085L9.93661 21.9335L10.7747 21.537L16.6849 15.6335L21.4483 20.612L27.623 28.4102L28.6816 27.3527L23.5212 14.4434Z" fill="#6BB64A"/>
</svg>
