<svg width="28" height="31" viewBox="0 0 28 31" fill="none" xmlns="http://www.w3.org/2000/svg">
<path d="M19.8379 23.3367C19.8379 24.2746 20.6508 25.0875 21.5887 25.0875L25.7154 25.0873V21.5859H21.5887C20.6508 21.5859 19.8379 22.3362 19.8379 23.3367V23.3367ZM22.4014 23.3367C22.4014 23.8369 22.0262 24.212 21.5261 24.212C21.0259 24.212 20.6508 23.8369 20.6508 23.3367C20.6508 22.8366 21.0259 22.4614 21.5261 22.4614C22.0262 22.3988 22.4014 22.8364 22.4014 23.3367Z" fill="#6BB64A"/>
<path d="M24.0272 13.6462C26.028 12.4581 27.341 10.2698 27.341 7.76859C27.341 4.01706 24.2772 0.953125 20.5255 0.953125C17.5869 0.953334 15.0858 2.82911 14.0858 5.45518C13.0853 4.82985 11.8974 4.39232 10.6468 4.39232C8.02072 4.39232 5.8324 5.95553 4.83192 8.26883H3.58148C1.83069 8.26883 0.330078 9.70685 0.330078 11.5202V27.7145C0.330078 29.5277 1.76809 30.9659 3.58148 30.9659L23.2143 30.9657C24.59 30.9657 25.7154 29.8403 25.7154 28.4646V26.3387H21.5887C19.9631 26.3387 18.5875 24.963 18.5875 23.3375C18.5875 21.7119 19.9631 20.3362 21.5887 20.3362L25.7154 20.3364V16.0222C25.7154 14.8967 25.0275 13.9588 24.0272 13.6461V13.6462ZM3.58137 13.5212C2.45591 13.5212 1.58062 12.6459 1.58062 11.5204C1.58062 10.395 2.45591 9.5197 3.58137 9.5197H4.51925C4.45666 9.89485 4.39427 10.27 4.39427 10.7078C4.39427 11.7082 4.64445 12.7085 5.08198 13.5214L3.58137 13.5212ZM12.0845 12.6459C11.7719 12.8961 11.3968 13.0211 10.959 13.0837V13.5214H10.5213V13.0837C9.89595 13.0211 9.33322 12.7711 8.83309 12.3333L9.33322 11.708C9.70837 12.0206 10.1461 12.2708 10.5213 12.3333L10.5215 10.9577C10.0214 10.8327 9.6462 10.6452 9.39603 10.4576C9.14585 10.27 9.02087 9.95745 9.02087 9.58229C9.02087 9.20714 9.14585 8.83199 9.45862 8.58181C9.7088 8.33164 10.084 8.20666 10.5215 8.14406V7.8313H10.9592V8.20645C11.4594 8.26905 11.9597 8.39403 12.3973 8.70658L11.9595 9.33191C11.6469 9.14433 11.3342 8.95676 10.959 8.95676V10.2698C11.4592 10.3948 11.8969 10.5824 12.1471 10.7699C12.3973 10.9575 12.5222 11.2701 12.5222 11.7078C12.5222 12.0206 12.3973 12.3957 12.0845 12.6459L12.0845 12.6459ZM13.7103 7.64372C12.96 6.89341 11.8345 6.39328 10.7091 6.39328C8.33317 6.39328 6.39481 8.33164 6.39481 10.7075C6.39481 11.7704 6.76996 12.7709 7.45767 13.5212H6.45719C5.89446 12.7083 5.5819 11.7704 5.5819 10.7075C5.5819 7.89389 7.89542 5.58037 10.7091 5.58037C11.8971 5.58037 12.96 5.95553 13.8353 6.64324C13.7727 6.956 13.7103 7.26856 13.7103 7.64372ZM14.8981 13.5213H13.8977C14.3354 13.0212 14.7106 12.3332 14.8355 11.6455C15.0231 11.8957 15.2107 12.1457 15.3983 12.3958C15.3359 12.771 15.1483 13.1461 14.8981 13.5213ZM16.2738 13.5213C16.3364 13.4587 16.3364 13.3337 16.3988 13.2711C16.5237 13.3961 16.6489 13.4587 16.7739 13.5213H16.2738ZM20.5254 13.3337C17.4616 13.3337 14.9608 10.8326 14.9608 7.76912C14.9608 4.7053 17.4619 2.20453 20.5254 2.20453C23.5893 2.20453 26.09 4.70562 26.09 7.76912C26.0902 10.8327 23.5892 13.3337 20.5254 13.3337Z" fill="#6BB64A"/>
<path d="M9.83398 9.45336C9.83398 9.57833 9.89658 9.70353 9.95896 9.82851C10.0216 9.89111 10.2091 10.0161 10.4591 10.0787V8.89062C10.2715 8.89062 10.0839 8.95322 9.95896 9.0782C9.89658 9.20318 9.83398 9.32817 9.83398 9.45336Z" fill="#6BB64A"/>
<path d="M10.959 11.0781V12.3286C11.2092 12.3286 11.3341 12.266 11.4591 12.141C11.5841 12.016 11.6467 11.8908 11.6467 11.7658C11.6467 11.5783 11.5841 11.4533 11.5217 11.3907C11.3967 11.2031 11.2092 11.1407 10.959 11.0781Z" fill="#6BB64A"/>
<path d="M19.6504 6.45345C19.6504 6.64103 19.713 6.76601 19.7754 6.82861C19.9003 6.95359 20.0879 7.01618 20.3381 7.14116V5.82812C20.0879 5.82812 19.9629 5.89072 19.838 6.0157C19.713 6.14068 19.6504 6.32826 19.6504 6.45345Z" fill="#6BB64A"/>
<path d="M20.8379 8.20312V9.57876C21.0881 9.57876 21.2756 9.45378 21.4006 9.39118C21.5256 9.2662 21.5882 9.14101 21.5882 8.95343C21.5882 8.76585 21.5256 8.64088 21.4006 8.51568C21.338 8.3907 21.1504 8.26572 20.8379 8.20312Z" fill="#6BB64A"/>
<path d="M20.5254 3.07812C17.9619 3.07812 15.8359 5.20407 15.8359 7.76754C15.8359 10.331 17.9619 12.457 20.5254 12.457C23.0888 12.457 25.2148 10.331 25.2148 7.76754C25.2148 5.20385 23.089 3.07812 20.5254 3.07812ZM22.0886 9.89305C21.776 10.1432 21.3383 10.3308 20.8381 10.3308V10.8935H20.338L20.3378 10.3308C19.6501 10.2682 19.0247 10.0182 18.462 9.5179L19.0247 8.89257C19.4625 9.26773 19.9 9.4553 20.3378 9.5179V8.07988C19.7751 7.9549 19.3373 7.76733 19.0873 7.51715C18.8372 7.32958 18.7122 7.01702 18.7122 6.57927C18.7122 6.14152 18.8372 5.76637 19.1499 5.51641C19.4625 5.26623 19.8377 5.07866 20.338 5.07866L20.3378 4.64091H20.8379V5.01606C21.4007 5.07866 21.9008 5.26623 22.4011 5.57879L21.901 6.2665C21.5884 6.01633 21.2133 5.89135 20.8381 5.82875V7.26677C21.4009 7.39175 21.8386 7.57932 22.0886 7.8295C22.3387 8.07967 22.4637 8.39223 22.4637 8.82998C22.5263 9.26794 22.4011 9.64309 22.0886 9.89305H22.0886Z" fill="#6BB64A"/>
</svg>
