<svg width="33" height="23" viewBox="0 0 33 23" fill="none" xmlns="http://www.w3.org/2000/svg">
<path d="M6.87059 2.31603C6.59775 2.35484 6.37822 2.56104 6.30387 2.84393C6.23326 3.11466 6.16406 4.00074 6.16406 4.46434C6.16406 4.74349 6.18931 5.63755 6.30013 6.07051C6.37447 6.35901 6.6071 6.56756 6.89303 6.60146L6.97532 6.61034C7.91427 6.69988 8.94969 6.11961 9.62044 5.71844V4.89267H8.39816C8.16835 4.89267 7.98178 4.70096 7.98178 4.46436C7.98178 4.22777 8.16811 4.03606 8.39816 4.03606H9.62044V3.20658C8.91881 2.78318 7.84873 2.18163 6.87058 2.31605L6.87059 2.31603Z" fill="#6BB64A"/>
<path d="M11.5 2.67903H12.0609L12.199 2.59837C12.9773 2.13803 14.4278 1.28284 15.7911 1.47077C16.398 1.55658 16.8892 2.0092 17.05 2.62548C17.126 2.91656 17.1826 3.53983 17.2062 4.03432C17.2067 4.03432 17.2072 4.03385 17.2079 4.03385H19.6849V0.617188H11.5003L11.5 2.67903Z" fill="#6BB64A"/>
<path d="M5.34444 4.0338C5.36806 3.53933 5.42463 2.91626 5.50062 2.62569C5.66194 2.0094 6.15312 1.5568 6.75163 1.47193C8.09008 1.28653 9.40681 2.08469 10.1924 2.56117C10.2667 2.60676 10.3275 2.64229 10.3897 2.679H10.6663V0.617188H3.47095V4.03385L5.34444 4.0338Z" fill="#6BB64A"/>
<path d="M10.6676 6.2572H10.3896C10.32 6.29741 10.2508 6.33786 10.1654 6.38906C9.47318 6.80544 8.35025 7.48086 7.18195 7.48086C7.0861 7.48086 6.99024 7.47619 6.89392 7.46684L6.80017 7.45631C6.17012 7.3815 5.65905 6.92537 5.49607 6.29365V6.29318C5.39554 5.90087 5.35673 5.29558 5.34154 4.89062L3.47095 4.89086V14.4958H10.6675L10.6676 6.2572Z" fill="#6BB64A"/>
<path d="M17.2095 4.89163C17.1943 5.29703 17.1562 5.90282 17.0549 6.29419C16.8927 6.92568 16.3814 7.3818 15.7529 7.45733L15.6587 7.46739C15.564 7.47674 15.4686 7.48142 15.3728 7.48142C14.1582 7.48142 12.9198 6.7571 12.2306 6.35502C12.1668 6.31784 12.1158 6.28862 12.062 6.25822H11.5L11.5002 14.4955H19.6849V4.89062H17.2093L17.2095 4.89163Z" fill="#6BB64A"/>
<path d="M15.5773 6.60924L15.6589 6.60035C15.9432 6.56622 16.1763 6.35791 16.2502 6.06941C16.3612 5.63735 16.3862 4.74286 16.3862 4.46324C16.3862 3.99986 16.317 3.11378 16.2464 2.84283C16.173 2.56064 15.9533 2.35373 15.6865 2.31656C14.6966 2.17932 13.5503 2.78999 12.8281 3.21103V4.03494H13.9227C14.1526 4.03494 14.3391 4.22665 14.3391 4.46325C14.3391 4.69985 14.1528 4.89156 13.9227 4.89156H12.8281V5.7117C13.5187 6.11125 14.6278 6.70673 15.5773 6.60923L15.5773 6.60924Z" fill="#6BB64A"/>
<path d="M10.6951 3.53125H11.7539V5.39508H10.6951V3.53125Z" fill="#6BB64A"/>
<path d="M6.75723 19.5771C6.74203 19.4792 6.71421 19.3875 6.6892 19.2943C6.67447 19.2402 6.66395 19.1844 6.64618 19.1313C6.61695 19.0455 6.57814 18.9658 6.54097 18.8856C6.51432 18.8281 6.4886 18.7703 6.45727 18.7149C6.41706 18.6431 6.37147 18.576 6.32472 18.5101C6.28333 18.4514 6.23938 18.3939 6.19286 18.339C6.14306 18.2803 6.09186 18.2228 6.03668 18.1692C5.99109 18.1253 5.9434 18.086 5.89524 18.0467C5.83492 17.9969 5.77437 17.9478 5.70937 17.9048C5.65653 17.8702 5.60042 17.8419 5.54548 17.8127C5.48001 17.7772 5.41549 17.74 5.34652 17.711C5.27638 17.6822 5.20251 17.6633 5.12979 17.6418C5.07111 17.6245 5.01406 17.6021 4.95375 17.5899C4.81651 17.5628 4.6767 17.5469 4.53432 17.5469C4.3882 17.5469 4.24676 17.5651 4.10858 17.595C4.05785 17.606 4.00969 17.625 3.95989 17.6395C3.87502 17.6647 3.79062 17.6909 3.7102 17.726C3.65409 17.7505 3.60078 17.7814 3.54677 17.8108C3.47757 17.8485 3.40953 17.8877 3.34454 17.9333C3.2917 17.9705 3.24027 18.0103 3.19047 18.0521C3.13132 18.1014 3.07474 18.1538 3.02027 18.2087C2.97304 18.2564 2.92698 18.3055 2.88349 18.3579C2.83487 18.4161 2.79091 18.4788 2.74672 18.5421C2.70651 18.6008 2.66559 18.6595 2.62983 18.7224C2.59429 18.7853 2.56484 18.8524 2.53397 18.9183C2.50101 18.9901 2.46547 19.0607 2.43811 19.1367C2.41824 19.1928 2.40608 19.2529 2.38948 19.3106C2.36377 19.4006 2.33548 19.4897 2.31934 19.5846C2.31934 19.5856 2.31841 19.5867 2.31841 19.5884C2.29176 19.7429 2.27539 19.9009 2.27539 20.0639C2.27539 21.4517 3.28867 22.5802 4.53453 22.5802C5.7804 22.5802 6.79368 21.4512 6.79368 20.0639C6.79742 19.8988 6.78362 19.7375 6.75954 19.5804C6.75837 19.5792 6.7572 19.5781 6.7572 19.5771L6.75723 19.5771Z" fill="#6BB64A"/>
<path d="M23.1759 3.73438V14.9206C23.1759 15.1572 22.9896 15.3489 22.7595 15.3489H20.1723C20.1482 15.3531 20.1263 15.3636 20.101 15.3636L3.05481 15.3638C3.02956 15.3638 3.00758 15.3533 2.9835 15.3491H0.332031V19.0788H1.57676C1.62328 18.9123 1.68407 18.7524 1.7528 18.5981C1.75958 18.5829 1.7659 18.5677 1.77268 18.553C1.84071 18.4052 1.91716 18.264 2.00366 18.1298C2.01419 18.1137 2.02564 18.0985 2.03616 18.0826C2.11892 17.9585 2.20893 17.8402 2.30596 17.7296C2.31484 17.719 2.32326 17.7081 2.33261 17.6975C2.43361 17.586 2.54256 17.4839 2.65689 17.388C2.67933 17.3691 2.70131 17.3508 2.72445 17.3331C2.84065 17.2409 2.96175 17.1561 3.08941 17.0817C3.1025 17.0745 3.11559 17.0682 3.12868 17.0607C3.25119 16.9922 3.37838 16.9328 3.51 16.8825C3.52987 16.8746 3.54928 16.8657 3.56962 16.8585C3.70686 16.8091 3.8483 16.7715 3.99278 16.7432C4.02154 16.7373 4.051 16.7331 4.07975 16.7285C4.22845 16.7044 4.37924 16.6875 4.53425 16.6875C4.72596 16.6875 4.9123 16.7095 5.09466 16.7451C5.16105 16.7577 5.22395 16.7801 5.28894 16.797C5.40256 16.8274 5.51455 16.8599 5.62303 16.9033C5.69738 16.9333 5.76915 16.9683 5.84092 17.0039C5.93561 17.0511 6.02796 17.1023 6.1175 17.1593C6.18717 17.2033 6.25521 17.2484 6.32113 17.2987C6.41231 17.3679 6.49718 17.4436 6.58041 17.5229C6.62179 17.5622 6.66902 17.5921 6.70876 17.6339C6.7277 17.6538 6.74336 17.6753 6.7616 17.6957C6.76954 17.7046 6.77679 17.7139 6.78474 17.7228C7.12889 18.1118 7.37647 18.5733 7.50948 19.0785H25.6498C25.6963 18.9168 25.7571 18.7622 25.8247 18.6119C25.8326 18.5941 25.8398 18.5763 25.8483 18.5586C25.9158 18.4146 25.9928 18.2769 26.0781 18.1459C26.0895 18.1286 26.1017 18.1118 26.1132 18.0952C26.2913 17.8329 26.5022 17.5998 26.7411 17.4034C26.7572 17.3898 26.7736 17.3767 26.7904 17.3632C26.9108 17.2678 27.0366 17.1815 27.1692 17.1055C27.1771 17.1009 27.1853 17.0971 27.1937 17.0924C27.323 17.0202 27.4577 16.9578 27.5966 16.9054C27.6101 16.9003 27.6232 16.8944 27.6368 16.8893C27.7756 16.8395 27.9185 16.8014 28.0651 16.7735C28.0929 16.7684 28.1205 16.7642 28.1483 16.7595C28.2965 16.7354 28.4469 16.7193 28.6007 16.7193C28.7548 16.7193 28.9049 16.7354 29.0531 16.7595C29.0809 16.7642 29.1092 16.7679 29.1368 16.7735C29.2829 16.8018 29.4258 16.8395 29.5642 16.8893C29.5782 16.8944 29.592 16.9007 29.606 16.9061C29.7428 16.958 29.8751 17.0193 30.003 17.0899C30.013 17.0957 30.0233 17.1004 30.0339 17.106C30.1638 17.1803 30.2873 17.2661 30.4056 17.3594C30.4255 17.3751 30.4449 17.3915 30.4647 17.4076C30.5805 17.5034 30.692 17.6056 30.7941 17.7181C30.8005 17.7248 30.8063 17.7328 30.8124 17.74C30.9071 17.8457 30.9936 17.9596 31.0752 18.0783C31.0929 18.1045 31.1119 18.1302 31.1292 18.1569C31.2087 18.2806 31.2811 18.4099 31.345 18.5445C31.359 18.5737 31.3712 18.6037 31.3842 18.6336C31.446 18.7739 31.5021 18.9179 31.5456 19.0682C31.5465 19.0713 31.5481 19.0745 31.5493 19.0783H32.7753L32.8012 9.14298L27.8602 3.73489L23.1759 3.73438ZM31.0643 9.92837V12.3137C31.0643 12.5503 30.878 12.7421 30.6479 12.7421H25.3293C25.0995 12.7421 24.913 12.5503 24.913 12.3137V6.06468C24.913 5.82808 25.0993 5.63637 25.3293 5.63637H27.1728C27.2885 5.63637 27.3996 5.68617 27.4782 5.77408L30.9535 9.63801C31.0245 9.71633 31.0643 9.82061 31.0643 9.92862L31.0643 9.92837Z" fill="#6BB64A"/>
<path d="M30.8127 19.5883C30.8102 19.5743 30.8043 19.5612 30.8017 19.5469C30.7735 19.4071 30.7363 19.271 30.6881 19.1406C30.6708 19.094 30.6472 19.051 30.6273 19.0059C30.5871 18.9126 30.5446 18.82 30.4943 18.7335C30.4651 18.6833 30.4309 18.6367 30.3984 18.589C30.3491 18.5163 30.2979 18.4446 30.2418 18.3779C30.2016 18.3302 30.1581 18.2854 30.1146 18.2412C30.0585 18.1841 29.9998 18.1301 29.9386 18.0794C29.8888 18.038 29.838 17.9987 29.7852 17.962C29.7214 17.9181 29.6543 17.8788 29.5867 17.8416C29.5318 17.8112 29.4768 17.7808 29.4196 17.7558C29.341 17.7212 29.2587 17.6962 29.1759 17.6714C29.1252 17.6562 29.0754 17.6368 29.023 17.6258C28.8853 17.5966 28.7444 17.5781 28.5994 17.5781C28.4545 17.5781 28.313 17.5964 28.1758 17.6258C28.1234 17.6368 28.0736 17.6562 28.0229 17.6714C27.9401 17.696 27.8578 17.7212 27.7793 17.7558C27.7217 17.7811 27.6673 17.8119 27.6116 17.8423C27.5436 17.8795 27.477 17.9183 27.4131 17.9627C27.3603 17.9994 27.3093 18.0387 27.2598 18.0801C27.1985 18.1308 27.1398 18.1848 27.0837 18.2419C27.0398 18.2863 26.9968 18.3309 26.9565 18.3791C26.9004 18.4455 26.8497 18.5168 26.8004 18.5895C26.7679 18.6377 26.734 18.6842 26.7045 18.7345C26.6542 18.821 26.6124 18.9131 26.5719 19.0064C26.5521 19.052 26.5285 19.0943 26.5112 19.1415C26.463 19.272 26.4258 19.408 26.3975 19.5478C26.395 19.5619 26.3891 19.575 26.3866 19.5892C26.3866 19.5897 26.3861 19.5902 26.3861 19.5909C26.3562 19.7538 26.3405 19.9224 26.3405 20.0952C26.3253 20.7806 26.5766 21.4416 27.0297 21.9192C27.4531 22.3644 28.011 22.6106 28.5996 22.6106C29.8455 22.6106 30.8588 21.4816 30.8588 20.0943C30.8588 19.9215 30.8431 19.7529 30.8132 19.59C30.8127 19.5888 30.8127 19.5888 30.8127 19.5883L30.8127 19.5883Z" fill="#6BB64A"/>
<path d="M25.7461 6.5V11.8927H30.2321V10.1037L26.9915 6.5H25.7461Z" fill="#6BB64A"/>
</svg>
