<svg width="69" height="67" viewBox="0 0 69 67" fill="none" xmlns="http://www.w3.org/2000/svg">
<g clip-path="url(#clip0_1559_9819)">
<path d="M4.6943 42.5157C1.20791 23.9749 10.4231 6.0928 31.5774 3.71535C28.6571 0.598604 24.6742 0.574052 22.8396 0.953244C19.6028 1.98579 19.7038 4.0809 16.0332 6.78571C12.3818 8.87127 10.5486 7.27402 7.89016 9.43597C5.23581 11.5815 7.08676 16.5069 5.97373 17.4645C4.87026 19.3782 1.44525 21.0832 0.819174 23.5029C0.304946 26.5965 2.21864 28.8061 2.14498 31.4578C2.36595 33.6674 -0.0537864 34.9169 0.294034 36.7064C1.33477 39.6322 3.34394 41.3931 4.29056 42.2047C4.50743 42.3575 4.73659 42.7353 4.6943 42.5157Z" fill="white"/>
<path d="M42.3342 16.8506C41.963 16.8506 41.607 16.7032 41.3446 16.4407C41.0821 16.1783 40.9347 15.8223 40.9347 15.4511C40.9347 15.08 41.0821 14.724 41.3446 14.4616C41.607 14.1991 41.963 14.0517 42.3342 14.0517C42.7053 14.0517 43.0613 14.1991 43.3237 14.4616C43.5862 14.724 43.7336 15.08 43.7336 15.4511C43.7336 15.8223 43.5862 16.1783 43.3237 16.4407C43.0613 16.7032 42.7053 16.8506 42.3342 16.8506ZM5.51022 44.5371C2.16023 28.4242 12.5307 14.9601 32.6116 21.5878C44.3965 28.4814 59.2191 28.0327 59.8875 23.5765C61.5379 18.2351 52.3746 7.22621 38.6773 4.35363C11.4982 -0.948247 -3.15392 28.4242 5.51022 44.5371Z" fill="white"/>
<path d="M61.5064 42.91C57.9559 45.8031 54.1258 46.7715 50.0897 46.3337C60.051 38.6625 64.6245 27.8733 61.089 18.1507C66.0308 24.0636 67.1766 29.4446 60.4998 39.8533C63.6424 37.4622 66.1563 33.9786 68.0604 29.4446C69.4544 40.1166 64.4908 47.9268 55.2947 52.5208C58.0118 52.3162 64.1007 49.6564 67.5066 46.5983C62.674 59.5427 50.844 65.0041 42.9219 65.9753C26.6125 68.024 11.7313 58.7052 6.14843 46.5983C0.438717 30.8809 12.0559 11.7031 32.5991 21.5743C12.7802 26.973 14.2056 48.9226 30.4577 55.9676C27.656 53.4088 24.9389 49.4 25.4422 46.8274C29.2914 50.6603 32.8651 53.4156 36.3747 55.1751C38.493 56.1981 40.3303 56.7055 42.1349 57.1843C43.1579 57.3848 44.1863 57.5048 45.2243 57.5444C45.2298 57.5239 45.268 57.5171 45.3703 57.5362V57.5499C47.6318 57.6181 49.9397 57.3112 52.3471 56.6469C48.959 57.2498 45.4153 55.8421 41.742 52.7186C49.435 51.9002 56.1418 48.8925 61.505 42.9114L61.5064 42.91ZM23.7236 8.85229C25.6154 9.1592 33.3261 11.6744 33.3261 11.6744L21.1074 16.6148C17.8202 12.8434 17.8406 10.3786 23.7236 8.85229Z" fill="white"/>
</g>
<defs>
<clipPath id="clip0_1559_9819">
<rect width="68.2001" height="65.4721" fill="white" transform="translate(0.177734 0.786743)"/>
</clipPath>
</defs>
</svg>
