<svg width="68" height="67" viewBox="0 0 68 67" fill="none" xmlns="http://www.w3.org/2000/svg">
<g clip-path="url(#clip0_1_4017)">
<path d="M7.12155 22.5032C6.65597 22.3996 6.11274 22.1919 5.72479 21.9324C6.34541 22.5032 8.85456 26.4485 9.24251 27.253C9.32014 26.4485 8.46662 23.8787 7.12155 22.5032Z" fill="white"/>
<path d="M9.63318 31.6637C9.63318 31.6637 10.435 27.9518 9.89181 25.5381C9.34885 23.1245 7.97807 20.5807 7.97807 20.5547C7.97807 20.5547 8.10711 21.8265 7.6675 21.9824C7.22788 22.1379 5.88281 21.0738 5.88281 21.0738C5.88281 21.0738 7.77085 23.1245 8.547 24.9153C9.21953 26.4467 9.40053 27.355 9.11593 29.2498C8.83133 31.1442 8.77966 31.0924 8.77966 31.0924L9.63318 31.6637Z" fill="white"/>
<path d="M4.62032 17.6473C4.36985 18.0252 4.15346 18.4247 3.97375 18.8411C3.06829 20.5541 2.2924 22.3192 1.67154 24.1619C-1.82019 35.2709 5.75844 57.0988 16.6995 56.7873C17.9412 56.7613 19.0793 57.7737 18.7171 59.4347C18.5879 60.0577 18.5101 60.6808 18.4585 61.3296C18.3033 62.186 18.5879 63.0425 19.1827 63.6655C20.0106 64.548 21.1484 65.3265 22.5453 65.1969C23.4246 65.1189 23.7092 64.9113 24.4591 64.3661C25.08 63.925 25.5716 63.3542 26.1924 62.8869C26.2441 62.8348 26.3217 62.8087 26.3734 62.7572C24.5627 61.3814 24.8731 59.6424 25.7008 56.8393C25.3646 56.5539 25.0802 56.2683 24.7956 55.9568C24.4851 55.6195 24.2265 55.2561 23.9419 54.8926C23.7092 54.6073 23.3989 54.3477 23.192 54.0621C22.6228 53.2315 22.6487 52.0636 22.6487 51.0514C22.6748 49.9872 22.8557 48.897 22.6487 47.859C22.4678 46.9764 22.1315 46.1199 21.7176 45.3152C20.9159 43.7356 19.8079 42.3326 18.4585 41.1885C17.0874 40.0204 15.7167 38.8526 14.3716 37.6325C13.2854 36.6464 12.354 35.712 11.7593 34.3364C11.3465 33.4049 11.0091 32.4413 10.7505 31.4554C10.5436 30.6765 10.4143 29.8722 10.1556 29.1194C9.94497 28.536 9.68532 27.9716 9.37949 27.4323C8.88821 26.524 8.4743 25.5374 7.93107 24.6551C7.36214 23.6689 6.66389 22.6045 5.68079 21.9296C5.99111 21.5665 6.12068 21.0993 6.06874 20.606C6.04278 20.2686 5.96539 19.6198 5.52551 19.568C5.62912 19.2305 5.73248 18.8671 5.7844 18.5298C5.88775 18.1663 5.7844 17.7768 5.47384 17.5434C5.21521 17.4914 4.95659 17.4654 4.69796 17.4914C4.69796 17.5436 4.64602 17.5955 4.62032 17.6473ZM23.8902 61.148C24.2265 61.4593 24.2525 62.0045 23.9679 62.3418C23.7351 62.7311 23.2434 62.8348 22.8557 62.6013C22.8557 62.6013 22.8297 62.6013 22.8297 62.5753C22.4935 62.264 22.4677 61.7188 22.7521 61.3814C22.985 60.9921 23.4766 60.8885 23.8645 61.1219C23.8645 61.148 23.8645 61.148 23.8905 61.148H23.8902Z" fill="white"/>
<path d="M26.6283 62.653C27.6628 62.2116 28.7749 62.3414 29.7837 62.5488C30.6633 62.7307 31.5168 62.9902 32.3703 63.3018C33.6634 61.874 32.5256 59.8497 31.3875 59.2527C30.2492 58.6558 28.9043 58.3962 27.6111 58.0328C26.9905 57.8511 26.4213 57.3839 25.9297 56.9946C25.1279 59.7459 24.8436 61.3551 26.6283 62.6527V62.653Z" fill="white"/>
<path d="M4.71838 40.9035C4.6667 40.125 5.39091 40.5143 5.93414 40.9035C5.23563 40.2808 4.14945 39.1646 4.5631 38.4897C4.87366 38.0225 5.33924 38.2302 5.72719 38.5418C5.20993 37.9188 4.69268 37.0623 4.9513 36.4394C4.07181 35.6865 3.16661 35.1157 2.67507 35.3234C2.20947 35.531 3.01133 36.6991 4.0461 37.8927C3.32163 37.296 2.64909 36.9326 2.31283 37.2699C1.79557 37.8149 3.34759 39.6578 4.71838 41.0851C4.74435 41.0333 4.71838 40.9815 4.71838 40.9035Z" fill="white"/>
<path d="M3.03866 32.8822C2.57308 33.3754 3.76287 34.9589 5.0303 36.3601C5.28892 35.9708 5.75451 36.2823 6.19413 36.6975C5.52159 35.8151 4.79738 34.6729 5.31463 34.3358C5.3406 34.3098 5.36657 34.3098 5.41824 34.2837C4.46111 33.2974 3.45257 32.4411 3.03866 32.8822Z" fill="white"/>
<path d="M5.20382 43.1561C5.12619 42.793 5.22978 42.6632 5.41078 42.6111C5.72108 42.6111 6.03138 42.6892 6.29027 42.8709C5.8504 42.6111 5.02284 42.0141 4.78991 41.2616C4.0657 40.7164 3.39316 40.4051 3.31552 41.1058C3.1605 42.6111 6.67821 45.2587 6.67821 45.2587L6.70418 45.2065C5.8504 44.2203 5.25549 43.4418 5.20382 43.1561Z" fill="white"/>
<path d="M5.34148 32.6242C5.23787 32.9614 5.72943 33.792 6.24668 34.5446C5.93638 34.2851 5.60011 34.1553 5.28981 34.363C4.77229 34.7003 5.49676 35.8424 6.16904 36.7249C5.70345 36.2835 5.1862 35.9722 4.95353 36.4912C4.6949 37.114 5.21217 37.9707 5.72943 38.5938C5.34148 38.282 4.8759 38.0746 4.5656 38.5417C4.15169 39.1904 5.21217 40.3327 5.93638 40.9554C5.39315 40.5663 4.6949 40.1509 4.72062 40.9554C4.77255 41.864 5.7811 42.6166 6.29862 42.9279C6.03973 42.7724 5.72943 42.6687 5.41911 42.6687C5.23787 42.6948 5.13452 42.8503 5.21217 43.2138C5.4708 44.3816 14.2652 53.6736 15.843 52.6613C17.4723 51.5972 15.8948 46.1724 12.2993 40.5143C10.8249 38.1784 6.45364 32.3644 5.52247 32.5203C5.41911 32.4682 5.36744 32.5463 5.34148 32.6239V32.6242Z" fill="white"/>
<path d="M37.5449 59.1491C37.6743 59.6163 37.7776 60.1871 37.7517 60.6543C37.9329 59.824 40.0796 55.671 40.5711 54.9443C39.8466 55.2817 38.0622 57.2802 37.5449 59.1491Z" fill="white"/>
<path d="M44.1919 52.3743C44.1919 52.3743 40.5965 53.5424 38.7857 55.2034C36.9753 56.8646 35.4492 59.3563 35.4492 59.3563C35.4492 59.3563 36.4837 58.6035 36.8202 58.9149C37.1562 59.2265 36.9236 60.9135 36.9236 60.9135C36.9236 60.9135 37.7511 58.2661 38.9152 56.6829C39.898 55.3332 40.5965 54.7104 42.3812 54.0095C44.166 53.3086 44.1399 53.3607 44.1399 53.3607L44.1919 52.3743Z" fill="white"/>
<path d="M34.596 63.7421C35.0616 63.7681 35.5012 63.7681 35.967 63.716C37.9067 63.6642 39.8207 63.4308 41.709 63.0412C53.0382 60.4979 68.0919 43.0299 62.35 33.6599C61.7033 32.596 62.0134 31.0909 63.6171 30.5716C64.2138 30.3649 64.8008 30.131 65.3761 29.8705C66.1779 29.5592 66.7985 28.9104 67.0315 28.08C67.3677 26.9119 67.4711 25.5364 66.6692 24.3943C66.152 23.6674 65.8418 23.5118 64.9881 23.1225C64.2896 22.8112 63.5654 22.6553 62.8672 22.3698C62.7894 22.3437 62.7379 22.3179 62.6602 22.2661C62.3756 24.5242 60.7203 25.121 57.9008 25.8216C57.8218 26.2428 57.7182 26.6589 57.5905 27.0677C57.4352 27.5089 57.2802 27.9242 57.0989 28.3393C56.9697 28.677 56.8919 29.0663 56.737 29.4036C56.323 30.312 55.2886 30.8832 54.4091 31.3761C53.4779 31.8951 52.4434 32.2847 51.6413 32.9593C50.9688 33.5563 50.4001 34.2572 49.9085 35.036C48.9514 36.5153 48.3049 38.2023 47.9686 39.9414C47.6323 41.7322 47.3219 43.497 46.9338 45.2621C46.6235 46.6897 46.2613 47.9876 45.4078 49.1812C44.8131 50.0119 44.1405 50.7644 43.4421 51.4915C42.8729 52.0623 42.2523 52.5813 41.709 53.1783C41.3179 53.6524 40.9635 54.1558 40.6486 54.6839C40.1053 55.5664 39.4845 56.4229 38.9672 57.3312C38.3983 58.3174 37.8291 59.4595 37.7257 60.6533C37.2602 60.5754 36.7686 60.6794 36.4067 60.9908C36.148 61.1724 35.6305 61.5878 35.7858 61.977C35.4495 62.081 35.0872 62.1589 34.7512 62.2627C34.389 62.3405 34.1047 62.6519 34.0527 63.0154C34.1303 63.2749 34.2337 63.5083 34.4149 63.7163C34.4666 63.7421 34.5443 63.7421 34.596 63.7421ZM62.505 25.2508C62.6083 24.8097 63.0482 24.498 63.5137 24.576C63.9534 24.602 64.3157 24.9653 64.2896 25.4066V25.4327C64.1863 25.8739 63.7465 26.1852 63.2808 26.1076C62.8413 26.0814 62.479 25.718 62.505 25.2769V25.2508Z" fill="white"/>
<path d="M62.4271 22.1117C61.5219 21.4368 61.1081 20.3984 60.7718 19.4383C60.4872 18.5815 60.2805 17.699 60.1252 16.8164C58.2369 16.4014 57.073 18.3999 57.1247 19.6975C57.1767 20.9952 57.6421 22.2931 57.9526 23.5908C58.1076 24.2136 57.9785 24.9406 57.9006 25.5633C60.6684 24.8885 62.1945 24.3177 62.4271 22.1114V22.1117Z" fill="white"/>
<path d="M54.6124 52.0126C53.9398 52.454 53.9398 51.6236 53.9918 50.9487C53.8104 51.8831 53.3706 53.3626 52.5947 53.3365C52.0258 53.3104 51.9741 52.8175 52.0514 52.2985C51.7671 53.0509 51.3015 53.9595 50.629 54.0113C50.4221 55.1535 50.3704 56.2433 50.8099 56.529C51.2496 56.8145 51.8446 55.5427 52.336 54.0372C52.1808 54.9716 52.2067 55.7243 52.6464 55.8541C53.3709 56.0359 54.1984 53.7518 54.7416 51.857C54.7156 51.961 54.6638 51.9867 54.6124 52.0129V52.0126Z" fill="white"/>
<path d="M48.5326 57.5135C49.1793 57.6954 49.9555 55.8267 50.5503 54.0616C50.1104 54.0356 50.1104 53.4646 50.2657 52.8938C49.8518 53.9318 49.2312 55.1258 48.662 54.8401C48.636 54.8141 48.6103 54.8141 48.5843 54.7883C48.1707 56.0859 47.9637 57.3581 48.5326 57.5138V57.5135Z" fill="white"/>
<path d="M56.3196 50.4814C56.0611 50.7409 55.88 50.7149 55.7507 50.5852C55.5954 50.2995 55.5178 50.0142 55.5178 49.6769C55.5178 50.1959 55.4144 51.2081 54.8972 51.779C54.7936 52.6876 54.8453 53.4401 55.4919 53.1548C56.8629 52.5318 57.4061 48.1455 57.4061 48.1455H57.3542C56.9146 49.3912 56.5266 50.2737 56.3196 50.4814Z" fill="white"/>
<path d="M47.1426 55.6462C47.4789 55.5685 47.9444 54.7119 48.3324 53.8814C48.2548 54.2708 48.3324 54.6342 48.6429 54.7898C49.2118 55.0753 49.8327 53.8814 50.2464 52.8433C50.0914 53.4661 50.0914 54.0888 50.6603 54.0113C51.3328 53.9333 51.7984 53.0507 52.083 52.2983C52.0054 52.7912 52.0571 53.3102 52.6263 53.3364C53.402 53.3624 53.8417 51.8829 54.0229 50.9485C53.9451 51.6234 53.9711 52.4279 54.6435 52.0127C55.4197 51.5194 55.549 50.2737 55.549 49.6767C55.549 49.9881 55.6267 50.2994 55.7816 50.585C55.911 50.7148 56.0662 50.7409 56.3508 50.4814C57.2301 49.6767 60.8514 37.3739 59.1961 36.5178C57.463 35.6349 53.5831 39.7357 50.4793 45.6796C49.2118 48.1453 46.3667 54.8416 46.9616 55.5685C46.9875 55.6205 47.065 55.6723 47.1426 55.6462Z" fill="white"/>
<path d="M54.3759 14.4256C54.7122 14.0882 55.1518 13.6989 55.5657 13.4912C54.7639 13.7507 50.1081 13.9584 49.2285 13.9066C49.8752 14.3738 52.5133 14.9188 54.3759 14.4256Z" fill="white"/>
<path d="M45.1953 12.0399C45.1953 12.0399 48.0144 14.5836 50.3423 15.3361C52.6962 16.089 55.5931 16.1668 55.5931 16.1668C55.5931 16.1668 54.4293 15.6216 54.5069 15.1805C54.5845 14.7393 56.1883 14.0904 56.1883 14.0904C56.1883 14.0904 53.4722 14.7133 51.5584 14.4798C49.9028 14.2981 49.0232 13.9866 47.5232 12.7927C46.0228 11.5988 46.0747 11.5728 46.0747 11.5728L45.1953 12.0399Z" fill="white"/>
<path d="M59.8095 14.6852C59.6027 14.2701 59.37 13.8806 59.0852 13.5174C58.0766 11.8563 56.9127 10.2989 55.6453 8.8715C47.808 0.280191 25.1755 -4.08008 19.9764 5.60116C19.3818 6.71716 17.9331 7.18435 16.6917 6.0423C16.2261 5.62696 15.7086 5.23768 15.1912 4.87445C14.5188 4.32936 13.6395 4.12143 12.8117 4.32936C11.6219 4.61467 10.4062 5.21163 9.81126 6.48343C9.42331 7.28806 9.47498 7.65155 9.55263 8.56013C9.63026 9.31264 9.86293 10.0393 9.96654 10.7921V11.0256C12.0615 10.1433 13.4066 11.2851 15.4242 13.3876C15.8121 13.2318 16.2261 13.1281 16.6397 13.0502C17.0796 12.9465 17.5452 12.8944 17.9848 12.8164C18.347 12.7646 18.7092 12.6348 19.0713 12.583C20.054 12.5051 21.0888 13.102 21.9424 13.6211C22.8476 14.1662 23.7011 14.8671 24.7098 15.2045C25.5705 15.4897 26.4681 15.6471 27.3741 15.6716C29.1331 15.7494 30.9177 15.4899 32.5731 14.8929C34.2803 14.2961 35.9615 13.6732 37.6946 13.1281C39.0912 12.6867 40.3588 12.3493 41.8329 12.5053C42.8417 12.609 43.8505 12.8164 44.8333 13.076C45.6095 13.2836 46.3594 13.5692 47.1356 13.7248C47.7301 13.829 48.351 13.9067 48.9719 13.9067C50.0066 13.9327 51.0412 14.0624 52.1016 14.0624C53.2397 14.0624 54.5072 13.9843 55.5934 13.4655C55.6721 13.6898 55.7985 13.8941 55.9637 14.0645C56.1289 14.2347 56.3293 14.367 56.5505 14.4517C56.8351 14.5816 57.4557 14.841 57.7146 14.4778C57.9732 14.7373 58.2059 14.9968 58.4646 15.2304C58.7231 15.5159 59.1371 15.5938 59.4734 15.4641C59.6544 15.2822 59.8095 15.0487 59.8873 14.8153C59.8612 14.7892 59.8353 14.737 59.8095 14.6852ZM12.6567 9.67613C12.2168 9.80589 11.7512 9.57217 11.5702 9.13103C11.3633 8.74174 11.5183 8.2485 11.9065 8.04082C11.9065 8.04082 11.9325 8.04082 11.9325 8.01478C12.3721 7.88501 12.8377 8.11874 13.0187 8.55987C13.2256 8.94915 13.0706 9.4424 12.6824 9.65007C12.6564 9.65007 12.6564 9.67613 12.6564 9.67613H12.6567Z" fill="white"/>
<path d="M9.96292 11.3118C9.80764 12.4278 9.16108 13.3103 8.48854 14.0889C7.89369 14.7636 7.24497 15.3887 6.54883 15.9576C7.14347 17.8006 9.44567 17.8006 10.5321 17.1257C11.6183 16.4509 12.5238 15.3867 13.4806 14.4784C13.9462 14.0369 14.6445 13.7775 15.2137 13.518C13.222 11.4673 11.9805 10.4292 9.96292 11.3118Z" fill="white"/>
<path d="M39.6851 3.16273C40.3835 3.52622 39.6851 3.94156 39.0645 4.22688C39.9696 3.9155 41.4701 3.55202 41.832 4.25293C42.091 4.74592 41.6769 5.05755 41.2114 5.23916C41.9873 5.10941 43.0221 5.08335 43.41 5.60265C44.4962 5.21312 45.4533 4.72012 45.505 4.20082C45.557 3.68177 44.1599 3.78575 42.5821 4.12318C43.4617 3.78575 44.1082 3.3704 43.9792 2.92926C43.7719 2.2023 41.3924 2.64369 39.4783 3.11089C39.5817 3.08483 39.6336 3.11089 39.6853 3.16299L39.6851 3.16273Z" fill="white"/>
<path d="M47.4702 5.67527C47.289 5.02647 45.2974 5.286 43.487 5.64923C43.6936 6.06482 43.2024 6.32408 42.6074 6.50596C43.6936 6.35013 45.0387 6.29829 45.0646 6.92129V7.025C46.4097 6.71362 47.6253 6.27249 47.4702 5.67527Z" fill="white"/>
<path d="M37.5078 2.43384C37.87 2.53781 37.9217 2.69336 37.87 2.87498C37.7067 3.14689 37.4747 3.3707 37.1974 3.52378C37.6631 3.26451 38.5686 2.84892 39.3444 3.03079C40.172 2.66757 40.7929 2.22618 40.2239 1.83689C38.9822 0.928562 34.9473 2.66757 34.9473 2.66757L34.9732 2.71942C36.2663 2.48569 37.2235 2.35593 37.5078 2.43384Z" fill="white"/>
<path d="M46.5402 7.83529C46.3073 7.57577 45.3244 7.60182 44.4192 7.67947C44.7812 7.54972 45.0658 7.31625 45.0658 6.95276C45.0398 6.33002 43.6948 6.38186 42.6085 6.53769C43.2291 6.35581 43.7724 6.04443 43.4361 5.6033C43.0481 5.0582 42.0393 5.11006 41.2375 5.23981C41.703 5.0582 42.117 4.74657 41.8583 4.25358C41.4964 3.55267 39.996 3.9422 39.0908 4.22753C39.7114 3.968 40.41 3.52661 39.7114 3.16338C38.8839 2.74804 37.7717 3.24128 37.2285 3.55267C37.5128 3.39711 37.7198 3.18944 37.901 2.90385C37.9527 2.72224 37.8751 2.56644 37.5388 2.46273C36.4007 2.09924 23.9852 5.11006 24.0885 6.97882C24.1922 8.92523 29.6756 10.2492 36.349 9.96358C39.1166 9.83382 46.3073 8.97735 46.6436 8.06902C46.6175 7.96506 46.5916 7.88715 46.5402 7.83529Z" fill="white"/>
</g>
<defs>
<clipPath id="clip0_1_4017">
<rect width="66.4688" height="66.4688" fill="white" transform="translate(0.8125 0.0957031)"/>
</clipPath>
</defs>
</svg>
