<svg width="32" height="32" viewBox="0 0 32 32" fill="none" xmlns="http://www.w3.org/2000/svg">
<g clip-path="url(#clip0_3003_1587)">
<path d="M18.5411 26.4597H13.4571C7.6491 26.4597 7.5821 11.4317 7.5821 10.7927C7.5821 5.95572 12.3551 1.89372 15.8011 0.820719C15.9321 0.783719 16.0681 0.783719 16.1971 0.820719C19.6421 1.89372 24.4161 5.92472 24.4161 10.7087C24.4161 11.3527 24.3491 26.4597 18.5411 26.4597ZM16.0001 2.15972C13.0331 3.18072 8.9161 6.74272 8.9161 10.7927C8.9161 16.7447 10.3271 25.1257 13.4571 25.1257H18.5411C21.6741 25.1257 23.0811 16.6947 23.0811 10.7087C23.0821 6.70872 18.9651 3.17972 16.0001 2.15972ZM9.3751 31.2087C9.3241 31.2087 9.2751 31.2037 9.2261 31.1917C9.0151 31.1437 8.8391 30.9957 8.7571 30.7947L6.0061 24.0437C5.9011 23.7877 5.9661 23.4917 6.1711 23.2997L9.1101 20.5807C9.3791 20.3297 9.8011 20.3457 10.0531 20.6157C10.3041 20.8867 10.2861 21.3107 10.0161 21.5587L7.4171 23.9657L9.6361 29.4107L14.2231 25.2937C14.4961 25.0427 14.9181 25.0687 15.1641 25.3447C15.4111 25.6177 15.3871 26.0397 15.1131 26.2857L9.8211 31.0367C9.6961 31.1497 9.5371 31.2097 9.3761 31.2097L9.3751 31.2087ZM22.6251 31.2087C22.4621 31.2087 22.3041 31.1487 22.1801 31.0397L16.8881 26.2887C16.6131 26.0407 16.5891 25.6207 16.8371 25.3477C17.0841 25.0747 17.5041 25.0487 17.7781 25.2967L22.3631 29.4137L24.5821 23.9687L21.9851 21.5617C21.7141 21.3107 21.6971 20.8897 21.9481 20.6187C22.1971 20.3477 22.6201 20.3297 22.8911 20.5837L25.8301 23.3027C26.0331 23.4947 26.0991 23.7857 25.9951 24.0467L23.2441 30.7977C23.1631 30.9977 22.9891 31.1467 22.7761 31.1947C22.7251 31.2027 22.6751 31.2087 22.6251 31.2087Z" fill="#000"/>
</g>
<defs>
<clipPath id="clip0_3003_1587">
<rect width="32" height="32" fill="white"/>
</clipPath>
</defs>
</svg>
