<svg width="46" height="32" viewBox="0 0 46 32" fill="none" xmlns="http://www.w3.org/2000/svg">
<g clip-path="url(#clip0_3003_1572)">
<path d="M15.3281 22.4981C11.3751 22.4981 8.15313 18.2031 7.85213 14.4071C6.96313 14.1561 6.16113 13.4231 6.16113 12.4981V9.83106C6.16113 8.99806 6.96812 8.39606 7.49412 8.09206V5.83106C7.49412 3.30306 9.51412 1.23906 12.0231 1.16706C12.5581 0.952062 14.6701 0.164062 16.8271 0.164062C20.2671 0.164062 22.1601 2.17706 22.1601 5.83106V7.89006C23.4931 8.15006 23.4931 9.22106 23.4931 9.83106V12.4981C23.4931 13.4261 23.0701 14.1181 22.3921 14.3811C22.1361 18.3211 19.1991 22.4981 15.3271 22.4981H15.3281ZM16.8281 1.49806C14.6651 1.49806 12.4451 2.43406 12.4241 2.44506C12.3391 2.48006 12.2511 2.49806 12.1611 2.49806C10.3241 2.49806 8.82812 3.99306 8.82812 5.83106V8.49806C8.82812 8.75906 8.67212 8.99806 8.43512 9.10606C7.96012 9.32106 7.52012 9.68906 7.49412 9.83706V12.4981C7.49412 12.7911 8.05412 13.1651 8.49412 13.1651C8.86212 13.1651 9.16113 13.4641 9.16113 13.8321C9.16113 17.1351 12.0061 21.1651 15.3281 21.1651C18.5671 21.1651 21.0791 17.2221 21.0791 13.8321C21.0791 13.4641 21.3781 13.1651 21.7461 13.1651C22.0231 13.1651 22.1631 12.9411 22.1631 12.4981V9.83106C22.1631 9.16406 22.1631 9.16406 21.4961 9.16406C21.1281 9.16406 20.8291 8.86506 20.8291 8.49706V5.83006C20.8291 2.91406 19.5211 1.49706 16.8291 1.49706L16.8281 1.49806ZM1.49512 31.8311C1.12712 31.8311 0.828125 31.5311 0.828125 31.1641V29.8311C0.828125 25.9701 3.91213 23.1641 8.16113 23.1641H9.80513L11.5801 20.5161C11.7851 20.2111 12.1991 20.1281 12.5051 20.3331C12.8101 20.5361 12.8931 20.9521 12.6881 21.2571L10.7161 24.2001C10.5921 24.3871 10.3841 24.4971 10.1611 24.4971H8.16113C4.62913 24.4971 2.16112 26.6921 2.16112 29.8301V31.1631C2.16112 31.5301 1.86112 31.8301 1.49413 31.8301L1.49512 31.8311ZM29.4951 31.8311C29.1281 31.8311 28.8281 31.5311 28.8281 31.1641V29.8311C28.8281 26.6911 26.4071 24.4981 22.9371 24.4981H20.9371C20.7171 24.4981 20.5121 24.3901 20.3881 24.2091L18.2241 21.0621C18.0161 20.7581 18.0921 20.3431 18.3961 20.1371C18.7011 19.9321 19.1161 20.0051 19.3231 20.3121L21.2881 23.1711H22.9371C27.1891 23.1711 30.1611 25.9151 30.1611 29.8381V31.1711C30.1611 31.5321 29.8611 31.8321 29.4941 31.8321L29.4951 31.8311ZM37.4951 31.8311C37.1281 31.8311 36.8281 31.5311 36.8281 31.1641V29.8311C36.8281 26.6911 34.4071 24.4981 30.9371 24.4981H28.9371C28.7161 24.4981 28.5131 24.3901 28.3881 24.2091L26.2241 21.0621C26.0791 20.8501 26.0681 20.5711 26.1961 20.3501L26.5131 19.8091C26.5481 19.7441 26.5971 19.6861 26.6541 19.6371C28.2221 18.2961 29.1591 16.0811 29.1591 13.7171C29.1591 13.3491 29.4581 13.0501 29.8261 13.0501C30.0331 13.0501 30.1591 13.0501 30.1591 12.5031V9.83606C30.1591 9.16906 30.1591 9.16906 29.4921 9.16906C29.1241 9.16906 28.8251 8.86906 28.8251 8.50206V5.83506C28.8251 4.19206 28.4571 3.01206 27.7301 2.32806C27.0661 1.70106 26.0621 1.44806 24.6631 1.52306C24.2981 1.55806 23.9801 1.27006 23.9581 0.898062C23.9351 0.531062 24.2151 0.214062 24.5831 0.193062C26.3641 0.0880625 27.6981 0.464062 28.6461 1.35406C29.6491 2.29906 30.1591 3.80506 30.1591 5.83006V7.88906C31.4921 8.14606 31.4921 9.22006 31.4921 9.83006V12.4971C31.4921 13.6251 30.9611 14.0801 30.4791 14.2601C30.3431 16.7631 29.2941 19.0811 27.6071 20.5711L27.5601 20.6551L29.2871 23.1661H30.9351C35.1871 23.1661 38.1591 25.9091 38.1591 29.8331V31.1661C38.1591 31.5311 37.8591 31.8311 37.4921 31.8311H37.4951ZM45.4951 31.8311C45.1281 31.8311 44.8281 31.5311 44.8281 31.1641V29.8311C44.8281 26.6911 42.4071 24.4981 38.9371 24.4981H36.9371C36.7161 24.4981 36.5131 24.3901 36.3881 24.2091L34.2241 21.0621C34.0791 20.8501 34.0681 20.5711 34.1961 20.3501L34.5131 19.8091C34.5481 19.7441 34.5971 19.6861 34.6541 19.6371C36.2221 18.2961 37.1591 16.0811 37.1591 13.7171C37.1591 13.3491 37.4581 13.0501 37.8261 13.0501C38.0331 13.0501 38.1591 13.0501 38.1591 12.5031V9.83606C38.1591 9.16906 38.1591 9.16906 37.4921 9.16906C37.1241 9.16906 36.8251 8.86906 36.8251 8.50206V5.83506C36.8251 4.19206 36.4571 3.01206 35.7301 2.32806C35.0661 1.70106 34.0631 1.44806 32.6631 1.52306C32.3041 1.55806 31.9781 1.27006 31.9591 0.898062C31.9341 0.531062 32.2151 0.214062 32.5841 0.193062C34.3731 0.0880625 35.6991 0.464062 36.6471 1.35406C37.6481 2.29906 38.1591 3.80506 38.1591 5.83006V7.88906C39.4921 8.14606 39.4921 9.22006 39.4921 9.83006V12.4971C39.4921 13.6251 38.9611 14.0801 38.4791 14.2601C38.3431 16.7631 37.2941 19.0811 35.6071 20.5711L35.5601 20.6551L37.2871 23.1661H38.9351C43.1871 23.1661 46.1591 25.9091 46.1591 29.8331V31.1661C46.1591 31.5311 45.8591 31.8311 45.4921 31.8311H45.4951ZM12.8281 30.4981C12.7881 30.4981 12.7471 30.4941 12.7071 30.4861C12.4911 30.4471 12.3081 30.3021 12.2191 30.1021L9.55212 24.1021C9.43312 23.8341 9.50313 23.5181 9.72412 23.3271C9.94712 23.1321 10.2671 23.1121 10.5151 23.2661L15.8481 26.5991C16.0201 26.7071 16.1331 26.8871 16.1561 27.0881C16.1801 27.2851 16.1091 27.4921 15.9651 27.6321L13.2981 30.2991C13.1711 30.4281 13.0011 30.4981 12.8271 30.4981H12.8281ZM11.6561 25.5511L13.0441 28.6741L14.4321 27.2861L11.6561 25.5511ZM18.1601 30.4981C17.9851 30.4981 17.8151 30.4291 17.6881 30.3031L15.0211 27.6361C14.8771 27.4971 14.8061 27.2921 14.8301 27.0921C14.8531 26.8921 14.9671 26.7121 15.1381 26.6041L20.4711 23.2711C20.7191 23.1161 21.0391 23.1361 21.2621 23.3321C21.4831 23.5271 21.5531 23.8391 21.4341 24.1071L18.7671 30.1071C18.6781 30.3061 18.4951 30.4521 18.2791 30.4911C18.2401 30.4941 18.1981 30.4981 18.1591 30.4981H18.1601ZM16.5561 27.2861L17.9441 28.6741L19.3321 25.5511L16.5561 27.2861Z" fill="black"/>
</g>
<defs>
<clipPath id="clip0_3003_1572">
<rect width="45" height="32" fill="white" transform="translate(0.828125)"/>
</clipPath>
</defs>
</svg>
