<svg width="32" height="32" viewBox="0 0 32 32" fill="none" xmlns="http://www.w3.org/2000/svg">
<g clip-path="url(#clip0_3003_1581)">
<path d="M16 8.66797C13.795 8.66797 12 6.87297 12 4.66797C12 2.46297 13.795 0.667969 16 0.667969C18.205 0.667969 20 2.46297 20 4.66797C20 6.87297 18.205 8.66797 16 8.66797ZM16 2.00097C14.529 2.00097 13.333 3.19597 13.333 4.66797C13.333 6.13997 14.529 7.33497 16 7.33497C17.472 7.33497 18.667 6.13997 18.667 4.66797C18.667 3.19597 17.472 2.00097 16 2.00097ZM16 31.334C15.632 31.334 15.333 31.034 15.333 30.667V7.99997C15.333 7.63297 15.632 7.33297 16 7.33297C16.368 7.33297 16.667 7.63297 16.667 7.99997V30.667C16.667 31.034 16.368 31.334 16 31.334ZM18 30.001C17.755 30.001 12 29.964 12 26.668C12 24.883 13.993 24.084 15.752 23.383C17.185 22.808 18.667 22.216 18.667 21.335C18.667 20.454 17.186 19.862 15.752 19.287C13.993 18.586 12 17.787 12 16.002C12 13.585 13.869 12.899 15.679 12.238C16.339 11.995 17.022 11.747 17.704 11.406C20.001 10.257 20.001 9.27897 20.001 6.66897C20.001 6.30197 20.3 6.00197 20.668 6.00197C21.036 6.00197 21.335 6.30197 21.335 6.66897C21.335 9.32497 21.335 11.081 18.3 12.598C17.552 12.97 16.803 13.246 16.139 13.489C14.246 14.184 13.335 14.576 13.335 16.002C13.335 16.883 14.816 17.475 16.25 18.05C18.009 18.75 20.002 19.55 20.002 21.335C20.002 23.12 18.009 23.919 16.25 24.62C14.818 25.195 13.335 25.787 13.335 26.668C13.335 28.301 16.791 28.668 18.002 28.668C18.37 28.668 18.669 28.968 18.669 29.335C18.669 29.702 18.368 30.002 18.001 30.002L18 30.001ZM14.524 30.001C14.156 30.001 13.857 29.701 13.857 29.334C13.857 28.967 14.156 28.669 14.524 28.667C14.565 28.667 18.668 28.606 18.668 26.667C18.668 25.786 17.188 25.194 15.753 24.619C13.994 23.918 12.001 23.119 12.001 21.334C12.001 19.549 13.994 18.75 15.753 18.049C17.185 17.474 18.668 16.882 18.668 16.001C18.668 14.493 17.927 14.14 16.101 13.413C15.524 13.182 14.892 12.933 14.226 12.601C11.218 11.096 10.667 9.41997 10.667 6.66997C10.667 6.30297 10.966 6.00297 11.334 6.00297C11.702 6.00297 12.001 6.30297 12.001 6.66997C12.001 9.12497 12.428 10.209 14.822 11.407C15.45 11.72 16.047 11.958 16.593 12.175C18.345 12.87 20.001 13.532 20.001 16.003C20.001 17.788 18.008 18.587 16.249 19.288C14.817 19.865 13.334 20.455 13.334 21.336C13.334 22.217 14.815 22.808 16.249 23.384C18.008 24.085 20.001 24.884 20.001 26.669C20 29.3 16.557 30.001 14.524 30.001ZM8.667 12.668C8.596 12.668 8.526 12.656 8.456 12.635C0.0960007 9.84797 0 4.87997 0 4.66797C0 4.30097 0.299 4.00097 0.667 4.00097H10C10.247 4.00097 10.472 4.13697 10.588 4.35297C10.704 4.56997 10.691 4.83297 10.555 5.03797C9.324 6.88597 8.066 9.30897 9.263 11.705C9.383 11.948 9.347 12.234 9.171 12.441C9.042 12.586 8.858 12.668 8.667 12.668ZM1.445 5.33397C1.762 6.51697 2.972 9.01897 7.572 10.887C7.136 8.83997 7.9 6.88797 8.797 5.33397H1.445ZM23.333 12.668C23.142 12.668 22.958 12.587 22.829 12.437C22.653 12.234 22.616 11.944 22.737 11.701C23.934 9.30797 22.676 6.88197 21.445 5.03697C21.309 4.83297 21.297 4.56597 21.412 4.34897C21.528 4.13397 21.752 3.99797 22 3.99797H31.333C31.7 3.99797 32 4.29797 32 4.66497C32 4.87397 31.904 9.84497 23.544 12.634C23.473 12.655 23.404 12.668 23.333 12.668ZM23.2 5.33397C24.099 6.88897 24.861 8.84097 24.427 10.887C29.01 9.02397 30.227 6.51497 30.55 5.33397H23.2Z" fill="#000"/>
</g>
<defs>
<clipPath id="clip0_3003_1581">
<rect width="32" height="32" fill="white"/>
</clipPath>
</defs>
</svg>
