<svg width="35" height="35" viewBox="0 0 35 35" fill="none" xmlns="http://www.w3.org/2000/svg">
<path d="M14.766 13.6722C14.911 13.672 15.0501 13.6145 15.153 13.5122C15.256 13.4102 15.313 13.2702 15.313 13.1252V8.75022C15.3128 8.60517 15.2553 8.46608 15.153 8.36322C15.051 8.26022 14.911 8.20322 14.766 8.20322C14.6209 8.20344 14.4818 8.26095 14.379 8.36322C14.276 8.46522 14.219 8.60522 14.219 8.75022V11.4842L11.949 8.46022C11.9 8.38122 11.831 8.31622 11.75 8.27122C11.6458 8.21392 11.5259 8.19192 11.4082 8.2085C11.2905 8.22509 11.1813 8.27937 11.097 8.36322C10.994 8.46522 10.937 8.60522 10.937 8.75022V13.1252C10.9372 13.2703 10.9947 13.4094 11.097 13.5122C11.199 13.6152 11.339 13.6722 11.484 13.6722C11.629 13.672 11.7681 13.6145 11.871 13.5122C11.974 13.4102 12.031 13.2702 12.031 13.1252V10.3912L14.301 13.4152C14.35 13.4942 14.419 13.5592 14.5 13.6042C14.581 13.6492 14.673 13.6732 14.766 13.6722ZM19.141 9.29722C19.286 9.29701 19.4251 9.2395 19.528 9.13722C19.631 9.03522 19.688 8.89522 19.688 8.75022C19.6878 8.60517 19.6303 8.46608 19.528 8.36322C19.426 8.26022 19.286 8.20322 19.141 8.20322H16.954C16.8089 8.20344 16.6698 8.26095 16.567 8.36322C16.464 8.46522 16.407 8.60522 16.407 8.75022V13.1252C16.4072 13.2703 16.4647 13.4094 16.567 13.5122C16.669 13.6152 16.809 13.6722 16.954 13.6722C17.099 13.672 17.2381 13.6145 17.341 13.5122C17.444 13.4102 17.501 13.2702 17.501 13.1252V11.4842H19.142C19.287 11.484 19.4261 11.4265 19.529 11.3242C19.632 11.2222 19.689 11.0822 19.689 10.9372C19.6888 10.7922 19.6313 10.6531 19.529 10.5502C19.427 10.4472 19.287 10.3902 19.142 10.3902H17.5V9.29722H19.141ZM22.422 13.6722C22.567 13.672 22.7061 13.6145 22.809 13.5122C22.912 13.4102 22.969 13.2702 22.969 13.1252V9.29722H23.516C23.661 9.29701 23.8001 9.2395 23.903 9.13722C24.006 9.03522 24.063 8.89522 24.063 8.75022C24.0628 8.60517 24.0053 8.46608 23.903 8.36322C23.801 8.26022 23.661 8.20322 23.516 8.20322H21.329C21.1839 8.20344 21.0448 8.26095 20.942 8.36322C20.839 8.46522 20.782 8.60522 20.782 8.75022C20.7822 8.89528 20.8397 9.03437 20.942 9.13722C21.044 9.24022 21.184 9.29722 21.329 9.29722H21.876V13.1252C21.8762 13.2703 21.9337 13.4094 22.036 13.5122C22.138 13.6152 22.277 13.6722 22.422 13.6722ZM28.984 16.4062H6.01599C4.74799 16.3722 3.51699 16.8422 2.59499 17.7132C1.67273 18.5847 1.13306 19.7859 1.09399 21.0542V30.2852C1.12399 31.2722 1.54399 32.2072 2.26099 32.8852C2.97799 33.5632 3.93499 33.9302 4.92199 33.9052H5.23399C6.00933 33.9202 6.7706 33.6969 7.41507 33.2656C8.05953 32.8343 8.55618 32.2157 8.83799 31.4932L11.157 29.3062H23.845L26.164 31.4942C26.4458 32.2167 26.9425 32.8353 27.5869 33.2666C28.2314 33.6979 28.9927 33.9212 29.768 33.9062H30.08C31.067 33.9312 32.024 33.5642 32.741 32.8862C33.458 32.2082 33.878 31.2732 33.908 30.2862V29.5312C33.9078 29.3862 33.8503 29.2471 33.748 29.1442C33.646 29.0412 33.506 28.9842 33.361 28.9842C33.2159 28.9844 33.0768 29.0419 32.974 29.1442C32.871 29.2462 32.814 29.3862 32.814 29.5312V30.2862C32.7852 30.9836 32.4814 31.6412 31.969 32.1152C31.456 32.5892 30.777 32.8402 30.079 32.8132H29.767C29.199 32.8232 28.642 32.6552 28.173 32.3342C27.704 32.0132 27.348 31.5532 27.152 31.0202C27.1252 30.9343 27.0763 30.8571 27.01 30.7962L24.44 28.3522C24.339 28.2542 24.203 28.1992 24.063 28.1992H10.938C10.7972 28.1991 10.6619 28.254 10.561 28.3522L7.99099 30.7962C7.92474 30.8571 7.87574 30.9343 7.84899 31.0202C7.65399 31.5542 7.29699 32.0132 6.82799 32.3342C6.35899 32.6552 5.80299 32.8232 5.23399 32.8132H4.92199C4.57671 32.8267 4.23216 32.772 3.90804 32.6522C3.58392 32.5324 3.28657 32.35 3.03299 32.1152C2.52062 31.6412 2.2168 30.9836 2.18799 30.2862V21.0552C2.22576 20.0767 2.64988 19.1531 3.36741 18.4867C4.08494 17.8204 5.03737 17.4656 6.01599 17.5002H28.985C29.9636 17.4656 30.916 17.8204 31.6336 18.4867C32.3511 19.1531 32.7752 20.0767 32.813 21.0552V27.3442C32.8132 27.4893 32.8707 27.6284 32.973 27.7312C33.075 27.8342 33.215 27.8912 33.36 27.8912C33.505 27.891 33.6441 27.8335 33.747 27.7312C33.85 27.6292 33.907 27.4892 33.907 27.3442V21.0552C33.868 19.7872 33.329 18.5852 32.406 17.7142C31.483 16.8432 30.253 16.3732 28.985 16.4072L28.984 16.4062Z" fill="#3E3465"/>
<path d="M6.563 26.2507H8.75C8.895 26.2507 9.034 26.1927 9.137 26.0907C9.24 25.9887 9.297 25.8487 9.297 25.7037V24.0627H10.938C11.083 24.0627 11.222 24.0048 11.325 23.9028C11.428 23.8007 11.485 23.6607 11.485 23.5157V21.3287C11.485 21.1837 11.427 21.0447 11.325 20.9417C11.223 20.8387 11.083 20.7817 10.938 20.7817H9.297V19.1407C9.297 18.9957 9.239 18.8567 9.137 18.7537C9.035 18.6507 8.895 18.5938 8.75 18.5938H6.563C6.418 18.5938 6.279 18.6517 6.176 18.7537C6.073 18.8557 6.016 18.9957 6.016 19.1407V20.7817H4.375C4.23 20.7817 4.091 20.8397 3.988 20.9417C3.885 21.0437 3.828 21.1837 3.828 21.3287V23.5168C3.828 23.6618 3.886 23.8007 3.988 23.9037C4.09 24.0067 4.23 24.0637 4.375 24.0637H6.016V25.7048C6.016 25.8498 6.074 25.9887 6.176 26.0917C6.278 26.1947 6.418 26.2507 6.563 26.2507ZM4.922 22.9697V21.8757H6.563C6.708 21.8757 6.847 21.8177 6.95 21.7157C7.053 21.6137 7.11 21.4737 7.11 21.3287V19.6877H8.204V21.3287C8.204 21.4737 8.262 21.6127 8.364 21.7157C8.466 21.8187 8.606 21.8757 8.751 21.8757H10.392V22.9697H8.75C8.605 22.9697 8.466 23.0277 8.363 23.1297C8.26 23.2317 8.203 23.3718 8.203 23.5168V25.1577H7.109V23.5168C7.109 23.3718 7.051 23.2327 6.949 23.1297C6.847 23.0267 6.707 22.9697 6.562 22.9697H4.922Z" fill="#3E3465"/>
<path d="M16.406 22.9688H14.219C14.074 22.9688 13.935 23.0267 13.832 23.1287C13.729 23.2307 13.672 23.3708 13.672 23.5158V25.7038C13.672 25.8488 13.73 25.9877 13.832 26.0907C13.934 26.1937 14.074 26.2507 14.219 26.2507H16.406C16.551 26.2507 16.69 26.1927 16.793 26.0907C16.896 25.9887 16.953 25.8488 16.953 25.7038V23.5168C16.953 23.3718 16.895 23.2327 16.793 23.1297C16.691 23.0267 16.551 22.9697 16.406 22.9697V22.9688ZM15.859 25.1558H14.765V24.0618H15.859V25.1558Z" fill="#3E3465"/>
<path d="M20.781 22.9688H18.594C18.449 22.9688 18.31 23.0267 18.207 23.1287C18.104 23.2307 18.047 23.3708 18.047 23.5158V25.7038C18.047 25.8488 18.105 25.9877 18.207 26.0907C18.309 26.1937 18.449 26.2507 18.594 26.2507H20.781C20.926 26.2507 21.065 26.1927 21.168 26.0907C21.271 25.9887 21.328 25.8488 21.328 25.7038V23.5168C21.328 23.3718 21.27 23.2327 21.168 23.1297C21.066 23.0267 20.926 22.9697 20.781 22.9697V22.9688ZM20.234 25.1558H19.14V24.0618H20.234V25.1558Z" fill="#3E3465"/>
<path d="M27.891 19.6887C27.8913 19.364 27.7953 19.0466 27.6151 18.7765C27.4348 18.5065 27.1785 18.296 26.8785 18.1718C26.5786 18.0476 26.2485 18.0152 25.9301 18.0787C25.6117 18.1423 25.3193 18.2989 25.09 18.5287C24.8602 18.758 24.7036 19.0504 24.64 19.3688C24.5765 19.6872 24.6089 20.0172 24.7331 20.3172C24.8573 20.6172 25.0678 20.8735 25.3378 21.0538C25.6079 21.234 25.9253 21.33 26.25 21.3297C26.4655 21.3298 26.679 21.2875 26.8781 21.2051C27.0773 21.1226 27.2583 21.0018 27.4107 20.8494C27.5631 20.697 27.6839 20.516 27.7664 20.3168C27.8488 20.1177 27.8911 19.9042 27.891 19.6887ZM25.704 19.6887C25.7041 19.5805 25.7361 19.4748 25.796 19.3847C25.8557 19.2947 25.9411 19.2247 26.041 19.1837C26.141 19.1425 26.2509 19.1317 26.357 19.1527C26.463 19.1737 26.56 19.2257 26.637 19.3027C26.714 19.3797 26.766 19.4767 26.787 19.5827C26.808 19.6888 26.7972 19.7987 26.756 19.8987C26.715 19.9986 26.645 20.084 26.555 20.1437C26.4496 20.2135 26.3233 20.2449 26.1974 20.2325C26.0716 20.2201 25.9538 20.1648 25.864 20.0757C25.761 19.9737 25.704 19.8337 25.704 19.6887ZM31.172 22.4227C31.1723 22.098 31.0763 21.7806 30.8961 21.5105C30.7158 21.2405 30.4595 21.03 30.1595 20.9058C29.8596 20.7816 29.5295 20.7492 29.2111 20.8127C28.8927 20.8763 28.6003 21.0329 28.371 21.2627C28.1412 21.492 27.9846 21.7844 27.921 22.1028C27.8575 22.4212 27.8899 22.7512 28.0141 23.0512C28.1383 23.3512 28.3488 23.6075 28.6188 23.7878C28.8889 23.968 29.2063 24.064 29.531 24.0637C29.7465 24.0638 29.96 24.0215 30.1591 23.9391C30.3583 23.8566 30.5393 23.7358 30.6917 23.5834C30.8441 23.431 30.9649 23.25 31.0474 23.0508C31.1298 22.8517 31.1721 22.6382 31.172 22.4227ZM28.985 22.4227C28.9851 22.3145 29.0171 22.2088 29.077 22.1187C29.137 22.0287 29.223 21.9587 29.322 21.9177C29.422 21.8765 29.5319 21.8657 29.638 21.8867C29.7443 21.9075 29.8418 21.9598 29.918 22.0367C29.994 22.1137 30.047 22.2107 30.068 22.3167C30.089 22.4228 30.0782 22.5327 30.037 22.6327C29.996 22.7326 29.926 22.818 29.836 22.8777C29.7306 22.9475 29.6043 22.9789 29.4784 22.9665C29.3526 22.9541 29.2348 22.8988 29.145 22.8097C29.042 22.7077 28.985 22.5677 28.985 22.4227ZM22.969 24.0637C22.9687 24.3884 23.0647 24.7058 23.245 24.9759C23.4252 25.2459 23.6815 25.4564 23.9815 25.5806C24.2815 25.7048 24.6116 25.7372 24.9299 25.6737C25.2483 25.6102 25.5407 25.4535 25.77 25.2237C25.9998 24.9944 26.1565 24.702 26.22 24.3836C26.2835 24.0652 26.2511 23.7352 26.1269 23.4352C26.0027 23.1352 25.7922 22.8789 25.5222 22.6987C25.2521 22.5184 24.9347 22.4224 24.61 22.4227C24.3945 22.4226 24.181 22.4649 23.9819 22.5473C23.7827 22.6298 23.6018 22.7506 23.4494 22.903C23.2969 23.0555 23.1761 23.2364 23.0937 23.4356C23.0112 23.6347 22.9689 23.8482 22.969 24.0637ZM25.157 24.0637C25.1569 24.1719 25.1249 24.2776 25.065 24.3677C25.0053 24.4577 24.9199 24.5277 24.82 24.5687C24.72 24.6099 24.6101 24.6207 24.504 24.5997C24.3977 24.5789 24.3002 24.5266 24.224 24.4497C24.148 24.3727 24.095 24.2757 24.074 24.1697C24.053 24.0636 24.0638 23.9537 24.105 23.8537C24.146 23.7538 24.216 23.6684 24.306 23.6087C24.4114 23.5389 24.5377 23.5075 24.6636 23.5199C24.7895 23.5323 24.9072 23.5877 24.997 23.6767C25.1 23.7787 25.157 23.9187 25.157 24.0637ZM27.891 28.4387C28.2157 28.439 28.5331 28.343 28.8032 28.1628C29.0732 27.9825 29.2837 27.7262 29.4079 27.4262C29.5321 27.1262 29.5645 26.7962 29.501 26.4778C29.4375 26.1594 29.2808 25.867 29.051 25.6377C28.8217 25.4079 28.5293 25.2513 28.2109 25.1877C27.8926 25.1242 27.5625 25.1566 27.2625 25.2808C26.9625 25.405 26.7062 25.6155 26.526 25.8855C26.3457 26.1556 26.2497 26.473 26.25 26.7977C26.2499 27.0132 26.2922 27.2267 26.3747 27.4258C26.4571 27.625 26.5779 27.806 26.7304 27.9584C26.8828 28.1108 27.0637 28.2316 27.2629 28.3141C27.462 28.3965 27.6755 28.4388 27.891 28.4387ZM27.891 26.2517C27.9992 26.2518 28.1049 26.2838 28.195 26.3437C28.285 26.4037 28.355 26.4897 28.396 26.5887C28.4372 26.6887 28.448 26.7986 28.427 26.9047C28.406 27.0107 28.354 27.1077 28.277 27.1847C28.2 27.2617 28.103 27.3137 27.997 27.3347C27.8909 27.3557 27.781 27.3449 27.681 27.3037C27.5811 27.2627 27.4957 27.1927 27.436 27.1027C27.3662 26.9973 27.3348 26.871 27.3472 26.7451C27.3596 26.6193 27.415 26.5015 27.504 26.4117C27.606 26.3087 27.746 26.2517 27.891 26.2517ZM3.28101 12.5787C3.76457 12.5768 4.23389 12.4148 4.61576 12.1182C4.99763 11.8215 5.27057 11.4068 5.39201 10.9387H8.75001V13.1267H7.65601C7.58397 13.1262 7.51257 13.1402 7.44601 13.1677C7.37953 13.195 7.31906 13.2351 7.26801 13.2857L6.56301 13.9857C6.31329 13.8348 6.03558 13.736 5.74664 13.6953C5.45771 13.6547 5.16352 13.673 4.88185 13.7491C4.60018 13.8253 4.33686 13.9578 4.10779 14.1385C3.87871 14.3192 3.68863 14.5445 3.54901 14.8007C3.48001 14.9267 3.46401 15.0757 3.50401 15.2137C3.54427 15.3516 3.63687 15.4682 3.76201 15.5387C3.84101 15.5867 3.93201 15.6107 4.02401 15.6097C4.12444 15.6099 4.223 15.5826 4.30901 15.5307C4.39501 15.4787 4.46501 15.4037 4.51101 15.3147C4.60777 15.1467 4.74758 15.0076 4.91601 14.9117C5.08501 14.8157 5.27501 14.7657 5.46801 14.7677C5.6207 14.768 5.77162 14.8004 5.91101 14.8627C6.05101 14.9247 6.17501 15.0157 6.27701 15.1287C6.37301 15.2377 6.50801 15.3037 6.65201 15.3127C6.79664 15.3216 6.93895 15.2731 7.04801 15.1777C7.13003 15.1025 7.18576 15.0029 7.20701 14.8937L7.88001 14.2207H8.75001V14.7287C8.75092 14.8248 8.77133 14.9197 8.81001 15.0077C8.86702 15.1255 8.96417 15.2191 9.08401 15.2717C9.20401 15.3247 9.33801 15.3317 9.46301 15.2937C9.58801 15.2557 9.69501 15.1737 9.76501 15.0627C9.83501 14.9517 9.86301 14.8207 9.84401 14.6907V7.1487C9.84674 6.86132 9.92495 6.5797 10.0708 6.33206C10.2166 6.08443 10.425 5.87946 10.675 5.7377L16.718 2.3907C16.9581 2.26047 17.2269 2.19226 17.5 2.19226C17.7731 2.19226 18.0419 2.26047 18.282 2.3907L24.298 5.7317C24.5538 5.8704 24.768 6.07465 24.9188 6.32348C25.0696 6.57232 25.1515 6.85679 25.156 7.1477V14.6887C25.144 14.7997 25.167 14.9117 25.221 15.0097C25.2744 15.1076 25.3569 15.1865 25.457 15.2357C25.5318 15.2805 25.6161 15.3069 25.703 15.3127C25.8054 15.3129 25.9059 15.2845 25.993 15.2307C26.08 15.1767 26.15 15.0987 26.195 15.0067C26.2337 14.9187 26.2541 14.8238 26.255 14.7277V14.2197H27.125L27.792 14.8927C27.816 15.0017 27.874 15.1017 27.956 15.1767C28.065 15.2727 28.207 15.3207 28.352 15.3117C28.4236 15.3075 28.4936 15.289 28.558 15.2574C28.6224 15.2258 28.6799 15.1817 28.727 15.1277C28.829 15.0147 28.953 14.9247 29.091 14.8627C29.2483 14.7916 29.4203 14.7588 29.5928 14.7672C29.7653 14.7755 29.9333 14.8247 30.083 14.9107C30.251 15.0067 30.391 15.1457 30.488 15.3137C30.535 15.3987 30.604 15.4707 30.687 15.5207C30.7708 15.5708 30.8664 15.5977 30.964 15.5987C31.0562 15.5996 31.1469 15.5751 31.226 15.5277C31.3521 15.458 31.4458 15.3417 31.487 15.2037C31.528 15.0657 31.513 14.9167 31.444 14.7897C31.253 14.4503 30.975 14.168 30.6385 13.9718C30.3021 13.7756 29.9195 13.6727 29.53 13.6737C29.14 13.6747 28.766 13.7857 28.436 13.9857L27.741 13.2857C27.689 13.2337 27.626 13.1927 27.558 13.1657C27.49 13.1387 27.416 13.1257 27.342 13.1267H26.248V10.9397H29.606C29.7061 11.324 29.9087 11.674 30.1924 11.952C30.476 12.23 30.8299 12.4256 31.2161 12.518C31.6024 12.6103 32.0065 12.5959 32.3852 12.4763C32.7639 12.3566 33.1029 12.1362 33.366 11.8387C33.718 11.4397 33.912 10.9247 33.912 10.3927C33.912 9.8607 33.718 9.3457 33.366 8.9467C33.1028 8.64945 32.7638 8.42934 32.3851 8.30991C32.0065 8.19048 31.6025 8.17623 31.2164 8.26867C30.8303 8.36111 30.4766 8.55678 30.1931 8.83474C29.9096 9.1127 29.707 9.46249 29.607 9.8467H26.249V7.1097H27.343C27.415 7.11018 27.4864 7.09624 27.553 7.0687C27.6195 7.04138 27.68 7.00129 27.731 6.9507L28.437 6.2507C28.901 6.5247 29.45 6.6197 29.979 6.5187C30.508 6.4177 30.983 6.1257 31.313 5.6997C31.643 5.2737 31.807 4.7417 31.773 4.2037C31.739 3.6657 31.51 3.1587 31.129 2.7777C30.748 2.3967 30.241 2.1677 29.702 2.1337C29.1639 2.09941 28.6319 2.26301 28.206 2.5937C27.7801 2.92418 27.489 3.39835 27.387 3.9277C27.2852 4.45719 27.3806 5.0056 27.655 5.4697L27.108 6.0167H25.998C25.755 5.4937 25.353 5.0617 24.85 4.7807L18.834 1.4287C18.433 1.2107 17.984 1.0957 17.527 1.0957C17.07 1.0957 16.621 1.2097 16.22 1.4287L10.144 4.7807C9.64274 5.06255 9.24286 5.49497 9.00101 6.0167H7.88001L7.33301 5.4697C7.6051 5.0036 7.69722 4.45405 7.59201 3.9247C7.48707 3.39562 7.19309 2.92285 6.76501 2.5947C6.3367 2.26664 5.80317 2.10658 5.26501 2.1447C4.72698 2.1826 4.22114 2.41508 3.84201 2.7987C3.46301 3.1827 3.23801 3.6917 3.20801 4.2307C3.17825 4.76939 3.34569 5.30048 3.67901 5.7247C4.01268 6.14886 4.49002 6.43626 5.02101 6.5327C5.55201 6.6297 6.10001 6.5297 6.56201 6.2517L7.25701 6.9517C7.30901 7.0037 7.37201 7.0447 7.44001 7.0717C7.50801 7.0987 7.58201 7.1117 7.65601 7.1097H8.75001V9.8437H5.39101C5.28836 9.4474 5.07669 9.08779 4.78001 8.8057C4.48288 8.52393 4.113 8.33068 3.71201 8.2477C3.31097 8.16574 2.89499 8.19781 2.51126 8.34027C2.12752 8.48274 1.7914 8.72989 1.54101 9.0537C1.29102 9.37779 1.13686 9.76545 1.09601 10.1727C1.05501 10.5797 1.13001 10.9907 1.31101 11.3577C1.49235 11.7248 1.77297 12.0337 2.12101 12.2493C2.46905 12.465 2.87058 12.5787 3.28001 12.5777L3.28101 12.5787ZM31.719 9.2977C31.935 9.2977 32.147 9.3617 32.327 9.4817C32.507 9.6017 32.647 9.7727 32.73 9.9727C32.813 10.1727 32.835 10.3927 32.792 10.6047C32.7495 10.8167 32.6455 11.0115 32.493 11.1647C32.3401 11.3177 32.1452 11.4218 31.933 11.4637C31.721 11.5057 31.501 11.4847 31.301 11.4017C31.101 11.3187 30.93 11.1787 30.81 10.9987C30.69 10.8187 30.626 10.6077 30.626 10.3907C30.626 10.1007 30.741 9.8227 30.946 9.6177C31.151 9.4127 31.429 9.2977 31.719 9.2977ZM29.532 3.2817C29.822 3.2817 30.1 3.3967 30.305 3.6017C30.51 3.8067 30.625 4.0847 30.625 4.3747C30.625 4.6647 30.51 4.9427 30.305 5.1477C30.1 5.3527 29.822 5.4677 29.532 5.4677C29.242 5.4677 28.965 5.3507 28.761 5.1447C28.5561 4.94022 28.44 4.66319 28.438 4.3737C28.4378 4.23013 28.466 4.08793 28.5209 3.95528C28.5758 3.82262 28.6564 3.70213 28.758 3.6007C28.963 3.3957 29.241 3.2807 29.531 3.2807L29.532 3.2817ZM4.37401 4.3757C4.37431 4.19608 4.4186 4.01926 4.50301 3.8607C4.58701 3.7017 4.71001 3.5667 4.85901 3.4677C5.00801 3.3687 5.18001 3.3067 5.35901 3.2887C5.53801 3.2707 5.71801 3.2977 5.88401 3.3657C6.05001 3.4337 6.19701 3.5427 6.31101 3.6807C6.42501 3.8187 6.50401 3.9837 6.53901 4.1597C6.57401 4.3357 6.56601 4.5177 6.51501 4.6897C6.4636 4.8617 6.37051 5.01834 6.24401 5.1457C6.09101 5.2997 5.89601 5.4047 5.68401 5.4477C5.47163 5.49074 5.25125 5.4695 5.05101 5.3867C4.85101 5.3037 4.67901 5.1637 4.55901 4.9837C4.43868 4.80337 4.37431 4.5925 4.37401 4.3757ZM3.28101 9.2977C3.49701 9.2977 3.70901 9.3617 3.88901 9.4817C4.06901 9.6017 4.20901 9.7727 4.29201 9.9727C4.37501 10.1727 4.39601 10.3927 4.35401 10.6047C4.31223 10.817 4.20824 11.012 4.05527 11.165C3.9023 11.3179 3.70727 11.4219 3.49501 11.4637C3.28301 11.5057 3.06301 11.4847 2.86301 11.4017C2.66301 11.3187 2.49201 11.1787 2.37201 10.9987C2.25201 10.8187 2.18801 10.6077 2.18801 10.3907C2.18801 10.1007 2.30301 9.8227 2.50801 9.6177C2.71301 9.4127 2.99101 9.2977 3.28101 9.2977ZM15.313 30.6257H13.126V32.8137H15.314V30.6267L15.313 30.6257ZM21.328 30.0787H19.141V32.2667H21.329V30.0797L21.328 30.0787Z" fill="#3E3465"/>
<path d="M16.406 18.5938H14.219C14.074 18.5938 13.935 18.6517 13.832 18.7537C13.729 18.8557 13.672 18.9958 13.672 19.1408C13.672 19.2858 13.73 19.4248 13.832 19.5278C13.934 19.6308 14.074 19.6877 14.219 19.6877H16.406C16.551 19.6877 16.69 19.6298 16.793 19.5278C16.896 19.4258 16.953 19.2858 16.953 19.1408C16.953 18.9958 16.895 18.8567 16.793 18.7537C16.691 18.6507 16.551 18.5938 16.406 18.5938Z" fill="#3E3465"/>
<path d="M20.781 18.5938H18.594C18.449 18.5938 18.31 18.6517 18.207 18.7537C18.104 18.8557 18.047 18.9958 18.047 19.1408C18.047 19.2858 18.105 19.4248 18.207 19.5278C18.309 19.6308 18.449 19.6877 18.594 19.6877H20.781C20.926 19.6877 21.065 19.6298 21.168 19.5278C21.271 19.4258 21.328 19.2858 21.328 19.1408C21.328 18.9958 21.27 18.8567 21.168 18.7537C21.066 18.6507 20.926 18.5938 20.781 18.5938Z" fill="#3E3465"/>
</svg>
