<svg width="35" height="35" viewBox="0 0 35 35" fill="none" xmlns="http://www.w3.org/2000/svg">
<path d="M29.03 23.1056V8.63359C29.03 8.50959 28.981 8.39159 28.893 8.30359L25.16 4.57059C25.072 4.48259 24.954 4.43359 24.83 4.43359H11.763C11.3917 4.43359 11.0356 4.58109 10.773 4.84364C10.5105 5.1062 10.363 5.46229 10.363 5.83359V27.7666C10.363 28.1379 10.5105 28.494 10.773 28.7565C11.0356 29.0191 11.3917 29.1666 11.763 29.1666H18.98C19.1682 29.5831 19.4723 29.9366 19.8561 30.1849C20.2398 30.4331 20.6869 30.5657 21.144 30.5666H28.982C30.295 30.5666 31.363 29.4986 31.363 28.1856V25.4816C31.3621 24.8591 31.1173 24.2618 30.6812 23.8177C30.2451 23.3735 29.6523 23.1179 29.03 23.1056ZM25.297 6.02759L27.437 8.16759H25.297V6.02759ZM11.763 28.2336C11.6394 28.2328 11.521 28.1834 11.4336 28.0959C11.3462 28.0085 11.2968 27.8902 11.296 27.7666V5.83359C11.2968 5.70998 11.3462 5.59165 11.4336 5.50424C11.521 5.41683 11.6394 5.36738 11.763 5.36659H24.363V8.63359C24.363 8.89159 24.572 9.10059 24.83 9.10059H28.097V23.1006H21.145C19.832 23.1006 18.764 24.1686 18.764 25.4816V28.1856C18.764 28.2016 18.769 28.2166 18.769 28.2336H11.764H11.763ZM30.43 28.1856C30.4294 28.5695 30.2767 28.9375 30.0053 29.2089C29.7338 29.4803 29.3658 29.6331 28.982 29.6336H21.144C20.7601 29.6331 20.3921 29.4803 20.1207 29.2089C19.8492 28.9375 19.6965 28.5695 19.696 28.1856V25.4816C19.6965 25.0977 19.8492 24.7297 20.1207 24.4583C20.3921 24.1868 20.7601 24.0341 21.144 24.0336H28.982C29.3658 24.0341 29.7338 24.1868 30.0053 24.4583C30.2767 24.7297 30.4294 25.0977 30.43 25.4816V28.1856ZM25.765 25.9006C26.023 25.9006 26.232 25.6916 26.232 25.4336C26.232 25.1756 26.023 24.9666 25.765 24.9666H24.365C24.107 24.9666 23.898 25.1756 23.898 25.4336V28.2336C23.898 28.4916 24.107 28.7006 24.365 28.7006C24.623 28.7006 24.832 28.4916 24.832 28.2336V27.3006H25.765C26.023 27.3006 26.232 27.0916 26.232 26.8336C26.232 26.5756 26.023 26.3666 25.765 26.3666H24.832V25.9006H25.765ZM22.962 24.9676C22.704 24.9676 22.495 25.1766 22.495 25.4346V26.1746L21.425 25.1046C21.291 24.9706 21.091 24.9306 20.917 25.0036C20.832 25.0393 20.7594 25.0992 20.7082 25.1758C20.657 25.2524 20.6294 25.3424 20.629 25.4346V28.2346C20.629 28.4926 20.838 28.7016 21.096 28.7016C21.354 28.7016 21.563 28.4926 21.563 28.2346V26.5606L22.496 27.4936V28.2336C22.496 28.4916 22.705 28.7006 22.963 28.7006C23.221 28.7006 23.43 28.4916 23.43 28.2336V25.4336C23.43 25.1756 23.221 24.9666 22.963 24.9666L22.962 24.9676ZM29.029 24.9676H27.162C26.904 24.9676 26.695 25.1766 26.695 25.4346C26.695 25.6926 26.904 25.9016 27.162 25.9016H27.629V28.2346C27.629 28.4926 27.838 28.7016 28.096 28.7016C28.354 28.7016 28.563 28.4926 28.563 28.2346V25.9006H29.03C29.288 25.9006 29.497 25.6916 29.497 25.4336C29.497 25.1756 29.288 24.9666 29.03 24.9666L29.029 24.9676ZM5.75297 19.3106C5.57097 19.1286 5.27497 19.1286 5.09297 19.3106L4.76297 19.6406L4.43297 19.3106C4.25097 19.1286 3.95497 19.1286 3.77297 19.3106C3.59097 19.4926 3.59097 19.7886 3.77297 19.9706L4.10297 20.3006L3.77297 20.6306C3.59097 20.8126 3.59097 21.1086 3.77297 21.2906C3.86397 21.3816 3.98397 21.4276 4.10297 21.4276C4.22197 21.4276 4.34197 21.3816 4.43297 21.2906L4.76297 20.9606L5.09297 21.2906C5.18397 21.3816 5.30397 21.4276 5.42297 21.4276C5.54197 21.4276 5.66197 21.3816 5.75297 21.2906C5.93497 21.1086 5.93497 20.8126 5.75297 20.6306L5.42297 20.3006L5.75297 19.9706C5.93497 19.7886 5.93497 19.4926 5.75297 19.3106ZM8.02898 19.3676C8.28697 19.3676 8.49598 19.1586 8.49598 18.9006C8.49598 18.6426 8.28697 18.4336 8.02898 18.4336C7.77098 18.4336 7.56197 18.6426 7.56197 18.9006C7.56197 19.1586 7.77098 19.3676 8.02898 19.3676ZM6.63097 14.2336C6.88897 14.2336 7.09797 14.0246 7.09797 13.7666C7.09797 13.5086 6.88897 13.2996 6.63097 13.2996C6.37297 13.2996 6.16397 13.5086 6.16397 13.7666C6.16397 14.0246 6.37297 14.2336 6.63097 14.2336ZM18.763 14.1146L22.496 12.9946V16.2406C22.274 16.1487 22.0362 16.1011 21.796 16.1006C20.895 16.1006 20.163 16.7286 20.163 17.5006C20.163 18.2726 20.896 18.9006 21.796 18.9006C22.696 18.9006 23.429 18.2726 23.429 17.5006V12.3676C23.429 12.2206 23.359 12.0816 23.241 11.9936C23.1825 11.9503 23.1147 11.9211 23.0431 11.9085C22.9714 11.8958 22.8978 11.9 22.828 11.9206L18.161 13.3206C17.963 13.3796 17.828 13.5616 17.828 13.7676V17.6416C17.606 17.5497 17.3682 17.5021 17.128 17.5016C16.227 17.5016 15.495 18.1296 15.495 18.9016C15.495 19.6736 16.228 20.3016 17.128 20.3016C18.028 20.3016 18.761 19.6736 18.761 18.9016V14.1156L18.763 14.1146ZM21.796 17.9676C21.423 17.9676 21.096 17.7496 21.096 17.5006C21.096 17.2516 21.423 17.0336 21.796 17.0336C22.169 17.0336 22.496 17.2516 22.496 17.5006C22.496 17.7496 22.169 17.9676 21.796 17.9676ZM17.129 19.3676C16.756 19.3676 16.429 19.1496 16.429 18.9006C16.429 18.6516 16.756 18.4336 17.129 18.4336C17.502 18.4336 17.829 18.6516 17.829 18.9006C17.829 19.1496 17.502 19.3676 17.129 19.3676Z" fill="#3E3465"/>
</svg>
