<svg width="35" height="35" viewBox="0 0 35 35" fill="none" xmlns="http://www.w3.org/2000/svg">
<g clip-path="url(#clip0_2165_2691)">
<g clip-path="url(#clip1_2165_2691)">
<path d="M34.628 21.7349C33.962 20.7569 32.622 20.4979 31.64 21.1569L27.173 24.1459L27.16 14.8419L28.712 16.2959C29.042 16.6049 29.472 16.7749 29.924 16.7749C30.1666 16.7745 30.4064 16.7245 30.629 16.628C30.8515 16.5315 31.0519 16.3906 31.218 16.2139C31.3789 16.0448 31.5046 15.8453 31.5877 15.6272C31.6707 15.409 31.7096 15.1765 31.702 14.9432C31.6943 14.7099 31.6404 14.4804 31.5432 14.2682C31.446 14.0559 31.3076 13.8651 31.136 13.7069L28.194 10.9509C28.0973 10.8604 27.9686 10.8121 27.8363 10.8164C27.7039 10.8207 27.5787 10.8773 27.488 10.9739C27.3976 11.0706 27.3492 11.1993 27.3535 11.3316C27.3578 11.464 27.4145 11.5892 27.511 11.6799L30.453 14.4359C30.5277 14.5051 30.5879 14.5884 30.6302 14.681C30.6724 14.7736 30.6959 14.8736 30.6993 14.9754C30.7026 15.0771 30.6858 15.1785 30.6497 15.2737C30.6136 15.3689 30.559 15.4559 30.489 15.5299C30.341 15.6879 30.141 15.7749 29.925 15.7749C29.7281 15.7755 29.5385 15.7007 29.395 15.5659L17.714 4.62288C17.6212 4.53611 17.4989 4.48793 17.3718 4.48812C17.2448 4.4883 17.1226 4.53684 17.03 4.62388L5.37802 15.5999C5.30427 15.67 5.21735 15.7248 5.12228 15.7612C5.02721 15.7975 4.92587 15.8147 4.82414 15.8116C4.72241 15.8085 4.62229 15.7853 4.52958 15.7433C4.43687 15.7013 4.35341 15.6413 4.28402 15.5669C4.21388 15.4931 4.15905 15.4062 4.12271 15.3111C4.08637 15.2161 4.06924 15.1147 4.07231 15.013C4.07538 14.9113 4.09859 14.8111 4.14059 14.7184C4.18259 14.6257 4.24256 14.5423 4.31702 14.4729L16.839 2.67688C17.136 2.39688 17.601 2.39688 17.899 2.67588L25.225 9.53888C25.3218 9.62932 25.4504 9.67769 25.5828 9.67338C25.7151 9.66907 25.8404 9.61242 25.931 9.51588C26.0215 9.41914 26.0698 9.29048 26.0655 9.15812C26.0612 9.02576 26.0046 8.90052 25.908 8.80988L18.582 1.94688C17.9 1.30788 16.834 1.30988 16.154 1.94988L12.145 5.72588L12.144 5.05188C12.1446 4.94737 12.1243 4.8438 12.0846 4.74717C12.0448 4.65053 11.9862 4.56274 11.9123 4.4889C11.8384 4.41505 11.7505 4.3566 11.6538 4.31695C11.5571 4.27729 11.4535 4.25721 11.349 4.25788L8.48002 4.26188C8.37544 4.26134 8.27178 4.28158 8.17508 4.32142C8.07838 4.36126 7.99055 4.41991 7.91668 4.49396C7.84282 4.568 7.7844 4.65598 7.7448 4.75279C7.70521 4.84959 7.68523 4.95329 7.68602 5.05788L7.69402 9.91688L3.63102 13.7449C3.45989 13.9036 3.32203 14.0948 3.22548 14.3073C3.12894 14.5198 3.07562 14.7494 3.06864 14.9827C3.06166 15.216 3.10116 15.4483 3.18483 15.6662C3.2685 15.8841 3.39468 16.0832 3.55602 16.2519C3.71523 16.4221 3.90664 16.5589 4.11916 16.6545C4.33168 16.7502 4.56107 16.8026 4.79402 16.8089L4.84802 16.8099C5.30002 16.8109 5.73507 16.6379 6.06302 16.3269L7.61102 14.8679L7.61702 19.2629C7.11602 19.1899 6.60902 19.1519 6.10002 19.1519H5.24502V18.8529C5.24502 17.8469 4.42702 17.0289 3.42102 17.0289H1.82402C0.818023 17.0289 2.34375e-05 17.8469 2.34375e-05 18.8529V26.6809C2.34375e-05 26.8135 0.0527019 26.9407 0.14647 27.0344C0.240238 27.1282 0.367415 27.1809 0.500023 27.1809C0.632632 27.1809 0.759809 27.1282 0.853577 27.0344C0.947345 26.9407 1.00002 26.8135 1.00002 26.6809V18.8529C1.00002 18.3979 1.37002 18.0279 1.82502 18.0279H3.42402C3.87902 18.0279 4.24902 18.3979 4.24902 18.8529V19.6519V29.8919V30.6829C4.24902 31.1379 3.87902 31.5079 3.42402 31.5079H1.82402C1.36902 31.5079 0.999023 31.1379 0.999023 30.6829V29.8089C0.999023 29.6763 0.946345 29.5491 0.852577 29.4553C0.758809 29.3616 0.631632 29.3089 0.499023 29.3089C0.366415 29.3089 0.239238 29.3616 0.14547 29.4553C0.0517019 29.5491 -0.000976562 29.6763 -0.000976562 29.8089V30.6829C-0.000976562 31.6889 0.817023 32.5069 1.82302 32.5069H3.42202C4.42802 32.5069 5.24602 31.6889 5.24602 30.6829V30.6149L12.562 33.3849L12.603 33.3989C12.912 33.4874 13.2317 33.5328 13.553 33.5339C13.723 33.5339 13.891 33.5209 14.058 33.4949L24.81 31.9449C25.7278 31.7989 26.5906 31.4129 27.311 30.8259L27.329 30.8099L34.275 24.5629C35.084 23.8449 35.236 22.6289 34.628 21.7349ZM11.145 5.25788L11.147 6.66588L8.69202 8.97888L8.68602 5.26188L11.145 5.25788ZM17.373 5.67288L26.16 13.9039L26.175 24.8139L24.761 25.7609L23.263 25.6769L23.223 25.2789C23.084 23.8779 22.049 22.7509 20.681 22.4819L20.672 15.9919C20.671 15.4939 20.266 15.0889 19.768 15.0889L15.005 15.0959C14.8862 15.0955 14.7684 15.1186 14.6585 15.164C14.5487 15.2094 14.4489 15.276 14.3649 15.3602C14.281 15.4443 14.2145 15.5443 14.1694 15.6542C14.1243 15.7642 14.1014 15.882 14.102 16.0009L14.11 21.6599C13.167 21.4439 12.266 21.0879 11.424 20.5959L11.106 20.4179L10.98 20.3519L10.784 20.2509L10.626 20.1749L10.458 20.0959L10.285 20.0199L10.126 19.9519L9.94702 19.8799L9.78702 19.8189L9.60902 19.7539L9.44102 19.6959L9.26902 19.6399L9.08402 19.5839L8.92502 19.5379L8.71602 19.4829L8.61802 19.4569L8.61002 13.9279L17.373 5.67288ZM19.682 22.3559L15.504 21.8749L15.11 21.8299L15.102 16.0939L19.674 16.0879L19.683 22.3569L19.682 22.3559ZM33.61 23.8179L26.671 30.0589C26.093 30.5279 25.399 30.8379 24.664 30.9559L13.917 32.5049L13.903 32.5069C13.5663 32.5579 13.2226 32.5361 12.895 32.4429L5.24602 29.5459V20.1509H6.10102C6.82608 20.1511 7.54874 20.234 8.25502 20.3979L8.33302 20.4169L8.59202 20.4829L8.61402 20.4889L8.87102 20.5629L8.91702 20.5769L9.18802 20.6649L9.21602 20.6749L9.77302 20.8869L9.80302 20.8999L10.075 21.0189L10.342 21.1469L10.372 21.1619L10.622 21.2919L10.669 21.3169L10.918 21.4569C12.107 22.1529 13.401 22.6029 14.765 22.7959L20.375 23.4419L20.467 23.4569C21.291 23.6119 21.941 24.2209 22.159 25.0139C22.191 25.1309 22.214 25.2529 22.226 25.3779L22.248 25.6019L11.758 24.6829C11.6261 24.6715 11.4951 24.7129 11.3937 24.798C11.2922 24.8831 11.2287 25.005 11.217 25.1369C11.2057 25.2688 11.2471 25.3998 11.3322 25.5012C11.4173 25.6027 11.5391 25.6662 11.671 25.6779L22.762 26.6499L24.869 26.7689L24.897 26.7699C24.907 26.7699 24.917 26.7679 24.927 26.7679L24.96 26.7649C24.975 26.7629 24.99 26.7599 25.004 26.7569L25.035 26.7499C25.051 26.7449 25.066 26.7389 25.082 26.7329L25.107 26.7229C25.13 26.7119 25.153 26.6999 25.175 26.6849L26.95 25.4969L32.193 21.9879C32.721 21.6329 33.441 21.7719 33.798 22.2979C34.125 22.7779 34.044 23.4309 33.607 23.8189L33.61 23.8179Z" fill="#3E3465"/>
</g>
</g>
<defs>
<clipPath id="clip0_2165_2691">
<rect width="35" height="35" fill="white"/>
</clipPath>
<clipPath id="clip1_2165_2691">
<rect width="35" height="35" fill="white"/>
</clipPath>
</defs>
</svg>
