<svg width="35" height="35" viewBox="0 0 35 35" fill="none" xmlns="http://www.w3.org/2000/svg">
<g clip-path="url(#clip0_2165_2713)">
<mask id="mask0_2165_2713" style="mask-type:luminance" maskUnits="userSpaceOnUse" x="0" y="0" width="35" height="35">
<path d="M0 0H35V35H0V0Z" fill="white"/>
</mask>
<g mask="url(#mask0_2165_2713)">
<path d="M33.978 20.158L27.686 16.525C27.4947 16.4162 27.287 16.3392 27.071 16.297V3.691C27.07 2.712 26.681 1.774 25.989 1.082C25.297 0.39 24.358 0.001 23.379 0H9.538C9.032 0.001 8.531 0.105 8.067 0.307C7.603 0.509 7.185 0.803 6.839 1.173L0.993002 7.435C0.354138 8.11771 -0.000901196 9.018 1.71796e-06 9.953V31.308C0.00100172 32.287 0.390002 33.225 1.082 33.917C1.774 34.609 2.713 34.999 3.691 35H23.378C24.0704 35.001 24.7488 34.805 25.334 34.435L25.635 34.608C25.947 34.787 26.3004 34.8811 26.66 34.8811C27.0197 34.8811 27.373 34.787 27.685 34.608L33.977 30.975C34.289 30.794 34.547 30.535 34.727 30.223C34.907 29.911 35.002 29.557 35.002 29.197V21.933C35.0011 21.5731 34.906 21.2197 34.726 20.908C34.546 20.596 34.287 20.337 33.976 20.157L33.978 20.158ZM1.593 7.995L7.439 1.733C7.58638 1.57589 7.7511 1.436 7.93 1.316V6.775C7.929 7.226 7.75 7.658 7.431 7.977C7.112 8.296 6.68 8.475 6.229 8.476H1.23C1.334 8.303 1.455 8.142 1.592 7.994L1.593 7.995ZM23.379 34.18H3.691C2.93 34.179 2.2 33.876 1.662 33.338C1.124 32.8 0.821002 32.07 0.820002 31.309V9.953C0.821081 9.73203 0.847589 9.51191 0.899002 9.297H6.229C6.89729 9.29569 7.53792 9.03002 8.011 8.558C8.24518 8.32406 8.43098 8.04628 8.55778 7.74052C8.68458 7.43476 8.74989 7.10701 8.75 6.776V0.934C9.00601 0.859186 9.27129 0.820809 9.538 0.82H23.379C24.14 0.821 24.87 1.124 25.408 1.662C25.946 2.2 26.249 2.93 26.25 3.691V16.296C26.0339 16.3383 25.8261 16.4157 25.635 16.525L23.217 17.921C23.07 15.8234 22.2453 13.8303 20.8672 12.2421C19.4891 10.6538 17.6322 9.55642 15.5763 9.11515C13.5203 8.67388 11.3767 8.91265 9.46821 9.7955C7.55974 10.6783 5.98984 12.1574 4.995 14.01C3.99978 15.8623 3.63342 17.9879 3.95112 20.0665C4.26882 22.1451 5.25337 24.0642 6.75646 25.5347C8.25954 27.0052 10.1998 27.9474 12.2848 28.2194C14.3699 28.4915 16.4869 28.0786 18.317 27.043V29.199C18.3177 29.5589 18.4127 29.9124 18.5926 30.2242C18.7724 30.5359 19.0308 30.7952 19.342 30.976L24.497 33.952C24.144 34.103 23.763 34.181 23.379 34.18ZM16.092 19.004C16.182 21.122 16.964 23.153 18.317 24.785V26.081C17.0071 26.9197 15.4989 27.3975 13.945 27.466V19.005L16.092 19.004ZM13.945 18.184V9.717C15.8012 9.79725 17.5845 10.4623 19.04 11.617C17.253 13.347 16.198 15.698 16.094 18.183L13.945 18.184ZM16.913 19.004H21.34L19.342 20.158C19.0308 20.3388 18.7724 20.5981 18.5926 20.9098C18.4127 21.2216 18.3177 21.5751 18.317 21.935V23.403C17.4697 22.0859 16.9854 20.5684 16.913 19.004ZM16.914 18.184C17.019 15.897 18.004 13.738 19.662 12.159L19.826 12.315C21.3929 13.8778 22.3158 15.9721 22.412 18.183H16.915L16.914 18.184ZM10.155 19.004C10.05 21.291 9.065 23.45 7.407 25.029L7.243 24.873C5.67612 23.3102 4.7532 21.216 4.657 19.005H10.154L10.155 19.004ZM4.659 18.184C4.754 15.973 5.677 13.878 7.245 12.316L7.409 12.16C9.06685 13.7392 10.0506 15.8978 10.155 18.185H4.66L4.659 18.184ZM10.975 19.004H13.124V27.471C11.2678 27.3907 9.48451 26.7257 8.029 25.571C9.816 23.841 10.871 21.489 10.975 19.004ZM10.975 18.184C10.871 15.699 9.816 13.348 8.029 11.618C9.48451 10.4633 11.2678 9.79825 13.124 9.718V18.184H10.975ZM34.182 29.2C34.1821 29.416 34.1254 29.6283 34.0174 29.8154C33.9094 30.0026 33.7541 30.158 33.567 30.266L27.275 33.898C27.0879 34.0057 26.8758 34.0622 26.66 34.062C26.4442 34.0618 26.2322 34.0052 26.045 33.898L19.753 30.265C19.5659 30.157 19.4106 30.0016 19.3026 29.8144C19.1946 29.6273 19.1379 29.415 19.138 29.199V21.934C19.1379 21.718 19.1946 21.5057 19.3026 21.3186C19.4106 21.1314 19.5659 20.976 19.753 20.868L26.045 17.236C26.2321 17.1283 26.4442 17.0718 26.66 17.072C26.8758 17.0722 27.0878 17.1288 27.275 17.236L33.567 20.869C33.7541 20.977 33.9094 21.1324 34.0174 21.3196C34.1254 21.5067 34.1821 21.719 34.182 21.935V29.2ZM27.891 23.106H25.43C25.3213 23.106 25.217 23.1492 25.1401 23.2261C25.0632 23.303 25.02 23.4073 25.02 23.516V27.618C25.02 27.7267 25.0632 27.831 25.1401 27.9079C25.217 27.9848 25.3213 28.028 25.43 28.028C25.5387 28.028 25.643 27.9848 25.7199 27.9079C25.7968 27.831 25.84 27.7267 25.84 27.618V26.114H27.617C27.7257 26.114 27.83 26.0708 27.9069 25.9939C27.9838 25.917 28.027 25.8127 28.027 25.704C28.027 25.5953 27.9838 25.491 27.9069 25.4141C27.83 25.3372 27.7257 25.294 27.617 25.294H25.84V23.927H27.891C27.9997 23.927 28.104 23.8838 28.1809 23.8069C28.2578 23.73 28.301 23.6257 28.301 23.517C28.301 23.4083 28.2578 23.304 28.1809 23.2271C28.104 23.1502 27.9997 23.106 27.891 23.106ZM23.789 23.106C23.6803 23.106 23.576 23.1492 23.4991 23.2261C23.4222 23.303 23.379 23.4073 23.379 23.516V26.137L21.68 23.305C21.634 23.2279 21.5639 23.1681 21.4805 23.1346C21.3972 23.1012 21.3051 23.0961 21.2186 23.1201C21.132 23.1441 21.0558 23.1958 21.0015 23.2673C20.9472 23.3388 20.9178 23.4262 20.918 23.516V27.618C20.918 27.7267 20.9612 27.831 21.0381 27.9079C21.115 27.9848 21.2193 28.028 21.328 28.028C21.4367 28.028 21.541 27.9848 21.6179 27.9079C21.6948 27.831 21.738 27.7267 21.738 27.618V24.997L23.437 27.829C23.483 27.9061 23.5531 27.9659 23.6365 27.9994C23.7199 28.0328 23.8119 28.0379 23.8984 28.0139C23.985 27.9899 24.0612 27.9382 24.1155 27.8667C24.1699 27.7952 24.1992 27.7078 24.199 27.618V23.516C24.199 23.4073 24.1558 23.303 24.0789 23.2261C24.002 23.1492 23.8977 23.106 23.789 23.106ZM31.992 23.106H29.531C29.4223 23.106 29.318 23.1492 29.2411 23.2261C29.1642 23.303 29.121 23.4073 29.121 23.516C29.121 23.6247 29.1642 23.729 29.2411 23.8059C29.318 23.8828 29.4223 23.926 29.531 23.926H30.351V27.617C30.351 27.7257 30.3942 27.83 30.4711 27.9069C30.548 27.9838 30.6523 28.027 30.761 28.027C30.8697 28.027 30.974 27.9838 31.0509 27.9069C31.1278 27.83 31.171 27.7257 31.171 27.617V23.926H31.991C32.0997 23.926 32.204 23.8828 32.2809 23.8059C32.3578 23.729 32.401 23.6247 32.401 23.516C32.401 23.4073 32.3578 23.303 32.2809 23.2261C32.204 23.1492 32.0997 23.106 31.991 23.106H31.992Z" fill="#3E3465"/>
</g>
</g>
<defs>
<clipPath id="clip0_2165_2713">
<rect width="35" height="35" fill="white"/>
</clipPath>
</defs>
</svg>
