<svg width="35" height="35" viewBox="0 0 35 35" fill="none" xmlns="http://www.w3.org/2000/svg">
<path d="M14.608 12.7394C15.703 12.7394 16.595 11.8514 16.595 10.7604C16.5942 10.2337 16.3846 9.72874 16.0121 9.35628C15.6396 8.98381 15.1347 8.77422 14.608 8.77342C13.517 8.77342 12.629 9.66442 12.629 10.7604C12.6292 11.2852 12.8378 11.7884 13.2089 12.1595C13.58 12.5306 14.0832 12.7392 14.608 12.7394ZM14.608 9.82142C14.7316 9.82022 14.8543 9.84369 14.9687 9.89045C15.0832 9.93721 15.1872 10.0063 15.2746 10.0938C15.3621 10.1812 15.4312 10.2852 15.4779 10.3997C15.5247 10.5141 15.5482 10.6368 15.547 10.7604C15.547 11.2734 15.126 11.6914 14.608 11.6914C14.4857 11.6916 14.3645 11.6676 14.2515 11.6208C14.1385 11.5741 14.0358 11.5055 13.9494 11.419C13.8629 11.3326 13.7943 11.2299 13.7476 11.1169C13.7008 11.0038 13.6768 10.8827 13.677 10.7604C13.6772 10.5128 13.7751 10.2754 13.9495 10.0995C14.1238 9.92374 14.3604 9.82379 14.608 9.82142ZM32.059 26.9834C31.769 26.9834 31.535 27.2184 31.535 27.5074V27.7854C31.535 28.0744 31.769 28.3094 32.059 28.3094C32.349 28.3094 32.583 28.0744 32.583 27.7854V27.5074C32.583 27.2184 32.349 26.9834 32.059 26.9834ZM32.583 19.5374C32.583 17.9974 31.33 16.7444 29.79 16.7444H29.198V7.90442C29.198 6.60142 28.294 5.51242 27.081 5.20942V3.44642C27.0794 2.72625 26.7922 2.0361 26.2825 1.52732C25.7728 1.01855 25.0821 0.732685 24.362 0.732422H10.634C9.91466 0.734007 9.22526 1.02045 8.71663 1.52908C8.208 2.03772 7.92155 2.72711 7.91997 3.44642V5.20942C6.70697 5.51342 5.80297 6.60142 5.80297 7.90542V16.7454H5.20497C3.66797 16.7454 2.41797 17.9984 2.41797 19.5384V31.4744C2.41797 33.0144 3.66897 34.2674 5.20497 34.2674H29.79C31.33 34.2674 32.583 33.0144 32.583 31.4744V30.1804C32.583 29.8914 32.349 29.6564 32.059 29.6564C31.769 29.6564 31.535 29.8914 31.535 30.1804V31.4744C31.5336 31.9368 31.3494 32.3799 31.0224 32.7069C30.6954 33.0338 30.2524 33.2181 29.79 33.2194H5.20497C4.24597 33.2194 3.46597 32.4364 3.46597 31.4744V19.5374C3.46597 18.5754 4.24597 17.7924 5.20497 17.7924H29.79C30.2524 17.7937 30.6954 17.978 31.0224 18.305C31.3494 18.6319 31.5336 19.075 31.535 19.5374V25.1124C31.535 25.4014 31.769 25.6364 32.059 25.6364C32.349 25.6364 32.583 25.4014 32.583 25.1124V19.5374ZM10.634 1.77942H24.363C24.8054 1.77916 25.2298 1.95444 25.5431 2.26679C25.8564 2.57913 26.0329 3.00303 26.034 3.44542V5.11642H8.96797V3.44642C8.96903 3.0049 9.14489 2.58176 9.4571 2.26955C9.7693 1.95734 10.1924 1.78148 10.634 1.78042V1.77942ZM6.85097 7.90542C6.85097 6.94642 7.63297 6.16542 8.59497 6.16542H26.405C27.367 6.16542 28.15 6.94542 28.15 7.90542V16.7454H22.188L19.437 13.1724C19.337 13.0424 19.165 12.9504 19.017 12.9684C18.852 12.9704 18.698 13.0484 18.601 13.1804L15.96 16.7464H14.724L13.817 15.7004C13.7631 15.6378 13.6951 15.5889 13.6186 15.5577C13.5421 15.5266 13.4593 15.5142 13.377 15.5214C13.211 15.5354 13.061 15.6274 12.973 15.7704L12.377 16.7454H6.85097V7.90542ZM20.866 16.7454H17.265L19.031 14.3614L20.866 16.7454ZM23.915 22.2134C23.9142 21.6655 23.6961 21.1402 23.3087 20.7527C22.9212 20.3652 22.3959 20.1472 21.848 20.1464H13.153C12.605 20.1472 12.0797 20.3652 11.6923 20.7527C11.3048 21.1402 11.0868 21.6655 11.086 22.2134C11.0868 22.7614 11.3048 23.2867 11.6923 23.6741C12.0797 24.0616 12.605 24.2796 13.153 24.2804H21.848C22.3959 24.2796 22.9212 24.0616 23.3087 23.6741C23.6961 23.2867 23.9142 22.7614 23.915 22.2134ZM21.848 23.2324H13.153C12.8828 23.2322 12.6238 23.1247 12.4327 22.9337C12.2417 22.7426 12.1342 22.4836 12.134 22.2134C12.1342 21.9432 12.2417 21.6842 12.4327 21.4932C12.6238 21.3021 12.8828 21.1947 13.153 21.1944H21.848C22.1181 21.1947 22.3772 21.3021 22.5682 21.4932C22.7593 21.6842 22.8667 21.9432 22.867 22.2134C22.8667 22.4836 22.7593 22.7426 22.5682 22.9337C22.3772 23.1247 22.1181 23.2322 21.848 23.2324ZM14.412 27.6424V29.0514L13.302 27.3554C13.019 26.9244 12.339 27.1204 12.339 27.6424V30.8084C12.339 31.0974 12.573 31.3324 12.863 31.3324C13.153 31.3324 13.387 31.0974 13.387 30.8084V29.3994L14.497 31.0954C14.781 31.5284 15.46 31.3304 15.46 30.8084V27.6424C15.46 27.3534 15.226 27.1184 14.936 27.1184C14.646 27.1184 14.412 27.3534 14.412 27.6424ZM21.013 31.3334C21.303 31.3334 21.537 31.0984 21.537 30.8094V28.1674H22.138C22.428 28.1674 22.662 27.9324 22.662 27.6434C22.662 27.3544 22.428 27.1194 22.138 27.1194H19.887C19.597 27.1194 19.363 27.3544 19.363 27.6434C19.363 27.9324 19.597 28.1674 19.887 28.1674H20.489V30.8094C20.489 31.0984 20.723 31.3334 21.013 31.3334ZM18.367 28.1674C18.657 28.1674 18.891 27.9324 18.891 27.6434C18.891 27.3544 18.657 27.1194 18.367 27.1194H16.782C16.492 27.1194 16.258 27.3544 16.258 27.6434V30.8094C16.258 31.0984 16.492 31.3334 16.782 31.3334C17.072 31.3334 17.306 31.0984 17.306 30.8094V29.7504H18.367C18.657 29.7504 18.891 29.5154 18.891 29.2264C18.891 28.9374 18.657 28.7024 18.367 28.7024H17.306V28.1674H18.367Z" fill="#3E3465"/>
</svg>
