<svg width="35" height="35" viewBox="0 0 35 35" fill="none" xmlns="http://www.w3.org/2000/svg">
<g clip-path="url(#clip0_2165_2724)">
<path d="M29.895 25.351C29.9623 25.3513 30.029 25.3382 30.0912 25.3126C30.1535 25.2869 30.21 25.2492 30.2576 25.2016C30.3052 25.154 30.3429 25.0975 30.3685 25.0352C30.3942 24.973 30.4072 24.9063 30.407 24.839V1.203C30.407 0.54 29.867 0 29.204 0H5.79197C5.12897 0 4.58997 0.539 4.58997 1.203V33.798C4.58997 34.461 5.12897 35.001 5.79297 35.001H29.205C29.868 35.001 30.408 34.462 30.408 33.798V27.022C30.408 26.8862 30.354 26.756 30.258 26.66C30.162 26.5639 30.0318 26.51 29.896 26.51C29.7602 26.51 29.6299 26.5639 29.5339 26.66C29.4379 26.756 29.384 26.8862 29.384 27.022V33.798C29.384 33.896 29.304 33.976 29.206 33.976H5.79197C5.69397 33.976 5.61397 33.896 5.61397 33.798V1.203C5.61397 1.105 5.69397 1.025 5.79197 1.025H29.204C29.302 1.025 29.382 1.105 29.382 1.203V24.839C29.3817 24.9063 29.3948 24.973 29.4204 25.0352C29.446 25.0975 29.4837 25.154 29.5313 25.2016C29.5789 25.2492 29.6355 25.2869 29.6977 25.3126C29.76 25.3382 29.8267 25.3513 29.894 25.351H29.895ZM10.293 27.012V29.31C10.293 29.78 10.675 30.162 11.145 30.162H23.855C24.325 30.162 24.707 29.78 24.707 29.31V27.012C24.707 26.542 24.325 26.16 23.855 26.16H11.145C10.675 26.16 10.293 26.542 10.293 27.012ZM11.317 27.184H23.683V29.138H11.317V27.184ZM24.528 7.459C24.4653 7.35643 24.3773 7.27173 24.2723 7.21305C24.1674 7.15438 24.0492 7.12371 23.929 7.124H22.059V6.261C22.0584 6.00974 21.9584 5.76892 21.7807 5.59125C21.6031 5.41358 21.3622 5.31353 21.111 5.313H13.813C13.5617 5.31353 13.3209 5.41358 13.1432 5.59125C12.9655 5.76892 12.8655 6.00974 12.865 6.261V7.124H10.995C10.8744 7.12297 10.7556 7.15311 10.6501 7.2115C10.5446 7.26988 10.4559 7.35453 10.3928 7.45724C10.3296 7.55995 10.294 7.67723 10.2895 7.79773C10.285 7.91822 10.3117 8.03785 10.367 8.145L10.957 9.312L10.367 10.479C10.3117 10.5862 10.285 10.7058 10.2895 10.8263C10.294 10.9468 10.3296 11.0641 10.3928 11.1668C10.4559 11.2695 10.5446 11.3541 10.6501 11.4125C10.7556 11.4709 10.8744 11.501 10.995 11.5H14.404C14.941 11.5 15.379 11.063 15.379 10.525V9.518H19.544V10.525C19.544 11.062 19.981 11.5 20.519 11.5H23.928C24.0485 11.501 24.1673 11.4709 24.2728 11.4125C24.3784 11.3541 24.467 11.2695 24.5302 11.1668C24.5933 11.0641 24.6289 10.9468 24.6334 10.8263C24.6379 10.7058 24.6113 10.5862 24.556 10.479L23.966 9.312L24.556 8.145C24.6106 8.03788 24.6367 7.91849 24.6318 7.79833C24.6269 7.67818 24.5912 7.56131 24.528 7.459ZM13.891 6.338H21.035V8.494H13.891V6.338ZM14.356 10.476H11.519L11.947 9.63C11.9963 9.53142 12.0219 9.42272 12.0219 9.3125C12.0219 9.20228 11.9963 9.09358 11.947 8.995L11.519 8.149H12.866V8.571C12.8665 8.82226 12.9665 9.06308 13.1442 9.24075C13.3219 9.41842 13.5627 9.51847 13.814 9.519H14.356V10.476ZM22.979 9.63L23.407 10.476H20.57V9.519H21.112C21.3632 9.51847 21.604 9.41842 21.7817 9.24075C21.9594 9.06308 22.0594 8.82226 22.06 8.571V8.149H23.408L22.98 8.995C22.879 9.194 22.878 9.432 22.979 9.63ZM21.702 2.049H8.86697C8.79965 2.04874 8.73296 2.0618 8.67072 2.08744C8.60848 2.11307 8.55193 2.15078 8.50434 2.19837C8.45674 2.24597 8.41904 2.30252 8.3934 2.36475C8.36776 2.42699 8.3547 2.49369 8.35497 2.561C8.35391 2.88053 8.22651 3.18667 8.00057 3.41261C7.77463 3.63855 7.46849 3.76595 7.14897 3.767C7.08166 3.76674 7.01496 3.7798 6.95272 3.80543C6.89048 3.83107 6.83393 3.86878 6.78634 3.91637C6.73874 3.96397 6.70104 4.02052 6.6754 4.08275C6.64976 4.14499 6.6367 4.21169 6.63697 4.279V30.721C6.6367 30.7883 6.64976 30.855 6.6754 30.9172C6.70104 30.9795 6.73874 31.036 6.78634 31.0836C6.83393 31.1312 6.89048 31.1689 6.95272 31.1946C7.01496 31.2202 7.08166 31.2333 7.14897 31.233C7.46849 31.2341 7.77463 31.3615 8.00057 31.5874C8.22651 31.8133 8.35391 32.1195 8.35497 32.439C8.3547 32.5063 8.36776 32.573 8.3934 32.6352C8.41904 32.6975 8.45674 32.754 8.50434 32.8016C8.55193 32.8492 8.60848 32.8869 8.67072 32.9126C8.73296 32.9382 8.79965 32.9513 8.86697 32.951H26.127C26.1943 32.9513 26.261 32.9382 26.3232 32.9126C26.3855 32.8869 26.442 32.8492 26.4896 32.8016C26.5372 32.754 26.5749 32.6975 26.6005 32.6352C26.6262 32.573 26.6392 32.5063 26.639 32.439C26.64 32.1195 26.7674 31.8133 26.9934 31.5874C27.2193 31.3615 27.5254 31.2341 27.845 31.233C27.9123 31.2333 27.979 31.2202 28.0412 31.1946C28.1035 31.1689 28.16 31.1312 28.2076 31.0836C28.2552 31.036 28.2929 30.9795 28.3185 30.9172C28.3442 30.855 28.3572 30.7883 28.357 30.721V4.279C28.3572 4.21169 28.3442 4.14499 28.3185 4.08275C28.2929 4.02052 28.2552 3.96397 28.2076 3.91637C28.16 3.86878 28.1035 3.83107 28.0412 3.80543C27.979 3.7798 27.9123 3.76674 27.845 3.767C27.5254 3.76595 27.2193 3.63855 26.9934 3.41261C26.7674 3.18667 26.64 2.88053 26.639 2.561C26.6392 2.49369 26.6262 2.42699 26.6005 2.36475C26.5749 2.30252 26.5372 2.24597 26.4896 2.19837C26.442 2.15078 26.3855 2.11307 26.3232 2.08744C26.261 2.0618 26.1943 2.04874 26.127 2.049H23.885C23.7492 2.049 23.6189 2.10294 23.5229 2.19896C23.4269 2.29498 23.373 2.42521 23.373 2.561C23.373 2.69679 23.4269 2.82702 23.5229 2.92304C23.6189 3.01906 23.7492 3.073 23.885 3.073H25.674C25.7701 3.47587 25.976 3.84421 26.2689 4.13707C26.5618 4.42994 26.9301 4.63588 27.333 4.732V30.269C26.9301 30.3651 26.5618 30.5711 26.2689 30.8639C25.976 31.1568 25.7701 31.5251 25.674 31.928H9.31997C9.22385 31.5251 9.01791 31.1568 8.72504 30.8639C8.43217 30.5711 8.06384 30.3651 7.66097 30.269V4.732C8.06384 4.63588 8.43217 4.42994 8.72504 4.13707C9.01791 3.84421 9.22385 3.47587 9.31997 3.073H21.702C21.8378 3.073 21.968 3.01906 22.064 2.92304C22.16 2.82702 22.214 2.69679 22.214 2.561C22.214 2.42521 22.16 2.29498 22.064 2.19896C21.968 2.10294 21.8378 2.049 21.702 2.049ZM12.609 17.476C12.6641 17.3519 12.6677 17.2109 12.619 17.0842C12.5702 16.9574 12.4731 16.8552 12.349 16.8C12.2248 16.7448 12.0839 16.7412 11.9571 16.79C11.8303 16.8388 11.7281 16.9359 11.673 17.06C11.4245 17.6188 11.2701 18.2148 11.216 18.824L11.027 20.93C10.995 21.283 11.143 21.625 11.421 21.845C11.494 21.9024 11.5744 21.9498 11.66 21.986L11.496 23.183C11.425 23.699 11.655 24.194 12.094 24.473C12.313 24.612 12.557 24.682 12.801 24.682C13.045 24.682 13.296 24.611 13.516 24.469L14.329 23.944C15.2704 23.3375 16.3666 23.0149 17.4865 23.0149C18.6064 23.0149 19.7025 23.3375 20.644 23.944L21.457 24.469C21.895 24.752 22.44 24.753 22.879 24.474C23.318 24.195 23.548 23.7 23.477 23.184L23.315 21.997C23.4091 21.9596 23.4974 21.9087 23.577 21.846C23.7136 21.7386 23.8212 21.5987 23.8899 21.439C23.9585 21.2794 23.986 21.1051 23.97 20.932L23.781 18.825C23.6743 17.6097 23.1703 16.4634 22.3467 15.5634C21.5232 14.6634 20.426 14.0598 19.225 13.846V13.824C19.2239 13.3666 19.0417 12.9282 18.7183 12.6047C18.3948 12.2812 17.9564 12.0991 17.499 12.098C17.0415 12.0991 16.6031 12.2812 16.2797 12.6047C15.9562 12.9282 15.774 13.3666 15.773 13.824V13.846C14.793 14.023 13.871 14.461 13.11 15.123C13.0075 15.2121 12.9446 15.3383 12.9351 15.4738C12.9256 15.6093 12.9704 15.743 13.0595 15.8455C13.1486 15.948 13.2748 16.0109 13.4103 16.0204C13.5458 16.0299 13.6795 15.9851 13.782 15.896C14.6079 15.1778 15.6655 14.7822 16.76 14.782H18.24C19.3746 14.7797 20.4688 15.2033 21.3062 15.9689C22.1435 16.7346 22.663 17.7867 22.762 18.917L22.951 21.024C22.952 21.029 22.952 21.036 22.943 21.043C22.934 21.05 22.928 21.048 22.923 21.047L20.083 20.097C18.3985 19.537 16.5778 19.538 14.894 20.1L12.078 21.046C12.073 21.048 12.067 21.05 12.058 21.043C12.049 21.036 12.049 21.029 12.05 21.024L12.239 18.918C12.2829 18.4211 12.4086 17.9349 12.611 17.479L12.609 17.476ZM17.499 13.12C17.864 13.12 18.165 13.4 18.198 13.756H16.8C16.833 13.4 17.134 13.12 17.499 13.12ZM15.219 21.069C16.6916 20.5781 18.2836 20.5771 19.757 21.066L22.269 21.906L22.463 23.321C22.486 23.489 22.378 23.578 22.33 23.608C22.282 23.638 22.156 23.699 22.013 23.607L21.2 23.082C20.0927 22.3693 18.8038 21.9903 17.487 21.9903C16.1702 21.9903 14.8812 22.3693 13.774 23.082L12.961 23.607C12.818 23.699 12.692 23.638 12.644 23.608C12.596 23.578 12.488 23.489 12.511 23.321L12.704 21.913L15.219 21.069Z" fill="#3E3465"/>
</g>
<defs>
<clipPath id="clip0_2165_2724">
<rect width="35" height="35" fill="white"/>
</clipPath>
</defs>
</svg>
