<svg width="50" height="50" viewBox="0 0 50 50" fill="none" xmlns="http://www.w3.org/2000/svg">
<path d="M48.8903 1.10939C47.4111 -0.369797 45.0123 -0.369797 43.5332 1.10939L42.4805 2.16205C45.051 2.93772 47.0619 4.94868 47.8377 7.5192L48.8903 6.46654C50.3699 4.98695 50.3699 2.58858 48.8903 1.10939Z" fill="#1D4354"/>
<path d="M8.92834 27.2676V34.2419L15.1784 37.0193V30.045L8.92834 27.2676Z" fill="#1D4354"/>
<path d="M10.2351 25.8905L16.0722 28.4849L18.5455 27.3857L19.2179 24.6947L16.0722 23.2969L10.2351 25.8905Z" fill="#1D4354"/>
<path d="M23.2154 31.3082L20.0772 32.0927C18.7694 32.4199 17.5848 31.2353 17.9116 29.9275L17.9961 29.5898L16.9653 30.0478V37.0217L23.2153 34.2447L23.2154 31.3082Z" fill="#1D4354"/>
<path d="M30.3572 27.5256V44.643C30.3572 46.6129 28.7557 48.2144 26.7858 48.2144H5.35715C3.38725 48.2144 1.78572 46.6129 1.78572 44.643V5.35715C1.78572 3.38725 3.38725 1.78572 5.35715 1.78572H26.7858C28.7557 1.78572 30.3572 3.38725 30.3572 5.35715V11.7602L32.1429 9.97451V5.35715C32.1429 2.40317 29.7398 0 26.7858 0H5.35715C2.40317 0 0 2.40317 0 5.35715V44.643C0 47.5969 2.40317 50.0001 5.35715 50.0001H26.7858C29.7398 50.0001 32.1429 47.5969 32.1429 44.643V25.7399L30.3572 27.5256Z" fill="#1D4354"/>
<path d="M22.8373 21.805C23.829 22.1044 24.733 22.5819 25.523 23.2137L43.9037 4.83409C43.067 4.2071 42.0741 3.79695 40.9892 3.6543L22.8373 21.805Z" fill="#1D4354"/>
<path d="M45.1666 6.09786L26.7859 24.4785C27.4177 25.2685 27.8956 26.1726 28.1946 27.1642L46.3467 9.01215C46.204 7.92756 45.7938 6.9347 45.1669 6.09766L45.1666 6.09786Z" fill="#1D4354"/>
<path d="M21.4087 23.3008L19.6449 30.3556L26.6997 28.5918C26.3119 25.8478 24.1527 23.6886 21.4087 23.3008Z" fill="#1D4354"/>
</svg>
