<svg width="52" height="32" viewBox="0 0 52 32" fill="none" xmlns="http://www.w3.org/2000/svg">
<path d="M52 16.0005C52 15.611 51.7576 15.0935 51.5115 14.8421L37.645 0.525541C36.9975 -0.124728 35.9486 -0.199917 35.1941 0.45975C34.5194 1.05011 34.5025 2.20084 35.1264 2.84175L46.2574 14.3158H1.73321C0.775602 14.3158 0 15.0701 0 15.9999C0 16.9304 0.776237 17.684 1.73321 17.684H46.2574L35.1264 29.1581C34.5025 29.7989 34.5466 30.9216 35.1941 31.5395C35.8773 32.1921 37.0078 32.1339 37.645 31.4737L51.5115 17.1578C51.919 16.7695 51.9934 16.3953 52 16V16.0005Z" fill="black"/>
</svg>
