<svg width="10" height="14" viewBox="0 0 10 14" fill="none" xmlns="http://www.w3.org/2000/svg">
<g clip-path="url(#clip0_3042_1239)">
<path d="M0.750731 0.707731C0.512729 0.931974 0.323928 1.19823 0.195114 1.49128C0.0663013 1.78434 0 2.09844 0 2.41566C0 2.73288 0.0663013 3.04699 0.195114 3.34004C0.323928 3.63309 0.512729 3.89935 0.750731 4.12359L3.8146 7.01197L0.750731 9.90129C0.281781 10.3565 0.0216589 10.9674 0.0265779 11.6019C0.031497 12.2365 0.301063 12.8437 0.777019 13.2924C1.25297 13.7411 1.8971 13.9952 2.57018 13.9998C3.24327 14.0045 3.89126 13.7593 4.37412 13.3172L9.24968 8.7199C9.73011 8.26689 10 7.65254 10 7.01197C10 6.37139 9.73011 5.75704 9.24968 5.30404L4.37412 0.707731C4.13625 0.483361 3.85382 0.305374 3.54297 0.183939C3.23211 0.0625033 2.89892 0 2.56243 0C2.22594 0 1.89274 0.0625033 1.58189 0.183939C1.27103 0.305374 0.988597 0.483361 0.750731 0.707731Z" fill="#6BB64A"/>
<path d="M0.75073 0.707731C0.512729 0.931974 0.323928 1.19823 0.195115 1.49128C0.0663009 1.78433 0 2.09844 0 2.41566C0 2.73288 0.0663009 3.04698 0.195115 3.34004C0.323928 3.63309 0.512729 3.89934 0.75073 4.12359L3.8146 7.01197C7.443 3.59234 4.37413 0.707731 4.37413 0.707731C4.13626 0.483361 3.85383 0.305374 3.54297 0.183939C3.23211 0.0625033 2.89892 0 2.56243 0C2.22594 0 1.89275 0.0625033 1.58189 0.183939C1.27103 0.305374 0.988597 0.483361 0.75073 0.707731Z" fill="#6BB64A"/>
</g>
<defs>
<clipPath id="clip0_3042_1239">
<rect width="10" height="14" fill="white"/>
</clipPath>
</defs>
</svg>
