<svg width="60" height="60" viewBox="0 0 60 60" fill="none" xmlns="http://www.w3.org/2000/svg">
<path fill-rule="evenodd" clip-rule="evenodd" d="M17.9357 8.96724C17.9357 4.01476 21.9504 0 26.9029 0H50.8147C55.7677 0 59.7819 4.01476 59.7819 8.96724V50.8135C59.7819 55.7665 55.7677 59.7807 50.8147 59.7807H32.127C32.6189 57.8702 32.8801 55.867 32.8801 53.8029C32.8801 43.7673 26.6981 35.1754 17.9355 31.6282L17.9357 8.96724ZM41.8475 47.8248C43.4983 47.8248 44.8369 46.4868 44.8369 44.8359C44.8369 43.1851 43.4983 41.8465 41.8475 41.8465H35.8696C34.2188 41.8465 32.8802 43.1851 32.8802 44.8359C32.8802 46.4868 34.2188 47.8248 35.8696 47.8248H41.8475Z" fill="#1D4354"/>
<path d="M2.98891 32.8792C1.33804 32.8792 0 34.2177 0 35.8686C0 37.5194 1.33804 38.8575 2.98891 38.8575C12.8939 38.8575 20.9234 46.887 20.9234 56.792C20.9234 58.4428 22.2614 59.7809 23.9123 59.7809C25.5632 59.7809 26.9017 58.4428 26.9017 56.792C26.9017 43.5858 16.1956 32.8789 2.98865 32.8789L2.98891 32.8792Z" fill="#6BB64A"/>
<path d="M2.98891 41.8464C1.33804 41.8464 0 43.185 0 44.8359C0 46.4867 1.33804 47.8248 2.98891 47.8248C7.94139 47.8248 11.9561 51.8395 11.9561 56.792C11.9561 58.4429 13.2942 59.7809 14.9451 59.7809C16.5959 59.7809 17.9345 58.4429 17.9345 56.792C17.9345 48.5378 11.2431 41.8462 2.98865 41.8462L2.98891 41.8464Z" fill="#6BB64A"/>
<path d="M5.97782 56.7921C5.97782 58.443 4.63978 59.781 2.98891 59.781C1.33804 59.781 0 58.443 0 56.7921C0 55.1413 1.33804 53.8032 2.98891 53.8032C4.63978 53.8032 5.97782 55.1413 5.97782 56.7921Z" fill="#6BB64A"/>
</svg>
