<svg width="63" height="65" viewBox="0 0 63 65" fill="none" xmlns="http://www.w3.org/2000/svg">
<path d="M62.6176 26.2766C62.6176 23.709 61.5975 21.2466 59.7824 19.4309C57.9667 17.6157 55.5042 16.5957 52.9367 16.5957C50.3692 16.5957 47.9067 17.6157 46.0915 19.4309C44.2759 21.2466 43.2559 23.709 43.2559 26.2766C43.2559 28.8441 44.2759 31.3066 46.0915 33.1217C47.9067 34.9374 50.3692 35.9574 52.9367 35.9574C55.5042 35.9574 57.9667 34.9374 59.7824 33.1217C61.5975 31.3066 62.6176 28.8441 62.6176 26.2766ZM55.0874 21.9743H57.239V24.1259H55.0874V21.9743ZM48.6335 21.9743H50.7851V24.1259H48.6335V21.9743ZM47.5581 27.3528H49.7097C49.7097 28.5058 50.325 29.571 51.3232 30.1476C52.3218 30.7238 53.5519 30.7238 54.5501 30.1476C55.5488 29.5709 56.1635 28.5057 56.1635 27.3528H58.3142C58.2877 29.2563 57.257 31.004 55.6036 31.9484C53.9505 32.8927 51.9217 32.8927 50.2682 31.9484C48.6151 31.0041 47.5844 29.2563 47.558 27.3528H47.5581Z" fill="#6BB64A"/>
<path d="M40.4898 65.0002C43.791 65.0002 46.957 63.6162 49.2912 61.1523C51.6255 58.6885 52.9366 55.3467 52.9366 51.8619C52.9366 48.3772 51.6254 45.0355 49.2912 42.5715C46.9571 40.1076 43.7911 38.7236 40.4898 38.7236C37.1886 38.7236 34.0226 40.1077 31.6883 42.5715C29.3541 45.0355 28.043 48.3772 28.043 51.8619C28.043 55.3467 29.3542 58.6884 31.6883 61.1523C34.0226 63.6163 37.1884 65.0002 40.4898 65.0002ZM34.2413 47.2799C34.8691 46.5552 35.7563 46.1423 36.6866 46.1423C37.6168 46.1423 38.5041 46.5552 39.1314 47.2799L40.4897 48.8034L41.8479 47.2799C42.4753 46.5552 43.3625 46.1428 44.2924 46.1428C45.2227 46.1428 46.1095 46.5552 46.7373 47.2799C47.3884 48.0272 47.7496 49.0059 47.7496 50.0215C47.7496 51.0371 47.3884 52.0157 46.7373 52.7631L40.4897 59.7697L34.2411 52.7631C33.59 52.0157 33.2288 51.0371 33.2288 50.0215C33.2288 49.0059 33.59 48.0272 34.2411 47.2799H34.2413Z" fill="#1D4354"/>
<path d="M13.5206 42.8726C11.1366 42.8726 8.84971 43.8196 7.16433 45.5056C5.47845 47.1915 4.53125 49.478 4.53125 51.8619C4.53125 54.2458 5.47834 56.5323 7.16433 58.2182C8.84971 59.9041 11.1367 60.8513 13.5206 60.8513C15.9046 60.8513 18.191 59.9042 19.8769 58.2182C21.5628 56.5323 22.51 54.2458 22.51 51.8619C22.5105 49.4779 21.5634 47.191 19.8774 45.5051C18.1914 43.8193 15.9045 42.8721 13.5206 42.8726ZM18.0158 52.9852H14.6449V56.3561H12.3973V52.9852H9.02643V50.7386H12.3973V47.3677H14.6449V50.7386H18.0158V52.9852Z" fill="#6BB64A"/>
<path d="M39.1062 19.3617C39.1062 14.2266 37.0662 9.30194 33.4353 5.67094C29.804 2.04005 24.8794 0 19.7445 0C14.6094 0 9.68475 2.04005 6.05375 5.67094C2.42287 9.30218 0.382812 14.2268 0.382812 19.3617C0.382812 24.4966 2.42287 29.4215 6.05375 33.0525C9.68499 36.6834 14.6096 38.7234 19.7445 38.7234C24.8796 38.7234 29.8043 36.6834 33.4353 33.0525C37.0662 29.4212 39.1062 24.4966 39.1062 19.3617ZM12.2148 26.891C12.2148 27.4849 11.7334 27.9669 11.1395 27.9673H7.91248C7.31811 27.9673 6.8362 27.4854 6.8362 26.891V15.0594C6.8362 14.465 7.31811 13.9831 7.91248 13.9831H11.1395C11.7334 13.9835 12.2148 14.4655 12.2148 15.0594V26.891ZM32.6522 23.1268C32.6522 24.0181 31.9296 24.7402 31.0388 24.7402H29.9634C30.8548 24.7402 31.5769 25.4629 31.5769 26.3537C31.5769 27.245 30.8547 27.9671 29.9634 27.9671H16.5178L15.2886 26.8941H14.3675L14.367 15.0592H16.7613C17.6373 15.0592 18.4924 14.792 19.2122 14.2929C19.9321 13.7942 20.4823 13.0874 20.79 12.2672L22.4397 7.86816C22.6999 7.16272 23.305 6.64137 24.0411 6.4879C24.7772 6.335 25.5403 6.57201 26.0603 7.11526C26.5799 7.65851 26.783 8.43128 26.5976 9.16007L25.1234 15.0592H33.1908C34.0822 15.0592 34.8043 15.7818 34.8043 16.6726C34.8043 17.564 34.0821 18.2861 33.1908 18.2861H32.1155C33.0068 18.2861 33.7289 19.0087 33.7289 19.8995C33.7289 20.7908 33.0068 21.5129 32.1155 21.5129H31.0392C31.9301 21.5129 32.6526 22.2356 32.6526 23.1264L32.6522 23.1268Z" fill="#1D4354"/>
</svg>
