<svg width="101" height="100" viewBox="0 0 101 100" fill="none" xmlns="http://www.w3.org/2000/svg">
<path d="M78.7001 44.6016L66.5001 32.0016C66.3001 31.8016 65.9001 31.6016 65.7001 31.6016H64.5001L63.1001 22.8016C62.9001 21.8016 62.3001 20.8016 61.5001 20.4016C60.9001 20.0016 60.1001 19.6016 59.3001 19.6016C59.1001 19.6016 58.9001 19.6016 58.7001 19.6016L25.3001 25.8016C24.3001 26.0016 23.5001 26.6016 22.9001 27.4016C22.3001 28.2016 22.1001 29.2016 22.3001 30.2016L29.1001 70.6016C29.3001 71.6016 29.9001 72.6016 30.7001 73.0016C31.3001 73.4016 32.1001 73.8016 32.9001 73.8016C33.1001 73.8016 33.3001 73.8016 33.5001 73.8016L37.7001 73.0016V76.2016C37.7001 78.4016 39.3001 80.0016 41.5001 80.0016H75.5001C77.5001 80.0016 79.3001 78.2016 79.3001 76.2016V45.4016C78.9001 45.2016 78.9001 44.8016 78.7001 44.6016ZM66.9001 36.0016L74.7001 44.2016H66.9001V36.0016ZM32.9001 71.4016C32.5001 71.4016 32.3001 71.4016 31.9001 71.2016C31.5001 71.0016 31.5001 70.6016 31.3001 70.4016L24.7001 30.0016C24.7001 29.6016 24.7001 29.2016 24.9001 29.0016C25.1001 28.8016 25.3001 28.6016 25.7001 28.4016L59.1001 22.2016C59.5001 22.2016 59.7001 22.2016 60.1001 22.4016C60.3001 22.6016 60.5001 23.0016 60.5001 23.2016L61.9001 31.4016H41.3001C40.3001 31.4016 39.5001 31.8016 38.7001 32.6016C37.9001 33.4016 37.7001 34.4016 37.7001 35.4016V70.6016L32.9001 71.4016ZM75.3001 77.8016H41.3001C40.7001 77.8016 40.1001 77.2016 40.1001 76.6016V35.4016C40.1001 35.0016 40.3001 34.6016 40.5001 34.6016C40.7001 34.4016 41.1001 34.2016 41.3001 34.2016H64.5001V45.4016C64.5001 46.2016 65.1001 46.6016 65.7001 46.6016H76.5001V76.2016C76.5001 77.2016 75.9001 77.8016 75.3001 77.8016Z" fill="white" stroke="black" stroke-width="0.5" stroke-miterlimit="10"/>
<path d="M65.2999 63C64.8999 62.4 63.8999 62.2 63.4999 62.8L62.0999 64.2C61.4999 64.8 60.6999 64.6 60.2999 64L55.6999 57.6C55.2999 56.8 54.0999 56.8 53.6999 57.6L45.8999 70.6C45.4999 71.4 45.8999 72.6 46.8999 72.6H69.6999C70.6999 72.6 71.2999 71.4 70.6999 70.6L65.2999 63Z" fill="#6BB64A"/>
<path d="M69.7 55.6031C69.7 57.4031 68.3 59.0031 66.5 59.0031C64.7 59.0031 63.3 57.6031 63.3 55.6031C63.3 53.8031 64.7 52.2031 66.5 52.2031C68.3 52.2031 69.7 53.8031 69.7 55.6031Z" fill="white"/>
</svg>
