<svg width="101" height="100" viewBox="0 0 101 100" fill="none" xmlns="http://www.w3.org/2000/svg">
<path d="M71.7 71.2L71.5 71.4H75.5C76.5 71.4 77.1 72.2 77.1 73C77.1 74 76.3 74.6 75.5 74.6H67.5C66.5 74.6 65.9 73.8 65.9 73V65C65.9 64 66.7 63.4 67.5 63.4C68.5 63.4 69.1 64.2 69.1 65V69L69.3 68.8C73.1 65 75.5 60.4 76.7 55.2C77.7 50 77.3 44.6 75.1 39.8C73.1 35 69.7 30.8 65.3 27.8C60.9 24.8 55.7 23.2 50.5 23.2C49.5 23.2 48.9 22.4 48.9 21.6C48.9 20.6 49.7 20 50.5 20C58.5 20 66.1 23.2 71.7 28.8C77.3 34.4 80.5 42 80.5 50C80.5 58 77.3 65.6 71.7 71.2ZM20.5 50C20.5 58 23.7 65.6 29.3 71.2C34.9 76.8 42.5 80 50.5 80C51.5 80 52.1 79.2 52.1 78.4C52.1 77.4 51.3 76.8 50.5 76.8C45.3 76.8 40.1 75.2 35.7 72.4C31.3 69.4 27.9 65.2 25.9 60.4C23.9 55.6 23.3 50.2 24.3 45C25.3 39.8 27.9 35 31.7 31.4L31.9 31.2V35.2C31.9 36.2 32.7 36.8 33.5 36.8C34.5 36.8 35.1 36 35.1 35.2V27.2C35.1 26.8 34.9 26.4 34.7 26C34.3 25.6 33.9 25.6 33.5 25.6H25.5C24.5 25.6 23.9 26.4 23.9 27.2C23.9 28.2 24.7 28.8 25.5 28.8H29.5L29.3 29C26.5 31.8 24.3 35 22.7 38.8C21.3 42.2 20.5 46 20.5 50ZM56.1 44.4C57.7 46 58.5 48 58.5 50C58.5 52.2 57.7 54.2 56.1 55.6C54.7 57.2 52.7 58 50.5 58C48.3 58 46.3 57.2 44.9 55.6C43.3 54.2 42.5 52.2 42.5 50C42.5 47.8 43.3 45.8 44.9 44.4C46.5 42.8 48.5 42 50.5 42C52.7 42 54.7 42.8 56.1 44.4ZM53.9 46.6C53.1 45.8 51.9 45.2 50.5 45.2C49.3 45.2 48.1 45.6 47.1 46.6C46.3 47.4 45.7 48.6 45.7 50C45.7 51.2 46.1 52.4 47.1 53.4C47.9 54.2 49.1 54.8 50.5 54.8C51.7 54.8 52.9 54.2 53.9 53.4C54.7 52.6 55.3 51.4 55.3 50C55.3 48.8 54.7 47.6 53.9 46.6ZM61.9 61.4C61.3 62 60.7 62.4 60.1 62.8L60.3 65C60.3 66 60.1 67 59.5 67.8C58.9 68.6 58.1 69.2 57.1 69.4L54.5 70.4C53.5 70.6 52.5 70.6 51.5 70.2C50.5 69.8 49.9 69 49.5 68.2L48.5 66C46.9 65.8 45.5 65.4 44.1 64.8L42.5 66C41.7 66.6 40.7 66.8 39.7 66.8C38.7 66.8 37.7 66.2 37.1 65.6L35.1 63.6C34.3 62.8 33.9 62 33.9 61C33.9 60 34.1 59 34.7 58.2L35.9 56.4C35.3 55 34.9 53.6 34.7 52L32.7 51C31.7 50.6 31.1 49.8 30.7 49C30.3 48 30.1 47 30.5 46L31.3 43.2C31.5 42.2 32.1 41.4 32.9 40.8C33.7 40.2 34.7 40 35.7 40L37.9 40.2C38.9 39 39.9 38 41.1 37L40.9 34.8C40.9 33.8 41.1 32.8 41.7 32C42.3 31.2 43.1 30.6 44.1 30.4L46.9 29.6C47.9 29.4 48.9 29.4 49.9 29.8C50.9 30.2 51.5 31 51.9 31.8L52.9 33.8C54.5 34 55.9 34.4 57.3 35L58.5 34C59.3 33.4 60.3 33.2 61.3 33.2C62.3 33.2 63.3 33.8 63.9 34.4L65.9 36.4C66.7 37.2 67.1 38 67.1 39C67.1 40 66.9 41 66.3 41.8L65.1 43.6C65.7 45 66.1 46.4 66.3 48L68.3 49C69.3 49.4 69.9 50.2 70.3 51C70.7 52 70.9 53 70.5 54L69.7 56.8C69.5 57.8 68.9 58.6 68.1 59.2C67.3 59.8 66.3 60 65.3 60L63.1 59.8C62.9 60.4 62.5 60.8 61.9 61.4ZM62.7 56.4L65.9 56.6C66.3 56.6 66.9 56.4 66.9 55.8L67.7 53C67.9 52.6 67.5 52 67.1 51.8L64.3 50.4C63.7 50.2 63.3 49.6 63.3 49C63.3 47.2 62.7 45.6 61.9 44C61.7 43.4 61.7 42.8 62.1 42.4L63.9 39.8C64.1 39.4 64.1 38.8 63.7 38.6L61.7 36.6C61.3 36.2 60.9 36.2 60.5 36.4L57.9 38.2C57.5 38.6 56.7 38.6 56.3 38.4C54.7 37.6 53.1 37.2 51.3 37C50.7 37 50.1 36.6 49.9 36L48.5 33.4C48.3 33 47.9 32.8 47.3 32.8L44.5 33.6C44.1 33.8 43.7 34.2 43.9 34.6L44.1 37.8C44.1 38.4 43.9 39 43.3 39.4C42.5 39.8 41.9 40.4 41.3 41C40.7 41.6 40.1 42.2 39.7 43C39.3 43.6 38.7 43.8 38.1 43.8L34.9 43.6C34.5 43.6 33.9 43.8 33.9 44.4L33.1 47.2C32.9 47.6 33.3 48.2 33.7 48.4L36.5 49.8C37.1 50 37.5 50.6 37.5 51.2C37.5 53 38.1 54.6 38.9 56.2C39.1 56.8 39.1 57.4 38.7 57.8L37.1 60C36.9 60.4 36.9 61 37.3 61.2L39.3 63.2C39.7 63.6 40.1 63.6 40.5 63.4L43.1 61.6C43.5 61.2 44.3 61.2 44.7 61.4C46.3 62.2 47.9 62.6 49.7 62.8C50.3 62.8 50.9 63.2 51.1 63.8L52.5 66.6C52.7 67 53.1 67.2 53.7 67.2L56.5 66.4C56.9 66.2 57.3 65.8 57.1 65.4L56.9 62.2C56.9 61.6 57.1 61 57.7 60.6C59.1 59.6 60.3 58.4 61.3 57C61.5 56.6 62.1 56.2 62.7 56.4Z" fill="#6BB64A"/>
<path d="M56.1 44.4001C57.7 46.0001 58.5 48.0001 58.5 50.0001C58.5 52.2001 57.7 54.2001 56.1 55.6001C54.7 57.2001 52.7 58.0001 50.5 58.0001C48.3 58.0001 46.3 57.2001 44.9 55.6001C43.3 54.2001 42.5 52.2001 42.5 50.0001C42.5 47.8001 43.3 45.8001 44.9 44.4001C46.5 42.8001 48.5 42.0001 50.5 42.0001C52.7 42.0001 54.7 42.8001 56.1 44.4001ZM53.9 46.6001C53.1 45.8001 51.9 45.2001 50.5 45.2001C49.3 45.2001 48.1 45.6001 47.1 46.6001C46.3 47.4001 45.7 48.6001 45.7 50.0001C45.7 51.2001 46.1 52.4001 47.1 53.4001C47.9 54.2001 49.1 54.8001 50.5 54.8001C51.7 54.8001 52.9 54.2001 53.9 53.4001C54.7 52.6001 55.3 51.4001 55.3 50.0001C55.3 48.8001 54.7 47.6001 53.9 46.6001ZM61.9 61.4001C61.3 62.0001 60.7 62.4001 60.1 62.8001L60.3 65.0001C60.3 66.0001 60.1 67.0001 59.5 67.8001C58.9 68.6001 58.1 69.2001 57.1 69.4001L54.5 70.4001C53.5 70.6001 52.5 70.6001 51.5 70.2001C50.5 69.8001 49.9 69.0001 49.5 68.2001L48.5 66.0001C46.9 65.8001 45.5 65.4001 44.1 64.8001L42.5 66.0001C41.7 66.6001 40.7 66.8001 39.7 66.8001C38.7 66.8001 37.7 66.2001 37.1 65.6001L35.1 63.6001C34.3 62.8001 33.9 62.0001 33.9 61.0001C33.9 60.0001 34.1 59.0001 34.7 58.2001L35.9 56.4001C35.3 55.0001 34.9 53.6001 34.7 52.0001L32.7 51.0001C31.7 50.6001 31.1 49.8001 30.7 49.0001C30.3 48.0001 30.1 47.0001 30.5 46.0001L31.3 43.2001C31.5 42.2001 32.1 41.4001 32.9 40.8001C33.7 40.2001 34.7 40.0001 35.7 40.0001L37.9 40.2001C38.9 39.0001 39.9 38.0001 41.1 37.0001L40.9 34.8001C40.9 33.8001 41.1 32.8001 41.7 32.0001C42.3 31.2001 43.1 30.6001 44.1 30.4001L46.9 29.6001C47.9 29.4001 48.9 29.4001 49.9 29.8001C50.9 30.2001 51.5 31.0001 51.9 31.8001L52.9 33.8001C54.5 34.0001 55.9 34.4001 57.3 35.0001L58.5 34.0001C59.3 33.4001 60.3 33.2001 61.3 33.2001C62.3 33.2001 63.3 33.8001 63.9 34.4001L65.9 36.4001C66.7 37.2001 67.1 38.0001 67.1 39.0001C67.1 40.0001 66.9 41.0001 66.3 41.8001L65.1 43.6001C65.7 45.0001 66.1 46.4001 66.3 48.0001L68.3 49.0001C69.3 49.4001 69.9 50.2001 70.3 51.0001C70.7 52.0001 70.9 53.0001 70.5 54.0001L69.7 56.8001C69.5 57.8001 68.9 58.6001 68.1 59.2001C67.3 59.8001 66.3 60.0001 65.3 60.0001L63.1 59.8001C62.9 60.4001 62.5 60.8001 61.9 61.4001ZM62.7 56.4001L65.9 56.6001C66.3 56.6001 66.9 56.4001 66.9 55.8001L67.7 53.0001C67.9 52.6001 67.5 52.0001 67.1 51.8001L64.3 50.4001C63.7 50.2001 63.3 49.6001 63.3 49.0001C63.3 47.2001 62.7 45.6001 61.9 44.0001C61.7 43.4001 61.7 42.8001 62.1 42.4001L63.9 39.8001C64.1 39.4001 64.1 38.8001 63.7 38.6001L61.7 36.6001C61.3 36.2001 60.9 36.2001 60.5 36.4001L57.9 38.2001C57.5 38.6001 56.7 38.6001 56.3 38.4001C54.7 37.6001 53.1 37.2001 51.3 37.0001C50.7 37.0001 50.1 36.6001 49.9 36.0001L48.5 33.4001C48.3 33.0001 47.9 32.8001 47.3 32.8001L44.5 33.6001C44.1 33.8001 43.7 34.2001 43.9 34.6001L44.1 37.8001C44.1 38.4001 43.9 39.0001 43.3 39.4001C42.5 39.8001 41.9 40.4001 41.3 41.0001C40.7 41.6001 40.1 42.2001 39.7 43.0001C39.3 43.6001 38.7 43.8001 38.1 43.8001L34.9 43.6001C34.5 43.6001 33.9 43.8001 33.9 44.4001L33.1 47.2001C32.9 47.6001 33.3 48.2001 33.7 48.4001L36.5 49.8001C37.1 50.0001 37.5 50.6001 37.5 51.2001C37.5 53.0001 38.1 54.6001 38.9 56.2001C39.1 56.8001 39.1 57.4001 38.7 57.8001L37.1 60.0001C36.9 60.4001 36.9 61.0001 37.3 61.2001L39.3 63.2001C39.7 63.6001 40.1 63.6001 40.5 63.4001L43.1 61.6001C43.5 61.2001 44.3 61.2001 44.7 61.4001C46.3 62.2001 47.9 62.6001 49.7 62.8001C50.3 62.8001 50.9 63.2001 51.1 63.8001L52.5 66.6001C52.7 67.0001 53.1 67.2001 53.7 67.2001L56.5 66.4001C56.9 66.2001 57.3 65.8001 57.1 65.4001L56.9 62.2001C56.9 61.6001 57.1 61.0001 57.7 60.6001C59.1 59.6001 60.3 58.4001 61.3 57.0001C61.5 56.6001 62.1 56.2001 62.7 56.4001Z" fill="white"/>
</svg>
