<svg width="101" height="100" viewBox="0 0 101 100" fill="none" xmlns="http://www.w3.org/2000/svg">
<path d="M50.4998 62.3969C47.2998 62.3969 44.0998 61.1969 41.8998 58.9969C39.6998 56.7969 38.2998 53.7969 38.2998 50.5969C38.2998 47.3969 39.4998 44.3969 41.8998 42.1969C44.0998 39.9969 47.2998 38.7969 50.4998 38.7969C53.6998 38.7969 56.8998 39.9969 59.0998 42.1969C61.2998 44.3969 62.6998 47.3969 62.6998 50.5969C62.6998 53.7969 61.4998 56.7969 59.0998 58.9969C56.6998 61.1969 53.6998 62.3969 50.4998 62.3969ZM50.4998 41.1969C47.8998 41.1969 45.4998 42.1969 43.4998 43.9969C41.6998 45.7969 40.6998 48.1969 40.6998 50.5969C40.6998 52.9969 41.6998 55.3969 43.4998 57.1969C45.2998 58.9969 47.8998 59.9969 50.4998 59.9969C53.0998 59.9969 55.4998 58.9969 57.4998 57.1969C59.2998 55.3969 60.2998 52.9969 60.2998 50.5969C60.2998 48.1969 59.2998 45.7969 57.4998 43.9969C55.4998 41.9969 53.0998 41.1969 50.4998 41.1969Z" fill="#6BB64A"/>
<path d="M74.5001 48.8016V44.0016C74.5001 41.0016 73.9001 37.8016 72.7001 35.0016C71.5001 32.2016 69.7001 29.6016 67.3001 27.4016C67.7001 27.0016 68.1001 26.4016 67.9001 25.8016C67.9001 25.2016 67.5001 24.6016 67.1001 24.2016C62.3001 20.4016 56.5001 18.6016 50.5001 18.6016C44.5001 18.6016 38.7001 20.6016 33.9001 24.2016C33.3001 24.6016 33.1001 25.2016 33.1001 25.8016C33.1001 26.4016 33.3001 27.0016 33.7001 27.4016C31.5001 29.6016 29.7001 32.2016 28.3001 35.0016C27.3001 37.8016 26.5001 40.8016 26.5001 44.0016V49.0016C24.9001 49.6016 23.7001 50.8016 22.7001 52.0016C21.7001 53.4016 21.3001 55.0016 21.1001 56.6016V62.8016C21.1001 65.0016 22.1001 67.2016 23.9001 68.8016C25.7001 70.4016 27.9001 71.2016 30.3001 71.2016C30.3001 71.2016 30.3001 71.2016 30.5001 71.2016C31.5001 71.2016 32.5001 70.8016 33.1001 70.2016C33.9001 69.6016 34.3001 68.8016 34.3001 67.8016V51.4016C34.3001 50.4016 33.9001 49.6016 33.3001 49.0016C32.7001 48.4016 31.7001 48.0016 30.7001 48.0016C30.1001 48.0016 29.5001 48.0016 28.9001 48.2016V44.0016C28.9001 38.4016 31.3001 33.0016 35.5001 29.2016C35.9001 29.6016 36.5001 29.8016 36.9001 29.8016C37.5001 29.8016 37.9001 29.6016 38.5001 29.2016C41.9001 26.6016 46.1001 25.0016 50.3001 25.0016C54.7001 25.0016 58.9001 26.4016 62.3001 29.2016C62.7001 29.6016 63.3001 29.8016 63.9001 29.8016C64.5001 29.8016 64.9001 29.6016 65.3001 29.2016C69.5001 33.0016 71.9001 38.4016 71.9001 44.0016V48.2016C71.3001 48.0016 70.7001 48.0016 70.3001 48.0016C69.3001 48.0016 68.5001 48.2016 67.7001 49.0016C67.1001 49.6016 66.7001 50.4016 66.7001 51.4016V67.8016C66.7001 68.8016 67.3001 69.6016 67.9001 70.2016C68.7001 70.8016 69.5001 71.2016 70.5001 71.2016C70.5001 71.2016 70.5001 71.2016 70.7001 71.2016C70.9001 71.2016 70.9001 71.2016 71.1001 71.2016C69.5001 74.4016 66.3001 76.8016 62.5001 77.6016C62.3001 77.0016 61.7001 76.4016 61.1001 76.0016C60.5001 75.6016 59.9001 75.4016 59.1001 75.4016H51.7001C46.9001 75.4016 46.9001 82.4016 51.7001 82.4016H59.1001C59.9001 82.4016 60.7001 82.2016 61.3001 81.6016C61.9001 81.2016 62.3001 80.4016 62.7001 79.8016C67.9001 78.8016 72.3001 75.2016 74.1001 70.4016C75.9001 69.8016 77.3001 68.8016 78.3001 67.4016C79.3001 66.0016 79.9001 64.4016 79.9001 62.6016V56.4016C79.9001 54.8016 79.3001 53.2016 78.3001 51.8016C77.3001 50.6016 75.9001 49.6016 74.5001 48.8016ZM30.9001 50.2016C31.3001 50.2016 31.5001 50.2016 31.7001 50.4016C31.9001 50.6016 32.1001 50.8016 32.1001 51.2016V67.6016C32.1001 68.0016 31.3001 68.6016 30.5001 68.6016C26.7001 68.6016 23.5001 66.0016 23.7001 62.6016V56.4016C23.7001 53.2016 26.9001 50.4016 30.9001 50.2016ZM63.9001 27.2016C60.1001 24.2016 55.5001 22.6016 50.5001 22.6016C45.7001 22.6016 40.9001 24.2016 37.1001 27.2016L35.5001 25.8016C39.7001 22.6016 45.1001 20.8016 50.5001 20.8016C55.9001 20.8016 61.1001 22.6016 65.5001 25.6016L64.5001 26.6016C64.3001 26.8016 64.1001 27.0016 63.9001 27.2016ZM59.1001 80.2016H51.7001C51.1001 80.2016 50.5001 79.6016 50.5001 79.0016C50.5001 78.4016 51.1001 77.8016 51.7001 77.8016H59.1001C59.7001 77.8016 60.3001 78.4016 60.3001 79.0016C60.3001 79.6016 59.9001 80.2016 59.1001 80.2016ZM77.3001 62.8016C77.3001 64.4016 76.5001 66.0016 75.1001 67.2016C73.9001 68.4016 72.1001 69.0016 70.3001 68.8016C69.5001 68.8016 68.9001 68.2016 68.7001 67.8016V51.4016C68.7001 51.2016 68.9001 50.8016 69.1001 50.6016C69.3001 50.4016 69.5001 50.4016 69.9001 50.4016C73.9001 50.4016 77.1001 53.2016 77.1001 56.6016L77.3001 62.8016Z" fill="white"/>
<path d="M47.3001 55.5943L44.1001 51.9943C43.7001 51.5943 43.7001 50.7943 44.3001 50.3943C44.9001 49.9943 45.5001 49.9943 46.1001 50.3943L48.5001 52.9943L55.5001 45.3943C55.9001 44.9943 56.7001 44.7943 57.3001 45.3943C57.9001 45.7943 57.9001 46.5943 57.5001 46.9943L49.7001 55.5943C48.9001 55.7943 48.5001 55.9943 48.3001 55.9943C48.1001 55.9943 47.5001 55.7943 47.3001 55.5943Z" fill="#6BB64A"/>
</svg>
