<svg width="123" height="76" viewBox="0 0 123 76" fill="none" xmlns="http://www.w3.org/2000/svg">
<path d="M59.8793 74.9624L56.214 72.792C55.6662 72.486 55.9333 72.377 56.114 72.3151C56.6954 72.1313 57.2519 71.8763 57.7709 71.556C57.8142 71.5355 57.8622 71.5264 57.91 71.5298C57.9579 71.5332 58.0041 71.5489 58.0441 71.5754L60.8601 73.2465C60.9127 73.2735 60.9711 73.2876 61.0302 73.2876C61.0894 73.2876 61.1477 73.2735 61.2004 73.2465L72.1816 66.9085C72.2331 66.8775 72.2756 66.8337 72.3051 66.7814C72.3345 66.7291 72.3498 66.67 72.3495 66.6099V53.942C72.3496 53.8812 72.334 53.8214 72.3042 53.7684C72.2744 53.7155 72.2314 53.6711 72.1794 53.6397L61.2026 47.3083C61.1513 47.2786 61.093 47.2629 61.0336 47.2629C60.9742 47.2629 60.9159 47.2786 60.8646 47.3083L49.8938 53.6434C49.8415 53.6739 49.7979 53.7174 49.7675 53.7697C49.737 53.8221 49.7206 53.8814 49.7199 53.942V66.6122C49.7198 66.6718 49.7355 66.7305 49.7654 66.7821C49.7953 66.8338 49.8383 66.8766 49.8901 66.9062L52.8942 68.6452C54.5272 69.4618 55.5243 68.496 55.5243 67.5317V55.0234C55.524 54.9816 55.5321 54.9402 55.548 54.9016C55.564 54.8629 55.5875 54.8279 55.6172 54.7985C55.6469 54.769 55.6822 54.7459 55.721 54.7303C55.7597 54.7147 55.8013 54.707 55.843 54.7077H57.2343C57.2758 54.7075 57.3169 54.7156 57.3553 54.7314C57.3937 54.7472 57.4286 54.7704 57.4579 54.7998C57.4873 54.8291 57.5105 54.864 57.5263 54.9024C57.5421 54.9408 57.5502 54.9819 57.55 55.0234V67.5354C57.55 69.7125 56.3625 70.9627 54.2981 70.9627C53.4062 70.9782 52.5282 70.7401 51.7664 70.276L48.8862 68.6154C48.536 68.411 48.2454 68.1185 48.0433 67.7669C47.8413 67.4153 47.7349 67.0169 47.7346 66.6114V53.942C47.7339 53.5367 47.8399 53.1383 48.0421 52.787C48.2443 52.4358 48.5354 52.1439 48.8862 51.941L59.8779 45.5969C60.2318 45.4035 60.6287 45.3021 61.0321 45.3021C61.4355 45.3021 61.8324 45.4035 62.1863 45.5969L73.1646 51.941C73.515 52.1444 73.806 52.4363 74.0082 52.7874C74.2104 53.1386 74.3169 53.5367 74.3169 53.942V66.6144C74.316 67.0194 74.2092 67.4171 74.0072 67.7681C73.8052 68.119 73.515 68.4111 73.1653 68.6154L62.1871 74.9594C61.8352 75.1619 61.4362 75.268 61.0302 75.2669V75.2729C60.6261 75.2717 60.2293 75.1647 59.8793 74.9624ZM64.4224 66.539C59.6181 66.539 58.6105 64.3335 58.6105 62.484C58.6105 62.4424 58.6188 62.4012 58.6348 62.3627C58.6508 62.3243 58.6742 62.2894 58.7038 62.26C58.7334 62.2307 58.7684 62.2075 58.807 62.1917C58.8456 62.176 58.8868 62.168 58.9285 62.1683H60.3466C60.4222 62.1685 60.4952 62.1957 60.5525 62.2449C60.6099 62.2942 60.6477 62.3623 60.6593 62.437C60.8735 63.882 61.5116 64.6112 64.4165 64.6112C66.7302 64.6112 67.7146 64.0887 67.7146 62.861C67.7146 62.1542 67.4348 61.6295 63.8395 61.2779C60.8325 60.9794 58.974 60.3189 58.974 57.9133C58.974 55.6982 60.8399 54.3786 63.9746 54.3786C67.49 54.3786 69.2327 55.5989 69.4529 58.2216C69.4566 58.2661 69.4509 58.3108 69.4362 58.353C69.4216 58.3951 69.3983 58.4338 69.3678 58.4664C69.3376 58.4981 69.3014 58.5233 69.2613 58.5408C69.2212 58.5582 69.1779 58.5674 69.1342 58.5679H67.7079C67.6362 58.5679 67.5666 58.5434 67.5107 58.4985C67.4548 58.4535 67.4159 58.3909 67.4004 58.3209C67.0571 56.8005 66.2271 56.3139 63.9672 56.3139C61.4415 56.3139 61.1467 57.1939 61.1467 57.8529C61.1467 58.653 61.493 58.8866 64.9009 59.3374C68.2759 59.7852 69.8791 60.4174 69.8791 62.7893C69.8791 65.1777 67.8833 66.5525 64.4038 66.5525L64.4224 66.539ZM76.0089 53.262C76.0089 52.701 76.2318 52.163 76.6284 51.7664C77.0251 51.3697 77.5631 51.1469 78.1241 51.1469C78.6851 51.1469 79.2231 51.3697 79.6198 51.7664C80.0164 52.163 80.2393 52.701 80.2393 53.262C80.2446 53.5433 80.1937 53.8228 80.0898 54.0842C79.9858 54.3456 79.8307 54.5836 79.6337 54.7844C79.4366 54.9851 79.2016 55.1446 78.9422 55.2535C78.6828 55.3624 78.4043 55.4184 78.123 55.4184C77.8417 55.4184 77.5632 55.3624 77.3038 55.2535C77.0444 55.1446 76.8093 54.9851 76.6123 54.7844C76.4152 54.5836 76.2602 54.3456 76.1562 54.0842C76.0522 53.8228 76.0014 53.5433 76.0067 53.262H76.0089ZM76.35 53.2538C76.3493 53.6051 76.4529 53.9488 76.6477 54.2412C76.8424 54.5336 77.1197 54.7615 77.4442 54.8962C77.7687 55.0308 78.1258 55.0661 78.4704 54.9975C78.815 54.9289 79.1314 54.7596 79.3796 54.511C79.6279 54.2623 79.7967 53.9456 79.8647 53.6009C79.9326 53.2562 79.8968 52.8991 79.7616 52.5748C79.6264 52.2506 79.3979 51.9737 79.1052 51.7794C78.8125 51.5851 78.4687 51.4821 78.1174 51.4835C77.6487 51.4864 77.2002 51.6745 76.8696 52.0066C76.539 52.3388 76.353 52.7881 76.3522 53.2568L76.35 53.2538ZM77.3337 54.4517V52.0761H78.1502C78.4301 52.0761 78.9802 52.0761 78.9802 52.703C78.9916 52.8385 78.952 52.9734 78.8692 53.0812C78.7863 53.189 78.6662 53.262 78.5324 53.2859C78.8593 53.3076 78.8809 53.5225 78.9249 53.8248C78.9371 54.0385 78.9788 54.2495 79.0488 54.4517H78.5458C78.5324 54.342 78.4547 53.7367 78.4547 53.7054C78.4219 53.571 78.3749 53.5046 78.2077 53.5046H77.7927V54.4555L77.3337 54.4517ZM77.7815 53.1135H78.1502C78.1968 53.1195 78.2441 53.1152 78.2888 53.1008C78.3335 53.0864 78.3744 53.0624 78.4088 53.0304C78.4431 52.9984 78.47 52.9593 78.4875 52.9157C78.505 52.8721 78.5127 52.8253 78.51 52.7784C78.51 52.4537 78.2861 52.4537 78.1637 52.4537H77.7845L77.7815 53.1135ZM76.9381 47.4412L65.2949 40.715C65.0812 40.5916 64.9037 40.4142 64.7801 40.2005C64.6566 39.9868 64.5914 39.7445 64.5911 39.4977V26.0535C64.5914 25.807 64.6565 25.5649 64.7801 25.3516C64.9037 25.1383 65.0812 24.9613 65.2949 24.8384L76.9381 18.1175C77.1517 17.994 77.3941 17.9289 77.6408 17.9289C77.8876 17.9289 78.1299 17.994 78.3435 18.1175L81.2596 19.7975C81.3343 19.8406 81.4191 19.8633 81.5054 19.8632C81.5917 19.8631 81.6765 19.8404 81.7512 19.7972C81.8259 19.754 81.888 19.6919 81.9311 19.6172C81.9743 19.5424 81.997 19.4576 81.997 19.3713V1.505C81.9966 1.38239 82.0284 1.26184 82.0891 1.15532C82.1498 1.0488 82.2374 0.960028 82.343 0.897837C82.4487 0.835646 82.5688 0.8022 82.6914 0.800825C82.814 0.799451 82.9348 0.830195 83.0419 0.890001L89.9733 4.75689C90.192 4.87902 90.3742 5.05721 90.5012 5.27313C90.6282 5.48905 90.6953 5.7349 90.6958 5.9854V39.4969C90.6954 39.7438 90.6302 39.9862 90.5066 40.2C90.3831 40.4138 90.2057 40.5914 89.992 40.715L78.3488 47.4434C78.1347 47.5663 77.8922 47.631 77.6453 47.631C77.3985 47.631 77.1559 47.5663 76.9419 47.4434L76.9381 47.4412ZM77.4322 27.8507L73.4355 30.16C73.3826 30.1914 73.3387 30.2361 73.3084 30.2896C73.278 30.3432 73.2621 30.4037 73.2623 30.4652V35.0822C73.2621 35.1439 73.2783 35.2046 73.3092 35.258C73.3402 35.3113 73.3848 35.3555 73.4385 35.386L77.4375 37.6907C77.4908 37.7215 77.5513 37.7376 77.6128 37.7376C77.6744 37.7376 77.7349 37.7215 77.7882 37.6907L81.7872 35.386C81.8407 35.3553 81.885 35.3111 81.9158 35.2577C81.9466 35.2044 81.9628 35.1438 81.9626 35.0822V30.4652C81.9629 30.4033 81.9467 30.3424 81.9158 30.2888C81.8848 30.2352 81.8402 30.1907 81.7865 30.16L77.7875 27.8507C77.7336 27.8198 77.6724 27.8035 77.6102 27.8035C77.548 27.8035 77.4862 27.8198 77.4322 27.8507ZM108.774 47.1337L97.2055 40.5396C96.9902 40.4161 96.8113 40.2379 96.6868 40.0231C96.5623 39.8084 96.4966 39.5646 96.4965 39.3163V25.8789C96.4963 25.632 96.5613 25.3894 96.6849 25.1757C96.8085 24.9619 96.9863 24.7846 97.2003 24.6615L108.843 17.9443C109.058 17.8201 109.301 17.7547 109.548 17.7547C109.796 17.7547 110.039 17.8201 110.253 17.9443L121.822 24.6615C122.035 24.7853 122.212 24.9628 122.335 25.1763C122.457 25.3898 122.522 25.6318 122.522 25.8781V29.1367C122.522 29.3829 122.457 29.6247 122.335 29.838C122.212 30.0514 122.035 30.2288 121.823 30.3525L114.838 34.4097C114.731 34.4721 114.609 34.5051 114.486 34.5055C114.362 34.5058 114.241 34.4736 114.134 34.4119C114.027 34.3503 113.938 34.2614 113.876 34.1543C113.814 34.0473 113.782 33.9258 113.782 33.8022V30.4809C113.782 30.3577 113.75 30.2366 113.688 30.13C113.626 30.0233 113.537 29.9348 113.431 29.8734L109.783 27.7709C109.677 27.7087 109.556 27.6759 109.433 27.6759C109.31 27.6759 109.189 27.7087 109.082 27.7709L105.437 29.8734C105.33 29.9347 105.241 30.0234 105.179 30.1304C105.117 30.2374 105.085 30.3589 105.086 30.4824V34.6986C105.086 34.8222 105.118 34.9435 105.181 35.0503C105.243 35.157 105.333 35.2453 105.44 35.3061L117.158 42.0293C117.266 42.091 117.356 42.1802 117.418 42.2879C117.48 42.3957 117.513 42.518 117.512 42.6425C117.512 42.7669 117.478 42.889 117.415 42.9962C117.352 43.1034 117.261 43.1919 117.153 43.2526L110.155 47.1419C109.946 47.2583 109.71 47.3195 109.47 47.3195C109.226 47.3197 108.986 47.2556 108.774 47.1337ZM1.30583 44.3415C1.19898 44.2804 1.11036 44.1919 1.0491 44.0851C0.987833 43.9783 0.956139 43.8571 0.957278 43.734L0.932648 25.6915C0.933035 25.4438 0.998282 25.2006 1.12189 24.986C1.24551 24.7714 1.42317 24.5929 1.63721 24.4682L13.2804 17.7697C13.4765 17.6564 13.6975 17.5931 13.9238 17.5853H14.0439C14.2691 17.5927 14.489 17.6561 14.6836 17.7697L26.3268 24.4682C26.5411 24.592 26.719 24.7701 26.8425 24.9847C26.9659 25.1992 27.0306 25.4425 27.0298 25.69L27.0067 43.7295C27.0066 43.8524 26.9743 43.9731 26.9132 44.0796C26.852 44.1862 26.7641 44.2749 26.6582 44.3371C26.5517 44.4005 26.4301 44.434 26.3062 44.434C26.1824 44.434 26.0608 44.4005 25.9543 44.3371L19.0378 40.3761C18.8246 40.2513 18.6476 40.0732 18.524 39.8592C18.4005 39.6453 18.3348 39.4029 18.3333 39.1558V30.7302C18.3335 30.4833 18.2685 30.2407 18.1449 30.027C18.0214 29.8132 17.8435 29.6359 17.6294 29.5129L14.6843 27.8164C14.4723 27.6919 14.2308 27.6267 13.985 27.6276C13.7378 27.6272 13.495 27.6924 13.2812 27.8164L10.3345 29.5136C10.1206 29.6368 9.94292 29.8143 9.8196 30.0282C9.69627 30.2421 9.63163 30.4848 9.63221 30.7317V39.1573C9.63138 39.4044 9.566 39.647 9.44255 39.8611C9.31909 40.0751 9.14186 40.2532 8.92839 40.3776L2.00741 44.3408C1.90251 44.4054 1.78171 44.4397 1.65848 44.4397C1.53526 44.4397 1.41446 44.4054 1.30956 44.3408L1.30583 44.3415ZM109.379 35.3434L107.146 34.0537C107.104 34.0305 107.069 33.9966 107.045 33.9555C107.021 33.9145 107.008 33.8677 107.008 33.8201V31.24C107.008 31.1925 107.02 31.1458 107.044 31.1047C107.068 31.0636 107.102 31.0297 107.143 31.0063L109.382 29.7174C109.423 29.6934 109.47 29.6808 109.517 29.6808C109.564 29.6808 109.611 29.6934 109.652 29.7174L111.886 31.0063C111.927 31.0301 111.961 31.0641 111.985 31.1051C112.008 31.1462 112.021 31.1926 112.021 31.24V33.8209C112.021 33.8682 112.008 33.9147 111.985 33.9557C111.961 33.9967 111.927 34.0308 111.886 34.0545L109.652 35.3442C109.611 35.3681 109.564 35.3807 109.517 35.3808C109.468 35.3812 109.42 35.3683 109.379 35.3434Z" fill="#AEC0D5"/>
<path opacity="0.65" d="M45.1105 47.5386L43.6177 46.6744L43.4685 46.587L33.5292 40.8498C33.3693 40.7575 33.2293 40.6345 33.1172 40.4878C32.9307 40.2439 32.8297 39.9454 32.8299 39.6384V26.2614C32.8299 26.016 32.8946 25.7749 33.0173 25.5624C33.1401 25.3499 33.3166 25.1735 33.5292 25.0508L33.5628 25.0314L34.8532 24.2851L45.1097 18.3664C45.323 18.2441 45.5646 18.1797 45.8105 18.1797C46.0565 18.1797 46.2981 18.2441 46.5114 18.3664L49.4229 20.0458L50.5037 20.6675L58.0867 25.0464C58.2075 25.1156 58.3172 25.2027 58.4121 25.3046C58.6524 25.5634 58.7858 25.9037 58.7853 26.257V39.6384C58.7852 39.7246 58.7772 39.8105 58.7614 39.8952V39.9191C58.7214 40.1128 58.6409 40.2959 58.5251 40.4563C58.4093 40.6167 58.2609 40.7508 58.0896 40.8498L46.5114 47.5386C46.413 47.5954 46.308 47.6398 46.1987 47.6707C46.1089 47.6962 46.0169 47.713 45.924 47.7208H45.868H45.8098C45.5648 47.7222 45.3236 47.6594 45.1105 47.5386Z" fill="#AEC0D5"/>
<path d="M45.2294 18.6063L33.3298 25.4766L46.1665 47.7103L58.0661 40.84L45.2294 18.6063Z" fill="#AEC0D5"/>
</svg>
