<svg width="122" height="88" viewBox="0 0 122 88" fill="none" xmlns="http://www.w3.org/2000/svg">
<path opacity="0.83" d="M24.5082 70.6622C22.808 70.6688 21.1711 70.0176 19.9399 68.8451C18.7087 67.6725 17.9785 66.0693 17.9021 64.3707C17.9141 63.5212 18.0954 62.6826 18.4355 61.904C18.7757 61.1255 19.2678 60.4226 19.883 59.8367C20.4983 59.2508 21.2243 58.7935 22.0185 58.4917C22.8127 58.1899 23.6591 58.0497 24.5082 58.0792C25.3573 58.0497 26.2038 58.1899 26.998 58.4917C27.7922 58.7935 28.5182 59.2508 29.1334 59.8367C29.7487 60.4226 30.2408 61.1255 30.5809 61.904C30.9211 62.6826 31.1024 63.5212 31.1143 64.3707C31.0379 66.0693 30.3078 67.6725 29.0766 68.8451C27.8454 70.0176 26.2085 70.6688 24.5082 70.6622ZM105.666 36.3745C105.037 31.3412 101.891 27.2518 97.8015 24.106L96.2286 22.8477L94.9703 24.4206C92.45 27.2518 91.51 32.285 91.8246 36.0599C92.096 38.8768 93.0694 41.5807 94.6557 43.9243C93.3974 44.5534 91.8246 45.1826 90.5663 45.8117C87.822 46.6903 84.9529 47.1153 82.0718 47.07H0.601436L0.28686 48.9575C-0.344266 55.0786 0.631559 61.2585 3.11804 66.8873L4.37634 69.0884V69.403C11.9261 81.986 25.451 87.6484 40.237 87.6484C68.5478 87.6484 91.8255 75.3799 102.836 48.9565C110.071 49.2711 117.304 47.3837 120.765 40.4621L121.709 38.8892L120.136 37.9455C116.047 35.4251 110.384 35.1143 105.668 36.3726L105.666 36.3745ZM65.0875 31.3412H52.82V43.605H65.0875V31.3412ZM65.0875 15.9271H52.82V28.1955H65.0875V15.9271ZM65.0875 0.199219H52.82V12.4677H65.0875V0.199219ZM80.1871 31.3412H67.9234V43.605H80.1871V31.3412ZM34.5746 31.3412H22.3062V43.605H34.5746V31.3412ZM49.9888 31.3412H37.7204V43.605H49.9888V31.3412ZM19.476 31.3412H7.20752V43.605H19.4769V31.3412H19.476ZM49.9888 15.9271H37.7204V28.1955H49.9888V15.9271ZM34.5746 15.9271H22.3062V28.1955H34.5746V15.9271Z" fill="#AEC0D5"/>
</svg>
