<svg width="114" height="102" viewBox="0 0 114 102" fill="none" xmlns="http://www.w3.org/2000/svg">
<g clip-path="url(#clip0_2994_2288)">
<g clip-path="url(#clip1_2994_2288)">
<path d="M56.914 89.2682C48.823 97.106 40.8363 101.808 34.4075 101.583C32.3914 101.634 30.3999 101.132 28.6499 100.129C22.9934 96.8812 20.8892 88.372 22.774 76.393C23.1202 74.2088 23.5637 72.0434 24.1047 69.8968C21.9945 69.3588 19.9208 68.6865 17.8964 67.8838C6.69524 63.6298 0.486877 57.5822 0.486877 50.8665C0.486877 44.2605 6.69524 38.2151 17.892 33.8503C19.8887 33.1778 21.8843 32.5032 24.1004 31.834C23.5431 29.5908 23.0999 27.4681 22.7696 25.34C20.773 13.3578 22.8783 4.96373 28.6456 1.60046C30.3972 0.599506 32.3895 0.0972103 34.4064 0.14804C40.8342 0.14804 48.8176 4.84967 56.7999 12.7994C64.8909 4.84967 72.9873 0.14804 79.3065 0.14804C81.3221 0.0996867 83.3128 0.602236 85.064 1.60155C90.8313 4.96916 92.9355 13.474 91.0529 25.6746C90.7205 27.8049 90.2762 29.933 89.7189 32.1708C91.8296 32.7086 93.9034 33.3821 95.9273 34.187C107.132 38.4367 113.338 44.4854 113.338 51.2054C113.338 57.8114 107.132 63.8568 95.9327 68.2217C93.936 68.8941 91.9405 69.5687 89.7244 70.2379C90.2816 72.4812 90.7249 74.6038 91.0584 76.7341C93.0518 88.7131 90.9497 97.1104 85.1824 100.47C83.4293 101.472 81.4356 101.974 79.4173 101.924C72.9873 101.92 65.0071 97.2179 56.914 89.2682ZM69.8826 73.7076C66.9982 77.8253 63.8511 81.7526 60.4609 85.465C67.1124 92.1795 73.8759 96.6596 79.3076 96.6596C80.4313 96.7077 81.5457 96.4357 82.5209 95.8752C86.2894 93.7471 87.5093 86.9174 85.957 77.4077C85.6585 75.3711 85.2512 73.352 84.737 71.359C79.8508 72.5098 74.8855 73.2949 69.8826 73.7076ZM27.8634 77.4011C26.3111 86.9163 27.5256 93.746 31.2995 95.8687C32.2799 96.4161 33.3905 96.6872 34.5128 96.653C39.9445 96.653 46.7079 92.0611 53.3595 85.4584C49.9387 81.7752 46.7905 77.8479 43.94 73.7076C38.9487 73.1885 33.9888 72.4034 29.0812 71.3557C28.6391 73.4838 28.1958 75.5001 27.8623 77.4033L27.8634 77.4011ZM56.9086 81.6519C59.0899 79.249 61.1594 76.7504 63.1169 74.1563C61.1203 74.2649 59.0128 74.2649 56.9086 74.2649C54.8043 74.2649 52.6969 74.2649 50.7002 74.1563C52.6541 76.7504 54.7236 79.2497 56.9086 81.6541V81.6519ZM46.8209 33.1778C44.9383 36.0924 43.0557 38.9995 41.3893 41.9119C39.6142 44.933 38.0619 47.9573 36.6225 50.9784C38.0803 54.0694 39.6693 57.0915 41.3893 60.0449C43.0818 63.0316 44.8923 65.9429 46.8209 68.779C53.541 69.2296 60.2837 69.2296 67.0038 68.779C68.8864 65.8665 70.7723 62.9573 72.4354 60.0449C74.1547 57.0951 75.7437 54.073 77.2023 50.9784C75.7629 47.9573 74.2105 44.933 72.4354 41.9119C70.7723 38.9995 68.9994 36.0935 67.0038 33.1778C63.6434 32.9526 60.2794 32.84 56.9118 32.84C53.5442 32.84 50.1806 32.9526 46.8209 33.1778ZM30.526 66.4271C33.7531 67.123 37.0049 67.6839 40.2812 68.1098C39.0613 66.3206 38.0608 64.5249 36.9538 62.6238C35.8447 60.8346 34.8496 58.9303 33.9621 57.1379C32.6346 60.2698 31.5276 63.4082 30.526 66.4271ZM79.9735 57.0292C78.9784 58.9336 77.9822 60.8314 76.9817 62.5152C75.8704 64.4163 74.7613 66.2087 73.6543 68.0011C77.0904 67.5536 80.3037 66.9909 83.4095 66.3206C82.4145 63.2941 81.3053 60.16 79.9735 57.0271V57.0292ZM82.8598 50.9784C84.97 55.5606 86.7843 60.2733 88.2915 65.0876C90.2882 64.5303 92.2794 63.8557 94.0566 63.1833C103.035 59.707 108.134 55.3433 108.134 50.9773C108.134 45.9378 100.707 40.4519 88.2915 36.8713C86.8333 41.7017 85.017 46.4171 82.8598 50.9784ZM19.7692 38.7789C10.7885 42.2476 5.6893 46.6135 5.6893 50.9784C5.6893 56.0179 13.1165 61.5027 25.5332 65.0865C27.0115 60.2643 28.8265 55.5518 30.9649 50.9838C28.8547 46.4017 27.0404 41.6889 25.5332 36.8746C23.5355 37.4319 21.5443 38.1065 19.7692 38.7789ZM33.9577 45.0427C34.842 43.1384 35.8382 41.3492 36.9495 39.4427C38.0608 37.5362 39.1699 35.7492 40.2769 33.96C36.8419 34.4076 33.6286 34.9681 30.5238 35.6395C31.4584 38.8466 32.6056 41.988 33.9577 45.0427ZM76.9828 39.3362L79.9746 44.9341C81.3031 41.7978 82.4145 38.6616 83.4106 35.5286C80.3048 34.8595 77.0914 34.2967 73.6554 33.8481C74.8753 35.6394 75.878 37.4319 76.9828 39.3362ZM60.5684 16.4951C63.9915 20.1792 67.1405 24.1088 69.9901 28.2524C74.9813 28.7712 79.9412 29.5556 84.8489 30.6021C85.2921 28.474 85.7364 26.4578 86.0689 24.5567C87.6212 14.9275 86.2937 8.20968 82.6328 6.08156C81.6513 5.53402 80.5396 5.26296 79.4162 5.29723C73.9835 5.29723 67.22 9.88697 60.5684 16.4951ZM27.8623 24.5567C28.1621 26.592 28.5694 28.6099 29.0823 30.6021C33.9694 29.4497 38.9358 28.6642 43.94 28.2524C46.8233 24.133 49.9716 20.2056 53.365 16.4951C46.7101 9.77725 39.9466 5.29723 34.515 5.29723C33.3902 5.24896 32.2747 5.52094 31.2984 6.08156C27.5277 8.32483 26.3078 15.0394 27.8623 24.5567ZM63.1234 27.8049C61.1268 25.2313 59.0247 22.6524 56.9173 20.3038C54.813 22.6535 52.7056 25.1173 50.7089 27.8049C52.7056 27.6897 54.813 27.6897 56.9173 27.6897C59.0215 27.6897 61.1224 27.6897 63.1191 27.8049H63.1234ZM46.6015 50.9784C46.6216 48.9435 47.2435 46.9601 48.3886 45.2779C49.5338 43.5957 51.1511 42.2899 53.0369 41.5251C54.9227 40.7603 56.9926 40.5705 58.986 40.9797C60.9795 41.389 62.8072 42.3789 64.2391 43.8249C65.6711 45.2708 66.6431 47.1081 67.0329 49.1054C67.4227 51.1028 67.2128 53.1707 66.4296 55.049C65.6464 56.9272 64.3249 58.5317 62.6317 59.6605C60.9384 60.7892 58.949 61.3916 56.914 61.3919C55.553 61.3855 54.2067 61.1111 52.9518 60.5842C51.6969 60.0574 50.5582 59.2885 49.6005 58.3215C48.6429 57.3544 47.8851 56.2082 47.3705 54.9483C46.8559 53.6883 46.5946 52.3393 46.6015 50.9784Z" fill="#AEC0D5"/>
</g>
</g>
<defs>
<clipPath id="clip0_2994_2288">
<rect width="112.858" height="101.772" fill="white" transform="translate(0.483582 0.148438)"/>
</clipPath>
<clipPath id="clip1_2994_2288">
<rect width="112.851" height="101.772" fill="white" transform="translate(0.486877 0.148438)"/>
</clipPath>
</defs>
</svg>
