<svg width="45" height="48" viewBox="0 0 45 48" fill="none" xmlns="http://www.w3.org/2000/svg">
<path fill-rule="evenodd" clip-rule="evenodd" d="M7.45337 19.0742H10.9928V33.1279H7.45337C4.21935 33.1279 1.59766 30.5062 1.59766 27.2722V24.9299C1.59766 21.6959 4.21935 19.0742 7.45337 19.0742Z" stroke="#1D4354" stroke-width="1.11259"/>
<path fill-rule="evenodd" clip-rule="evenodd" d="M38.0193 19.0742H34.4798V33.1279H38.0193C41.2533 33.1279 43.875 30.5062 43.875 27.2722V24.9299C43.875 21.6959 41.2533 19.0742 38.0193 19.0742Z" stroke="#1D4354" stroke-width="1.11259"/>
<path d="M22.1427 40.1602H25.6822C27.2992 40.1602 28.61 41.471 28.61 43.088V43.088C28.61 44.705 27.2992 46.0159 25.6822 46.0159H22.1427C20.5257 46.0159 19.2148 44.705 19.2148 43.088V43.088C19.2148 41.471 20.5257 40.1602 22.1427 40.1602Z" stroke="#1D4354" stroke-width="1.11259"/>
<path d="M7.4707 19.075V16.775C7.4707 8.34315 14.306 1.50781 22.7379 1.50781C31.1697 1.50781 38.005 8.34315 38.005 16.775V19.075" stroke="#1D4354" stroke-width="1.11259"/>
<path d="M38.0026 33.1328L38.0345 33.7062C38.3246 38.9126 34.3391 43.3684 29.1326 43.6585C28.9577 43.6682 28.7826 43.6731 28.6074 43.6731" stroke="#1D4354" stroke-width="1.11259"/>
</svg>
