<svg width="65" height="46" viewBox="0 0 65 46" fill="none" xmlns="http://www.w3.org/2000/svg">
<g clip-path="url(#clip0_3223_530)">
<path d="M32.7762 7.09074C33.4325 7.09074 33.9646 6.56675 33.9646 5.92037C33.9646 5.27399 33.4325 4.75 32.7762 4.75C32.1199 4.75 31.5879 5.27399 31.5879 5.92037C31.5879 6.56675 32.1199 7.09074 32.7762 7.09074Z" fill="#1D4354"/>
<path d="M7.38867 34.4204V4.83924C7.38867 2.90011 8.96065 1.32813 10.8998 1.32812H54.5797C56.5188 1.32812 58.0908 2.90011 58.0908 4.83924V34.4204" stroke="#1D4354" stroke-width="1.14111"/>
<path fill-rule="evenodd" clip-rule="evenodd" d="M26.4623 38.4102C26.6232 38.9306 26.769 39.2561 27.0046 39.4918C27.2402 39.7274 27.5657 39.8731 27.9253 39.8731H37.0493C37.4088 39.8731 37.7343 39.7274 37.9699 39.4918C38.2056 39.2561 38.3513 38.9306 38.3513 38.5711L64.4338 38.4102V39.9755C64.4338 41.4339 63.8426 42.7543 62.8869 43.71C61.9312 44.6657 60.6109 45.2568 59.1525 45.2568H6.32623C4.86784 45.2568 3.54751 44.6657 2.59178 43.71C1.63605 42.7543 1.04492 41.4339 1.04492 39.9755V38.4102H26.4623Z" stroke="#1D4354" stroke-width="1.14111"/>
<path d="M28.8655 16.1814C27.5806 14.7473 25.7065 13.8438 23.6196 13.8438C19.7458 13.8438 16.6055 16.957 16.6055 20.7974C16.6055 24.6378 19.7458 27.7511 23.6196 27.7511C26.2552 27.7511 28.5513 26.3099 29.7498 24.1792" stroke="#1D4354" stroke-width="1.39073"/>
<path d="M36.4584 25.2389C37.745 26.7738 39.6851 27.7511 41.8555 27.7511C45.7293 27.7511 48.8696 24.6378 48.8696 20.7974C48.8696 16.957 45.7293 13.8438 41.8555 13.8438C38.9484 13.8438 36.4543 15.5971 35.3906 18.0953" stroke="#1D4354" stroke-width="1.39073"/>
<path d="M28.3945 15.7109L36.8644 25.6949" stroke="#1D4354" stroke-width="1.39073"/>
</g>
<defs>
<clipPath id="clip0_3223_530">
<rect width="64.53" height="45.616" fill="white" transform="translate(0.470703 0.222656)"/>
</clipPath>
</defs>
</svg>
