<svg width="48" height="47" viewBox="0 0 48 47" fill="none" xmlns="http://www.w3.org/2000/svg">
<g clip-path="url(#clip0_3223_548)">
<path d="M35.0899 23.3603L32.2525 20.7212C32.1928 20.6658 32.1189 20.6271 32.038 20.6104L28.905 19.9673L31.0002 18.7842C31.139 18.7059 31.2244 18.5599 31.2244 18.4015V14.8828C31.2244 14.6409 31.0251 14.4429 30.7794 14.4429C30.5338 14.4429 30.3344 14.6409 30.3344 14.8828V18.1473L28.3799 19.2504C28.0897 18.4798 27.4471 17.8843 26.6452 17.6459C26.4716 17.0723 26.1085 16.5858 25.6269 16.2489L27.1302 14.2679C27.278 14.0735 27.2379 13.7972 27.0403 13.6521C26.8445 13.5069 26.5651 13.5465 26.4173 13.7409L24.8036 15.8663C24.5802 15.8056 24.3479 15.7625 24.1041 15.7625C23.8602 15.7625 23.6279 15.8056 23.4036 15.8663L21.79 13.7401C21.6413 13.5439 21.3627 13.5043 21.1669 13.6512C20.9693 13.7964 20.9293 14.0726 21.077 14.267L22.5812 16.248C22.0997 16.5867 21.7321 17.0714 21.5585 17.6459C20.7593 17.8851 20.1176 18.4798 19.8283 19.2495L17.8737 18.1473V14.8828C17.8737 14.6409 17.6744 14.4429 17.4287 14.4429C17.1831 14.4429 16.9837 14.6409 16.9837 14.8828V18.4015C16.9837 18.5599 17.0691 18.7059 17.208 18.7842L19.3032 19.9673L16.1702 20.6104C16.0901 20.6271 16.0153 20.6658 15.9557 20.7212L13.1182 23.3603C12.9393 23.5265 12.9313 23.8054 13.0995 23.9822C13.1868 24.0728 13.3051 24.1195 13.4235 24.1195C13.533 24.1195 13.6425 24.0799 13.7288 24.0007L16.4746 21.4461L19.0077 20.9262C18.6499 21.4443 18.4051 22.0188 18.2387 22.631L15.7341 26.0618C15.6967 26.1128 15.6709 26.1709 15.6584 26.2325L14.7684 30.6309C14.7194 30.8693 14.8761 31.1006 15.1182 31.1481C15.1475 31.1552 15.1769 31.1569 15.2054 31.1569C15.4137 31.1569 15.5997 31.0127 15.6415 30.8042L16.5129 26.499L17.9263 24.5646C17.8835 25.1425 17.8737 25.7328 17.8737 26.3187C17.8737 29.0677 19.5061 32.4765 24.1041 32.4765C28.7021 32.4765 30.3344 28.9023 30.3344 26.3187C30.3344 25.7319 30.3237 25.1416 30.2837 24.5628L31.6971 26.499L32.5684 30.8042C32.6111 31.0127 32.7963 31.1569 33.0037 31.1569C33.033 31.1569 33.0624 31.1552 33.0918 31.1481C33.333 31.1006 33.4896 30.8702 33.4416 30.6309L32.5515 26.2325C32.539 26.1709 32.5132 26.1119 32.4759 26.0618L29.9704 22.6301C29.803 22.0188 29.5583 21.4435 29.2014 20.9253L31.7353 21.4461L34.4811 24.0007C34.5675 24.0799 34.6769 24.1195 34.7864 24.1195C34.9048 24.1195 35.0232 24.0728 35.1104 23.9822C35.2777 23.8054 35.2688 23.5265 35.0899 23.3603ZM25.6305 17.5218H22.5768C22.8838 16.9993 23.4481 16.6421 24.1041 16.6421C24.76 16.6421 25.3225 16.9993 25.6305 17.5218ZM22.324 18.4015H25.8842C26.8668 18.4015 27.6643 19.1915 27.6643 20.1609V20.2277C25.3822 20.5356 24.1041 21.9202 24.1041 21.9202C24.1041 21.9202 22.8767 20.5295 20.5439 20.226V20.1609C20.5439 19.1915 21.3414 18.4015 22.324 18.4015ZM18.7638 26.3187C18.7638 24.2831 18.8644 22.3478 20.0188 21.0511C22.2234 21.1796 23.3822 22.4428 23.4294 22.4947L23.659 22.7559V31.5765C20.0615 31.3672 18.7638 28.6586 18.7638 26.3187ZM24.5491 31.5748V22.741L24.7609 22.5149C24.8152 22.4569 26.031 21.1848 28.1894 21.0529C29.3438 22.3495 29.4444 24.2848 29.4444 26.3187C29.4444 28.2065 28.3923 31.3461 24.5491 31.5748Z" fill="#1D4354"/>
<path d="M24.1047 43.6C35.165 43.6 44.1312 34.6338 44.1312 23.5734C44.1312 12.5131 35.165 3.54688 24.1047 3.54688C13.0443 3.54688 4.07812 12.5131 4.07812 23.5734C4.07812 34.6338 13.0443 43.6 24.1047 43.6Z" stroke="#1D4354" stroke-width="1.11259"/>
<path d="M24.1055 1.32422V8.55602" stroke="#1D4354" stroke-width="1.11259" stroke-linecap="round"/>
<path d="M1.85352 23.5742H9.08532" stroke="#1D4354" stroke-width="1.11259" stroke-linecap="round"/>
<path d="M39.125 23.5742H46.3568" stroke="#1D4354" stroke-width="1.11259" stroke-linecap="round"/>
<path d="M24.1055 38.5938V45.8256" stroke="#1D4354" stroke-width="1.11259" stroke-linecap="round"/>
</g>
<defs>
<clipPath id="clip0_3223_548">
<rect width="46.7286" height="46.7286" fill="white" transform="translate(0.738281 0.21875)"/>
</clipPath>
</defs>
</svg>
