<svg width="46" height="46" viewBox="0 0 46 46" fill="none" xmlns="http://www.w3.org/2000/svg">
<g clip-path="url(#clip0_3223_592)">
<path d="M44.7662 26.6994C44.1419 25.8281 43.1019 25.2426 42.0521 25.1713C41.1952 25.1136 40.4188 25.4027 39.8664 25.9868C39.7451 26.1149 39.6144 26.2556 39.476 26.4063C38.8648 25.8471 38.064 25.4872 37.2566 25.4325C36.3994 25.3751 35.6232 25.664 35.0709 26.248C33.8685 27.5193 31.7395 30.0028 30.0674 31.9799C29.8494 31.8511 29.6161 31.7449 29.3693 31.6652C28.5701 31.3214 17.5531 26.6217 12.6697 26.6217C4.78119 26.6217 1.15714 30.8569 1.00677 31.0371C0.776078 31.3137 0.813497 31.7239 1.08961 31.9551C1.36581 32.1864 1.77794 32.1501 2.01029 31.8749C2.01864 31.8651 2.86526 30.8749 4.59453 29.8992C6.18839 29.0001 8.88323 27.928 12.6696 27.928C17.3612 27.928 28.766 32.8279 28.8807 32.8774C29.0903 32.9677 29.3065 33.0368 29.498 33.1644C29.6787 33.2849 29.8405 33.4336 29.9761 33.6032C30.2394 33.9327 30.4043 34.3404 30.4389 34.7609C30.5118 35.642 30.0167 36.4932 29.2176 36.8695C28.7137 37.1068 28.1809 37.1139 27.6515 36.969L20.5162 35.006C20.1726 34.9115 19.8066 35.1193 19.712 35.4623C19.6174 35.8055 19.8253 36.171 20.1688 36.2654L27.2942 38.2257C28.16 38.4925 29.106 38.4052 29.9082 37.985C30.723 37.5583 31.3226 36.8401 31.5966 35.963C31.686 35.6768 31.7365 35.3848 31.7502 35.093L33.6639 34.8917C33.8332 34.8739 33.989 34.7908 34.098 34.6601C34.1452 34.6035 38.8378 28.9764 40.8171 26.8837C41.6398 26.0135 43.1087 26.6303 43.7028 27.4594C44.6164 28.7343 43.4811 30.126 43.1114 30.5223C41.2948 32.4691 37.9636 36.4803 37.3648 37.2033L23.8068 43.9746L16.8311 41.0408C16.5027 40.9027 16.113 41.0612 15.9747 41.3894C15.8364 41.7174 15.9951 42.1067 16.3236 42.2448L23.5765 45.2951C23.7509 45.3686 23.9536 45.3619 24.1227 45.2774L38.0734 38.3099C38.155 38.2692 38.2272 38.2118 38.2853 38.1414C38.3236 38.0951 42.1367 33.483 44.0683 31.4128C45.49 29.8893 45.7577 28.0829 44.7662 26.6994ZM33.2632 33.6205L31.5592 33.7997C31.4384 33.4581 31.2642 33.1371 31.0446 32.849C32.4689 31.165 34.7832 28.4546 36.0215 27.1454C36.3792 26.767 36.8421 26.7134 37.1678 26.7361C37.6804 26.771 38.2061 27.0125 38.6014 27.3779C36.6395 29.5902 33.9684 32.7768 33.2632 33.6205Z" fill="#1D4354"/>
<path d="M13.6212 39.6895L10.8312 38.516C10.7509 38.4822 10.6646 38.4648 10.5774 38.4648H1.50943C1.14829 38.4648 0.855469 38.7572 0.855469 39.1181C0.855469 39.4789 1.14829 39.7713 1.50943 39.7713H10.4453L13.1135 40.8934C13.4645 41.0411 13.876 40.8492 13.9909 40.4878C14.0919 40.1705 13.928 39.8185 13.6212 39.6895Z" fill="#1D4354"/>
<path d="M35.5984 22.6195L32.8138 23.017C35.0782 20.5937 36.3448 17.419 36.3448 14.0344C36.3448 6.75895 30.419 0.839844 23.1353 0.839844C15.8515 0.839844 9.92578 6.75895 9.92578 14.0344C9.92578 16.9536 10.8609 19.7201 12.63 22.0345C14.3422 24.2745 16.7702 25.936 19.4668 26.7132C19.8235 26.8159 20.2022 26.5918 20.2854 26.2312C20.3624 25.8979 20.1579 25.5528 19.8293 25.458C14.7683 23.9994 11.2336 19.3017 11.2336 14.0343C11.2336 7.4791 16.5727 2.1461 23.1353 2.1461C29.6979 2.1461 35.037 7.4791 35.037 14.0343C35.037 17.2748 33.7491 20.3023 31.4621 22.5305V19.0857C31.4621 18.7248 31.1693 18.4324 30.8081 18.4324C30.4469 18.4324 30.1542 18.7248 30.1542 19.0857V23.9628C30.1542 24.3534 30.5132 24.6651 30.9006 24.6095L35.7833 23.9128C36.1361 23.8624 36.3887 23.5261 36.3383 23.1738C36.2879 22.8217 35.9508 22.5697 35.5984 22.6195Z" fill="#1D4354"/>
<path d="M23.1336 13.3826H22.4361C21.6428 13.3826 20.9975 12.7379 20.9975 11.9456C20.9975 11.1533 21.6429 10.5086 22.4361 10.5086H25.2262C25.5874 10.5086 25.8802 10.2162 25.8802 9.85534C25.8802 9.49453 25.5874 9.20212 25.2262 9.20212H23.7875V8.46181C23.7875 8.101 23.4948 7.80859 23.1335 7.80859C22.7724 7.80859 22.4796 8.101 22.4796 8.46181V9.20212H22.436C20.9216 9.20212 19.6895 10.4328 19.6895 11.9455C19.6895 13.4582 20.9216 14.689 22.436 14.689H23.1335C23.9268 14.689 24.5722 15.3337 24.5722 16.126C24.5722 16.9182 23.9268 17.5629 23.1335 17.5629H20.3434C19.9823 17.5629 19.6895 17.8554 19.6895 18.2162C19.6895 18.577 19.9823 18.8694 20.3434 18.8694H22.4796V19.6097C22.4796 19.9705 22.7724 20.2629 23.1335 20.2629C23.4948 20.2629 23.7875 19.9705 23.7875 19.6097V18.7903C24.9872 18.4964 25.8801 17.4137 25.8801 16.126C25.8802 14.6133 24.648 13.3826 23.1336 13.3826Z" fill="#1D4354"/>
</g>
<defs>
<clipPath id="clip0_3223_592">
<rect width="44.5034" height="44.5034" fill="white" transform="translate(0.853516 0.816406)"/>
</clipPath>
</defs>
</svg>
