<svg width="64" height="46" viewBox="0 0 64 46" fill="none" xmlns="http://www.w3.org/2000/svg">
<g clip-path="url(#clip0_3223_567)">
<path d="M31.7616 6.60246C32.4066 6.60246 32.9294 6.07847 32.9294 5.43209C32.9294 4.78571 32.4066 4.26172 31.7616 4.26172C31.1166 4.26172 30.5938 4.78571 30.5938 5.43209C30.5938 6.07847 31.1166 6.60246 31.7616 6.60246Z" fill="#1D4354"/>
<path d="M6.81445 33.9321V4.35096C6.81445 2.41182 8.38643 0.839844 10.3256 0.839844H53.1313C55.0704 0.839844 56.6424 2.41182 56.6424 4.35096V33.9321" stroke="#1D4354" stroke-width="1.14111"/>
<path fill-rule="evenodd" clip-rule="evenodd" d="M25.5466 37.9219C25.7075 38.4423 25.8532 38.7679 26.0888 39.0035C26.3245 39.2391 26.65 39.3848 27.0095 39.3848H35.951C36.3105 39.3848 36.636 39.2391 36.8717 39.0035C37.1073 38.7679 37.253 38.4423 37.253 38.0828L62.8661 37.9219V39.4873C62.8661 40.9456 62.275 42.266 61.3192 43.2217C60.3635 44.1774 59.0432 44.7686 57.5848 44.7686H5.87115C4.41276 44.7686 3.09243 44.1774 2.1367 43.2217C1.18097 42.266 0.589844 40.9456 0.589844 39.4873V37.9219H25.5466Z" stroke="#1D4354" stroke-width="1.14111"/>
<path d="M15.875 32.1955L20.1377 27.2383" stroke="#1D4354" stroke-width="1.14111"/>
<path d="M21.617 27.2862C22.5511 27.2862 23.3083 26.5112 23.3083 25.5552C23.3083 24.5992 22.5511 23.8242 21.617 23.8242C20.683 23.8242 19.9258 24.5992 19.9258 25.5552C19.9258 26.5112 20.683 27.2862 21.617 27.2862Z" stroke="#1D4354" stroke-width="1.14111"/>
<path d="M30.4901 27.6417C31.4241 27.6417 32.1813 26.8667 32.1813 25.9107C32.1813 24.9547 31.4241 24.1797 30.4901 24.1797C29.556 24.1797 28.7988 24.9547 28.7988 25.9107C28.7988 26.8667 29.556 27.6417 30.4901 27.6417Z" stroke="#1D4354" stroke-width="1.14111"/>
<path d="M42.6678 21.2745C43.6019 21.2745 44.3591 20.4995 44.3591 19.5435C44.3591 18.5875 43.6019 17.8125 42.6678 17.8125C41.7338 17.8125 40.9766 18.5875 40.9766 19.5435C40.9766 20.4995 41.7338 21.2745 42.6678 21.2745Z" stroke="#1D4354" stroke-width="1.14111"/>
<path d="M34.1444 17.7277C35.0784 17.7277 35.8356 16.9527 35.8356 15.9966C35.8356 15.0406 35.0784 14.2656 34.1444 14.2656C33.2103 14.2656 32.4531 15.0406 32.4531 15.9966C32.4531 16.9527 33.2103 17.7277 34.1444 17.7277Z" stroke="#1D4354" stroke-width="1.14111"/>
<path d="M23.7031 25.9141H28.4007" stroke="#1D4354" stroke-width="1.14111"/>
<path d="M31.2715 23.875L33.3593 18.1211" stroke="#1D4354" stroke-width="1.14111"/>
<path d="M36.0586 16.9688L40.7562 18.5621" stroke="#1D4354" stroke-width="1.14111"/>
<path d="M43.9746 17.7653L47.2803 10.6836" stroke="#1D4354" stroke-width="1.14111"/>
<path d="M45.4629 11.2344L47.3241 10.5823L48.0085 12.3852" stroke="#1D4354" stroke-width="1.14111"/>
</g>
<defs>
<clipPath id="clip0_3223_567">
<rect width="63.4174" height="44.5034" fill="white" transform="translate(0.0253906 0.816406)"/>
</clipPath>
</defs>
</svg>
