<svg width="42" height="48" viewBox="0 0 42 48" fill="none" xmlns="http://www.w3.org/2000/svg">
<path d="M26.0257 14.0371V5.75659C26.0257 3.53233 24.2981 1.72266 22.1744 1.72266H5.11692C2.99324 1.72266 1.26562 3.53233 1.26562 5.75659V42.1921C1.26562 44.4165 2.99324 46.2261 5.11692 46.2261H22.1744C24.2981 46.2261 26.0257 44.4165 26.0257 42.1921V38.0723" stroke="#1D4354" stroke-width="1.11259"/>
<path d="M7.10547 36.4182L11.3681 31.4609" stroke="#1D4354" stroke-width="1.14111"/>
<path d="M12.8475 31.5089C13.7816 31.5089 14.5388 30.7339 14.5388 29.7779C14.5388 28.8219 13.7816 28.0469 12.8475 28.0469C11.9135 28.0469 11.1562 28.8219 11.1562 29.7779C11.1562 30.7339 11.9135 31.5089 12.8475 31.5089Z" stroke="#1D4354" stroke-width="1.14111"/>
<path d="M21.7206 31.8644C22.6546 31.8644 23.4118 31.0894 23.4118 30.1334C23.4118 29.1773 22.6546 28.4023 21.7206 28.4023C20.7865 28.4023 20.0293 29.1773 20.0293 30.1334C20.0293 31.0894 20.7865 31.8644 21.7206 31.8644Z" stroke="#1D4354" stroke-width="1.14111"/>
<path d="M33.8983 25.4972C34.8323 25.4972 35.5896 24.7222 35.5896 23.7662C35.5896 22.8102 34.8323 22.0352 33.8983 22.0352C32.9642 22.0352 32.207 22.8102 32.207 23.7662C32.207 24.7222 32.9642 25.4972 33.8983 25.4972Z" stroke="#1D4354" stroke-width="1.14111"/>
<path d="M25.3749 21.9503C26.3089 21.9503 27.0661 21.1753 27.0661 20.2193C27.0661 19.2633 26.3089 18.4883 25.3749 18.4883C24.4408 18.4883 23.6836 19.2633 23.6836 20.2193C23.6836 21.1753 24.4408 21.9503 25.3749 21.9503Z" stroke="#1D4354" stroke-width="1.14111"/>
<path d="M14.9336 30.1367H19.6312" stroke="#1D4354" stroke-width="1.14111"/>
<path d="M22.502 28.0977L24.5898 22.3438" stroke="#1D4354" stroke-width="1.14111"/>
<path d="M27.2891 21.1914L31.9867 22.7848" stroke="#1D4354" stroke-width="1.14111"/>
<path d="M35.2051 21.988L38.5108 14.9062" stroke="#1D4354" stroke-width="1.14111"/>
<path d="M36.6934 15.457L38.5545 14.8049L39.239 16.6079" stroke="#1D4354" stroke-width="1.14111"/>
<path d="M14.9316 6.36719H12.3613V7.47977H14.9316V6.36719Z" stroke="#1D4354" stroke-width="1.11259"/>
</svg>
