<svg width="65" height="65" viewBox="0 0 65 65" fill="none" xmlns="http://www.w3.org/2000/svg">
<path d="M50.3466 64.1654H13.9843C6.39003 64.1654 0.234375 58.0097 0.234375 50.4155V31.2924L26.8436 0.303223H50.3449C57.9409 0.303223 64.0965 6.45883 64.0965 14.0531V50.4138C64.0965 58.0097 57.9409 64.1654 50.3466 64.1654Z" fill="url(#paint0_radial_1_4515)"/>
<path d="M26.8436 0.303223L0.234375 31.2923C7.90669 41.4943 26.5118 48.6415 38.7078 37.4444C45.8035 28.5746 41.7022 14.0495 36.3785 9.28294C33.7052 6.88811 30.505 3.44312 26.8436 0.303223Z" fill="#9A9A9A"/>
<path d="M26.8436 0.303223L0.234375 28.124V31.2923C9.24428 38.3047 23.3045 41.0668 33.1642 32.0126C40.2599 23.1428 36.1587 8.61772 30.835 3.85112C29.7049 2.83997 28.3479 1.60708 26.8436 0.303223Z" fill="#A3A3A3"/>
<path d="M0.234375 22.4368V28.124C8.54714 31.6276 18.5327 31.6117 26.0684 24.695C31.7876 17.546 30.45 6.72846 26.8436 0.303223H21.2557L0.234375 22.4368Z" fill="#BCBCBC"/>
<path d="M13.9843 0.303223C6.39003 0.303223 0.234375 6.45883 0.234375 14.0531V22.4368C6.40059 23.1144 12.7495 21.6225 17.9366 16.8595C21.6956 12.1603 22.3006 5.88228 21.2557 0.303223H13.9843Z" fill="#DBDBDB"/>
<path d="M10.8134 17.0981C10.8134 17.0981 22.9348 35.4176 33.126 41.6141C29.2695 42.854 20.8964 47.9204 6.29688 38.9673C10.0151 44.0639 16.5982 54.2854 32.7127 53.3221C38.3592 53.0471 41.8024 51.2554 44.9707 50.0172C48.139 48.779 51.1689 48.9156 53.7854 53.5988C54.3371 49.3289 54.4738 45.334 50.0673 40.7891C50.0673 40.7891 54.424 24.1797 35.8739 11.0737C39.7305 18.7869 41.9639 23.1365 40.1508 33.7642C36.0194 31.0093 20.7598 18.7212 17.3166 14.7263C19.7967 19.1346 26.9297 28.8044 29.4079 31.2843C25.0014 28.2544 10.8134 17.0981 10.8134 17.0981Z" fill="white"/>
<defs>
<radialGradient id="paint0_radial_1_4515" cx="0" cy="0" r="1" gradientUnits="userSpaceOnUse" gradientTransform="translate(32.0608 -2.51449) scale(96.4992 58.3241)">
<stop offset="0.202" stop-color="#DBDBDB"/>
<stop offset="0.29" stop-color="#DBDBDB"/>
<stop offset="0.468" stop-color="#BCBCBC"/>
<stop offset="0.717" stop-color="#A9A9A9"/>
<stop offset="0.857" stop-color="#A3A3A3"/>
<stop offset="1" stop-color="#9E9E9E"/>
</radialGradient>
</defs>
</svg>
