<svg width="67" height="67" viewBox="0 0 67 67" fill="none" xmlns="http://www.w3.org/2000/svg">
<g clip-path="url(#clip0_1559_9300)">
<path d="M41.27 4.04089C69.9082 23.5252 60.6214 44.9398 60.6214 44.9398C60.6214 44.9398 68.7557 54.1197 65.4853 62.1597C65.4853 62.1597 62.108 56.5458 56.5066 56.5458C51.093 56.5458 47.8899 62.1597 36.9549 62.1597C12.6462 62.1597 1.12109 41.8454 1.12109 41.8454C23.0315 56.2916 38.0005 46.0527 38.0005 46.0527C28.111 40.331 7.12484 12.9396 7.12484 12.9396C25.4181 28.5104 33.3099 32.5973 33.3099 32.5973C28.5664 28.7116 15.34 9.67008 15.34 9.67008C25.9265 20.3769 46.9657 35.3055 46.9657 35.3055C52.9964 18.8095 41.2709 4.04179 41.2709 4.04179L41.27 4.04089Z" fill="white"/>
</g>
<defs>
<clipPath id="clip0_1559_9300">
<rect width="66.4688" height="66.4688" fill="white" transform="translate(0.455078 0.0958252)"/>
</clipPath>
</defs>
</svg>
