<svg width="80" height="80" viewBox="0 0 80 80" fill="none" xmlns="http://www.w3.org/2000/svg">
<path d="M29.9974 6.6665C21.2641 6.6665 14.1641 13.7665 14.1641 22.4998C14.1641 31.0665 20.8641 37.9998 29.5974 38.2998C29.8641 38.2665 30.1307 38.2665 30.3307 38.2998C30.3974 38.2998 30.4307 38.2998 30.4974 38.2998C30.5307 38.2998 30.5307 38.2998 30.5641 38.2998C39.0974 37.9998 45.7974 31.0665 45.8307 22.4998C45.8307 13.7665 38.7307 6.6665 29.9974 6.6665Z" fill="#6BB64A"/>
<path d="M46.9312 47.1666C37.6312 40.9666 22.4646 40.9666 13.0979 47.1666C8.86458 49.9999 6.53125 53.8333 6.53125 57.9333C6.53125 62.0333 8.86458 65.8333 13.0646 68.6333C17.7312 71.7666 23.8646 73.3333 29.9979 73.3333C36.1312 73.3333 42.2646 71.7666 46.9312 68.6333C51.1312 65.7999 53.4646 61.9999 53.4646 57.8666C53.4313 53.7666 51.1312 49.9666 46.9312 47.1666Z" fill="#6BB64A"/>
<path d="M66.6313 24.4668C67.1646 30.9335 62.5646 36.6002 56.1979 37.3668C56.1646 37.3668 56.1646 37.3668 56.1313 37.3668H56.0312C55.8312 37.3668 55.6312 37.3668 55.4646 37.4335C52.2312 37.6002 49.2646 36.5668 47.0312 34.6668C50.4646 31.6002 52.4313 27.0002 52.0312 22.0002C51.7979 19.3002 50.8646 16.8335 49.4646 14.7335C50.7313 14.1002 52.1979 13.7002 53.6979 13.5668C60.2313 13.0002 66.0646 17.8668 66.6313 24.4668Z" fill="#6BB64A"/>
<path d="M73.2995 55.3002C73.0328 58.5335 70.9661 61.3335 67.4995 63.2335C64.1661 65.0668 59.9661 65.9335 55.7995 65.8335C58.1995 63.6668 59.5995 60.9668 59.8661 58.1002C60.1995 53.9668 58.2328 50.0002 54.2995 46.8335C52.0661 45.0668 49.4661 43.6668 46.6328 42.6335C53.9995 40.5002 63.2661 41.9335 68.9661 46.5335C72.0328 49.0002 73.5995 52.1002 73.2995 55.3002Z" fill="#6BB64A"/>
</svg>
