<svg width="80" height="80" viewBox="0 0 80 80" fill="none" xmlns="http://www.w3.org/2000/svg">
<path d="M49.7677 8.33317V27.9998C49.7677 29.4665 48.0344 30.1998 46.9677 29.2332L41.1344 23.8665C40.501 23.2665 39.501 23.2665 38.8677 23.8665L33.0344 29.1998C31.9677 30.1998 30.2344 29.4332 30.2344 27.9998V8.33317C30.2344 7.39984 30.9677 6.6665 31.901 6.6665H48.101C49.0344 6.6665 49.7677 7.39984 49.7677 8.33317Z" fill="#6BB64A"/>
<path d="M56.6 6.86662C55.6333 6.73329 54.7667 7.56662 54.7667 8.53329V28.6C54.7667 31.1333 53.2667 33.4333 50.9333 34.4666C48.6 35.4666 45.9 35.0333 44.0333 33.3L41.1333 30.6333C40.5 30.0333 39.5333 30.0333 38.8667 30.6333L35.9667 33.3C34.7667 34.4333 33.2 35 31.6333 35C30.7667 35 29.9 34.8333 29.0667 34.4666C26.7333 33.4333 25.2333 31.1333 25.2333 28.6V8.53329C25.2333 7.56662 24.3667 6.73329 23.4 6.86662C14.0667 8.03329 10 14.3333 10 23.3333V56.6666C10 66.6666 15 73.3333 26.6667 73.3333H53.3333C65 73.3333 70 66.6666 70 56.6666V23.3333C70 14.3333 65.9333 8.03329 56.6 6.86662ZM58.3333 62.5H30C28.6333 62.5 27.5 61.3666 27.5 60C27.5 58.6333 28.6333 57.5 30 57.5H58.3333C59.7 57.5 60.8333 58.6333 60.8333 60C60.8333 61.3666 59.7 62.5 58.3333 62.5ZM58.3333 49.1666H44.1667C42.8 49.1666 41.6667 48.0333 41.6667 46.6666C41.6667 45.3 42.8 44.1666 44.1667 44.1666H58.3333C59.7 44.1666 60.8333 45.3 60.8333 46.6666C60.8333 48.0333 59.7 49.1666 58.3333 49.1666Z" fill="#6BB64A"/>
</svg>
