<svg width="80" height="80" viewBox="0 0 80 80" fill="none" xmlns="http://www.w3.org/2000/svg">
<path d="M33.3359 12.5H37.5026V28.3333C37.5026 29.7 38.6359 30.8333 40.0026 30.8333C41.3693 30.8333 42.5026 29.7 42.5026 28.3333V12.5H46.6693C48.0359 12.5 49.1693 11.3667 49.1693 10C49.1693 8.63333 48.0359 7.5 46.6693 7.5H33.3359C31.9693 7.5 30.8359 8.63333 30.8359 10C30.8359 11.3667 31.9693 12.5 33.3359 12.5Z" fill="#6BB64A"/>
<path d="M46.6693 67.4998H42.5026V51.6665C42.5026 50.2998 41.3693 49.1665 40.0026 49.1665C38.6359 49.1665 37.5026 50.2998 37.5026 51.6665V67.4998H33.3359C31.9693 67.4998 30.8359 68.6332 30.8359 69.9998C30.8359 71.3665 31.9693 72.4998 33.3359 72.4998H46.6693C48.0359 72.4998 49.1693 71.3665 49.1693 69.9998C49.1693 68.6332 48.0359 67.4998 46.6693 67.4998Z" fill="#6BB64A"/>
<path d="M9.43194 32.9333C9.83194 33.1666 10.2653 33.2666 10.6653 33.2666C11.5319 33.2666 12.3653 32.8333 12.8319 31.9999L14.9319 28.3999L28.6653 36.3333C29.0319 36.5666 29.4653 36.6666 29.8986 36.6666C30.7653 36.6666 31.5986 36.2333 32.0653 35.3999C32.7653 34.2333 32.3319 32.6999 31.1653 31.9999L17.4319 24.0666L19.4986 20.4666C20.1986 19.2666 19.7653 17.7333 18.5986 17.0666C17.3986 16.3666 15.8653 16.7666 15.1986 17.9666L8.53194 29.4999C7.83194 30.7333 8.23194 32.2333 9.43194 32.9333Z" fill="#6BB64A"/>
<path d="M70.5642 47.0667C69.3642 46.3667 67.8309 46.7667 67.1642 47.9667L65.0642 51.5667L51.3309 43.6667C50.1309 42.9667 48.5975 43.4001 47.9309 44.5667C47.2309 45.7667 47.6642 47.3001 48.8309 47.9667L62.5309 55.9001L60.4642 59.5001C59.7642 60.7001 60.1975 62.2334 61.3642 62.9001C61.7642 63.1334 62.1975 63.2334 62.5975 63.2334C63.4642 63.2334 64.2975 62.8001 64.7642 61.9667L71.4309 50.4334C72.1642 49.2667 71.7642 47.7667 70.5642 47.0667Z" fill="#6BB64A"/>
<path d="M62.5637 24.0665L48.8304 31.9998C47.6304 32.6998 47.2304 34.2331 47.9304 35.3998C48.397 36.1998 49.2304 36.6665 50.097 36.6665C50.5304 36.6665 50.9637 36.5665 51.3304 36.3331L65.0304 28.3998L67.1304 31.9998C67.597 32.7998 68.4304 33.2665 69.2971 33.2665C69.7304 33.2665 70.1637 33.1665 70.5304 32.9331C71.7304 32.2332 72.1304 30.6998 71.4304 29.5331L64.7637 17.9998C64.0637 16.7998 62.5304 16.3998 61.3637 17.0998C60.1637 17.7998 59.7637 19.3331 60.4637 20.4998L62.5637 24.0665Z" fill="#6BB64A"/>
<path d="M17.4319 55.9332L31.1319 47.9999C32.3319 47.2999 32.7319 45.7666 32.0319 44.5999C31.3319 43.3999 29.7986 42.9999 28.6319 43.6999L14.9319 51.6332L12.8319 48.0332C12.1319 46.8332 10.5986 46.4332 9.43194 47.1332C8.23194 47.8332 7.83194 49.3666 8.53194 50.5332L15.1986 62.0666C15.6653 62.8666 16.4986 63.3332 17.3653 63.3332C17.7986 63.3332 18.2319 63.2332 18.5986 62.9999C19.7986 62.2999 20.1986 60.7666 19.4986 59.5999L17.4319 55.9332Z" fill="#6BB64A"/>
<path d="M51.6693 40.0002C51.6693 42.1335 51.1026 44.1002 50.1026 45.8335C48.0693 49.3335 44.3026 51.6668 40.0026 51.6668C35.7026 51.6668 31.9359 49.3335 29.9026 45.8335C28.9026 44.1002 28.3359 42.1335 28.3359 40.0002C28.3359 37.8668 28.9026 35.9002 29.9026 34.1668C31.9359 30.6668 35.7026 28.3335 40.0026 28.3335C44.3026 28.3335 48.0693 30.6668 50.1026 34.1668C51.1026 35.9002 51.6693 37.8668 51.6693 40.0002Z" fill="#6BB64A"/>
</svg>
