<svg width="385" height="14" viewBox="0 0 385 14" fill="none" xmlns="http://www.w3.org/2000/svg">
<path d="M8.34628 6.49703C11.3606 6.50581 14.519 6.44247 17.5337 6.37872C18.8255 6.38248 19.9744 6.31328 21.2663 6.31705C26.7217 6.18786 32.1771 6.05867 37.6325 5.92948C44.2363 5.80363 50.697 5.60483 57.3007 5.47899C66.6327 5.21601 75.9641 5.02558 85.2962 4.76259C87.4497 4.69632 89.6027 4.7026 91.7562 4.63633C97.2118 4.50715 102.667 4.37795 108.122 4.32131C113.578 4.19212 119.033 4.06292 124.488 4.00628C126.642 3.94001 128.795 3.87374 130.948 3.88002C139.561 3.76003 148.319 3.64046 156.932 3.52047C162.243 3.46341 167.554 3.40634 173.009 3.27716C175.163 3.28343 177.173 3.21674 179.326 3.22302C187.652 3.17474 196.121 3.12688 204.446 3.07859C212.772 3.03031 220.955 2.98161 229.281 2.93333C231.433 2.9396 233.586 2.94588 235.884 2.95256C241.337 2.96846 246.649 2.98394 252.104 2.99983C260.571 3.02451 268.897 3.04878 277.366 3.00091C280.094 3.00885 282.821 3.0168 285.548 3.02475C291.29 3.04149 297.031 3.05822 302.772 3.07495C303.203 3.0762 303.778 3.07788 304.209 3.07913C291.289 3.11403 278.227 3.14851 265.307 3.25594C259.852 3.31259 254.542 3.29711 249.087 3.35376C246.79 3.34707 244.35 3.33996 242.053 3.40581C234.157 3.45534 226.405 3.57784 218.51 3.62738C209.466 3.74611 200.423 3.7923 191.379 3.91103C189.8 3.90643 188.365 3.97479 186.786 3.97019C181.904 4.10105 177.166 4.15979 172.286 4.29066C162.524 4.47984 152.762 4.66902 142.999 4.8582C141.564 4.85402 140.128 4.92237 138.692 4.99074C133.954 5.12202 129.072 5.32542 124.335 5.4567C115.721 5.72178 107.25 5.98727 98.6355 6.25234C96.3384 6.31818 93.8973 6.45616 91.6002 6.52201C86.1443 6.72374 80.6883 6.92547 75.232 7.19975C68.3401 7.46983 61.3049 7.73951 54.413 8.0096C44.793 8.41686 35.0296 8.82364 25.4095 9.23087C23.1125 9.29676 20.8149 9.43511 18.3741 9.50055C14.2101 9.70603 10.046 9.91151 5.88197 10.117C5.45135 10.1157 5.01977 10.2596 5.01783 10.5498C5.01638 10.7674 5.44556 10.9863 5.87617 10.9876C7.45509 10.9921 8.89 11.0688 10.4689 11.0734C10.1794 11.4354 10.0344 11.6526 10.033 11.8701C10.0277 12.6682 11.3147 13.3973 13.0372 13.4023C24.9533 13.0743 36.7263 12.6734 48.642 12.4179C58.9783 12.2305 69.315 11.9704 79.6512 11.7828C90.9927 11.5258 102.478 11.2691 113.819 11.0844C117.408 11.0224 120.997 10.9603 124.586 10.8257C125.591 10.8286 126.596 10.759 127.744 10.7623C146.118 10.5983 164.493 10.3616 182.868 10.1975C192.63 10.0808 202.535 9.9647 212.295 9.92057C215.885 9.8585 219.329 9.86853 222.919 9.80646C241.724 9.71615 260.528 9.62585 279.333 9.53554C287.371 9.48643 295.409 9.43733 303.449 9.38822C310.339 9.33574 317.228 9.35581 324.12 9.23078C329.862 9.17502 335.461 9.04626 341.203 8.99041C344.073 8.9262 346.944 8.93464 349.672 8.87C356.133 8.67118 362.593 8.47245 369.054 8.2736C368.622 8.56249 368.619 8.99778 368.76 9.28832C368.902 9.65151 369.33 9.94294 370.047 10.0901C370.621 10.2369 371.48 10.3844 372.056 10.241C373.493 9.95502 374.93 9.66909 376.223 9.38263C376.223 9.38263 376.223 9.38263 376.081 9.38227C376.223 9.38263 376.225 9.31008 376.368 9.31052C376.512 9.31097 376.656 9.23886 376.656 9.23886L376.512 9.23842C377.23 9.09545 377.95 8.9524 378.812 8.73733C379.53 8.59428 380.393 8.37919 381.112 8.2362C381.975 8.02109 382.693 7.80555 383.557 7.59043C384.419 7.37531 384.997 6.79665 385 6.28885C385.003 5.99869 384.86 5.78064 384.576 5.48963C384.29 5.19863 383.575 4.83383 382.857 4.75919C382.14 4.68456 381.423 4.60993 380.705 4.60783C380.563 4.60742 380.419 4.607 380.275 4.60658C379.844 4.60533 379.27 4.60365 378.839 4.67494C377.691 4.74414 376.685 4.81375 375.537 4.8104C374.675 4.8079 373.813 4.87792 372.809 4.875C370.368 4.94043 368.071 5.00628 365.63 5.14425C365.056 5.14258 364.337 5.21303 363.764 5.21136C364.051 5.06711 364.196 4.92245 364.198 4.77736C364.341 4.63269 364.343 4.48761 364.344 4.34252C364.344 4.26998 364.345 4.1249 364.489 4.05277C364.49 3.90769 364.49 3.76261 364.348 3.68964C364.348 3.68964 364.492 3.69006 364.492 3.61752C364.924 3.47369 365.355 3.32986 365.644 3.04053C365.932 2.82374 366.079 2.53399 366.08 2.24382C366.083 1.95366 365.94 1.7356 365.654 1.4446C365.512 1.37164 365.37 1.22614 365.226 1.15318C364.796 0.934297 364.367 0.860497 363.937 0.786706C363.077 0.639105 362.072 0.563636 361.067 0.560714C360.206 0.558201 359.488 0.556106 358.627 0.553602C357.479 0.550254 356.33 0.546906 355.182 0.543558C353.603 0.538959 351.881 0.533942 350.302 0.529342C345.996 0.516795 341.69 0.504239 337.383 0.491691C333.365 0.479979 329.201 0.467849 325.183 0.456137C321.45 0.445268 317.862 0.434807 314.131 0.423929C299.346 0.380847 284.705 0.410725 269.92 0.44018C258.866 0.480521 247.814 0.520853 236.76 0.488646C231.88 0.47442 226.856 0.532326 221.976 0.590648C210.922 0.70352 199.869 0.743852 188.816 0.856732C185.658 0.847532 182.499 0.910872 179.341 0.901664C177.475 0.896229 175.752 0.963751 173.886 0.958317C162.976 1.14415 152.066 1.32999 141.155 1.51583C137.853 1.57875 134.552 1.64166 131.106 1.70417C129.24 1.69873 127.374 1.76584 125.507 1.83294C114.596 2.09132 103.829 2.35012 92.9181 2.6085C87.3192 2.73726 81.7201 2.86604 76.1208 3.06735C66.5017 3.32949 56.8826 3.59164 47.4066 3.92674C39.0795 4.19265 30.7528 4.38602 22.4261 4.57938C21.1337 4.64817 19.842 4.6444 18.4061 4.71276C16.2526 4.77903 14.0994 4.77275 11.9459 4.83902C10.0779 5.12375 8.06839 5.11789 6.20239 5.11246C6.06078 4.82186 5.48808 4.60257 5.05698 4.67385C3.76513 4.67009 2.61634 4.73929 1.324 4.80806C0.749371 4.87893 0.174248 5.02234 0.0287768 5.31209C-0.117178 5.67439 0.311022 6.03835 0.884693 6.11257C1.45836 6.18678 2.03204 6.261 2.60571 6.33522C3.17938 6.40943 3.60999 6.41069 4.18416 6.41235C5.61905 6.48909 6.91091 6.49285 8.34628 6.49703ZM344.243 5.15447C345.965 5.15949 347.831 5.16493 349.554 5.16994C349.695 5.38799 349.982 5.53391 350.268 5.67983C349.55 5.67774 348.832 5.74819 348.258 5.74652C346.965 5.74275 345.674 5.81153 344.382 5.80776C338.64 5.86358 333.041 5.99235 327.299 6.04816C324.714 6.11318 322.13 6.17818 319.547 6.17065C315.527 6.15894 311.365 6.21936 307.345 6.20765C298.015 6.253 288.828 6.29877 279.497 6.34412C261.41 6.43651 243.467 6.5293 225.38 6.62169C212.462 6.65658 199.542 6.83656 186.622 7.01654C167.242 7.25025 147.719 7.41098 128.339 7.64468C124.463 7.70593 120.587 7.76718 116.711 7.90097C105.656 8.15893 94.6024 8.34435 83.548 8.60227C72.7807 8.86112 61.8703 9.04697 51.103 9.30573C50.0982 9.3028 49.0929 9.37242 48.0881 9.36949C50.9598 9.23274 53.9747 9.16898 56.8465 9.03232C67.0401 8.69933 77.2342 8.29374 87.428 7.96072C91.0174 7.82609 94.6067 7.69147 98.0527 7.55642C99.9191 7.48932 101.786 7.42221 103.508 7.42724C114.275 7.16844 124.9 6.83668 135.524 6.57747C137.534 6.51078 139.687 6.44451 141.697 6.37782C144.711 6.31406 147.727 6.25031 150.597 6.25867C161.507 6.07283 172.419 5.887 183.329 5.70116C185.769 5.63573 188.209 5.64284 190.506 5.57699C191.081 5.57866 191.798 5.58076 192.372 5.58243C194.095 5.58745 195.818 5.59247 197.396 5.52452C208.306 5.41123 219.36 5.37089 230.27 5.25761C235.294 5.1997 240.318 5.1418 245.342 5.15644C261.562 5.13117 277.926 5.1063 294.147 5.08103C311.084 5.13038 327.735 5.10636 344.243 5.15447Z" fill="white"/>
</svg>
