<svg width="47" height="47" viewBox="0 0 47 47" fill="none" xmlns="http://www.w3.org/2000/svg">
<mask id="mask0_2165_2517" style="mask-type:luminance" maskUnits="userSpaceOnUse" x="0" y="0" width="47" height="47">
<path d="M0.809204 0.00195312H46.8771V46.0699H0.809204V0.00195312Z" fill="white"/>
</mask>
<g mask="url(#mask0_2165_2517)">
<path d="M23.8431 44.3298C35.6039 44.3298 45.1388 34.7948 45.1388 23.034C45.1388 11.2732 35.6039 1.73828 23.8431 1.73828C12.0823 1.73828 2.54736 11.2732 2.54736 23.034C2.54736 34.7948 12.0812 44.3298 23.8431 44.3298Z" stroke="#222326" stroke-width="2.80902"/>
<path d="M27.9004 30.7119C27.7555 30.5669 27.7555 30.277 27.6105 29.9872C27.6105 29.6973 27.4656 29.4074 27.4656 29.1175C27.1757 29.4074 26.8858 29.5523 26.5959 29.8422C26.306 30.1321 25.8712 30.277 25.5824 30.422C25.1476 30.5669 24.8577 30.7119 24.279 30.8568C23.8442 31.0018 23.2655 31.0018 22.8307 31.0018C21.961 31.0018 21.2374 30.8568 20.5127 30.5669C19.788 30.277 19.2093 29.9872 18.6295 29.5534C18.0498 29.1197 17.7599 28.5399 17.4711 27.9602C17.1823 27.3804 17.0363 26.6568 17.0363 25.9321C17.0363 24.1938 17.761 22.7444 19.0644 21.8758C20.3678 20.8623 22.3959 20.4275 25.0038 20.4275H27.4667V19.414C27.4667 18.5443 27.1768 17.9657 26.742 17.5308C26.1622 17.096 25.4386 16.8061 24.424 16.8061C23.5543 16.8061 22.9756 16.9511 22.5408 17.3859C22.106 17.8207 21.961 18.2556 21.961 18.8342H17.6149C17.6149 18.1095 17.7599 17.3859 18.0497 16.8061C18.3396 16.2263 18.7745 15.6477 19.4981 15.0679C20.0779 14.633 20.8015 14.1993 21.6711 13.9094C22.5408 13.6196 23.5543 13.4746 24.7127 13.4746C25.7274 13.4746 26.5959 13.6196 27.4656 13.9094C28.3353 14.1993 29.0589 14.4892 29.7836 15.0679C30.4194 15.5615 30.9181 16.2098 31.2319 16.9511C31.5218 17.6758 31.8117 18.5443 31.8117 19.5589V26.8028C31.8117 27.6725 31.8117 28.3961 31.9566 28.9759L32.3915 30.4242V30.7141H27.9004V30.7119ZM23.6993 27.6692C24.1341 27.6692 24.5689 27.6692 24.8588 27.5242C25.2937 27.3793 25.5835 27.2343 25.8723 27.0894C26.1611 26.9444 26.4521 26.7995 26.597 26.5096L27.1768 25.9298V23.0343H25.0038C24.279 23.0343 23.7004 23.0343 23.2655 23.1792C22.8307 23.3242 22.3959 23.4691 22.1071 23.759C21.8183 24.0489 21.5273 24.1938 21.3824 24.6287C21.2374 24.9186 21.2374 25.3534 21.2374 25.6422C21.2374 26.2219 21.3824 26.6557 21.8172 27.0905C22.252 27.5253 22.9756 27.6703 23.7004 27.6703L23.6993 27.6692Z" fill="#222326"/>
</g>
</svg>
