<svg width="83" height="83" viewBox="0 0 83 83" fill="none" xmlns="http://www.w3.org/2000/svg">
<rect opacity="0.1" width="83" height="83" rx="8" fill="#1D4354"/>
<g clip-path="url(#clip0_1_12)">
<path d="M30.7589 46.5051V31.7422H24.3905C22.5159 31.7422 21 33.2866 21 35.1853V65.7014C21 67.2367 22.8298 67.9999 23.8972 66.9188L30.9024 59.8235H50.8506C52.7253 59.8235 54.2411 58.2881 54.2411 56.3894V49.9392H34.1583C32.2837 49.9392 30.7589 48.4038 30.7589 46.5051Z" fill="#1D4354"/>
<path d="M60.6093 22H34.1581C32.2834 22 30.7676 23.5353 30.7676 25.4341V31.739H50.8504C52.725 31.739 54.2409 33.2743 54.2409 35.173V49.9268H60.6093C62.4839 49.9268 63.9997 48.3915 63.9997 46.4928V25.4341C63.9997 23.5353 62.4839 22 60.6093 22V22Z" fill="#D4D4D4"/>
<path d="M50.8515 31.7422H30.7598V46.496C30.7598 48.3947 32.2756 49.9301 34.1503 49.9301H54.2331V35.1853C54.242 33.2866 52.7262 31.7422 50.8515 31.7422Z" fill="#1D4354"/>
</g>
<defs>
<clipPath id="clip0_1_12">
<rect width="43" height="46" fill="white" transform="translate(21 22)"/>
</clipPath>
</defs>
</svg>
