<svg width="83" height="83" viewBox="0 0 83 83" fill="none" xmlns="http://www.w3.org/2000/svg">
<rect opacity="0.1" width="83" height="83" rx="8" fill="#1D4354"/>
<path d="M33.244 59.4783C33.244 59.4783 30.784 60.9743 34.954 61.4023C39.974 62.0423 42.648 61.9363 48.204 60.8683C49.3206 61.5521 50.5016 62.1248 51.73 62.5783C39.23 67.9223 23.41 62.2583 33.242 59.4783H33.244ZM31.644 52.5323C31.644 52.5323 28.972 54.5623 33.14 54.9923C38.59 55.5263 42.864 55.6323 50.24 54.1383C50.9573 54.8658 51.8356 55.4145 52.804 55.7403C37.736 60.2283 20.852 56.1683 31.644 52.5343V52.5323ZM61.138 64.7123C61.138 64.7123 62.954 66.2083 59.108 67.3843C51.948 69.5243 29.08 70.1643 22.668 67.3843C20.424 66.4243 24.698 65.0343 26.068 64.8203C27.458 64.5003 28.208 64.5003 28.208 64.5003C25.748 62.7903 11.858 68.0263 21.156 69.5203C46.696 73.6883 67.748 67.7043 61.122 64.7123H61.138ZM34.4 45.2643C34.4 45.2643 22.752 48.0443 30.232 49.0043C33.438 49.4323 39.742 49.3243 45.62 48.8983C50.428 48.4703 55.24 47.6183 55.24 47.6183C55.24 47.6183 53.53 48.3663 52.354 49.1143C40.494 52.2143 17.73 50.8243 24.25 47.6183C29.806 44.9463 34.402 45.2683 34.402 45.2683L34.4 45.2643ZM55.24 56.9123C67.208 50.7123 61.652 44.7323 57.804 45.4783C56.844 45.6923 56.414 45.9063 56.414 45.9063C56.414 45.9063 56.734 45.2663 57.482 45.0523C65.07 42.3803 71.054 53.0663 55.022 57.2323C55.022 57.2323 55.128 57.1263 55.236 56.9123H55.24ZM35.58 73.7963C47.12 74.5443 64.754 73.3683 65.18 67.9163C65.18 67.9163 64.326 70.0563 55.67 71.6563C45.838 73.4723 33.656 73.2563 26.496 72.0843C26.496 72.0843 27.992 73.3643 35.58 73.7943V73.7963Z" fill="#1D4354"/>
<path d="M47.9928 10C47.9928 10 54.6188 16.732 41.6888 26.884C31.3228 35.112 39.3388 39.814 41.6888 45.158C35.5968 39.708 31.2168 34.898 34.2088 30.412C38.5888 23.784 50.6648 20.598 47.9928 10ZM44.5928 40.67C47.6928 44.196 43.7388 47.402 43.7388 47.402C43.7388 47.402 51.6468 43.342 48.0128 38.318C44.7008 33.51 42.1328 31.158 56.0268 23.144C56.0268 23.144 34.1208 28.594 44.5928 40.67Z" fill="#1D4354"/>
</svg>
