<svg width="83" height="83" viewBox="0 0 83 83" fill="none" xmlns="http://www.w3.org/2000/svg">
<rect opacity="0.1" width="83" height="83" rx="8" fill="#E8ECED"/>
<g clip-path="url(#clip0_1_209)">
<path d="M48.335 34.2264L42.7297 39.4414L37.5287 28.9502L40.2202 22.9162C40.9202 21.6912 42.0122 21.7052 42.6947 22.9162L48.335 34.2264Z" fill="#507584"/>
<path d="M37.5287 28.9502L42.7297 39.4414L21.7822 58.9277L37.5287 28.9502Z" fill="#405C67"/>
<path d="M54.4652 26.2552C55.4662 25.2927 56.5022 25.6217 56.7665 26.985L62.2195 58.6687L44.1455 69.5187C43.5155 69.8687 41.8355 70.0192 41.8355 70.0192C41.8355 70.0192 40.306 69.8372 39.7233 69.4942L21.7822 58.9277L54.4652 26.2552Z" fill="#568092"/>
<path d="M37.5287 28.9503L21.784 58.9278L28.7963 15.1165C29.0553 13.7515 29.8323 13.6203 30.5253 14.8243L37.5287 28.9503Z" fill="#507584"/>
</g>
<defs>
<clipPath id="clip0_1_209">
<rect width="56" height="56" fill="white" transform="translate(14 14)"/>
</clipPath>
</defs>
</svg>
