<svg width="83" height="83" viewBox="0 0 83 83" fill="none" xmlns="http://www.w3.org/2000/svg">
<rect opacity="0.1" width="83" height="83" rx="8" fill="#1D4354"/>
<path d="M26.6113 59.2124L23.1598 20.5H60.8637L57.4085 59.2061L41.9881 63.4811L26.6113 59.2124Z" stroke="#1D4354"/>
<path d="M42.0113 37.9258H30.707L31.1423 42.7827H42.0113V37.9258Z" fill="#EBEBEB"/>
<path d="M42.011 28.0938H41.9942H29.832L30.2735 32.9508H42.011V28.0938Z" fill="#EBEBEB"/>
<path d="M31.3594 45.2109L32.0398 52.8371L41.989 55.599L42.0113 55.5928V50.5395L41.9901 50.5452L36.5808 49.0846L36.235 45.2109H33.6065H31.3594Z" fill="#EBEBEB"/>
<path d="M47.975 42.7813L47.4112 49.0804L41.9941 50.5425V55.5956L51.9512 52.836L52.0243 52.0154L53.1656 39.2286L53.2841 37.9244L54.1609 28.0938H41.9941V32.9508H48.8381L48.3962 37.9244H41.9941V42.7813H47.975Z" fill="#1D4354"/>
</svg>
