<svg width="83" height="83" viewBox="0 0 83 83" fill="none" xmlns="http://www.w3.org/2000/svg">
<rect opacity="0.1" width="83" height="83" rx="8" fill="#E8ECED"/>
<path d="M39.9 17.6673C41.15 16.9595 42.7437 16.9563 43.9625 17.6673L62.625 28.1876C63.7922 28.8438 64.5734 30.1454 64.5625 31.4907V52.5845C64.5703 53.986 63.7125 55.3157 62.4812 55.9595L43.9187 66.4313C43.2838 66.7822 42.5666 66.9567 41.8415 66.9366C41.1163 66.9165 40.4098 66.7027 39.7953 66.3173L34.225 63.0985C33.8453 62.872 33.4187 62.6923 33.15 62.3251C33.3875 62.0063 33.8094 61.9657 34.1531 61.8251C34.9281 61.5782 35.6375 61.2001 36.35 60.8001C36.5297 60.6751 36.75 60.722 36.9219 60.8345L41.6719 63.5813C42.0109 63.7767 42.3547 63.5188 42.6453 63.3548L60.8719 53.0688C61.0969 52.9595 61.2219 52.722 61.2031 52.4751V31.5845C61.2281 31.3032 61.0672 31.047 60.8125 30.9329L42.2969 20.5063C42.1902 20.4325 42.0636 20.3929 41.9338 20.3926C41.8041 20.3923 41.6773 20.4314 41.5703 20.5048L23.0812 30.9532C22.8312 31.0673 22.6594 31.3204 22.6906 31.6017V52.4923C22.6687 52.7392 22.8 52.972 23.0265 53.0782L27.9672 55.8673C28.8953 56.3673 30.0344 56.6485 31.0562 56.2813C31.5034 56.1128 31.8884 55.8116 32.1596 55.4181C32.4307 55.0246 32.5751 54.5577 32.5734 54.0798L32.5781 33.3142C32.5562 33.0063 32.8469 32.7517 33.1453 32.7829H35.5203C35.8328 32.7751 36.0781 33.1063 36.0359 33.4157L36.0312 54.3126C36.0328 56.1688 35.2703 58.1876 33.5531 59.0985C31.4375 60.1923 28.8219 59.9626 26.7312 58.911L21.4187 55.9735C20.1687 55.3485 19.3297 53.9985 19.3375 52.5985V31.5048C19.3427 30.8192 19.5312 30.1475 19.8834 29.5593C20.2356 28.9711 20.7387 28.4878 21.3406 28.1595L39.9 17.6673ZM45.2812 32.2892C47.9797 32.1329 50.8687 32.186 53.2969 33.5157C55.1765 34.5345 56.2187 36.672 56.2531 38.7626C56.2 39.0438 55.9062 39.2001 55.6375 39.1798C54.8562 39.1782 54.0719 39.1907 53.2875 39.1751C52.9547 39.1876 52.7625 38.8813 52.7203 38.5876C52.4953 37.5876 51.95 36.5985 51.0094 36.1157C49.5656 35.3923 47.8906 35.4282 46.3156 35.4438C45.1656 35.5063 43.9297 35.6048 42.9562 36.2798C42.2062 36.7923 41.9812 37.8423 42.2484 38.6579C42.4984 39.2563 43.1906 39.4485 43.7547 39.6267C47.0078 40.4767 50.4531 40.4079 53.6453 41.5126C54.9656 41.9688 56.2578 42.8563 56.7109 44.2392C57.3015 46.0923 57.0437 48.3079 55.7265 49.7954C54.6578 51.0204 53.1015 51.6704 51.5469 52.0485C49.4797 52.5095 47.3359 52.5204 45.2375 52.3142C43.264 52.0892 41.2109 51.5704 39.6875 50.2267C38.3844 49.0954 37.75 47.3329 37.8125 45.6329C37.8281 45.3454 38.114 45.1454 38.3906 45.1688H40.7344C41.05 45.147 41.2812 45.4188 41.2969 45.7157C41.4422 46.6532 41.8 47.6688 42.6312 48.2157C44.2344 49.2501 46.2453 49.1782 48.0797 49.2079C49.6 49.1407 51.3062 49.1204 52.5484 48.1142C53.2047 47.5407 53.3969 46.5829 53.2203 45.7579C53.0281 45.061 52.2828 44.7376 51.6578 44.5079C48.4469 43.4923 44.9625 43.861 41.7828 42.711C40.4922 42.2548 39.2437 41.3923 38.7484 40.0657C38.0562 38.1907 38.3734 35.8673 39.8312 34.4298C41.2375 33.0001 43.3 32.4485 45.2531 32.2517L45.2812 32.2892Z" fill="#1E4758"/>
</svg>
