<svg width="83" height="83" viewBox="0 0 83 83" fill="none" xmlns="http://www.w3.org/2000/svg">
<rect opacity="0.1" width="83" height="83" rx="8" fill="#E8ECED"/>
<g clip-path="url(#clip0_1_205)">
<path d="M21.0781 16.5H62.9219C65.4503 16.5 67.5 18.5497 67.5 21.0781V62.9219C67.5 65.4503 65.4503 67.5 62.9219 67.5H21.0781C18.5497 67.5 16.5 65.4503 16.5 62.9219V21.0781C16.5 18.5497 18.5497 16.5 21.0781 16.5Z" stroke="#1E4758"/>
<path fill-rule="evenodd" clip-rule="evenodd" d="M48.1891 57.379V62.4633C49.0156 62.887 49.9932 63.2047 51.1217 63.4166C52.2503 63.6284 53.4397 63.7344 54.6901 63.7344C55.9088 63.7344 57.0664 63.6179 58.1632 63.3848C59.2599 63.1518 60.2216 62.7678 61.0481 62.2329C61.8747 61.698 62.529 60.9989 63.0111 60.1356C63.4933 59.2723 63.7344 58.2052 63.7344 56.9342C63.7344 56.0126 63.5967 55.205 63.3211 54.5112C63.0456 53.8174 62.6483 53.2004 62.129 52.6602C61.6098 52.12 60.9872 51.6353 60.2613 51.2063C59.5355 50.7773 58.7169 50.3722 57.8056 49.9909C57.138 49.7155 56.5393 49.4481 56.0094 49.1886C55.4796 48.929 55.0292 48.6642 54.6583 48.3942C54.2874 48.124 54.0013 47.838 53.8 47.5362C53.5987 47.2342 53.498 46.8927 53.498 46.5113C53.498 46.1618 53.5881 45.8467 53.7683 45.566C53.9484 45.2852 54.2027 45.0443 54.5312 44.843C54.8597 44.6418 55.2623 44.4855 55.7392 44.3743C56.2161 44.2631 56.7459 44.2076 57.3287 44.2076C57.7525 44.2076 58.2002 44.2394 58.6718 44.3028C59.1433 44.3664 59.6175 44.4644 60.0945 44.5967C60.5713 44.7292 61.0348 44.8961 61.4853 45.0973C61.9356 45.2985 62.3515 45.5315 62.733 45.7964V41.0457C61.9595 40.7492 61.1144 40.5294 60.1978 40.3864C59.2812 40.2434 58.2294 40.1719 57.0426 40.1719C55.8345 40.1719 54.6901 40.3017 53.6093 40.5612C52.5285 40.8207 51.5774 41.2258 50.7561 41.7766C49.9349 42.3274 49.2859 43.0291 48.8091 43.8819C48.3322 44.7345 48.0938 45.754 48.0938 46.9403C48.0938 48.455 48.5309 49.7473 49.4051 50.8171C50.2793 51.8869 51.6065 52.7925 53.3868 53.534C54.0861 53.82 54.7379 54.1007 55.3419 54.3761C55.9459 54.6515 56.4678 54.9375 56.9074 55.2341C57.3472 55.5307 57.6942 55.8537 57.9487 56.2033C58.203 56.5528 58.3301 56.95 58.3301 57.3949C58.3301 57.7233 58.2506 58.0278 58.0917 58.3085C57.9327 58.5892 57.6916 58.8328 57.3684 59.0393C57.0453 59.2459 56.6426 59.4074 56.1605 59.5239C55.6782 59.6405 55.1141 59.6987 54.4676 59.6987C53.3656 59.6987 52.2742 59.5054 51.1932 59.1188C50.1124 58.7322 49.111 58.1523 48.1891 57.379V57.379ZM39.6417 44.8521H46.1641V40.6797H27.9844V44.8521H34.4748V63.4297H39.6417V44.8521Z" fill="#1E4758"/>
</g>
<defs>
<clipPath id="clip0_1_205">
<rect width="52" height="52" fill="white" transform="translate(16 16)"/>
</clipPath>
</defs>
</svg>
