<svg width="40" height="48" viewBox="0 0 40 48" fill="none" xmlns="http://www.w3.org/2000/svg">
<path d="M24.7728 39.2505V44.4168L20.2683 47.064L15.8918 44.4168V39.2505L20.2683 41.8977L24.7728 39.2505ZM0.671411 21.3828L5.04787 24.0301V32.8897L12.5839 37.3943V42.5606L0.671411 35.5369V21.3828ZM39.8438 21.3828V35.5583L27.8032 42.5808V37.4145L35.3392 32.9099V24.0503L39.8438 21.3817V21.3828ZM27.8043 14.3592L32.3088 17.0064V22.1727L24.7728 26.6773V35.6864L20.3964 38.3325L16.0199 35.6852V26.6762L8.20633 22.1716V17.0053L12.7109 14.358L20.2469 18.8626L27.8043 14.3592ZM8.20745 25.8874L12.5839 28.5346V33.701L8.20745 31.0537V25.8874ZM32.3088 25.8874V31.0537L27.9324 33.701V28.5346L32.3088 25.8874ZM5.04674 9.85574L9.55129 12.503L5.04674 15.1715V20.3379L0.670288 17.6693V12.503L5.04674 9.85574ZM35.4887 9.85574L39.9932 12.503V17.6693L35.4887 20.3165V15.1715L31.1122 12.5243L35.4887 9.85574ZM20.2683 9.85574L24.7728 12.503L20.2683 15.1715L15.8918 12.503L20.2683 9.85574ZM20.2683 0.996094L32.3077 8.01977L27.9313 10.667L20.3964 6.16244L12.7109 10.667L8.35577 8.01977L20.2683 0.996094Z" fill="#F3BA2F"/>
</svg>
