<svg width="83" height="83" viewBox="0 0 83 83" fill="none" xmlns="http://www.w3.org/2000/svg">
<rect opacity="0.1" width="83" height="83" rx="8" fill="#1D4354"/>
<path d="M16 42.0053C16 38.7496 20.148 35.6643 26.5075 33.7509C25.04 27.3798 25.6922 22.311 28.5662 20.6882C29.2287 20.3075 30.0033 20.1272 30.8492 20.1272V22.3611C30.3804 22.3611 30.0033 22.4513 29.6873 22.6215C28.3013 23.4029 27.7 26.3781 28.1688 30.2048C28.2809 31.1464 28.4643 32.1381 28.6885 33.1499C30.6861 32.6691 32.8671 32.2984 35.1602 32.058C36.5361 30.2048 37.9629 28.5218 39.3999 27.0493C36.0775 24.014 32.9588 22.3511 30.839 22.3511V20.1172C33.6417 20.1172 37.3106 22.0806 41.0204 25.4865C44.7301 22.1006 48.3991 20.1573 51.2018 20.1573V22.3911C49.0921 22.3911 45.9633 24.044 42.6408 27.0593C44.0677 28.5318 45.4945 30.2048 46.85 32.058C49.1533 32.2984 51.3343 32.669 53.3318 33.1599C53.5662 32.1582 53.7395 31.1865 53.8618 30.2548C54.3408 26.4282 53.7497 23.453 52.3738 22.6616C52.0681 22.4813 51.6706 22.4012 51.2018 22.4012V20.1673C52.0579 20.1673 52.8325 20.3476 53.5051 20.7283C56.3689 22.3511 57.011 27.4099 55.5332 33.761C61.8724 35.6843 66 38.7597 66 42.0053C66 45.261 61.852 48.3464 55.4925 50.2597C56.96 56.6308 56.3078 61.6996 53.4338 63.3224C52.7713 63.7031 51.9967 63.8834 51.1406 63.8834C48.338 63.8834 44.669 61.92 40.9592 58.5141C37.2495 61.9 33.5805 63.8433 30.7778 63.8433C29.9217 63.8433 29.1472 63.663 28.4745 63.2824C25.6107 61.6595 24.9686 56.6007 26.4464 50.2497C20.1276 48.3363 16 45.251 16 42.0053ZM29.2695 35.3237C29.6466 36.6159 30.1154 37.9482 30.6453 39.2806C31.0632 38.4792 31.5014 37.6778 31.9804 36.8764C32.4492 36.075 32.9486 35.2936 33.448 34.5323C32.0008 34.7427 30.6046 35.0031 29.2695 35.3237ZM33.9372 45.9923C34.7322 47.3446 35.5475 48.6268 36.3934 49.8189C37.9119 49.9491 39.4509 50.0193 41 50.0193C42.5389 50.0193 44.0779 49.9491 45.5862 49.8289C46.4321 48.6369 47.2576 47.3646 48.0526 46.0223C48.8272 44.71 49.5304 43.3777 50.1724 42.0354C49.5406 40.693 48.8271 39.3507 48.0628 38.0384C47.2678 36.686 46.4525 35.4038 45.6066 34.2117C44.0881 34.0815 42.5491 34.0114 41 34.0114C39.4611 34.0114 37.9221 34.0815 36.4138 34.2017C35.5679 35.3938 34.7424 36.666 33.9474 38.0084C33.1728 39.3206 32.4696 40.653 31.8276 41.9953C32.4696 43.3376 33.1729 44.68 33.9372 45.9923ZM30.6453 44.69C30.095 46.0323 29.6262 47.3747 29.2389 48.6769C30.574 48.9975 31.9804 49.268 33.4378 49.4783C32.9384 48.707 32.4391 47.9156 31.9702 47.1042C31.5014 46.3028 31.0632 45.4914 30.6453 44.69ZM40.9796 55.3786C41.9274 54.4169 42.8753 53.3451 43.8129 52.173C42.8956 52.2131 41.958 52.2431 41.0102 52.2431C40.0522 52.2431 39.1044 52.2231 38.1769 52.173C39.0942 53.3451 40.042 54.4169 40.9796 55.3786ZM48.5622 49.4783C50.0094 49.268 51.4056 49.0075 52.7407 48.687C52.3636 47.3947 51.8948 46.0624 51.3649 44.7301C50.947 45.5315 50.5088 46.3328 50.0298 47.1342C49.5508 47.9356 49.0616 48.717 48.5622 49.4783ZM41.0306 28.632C40.0828 29.5937 39.1349 30.6656 38.1973 31.8376C39.1146 31.7975 40.0522 31.7675 41 31.7675C41.958 31.7675 42.9058 31.7875 43.8333 31.8376C42.916 30.6656 41.9682 29.5937 41.0306 28.632ZM48.5724 34.5323C49.0717 35.3036 49.5711 36.095 50.04 36.9064C50.5088 37.7078 50.947 38.5092 51.3649 39.3106C51.9152 37.9683 52.384 36.6259 52.7713 35.3237C51.4362 35.0131 50.0298 34.7427 48.5724 34.5323ZM57.7958 47.0741C61.4036 45.5615 63.7375 43.5781 63.7375 42.0053C63.7375 40.4326 61.4036 38.4391 57.7958 36.9365C56.9193 36.5658 55.9613 36.2353 54.9727 35.9247C54.3918 37.8881 53.6274 39.9317 52.6796 42.0253C53.6172 44.109 54.3714 46.1425 54.9421 48.0959C55.9511 47.7854 56.9091 47.4448 57.7958 47.0741ZM52.3127 61.3891C53.6987 60.6077 54.3 57.6325 53.8312 53.8059C53.7191 52.8642 53.5357 51.8725 53.3115 50.8607C51.3139 51.3416 49.1329 51.7122 46.8398 51.9526C45.4639 53.8059 44.0371 55.4888 42.6001 56.9614C45.9225 59.9966 49.0412 61.6595 51.161 61.6595C51.6196 61.6495 52.0069 61.5594 52.3127 61.3891ZM28.1382 53.7558C27.6592 57.5824 28.2503 60.5576 29.6262 61.349C29.9319 61.5293 30.3294 61.6095 30.7982 61.6095C32.9079 61.6095 36.0367 59.9566 39.3591 56.9413C37.9323 55.4688 36.5055 53.7958 35.15 51.9426C32.8467 51.7022 30.6657 51.3316 28.6682 50.8407C28.4338 51.8525 28.2503 52.8242 28.1382 53.7558ZM24.2144 47.0741C25.0909 47.4448 26.0489 47.7754 27.0375 48.0859C27.6184 46.1225 28.3828 44.0789 29.3306 41.9853C28.393 39.9016 27.6388 37.8681 27.0681 35.9147C26.0591 36.2252 25.1011 36.5658 24.2042 36.9365C20.5964 38.4491 18.2625 40.4326 18.2625 42.0053C18.2727 43.5781 20.6066 45.5715 24.2144 47.0741Z" fill="#1D4354"/>
<path d="M41.0102 46.5817C38.4379 46.5817 36.3526 44.5321 36.3526 42.0038C36.3526 39.4754 38.4379 37.4258 41.0102 37.4258C43.5825 37.4258 45.6677 39.4754 45.6677 42.0038C45.6677 44.5321 43.5825 46.5817 41.0102 46.5817Z" fill="#1D4354"/>
</svg>
