<svg width="51" height="47" viewBox="0 0 51 47" fill="none" xmlns="http://www.w3.org/2000/svg">
<path d="M14.4793 23.7016C14.3737 25.55 15.7906 27.132 17.6311 27.2376H17.8299C19.6839 27.2376 21.1805 25.7354 21.1671 23.8735C21.1671 22.0117 19.6704 20.5094 17.8165 20.5229C16.959 20.5244 16.1347 20.8548 15.5137 21.446C14.8926 22.0372 14.5219 22.8441 14.4782 23.7005L14.4793 23.7016ZM2.00279 22.8376C1.86064 22.8294 1.71828 22.8494 1.58391 22.8965C1.44954 22.9436 1.32583 23.0169 1.21991 23.1121C1.11399 23.2072 1.02797 23.3224 0.966786 23.451C0.905606 23.5795 0.870487 23.719 0.863454 23.8612C0.836488 24.4589 1.28705 24.978 1.88369 25.005C2.4792 25.0443 2.98258 24.5792 3.02303 23.9814C3.06348 23.3836 2.59943 22.878 2.00279 22.8376ZM14.267 4.21151C14.7973 3.94522 15.0086 3.28117 14.7434 2.74857C14.6126 2.49285 14.3861 2.29911 14.1132 2.20948C13.8403 2.11984 13.543 2.14157 13.2861 2.26992C12.7568 2.53621 12.5445 3.18678 12.8097 3.71937C12.8709 3.84927 12.9577 3.96548 13.0649 4.06103C13.1722 4.15658 13.2976 4.22951 13.4336 4.27546C13.5697 4.32141 13.7136 4.33943 13.8568 4.32844C14 4.31746 14.1395 4.27768 14.267 4.21151ZM17.6558 10.1543C18.4771 9.74191 18.8086 8.73179 18.3974 7.90706C17.9861 7.08233 16.9805 6.75087 16.1591 7.16211C15.3378 7.57335 15.0074 8.5846 15.4176 9.40932C15.8277 10.2341 16.8344 10.5655 17.6558 10.1543ZM6.24217 14.2352C6.54826 14.434 6.92055 14.5036 7.27777 14.4288C7.635 14.3541 7.94817 14.1411 8.14893 13.8363C8.34731 13.5289 8.41679 13.1558 8.34237 12.7975C8.26795 12.4393 8.05559 12.1247 7.75117 11.9217C7.44508 11.723 7.07279 11.6534 6.71556 11.7281C6.35834 11.8028 6.04517 12.0158 5.84441 12.3206C5.74472 12.4724 5.67592 12.6424 5.64196 12.8208C5.60799 12.9992 5.60952 13.1825 5.64646 13.3603C5.6834 13.5382 5.75503 13.707 5.85724 13.8571C5.95946 14.0072 6.09026 14.1357 6.24217 14.2352ZM8.26691 22.2398C7.33993 22.187 6.5579 22.8915 6.50509 23.8218C6.45228 24.7522 7.15453 25.5365 8.08151 25.5904C9.00849 25.6443 9.79052 24.9387 9.84333 24.0084C9.89614 23.0904 9.19388 22.2937 8.26691 22.2398ZM6.42644 33.5006C5.75115 33.8467 5.47249 34.6703 5.81744 35.3624C6.16127 36.0411 6.98262 36.3197 7.67139 35.9737C8.34668 35.6276 8.62534 34.804 8.28039 34.1119C8.11526 33.7853 7.82734 33.5375 7.47979 33.4229C7.13224 33.3083 6.75342 33.3363 6.42644 33.5006ZM12.9164 18.769C13.1315 18.912 13.3729 19.0108 13.6265 19.0595C13.8802 19.1082 14.141 19.1058 14.3937 19.0526C14.6464 18.9993 14.886 18.8963 15.0985 18.7494C15.3109 18.6025 15.492 18.4147 15.631 18.1971C16.2265 17.2802 15.9749 16.0566 15.0614 15.4712C14.8463 15.3281 14.6049 15.2294 14.3513 15.1807C14.0976 15.132 13.8368 15.1343 13.5841 15.1876C13.3313 15.2408 13.0917 15.3439 12.8793 15.4908C12.6668 15.6377 12.4858 15.8255 12.3467 16.0431C12.2048 16.2594 12.1069 16.5015 12.0587 16.7557C12.0105 17.0099 12.013 17.271 12.0659 17.5243C12.1188 17.7775 12.2212 18.0178 12.3671 18.2314C12.5131 18.445 12.6997 18.6277 12.9164 18.769ZM33.5133 10.0206C34.2818 10.5262 35.3279 10.3127 35.8313 9.54191C36.3346 8.77111 36.1223 7.72054 35.3549 7.21492C34.5874 6.70929 33.5402 6.92278 33.0368 7.69357C32.52 8.47785 32.7324 9.51494 33.5133 10.0206ZM36.9279 4.10477C37.4313 4.43736 38.0931 4.29129 38.4245 3.78567C38.756 3.28004 38.6099 2.61599 38.1066 2.2834C37.6032 1.95081 36.9414 2.09688 36.6099 2.58902C36.4584 2.83423 36.4069 3.12831 36.4661 3.41043C36.5252 3.69255 36.6906 3.94114 36.9279 4.10477ZM33.7638 20.4982C31.9234 20.3915 30.3334 21.814 30.2413 23.6623C30.1357 25.5106 31.5526 27.1062 33.393 27.1983H33.5784C35.42 27.1983 36.9155 25.696 36.9155 23.8342C36.9196 22.9795 36.5945 22.1561 36.0077 21.5348C35.4208 20.9134 34.6173 20.543 33.7638 20.4982ZM18.758 18.5297C19.0364 19.0851 19.4638 19.5522 19.9924 19.8786C20.521 20.205 21.13 20.3779 21.7513 20.378C23.5918 20.378 25.0884 18.8757 25.0884 17.0139C25.0884 16.4959 24.9693 15.9768 24.7311 15.4982C23.8963 13.8363 21.8839 13.1712 20.2412 14.0094C18.5861 14.8599 17.9232 16.8813 18.758 18.5297ZM44.9684 14.2352C45.6437 13.8891 45.9089 13.0521 45.564 12.3734C45.219 11.6947 44.3853 11.4296 43.71 11.7756C43.0347 12.1217 42.7695 12.9453 43.101 13.624C43.4583 14.3026 44.2797 14.5813 44.9684 14.2352ZM36.4942 15.2993C36.0287 15.5356 35.6756 15.9465 35.5118 16.4422C35.3481 16.9379 35.387 17.4782 35.62 17.9454C36.1099 18.9162 37.2886 19.3151 38.256 18.8229C38.7215 18.5865 39.0746 18.1757 39.2384 17.68C39.4021 17.1843 39.3632 16.644 39.1302 16.1768C38.6403 15.206 37.4616 14.8206 36.4942 15.2993ZM25.566 3.59915C26.321 3.63847 26.9694 3.0542 27.0233 2.29576C27.0772 1.53733 26.4795 0.886756 25.7244 0.833947C24.9693 0.79462 24.3199 1.36541 24.2671 2.12385C24.2476 2.49061 24.3725 2.85044 24.6151 3.12621C24.8576 3.40198 25.1986 3.57175 25.5649 3.59915H25.566ZM25.5514 12.2813C25.8096 12.2963 26.0683 12.2598 26.3124 12.1741C26.5565 12.0884 26.7812 11.9551 26.9734 11.7819C27.1656 11.6087 27.3215 11.3991 27.4321 11.1653C27.5427 10.9314 27.6058 10.6779 27.6177 10.4194C27.6316 10.162 27.5947 9.9044 27.5091 9.66125C27.4235 9.4181 27.2908 9.1942 27.1187 9.00232C26.771 8.61481 26.2836 8.38129 25.7637 8.35313C25.5063 8.33919 25.2487 8.37608 25.0055 8.4617C24.7624 8.54733 24.5385 8.68001 24.3466 8.85216C23.9591 9.19984 23.7256 9.68723 23.6974 10.2071C23.6446 11.297 24.466 12.2285 25.5514 12.2813ZM14.9052 32.4365C15.3707 32.2002 15.7238 31.7893 15.8876 31.2936C16.0513 30.7979 16.0124 30.2576 15.7794 29.7905C15.2895 28.8197 14.1108 28.4208 13.1434 28.9129C12.6779 29.1493 12.3248 29.5601 12.161 30.0558C11.9972 30.5515 12.0361 31.0919 12.2692 31.559C12.7591 32.5298 13.9378 32.9287 14.9052 32.4365ZM26.8255 15.1667C25.8188 16.7218 26.2424 18.7959 27.793 19.8072C28.1597 20.0488 28.5706 20.2154 29.002 20.2974C29.4334 20.3794 29.8767 20.3751 30.3065 20.2849C30.7362 20.1946 31.1439 20.0202 31.5059 19.7716C31.8678 19.5229 32.177 19.2051 32.4155 18.8364C33.4222 17.2802 32.9986 15.2071 31.4492 14.1959C30.9064 13.839 30.2707 13.6495 29.6211 13.6509C29.0662 13.6523 28.5203 13.7915 28.0325 14.056C27.5447 14.3206 27.1293 14.7023 26.8255 15.1667ZM32.6357 29.2062C31.8009 27.5444 29.7885 26.8792 28.1458 27.7174C27.3524 28.1193 26.7507 28.8194 26.4726 29.6642C26.1946 30.5091 26.2629 31.4297 26.6626 32.2242C27.4975 33.886 29.5098 34.5512 31.1526 33.713C31.9438 33.3157 32.5454 32.6212 32.8259 31.7814C33.1063 30.9417 33.0428 30.025 32.6492 29.232C32.6492 29.2185 32.6492 29.2197 32.6357 29.2062ZM38.4785 28.9668C38.2634 28.8238 38.022 28.725 37.7684 28.6763C37.5147 28.6277 37.2539 28.63 37.0012 28.6832C36.7484 28.7365 36.5088 28.8396 36.2964 28.9865C36.0839 29.1334 35.9029 29.3211 35.7638 29.5388C35.1683 30.4556 35.42 31.6792 36.3335 32.2646C36.5486 32.4077 36.79 32.5064 37.0436 32.5551C37.2973 32.6038 37.5581 32.6015 37.8108 32.5482C38.0636 32.495 38.3032 32.3919 38.5156 32.245C38.7281 32.0981 38.9091 31.9104 39.0481 31.6927C39.1901 31.4764 39.288 31.2343 39.3362 30.9801C39.3844 30.726 39.3819 30.4648 39.329 30.2116C39.2761 29.9583 39.1737 29.7181 39.0278 29.5045C38.8818 29.2909 38.6952 29.1082 38.4785 28.9668ZM44.8898 23.9275C44.9426 22.9971 44.2403 22.2128 43.3134 22.1589C42.3864 22.105 41.6055 22.8106 41.5515 23.7409C41.4976 24.6713 42.201 25.4556 43.128 25.5095C43.5707 25.5304 44.0038 25.3761 44.3335 25.08C44.6632 24.7839 44.8631 24.3698 44.8898 23.9275ZM49.5112 22.7308C49.369 22.7226 49.2267 22.7427 49.0923 22.7898C48.9579 22.8369 48.8342 22.9101 48.7283 23.0053C48.6224 23.1005 48.5364 23.2157 48.4752 23.3442C48.414 23.4728 48.3789 23.6122 48.3718 23.7544C48.3449 24.3522 48.7955 24.8713 49.3921 24.8983C49.9876 24.9376 50.491 24.4724 50.5314 23.8747C50.5573 23.2769 50.1078 22.7713 49.5112 22.7308ZM45.1538 33.5006C44.8477 33.3019 44.4755 33.2323 44.1182 33.307C43.761 33.3817 43.4478 33.5947 43.2471 33.8995C43.0487 34.2069 42.9792 34.5801 43.0536 34.9383C43.1281 35.2965 43.3404 35.6111 43.6448 35.8141C43.9509 36.0129 44.3232 36.0825 44.6804 36.0077C45.0377 35.933 45.3508 35.72 45.5516 35.4152C45.6513 35.2634 45.7201 35.0935 45.754 34.9151C45.788 34.7366 45.7865 34.5533 45.7495 34.3755C45.7126 34.1977 45.641 34.0289 45.5388 33.8788C45.4365 33.7286 45.3057 33.6001 45.1538 33.5006ZM14.4546 43.6311C13.9512 43.2985 13.2894 43.4445 12.958 43.9367C12.8007 44.1767 12.7445 44.4691 12.8015 44.7504C12.8585 45.0316 13.0242 45.2791 13.2625 45.4389C13.7658 45.7715 14.4277 45.6255 14.7591 45.1333C15.1029 44.6412 14.958 43.9636 14.4546 43.6311ZM37.1279 43.5254C36.8732 43.6588 36.6808 43.8865 36.5918 44.1599C36.5028 44.4333 36.5242 44.7306 36.6515 44.9884C36.7823 45.2441 37.0088 45.4378 37.2817 45.5275C37.5546 45.6171 37.8518 45.5954 38.1088 45.467C38.6392 45.2007 38.8504 44.5502 38.5852 44.0176C38.524 43.8877 38.4371 43.7715 38.3299 43.6759C38.2227 43.5804 38.0973 43.5074 37.9613 43.4615C37.8252 43.4155 37.6813 43.3975 37.5381 43.4085C37.3949 43.4195 37.2554 43.4593 37.1279 43.5254ZM24.5727 32.5703C25.0587 31.8242 25.2297 30.9161 25.0484 30.0443C24.8672 29.1726 24.3484 28.4079 23.6053 27.9174C22.0558 26.9073 19.9895 27.332 18.9693 28.8882C18.7272 29.2572 18.5602 29.6703 18.4777 30.1038C18.3953 30.5374 18.3992 30.983 18.489 31.4151C18.5788 31.8471 18.7529 32.2573 19.0013 32.6221C19.2497 32.9869 19.5676 33.2991 19.9367 33.5411C20.4792 33.8985 21.1151 34.0881 21.7648 34.086C22.323 34.0921 22.8735 33.9562 23.3647 33.6911C23.8559 33.4259 24.2716 33.0402 24.5727 32.5703ZM17.885 37.7153C17.1164 37.2096 16.0704 37.4231 15.567 38.1939C15.0636 38.9647 15.276 40.0153 16.0434 40.5209C16.8108 41.0265 17.858 40.813 18.3614 40.0423C18.8783 39.2715 18.6659 38.2209 17.885 37.7153ZM25.6862 44.1367C24.9311 44.0974 24.2828 44.6816 24.2289 45.4401C24.175 46.1985 24.7716 46.8491 25.5266 46.903C26.2817 46.9435 26.9312 46.3715 26.984 45.6131C27.0035 45.2463 26.8786 44.8865 26.636 44.6107C26.3934 44.335 26.0525 44.1641 25.6862 44.1367ZM25.6986 35.4546C25.4368 35.4345 25.1736 35.4669 24.9245 35.5499C24.6754 35.633 24.4454 35.7649 24.248 35.9381C24.0506 36.1113 23.8898 36.3221 23.7751 36.5583C23.6603 36.7945 23.5939 37.0512 23.5798 37.3134C23.5656 37.5756 23.604 37.838 23.6927 38.0851C23.7813 38.3323 23.9185 38.5592 24.0961 38.7526C24.2737 38.946 24.4882 39.102 24.7269 39.2113C24.9656 39.3207 25.2238 39.3812 25.4862 39.3894C26.5727 39.4422 27.4997 38.6186 27.5525 37.5276C27.6188 36.4501 26.784 35.5074 25.6986 35.4546ZM33.738 37.5816C32.9166 38.0074 32.5852 39.0175 33.0099 39.8411C33.4346 40.6647 34.4402 40.9973 35.2616 40.5726C36.083 40.1602 36.4133 39.1501 36.0032 38.3254C35.5796 37.5007 34.5728 37.1557 33.738 37.5804V37.5816Z" fill="#0033AD"/>
</svg>
