<svg width="60" height="60" viewBox="0 0 60 60" fill="none" xmlns="http://www.w3.org/2000/svg">
<path d="M29.9879 1.51172C14.3798 1.51172 1.60059 14.2909 1.60059 29.8991C1.60059 45.5072 14.3798 58.2864 29.9879 58.2864C45.5961 58.2864 58.3753 45.5072 58.3753 29.8991C58.3753 14.2909 45.5961 1.51172 29.9879 1.51172Z" fill="#FEDB41"/>
<path d="M58.3747 29.8991C58.3747 45.5072 45.5955 58.2864 29.9873 58.2864V1.51172C45.5955 1.51172 58.3747 14.2909 58.3747 29.8991Z" fill="#FCBF29"/>
<path d="M29.9877 4.92578C16.233 4.92578 5.01465 16.1441 5.01465 29.8988C5.01465 43.6535 16.233 54.8719 29.9877 54.8719C43.7424 54.8719 54.9608 43.6535 54.9608 29.8988C54.9608 16.1441 43.7424 4.92578 29.9877 4.92578Z" fill="#FE9923"/>
<path d="M54.9604 29.8988C54.9604 43.6535 43.742 54.8719 29.9873 54.8719V4.92578C43.742 4.92578 54.9604 16.1441 54.9604 29.8988Z" fill="#FE8821"/>
<path d="M29.9874 8.24219C18.0862 8.24219 8.33105 17.9973 8.33105 29.8985C8.33105 41.7997 18.0862 51.5548 29.9874 51.5548C41.8886 51.5548 51.6437 41.7997 51.6437 29.8985C51.6437 17.9973 41.8886 8.24219 29.9874 8.24219Z" fill="#FEDB41"/>
<path d="M51.6436 29.8985C51.6436 41.7997 41.8885 51.5548 29.9873 51.5548V8.24219C41.8885 8.24219 51.6436 17.9973 51.6436 29.8985Z" fill="#FCBF29"/>
<path d="M37.206 28.6297C37.8889 27.5566 38.3766 26.2885 38.3766 24.9228C38.3766 22.484 37.0109 20.3379 35.0599 19.1672V16.5334C35.0599 15.5579 34.2795 14.875 33.4015 14.875C32.426 14.875 31.7432 15.6554 31.7432 16.5334V18.1917H28.4264V16.5334C28.4264 15.5579 27.646 14.875 26.7681 14.875C25.7926 14.875 25.1097 15.6554 25.1097 16.5334V18.1917H23.4513C22.4758 18.1917 21.793 18.9721 21.793 19.8501V39.8481C21.793 40.8236 22.5734 41.5064 23.4513 41.5064H25.1097V43.1648C25.1097 44.1403 25.8901 44.8232 26.7681 44.8232C27.7436 44.8232 28.4264 44.0428 28.4264 43.1648V41.604H31.7432V43.2623C31.7432 44.2379 32.5236 44.9207 33.4015 44.9207C34.377 44.9207 35.0599 44.1403 35.0599 43.2623V41.604C38.7668 41.604 41.6934 38.5799 41.6934 34.9705C41.6934 32.044 39.7424 29.5077 37.206 28.6297ZM25.0122 21.606H31.6456C33.4991 21.606 34.9624 23.0693 34.9624 24.9228C34.9624 26.7762 33.4991 28.2395 31.6456 28.2395H25.0122V21.606ZM34.9624 38.1897H25.0122V31.5562H34.9624C36.8158 31.5562 38.2791 33.0195 38.2791 34.873C38.2791 36.7264 36.8158 38.1897 34.9624 38.1897Z" fill="#FE9923"/>
<path d="M41.6934 34.873C41.6934 38.5799 38.6693 41.5064 35.06 41.5064V43.1648C35.06 44.1403 34.2795 44.8232 33.4016 44.8232C32.4261 44.8232 31.7432 44.0428 31.7432 43.1648V41.604H29.9873V38.2872H34.9624C36.8159 38.2872 38.2791 36.824 38.2791 34.9705C38.2791 33.117 36.8159 31.6538 34.9624 31.6538H29.9873V28.337H31.6457C33.4991 28.337 34.9624 26.8738 34.9624 25.0203C34.9624 23.1668 33.4991 21.7036 31.6457 21.7036H29.9873V18.1917H31.6457V16.5334C31.6457 15.5579 32.4261 14.875 33.304 14.875C34.2796 14.875 34.9624 15.6554 34.9624 16.5334V19.1672C36.9134 20.3379 38.2791 22.3864 38.2791 24.9228C38.2791 26.2885 37.8889 27.5566 37.1085 28.6297C39.7424 29.5077 41.6934 32.044 41.6934 34.873Z" fill="#FE8821"/>
</svg>
