<svg width="83" height="83" viewBox="0 0 83 83" fill="none" xmlns="http://www.w3.org/2000/svg">
<rect opacity="0.1" width="83" height="83" rx="8" fill="#1D4354"/>
<path d="M24.9442 52.396C30.4522 52.468 33.4762 49.984 33.5482 45.556C33.6562 40.876 31.0282 38.608 24.7642 37.744C21.5962 37.312 20.5882 36.124 20.6242 34.576C20.6242 32.992 22.0282 31.912 23.8282 31.948C26.2042 31.948 27.5002 33.352 27.5362 35.188H32.2522C32.2162 30.436 28.4362 27.988 23.9362 27.88C19.0042 27.772 15.9442 30.544 15.9442 34.684C15.9442 38.716 18.9322 41.164 23.9722 41.812C27.7162 42.388 28.9042 43.432 28.8682 45.592C28.8322 47.428 27.4642 48.4 25.0162 48.328C22.1722 48.256 20.6602 46.708 20.6602 43.396H15.9442C15.7282 48.616 18.9322 52.324 24.9442 52.396ZM36.5073 52H41.1873V40.048L46.8033 51.136H49.6113L54.9033 40.012V52H59.5833V28.24H55.8393L48.0273 43.396L40.3232 28.24H36.5073V52ZM62.5229 52H67.2029V28.24H62.5229V52Z" fill="#1D4354"/>
</svg>
