<svg width="83" height="83" viewBox="0 0 83 83" fill="none" xmlns="http://www.w3.org/2000/svg">
<rect opacity="0.1" width="83" height="83" rx="8" fill="white"/>
<g clip-path="url(#clip0_1_4621)">
<path d="M33.244 59.48C33.244 59.48 30.784 60.976 34.954 61.404C39.974 62.044 42.648 61.938 48.204 60.87C49.3207 61.5538 50.5016 62.1266 51.73 62.58C39.23 67.924 23.41 62.26 33.242 59.48H33.244ZM31.644 52.534C31.644 52.534 28.972 54.564 33.14 54.994C38.59 55.528 42.864 55.634 50.24 54.14C50.9574 54.8675 51.8356 55.4163 52.804 55.742C37.736 60.23 20.852 56.17 31.644 52.536V52.534ZM61.138 64.714C61.138 64.714 62.954 66.21 59.108 67.386C51.948 69.526 29.08 70.166 22.668 67.386C20.424 66.426 24.698 65.036 26.068 64.822C27.458 64.502 28.208 64.502 28.208 64.502C25.748 62.792 11.858 68.028 21.156 69.522C46.696 73.69 67.748 67.706 61.122 64.714H61.138ZM34.4 45.266C34.4 45.266 22.752 48.046 30.232 49.006C33.438 49.434 39.742 49.326 45.62 48.9C50.428 48.472 55.24 47.62 55.24 47.62C55.24 47.62 53.53 48.368 52.354 49.116C40.494 52.216 17.73 50.826 24.25 47.62C29.806 44.948 34.402 45.27 34.402 45.27L34.4 45.266ZM55.24 56.914C67.208 50.714 61.652 44.734 57.804 45.48C56.844 45.694 56.414 45.908 56.414 45.908C56.414 45.908 56.734 45.268 57.482 45.054C65.07 42.382 71.054 53.068 55.022 57.234C55.022 57.234 55.128 57.128 55.236 56.914H55.24ZM35.58 73.798C47.12 74.546 64.754 73.37 65.18 67.918C65.18 67.918 64.326 70.058 55.67 71.658C45.838 73.474 33.656 73.258 26.496 72.086C26.496 72.086 27.992 73.366 35.58 73.796V73.798Z" fill="white"/>
<path d="M47.992 10.002C47.992 10.002 54.618 16.734 41.688 26.886C31.322 35.114 39.338 39.816 41.688 45.16C35.596 39.71 31.216 34.9 34.208 30.414C38.588 23.786 50.664 20.6 47.992 10.002ZM44.592 40.672C47.692 44.198 43.738 47.404 43.738 47.404C43.738 47.404 51.646 43.344 48.012 38.32C44.7 33.512 42.132 31.16 56.026 23.146C56.026 23.146 34.12 28.596 44.592 40.672V40.672Z" fill="white"/>
</g>
<defs>
<clipPath id="clip0_1_4621">
<rect width="64" height="64" fill="white" transform="translate(10 10)"/>
</clipPath>
</defs>
</svg>
