<svg width="47" height="47" viewBox="0 0 47 47" fill="none" xmlns="http://www.w3.org/2000/svg">
<mask id="mask0_2165_2476" style="mask-type:luminance" maskUnits="userSpaceOnUse" x="0" y="0" width="47" height="47">
<path d="M0.739746 0.833984H46.8077V46.9019H0.739746V0.833984Z" fill="white"/>
</mask>
<g mask="url(#mask0_2165_2476)">
<path d="M23.7737 46.9019C36.4952 46.9019 46.8077 36.5894 46.8077 23.868C46.8077 11.1465 36.4952 0.833984 23.7737 0.833984C11.0522 0.833984 0.739746 11.1465 0.739746 23.868C0.739746 36.5894 11.0522 46.9019 23.7737 46.9019Z" fill="#00EF8B"/>
<path d="M33.8636 20.2715H27.368V26.7671H33.8636V20.2715Z" fill="white"/>
<path d="M20.8702 29.2087C20.8652 29.8547 20.6064 30.4728 20.1496 30.9296C19.6928 31.3864 19.0746 31.6453 18.4286 31.6503C17.7826 31.6453 17.1645 31.3864 16.7077 30.9296C16.2509 30.4728 15.992 29.8547 15.987 29.2087C15.992 28.5627 16.2509 27.9445 16.7077 27.4877C17.1645 27.0309 17.7826 26.7721 18.4286 26.7671H20.8702V20.2715H18.4286C13.4994 20.2715 9.49146 24.2794 9.49146 29.2087C9.49146 34.1379 13.4994 38.1458 18.4286 38.1458C23.3579 38.1458 27.3658 34.1379 27.3658 29.2087V26.7671H20.8702V29.2087Z" fill="white"/>
<path d="M29.8097 17.0014H37.1345V10.5059H29.8097C24.8805 10.5059 20.8726 14.5138 20.8726 19.443V20.2723H27.3681V19.443C27.3731 18.797 27.632 18.1789 28.0888 17.7221C28.5456 17.2653 29.1637 17.0064 29.8097 17.0014Z" fill="white"/>
<path d="M27.3681 20.2754H20.8726V26.771H27.3681V20.2754Z" fill="#16FF99"/>
</g>
</svg>
