<svg width="40" height="47" viewBox="0 0 40 47" fill="none" xmlns="http://www.w3.org/2000/svg">
<path d="M20.0329 0L0.0854492 11.517V34.5509L20.0329 46.0679L39.9803 34.5509V11.517L20.0329 0ZM17.9733 2.77419H17.9755C18.5699 3.2124 19.289 3.44948 20.0272 3.44948C20.7655 3.44948 21.4846 3.2124 22.079 2.77419L36.5409 11.1237C36.5118 11.381 36.5118 11.6407 36.5409 11.8979L22.0778 20.2474C21.4834 19.8092 20.7655 19.5733 20.0272 19.5733C19.289 19.5733 18.5699 19.8092 17.9767 20.2474L3.51021 11.8968C3.53942 11.6406 3.53942 11.381 3.51021 11.1248L17.9733 2.77306V2.77419ZM37.9297 14.2047C38.1381 14.3572 38.3627 14.4865 38.5994 14.5901V31.2902C37.9218 31.5857 37.3578 32.0902 36.9881 32.7296C36.6184 33.3689 36.4645 34.1105 36.5477 34.8442L22.0846 43.1937C21.8764 43.041 21.6518 42.9121 21.4149 42.8095L21.398 26.2003C22.0756 25.9059 22.6396 25.4014 23.0093 24.7621C23.379 24.1227 23.534 23.3812 23.452 22.6474L37.9308 14.2035L37.9297 14.2047ZM2.13491 14.2968L16.598 22.6463C16.5148 23.38 16.6699 24.1216 17.0384 24.7621C17.407 25.4025 17.9722 25.9059 18.6497 26.2014V42.9016C18.4115 43.005 18.189 43.1353 17.98 43.2892L3.51807 34.9386C3.60122 34.2049 3.44616 33.4633 3.07762 32.8228C2.70907 32.1824 2.1439 31.679 1.46636 31.3835V14.6844C1.70344 14.5799 1.92929 14.4496 2.13828 14.2968H2.13491Z" fill="black"/>
</svg>
