<svg width="48" height="48" viewBox="0 0 48 48" fill="none" xmlns="http://www.w3.org/2000/svg">
<path d="M23.9955 47.064C36.717 47.064 47.0295 36.7515 47.0295 24.0301C47.0295 11.3086 36.717 0.996094 23.9955 0.996094C11.274 0.996094 0.961548 11.3086 0.961548 24.0301C0.961548 36.7515 11.274 47.064 23.9955 47.064Z" fill="#E84142"/>
<path d="M32.1214 24.6285C32.9192 23.2499 34.2068 23.2499 35.0057 24.6285L39.9754 33.3522C40.7732 34.7309 40.1204 35.8545 38.5249 35.8545H28.5135C26.936 35.8545 26.2832 34.7298 27.0629 33.3522L32.1214 24.6285ZM22.509 7.83283C23.3067 6.45416 24.5764 6.45416 25.3742 7.83283L26.4809 9.82836L29.0933 14.4172C29.7281 15.7228 29.7281 17.2644 29.0933 18.57L20.3325 33.7511C19.941 34.3589 19.4119 34.866 18.7881 35.2314C18.1642 35.5968 17.4631 35.8103 16.7415 35.8545H9.46837C7.87172 35.8545 7.2189 34.7477 8.01779 33.3522L22.509 7.83283Z" fill="white"/>
</svg>
