<svg width="83" height="83" viewBox="0 0 83 83" fill="none" xmlns="http://www.w3.org/2000/svg">
<rect opacity="0.1" width="83" height="83" rx="8" fill="#1D4354"/>
<path d="M41.9752 64.4797L25.8795 60.0122L22.2673 19.5H61.7346L58.1196 60.0063L41.9752 64.4797Z" stroke="#1D4354"/>
<path d="M41.9837 27.4648H29.2676L30.6375 42.8202H42.001V37.743H35.2821L34.8178 32.5435H42.001V27.4648H41.9837ZM42.001 50.9133L41.9794 50.9191L36.3243 49.3925L35.9649 45.343H30.8646L31.5762 53.3154L41.978 56.1904L42.001 56.1832V50.9133Z" fill="#1D4354"/>
<path d="M41.9833 42.8202H48.2365L47.6615 49.404L41.9977 50.932V56.2148L52.4081 53.3298L53.8025 37.7401H42.0006L41.9833 42.8202ZM54.5816 28.8276L54.7023 27.4648H41.9805V32.5421H54.2452L54.3458 31.4007L54.5816 28.8276Z" fill="#1D4354"/>
</svg>
