<svg width="83" height="83" viewBox="0 0 83 83" fill="none" xmlns="http://www.w3.org/2000/svg">
<rect opacity="0.1" width="83" height="83" rx="8" fill="#1D4354"/>
<g clip-path="url(#clip0_1_9)">
<mask id="mask0_1_9" style="mask-type:alpha" maskUnits="userSpaceOnUse" x="9" y="28" width="66" height="28">
<path d="M9.00781 28.1016H74.9528V55.9975H9.00781V28.1016Z" fill="#1A1918"/>
</mask>
<g mask="url(#mask0_1_9)">
<path fill-rule="evenodd" clip-rule="evenodd" d="M15.892 40.6498C14.4708 40.1138 13.692 39.6968 13.692 39.0416C13.692 38.4856 14.1398 38.1679 14.9381 38.1679C16.3983 38.1679 17.8973 38.7438 18.9292 39.2599L19.5133 35.5869C18.6956 35.1897 17.0212 34.5345 14.7045 34.5345C13.0691 34.5345 11.7061 34.9713 10.7328 35.7854C9.72031 36.6391 9.19464 37.8701 9.19464 39.3592C9.19464 42.0594 10.8106 43.2111 13.4389 44.1839C15.1327 44.7994 15.6974 45.2363 15.6974 45.9113C15.6974 46.5665 15.1522 46.9437 14.1592 46.9437C12.9327 46.9437 10.908 46.3282 9.58407 45.5341L9 49.2469C10.1292 49.9021 12.2318 50.5771 14.4124 50.5771C16.1451 50.5771 17.5858 50.1602 18.5593 49.366C19.6495 48.4924 20.2142 47.2019 20.2142 45.5341C20.2142 42.7742 18.5593 41.6227 15.892 40.6498ZM29.7224 38.4856L30.3065 34.8323H27.223V30.3975L23.0773 31.0932L22.4786 34.8323L21.0205 35.0736L20.4747 38.4856H22.4726V45.6532C22.4726 47.5195 22.9399 48.8101 23.8938 49.6043C24.6921 50.2595 25.8407 50.5771 27.4566 50.5771C28.7026 50.5771 29.4619 50.3588 29.9876 50.2197V46.3481C29.6955 46.4276 29.0336 46.5665 28.5858 46.5665C27.6319 46.5665 27.223 46.0702 27.223 44.9385V38.4856H29.7224ZM38.9823 34.6189C37.6195 34.6189 36.5292 35.3486 36.1009 36.659L35.8089 34.8323H31.5841V50.2793H36.4123V40.2527C37.016 39.4982 37.8725 39.2253 39.0407 39.2253C39.2939 39.2253 39.5663 39.2253 39.8973 39.2849V34.7381C39.5663 34.6587 39.2743 34.6189 38.9823 34.6189ZM43.4992 33.3035C44.9009 33.3035 46.0301 32.1321 46.0301 30.7026C46.0301 29.2531 44.9009 28.1016 43.4992 28.1016C42.0778 28.1016 40.9487 29.2531 40.9487 30.7026C40.9487 32.1321 42.0778 33.3035 43.4992 33.3035ZM41.0655 34.8323H45.9133V50.2793H41.0655V34.8323ZM59.6511 36.2221C58.7944 35.0904 57.6068 34.5345 56.0882 34.5345C54.6865 34.5345 53.4599 35.1302 52.3112 36.381L52.0581 34.8323H47.8138V55.9975L52.6422 55.1835V50.2197C53.3819 50.458 54.1412 50.5771 54.8227 50.5771C56.0298 50.5771 57.782 50.2595 59.1448 48.7506C60.4492 47.3011 61.1112 45.0576 61.1112 42.0992C61.1112 39.4783 60.6244 37.4929 59.6511 36.2221ZM55.6404 45.7524C55.251 46.5069 54.6475 46.9041 53.9466 46.9041C53.4599 46.9041 53.0315 46.8048 52.6422 46.6063V39.2599C53.4599 38.3864 54.1996 38.2871 54.4722 38.2871C55.6988 38.2871 56.3023 39.6372 56.3023 42.2779C56.3023 43.7868 56.0882 44.9583 55.6404 45.7524ZM74.9537 42.4168C74.9537 39.9549 74.428 38.009 73.3961 36.6391C72.3448 35.2493 70.7678 34.5345 68.7626 34.5345C64.6545 34.5345 62.1042 37.6319 62.1042 42.5955C62.1042 45.3752 62.7855 47.46 64.1288 48.7902C65.336 49.9815 67.0688 50.5771 69.3076 50.5771C71.3713 50.5771 73.2793 50.0808 74.4865 49.2667L73.9608 45.8915C72.7731 46.5467 71.3909 46.9041 69.8333 46.9041C68.8988 46.9041 68.2563 46.7054 67.7891 46.2885C67.2828 45.8517 66.9908 45.137 66.8935 44.1244H74.8953C74.9147 43.8861 74.9537 42.7742 74.9537 42.4168ZM66.8545 41.1064C66.9908 38.9025 67.5749 37.8701 68.6846 37.8701C69.7749 37.8701 70.3396 38.9225 70.4174 41.1064H66.8545Z" fill="#1D4354"/>
</g>
</g>
<defs>
<clipPath id="clip0_1_9">
<rect width="66" height="28" fill="white" transform="translate(9 28)"/>
</clipPath>
</defs>
</svg>
