<svg width="47" height="47" viewBox="0 0 47 47" fill="none" xmlns="http://www.w3.org/2000/svg">
<path d="M23.7737 46.5308C36.4952 46.5308 46.8077 36.2183 46.8077 23.4969C46.8077 10.7754 36.4952 0.462891 23.7737 0.462891C11.0522 0.462891 0.739746 10.7754 0.739746 23.4969C0.739746 36.2183 11.0522 46.5308 23.7737 46.5308Z" fill="#13B5EC"/>
<path fill-rule="evenodd" clip-rule="evenodd" d="M25.5018 19.0323L30.685 16.0087V22.0548L25.5018 19.0323ZM30.685 31.9886L23.7748 36.019L16.8646 31.9886V24.9346L23.7748 28.9661L30.685 24.9346V31.9886ZM16.8646 16.0087L22.0478 19.0323L16.8646 22.0559V16.0098V16.0087ZM24.6388 20.4716L29.8209 23.4953L24.6388 26.5189V20.4716ZM22.9107 26.5178L17.7275 23.4942L22.9107 20.4705V26.5178ZM29.8209 14.5693L23.7748 18.0244L17.7286 14.5693L23.7748 10.9704L29.8209 14.5693ZM15.1365 13.9929V32.8516L23.7748 37.746L32.4131 32.8516V13.994L23.7759 9.09961L15.1387 13.994L15.1365 13.9929Z" fill="white"/>
</svg>
