<svg width="83" height="83" viewBox="0 0 83 83" fill="none" xmlns="http://www.w3.org/2000/svg">
<rect opacity="0.1" x="-0.00390625" width="83" height="83" rx="8" fill="#1D4354"/>
<path d="M32.5192 63.6543L33.3203 58.5664L31.5359 58.525H23.0156L28.9368 20.9808C28.9544 20.8661 29.0127 20.7615 29.101 20.6862C29.1893 20.6108 29.3017 20.5697 29.4177 20.5703H43.7842C48.5536 20.5703 51.845 21.5628 53.5635 23.5217C54.3691 24.4407 54.8822 25.401 55.1303 26.4578C55.3907 27.5667 55.3953 28.8915 55.141 30.5074L55.1226 30.6253V31.6607L55.9283 32.1171C56.5433 32.4287 57.0961 32.8502 57.5594 33.3607C58.2486 34.1465 58.6943 35.1451 58.8827 36.329C59.0772 37.5466 59.0129 38.9955 58.6943 40.6359C58.3268 42.5228 57.7325 44.1662 56.9299 45.511C56.2218 46.7156 55.2697 47.759 54.1348 48.5742C53.0688 49.3308 51.8021 49.9051 50.3701 50.2727C48.9824 50.6342 47.4003 50.8164 45.665 50.8164H44.5469C43.7474 50.8164 42.9709 51.1044 42.3613 51.6205C41.7526 52.1422 41.3488 52.863 41.2218 53.6545L41.1376 54.1125L39.7224 63.08L39.658 63.4093C39.6412 63.5134 39.6121 63.5655 39.5692 63.6007C39.5277 63.6347 39.4758 63.6536 39.4222 63.6543H32.5192Z" fill="#1D4354"/>
<path d="M56.6915 30.7422C56.6486 31.0163 56.5996 31.2966 56.5444 31.5846C54.6498 41.3118 48.1681 44.6721 39.8897 44.6721H35.6748C34.6624 44.6721 33.8093 45.4073 33.6515 46.4059L31.4935 60.0923L30.8824 63.9719C30.858 64.1258 30.8673 64.2831 30.9096 64.433C30.9519 64.583 31.0262 64.722 31.1274 64.8405C31.2285 64.959 31.3542 65.0541 31.4956 65.1194C31.6371 65.1847 31.791 65.2185 31.9468 65.2186H39.4226C40.3079 65.2186 41.0599 64.5753 41.1993 63.7023L41.2728 63.3225L42.6803 54.3902L42.7707 53.9C42.9085 53.024 43.6621 52.3807 44.5474 52.3807H45.6654C52.9084 52.3807 58.5784 49.44 60.2356 40.9304C60.9279 37.3756 60.5695 34.4073 58.7377 32.3197C58.1571 31.674 57.4637 31.1394 56.6915 30.7422Z" fill="#1D4354"/>
<path d="M54.7084 29.954C54.1035 29.779 53.4881 29.6424 52.8659 29.5451C51.6365 29.3561 50.394 29.2655 49.1502 29.274H37.8899C37.4613 29.2737 37.0468 29.4266 36.7213 29.7053C36.3957 29.984 36.1806 30.3699 36.1147 30.7933L33.7193 45.9654L33.6504 46.408C33.725 45.9251 33.97 45.4847 34.3411 45.1667C34.7123 44.8487 35.1849 44.674 35.6736 44.6743H39.8886C48.1669 44.6743 54.6487 41.3124 56.5433 31.5867C56.6 31.2988 56.6474 31.0185 56.6903 30.7443C56.1904 30.4822 55.6693 30.2624 55.1327 30.0873C54.992 30.0406 54.8505 29.9962 54.7084 29.954Z" fill="#1D4354"/>
<path d="M36.1153 30.7918C36.1806 30.3683 36.3956 29.9821 36.7213 29.7036C37.0471 29.4251 37.4619 29.2727 37.8905 29.274H49.1508C50.4848 29.274 51.73 29.3613 52.8665 29.5451C53.6355 29.666 54.3939 29.8467 55.1348 30.0858C55.6938 30.2711 56.213 30.4901 56.6924 30.7428C57.2561 27.1481 56.6878 24.7006 54.7442 22.4844C52.6015 20.0446 48.7342 19 43.7856 19H29.4192C28.4083 19 27.546 19.7352 27.3898 20.7353L21.4058 58.6655C21.3779 58.8416 21.3885 59.0216 21.4369 59.1933C21.4852 59.3649 21.5702 59.524 21.6859 59.6596C21.8016 59.7953 21.9453 59.9042 22.1072 59.979C22.269 60.0538 22.4451 60.0927 22.6234 60.0929H31.4929L33.7199 45.9639L36.1153 30.7918Z" fill="#D5D5D5"/>
</svg>
