<svg width="83" height="83" viewBox="0 0 83 83" fill="none" xmlns="http://www.w3.org/2000/svg">
<rect opacity="0.1" width="83" height="83" rx="8" fill="#1D4354"/>
<path d="M24.4231 52H27.8791L38.9671 28.24H33.9631L26.1511 44.8L18.5191 28.24H13.5151L24.4231 52ZM50.2188 52.324C56.8068 52.324 60.8388 48.22 61.8828 42.748H57.2028C56.1228 45.808 53.9268 48.256 50.2188 48.256C46.0428 48.256 42.8748 44.764 42.8748 40.12C42.8748 35.548 46.0788 31.948 50.2188 31.948C53.3508 31.948 55.7988 33.964 57.1308 36.52H61.8108C60.3708 31.516 56.1948 27.88 50.2188 27.88C43.3788 27.88 38.1948 33.064 38.1948 40.156C38.1948 47.284 43.3788 52.324 50.2188 52.324ZM64.808 52H69.488V28.24H64.808V52Z" fill="#1D4354"/>
</svg>
