<svg width="249" height="14" viewBox="0 0 249 14" fill="none" xmlns="http://www.w3.org/2000/svg">
<path d="M5.38479 6.94136C7.32954 6.94992 9.36725 6.88814 11.3122 6.82594C12.1457 6.82962 12.8869 6.76211 13.7204 6.76579C17.2401 6.63977 20.7597 6.51374 24.2794 6.38772C28.54 6.26496 32.7083 6.07103 36.9688 5.94827C42.9896 5.69174 49.0099 5.50598 55.0307 5.24944C56.4201 5.18479 57.8091 5.19092 59.1985 5.12627C62.7183 5.00026 66.238 4.87423 69.7574 4.81898C73.2771 4.69295 76.7967 4.56693 80.3162 4.51167C81.7056 4.44703 83.095 4.38238 84.4841 4.3885C90.0409 4.27146 95.6911 4.15482 101.248 4.03778C104.675 3.98211 108.101 3.92644 111.621 3.80042C113.01 3.80654 114.307 3.74149 115.696 3.74761C121.068 3.70052 126.532 3.65383 131.903 3.60672C137.274 3.55963 142.554 3.51212 147.925 3.46503C149.314 3.47114 150.703 3.47727 152.185 3.48379C155.704 3.49929 159.131 3.51439 162.65 3.5299C168.113 3.55397 173.485 3.57764 178.949 3.53095C180.709 3.5387 182.468 3.54645 184.227 3.5542C187.932 3.57053 191.636 3.58685 195.34 3.60317C195.618 3.60439 195.989 3.60603 196.267 3.60725C187.931 3.64129 179.504 3.67493 171.168 3.77973C167.649 3.83499 164.223 3.81989 160.704 3.87515C159.222 3.86862 157.648 3.86168 156.166 3.92592C151.071 3.97424 146.07 4.09373 140.977 4.14206C135.142 4.25788 129.307 4.30294 123.472 4.41876C122.454 4.41427 121.528 4.48095 120.509 4.47647C117.359 4.60412 114.303 4.66142 111.154 4.78907C104.856 4.97362 98.5574 5.15816 92.2592 5.3427C91.3332 5.33862 90.4064 5.40531 89.4804 5.47199C86.4236 5.60006 83.2739 5.79847 80.2172 5.92653C74.6596 6.18511 69.1945 6.44409 63.6368 6.70266C62.1548 6.76689 60.5799 6.90149 59.0979 6.96572C55.5779 7.16251 52.0578 7.3593 48.5376 7.62684C44.0911 7.89031 39.5522 8.15338 35.1057 8.41684C28.8992 8.81411 22.6001 9.21093 16.3935 9.60817C14.9115 9.67244 13.4292 9.8074 11.8545 9.87124C9.16793 10.0717 6.48142 10.2721 3.79488 10.4726C3.51706 10.4713 3.23861 10.6117 3.23736 10.8948C3.23643 11.1071 3.51332 11.3206 3.79114 11.3218C4.80981 11.3262 5.73558 11.4011 6.75426 11.4056C6.56749 11.7586 6.47394 11.9705 6.47301 12.1827C6.46958 12.9612 7.29992 13.6724 8.41121 13.6774C16.0992 13.3574 23.6948 12.9663 31.3824 12.7171C38.0511 12.5342 44.7201 12.2805 51.3887 12.0976C58.7059 11.8468 66.1158 11.5964 73.4326 11.4163C75.7481 11.3558 78.0637 11.2952 80.3794 11.1639C81.0277 11.1667 81.6762 11.0988 82.4171 11.102C94.2714 10.942 106.126 10.7112 117.981 10.5511C124.28 10.4373 130.67 10.324 136.967 10.281C139.283 10.2204 141.505 10.2302 143.821 10.1696C155.953 10.0816 168.086 9.99346 180.218 9.90537C185.404 9.85747 190.59 9.80956 195.777 9.76166C200.222 9.71047 204.667 9.73005 209.113 9.60808C212.818 9.55369 216.43 9.42808 220.134 9.3736C221.986 9.31097 223.838 9.3192 225.599 9.25614C229.767 9.0622 233.935 8.86834 238.103 8.67437C237.824 8.95617 237.822 9.38079 237.913 9.66421C238.005 10.0185 238.282 10.3028 238.744 10.4463C239.114 10.5895 239.668 10.7335 240.04 10.5936C240.967 10.3146 241.895 10.0356 242.729 9.75621C242.729 9.75621 242.729 9.75621 242.637 9.75586C242.729 9.75621 242.73 9.68544 242.822 9.68587C242.915 9.6863 243.008 9.61597 243.008 9.61597L242.915 9.61553C243.378 9.47607 243.843 9.33653 244.399 9.12673C244.862 8.98718 245.419 8.77737 245.883 8.63788C246.44 8.42804 246.903 8.21779 247.46 8.00795C248.016 7.7981 248.389 7.23363 248.391 6.73828C248.393 6.45523 248.301 6.24252 248.117 5.95866C247.933 5.67478 247.472 5.31893 247.009 5.24612C246.546 5.17333 246.084 5.10052 245.62 5.09848C245.528 5.09807 245.436 5.09766 245.343 5.09725C245.065 5.09603 244.694 5.0944 244.416 5.16394C243.675 5.23144 243.027 5.29934 242.286 5.29608C241.73 5.29363 241.174 5.36194 240.526 5.35909C238.951 5.42292 237.469 5.48715 235.894 5.62175C235.524 5.62011 235.06 5.68883 234.69 5.68721C234.876 5.54649 234.969 5.40537 234.97 5.26384C235.063 5.12272 235.064 4.9812 235.064 4.83967C235.064 4.76891 235.065 4.62738 235.158 4.55702C235.159 4.41549 235.159 4.27397 235.067 4.2028C235.067 4.2028 235.16 4.2032 235.16 4.13244C235.439 3.99214 235.717 3.85183 235.903 3.5696C236.089 3.35812 236.184 3.07548 236.184 2.79242C236.186 2.50937 236.094 2.29667 235.91 2.0128C235.818 1.94162 235.726 1.79969 235.634 1.72852C235.356 1.51501 235.079 1.44301 234.802 1.37103C234.247 1.22705 233.599 1.15343 232.95 1.15058C232.395 1.14813 231.931 1.14609 231.376 1.14364C230.636 1.14038 229.894 1.13711 229.153 1.13385C228.135 1.12936 227.023 1.12447 226.005 1.11998C223.227 1.10774 220.449 1.09549 217.67 1.08325C215.078 1.07183 212.391 1.05999 209.799 1.04857C207.391 1.03797 205.075 1.02776 202.668 1.01715C193.129 0.975124 183.683 1.00427 174.145 1.033C167.013 1.07235 159.883 1.1117 152.751 1.08028C149.602 1.0664 146.361 1.12289 143.212 1.17978C136.081 1.28989 128.95 1.32923 121.819 1.43934C119.781 1.43037 117.743 1.49215 115.706 1.48317C114.502 1.47787 113.39 1.54374 112.186 1.53844C105.148 1.71972 98.1087 1.901 91.069 2.08228C88.939 2.14366 86.809 2.20503 84.5861 2.266C83.3821 2.2607 82.1779 2.32616 80.9737 2.39162C73.9343 2.64366 66.9875 2.89612 59.9482 3.14816C56.3359 3.27377 52.7235 3.39939 49.111 3.59576C42.905 3.85148 36.6991 4.10719 30.5854 4.43408C25.213 4.69347 19.8409 4.8821 14.4687 5.07072C13.6349 5.13782 12.8015 5.13415 11.8751 5.20083C10.4857 5.26547 9.09655 5.25935 7.70714 5.32399C6.502 5.60175 5.2055 5.59603 4.00161 5.59073C3.91025 5.30726 3.54075 5.09334 3.26262 5.16288C2.42916 5.15921 1.68799 5.22671 0.85421 5.2938C0.483473 5.36293 0.11242 5.50282 0.018566 5.78547C-0.0756 6.13888 0.200663 6.49392 0.570779 6.56632C0.940892 6.63871 1.31102 6.71111 1.68113 6.78351C2.05124 6.85591 2.32906 6.85713 2.6995 6.85876C3.62525 6.93361 4.45872 6.93728 5.38479 6.94136ZM222.096 5.63171C223.207 5.63661 224.411 5.64191 225.522 5.6468C225.613 5.8595 225.799 6.00185 225.983 6.14419C225.52 6.14216 225.056 6.21087 224.686 6.20924C223.852 6.20557 223.019 6.27266 222.186 6.26899C218.481 6.32344 214.869 6.44905 211.164 6.50349C209.497 6.56691 207.829 6.63033 206.162 6.62298C203.569 6.61156 200.884 6.67049 198.29 6.65907C192.271 6.70331 186.344 6.74796 180.323 6.7922C168.655 6.88232 157.078 6.97284 145.409 7.06296C137.074 7.09699 128.739 7.27256 120.403 7.44813C107.9 7.6761 95.3039 7.8329 82.801 8.06087C80.3002 8.12062 77.7996 8.18036 75.2985 8.31087C68.1665 8.56251 61.0348 8.74338 53.9028 8.99498C46.956 9.24748 39.9169 9.42878 32.9702 9.68119C32.3219 9.67833 31.6734 9.74624 31.0251 9.74339C32.8779 9.60999 34.8229 9.5478 36.6758 9.41449C43.2524 9.08966 49.8293 8.69401 56.4061 8.36916C58.7219 8.23783 61.0376 8.10651 63.2608 7.97477C64.465 7.90931 65.6692 7.84385 66.7805 7.84876C73.7273 7.5963 80.5818 7.27267 87.4362 7.01982C88.7329 6.95477 90.1223 6.89012 91.419 6.82507C93.3636 6.76287 95.3091 6.70068 97.1611 6.70884C104.2 6.52756 111.24 6.34628 118.278 6.165C119.853 6.10118 121.427 6.10811 122.909 6.04388C123.28 6.0455 123.743 6.04755 124.113 6.04918C125.225 6.05407 126.336 6.05897 127.355 5.99269C134.393 5.88218 141.525 5.84283 148.564 5.73232C151.805 5.67583 155.047 5.61936 158.288 5.63363C168.753 5.60898 179.31 5.58472 189.776 5.56007C200.703 5.60822 211.446 5.58478 222.096 5.63171Z" fill="#6BB64A"/>
</svg>
