<svg width="445" height="13" viewBox="0 0 445 13" fill="none" xmlns="http://www.w3.org/2000/svg">
<path d="M9.647 6.09469C13.1311 6.10347 16.7817 6.04013 20.2662 5.97637C21.7594 5.98014 23.0873 5.91094 24.5805 5.9147C30.8861 5.78552 37.1917 5.65633 43.4973 5.52713C51.1303 5.40129 58.5978 5.20249 66.2307 5.07664C77.0171 4.81367 87.8027 4.62323 98.5891 4.36025C101.078 4.29398 103.567 4.30026 106.056 4.23398C112.362 4.1048 118.667 3.97561 124.972 3.91896C131.278 3.78977 137.584 3.66058 143.889 3.60394C146.378 3.53767 148.867 3.4714 151.356 3.47767C161.311 3.35769 171.433 3.23811 181.389 3.11813C187.528 3.06107 193.667 3.004 199.972 2.87481C202.461 2.88108 204.784 2.8144 207.273 2.82067C216.896 2.77239 226.685 2.72453 236.308 2.67624C245.931 2.62796 255.39 2.57927 265.013 2.53099C267.5 2.53726 269.989 2.54353 272.645 2.55022C278.948 2.56612 285.087 2.58159 291.392 2.59749C301.18 2.62216 310.803 2.64643 320.592 2.59856C323.745 2.60651 326.897 2.61446 330.049 2.6224C336.686 2.63914 343.322 2.65587 349.957 2.6726C350.456 2.67385 351.12 2.67553 351.618 2.67678C336.684 2.71168 321.587 2.74616 306.653 2.8536C300.348 2.91024 294.211 2.89477 287.905 2.95142C285.25 2.94472 282.431 2.93761 279.775 3.00346C270.649 3.053 261.689 3.17549 252.564 3.22503C242.111 3.34377 231.657 3.38996 221.204 3.50869C219.379 3.50409 217.72 3.57245 215.895 3.56785C210.253 3.69871 204.776 3.75745 199.135 3.88831C187.852 4.0775 176.569 4.26667 165.285 4.45586C163.626 4.45167 161.966 4.52003 160.307 4.5884C154.83 4.71968 149.188 4.92308 143.712 5.05436C133.755 5.31944 123.964 5.58493 114.007 5.85C111.352 5.91584 108.531 6.05381 105.876 6.11967C99.5694 6.3214 93.2631 6.52313 86.9565 6.7974C78.9905 7.06749 70.8589 7.33717 62.893 7.60726C51.7737 8.01451 40.4887 8.4213 29.3695 8.82853C26.7144 8.89442 24.0587 9.03276 21.2376 9.09821C16.4246 9.30369 11.6117 9.50917 6.79864 9.71464C6.30091 9.7134 5.80207 9.85725 5.79983 10.1474C5.79816 10.3651 6.29422 10.584 6.79194 10.5852C8.61692 10.5898 10.2755 10.6665 12.1005 10.6711C11.7658 11.033 11.5983 11.2502 11.5966 11.4678C11.5904 12.2658 13.078 12.9949 15.0689 13C28.8421 12.672 42.4499 12.2711 56.2225 12.0156C68.1697 11.8281 80.1173 11.568 92.0643 11.3805C105.173 11.1234 118.448 10.8667 131.557 10.6821C135.705 10.62 139.853 10.558 144.002 10.4233C145.163 10.4263 146.325 10.3567 147.653 10.3599C168.89 10.1959 190.129 9.95928 211.367 9.79518C222.65 9.6785 234.098 9.56236 245.38 9.51822C249.53 9.45615 253.51 9.46619 257.66 9.40412C279.395 9.31381 301.13 9.2235 322.865 9.13319C332.156 9.08409 341.447 9.03498 350.74 8.98588C358.704 8.9334 366.666 8.95347 374.632 8.82844C381.269 8.77267 387.74 8.64392 394.377 8.58806C397.695 8.52386 401.013 8.5323 404.166 8.46765C411.634 8.26883 419.101 8.0701 426.569 7.87126C426.069 8.16014 426.066 8.59543 426.229 8.88598C426.393 9.24916 426.888 9.5406 427.717 9.68774C428.38 9.83452 429.373 9.9821 430.039 9.8387C431.699 9.55268 433.361 9.26675 434.856 8.98028C434.856 8.98028 434.856 8.98028 434.691 8.97993C434.856 8.98028 434.857 8.90774 435.023 8.90818C435.189 8.90862 435.355 8.83652 435.355 8.83652L435.189 8.83608C436.019 8.69311 436.851 8.55006 437.848 8.33499C438.678 8.19193 439.676 7.97685 440.506 7.83386C441.504 7.61874 442.334 7.4032 443.332 7.18809C444.328 6.97297 444.997 6.3943 445 5.88651C445.003 5.59634 444.839 5.37829 444.51 5.08729C444.179 4.79628 443.353 4.43148 442.523 4.35685C441.695 4.28222 440.866 4.20759 440.036 4.20549C439.871 4.20507 439.705 4.20465 439.539 4.20424C439.041 4.20299 438.377 4.20131 437.879 4.27259C436.552 4.34179 435.389 4.4114 434.063 4.40806C433.066 4.40555 432.07 4.47558 430.909 4.47266C428.088 4.53808 425.433 4.60394 422.612 4.74191C421.947 4.74023 421.117 4.81069 420.454 4.80902C420.787 4.66476 420.954 4.5201 420.956 4.37501C421.122 4.23034 421.123 4.08527 421.125 3.94018C421.125 3.86764 421.126 3.72255 421.292 3.65043C421.294 3.50534 421.294 3.36026 421.13 3.2873C421.13 3.2873 421.296 3.28772 421.296 3.21518C421.795 3.07135 422.293 2.92752 422.627 2.63818C422.961 2.42139 423.13 2.13164 423.131 1.84148C423.134 1.55131 422.97 1.33326 422.639 1.04226C422.475 0.969293 422.31 0.823797 422.144 0.750832C421.648 0.531953 421.151 0.458153 420.655 0.384362C419.66 0.236761 418.499 0.161292 417.337 0.158371C416.342 0.155858 415.512 0.153762 414.517 0.151258C413.19 0.14791 411.862 0.144562 410.535 0.141215C408.71 0.136615 406.719 0.131598 404.894 0.126998C399.917 0.114451 394.941 0.101895 389.962 0.0893477C385.318 0.0776352 380.505 0.0655053 375.861 0.0537928C371.547 0.0429239 367.399 0.0324635 363.086 0.0215857C345.997 -0.0214965 329.074 0.00838149 311.985 0.0378358C299.209 0.0781769 286.434 0.118509 273.658 0.0863019C268.017 0.0720764 262.21 0.129982 256.569 0.188304C243.793 0.301176 231.018 0.341508 218.242 0.454388C214.592 0.445189 210.94 0.508528 207.29 0.49932C205.133 0.493885 203.142 0.561408 200.985 0.555973C188.375 0.74181 175.765 0.927647 163.153 1.11348C159.337 1.17641 155.521 1.23932 151.538 1.30182C149.381 1.29639 147.224 1.3635 145.067 1.4306C132.456 1.68898 120.01 1.94778 107.399 2.20615C100.927 2.33492 94.4557 2.4637 87.9838 2.66501C76.8656 2.92715 65.7474 3.18929 54.7947 3.5244C45.1698 3.79031 35.5455 3.98367 25.9211 4.17704C24.4273 4.24582 22.9343 4.24206 21.2746 4.31041C18.7854 4.37668 16.2967 4.37041 13.8076 4.43668C11.6485 4.72141 9.3258 4.71555 7.16899 4.71011C7.00532 4.41952 6.34337 4.20022 5.84508 4.27151C4.3519 4.26775 3.02408 4.33695 1.53034 4.40572C0.866156 4.47659 0.201404 4.62 0.0332615 4.90975C-0.13544 5.27204 0.359493 5.63601 1.02257 5.71023C1.68564 5.78444 2.34872 5.85865 3.01179 5.93287C3.67486 6.00709 4.17259 6.00834 4.83623 6.01001C6.49475 6.08674 7.98793 6.09051 9.647 6.09469ZM397.891 4.75212C399.882 4.75715 402.039 4.76258 404.03 4.7676C404.193 4.98564 404.525 5.13157 404.855 5.27749C404.025 5.2754 403.195 5.34584 402.532 5.34418C401.038 5.34041 399.545 5.40918 398.052 5.40542C391.415 5.46124 384.944 5.59 378.306 5.64581C375.319 5.71083 372.332 5.77584 369.346 5.76831C364.7 5.7566 359.889 5.81702 355.243 5.8053C344.459 5.85065 333.84 5.89643 323.055 5.94178C302.15 6.03416 281.409 6.12696 260.505 6.21934C245.573 6.25423 230.639 6.43422 215.706 6.61419C193.305 6.8479 170.74 7.00864 148.34 7.24233C143.86 7.30359 139.38 7.36483 134.9 7.49862C122.122 7.75658 109.346 7.942 96.5684 8.19993C84.1231 8.45877 71.5124 8.64463 59.0671 8.90338C57.9057 8.90045 56.7438 8.97007 55.5824 8.96714C58.9016 8.83039 62.3863 8.76664 65.7057 8.62998C77.4879 8.29698 89.2707 7.8914 101.053 7.55838C105.202 7.42375 109.351 7.28912 113.334 7.15408C115.491 7.08697 117.648 7.01987 119.639 7.02489C132.085 6.76609 144.365 6.43433 156.644 6.17512C158.968 6.10843 161.457 6.04216 163.78 5.97548C167.264 5.91172 170.749 5.84796 174.067 5.85633C186.677 5.67049 199.289 5.48465 211.899 5.29882C214.721 5.23339 217.54 5.24049 220.195 5.17465C220.86 5.17632 221.688 5.17842 222.353 5.18009C224.344 5.1851 226.335 5.19013 228.16 5.12218C240.77 5.00889 253.546 4.96855 266.156 4.85526C271.963 4.79736 277.77 4.73946 283.577 4.75409C302.325 4.72882 321.239 4.70396 339.988 4.67869C359.565 4.72804 378.811 4.70402 397.891 4.75212Z" fill="#6BB64A"/>
</svg>
