<svg width="250" height="13" viewBox="0 0 250 13" fill="none" xmlns="http://www.w3.org/2000/svg">
<path d="M6.23196 5.94526C8.17671 5.95383 10.2144 5.89204 12.1594 5.82985C12.9929 5.83352 13.7341 5.76602 14.5676 5.76969C18.0872 5.64367 21.6069 5.51765 25.1266 5.39162C29.3872 5.26887 33.5554 5.07494 37.816 4.95218C43.8367 4.69565 49.8571 4.50988 55.8778 4.25335C57.2673 4.1887 58.6563 4.19482 60.0457 4.13018C63.5655 4.00416 67.0851 3.87814 70.6046 3.82288C74.1242 3.69686 77.6439 3.57083 81.1633 3.51558C82.5527 3.45093 83.9421 3.38629 85.3313 3.39241C90.888 3.27537 96.5383 3.15872 102.095 3.04168C105.522 2.98602 108.949 2.93035 112.468 2.80433C113.857 2.81045 115.154 2.74539 116.543 2.75152C121.915 2.70442 127.379 2.65773 132.75 2.61063C138.122 2.56353 143.401 2.51603 148.773 2.46893C150.161 2.47505 151.551 2.48117 153.033 2.4877C156.551 2.5032 159.978 2.5183 163.497 2.5338C168.96 2.55788 174.332 2.58155 179.796 2.53485C181.556 2.54261 183.315 2.55036 185.075 2.55811C188.779 2.57444 192.483 2.59076 196.187 2.60708C196.465 2.6083 196.836 2.60994 197.114 2.61116C188.779 2.6452 180.351 2.67883 172.016 2.78364C168.496 2.83889 165.07 2.82379 161.551 2.87906C160.069 2.87253 158.495 2.86559 157.013 2.92983C151.919 2.97814 146.917 3.09764 141.824 3.14596C135.989 3.26179 130.154 3.30685 124.319 3.42267C123.301 3.41818 122.375 3.48486 121.356 3.48037C118.207 3.60803 115.15 3.66533 112.001 3.79298C105.703 3.97753 99.4046 4.16206 93.1064 4.34661C92.1804 4.34253 91.2536 4.40921 90.3276 4.4759C87.2707 4.60396 84.1211 4.80238 81.0644 4.93044C75.5068 5.18902 70.0417 5.448 64.484 5.70657C63.002 5.7708 61.4271 5.90539 59.9451 5.96963C56.425 6.16642 52.905 6.3632 49.3847 6.63075C44.9383 6.89422 40.3993 7.15728 35.9529 7.42075C29.7463 7.81802 23.4473 8.21483 17.2407 8.61208C15.7587 8.67635 14.2763 8.81131 12.7017 8.87514C10.0151 9.07559 7.32859 9.27603 4.64205 9.47647C4.36422 9.47526 4.08578 9.61558 4.08453 9.89866C4.0836 10.111 4.36049 10.3245 4.63831 10.3257C5.65698 10.3301 6.58275 10.405 7.60143 10.4095C7.41465 10.7625 7.32111 10.9744 7.32018 11.1866C7.31675 11.9651 8.14709 12.6763 9.25838 12.6813C16.9463 12.3613 24.542 11.9702 32.2296 11.721C38.8983 11.5381 45.5673 11.2844 52.2359 11.1015C59.5531 10.8507 66.9629 10.6003 74.2798 10.4202C76.5953 10.3597 78.9108 10.2991 81.2266 10.1678C81.8748 10.1706 82.5234 10.1027 83.2642 10.1059C95.1186 9.94596 106.974 9.71511 118.829 9.55503C125.127 9.44121 131.517 9.32791 137.814 9.28486C140.13 9.22431 142.352 9.2341 144.668 9.17355C156.801 9.08546 168.933 8.99737 181.065 8.90927C186.251 8.86137 191.437 8.81347 196.624 8.76557C201.069 8.71438 205.514 8.73395 209.96 8.61199C213.665 8.55759 217.277 8.43199 220.982 8.37751C222.834 8.31488 224.686 8.32311 226.446 8.26005C230.614 8.0661 234.782 7.87225 238.95 7.67828C238.671 7.96008 238.67 8.3847 238.761 8.66812C238.852 9.0224 239.129 9.30669 239.591 9.45022C239.961 9.59341 240.516 9.73737 240.887 9.59748C241.814 9.31847 242.742 9.03955 243.576 8.76011C243.576 8.76011 243.576 8.76011 243.484 8.75977C243.576 8.76011 243.577 8.68934 243.669 8.68978C243.762 8.69021 243.855 8.61987 243.855 8.61987L243.762 8.61944C244.226 8.47998 244.69 8.34043 245.246 8.13064C245.709 7.99109 246.266 7.78128 246.73 7.64179C247.287 7.43195 247.75 7.22169 248.307 7.01186C248.863 6.80201 249.237 6.23753 249.238 5.74219C249.24 5.45914 249.148 5.24643 248.965 4.96256C248.78 4.67869 248.319 4.32283 247.856 4.25003C247.393 4.17723 246.931 4.10443 246.467 4.10238C246.375 4.10198 246.283 4.10157 246.19 4.10116C245.912 4.09994 245.541 4.0983 245.263 4.16784C244.523 4.23535 243.874 4.30325 243.133 4.29998C242.577 4.29754 242.021 4.36585 241.373 4.363C239.798 4.42682 238.316 4.49106 236.741 4.62565C236.371 4.62401 235.907 4.69274 235.537 4.69111C235.723 4.5504 235.816 4.40928 235.817 4.26775C235.91 4.12663 235.911 3.98511 235.912 3.84358C235.912 3.77282 235.913 3.63128 236.005 3.56093C236.006 3.4194 236.006 3.27788 235.914 3.2067C235.914 3.2067 236.007 3.20711 236.007 3.13635C236.286 2.99605 236.564 2.85574 236.75 2.5735C236.936 2.36203 237.031 2.07938 237.032 1.79633C237.033 1.51328 236.942 1.30057 236.757 1.01671C236.665 0.945529 236.573 0.8036 236.481 0.732424C236.204 0.518911 235.926 0.44692 235.649 0.374938C235.094 0.230957 234.446 0.157338 233.797 0.154488C233.242 0.152036 232.779 0.149992 232.223 0.147549C231.483 0.144284 230.741 0.141018 230.001 0.137753C228.982 0.133266 227.871 0.128371 226.852 0.123884C224.074 0.111645 221.296 0.0993967 218.517 0.0871571C215.925 0.0757318 213.239 0.0638993 210.646 0.052474C208.238 0.0418716 205.923 0.0316676 203.515 0.0210565C193.977 -0.0209695 184.531 0.008176 174.992 0.0369082C167.86 0.0762602 160.73 0.115603 153.598 0.084186C150.45 0.0703093 147.208 0.126795 144.06 0.183688C136.928 0.293792 129.797 0.333135 122.666 0.443248C120.629 0.434274 118.59 0.496061 116.553 0.487078C115.349 0.481777 114.238 0.547644 113.034 0.542342C105.995 0.723623 98.9559 0.904904 91.9162 1.08618C89.7862 1.14756 87.6562 1.20893 85.4332 1.26991C84.2293 1.26461 83.0251 1.33007 81.8209 1.39553C74.7815 1.64757 67.8347 1.90002 60.7953 2.15207C57.1831 2.27767 53.5707 2.40329 49.9582 2.59967C43.7522 2.85539 37.5462 3.1111 31.4326 3.43799C26.0602 3.69738 20.688 3.886 15.3159 4.07463C14.4821 4.14173 13.6487 4.13805 12.7223 4.20473C11.3329 4.26938 9.94372 4.26326 8.55431 4.3279C7.34917 4.60565 6.05267 4.59993 4.84877 4.59463C4.75741 4.31117 4.38792 4.09725 4.10979 4.16679C3.27632 4.16311 2.53516 4.23062 1.70138 4.2977C1.33064 4.36684 0.959588 4.50673 0.865734 4.78937C0.771568 5.14279 1.04783 5.49783 1.41795 5.57023C1.78806 5.64262 2.15818 5.71502 2.5283 5.78741C2.89841 5.85981 3.17623 5.86103 3.54667 5.86266C4.47242 5.93751 5.30589 5.94118 6.23196 5.94526ZM222.943 4.63561C224.054 4.64052 225.258 4.64582 226.369 4.65071C226.46 4.86341 226.646 5.00575 226.83 5.1481C226.367 5.14606 225.903 5.21478 225.534 5.21315C224.699 5.20948 223.866 5.27657 223.033 5.27289C219.328 5.32734 215.716 5.45295 212.011 5.50739C210.344 5.57082 208.676 5.63423 207.01 5.62689C204.416 5.61546 201.731 5.6744 199.138 5.66297C193.118 5.70721 187.191 5.75186 181.171 5.7961C169.502 5.88622 157.925 5.97674 146.256 6.06686C137.922 6.1009 129.586 6.27647 121.25 6.45203C108.747 6.68001 96.1511 6.8368 83.6481 7.06477C81.1474 7.12452 78.6467 7.18427 76.1457 7.31478C69.0137 7.56641 61.882 7.74729 54.75 7.99889C47.8032 8.25139 40.7641 8.43268 33.8174 8.6851C33.1691 8.68224 32.5206 8.75015 31.8723 8.74729C33.725 8.6139 35.6701 8.5517 37.5229 8.41839C44.0995 8.09356 50.6765 7.69792 57.2532 7.37307C59.569 7.24174 61.8848 7.11041 64.108 6.97868C65.3122 6.91322 66.5164 6.84776 67.6277 6.85266C74.5745 6.60021 81.429 6.27658 88.2833 6.02373C89.58 5.95867 90.9694 5.89403 92.2662 5.82897C94.2108 5.76678 96.1563 5.70459 98.0083 5.71275C105.047 5.53147 112.087 5.35019 119.126 5.1689C120.7 5.10508 122.274 5.11201 123.756 5.04778C124.127 5.04941 124.59 5.05146 124.96 5.05308C126.072 5.05798 127.183 5.06288 128.202 4.9966C135.241 4.88609 142.372 4.84674 149.411 4.73622C152.652 4.67974 155.894 4.62326 159.135 4.63754C169.6 4.61288 180.157 4.58863 190.623 4.56398C201.55 4.61212 212.293 4.58869 222.943 4.63561Z" fill="#6BB64A"/>
</svg>
