<svg width="48" height="45" viewBox="0 0 48 45" fill="none" xmlns="http://www.w3.org/2000/svg">
<g clip-path="url(#clip0_3238_219)">
<path d="M40.638 9.773C42.65 9.773 44.28 8.145 44.28 6.136C44.28 4.128 42.65 2.5 40.638 2.5C38.626 2.5 36.996 4.128 36.996 6.136M40.638 9.773C38.627 9.773 36.996 8.145 36.996 6.136M40.638 9.773L40.563 17M36.996 6.136H10.285M10.285 6.136C10.285 8.145 8.655 9.773 6.642 9.773C4.631 9.773 3 8.145 3 6.136C3 4.128 4.63 2.5 6.642 2.5C8.654 2.5 10.285 4.128 10.285 6.136ZM44.28 20.682C44.28 22.69 42.65 24.318 40.638 24.318C38.627 24.318 36.996 22.69 36.996 20.682C36.996 18.673 38.626 17.045 40.638 17.045C42.65 17.045 44.28 18.673 44.28 20.682ZM3 24.318C3 22.31 4.63 20.682 6.642 20.682C8.654 20.682 10.285 22.31 10.285 24.318C10.285 26.327 8.655 27.955 6.642 27.955C4.631 27.955 3 26.327 3 24.318ZM3 38.864C3 36.855 4.63 35.227 6.642 35.227C8.654 35.227 10.285 36.855 10.285 38.864C10.285 40.872 8.655 42.5 6.642 42.5C4.631 42.5 3 40.872 3 38.864ZM36.996 38.864C36.996 36.855 38.626 35.227 40.638 35.227C42.65 35.227 44.281 36.855 44.281 38.864C44.281 40.872 42.651 42.5 40.638 42.5C38.627 42.5 36.996 40.872 36.996 38.864Z" stroke="#1D4354" stroke-width="1.5" stroke-linecap="round"/>
<path d="M6.64258 35.2266L6.50658 27.9996" stroke="#1D4354" stroke-width="1.5" stroke-linecap="round"/>
<path d="M10.2831 38.8633H36.9941" stroke="#1D4354" stroke-width="1.5" stroke-linecap="round"/>
<path fill-rule="evenodd" clip-rule="evenodd" d="M21.1426 22.4703C21.1426 24.0483 22.4226 25.3273 24.0046 25.3273C25.5846 25.3273 26.8656 24.0483 26.8656 22.4703C26.8656 20.8923 25.5856 19.6133 24.0046 19.6133C22.4236 19.6133 21.1426 20.8923 21.1426 22.4703Z" stroke="#1D4354" stroke-width="1.5" stroke-linecap="round"/>
<path fill-rule="evenodd" clip-rule="evenodd" d="M33.9906 20.217L32.9336 17.47L30.3106 18.246C29.8266 17.526 29.2316 16.908 28.5566 16.404L29.4706 13.827L26.7766 12.63L25.4706 15.034C24.6436 14.87 23.7856 14.841 22.9256 14.965L21.7476 12.5L18.9956 13.556L19.7726 16.175C19.0506 16.658 18.4326 17.252 17.9276 17.926L15.3476 17.015L14.1476 19.702L16.5566 21.006C16.3926 21.832 16.3636 22.689 16.4876 23.547L14.0176 24.723L15.0736 27.471L17.6986 26.695C18.1806 27.415 18.7766 28.032 19.4526 28.535L18.5386 31.113L21.2316 32.31L22.5376 29.907C23.3646 30.071 24.2236 30.098 25.0826 29.975L26.2606 32.44L29.0136 31.385L28.2356 28.766C28.9566 28.283 29.5756 27.689 30.0796 27.015L32.6616 27.927L33.8606 25.237L31.4536 23.934C31.6166 23.109 31.6456 22.252 31.5216 21.394L33.9916 20.217H33.9906Z" stroke="#1D4354" stroke-width="1.5" stroke-linecap="round"/>
</g>
<defs>
<clipPath id="clip0_3238_219">
<rect width="44" height="42" fill="white" transform="translate(2 1.5)"/>
</clipPath>
</defs>
</svg>
