<svg width="48" height="45" viewBox="0 0 48 45" fill="none" xmlns="http://www.w3.org/2000/svg">
<path d="M34.4409 19.2723H13.1289M34.4409 19.2723V12.4633C34.4409 11.9933 34.0599 11.6133 33.5879 11.6133H13.9809C13.5089 11.6133 13.1289 11.9933 13.1289 12.4633V19.2723M34.4409 19.2723V26.9323H13.1289V19.2723" stroke="#1D4354" stroke-width="1.5" stroke-linecap="round"/>
<path d="M34.4402 26.9322V33.7402C34.4402 34.2102 34.0592 34.5912 33.5872 34.5912H13.9802C13.5092 34.5912 13.1282 34.2112 13.1282 33.7412V26.9312M15.6852 15.8682H17.3902M15.6852 23.5273H17.3902M15.6852 31.1873H17.3902M7.16016 20.9743V9.06025C7.16016 7.18025 8.68716 5.65625 10.5702 5.65625H24.2102" stroke="#1D4354" stroke-width="1.5" stroke-linecap="round"/>
<path d="M21.6525 3.10156L24.2105 5.65456L21.6525 8.20756M9.71852 26.0806L7.16052 23.5266L4.60352 26.0806M26.7675 5.65456H37.8505C39.7335 5.65456 41.2605 7.17856 41.2605 9.05856V22.6756M41.2605 25.2296V36.2926C41.2605 38.1726 39.7335 39.6976 37.8505 39.6976H24.2105" stroke="#1D4354" stroke-width="1.5" stroke-linecap="round"/>
<path d="M26.7672 37.1421L24.2102 39.6961L26.7672 42.2491M21.6522 39.6961H10.5702C8.68716 39.6961 7.16016 38.1711 7.16016 36.2911V23.5251M38.7022 20.1211L41.2602 22.6741L43.8172 20.1211" stroke="#1D4354" stroke-width="1.5" stroke-linecap="round"/>
</svg>
