<svg width="48" height="45" viewBox="0 0 48 45" fill="none" xmlns="http://www.w3.org/2000/svg">
<g clip-path="url(#clip0_3238_273)">
<path d="M28.598 37.783V41.647M19.888 41.647V37.783M32.469 41.647H16.017M1.5 30.053H46.019M22.792 32.952H25.695M4.403 6.865H12.146M8.275 10.729H11.178M12.146 10.729H23.759M8.275 14.594H16.985M17.953 14.594H21.824M8.275 22.324H11.178M12.146 22.324H30.534M8.275 26.188H16.985M17.953 26.188H21.824M4.403 18.459H13.114M45.05 35.85H2.469C1.934 35.85 1.501 35.418 1.501 34.884V3.966C1.5 3.432 1.933 3 2.468 3H45.05C45.585 3 46.018 3.432 46.018 3.966V34.884C46.018 35.418 45.585 35.85 45.05 35.85Z" stroke="#1D4354" stroke-width="1.5" stroke-linecap="round"/>
</g>
<defs>
<clipPath id="clip0_3238_273">
<rect width="47" height="41" fill="white" transform="translate(0.5 2)"/>
</clipPath>
</defs>
</svg>
