<svg width="48" height="43" viewBox="0 0 48 43" fill="none" xmlns="http://www.w3.org/2000/svg">
<g clip-path="url(#clip0_3238_313)">
<path d="M36.059 28.5H40.065C43.938 28.5 47.077 25.366 47.077 21.5C47.077 17.634 43.937 14.5 40.065 14.5C39.321 14.5 38.605 14.617 37.932 14.832C38.015 14.4 38.062 13.956 38.062 13.499C38.062 9.633 34.922 6.499 31.05 6.499C29.298 6.499 27.7 7.145 26.472 8.206C25.105 4.304 21.395 1.5 17.02 1.5C11.489 1.5 7.003 5.978 7.003 11.502C7.003 12.557 7.168 13.572 7.472 14.526C3.852 14.803 1 17.815 1 21.5C1 25.365 4.14 28.5 8.012 28.5H11.017" stroke="#1D4354" stroke-width="1.5" stroke-linecap="round"/>
<path d="M7.4707 14.5192C7.6507 14.5062 7.8307 14.4992 8.0127 14.4992C9.3727 14.4992 10.6407 14.8852 11.7157 15.5542M26.4887 8.19922C26.7437 8.92922 26.9187 9.69922 26.9977 10.4962M37.9357 14.8322C37.7777 15.6492 37.4767 16.4172 37.0607 17.1062M16.0257 34.4992C14.3657 34.4992 13.0207 35.8422 13.0207 37.4992V38.4992C13.0207 40.1562 14.3657 41.4992 16.0257 41.4992H31.0507C32.7107 41.4992 34.0557 40.1562 34.0557 38.4992V37.4992C34.0557 35.8422 32.7107 34.4992 31.0507 34.4992M16.0257 34.4992H31.0507M16.0257 34.4992C14.3657 34.4992 13.0207 33.1562 13.0207 31.4992V30.4992C13.0207 28.8422 14.3657 27.4992 16.0257 27.4992M31.0507 34.4992C32.7107 34.4992 34.0557 33.1562 34.0557 31.4992V30.4992C34.0557 28.8422 32.7107 27.4992 31.0507 27.4992M16.0257 27.4992H31.0507M16.0257 27.4992C14.3657 27.4992 13.0207 26.1562 13.0207 24.4992V23.4992C13.0207 21.8422 14.3657 20.4992 16.0257 20.4992H31.0507C32.7107 20.4992 34.0557 21.8422 34.0557 23.4992V24.4992C34.0557 26.1562 32.7107 27.4992 31.0507 27.4992" stroke="#1D4354" stroke-width="1.5" stroke-linecap="round"/>
</g>
<defs>
<clipPath id="clip0_3238_313">
<rect width="48" height="42" fill="white" transform="translate(0 0.5)"/>
</clipPath>
</defs>
</svg>
