<svg width="48" height="45" viewBox="0 0 48 45" fill="none" xmlns="http://www.w3.org/2000/svg">
<g clip-path="url(#clip0_3238_253)">
<path d="M22.6621 39.891H25.2751M17.4361 25.978V33.804M21.7911 19.891V33.804M26.1461 28.587V33.804M30.5021 23.37V33.804M39.2121 28.587V33.804M43.5671 21.63V33.804M4.37109 28.587V33.804M8.72609 19.891V33.804M33.1151 2.5H14.8231C13.8621 2.5 13.0811 3.28 13.0811 4.24V40.76C13.0811 41.72 13.8611 42.5 14.8231 42.5H33.1151C34.0761 42.5 34.8571 41.72 34.8571 40.76V4.24C34.8571 3.28 34.0771 2.5 33.1151 2.5Z" stroke="#1D4354" stroke-width="1.5" stroke-linecap="round"/>
</g>
<defs>
<clipPath id="clip0_3238_253">
<rect width="41" height="42" fill="white" transform="translate(3.5 1.5)"/>
</clipPath>
</defs>
</svg>
