<svg width="48" height="45" viewBox="0 0 48 45" fill="none" xmlns="http://www.w3.org/2000/svg">
<g clip-path="url(#clip0_3238_186)">
<path d="M12.886 33.6982H7.29498V39.2792M6.22998 30.4722C2.95298 23.2962 4.34998 14.5832 10.264 8.67817C17.876 1.07817 30.294 1.12217 37.905 8.72117L40.423 11.2342" stroke="#1D4354" stroke-width="1.5" stroke-linecap="round"/>
<path d="M41.8766 14.6231C45.1536 21.7991 43.7586 30.5121 37.8436 36.4171C30.2316 44.0171 17.8136 43.9731 10.2026 36.3741L7.68359 33.8611M35.2486 11.3701H40.8396V5.78906" stroke="#1D4354" stroke-width="1.5" stroke-linecap="round"/>
<path d="M36.9802 15.0923C38.2502 17.2823 38.9752 19.8223 38.9752 22.5343C38.9752 30.7543 32.3012 37.4183 24.0662 37.4183C20.9562 37.4183 18.0682 36.4683 15.6792 34.8413M11.1532 29.9783C9.8832 27.7883 9.1582 25.2473 9.1582 22.5353C9.1582 14.3153 15.8322 7.65234 24.0672 7.65234C27.1772 7.65234 30.0642 8.60234 32.4542 10.2283" stroke="#1D4354" stroke-width="1.5" stroke-linecap="round"/>
<path d="M19.4096 18.8144L15.6816 22.5354L19.4096 26.2564M28.7266 18.8144L32.4546 22.5354L28.7266 26.2564M25.9316 16.0234L22.2046 29.0474" stroke="#1D4354" stroke-width="1.5" stroke-linecap="round"/>
</g>
<defs>
<clipPath id="clip0_3238_186">
<rect width="41" height="41" fill="white" transform="translate(3.5 2)"/>
</clipPath>
</defs>
</svg>
