<svg width="86" height="86" viewBox="0 0 86 86" fill="none" xmlns="http://www.w3.org/2000/svg">
<path d="M51.85 23H34.35C32.2406 23 30.6 24.7188 30.6 26.75V59.25C30.6 61.3594 32.2406 63 34.35 63H51.85C53.8813 63 55.6 61.3594 55.6 59.25V26.75C55.6 24.7188 53.8813 23 51.85 23ZM43.1 60.5C41.6938 60.5 40.6 59.4062 40.6 58C40.6 56.6719 41.6938 55.5 43.1 55.5C44.4281 55.5 45.6 56.6719 45.6 58C45.6 59.4062 44.4281 60.5 43.1 60.5ZM51.85 52.0625C51.85 52.6094 51.3813 53 50.9125 53H35.2875C34.7406 53 34.35 52.6094 34.35 52.0625V27.6875C34.35 27.2188 34.7406 26.75 35.2875 26.75H50.9125C51.3813 26.75 51.85 27.2188 51.85 27.6875V52.0625Z" fill="#6BB64A"/>
<rect x="1.5" y="1.5" width="83" height="83" rx="41.5" stroke="#1D4354" stroke-width="3"/>
</svg>
