<svg width="86" height="86" viewBox="0 0 86 86" fill="none" xmlns="http://www.w3.org/2000/svg">
<path d="M61.85 54.1719L50.6 47.6875V52.7656H43.4125C45.8344 50.0312 49.8188 45.2656 52.1625 41.125C54.8969 36.2031 53.4125 31.4375 51.1469 29.0938C50.8344 28.7812 46.3031 24.25 38.1781 25.8906C33.5688 26.9062 31.225 29.3281 30.0531 31.2031C29.0375 32.7656 28.725 34.25 28.6469 34.875C28.1781 37.4531 30.1313 40.1094 33.0219 40.1094C35.5219 40.1094 37.5531 38.1562 37.5531 35.6562C37.5531 33.5469 35.9906 31.5938 33.8031 31.2031C33.9594 30.6562 35.1313 29.5625 35.8344 29.25C39.0375 27.9219 41.9281 29.7188 42.3188 31.9062C43.0219 35.3438 39.4281 38.9375 36.9281 41.9062C30.9125 48.7031 25.7563 54.0156 24.35 55.5H50.6V60.5L61.85 54.1719ZM53.1781 51.9844L56.9281 54.1719L53.1781 56.2812V51.9844ZM34.8188 35.6562C34.8188 36.5938 34.0375 37.375 33.0219 37.375C32.0844 37.375 31.3031 36.5938 31.3031 35.6562C31.3031 34.6406 32.0844 33.8594 33.0219 33.8594C34.0375 33.8594 34.8188 34.7188 34.8188 35.6562ZM30.7563 52.7656C32.7875 50.6562 38.4125 44.5625 42.5531 39.4844C45.2875 36.125 45.6781 33.0781 44.7406 30.6562C44.1938 29.25 43.4125 28.3125 42.8656 27.9219C46.3813 28.0781 48.1781 29.7188 49.2719 30.8906C49.2719 30.8906 52.6313 34.6406 49.7406 39.7188C46.85 44.875 41.0688 51.2812 39.6625 52.7656H30.7563Z" fill="#6BB64A"/>
<rect x="1.5" y="1.5" width="83" height="83" rx="41.5" stroke="#1D4354" stroke-width="3"/>
</svg>
