<svg width="86" height="86" viewBox="0 0 86 86" fill="none" xmlns="http://www.w3.org/2000/svg">
<path d="M43.1 25.5781L25.6 43L43.1 60.5L60.5219 43L43.1 25.5781ZM29.975 43C30.1313 42.8438 30.9125 42.0625 37.475 35.4219C40.7563 32.1406 44.2719 31.9844 46.85 33.9375C48.8031 35.4219 51.6938 38.5469 51.6938 38.5469C51.7719 38.625 51.7719 38.7812 51.7719 38.8594C50.9125 39.7188 49.975 40.6562 49.1156 41.5156C46.4594 39.0156 45.9906 38.5469 45.3656 38.0781C43.9594 37.1406 42.0844 37.2969 40.9125 38.4688C40.7563 38.7031 40.7563 38.7812 40.9125 38.9375C41.1469 39.1719 43.1 41.125 43.6469 41.75C42.7094 42.6094 41.7719 43.4688 40.8344 44.4062C39.8969 43.4688 38.9594 42.4531 38.0219 41.4375C36.3031 43.0781 34.7406 44.6406 33.1781 46.2031C32.0844 45.1094 31.0688 44.0938 29.975 43ZM48.3344 50.9688C45.5219 53.7031 42.2406 53.9375 39.975 52.5312C38.2563 51.5156 36.85 50.0312 34.2719 47.375C35.2094 46.3594 36.1469 45.4219 37.0063 44.4844C39.5844 46.9844 39.8969 47.2969 40.5219 47.7656C41.9281 48.9375 43.8031 48.8594 45.1313 47.6875C45.4438 47.375 45.4438 47.375 45.1313 47.0625C44.35 46.2812 43.4906 45.4219 42.6313 44.5625C42.5531 44.4844 42.3969 44.4062 42.6313 44.1719C43.4125 43.3906 44.2719 42.5312 45.1313 41.6719C45.1313 41.6719 45.2094 41.6719 45.2875 41.5938C46.225 42.6094 47.2406 43.625 48.1781 44.6406C49.8188 43 51.3813 41.4375 52.9438 39.875C54.0375 40.9688 55.0531 41.9844 56.1469 43C54.5844 44.6406 49.7406 49.4844 48.3344 50.9688ZM43.1 23L23.1 43L43.1 63L63.1 43L43.1 23ZM24.35 43L43.1 24.25L61.85 43L43.1 61.75L24.35 43Z" fill="#6BB64A"/>
<rect x="1.5" y="1.5" width="83" height="83" rx="41.5" stroke="#fff" stroke-width="3"/>
</svg>
