<svg width="86" height="86" viewBox="0 0 86 86" fill="none" xmlns="http://www.w3.org/2000/svg">
<path d="M55.6 30.5H30.6C23.6469 30.5 18.1 36.125 18.1 43C18.1 49.9531 23.6469 55.5 30.6 55.5C34.0375 55.5 37.2406 54.0938 39.5063 51.75H46.6156C48.8813 54.0938 52.0844 55.5781 55.6 55.5781C62.475 55.5781 68.1 49.9531 68.1 43.0781C68.1 36.125 62.475 30.5781 55.6 30.5ZM37.475 43.9375C37.475 44.4844 37.0063 44.875 36.5375 44.875H32.475V48.9375C32.475 49.4844 32.0063 49.875 31.5375 49.875H29.6625C29.1156 49.875 28.725 49.4844 28.725 48.9375V44.875H24.6625C24.1156 44.875 23.725 44.4844 23.725 43.9375V42.0625C23.725 41.5938 24.1156 41.125 24.6625 41.125H28.725V37.0625C28.725 36.5938 29.1156 36.125 29.6625 36.125H31.5375C32.0063 36.125 32.475 36.5938 32.475 37.0625V41.125H36.5375C37.0063 41.125 37.475 41.5938 37.475 42.0625V43.9375ZM54.35 49.875C52.5531 49.875 51.225 48.5469 51.225 46.75C51.225 45.0312 52.5531 43.625 54.35 43.625C56.0688 43.625 57.475 45.0312 57.475 46.75C57.475 48.5469 56.0688 49.875 54.35 49.875ZM59.35 42.375C57.5531 42.375 56.225 41.0469 56.225 39.25C56.225 37.5312 57.5531 36.125 59.35 36.125C61.0688 36.125 62.475 37.5312 62.475 39.25C62.475 41.0469 61.0688 42.375 59.35 42.375Z" fill="#6BB64A"/>
<rect x="1.5" y="1.5" width="83" height="83" rx="41.5" stroke="#fff" stroke-width="3"/>
</svg>
