<svg width="33" height="33" viewBox="0 0 33 33" fill="none" xmlns="http://www.w3.org/2000/svg">
<path d="M16.2953 6.36719C13.5796 6.36719 11.3294 8.61734 11.3294 11.333C11.3294 14.1265 13.5796 16.3766 16.2953 16.3766C19.0887 16.3766 21.3389 14.1265 21.3389 11.333C21.3389 8.61734 19.0887 6.36719 16.2953 6.36719ZM16.2953 7.91897C18.2351 7.91897 19.7871 9.47076 19.7871 11.333C19.7871 13.2729 18.2353 14.8248 16.2953 14.8248C14.433 14.8248 12.8812 13.273 12.8812 11.333C12.8812 9.4707 14.433 7.91897 16.2953 7.91897Z" fill="white"/>
<path d="M16.2955 16.9141C11.2519 16.9141 7.06188 20.7162 6.59638 25.6822C6.51868 26.5357 8.07064 26.5357 8.14816 25.7599C8.61369 21.6473 12.1055 18.4658 16.2956 18.4658C20.5633 18.4658 24.0551 21.6471 24.5206 25.7599C24.5983 26.5357 26.1501 26.5357 26.0724 25.6822C25.5291 20.7163 21.3391 16.9141 16.2957 16.9141H16.2955Z" fill="white"/>
<path d="M16.2951 0C7.29431 0 0.000305176 7.29401 0.000305176 16.3718C0.000305176 25.3727 7.29431 32.6667 16.2951 32.6667C25.3736 32.6667 32.667 25.3727 32.667 16.3718C32.667 7.29342 25.373 0 16.2951 0ZM16.2951 1.55178C24.5202 1.55178 31.1153 8.14695 31.1153 16.372C31.1153 24.5194 24.5202 31.1146 16.2951 31.1146C8.14773 31.1146 1.55256 24.5194 1.55256 16.372C1.55256 8.14695 8.14773 1.55178 16.2951 1.55178Z" fill="white"/>
</svg>
