<svg width="34" height="34" viewBox="0 0 34 34" fill="none" xmlns="http://www.w3.org/2000/svg">
<path d="M12.7526 2.8335C9.04094 2.8335 6.02344 5.851 6.02344 9.56266C6.02344 13.2035 8.87094 16.1502 12.5826 16.2777C12.6959 16.2635 12.8093 16.2635 12.8943 16.2777C12.9226 16.2777 12.9368 16.2777 12.9651 16.2777C12.9793 16.2777 12.9793 16.2777 12.9934 16.2777C16.6201 16.1502 19.4676 13.2035 19.4818 9.56266C19.4818 5.851 16.4643 2.8335 12.7526 2.8335Z" fill="#252B33"/>
<path d="M19.9434 20.0461C15.9909 17.4111 9.5451 17.4111 5.56427 20.0461C3.7651 21.2502 2.77344 22.8794 2.77344 24.6219C2.77344 26.3644 3.7651 27.9794 5.5501 29.1694C7.53344 30.5011 10.1401 31.1669 12.7468 31.1669C15.3534 31.1669 17.9601 30.5011 19.9434 29.1694C21.7284 27.9652 22.7201 26.3502 22.7201 24.5936C22.7059 22.8511 21.7284 21.2361 19.9434 20.0461Z" fill="#252B33"/>
<path d="M28.3222 10.3981C28.5489 13.1465 26.5939 15.5548 23.888 15.8806C23.8739 15.8806 23.8739 15.8806 23.8597 15.8806H23.8172C23.7322 15.8806 23.6472 15.8806 23.5764 15.909C22.2022 15.9798 20.9414 15.5406 19.9922 14.7331C21.4514 13.4298 22.2872 11.4748 22.1172 9.34982C22.018 8.20232 21.6214 7.15398 21.0264 6.26148C21.5647 5.99232 22.188 5.82232 22.8255 5.76565C25.6022 5.52482 28.0814 7.59315 28.3222 10.3981Z" fill="#252B33"/>
<path d="M31.1536 23.5027C31.0403 24.8769 30.162 26.0669 28.6886 26.8744C27.272 27.6536 25.487 28.0219 23.7161 27.9794C24.7361 27.0586 25.3311 25.9111 25.4445 24.6927C25.5861 22.9361 24.7503 21.2502 23.0786 19.9044C22.1295 19.1536 21.0245 18.5586 19.8203 18.1194C22.9511 17.2127 26.8895 17.8219 29.312 19.7769C30.6153 20.8252 31.2811 22.1427 31.1536 23.5027Z" fill="#252B33"/>
</svg>
