<svg width="70" height="70" viewBox="0 0 70 70" fill="none" xmlns="http://www.w3.org/2000/svg">
<g clip-path="url(#clip0_2790_3399)">
<path d="M70 35C70 15.67 54.33 0 35 0C15.67 0 0 15.67 0 35C0 54.33 15.67 70 35 70C54.33 70 70 54.33 70 35Z" fill="#07142D" fill-opacity="0.2"/>
<path d="M47.543 45.337L41.663 39.457C43.0788 37.572 43.8429 35.2775 43.84 32.92C43.84 26.899 38.941 22 32.92 22C26.899 22 22 26.899 22 32.92C22 38.941 26.899 43.84 32.92 43.84C35.2773 43.8424 37.5714 43.0779 39.456 41.662L45.336 47.543C45.633 47.8131 46.0225 47.9585 46.4238 47.949C46.8251 47.9395 47.2073 47.776 47.4912 47.4922C47.7751 47.2084 47.9389 46.8262 47.9485 46.425C47.9582 46.0237 47.8129 45.6341 47.543 45.337ZM25.12 32.92C25.12 31.3773 25.5775 29.8693 26.4345 28.5866C27.2916 27.3038 28.5098 26.3041 29.9351 25.7137C31.3603 25.1234 32.9287 24.9689 34.4417 25.2699C35.9548 25.5708 37.3446 26.3137 38.4354 27.4046C39.5263 28.4954 40.2692 29.8852 40.5701 31.3983C40.8711 32.9113 40.7166 34.4797 40.1263 35.9049C39.5359 37.3302 38.5362 38.5484 37.2534 39.4055C35.9707 40.2625 34.4627 40.72 32.92 40.72C30.8521 40.7174 28.8697 39.8947 27.4075 38.4325C25.9453 36.9703 25.1226 34.9879 25.12 32.92Z" fill="#07142D"/>
</g>
<defs>
<clipPath id="clip0_2790_3399">
<rect width="70" height="70" fill="white"/>
</clipPath>
</defs>
</svg>
