<svg width="65" height="64" viewBox="0 0 65 64" fill="none" xmlns="http://www.w3.org/2000/svg">
<path d="M52.3542 0.0795898H11.7374C5.25923 0.0795898 0.00762939 5.33119 0.00762939 11.8094V52.2119C0.00762939 58.6901 5.25923 63.9417 11.7374 63.9417H52.3542C58.8324 63.9417 64.084 58.6901 64.084 52.2119V11.8094C64.084 5.33119 58.8324 0.0795898 52.3542 0.0795898Z" fill="#C4C4C4"/>
<mask id="mask0_1_4517" style="mask-type:alpha" maskUnits="userSpaceOnUse" x="0" y="0" width="65" height="64">
<path d="M52.3563 0.079834H11.7394C5.26124 0.079834 0.00964355 5.33144 0.00964355 11.8096V52.2122C0.00964355 58.6904 5.26124 63.942 11.7394 63.942H52.3563C58.8344 63.942 64.086 58.6904 64.086 52.2122V11.8096C64.086 5.33144 58.8344 0.079834 52.3563 0.079834Z" fill="#F2F2F2"/>
</mask>
<g mask="url(#mask0_1_4517)">
<path d="M16.8217 15.7658L16.5289 49.8801L33.0735 64.8145L46.69 68.182L67.4807 64.3753L65.0135 36.046L50.0575 21.9153L37.6124 22.7937L29.5597 15.1802L16.8217 15.7658Z" fill="#ADB0B5"/>
</g>
<path d="M26.742 14.8196H18.9177C16.7583 14.8196 15.0078 16.5701 15.0078 18.7295V26.5538C15.0078 28.7132 16.7583 30.4637 18.9177 30.4637H26.742C28.9014 30.4637 30.6519 28.7132 30.6519 26.5538V18.7295C30.6519 16.5701 28.9014 14.8196 26.742 14.8196Z" fill="white"/>
<path d="M26.742 34.155H18.9177C16.7583 34.155 15.0078 35.9056 15.0078 38.065V45.8892C15.0078 48.0486 16.7583 49.7992 18.9177 49.7992H26.742C28.9014 49.7992 30.6519 48.0486 30.6519 45.8892V38.065C30.6519 35.9056 28.9014 34.155 26.742 34.155Z" fill="white"/>
<path d="M45.9002 34.155H38.0759C35.9165 34.155 34.166 35.9056 34.166 38.065V45.8892C34.166 48.0486 35.9165 49.7992 38.0759 49.7992H45.9002C48.0596 49.7992 49.8102 48.0486 49.8102 45.8892V38.065C49.8102 35.9056 48.0596 34.155 45.9002 34.155Z" fill="white"/>
<path d="M38.69 15.2026L34.1632 19.7294C32.6363 21.2563 32.6363 23.732 34.1632 25.2589L38.69 29.7857C40.2169 31.3126 42.6925 31.3126 44.2194 29.7857L48.7462 25.2589C50.2732 23.732 50.2732 21.2563 48.7462 19.7294L44.2194 15.2026C42.6925 13.6757 40.2169 13.6757 38.69 15.2026Z" fill="#E2E2E2"/>
</svg>
