<svg width="52" height="52" viewBox="0 0 52 52" fill="none" xmlns="http://www.w3.org/2000/svg">
<g clip-path="url(#clip0_3142_3447)">
<path d="M51.8994 26C51.8994 40.0834 40.4828 51.5 26.3994 51.5C12.3162 51.5 0.899413 40.0834 0.899414 26C0.899415 11.9167 12.3162 0.499999 26.3994 0.5C40.4828 0.500001 51.8994 11.9167 51.8994 26Z" fill="#6BB64A"/>
<path d="M15.7744 28.1373H31.9031L24.8907 35.1285C24.4905 35.5288 24.2657 36.0714 24.2657 36.6372C24.2657 37.2033 24.4905 37.7459 24.8907 38.146C25.2908 38.5463 25.8335 38.771 26.3994 38.771C26.9653 38.771 27.508 38.5463 27.9082 38.146L38.5331 27.5211C38.7266 27.319 38.8782 27.0807 38.9793 26.8198C39.1918 26.3025 39.1918 25.7222 38.9793 25.2048C38.8782 24.944 38.7266 24.7056 38.5331 24.5036L27.9082 13.8786C27.7106 13.6794 27.4756 13.5213 27.2167 13.4134C26.9577 13.3055 26.6799 13.25 26.3994 13.25C26.1189 13.25 25.8411 13.3055 25.5822 13.4134C25.3233 13.5213 25.0882 13.6794 24.8907 13.8786C24.6915 14.0761 24.5334 14.3111 24.4255 14.5701C24.3177 14.829 24.2621 15.1068 24.2621 15.3873C24.2621 15.6679 24.3177 15.9456 24.4255 16.2045C24.5334 16.4635 24.6915 16.6985 24.8907 16.8961L31.9031 23.8873H15.7744C15.2108 23.8873 14.6703 24.1112 14.2718 24.5097C13.8733 24.9082 13.6494 25.4487 13.6494 26.0123C13.6494 26.5759 13.8733 27.1164 14.2718 27.5149C14.6703 27.9134 15.2108 28.1373 15.7744 28.1373Z" fill="white"/>
</g>
<defs>
<clipPath id="clip0_3142_3447">
<rect width="51" height="51" fill="white" transform="translate(0.899414 0.5)"/>
</clipPath>
</defs>
</svg>
