<svg width="80" height="71" viewBox="0 0 80 71" fill="none" xmlns="http://www.w3.org/2000/svg">
<path d="M78.7878 32.1085L62.1111 3.09257C61.5689 2.16682 60.7977 1.39611 59.8714 0.854518C58.9454 0.312924 57.8955 0.0186574 56.8228 0H23.4772C22.4046 0.0186574 21.3546 0.312924 20.4286 0.854518C19.5024 1.39611 18.7311 2.16682 18.1889 3.09257L1.51221 32.1085C0.993041 33.0469 0.720703 34.1017 0.720703 35.1742C0.720703 36.2465 0.993041 37.3013 1.51221 38.2396L18.1889 67.2634C18.7311 68.1891 19.5024 68.9598 20.4286 69.5014C21.3546 70.043 22.4046 70.3373 23.4772 70.3559H56.8306C57.9032 70.3373 58.9532 70.043 59.8792 69.5014C60.8054 68.9598 61.5765 68.1891 62.1189 67.2634L78.7956 38.2165C79.3093 37.2803 79.5781 36.2294 79.5768 35.1616C79.5754 34.0936 79.3041 33.0434 78.7878 32.1085ZM56.3821 53.3468H50.6299C50.497 53.3426 50.3672 53.304 50.2535 53.235C50.1397 53.1659 50.0457 53.0686 49.9806 52.9525L40.2467 35.5645C40.1983 35.4786 40.1668 35.3841 40.1539 35.2861C40.141 35.3841 40.1095 35.4786 40.0611 35.5645L30.2963 52.9679C30.2333 53.0808 30.1428 53.1761 30.0335 53.2449C29.924 53.3138 29.7991 53.3541 29.6701 53.3623H23.9179C23.7894 53.3556 23.6647 53.3169 23.5549 53.2498C23.4451 53.1825 23.3539 53.0891 23.2894 52.9777C23.2249 52.8665 23.1892 52.7407 23.1855 52.6122C23.1818 52.4835 23.2104 52.3561 23.2685 52.2412L32.7935 35.178L23.2685 18.0916C23.2192 17.9881 23.1936 17.8751 23.1933 17.7606C23.1931 17.6462 23.2183 17.533 23.2671 17.4295C23.316 17.3259 23.3872 17.2344 23.4757 17.1617C23.5641 17.089 23.6676 17.037 23.7787 17.0091H29.6701C29.7969 17.0149 29.9203 17.0516 30.0295 17.1164C30.1389 17.1811 30.2305 17.2717 30.2963 17.3803L40.0611 34.7915C40.1095 34.8773 40.141 34.9719 40.1539 35.0698C40.1668 34.9719 40.1983 34.8773 40.2467 34.7915L49.9806 17.3647C50.0503 17.256 50.1465 17.1663 50.2599 17.1041C50.3734 17.042 50.5006 17.0093 50.6299 17.0091H56.3821C56.5074 17.0175 56.6289 17.0562 56.7359 17.1221C56.8429 17.188 56.9322 17.2788 56.9961 17.3869C57.0601 17.495 57.0968 17.6171 57.1029 17.7426C57.1091 17.8681 57.0846 17.9931 57.0316 18.107L47.5142 35.178L57.0393 52.2412C57.0941 52.356 57.1199 52.4826 57.1141 52.6097C57.1084 52.7368 57.0714 52.8605 57.0063 52.9698C56.9414 53.0792 56.8504 53.1708 56.7415 53.2366C56.6326 53.3023 56.5092 53.3402 56.3821 53.3468Z" fill="white"/>
</svg>
