<svg width="112" height="110" viewBox="0 0 112 110" fill="none" xmlns="http://www.w3.org/2000/svg">
<path d="M92.119 7.30069e-06H19.819C17.2155 -0.0017025 14.6372 0.509897 12.2317 1.50554C9.82607 2.50118 7.64039 3.96133 5.79963 5.80246C3.95887 7.64359 2.49917 9.82957 1.50401 12.2354C0.508851 14.6411 -0.0022279 17.2195 7.30271e-06 19.823V89.323C-0.00222859 91.9268 0.508982 94.5055 1.50439 96.9116C2.4998 99.3176 3.95986 101.504 5.80104 103.345C7.64222 105.186 9.82838 106.646 12.2344 107.642C14.6405 108.637 17.2192 109.148 19.823 109.146H92.123C94.7267 109.148 97.3053 108.636 99.7111 107.64C102.117 106.644 104.303 105.184 106.143 103.342C107.984 101.501 109.444 99.3147 110.439 96.9086C111.434 94.5024 111.945 91.9237 111.942 89.32V19.82C111.944 17.2164 111.432 14.6381 110.437 12.2324C109.441 9.82665 107.981 7.64085 106.14 5.79998C104.299 3.95912 102.113 2.49932 99.7069 1.5041C97.301 0.508884 94.7226 -0.00222806 92.119 7.30069e-06ZM107.231 87.5C107.241 89.7246 106.812 91.9294 105.968 93.9878C105.125 96.0463 103.883 97.9179 102.314 99.4953C100.745 101.073 98.8806 102.325 96.8268 103.18C94.773 104.035 92.5707 104.476 90.346 104.478H21.6C17.1113 104.472 12.8081 102.686 9.63358 99.5127C6.45901 96.3392 4.67194 92.0367 4.66401 87.548V21.6C4.67036 17.1102 6.45672 12.8062 9.63146 9.63146C12.8062 6.45672 17.1103 4.67036 21.6 4.66401H90.3C92.5238 4.66401 94.7259 5.10211 96.7804 5.95328C98.8349 6.80446 100.702 8.05203 102.274 9.62475C103.846 11.1975 105.093 13.0645 105.944 15.1193C106.794 17.174 107.232 19.3762 107.231 21.6V87.5ZM44.264 51.073L57.324 76.167C57.557 76.54 57.417 76.913 57.044 76.913H48.928C48.7201 76.9394 48.5094 76.8936 48.3312 76.7833C48.153 76.673 48.0181 76.5049 47.949 76.307C44.964 70.15 41.932 63.993 38.807 57.37H38.714C35.914 63.62 32.837 70.197 29.852 76.353C29.7769 76.5108 29.6575 76.6434 29.5083 76.7345C29.3592 76.8256 29.1867 76.8713 29.012 76.866H21.312C20.846 76.866 20.799 76.493 21.032 76.213L33.812 51.866L21.456 27.239C21.3988 27.1861 21.3595 27.1169 21.3433 27.0407C21.327 26.9645 21.3348 26.8852 21.3655 26.8137C21.3962 26.7421 21.4483 26.6818 21.5146 26.641C21.581 26.6003 21.6583 26.581 21.736 26.586H29.759C29.9377 26.5525 30.1224 26.5864 30.2776 26.6811C30.4327 26.7759 30.5472 26.9248 30.599 27.099C33.537 33.256 36.523 39.599 39.321 45.799H39.414C42.118 39.646 45.1 33.256 48 27.146C48.233 26.773 48.373 26.54 48.84 26.54H56.349C56.722 26.54 56.862 26.82 56.629 27.193L44.264 51.073ZM59.609 58.673C59.609 47.805 66.839 39.316 78.309 39.316C79.1185 39.2995 79.9282 39.3306 80.734 39.409V27.053C80.7343 26.9295 80.7835 26.8111 80.8708 26.7238C80.9581 26.6365 81.0765 26.5873 81.2 26.587H88.57C88.943 26.587 89.036 26.727 89.036 26.96V69.777C89.0085 71.3042 89.0863 72.8315 89.269 74.348C89.269 74.628 89.176 74.721 88.896 74.861C85.1666 76.6393 81.0876 77.5634 76.956 77.566C66.835 77.613 59.605 71.366 59.605 58.676L59.609 58.673ZM80.738 46.733C79.8755 46.4021 78.9565 46.2437 78.033 46.267C72.156 46.267 68.052 50.791 68.052 58.301C68.052 66.883 72.252 70.335 77.52 70.335C78.6153 70.3658 79.7066 70.1918 80.738 69.822V46.733Z" fill="white"/>
</svg>
