<svg width="269" height="104" viewBox="0 0 269 104" fill="none" xmlns="http://www.w3.org/2000/svg">
<path d="M82.0405 63.3249C80.456 64.3691 77.9454 64.8298 75.3208 64.8298C66.9815 64.8298 62.2676 59.8105 62.2676 51.8208C62.2676 44.0988 66.9815 38.6934 75.2461 38.6934C77.7172 38.6934 80.1883 39.1585 82.0053 40.4484V43.8093C80.1883 42.651 78.1824 42.0543 75.2461 42.0543C69.2989 42.0543 65.7438 46.003 65.7438 51.8208C65.7438 57.6387 69.413 61.5128 75.4393 61.5128C77.726 61.5337 79.9842 61.004 82.0229 59.9684L82.0405 63.3249Z" fill="white"/>
<path d="M84.4658 54.7608C84.4658 48.9693 87.8629 44.7617 93.6566 44.7617C99.4502 44.7617 102.773 48.9693 102.773 54.7608C102.773 60.5523 99.4107 64.8521 93.6566 64.8521C87.9024 64.8521 84.4658 60.5523 84.4658 54.7608ZM87.7093 54.7608C87.7093 58.4288 89.5264 61.7501 93.6566 61.7501C97.7867 61.7501 99.5292 58.4288 99.5292 54.7608C99.5292 51.0929 97.7735 47.8505 93.6609 47.8505C89.5484 47.8505 87.7181 51.0929 87.7181 54.7608H87.7093Z" fill="white"/>
<path d="M123.059 64.4524H119.736V52.7949C119.736 49.32 118.345 47.7756 115.18 47.7756C112.108 47.7756 109.966 49.8201 109.966 53.7206V64.4524H106.644V45.1474H109.966V48.3152C110.557 47.2189 111.44 46.307 112.516 45.6799C113.593 45.0528 114.821 44.735 116.067 44.7613C120.509 44.7613 123.059 47.8326 123.059 53.1415V64.4524Z" fill="white"/>
<path d="M132.308 45.1477H137.29V48.219H132.308V64.4527H129.065V48.219H125.935V45.1477H129.065V43.0242C129.065 39.4352 131.075 37.0001 135.209 37.0001C135.966 36.9959 136.72 37.0993 137.448 37.3072V40.3785C136.761 40.2479 136.063 40.1832 135.363 40.1855C133.318 40.1855 132.291 41.3832 132.291 43.1207L132.308 45.1477Z" fill="white"/>
<path d="M146.041 64.5678C142.872 64.5678 140.866 63.0629 140.866 59.509V37.0801H144.189V59.1229C144.189 60.8779 145.348 61.479 146.778 61.479C147.101 61.4843 147.423 61.4711 147.744 61.4395V64.4142C147.185 64.5341 146.613 64.5857 146.041 64.5678Z" fill="white"/>
<path d="M150.557 45.1484H153.88V56.806C153.88 60.2809 155.271 61.8253 158.436 61.8253C161.508 61.8253 163.65 59.7808 163.65 55.8803V45.1484H166.981V64.4535H163.659V61.2857C163.068 62.382 162.185 63.2939 161.109 63.921C160.032 64.5481 158.804 64.8659 157.558 64.8396C153.116 64.8396 150.566 61.7683 150.566 56.4638L150.557 45.1484Z" fill="white"/>
<path d="M181.224 64.8384C174 64.8384 170.835 60.6703 170.835 54.7472C170.835 48.9162 174.079 44.748 179.952 44.748C185.899 44.748 188.291 48.8811 188.291 54.7472V56.2521H174.197C174.663 59.5339 176.787 61.6575 181.343 61.6575C183.347 61.6556 185.334 61.3022 187.216 60.6132V63.6845C185.627 64.5269 183.195 64.8384 181.224 64.8384ZM174.158 53.4309H184.933C184.74 49.8419 183.116 47.793 179.798 47.793C176.282 47.771 174.505 50.0481 174.158 53.409V53.4309Z" fill="white"/>
<path d="M208.647 64.4524H205.324V52.7949C205.324 49.32 203.933 47.7756 200.768 47.7756C197.696 47.7756 195.554 49.8201 195.554 53.7206V64.4524H192.232V45.1474H195.554V48.3152C196.145 47.2189 197.028 46.307 198.104 45.6799C199.181 45.0528 200.409 44.735 201.655 44.7613C206.097 44.7613 208.647 47.8326 208.647 53.1415V64.4524Z" fill="white"/>
<path d="M226.92 63.9489C225.761 64.5675 223.983 64.8264 222.206 64.8264C215.332 64.8264 212.111 60.6582 212.111 54.7351C212.111 48.9041 215.315 44.736 222.206 44.736C223.789 44.6841 225.362 45.001 226.801 45.6618V48.733C225.438 48.0911 223.945 47.7742 222.438 47.8073C217.417 47.8073 215.372 50.975 215.372 54.7176C215.372 58.4601 217.457 61.6718 222.513 61.6718C224.006 61.7112 225.494 61.4762 226.902 60.9785L226.92 63.9489Z" fill="white"/>
<path d="M239.933 64.8384C232.708 64.8384 229.544 60.6703 229.544 54.7472C229.544 48.9162 232.787 44.748 238.66 44.748C244.607 44.748 246.999 48.8811 246.999 54.7472V56.2521H232.901C233.367 59.5339 235.491 61.6575 240.047 61.6575C242.05 61.6556 244.038 61.3022 245.919 60.6132V63.6845C244.335 64.5269 241.903 64.8384 239.933 64.8384ZM232.866 53.4309H243.641C243.448 49.8419 241.824 47.793 238.506 47.793C234.991 47.771 233.213 50.0481 232.866 53.409V53.4309Z" fill="white"/>
<path d="M23.9982 58.7318C23.7129 59.1968 23.3925 59.7365 23.1204 60.1665C23.0033 60.3643 22.9685 60.6001 23.0235 60.8232C23.0785 61.0464 23.2189 61.2391 23.4145 61.3599L29.1203 64.8699C29.2195 64.9311 29.3298 64.9719 29.4449 64.99C29.56 65.0082 29.6776 65.0032 29.7907 64.9754C29.9039 64.9477 30.0104 64.8976 30.104 64.8283C30.1977 64.7589 30.2765 64.6717 30.3361 64.5715C30.5643 64.1898 30.8584 63.694 31.1788 63.1631C33.4392 59.4338 35.7127 59.8901 39.8121 61.8469L45.4697 64.5364C45.5757 64.5869 45.6908 64.6156 45.8082 64.6207C45.9255 64.6259 46.0427 64.6075 46.1528 64.5666C46.2629 64.5257 46.3637 64.4631 46.4491 64.3826C46.5346 64.302 46.603 64.2051 46.6504 64.0977L49.3672 57.9552C49.4595 57.7443 49.4652 57.5057 49.3831 57.2906C49.301 57.0756 49.1376 56.9014 48.9283 56.8056C47.7345 56.244 45.36 55.1252 43.2225 54.0942C35.5328 50.3604 28.9974 50.6017 23.9982 58.7318Z" fill="white"/>
<path d="M49.5812 44.7917C49.8665 44.3266 50.1869 43.787 50.459 43.357C50.5761 43.1592 50.6109 42.9234 50.5559 42.7002C50.5009 42.4771 50.3605 42.2844 50.1649 42.1636L44.4591 38.6536C44.3592 38.5863 44.2465 38.5403 44.1281 38.5185C44.0097 38.4966 43.888 38.4993 43.7707 38.5265C43.6533 38.5537 43.5429 38.6047 43.4461 38.6764C43.3493 38.748 43.2683 38.8388 43.2082 38.9431C42.98 39.3249 42.6859 39.8206 42.3655 40.3515C40.1051 44.0809 37.8316 43.6246 33.7321 41.6678L28.0922 38.9914C27.9861 38.9409 27.871 38.9123 27.7537 38.9071C27.6363 38.9019 27.5191 38.9203 27.409 38.9612C27.2989 39.0021 27.1982 39.0647 27.1127 39.1453C27.0273 39.2258 26.9588 39.3227 26.9115 39.4302L24.1947 45.5727C24.1024 45.7835 24.0967 46.0222 24.1788 46.2372C24.2609 46.4522 24.4242 46.6264 24.6336 46.7222C25.8274 47.2838 28.2019 48.4026 30.3394 49.4337C38.0466 53.163 44.582 52.913 49.5812 44.7917Z" fill="white"/>
</svg>
