<svg width="26" height="25" viewBox="0 0 26 25" fill="none" xmlns="http://www.w3.org/2000/svg">
<path d="M24.4619 0.543059C23.7378 -0.18102 22.5636 -0.18102 21.8395 0.543059L21.3242 1.05835C22.5825 1.43805 23.5669 2.42244 23.9466 3.68073L24.4619 3.16545C25.1862 2.44117 25.1862 1.26714 24.4619 0.543059Z" fill="white"/>
<path d="M14.4307 14.4327C14.2067 14.6567 13.926 14.8157 13.6184 14.8926L12.7669 15.1054V17.0453C12.7669 17.2182 12.6653 17.3745 12.5074 17.4449L8.57384 19.1932C8.57266 19.1937 8.5713 19.1934 8.57013 19.1939C8.51667 19.2172 8.45832 19.2306 8.39628 19.2306C8.33423 19.2306 8.27589 19.2172 8.22242 19.1939C8.22125 19.1934 8.21989 19.1937 8.21872 19.1932L4.28514 17.4449C4.12728 17.3745 4.02563 17.2182 4.02563 17.0453V12.6747C4.02563 12.5018 4.12729 12.3455 4.28514 12.2751L8.21872 10.5268C8.3315 10.4765 8.46125 10.4765 8.57383 10.5268L10.1714 11.2368C10.2581 10.9902 10.3859 10.7598 10.5716 10.574L14.5151 6.63068V2.62218C14.5151 2.13945 14.1237 1.74805 13.641 1.74805H10.1445C10.1445 2.71348 9.36168 3.4963 8.39625 3.4963C7.43081 3.4963 6.64799 2.71348 6.64799 1.74805H3.15147C2.66875 1.74805 2.27734 2.13945 2.27734 2.62218V21.853C2.27734 22.3357 2.66875 22.7271 3.15147 22.7271H13.641C14.1237 22.7271 14.5151 22.3357 14.5151 21.853V14.348L14.4307 14.4327Z" fill="white"/>
<path d="M4.8999 13.3477V16.7617L7.95935 18.1212V14.7073L4.8999 13.3477Z" fill="white"/>
<path d="M5.53955 12.6749L8.39685 13.9449L9.60755 13.4068L9.93671 12.0895L8.39684 11.4053L5.53955 12.6749Z" fill="white"/>
<path d="M11.8935 15.3246L10.3573 15.7086C9.71715 15.8687 9.13723 15.2889 9.29722 14.6487L9.33858 14.4834L8.83398 14.7076V18.1214L11.8934 16.762L11.8935 15.3246Z" fill="white"/>
<path d="M15.3895 13.4741V21.8532C15.3895 22.8175 14.6055 23.6015 13.6412 23.6015H3.15168C2.18739 23.6015 1.40343 22.8175 1.40343 21.8532V2.62239C1.40343 1.6581 2.18739 0.874129 3.15168 0.874129H13.6412C14.6055 0.874129 15.3895 1.6581 15.3895 2.62239V5.75676L16.2636 4.88263V2.62239C16.2636 1.17638 15.0872 0 13.6412 0H3.15168C1.70567 0 0.529297 1.17638 0.529297 2.62239V21.8532C0.529297 23.2992 1.70567 24.4756 3.15168 24.4756H13.6412C15.0872 24.4756 16.2636 23.2992 16.2636 21.8532V12.5999L15.3895 13.4741Z" fill="white"/>
<path d="M11.7085 10.6741C12.194 10.8206 12.6365 11.0543 13.0232 11.3636L22.0207 2.36659C21.6112 2.05967 21.1251 1.85889 20.594 1.78906L11.7085 10.6741Z" fill="white"/>
<path d="M22.6386 2.98447L13.6411 11.982C13.9504 12.3687 14.1843 12.8113 14.3307 13.2967L23.2163 4.41105C23.1465 3.88013 22.9457 3.39412 22.6388 2.98438L22.6386 2.98447Z" fill="white"/>
<path d="M11.0089 11.4062L10.1455 14.8597L13.5989 13.9963C13.4091 12.6531 12.3521 11.5961 11.0089 11.4062Z" fill="white"/>
</svg>
