<svg width="269" height="104" viewBox="0 0 269 104" fill="none" xmlns="http://www.w3.org/2000/svg">
<path d="M62.2716 40.5645H65.4077V56.4828C65.4077 60.7 63.5625 63.6104 59.2384 63.6104C57.9596 63.6298 56.6871 63.4289 55.4766 63.0165V59.9674C56.5092 60.3678 57.6082 60.5693 58.7157 60.5614C61.3648 60.5614 62.2795 58.9775 62.2795 56.6927L62.2716 40.5645Z" fill="white"/>
<path d="M71.1222 39.3409C71.4019 39.3209 71.6826 39.3613 71.9454 39.4593C72.2081 39.5573 72.4467 39.7106 72.645 39.9089C72.8433 40.1072 72.9966 40.3458 73.0946 40.6085C73.1926 40.8712 73.233 41.152 73.2129 41.4317C73.2129 41.9862 72.9927 42.518 72.6006 42.9101C72.2085 43.3022 71.6767 43.5225 71.1222 43.5225C70.5677 43.5225 70.0359 43.3022 69.6438 42.9101C69.2517 42.518 69.0314 41.9862 69.0314 41.4317C69.0114 41.152 69.0517 40.8712 69.1497 40.6085C69.2477 40.3458 69.4011 40.1072 69.5994 39.9089C69.7976 39.7106 70.0362 39.5573 70.299 39.4593C70.5617 39.3613 70.8425 39.3209 71.1222 39.3409ZM69.5897 46.033H72.5873V63.456H69.5897V46.033Z" fill="white"/>
<path d="M77.1123 46.0292H80.0386V49.0941C81.0484 47.039 82.8105 45.5739 86.208 45.7837V48.71C82.3749 48.314 80.0386 49.4782 80.0386 53.1687V63.4642H77.1123V46.0292Z" fill="white"/>
<path d="M100.251 60.3151C99.1344 62.6157 97.0436 63.7997 94.3628 63.7997C89.7299 63.7997 87.3936 59.8637 87.3936 54.7397C87.3936 49.8256 89.8328 45.6797 94.7113 45.6797C97.2535 45.6797 99.2057 46.8281 100.255 49.0931V46.0282H103.253V63.4512H100.255L100.251 60.3151ZM95.1627 61.012C97.8474 61.012 100.251 59.3054 100.251 55.4366V54.027C100.251 50.1582 98.0573 48.4516 95.4993 48.4516C92.1176 48.4516 90.3753 50.6809 90.3753 54.7239C90.3912 58.9213 92.0622 61.012 95.1667 61.012H95.1627Z" fill="white"/>
<path d="M120.982 63.8013C116.556 63.8013 114.501 62.9302 112.723 62.0234V58.8199C114.849 59.9366 118.124 60.7365 121.153 60.7365C124.602 60.7365 125.904 59.3783 125.904 57.3548C125.904 55.3314 124.649 54.2543 120.293 53.2089C115.146 51.9537 112.837 50.1757 112.837 46.4139C112.837 42.8501 115.554 40.2129 120.887 40.2129C124.198 40.2129 126.324 41.0049 127.892 41.8839V45.0201C125.712 43.8189 123.253 43.2177 120.765 43.2778C117.767 43.2778 115.989 44.3232 115.989 46.4139C115.989 48.2948 117.455 49.2373 121.493 50.247C126.336 51.4666 129.056 53.0188 129.056 57.1449C129.033 61.1166 126.665 63.8013 120.982 63.8013Z" fill="white"/>
<path d="M131.681 54.7041C131.681 49.4772 134.746 45.6797 139.973 45.6797C145.2 45.6797 148.198 49.4772 148.198 54.7041C148.198 59.931 145.164 63.8116 139.973 63.8116C134.782 63.8116 131.681 59.931 131.681 54.7041ZM134.608 54.7041C134.608 58.0145 136.247 61.012 139.973 61.012C143.699 61.012 145.271 58.0145 145.271 54.7041C145.271 51.3937 143.668 48.4833 139.973 48.4833C136.279 48.4833 134.624 51.3937 134.624 54.7041H134.608Z" fill="white"/>
<path d="M155.828 46.029H160.323V48.8008H155.828V63.452H152.902V48.8008H150.067V46.029H152.89V44.1283C152.89 40.8892 154.704 38.6915 158.434 38.6915C159.117 38.6877 159.797 38.781 160.454 38.9687V41.7405C159.834 41.6226 159.204 41.5643 158.573 41.5663C156.727 41.5663 155.801 42.6473 155.801 44.2154L155.828 46.029Z" fill="white"/>
<path d="M170.465 60.5253C171.098 60.5064 171.728 60.4241 172.346 60.2798V63.1704C171.689 63.3583 171.009 63.4516 170.326 63.4476C166.596 63.4476 164.782 61.2539 164.782 58.0108V48.8162H161.947V46.0443H164.771V42.334H167.697V46.0285H172.33V48.8004H167.697V57.9475C167.713 59.4799 168.62 60.5253 170.465 60.5253Z" fill="white"/>
<path d="M173.183 46.0293H176.494L181.511 60.8032L186.595 46.0293H189.454L194.542 60.8032L199.563 46.0293H202.874L196.463 63.4523H192.63L189.632 55.0219L188.048 49.6564L186.464 55.0219L183.427 63.4523H179.594L173.183 46.0293Z" fill="white"/>
<path d="M216.565 60.3153C215.448 62.6159 213.357 63.7999 210.677 63.7999C206.044 63.7999 203.707 59.8639 203.707 54.7399C203.707 49.8258 206.147 45.6799 211.025 45.6799C213.567 45.6799 215.519 46.8283 216.569 49.0933V46.0284H219.566V63.4514H216.569L216.565 60.3153ZM211.476 61.0122C214.161 61.0122 216.565 59.3056 216.565 55.4368V54.0272C216.565 50.1584 214.371 48.4518 211.813 48.4518C208.447 48.4835 206.693 50.697 206.693 54.7399C206.693 58.9215 208.376 61.0122 211.48 61.0122H211.476Z" fill="white"/>
<path d="M224.092 46.0292H227.018V49.0941C228.028 47.039 229.79 45.5739 233.187 45.7837V48.71C229.354 48.314 227.018 49.4782 227.018 53.1687V63.4642H224.092V46.0292Z" fill="white"/>
<path d="M243.745 63.8017C237.227 63.8017 234.372 60.0399 234.372 54.6942C234.372 49.4317 237.298 45.6699 242.596 45.6699C247.962 45.6699 250.12 49.4 250.12 54.6942V56.0524H237.405C237.825 59.0144 239.741 60.9309 243.852 60.9309C245.659 60.9292 247.453 60.6103 249.15 59.9885V62.7603C247.72 63.5325 245.523 63.8017 243.745 63.8017ZM237.369 53.5063H247.083C246.909 50.2672 245.443 48.418 242.45 48.418C239.286 48.4021 237.682 50.4652 237.369 53.4865V53.5063Z" fill="white"/>
<path d="M47.6678 51.1602L34.7589 38.2513L33.5076 37L23.7903 46.7173L19.3474 51.1602C19.125 51.3829 19 51.6849 19 51.9997C19 52.3145 19.125 52.6164 19.3474 52.8391L28.2253 61.717L33.5076 66.9993L43.2249 57.282L43.3754 57.1315L47.6678 52.8391C47.8902 52.6164 48.0152 52.3145 48.0152 51.9997C48.0152 51.6849 47.8902 51.3829 47.6678 51.1602ZM33.5076 56.4346L29.0726 51.9997L33.5076 47.5647L37.9426 51.9997L33.5076 56.4346Z" fill="white"/>
<path d="M33.5057 47.5661C32.1108 46.1711 31.3246 44.2809 31.3186 42.3081C31.3127 40.3354 32.0875 38.4405 33.474 37.0371L23.7686 46.7385L29.0509 52.0209L33.5057 47.5661Z" fill="white"/>
<path d="M37.9528 51.9883L33.5059 56.4351C34.1999 57.1287 34.7504 57.9522 35.126 58.8585C35.5016 59.7649 35.6949 60.7364 35.6949 61.7175C35.6949 62.6986 35.5016 63.6701 35.126 64.5765C34.7504 65.4828 34.1999 66.3063 33.5059 66.9998L43.2351 57.2707L37.9528 51.9883Z" fill="white"/>
</svg>
