<svg width="84" height="84" viewBox="0 0 84 84" fill="none" xmlns="http://www.w3.org/2000/svg">
<path d="M76.2805 76.0106C76.1315 77.1774 75.7541 78.3033 75.1698 79.3242C74.5855 80.3451 73.8058 81.2408 72.8752 81.9602C71.9447 82.6797 70.8815 83.2087 69.7464 83.5172C68.6113 83.8256 67.4266 83.9074 66.2599 83.7578L7.82287 76.2776C6.65578 76.1287 5.52947 75.7514 4.50827 75.1671C3.48707 74.5828 2.59101 73.803 1.87128 72.8723C1.15156 71.9416 0.622269 70.8782 0.313664 69.7428C0.00506001 68.6075 -0.0768135 67.4225 0.072722 66.2555L7.55299 7.81844C7.70219 6.65181 8.07975 5.52599 8.66412 4.50531C9.24849 3.48462 10.0282 2.58906 10.9588 1.86977C11.8893 1.15048 12.9524 0.621554 14.0874 0.313207C15.2224 0.00486063 16.407 -0.0768673 17.5736 0.0726911L76.0106 7.55296C77.1773 7.70216 78.3032 8.07972 79.324 8.66407C80.3447 9.24842 81.2404 10.0281 81.9598 10.9586C82.6792 11.8891 83.2082 12.9523 83.5168 14.0873C83.8253 15.2223 83.9072 16.4069 83.7579 17.5736L76.2805 76.0106Z" fill="#6BB64A" fill-opacity="0.38"/>
<path d="M67.5398 4.55859H16.2956C9.81524 4.55859 4.56186 9.81197 4.56186 16.2923V67.5351C4.56186 74.0155 9.81524 79.2689 16.2956 79.2689H67.5398C74.0202 79.2689 79.2736 74.0155 79.2736 67.5351V16.2923C79.2736 9.81197 74.0202 4.55859 67.5398 4.55859Z" fill="#6BB64A"/>
<path d="M37.5058 49.2527C35.3204 51.0692 32.5479 52.0271 29.7072 51.9471H17.4352V27.403H29.7087C32.5614 27.356 35.3341 28.3463 37.5116 30.1898V45.2706V22.9383C35.0671 21.8085 32.4015 21.2378 29.7087 21.2677H11.297V58.0897H29.7072C32.0062 58.0997 34.2867 57.6788 36.4307 56.8489C36.6493 56.7767 36.8625 56.6889 37.0687 56.5863L37.098 56.5731L37.3474 56.4133L37.5131 56.3032L37.5058 49.2527Z" fill="white"/>
<path d="M37.4994 22.9688V30.2173L37.5126 30.2261V45.3113L43.6493 41.7912V33.6274L49.6409 37.1182L55.9243 33.6875L37.5126 22.9805L37.4994 22.9688Z" fill="white"/>
<path d="M37.5074 49.2904C37.5074 49.2904 37.5074 49.2904 37.5074 49.2977V56.3468L68.1999 36.3832V62.5613H74.3367V25.7363L37.5074 49.2904Z" fill="white"/>
</svg>
