<svg width="70" height="70" viewBox="0 0 70 70" fill="none" xmlns="http://www.w3.org/2000/svg">
<path d="M46.8177 40.1581L45.134 37.7731C47.2739 36.7394 49.5257 35.9553 51.8448 35.4363C52.156 35.3654 52.4263 35.1739 52.5964 34.9037C52.7664 34.6336 52.8222 34.3071 52.7516 33.9959C52.7232 33.8414 52.664 33.6943 52.5776 33.5632C52.4911 33.4321 52.3792 33.3197 52.2485 33.2328C52.1177 33.1458 51.9708 33.086 51.8165 33.057C51.6622 33.028 51.5036 33.0304 51.3502 33.0639C48.6679 33.6679 46.0699 34.5988 43.6143 35.8357L38.7169 30.3644L33.0654 25.0503C34.6692 22.9596 35.962 20.6478 36.9035 18.1868C38.4838 13.9285 39.2621 9.4145 39.199 4.8729C39.199 4.71826 39.1685 4.56513 39.1093 4.42226C39.0501 4.27939 38.9634 4.14957 38.8541 4.04022C38.7447 3.93087 38.6149 3.84413 38.472 3.78495C38.3291 3.72577 38.176 3.69531 38.0214 3.69531C37.8667 3.69531 37.7136 3.72577 37.5707 3.78495C37.4279 3.84413 37.298 3.93087 37.1887 4.04022C37.0793 4.14957 36.9926 4.27939 36.9334 4.42226C36.8742 4.56513 36.8438 4.71826 36.8438 4.8729C36.8438 12.448 34.9603 18.7216 31.2279 23.5514C30.522 22.9947 29.8391 22.4862 29.1906 22.0386C25.706 19.618 23.6217 19.0487 22.4556 20.2022L22.4315 20.2263C22.1329 20.5339 21.9393 20.928 21.8783 21.3523L4.50829 63.9555C4.41694 64.1766 4.39284 64.4198 4.43897 64.6546C4.48511 64.8893 4.59944 65.1053 4.76768 65.2754C4.87065 65.3903 4.99685 65.4821 5.13792 65.5446C5.27899 65.6071 5.43172 65.639 5.58602 65.6381C5.74376 65.6352 5.89953 65.6025 6.04512 65.5417L47.4788 47.6747C47.8591 47.6171 48.2125 47.444 48.4911 47.1789C48.5152 47.1663 48.5267 47.1422 48.5497 47.1181L48.5979 47.0698C49.7146 45.8831 49.1717 43.7517 46.8177 40.1581ZM28.6741 53.1575C29.6434 50.9554 30.354 48.6483 30.7917 46.2825C31.4859 42.5982 31.4078 38.8099 30.5622 35.1574C31.1154 35.7622 31.6927 36.3683 32.2838 36.9731C34.0502 38.7889 35.828 40.4588 37.5233 41.936C37.358 47.6495 34.8031 50.2526 34.2499 50.7484L28.6741 53.1575ZM22.6599 55.7606C22.931 55.0633 23.1358 54.342 23.2717 53.6063C24.214 48.6549 22.6714 42.542 18.7036 35.4248L19.9753 32.3018C21.0111 33.5703 21.8926 34.9573 22.6014 36.4337C22.6884 36.6503 22.8379 36.8362 23.0308 36.9676C23.2237 37.099 23.4514 37.17 23.6849 37.1717C23.8428 37.1702 23.9988 37.1375 24.144 37.0753C24.4328 36.9431 24.6585 36.7032 24.7729 36.4068C24.8872 36.1104 24.881 35.781 24.7557 35.4891C23.7793 33.4335 22.5058 31.5328 20.9762 29.8479L22.9193 25.079C23.3126 25.8029 23.7365 26.5091 24.191 27.1977C24.5606 27.7556 24.9432 28.3042 25.3388 28.8436C28.5299 33.8994 29.6554 39.9885 28.4824 45.8509C27.9582 48.9746 26.8433 51.9697 25.1976 54.676L22.6599 55.7606ZM17.5387 38.2689C21.2 45.4114 21.4708 50.132 21.0003 52.9165C20.8077 54.5916 20.0716 56.1574 18.9045 57.3743L15.7964 58.7057C16.485 56.1807 16.6675 52.1636 14.007 46.9149L17.5387 38.2689ZM39.7556 43.7781C40.4282 44.3076 41.1168 44.8161 41.8216 45.3035C42.5756 45.8245 43.2585 46.2595 43.8875 46.6107L38.3301 49.0073C39.0889 47.3534 39.5704 45.586 39.7556 43.7758V43.7781ZM29.6612 25.3763C29.5785 25.4612 29.4959 25.5576 29.4144 25.6425C29.1932 25.8715 29.0695 26.1775 29.0695 26.4959C29.0695 26.8143 29.1932 27.1203 29.4144 27.3492C29.5223 27.4618 29.6521 27.5511 29.7958 27.6115C29.9395 27.6719 30.0941 27.7022 30.25 27.7005C30.5639 27.6979 30.8641 27.5717 31.0855 27.3492L31.5217 26.8901C33.311 28.4029 35.1945 30.183 37.0435 32.0837C38.6331 33.7181 40.1286 35.3881 41.4589 36.9857C41.2465 37.1063 41.0354 37.2279 40.823 37.361C40.5506 37.528 40.3531 37.7937 40.2719 38.1027C40.1906 38.4117 40.2318 38.7402 40.3869 39.0195C40.4624 39.1551 40.564 39.2743 40.6859 39.3703C40.8077 39.4663 40.9474 39.5371 41.0969 39.5788C41.2463 39.6204 41.4025 39.632 41.5565 39.6128C41.7104 39.5937 41.859 39.5441 41.9937 39.4672L42.9705 38.9105C43.4766 39.5762 43.9598 40.2304 44.3833 40.8468C45.4177 42.1678 46.2142 43.6588 46.7374 45.253C45.1754 44.7093 43.7238 43.8894 42.4517 42.8324C39.4182 40.5444 36.5716 38.0187 33.9388 35.279C31.2576 32.5654 28.801 29.6386 26.5932 26.5275C25.5596 25.2059 24.7638 23.7145 24.2415 22.1201C25.8035 22.6638 27.2551 23.4837 28.5272 24.5407C28.9175 24.7995 29.2941 25.0784 29.6554 25.3763H29.6612ZM12.7698 49.9496C13.7139 52.1783 14.0509 54.6173 13.7465 57.0185C13.5988 58.0916 13.2387 59.1244 12.6871 60.0566L7.77363 62.1765L12.7698 49.9496Z" fill="white"/>
<path d="M26.475 38.5119C26.3737 38.293 26.2155 38.1054 26.0169 37.9686C25.8182 37.8319 25.5865 37.751 25.3459 37.7346C25.1052 37.7181 24.8646 37.7667 24.6492 37.8751C24.4338 37.9836 24.2515 38.1479 24.1214 38.351C23.9913 38.5541 23.9182 38.7884 23.9098 39.0294C23.9013 39.2704 23.9578 39.5093 24.0733 39.721C24.1888 39.9327 24.3592 40.1094 24.5664 40.2327C24.7737 40.356 25.0103 40.4213 25.2515 40.4218C25.4031 40.4216 25.5535 40.3944 25.6957 40.3414C25.8624 40.2841 26.016 40.1943 26.1477 40.0771C26.2794 39.96 26.3865 39.8179 26.4629 39.659C26.5392 39.5001 26.5832 39.3277 26.5924 39.1516C26.6016 38.9756 26.5757 38.7995 26.5163 38.6336L26.475 38.5119Z" fill="white"/>
<path d="M47.7451 22.9517C47.8699 23.0775 48.0188 23.1769 48.1828 23.244C48.3469 23.311 48.5228 23.3443 48.7 23.3419C49.0569 23.3405 49.3992 23.2006 49.6549 22.9517C52.654 19.9526 57.5228 18.5673 61.0877 18.285C61.2669 18.2742 61.4421 18.2278 61.6032 18.1485C61.7642 18.0691 61.9078 17.9585 62.0256 17.823C62.1433 17.6874 62.2329 17.5298 62.289 17.3593C62.345 17.1887 62.3665 17.0087 62.3522 16.8297C62.3378 16.6508 62.2879 16.4765 62.2054 16.317C62.1228 16.1576 62.0093 16.0163 61.8715 15.9013C61.7336 15.7862 61.5742 15.6999 61.4026 15.6472C61.2309 15.5946 61.0505 15.5767 60.8719 15.5946C56.8364 15.9172 51.2824 17.5183 47.7577 21.0419C47.6305 21.1658 47.5291 21.3138 47.4595 21.4772C47.3899 21.6407 47.3534 21.8163 47.3521 21.9939C47.3508 22.1715 47.3848 22.3477 47.452 22.5121C47.5193 22.6765 47.6185 22.8259 47.7439 22.9517H47.7451Z" fill="white"/>
<path d="M65.3917 15.9578C65.3532 15.9426 65.3125 15.9337 65.2712 15.9314C65.0984 15.8847 64.9181 15.8729 64.7407 15.8968C64.5634 15.9207 64.3926 15.9798 64.2384 16.0706C64.0842 16.1614 63.9496 16.2821 63.8427 16.4256C63.7358 16.5691 63.6585 16.7325 63.6156 16.9062C63.5726 17.0799 63.5648 17.2605 63.5926 17.4373C63.6203 17.614 63.6831 17.7835 63.7772 17.9357C63.8714 18.0879 63.9949 18.2198 64.1407 18.3236C64.2865 18.4274 64.4515 18.501 64.6261 18.5402L64.6939 18.554C64.8068 18.5802 64.9223 18.5937 65.0382 18.5942C65.3662 18.5977 65.684 18.4808 65.9316 18.2657C66.1793 18.0507 66.3394 17.7523 66.3819 17.427C66.4243 17.1018 66.346 16.7723 66.1618 16.5009C65.9777 16.2295 65.7004 16.0351 65.3825 15.9543L65.3917 15.9578Z" fill="white"/>
<path d="M14.2951 14.9075H15.6403V16.2527C15.6403 16.6094 15.782 16.9516 16.0343 17.2039C16.2865 17.4561 16.6287 17.5978 16.9854 17.5978C17.3422 17.5978 17.6843 17.4561 17.9366 17.2039C18.1889 16.9516 18.3306 16.6094 18.3306 16.2527V14.9075H19.6758C20.0325 14.9075 20.3747 14.7658 20.6269 14.5135C20.8792 14.2613 21.0209 13.9191 21.0209 13.5624C21.0209 13.2056 20.8792 12.8635 20.6269 12.6112C20.3747 12.3589 20.0325 12.2172 19.6758 12.2172H18.3306V10.8686C18.3306 10.5118 18.1889 10.1697 17.9366 9.91742C17.6843 9.66516 17.3422 9.52344 16.9854 9.52344C16.6287 9.52344 16.2865 9.66516 16.0343 9.91742C15.782 10.1697 15.6403 10.5118 15.6403 10.8686V12.2138H14.2951C14.1185 12.2138 13.9435 12.2486 13.7803 12.3162C13.6171 12.3838 13.4688 12.4828 13.3439 12.6077C13.219 12.7327 13.1199 12.8809 13.0523 13.0442C12.9847 13.2074 12.95 13.3823 12.95 13.5589C12.95 13.7356 12.9847 13.9105 13.0523 14.0737C13.1199 14.2369 13.219 14.3852 13.3439 14.5101C13.4688 14.635 13.6171 14.7341 13.7803 14.8017C13.9435 14.8693 14.1185 14.9041 14.2951 14.9041V14.9075Z" fill="white"/>
<path d="M41.2362 25.8107H42.5813V27.1535C42.5813 27.5103 42.723 27.8524 42.9753 28.1047C43.2276 28.357 43.5697 28.4987 43.9265 28.4987C44.2832 28.4987 44.6254 28.357 44.8776 28.1047C45.1299 27.8524 45.2716 27.5103 45.2716 27.1535V25.8107H46.6168C46.7934 25.8107 46.9684 25.7759 47.1316 25.7083C47.2948 25.6407 47.4431 25.5416 47.568 25.4167C47.6929 25.2918 47.792 25.1435 47.8596 24.9803C47.9272 24.8171 47.962 24.6422 47.962 24.4655C47.962 24.2889 47.9272 24.1139 47.8596 23.9507C47.792 23.7875 47.6929 23.6392 47.568 23.5143C47.4431 23.3894 47.2948 23.2903 47.1316 23.2227C46.9684 23.1551 46.7934 23.1204 46.6168 23.1204H45.2705V21.7729C45.2705 21.4161 45.1288 21.074 44.8765 20.8217C44.6242 20.5695 44.2821 20.4277 43.9253 20.4277C43.5686 20.4277 43.2264 20.5695 42.9742 20.8217C42.7219 21.074 42.5802 21.4161 42.5802 21.7729V23.1181H41.2362C41.0595 23.1181 40.8846 23.1528 40.7214 23.2204C40.5582 23.288 40.4099 23.3871 40.285 23.512C40.1601 23.637 40.061 23.7852 39.9934 23.9484C39.9258 24.1116 39.891 24.2866 39.891 24.4632C39.891 24.6399 39.9258 24.8148 39.9934 24.978C40.061 25.1412 40.1601 25.2895 40.285 25.4144C40.4099 25.5393 40.5582 25.6384 40.7214 25.706C40.8846 25.7736 41.0595 25.8084 41.2362 25.8084V25.8107Z" fill="white"/>
<path d="M57.5767 52.9413H56.2315V51.5961C56.2315 51.2394 56.0898 50.8972 55.8375 50.645C55.5853 50.3927 55.2431 50.251 54.8864 50.251C54.5296 50.251 54.1875 50.3927 53.9352 50.645C53.6829 50.8972 53.5412 51.2394 53.5412 51.5961V52.9413H52.1961C52.0194 52.9413 51.8445 52.9761 51.6813 53.0437C51.5181 53.1113 51.3698 53.2104 51.2449 53.3353C51.12 53.4602 51.0209 53.6085 50.9533 53.7717C50.8857 53.9349 50.8509 54.1098 50.8509 54.2865C50.8509 54.4631 50.8857 54.638 50.9533 54.8012C51.0209 54.9644 51.12 55.1127 51.2449 55.2376C51.3698 55.3625 51.5181 55.4616 51.6813 55.5292C51.8445 55.5968 52.0194 55.6316 52.1961 55.6316H53.5412V56.9768C53.5412 57.3335 53.6829 57.6757 53.9352 57.9279C54.1875 58.1802 54.5296 58.3219 54.8864 58.3219C55.2431 58.3219 55.5853 58.1802 55.8375 57.9279C56.0898 57.6757 56.2315 57.3335 56.2315 56.9768V55.6316H57.5767C57.7533 55.6316 57.9283 55.5968 58.0915 55.5292C58.2547 55.4616 58.403 55.3625 58.5279 55.2376C58.6528 55.1127 58.7519 54.9644 58.8195 54.8012C58.8871 54.638 58.9219 54.4631 58.9219 54.2865C58.9219 54.1098 58.8871 53.9349 58.8195 53.7717C58.7519 53.6085 58.6528 53.4602 58.5279 53.3353C58.403 53.2104 58.2547 53.1113 58.0915 53.0437C57.9283 52.9761 57.7533 52.9413 57.5767 52.9413Z" fill="white"/>
<path d="M51.38 11.7295C52.1784 11.7295 52.9589 11.4927 53.6228 11.0491C54.2866 10.6055 54.804 9.97503 55.1095 9.23737C55.415 8.4997 55.4948 7.68802 55.339 6.90495C55.1831 6.12189 54.7986 5.40263 54.2339 4.83815C53.6693 4.27366 52.9499 3.8893 52.1668 3.73367C51.3837 3.57805 50.572 3.65815 49.8345 3.96385C49.0969 4.26955 48.4665 4.78711 48.0231 5.45108C47.5797 6.11506 47.3432 6.89561 47.3434 7.69403C47.3434 8.22407 47.4478 8.74893 47.6507 9.23861C47.8536 9.72829 48.1509 10.1732 48.5258 10.548C48.9006 10.9227 49.3456 11.2199 49.8354 11.4227C50.3251 11.6254 50.85 11.7297 51.38 11.7295ZM51.38 6.35002C51.6464 6.34979 51.9068 6.42859 52.1284 6.57643C52.35 6.72428 52.5227 6.93453 52.6248 7.18059C52.7268 7.42664 52.7536 7.69744 52.7017 7.9587C52.6497 8.21997 52.5215 8.45996 52.3331 8.64831C52.1448 8.83666 51.9048 8.96491 51.6435 9.01682C51.3823 9.06874 51.1115 9.04197 50.8654 8.93993C50.6194 8.83789 50.4091 8.66516 50.2613 8.44358C50.1134 8.22201 50.0346 7.96155 50.0349 7.69518C50.0349 7.33842 50.1766 6.99627 50.4288 6.74401C50.6811 6.49174 51.0233 6.35002 51.38 6.35002Z" fill="white"/>
<path d="M58.3847 24.3643C57.5866 24.3643 56.8064 24.6009 56.1427 25.0444C55.4791 25.4878 54.9619 26.118 54.6564 26.8554C54.351 27.5928 54.2711 28.4042 54.4268 29.187C54.5825 29.9698 54.9668 30.6889 55.5312 31.2533C56.0956 31.8176 56.8146 32.202 57.5974 32.3577C58.3802 32.5134 59.1916 32.4335 59.929 32.128C60.6664 31.8226 61.2967 31.3054 61.7401 30.6417C62.1835 29.9781 62.4202 29.1979 62.4202 28.3997C62.4202 27.3295 61.995 26.303 61.2382 25.5462C60.4814 24.7894 59.455 24.3643 58.3847 24.3643ZM58.3847 29.7449C58.1185 29.7447 57.8582 29.6655 57.6369 29.5174C57.4157 29.3692 57.2433 29.1588 57.1416 28.9127C57.0399 28.6666 57.0135 28.3959 57.0657 28.1348C57.1178 27.8737 57.2463 27.6339 57.4347 27.4458C57.6231 27.2577 57.8631 27.1297 58.1243 27.0779C58.3855 27.0262 58.6562 27.0531 58.9021 27.1552C59.1481 27.2573 59.3582 27.43 59.5059 27.6516C59.6537 27.8731 59.7324 28.1335 59.7322 28.3997C59.7322 28.7565 59.5905 29.0986 59.3382 29.3509C59.0859 29.6032 58.7438 29.7449 58.387 29.7449H58.3847Z" fill="white"/>
<path d="M28.541 16.5143C29.3391 16.5143 30.1193 16.2776 30.783 15.8342C31.4466 15.3908 31.9638 14.7605 32.2693 14.0232C32.5747 13.2858 32.6546 12.4744 32.4989 11.6916C32.3432 10.9088 31.9589 10.1897 31.3945 9.62533C30.8301 9.06096 30.1111 8.67661 29.3283 8.5209C28.5455 8.36519 27.7341 8.44511 26.9967 8.75054C26.2593 9.05598 25.629 9.57322 25.1856 10.2368C24.7422 10.9005 24.5055 11.6807 24.5055 12.4788C24.5055 13.0088 24.6099 13.5336 24.8127 14.0232C25.0155 14.5128 25.3127 14.9576 25.6875 15.3324C26.0622 15.7071 26.5071 16.0043 26.9967 16.2071C27.4863 16.4099 28.011 16.5143 28.541 16.5143ZM28.541 11.1348C28.8077 11.1344 29.0685 11.2131 29.2904 11.361C29.5124 11.5088 29.6854 11.7193 29.7877 11.9656C29.89 12.2119 29.9169 12.483 29.8649 12.7446C29.813 13.0062 29.6846 13.2465 29.4961 13.4351C29.3075 13.6237 29.0672 13.752 28.8056 13.804C28.544 13.8559 28.2729 13.829 28.0266 13.7267C27.7803 13.6245 27.5698 13.4514 27.4219 13.2295C27.2741 13.0075 27.1954 12.7467 27.1958 12.48C27.1955 12.3033 27.2301 12.1282 27.2976 11.9649C27.3651 11.8015 27.4642 11.6531 27.5891 11.5281C27.7141 11.4032 27.8625 11.3041 28.0258 11.2366C28.1892 11.1691 28.3642 11.1345 28.541 11.1348Z" fill="white"/>
<path d="M57.9405 39.24C57.9408 38.9737 57.862 38.7132 57.7141 38.4916C57.5663 38.2701 57.356 38.0973 57.11 37.9953C56.8639 37.8932 56.5931 37.8665 56.3319 37.9184C56.0706 37.9703 55.8306 38.0986 55.6422 38.2869C55.4539 38.4753 55.3256 38.7152 55.2737 38.9765C55.2218 39.2378 55.2486 39.5086 55.3506 39.7546C55.4527 40.0007 55.6254 40.2109 55.847 40.3588C56.0686 40.5066 56.329 40.5854 56.5954 40.5852C56.9521 40.5852 57.2943 40.4435 57.5466 40.1912C57.7988 39.9389 57.9405 39.5968 57.9405 39.24Z" fill="white"/>
<path d="M44.9423 16.4504C45.2086 16.4507 45.4691 16.3719 45.6907 16.224C45.9122 16.0762 46.085 15.8659 46.187 15.6199C46.2891 15.3738 46.3158 15.103 46.2639 14.8418C46.212 14.5805 46.0838 14.3405 45.8954 14.1521C45.707 13.9638 45.4671 13.8355 45.2058 13.7836C44.9445 13.7317 44.6737 13.7585 44.4277 13.8605C44.1816 13.9626 43.9714 14.1353 43.8235 14.3569C43.6757 14.5784 43.5969 14.8389 43.5971 15.1053C43.5971 15.462 43.7388 15.8042 43.9911 16.0564C44.2434 16.3087 44.5855 16.4504 44.9423 16.4504Z" fill="white"/>
<path d="M60.6308 46.9297C60.3645 46.9295 60.104 47.0083 59.8824 47.1561C59.6609 47.304 59.4881 47.5142 59.3861 47.7603C59.284 48.0063 59.2573 48.2771 59.3092 48.5384C59.3611 48.7996 59.4894 49.0396 59.6777 49.228C59.8661 49.4163 60.1061 49.5446 60.3673 49.5965C60.6286 49.6484 60.8994 49.6216 61.1454 49.5196C61.3915 49.4176 61.6017 49.2448 61.7496 49.0233C61.8974 48.8017 61.9762 48.5412 61.976 48.2749C61.976 47.9181 61.8343 47.5759 61.582 47.3237C61.3297 47.0714 60.9876 46.9297 60.6308 46.9297Z" fill="white"/>
<path d="M21.3228 7.69491C21.5895 7.69536 21.8504 7.61667 22.0723 7.46878C22.2942 7.32089 22.4673 7.11048 22.5696 6.86417C22.6718 6.61786 22.6987 6.34674 22.6468 6.08515C22.5949 5.82355 22.4665 5.58324 22.2779 5.39466C22.0893 5.20608 21.849 5.0777 21.5874 5.02578C21.3258 4.97386 21.0547 5.00074 20.8084 5.10301C20.5621 5.20528 20.3517 5.37834 20.2038 5.60028C20.0559 5.82222 19.9772 6.08306 19.9777 6.34975C19.9774 6.52649 20.0119 6.70154 20.0794 6.86488C20.1469 7.02822 20.246 7.17663 20.371 7.3016C20.4959 7.42657 20.6444 7.52564 20.8077 7.59313C20.971 7.66063 21.1461 7.69521 21.3228 7.69491Z" fill="white"/>
</svg>
