<svg width="70" height="70" viewBox="0 0 70 70" fill="none" xmlns="http://www.w3.org/2000/svg">
<path d="M6.63166 12.5441H42.1717V14.765H44.3926V9.21215C44.393 8.48305 44.2498 7.76102 43.9711 7.08728C43.6925 6.41354 43.2838 5.8013 42.7685 5.28553C42.2531 4.76977 41.6412 4.36059 40.9677 4.08137C40.2942 3.80214 39.5723 3.65835 38.8432 3.6582H9.96472C9.23533 3.65805 8.51305 3.80161 7.83914 4.08067C7.16524 4.35973 6.55291 4.76882 6.03715 5.28458C5.52139 5.80034 5.11228 6.41266 4.83322 7.08657C4.55416 7.76047 4.41062 8.48275 4.41077 9.21215V59.1943H6.63166V12.5441ZM9.96013 5.88024H38.8432C39.7248 5.88387 40.5694 6.23571 41.1928 6.85913C41.8162 7.48256 42.168 8.32706 42.1717 9.20871V10.3151H6.63166V9.20756C6.63528 8.32591 6.98713 7.48141 7.61056 6.85799C8.23398 6.23456 9.07849 5.88272 9.96013 5.87909V5.88024Z" fill="white"/>
<path d="M4.41077 60.0844C4.41077 60.8137 4.55443 61.5359 4.83355 62.2096C5.11268 62.8834 5.52181 63.4956 6.03755 64.0112C6.5533 64.5269 7.16557 64.9359 7.8394 65.2149C8.51323 65.4938 9.23542 65.6374 9.96472 65.6372H38.8432C39.5726 65.6374 40.2949 65.4938 40.9688 65.2147C41.6427 64.9357 42.255 64.5266 42.7708 64.0108C43.2865 63.4951 43.6956 62.8827 43.9747 62.2088C44.2537 61.5349 44.3973 60.8127 44.3972 60.0833V54.5293H4.41077V60.0844ZM6.63166 56.7559H42.1717V60.0844C42.168 60.966 41.8162 61.8106 41.1928 62.434C40.5694 63.0574 39.7248 63.4092 38.8432 63.4129H9.96472C9.08308 63.4092 8.23857 63.0574 7.61515 62.434C6.99172 61.8106 6.63987 60.966 6.63624 60.0844L6.63166 56.7559Z" fill="white"/>
<path d="M17.129 58.9727H28.2357V61.1935H17.129V58.9727Z" fill="white"/>
<path d="M49.0215 33.8213C47.7035 33.8213 46.4151 34.2121 45.3193 34.9443C44.2234 35.6766 43.3693 36.7173 42.8649 37.935C42.3605 39.1526 42.2286 40.4925 42.4857 41.7852C42.7428 43.0778 43.3775 44.2652 44.3094 45.1971C45.2414 46.1291 46.4288 46.7638 47.7214 47.0209C49.0141 47.278 50.3539 47.1461 51.5716 46.6417C52.7893 46.1373 53.83 45.2832 54.5622 44.1873C55.2945 43.0915 55.6853 41.8031 55.6853 40.4851C55.685 38.7178 54.9828 37.0231 53.7332 35.7734C52.4835 34.5238 50.7887 33.8216 49.0215 33.8213ZM49.0215 44.928C48.1424 44.9283 47.283 44.6678 46.552 44.1796C45.821 43.6913 45.2513 42.9973 44.9147 42.1852C44.5782 41.3731 44.4901 40.4794 44.6616 39.6173C44.833 38.7551 45.2563 37.9631 45.8779 37.3415C46.4995 36.7199 47.2914 36.2967 48.1536 36.1252C49.0158 35.9538 49.9094 36.0419 50.7215 36.3784C51.5336 36.7149 52.2277 37.2847 52.7159 38.0157C53.2042 38.7467 53.4646 39.6061 53.4644 40.4851C53.4646 41.0686 53.3497 41.6464 53.1265 42.1855C52.9033 42.7246 52.576 43.2145 52.1634 43.6271C51.7508 44.0397 51.261 44.3669 50.7219 44.5902C50.1828 44.8134 49.605 44.9282 49.0215 44.928Z" fill="white"/>
<path d="M21.7039 21.2676C20.4193 21.2679 19.1745 21.7135 18.1816 22.5287C17.1888 23.3438 16.5092 24.478 16.2588 25.738C16.0084 26.9979 16.2026 28.3058 16.8083 29.4386C17.414 30.5715 18.3938 31.4593 19.5807 31.9507C20.7676 32.4422 22.0882 32.507 23.3174 32.1339C24.5467 31.7609 25.6086 30.9732 26.3223 29.9051C27.0359 28.8369 27.3571 27.5544 27.2311 26.2759C27.1052 24.9975 26.5399 23.8023 25.6315 22.8939C24.5897 21.8525 23.177 21.2675 21.7039 21.2676ZM21.7039 30.1534C21.0456 30.1534 20.4021 29.9582 19.8547 29.5925C19.3073 29.2268 18.8807 28.7069 18.6288 28.0987C18.3769 27.4905 18.311 26.8213 18.4394 26.1756C18.5678 25.53 18.8848 24.9369 19.3503 24.4714C19.8158 24.0059 20.4089 23.6889 21.0546 23.5605C21.7002 23.432 22.3695 23.4979 22.9777 23.7499C23.5859 24.0018 24.1057 24.4284 24.4714 24.9758C24.8372 25.5231 25.0324 26.1667 25.0324 26.825C25.0324 27.7077 24.6817 28.5543 24.0575 29.1786C23.4333 29.8028 22.5867 30.1534 21.7039 30.1534Z" fill="white"/>
<path d="M27.236 36.737L27.8467 36.4868L31.2899 38.7823L35.719 34.3531L33.4235 30.9099C33.5188 30.7114 33.6024 30.5075 33.6738 30.2993L37.7276 29.4958V23.2337L33.6738 22.4303C33.5134 22.015 33.3295 21.6092 33.1228 21.2148L31.151 22.2478C31.4015 22.7175 31.6059 23.2102 31.7616 23.7192L31.9556 24.3436L35.4964 25.0518V27.6755L31.9567 28.3837L31.7628 29.0081C31.6009 29.5148 31.3967 30.007 31.1522 30.4795L30.8469 31.0625L32.8462 34.0754L30.9995 35.9359L27.9867 33.9365L27.4036 34.2418C26.9312 34.4863 26.439 34.6906 25.9322 34.8524L25.3078 35.0464L24.5997 38.5872H21.9713L21.2632 35.0464L20.6388 34.8524C20.132 34.6906 19.6398 34.4863 19.1674 34.2418L18.5843 33.9365L15.5715 35.9359L13.0728 33.4372L11.5027 35.0016L15.2903 38.7892L18.7335 36.4937C18.932 36.5889 19.1359 36.6725 19.3441 36.7439L20.1475 40.7977H26.4097L27.236 36.737Z" fill="white"/>
<path d="M8.85373 24.5149V30.7736L12.9076 31.577C13.0697 31.9897 13.2551 32.3928 13.4631 32.7845L15.4349 31.7515C15.1845 31.2818 14.98 30.7891 14.8243 30.2801L14.6303 29.6557L11.0723 28.9475V26.333L14.6131 25.6248L14.8071 25.0004C14.9689 24.4937 15.1732 24.0015 15.4177 23.529L15.723 22.946L13.7236 19.9331L15.5841 18.0726L18.597 20.0709L19.1835 19.7656C19.6559 19.521 20.1481 19.3168 20.6549 19.155L21.2793 18.961L21.9874 15.4202H24.6112L25.3193 18.961L25.9437 19.155C26.4504 19.3168 26.9427 19.521 27.4151 19.7656L27.9982 20.0709L31.011 18.0715L33.5096 20.5701L35.0786 19.0012L31.291 15.2136L27.8478 17.5183C27.6493 17.423 27.4454 17.3395 27.2372 17.2681L26.4338 13.2119H20.1694L19.3659 17.2658L18.7553 17.516L15.2983 15.2205L10.8692 19.6496L13.1647 23.0929C13.0694 23.2913 12.9859 23.4952 12.9145 23.7035L8.85373 24.5149Z" fill="white"/>
<path d="M20.3461 41.5039H22.567V43.7248H20.3461V41.5039Z" fill="white"/>
<path d="M20.3461 45.4883H22.567V47.7092H20.3461V45.4883Z" fill="white"/>
<path d="M20.3461 49.4717H22.567V51.6926H20.3461V49.4717Z" fill="white"/>
<path d="M48.2329 19.5928H50.4538V21.8137H48.2329V19.5928Z" fill="white"/>
<path d="M48.2329 15.6104H50.4538V17.8312H48.2329V15.6104Z" fill="white"/>
<path d="M48.2329 12.5439H50.4538V14.7648H48.2329V12.5439Z" fill="white"/>
<path d="M66.3892 42.1177V33.6347L60.9052 32.5375C60.7805 32.2184 60.6416 31.8989 60.4886 31.5791L58.4892 32.5512C58.6932 32.9762 58.874 33.4118 59.0309 33.8562L59.2387 34.4531L64.1671 35.439V40.2848L59.2387 41.2707L59.0309 41.8675C58.8767 42.313 58.6958 42.7488 58.4892 43.1725L58.2115 43.7464L61.0016 47.9253L57.5721 51.3548L53.3932 48.5646L52.8193 48.8424C52.3944 49.0463 51.9588 49.2272 51.5143 49.3841L50.9175 49.5919L49.9316 54.5065H45.0858L44.0999 49.5781L43.5031 49.3703C43.0576 49.2161 42.6218 49.0352 42.1981 48.8286L41.6242 48.5508L37.4452 51.341L33.3776 47.2734L31.8178 48.8378L37.1767 54.1966L41.8274 51.0977L42.1889 51.2504L43.2861 56.7343H51.7691L52.8664 51.2504L53.2279 51.0977L57.8786 54.1966L63.8767 48.1985L60.7778 43.5478L60.9305 43.1863L66.3892 42.1177Z" fill="white"/>
<path d="M31.1533 30.8973L34.2522 35.548L34.0996 35.9096L28.6294 37.0068V45.4898L34.1134 46.5871L34.53 47.5317L36.5294 46.5595C36.3254 46.1346 36.1446 45.699 35.9876 45.2545L35.7799 44.6577L30.8515 43.6718V38.826L35.7799 37.8401L35.9876 37.2432C36.1417 36.7977 36.3226 36.3619 36.5294 35.9383L36.8071 35.3644L34.017 31.1854L37.443 27.7606L41.6219 30.5507L42.1958 30.273C42.6241 30.0661 43.0645 29.8852 43.5146 29.7312L44.1114 29.5235L45.0973 24.6088H49.9431L50.929 29.5235L51.5258 29.7312C51.9758 29.8855 52.4162 30.0664 52.8446 30.273L53.4185 30.5507L57.5974 27.7606L61.6651 31.8282L63.234 30.2592L57.8752 24.8912L53.2245 27.9901L52.863 27.8375L51.7657 22.3535H43.2827L42.1855 27.8375L41.8239 27.9901L37.1733 24.8912L31.1533 30.8973Z" fill="white"/>
</svg>
