<svg width="70" height="70" viewBox="0 0 70 70" fill="none" xmlns="http://www.w3.org/2000/svg">
<path d="M66.1952 9.54492H17.1864C17.1349 9.54511 17.0855 9.56528 17.0486 9.60117C17.0305 9.61922 17.0163 9.64069 17.0066 9.66434C16.9969 9.688 16.9921 9.71334 16.9924 9.73889V14.1164C16.9926 14.1679 17.0127 14.2172 17.0486 14.2541C17.0667 14.2722 17.0881 14.2865 17.1118 14.2962C17.1354 14.3058 17.1608 14.3106 17.1864 14.3104H66.1952C66.2466 14.3102 66.296 14.29 66.3329 14.2541C66.351 14.2361 66.3653 14.2146 66.3749 14.1909C66.3846 14.1673 66.3894 14.142 66.3891 14.1164V9.74349C66.3908 9.71757 66.3869 9.69159 66.3778 9.66727C66.3687 9.64294 66.3546 9.62081 66.3364 9.60231C66.3181 9.58378 66.296 9.56945 66.2716 9.56033C66.2472 9.55122 66.2211 9.54752 66.1952 9.54951V9.54492Z" fill="white"/>
<path d="M23.4346 20.3099H47.8426C47.8941 20.3097 47.9435 20.2896 47.9804 20.2537C47.9984 20.2357 48.0127 20.2142 48.0224 20.1905C48.0321 20.1669 48.0369 20.1415 48.0366 20.116V15.7545C48.0364 15.7031 48.0163 15.6537 47.9804 15.6168C47.9623 15.5987 47.9408 15.5844 47.9172 15.5748C47.8935 15.5651 47.8682 15.5603 47.8426 15.5606H23.4346C23.3832 15.5607 23.3338 15.5809 23.2969 15.6168C23.2788 15.6349 23.2646 15.6563 23.2549 15.68C23.2452 15.7036 23.2404 15.729 23.2407 15.7545V20.132C23.2413 20.1566 23.2469 20.1807 23.2572 20.203C23.2675 20.2253 23.2822 20.2453 23.3004 20.2617C23.3184 20.2782 23.3396 20.2906 23.3627 20.2984C23.3859 20.3061 23.4104 20.3088 23.4346 20.3065V20.3099Z" fill="white"/>
<path d="M66.1952 29.6748H17.1864C17.1349 29.675 17.0855 29.6952 17.0486 29.731C17.0305 29.7491 17.0163 29.7706 17.0066 29.7942C16.9969 29.8179 16.9921 29.8432 16.9924 29.8688V34.2463C16.9926 34.2977 17.0127 34.3471 17.0486 34.384C17.0667 34.4021 17.0881 34.4164 17.1118 34.426C17.1354 34.4357 17.1608 34.4405 17.1864 34.4403H66.1952C66.2466 34.4401 66.296 34.4199 66.3329 34.384C66.351 34.366 66.3653 34.3445 66.3749 34.3208C66.3846 34.2972 66.3894 34.2718 66.3891 34.2463V29.8734C66.3908 29.8474 66.3869 29.8215 66.3778 29.7972C66.3687 29.7728 66.3546 29.7507 66.3364 29.7322C66.3181 29.7137 66.296 29.6993 66.2716 29.6902C66.2472 29.6811 66.2211 29.6774 66.1952 29.6794V29.6748Z" fill="white"/>
<path d="M23.4347 40.7713H47.8427C47.8941 40.7711 47.9435 40.751 47.9804 40.7151C47.9985 40.697 48.0128 40.6755 48.0224 40.6519C48.0321 40.6282 48.0369 40.6029 48.0367 40.5774V36.1998C48.0365 36.1484 48.0163 36.099 47.9804 36.0621C47.9624 36.044 47.9409 36.0297 47.9172 36.0201C47.8936 36.0104 47.8682 36.0056 47.8427 36.0059H23.4347C23.3832 36.0061 23.3338 36.0262 23.2969 36.0621C23.2789 36.0802 23.2646 36.1016 23.2549 36.1253C23.2453 36.1489 23.2404 36.1743 23.2407 36.1998V40.5774C23.2391 40.6033 23.243 40.6292 23.2521 40.6536C23.2612 40.6779 23.2753 40.7 23.2935 40.7185C23.3118 40.7371 23.3339 40.7514 23.3583 40.7605C23.3826 40.7696 23.4087 40.7733 23.4347 40.7713Z" fill="white"/>
<path d="M66.1952 48.4385H17.1863C17.1349 48.4385 17.0856 48.4589 17.0492 48.4953C17.0128 48.5317 16.9924 48.581 16.9924 48.6324V53.0123C16.9924 53.0637 17.0128 53.113 17.0492 53.1494C17.0856 53.1858 17.1349 53.2062 17.1863 53.2062H66.1952C66.2466 53.2062 66.2959 53.1858 66.3323 53.1494C66.3687 53.113 66.3891 53.0637 66.3891 53.0123V48.6347C66.3907 48.6088 66.3869 48.5829 66.3778 48.5585C66.3687 48.5342 66.3546 48.5121 66.3363 48.4936C66.3181 48.475 66.296 48.4607 66.2716 48.4516C66.2472 48.4425 66.2211 48.4388 66.1952 48.4408V48.4385Z" fill="white"/>
<path d="M47.8426 56.1758H23.4346C23.3832 56.1758 23.3339 56.1962 23.2975 56.2326C23.2611 56.269 23.2407 56.3183 23.2407 56.3698V60.7312C23.2407 60.7826 23.2611 60.832 23.2975 60.8683C23.3339 60.9047 23.3832 60.9252 23.4346 60.9252H47.8426C47.8941 60.9252 47.9434 60.9047 47.9798 60.8683C48.0162 60.832 48.0366 60.7826 48.0366 60.7312V56.3537C48.0295 56.3066 48.0062 56.2635 47.9709 56.2317C47.9355 56.1999 47.8902 56.1814 47.8426 56.1792V56.1758Z" fill="white"/>
<path d="M12.4449 16.46L8.51735 12.4887L4.41071 16.5954L12.43 24.6537L16.5367 20.5861L25.9321 11.2297L21.8645 7.10352L12.4449 16.46ZM12.4449 35.8144L8.51276 31.8432L4.41071 35.9303L12.43 43.9933L16.5367 39.9257L25.9321 30.5692L21.8645 26.458L12.4449 35.8144ZM12.4449 55.1689L8.51276 51.1977L4.41071 55.2848L12.43 63.3432L16.5367 59.256L25.9321 49.9191L21.8645 45.8079L12.4449 55.1689Z" fill="white"/>
</svg>
