<svg width="70" height="70" viewBox="0 0 70 70" fill="none" xmlns="http://www.w3.org/2000/svg">
<path d="M19.5889 12.3348C19.6149 10.6481 20.1389 9.00667 21.0949 7.61683C22.051 6.22698 23.3965 5.1507 24.9623 4.52323C26.5282 3.89575 28.2446 3.74506 29.8959 4.09011C31.5471 4.43515 33.0596 5.26054 34.2432 6.46254C35.4267 7.66455 36.2287 9.18955 36.5482 10.8459C36.8677 12.5023 36.6905 14.2162 36.039 15.7722C35.3874 17.3282 34.2905 18.6569 32.886 19.5914C31.4816 20.5259 29.8323 21.0244 28.1454 21.0244C25.8609 20.9981 23.6795 20.0697 22.0767 18.4418C20.4739 16.8138 19.5797 14.6182 19.5889 12.3337V12.3348ZM32.2818 26.9433C32.3712 25.1182 32.992 23.3589 34.0677 21.8818C33.3265 21.7238 32.5684 21.6598 31.8113 21.6912H24.5713C23.8159 21.7073 23.0622 21.7709 22.3148 21.8818C23.475 23.4597 24.1007 25.367 24.1007 27.3255C25.4751 26.5459 27.0337 26.1495 28.6136 26.1778C29.8831 26.0889 31.1524 26.3534 32.2807 26.9422L32.2818 26.9433ZM33.6924 27.7077C34.9431 28.5218 35.997 29.6041 36.7776 30.876C37.5582 32.1479 38.0459 33.5776 38.2054 35.0614C39.2344 35.5501 40.3569 35.8108 41.496 35.8258C43.0888 35.8701 44.6589 35.4394 46.0062 34.5885C47.3535 33.7376 48.4171 32.5051 49.0617 31.0477C49.7062 29.5904 49.9025 27.9742 49.6256 26.405C49.3486 24.8357 48.6109 23.3844 47.5065 22.2357C46.402 21.0871 44.9807 20.2931 43.4235 19.9548C41.8663 19.6166 40.2437 19.7494 38.7622 20.3363C37.2807 20.9232 36.0074 21.9377 35.1044 23.2506C34.2013 24.5635 33.7094 26.1155 33.6913 27.7089L33.6924 27.7077ZM28.5207 44.0448C30.3587 44.0561 32.1438 43.43 33.572 42.2731C35.0003 41.1162 35.9833 39.4999 36.3538 37.6996C36.7242 35.8992 36.4592 34.0262 35.6037 32.3993C34.7483 30.7725 33.3554 29.4925 31.6622 28.7772C29.969 28.062 28.0802 27.9558 26.3175 28.4768C24.5549 28.9977 23.0273 30.1135 21.9949 31.6342C20.9625 33.155 20.4891 34.9865 20.6554 36.817C20.8218 38.6475 21.6175 40.3638 22.907 41.6735C24.3935 43.1715 26.4104 44.0234 28.5207 44.0448ZM31.9054 44.6186H25.2301C22.5423 44.6423 19.9737 45.731 18.0875 47.646C16.2014 49.5609 15.1518 52.1458 15.1689 54.8336V63.2351L15.7336 63.4256C20.1588 64.913 24.7923 65.6878 29.4607 65.7211C36.8889 65.7211 41.1195 63.6196 41.3973 63.4256L41.9619 63.1387H42.0561V54.8336C42.0353 52.1413 40.9607 49.5643 39.0626 47.6549C37.1646 45.7454 34.594 44.6555 31.9019 44.6186H31.9054ZM44.8807 36.3101H38.2995C38.2201 38.9041 37.1425 41.3674 35.2912 43.1863C37.7711 43.9645 39.9381 45.5138 41.4767 47.6086C43.0154 49.7033 43.8456 52.2344 43.8465 54.8336V57.4126C50.4277 57.1257 54.1889 55.3111 54.3771 55.1171L54.9418 54.8302H55.0359V46.5228C55.042 45.1847 54.7839 43.8587 54.2765 42.6206C53.7691 41.3825 53.0223 40.2567 52.079 39.3077C51.1357 38.3588 50.0144 37.6053 48.7794 37.0905C47.5443 36.5757 46.2198 36.3098 44.8818 36.3078L44.8807 36.3101ZM46.6677 19.5977C47.9173 20.4112 48.9704 21.4922 49.7509 22.7626C50.5314 24.033 51.0198 25.461 51.1807 26.9433C52.3882 27.5205 53.7236 27.7782 55.0592 27.6915C56.3948 27.6049 57.6858 27.1769 58.8086 26.4486C59.9314 25.7202 60.8485 24.7159 61.4721 23.5316C62.0957 22.3474 62.4049 21.0229 62.37 19.685C62.3805 18.6389 62.1843 17.601 61.7927 16.6309C61.4011 15.6607 60.8218 14.7775 60.088 14.0318C59.3542 13.2861 58.4805 12.6926 57.5168 12.2854C56.5531 11.8782 55.5185 11.6652 54.4724 11.6588C52.4057 11.7345 50.4461 12.5975 48.9951 14.0712C47.5441 15.5448 46.7114 17.5175 46.6677 19.5851V19.5977ZM57.8571 28.2885H51.2748C51.1954 30.8825 50.1178 33.3458 48.2665 35.1646C50.7568 35.9269 52.9347 37.4724 54.4763 39.5715C56.0179 41.6706 56.8409 44.2111 56.823 46.8154V49.3944C63.4042 49.1075 67.1653 47.2929 67.3536 47.0989L67.9183 46.812H68.0124V38.5012C68.0079 35.8039 66.9386 33.2174 65.037 31.3045C63.1355 29.3915 60.5555 28.3068 57.8583 28.2862L57.8571 28.2885ZM14.7936 35.8269C16.2909 35.8105 17.7546 35.3808 19.0231 34.585C19.3747 32.0843 20.6934 29.8214 22.6958 28.2828V27.8053C22.6719 26.2485 22.1883 24.7334 21.3059 23.4506C20.4235 22.1677 19.1817 21.1743 17.7364 20.5951C16.2912 20.0158 14.707 19.8767 13.1828 20.195C11.6587 20.5134 10.2627 21.2751 9.17017 22.3845C8.07764 23.4939 7.33734 24.9014 7.04229 26.4302C6.74725 27.959 6.91061 29.5409 7.51187 30.9771C8.11312 32.4134 9.12543 33.6399 10.4216 34.5025C11.7178 35.3652 13.24 35.8256 14.797 35.8258L14.7936 35.8269ZM21.8454 43.1805C19.9966 41.3991 18.917 38.9658 18.8371 36.3996H11.4089C10.0804 36.3925 8.76384 36.65 7.5359 37.157C6.30797 37.664 5.19325 38.4104 4.25676 39.3526C3.32027 40.2949 2.58074 41.4142 2.08129 42.6452C1.58185 43.8762 1.33248 45.1944 1.34774 46.5228V54.9289L1.91243 55.2158C5.59861 56.4111 9.418 57.1478 13.2843 57.4091V54.9289C13.2506 52.3095 14.0659 49.7496 15.6083 47.6323C17.1507 45.5149 19.3372 43.9539 21.8408 43.1828L21.8454 43.1805Z" fill="white"/>
</svg>
