<svg width="63" height="63" viewBox="0 0 63 63" fill="none" xmlns="http://www.w3.org/2000/svg">
<path d="M42.8177 37.1581L41.134 34.7731C43.2739 33.7394 45.5257 32.9553 47.8448 32.4363C48.156 32.3654 48.4263 32.1739 48.5964 31.9037C48.7664 31.6336 48.8222 31.3071 48.7516 30.9959C48.7232 30.8414 48.664 30.6943 48.5776 30.5632C48.4911 30.4321 48.3792 30.3197 48.2485 30.2328C48.1177 30.1458 47.9708 30.086 47.8165 30.057C47.6622 30.028 47.5036 30.0304 47.3502 30.0639C44.6679 30.6679 42.0699 31.5988 39.6143 32.8357L34.7169 27.3644L29.0654 22.0503C30.6692 19.9596 31.962 17.6478 32.9035 15.1868C34.4838 10.9285 35.2621 6.4145 35.199 1.8729C35.199 1.71826 35.1685 1.56513 35.1093 1.42226C35.0501 1.27939 34.9634 1.14957 34.8541 1.04022C34.7447 0.930869 34.6149 0.844133 34.472 0.784954C34.3291 0.725775 34.176 0.695312 34.0214 0.695312C33.8667 0.695312 33.7136 0.725775 33.5707 0.784954C33.4279 0.844133 33.298 0.930869 33.1887 1.04022C33.0793 1.14957 32.9926 1.27939 32.9334 1.42226C32.8742 1.56513 32.8438 1.71826 32.8438 1.8729C32.8438 9.44804 30.9603 15.7216 27.2279 20.5514C26.522 19.9947 25.8391 19.4862 25.1906 19.0386C21.706 16.618 19.6217 16.0487 18.4556 17.2022L18.4315 17.2263C18.1329 17.5339 17.9393 17.928 17.8783 18.3523L0.508286 60.9555C0.416945 61.1766 0.392835 61.4198 0.438972 61.6546C0.485109 61.8893 0.599445 62.1053 0.767677 62.2754C0.870652 62.3903 0.996845 62.4821 1.13792 62.5446C1.27899 62.6071 1.43172 62.639 1.58602 62.6381C1.74376 62.6352 1.89953 62.6025 2.04512 62.5417L43.4788 44.6747C43.8591 44.6171 44.2125 44.444 44.4911 44.1789C44.5152 44.1663 44.5267 44.1422 44.5497 44.1181L44.5979 44.0698C45.7146 42.8831 45.1717 40.7517 42.8177 37.1581ZM24.6741 50.1575C25.6434 47.9554 26.354 45.6483 26.7917 43.2825C27.4859 39.5982 27.4078 35.8099 26.5622 32.1574C27.1154 32.7622 27.6927 33.3683 28.2838 33.9731C30.0502 35.7889 31.828 37.4588 33.5233 38.936C33.358 44.6495 30.8031 47.2526 30.2499 47.7484L24.6741 50.1575ZM18.6599 52.7606C18.931 52.0633 19.1358 51.342 19.2717 50.6063C20.214 45.6549 18.6714 39.542 14.7036 32.4248L15.9753 29.3018C17.0111 30.5703 17.8926 31.9573 18.6014 33.4337C18.6884 33.6503 18.8379 33.8362 19.0308 33.9676C19.2237 34.099 19.4514 34.17 19.6849 34.1717C19.8428 34.1702 19.9988 34.1375 20.144 34.0753C20.4328 33.9431 20.6585 33.7032 20.7729 33.4068C20.8872 33.1104 20.881 32.781 20.7557 32.4891C19.7793 30.4335 18.5058 28.5328 16.9762 26.8479L18.9193 22.079C19.3126 22.8029 19.7365 23.5091 20.191 24.1977C20.5606 24.7556 20.9432 25.3042 21.3388 25.8436C24.5299 30.8994 25.6554 36.9885 24.4824 42.8509C23.9582 45.9746 22.8433 48.9697 21.1976 51.676L18.6599 52.7606ZM13.5387 35.2689C17.2 42.4114 17.4708 47.132 17.0003 49.9165C16.8077 51.5916 16.0716 53.1574 14.9045 54.3743L11.7964 55.7057C12.485 53.1807 12.6675 49.1636 10.007 43.9149L13.5387 35.2689ZM35.7556 40.7781C36.4282 41.3076 37.1168 41.8161 37.8216 42.3035C38.5756 42.8245 39.2585 43.2595 39.8875 43.6107L34.3301 46.0073C35.0889 44.3534 35.5704 42.586 35.7556 40.7758V40.7781ZM25.6612 22.3763C25.5785 22.4612 25.4959 22.5576 25.4144 22.6425C25.1932 22.8715 25.0695 23.1775 25.0695 23.4959C25.0695 23.8143 25.1932 24.1203 25.4144 24.3492C25.5223 24.4618 25.6521 24.5511 25.7958 24.6115C25.9395 24.6719 26.0941 24.7022 26.25 24.7005C26.5639 24.6979 26.8641 24.5717 27.0855 24.3492L27.5217 23.8901C29.311 25.4029 31.1945 27.183 33.0435 29.0837C34.6331 30.7181 36.1286 32.3881 37.4589 33.9857C37.2465 34.1063 37.0354 34.2279 36.823 34.361C36.5506 34.528 36.3531 34.7937 36.2719 35.1027C36.1906 35.4117 36.2318 35.7402 36.3869 36.0195C36.4624 36.1551 36.564 36.2743 36.6859 36.3703C36.8077 36.4663 36.9474 36.5371 37.0969 36.5788C37.2463 36.6204 37.4025 36.632 37.5565 36.6128C37.7104 36.5937 37.859 36.5441 37.9937 36.4672L38.9705 35.9105C39.4766 36.5762 39.9598 37.2304 40.3833 37.8468C41.4177 39.1678 42.2142 40.6588 42.7374 42.253C41.1754 41.7093 39.7238 40.8894 38.4517 39.8324C35.4182 37.5444 32.5716 35.0187 29.9388 32.279C27.2576 29.5654 24.801 26.6386 22.5932 23.5275C21.5596 22.2059 20.7638 20.7145 20.2415 19.1201C21.8035 19.6638 23.2551 20.4837 24.5272 21.5407C24.9175 21.7995 25.2941 22.0784 25.6554 22.3763H25.6612ZM8.76977 46.9496C9.71391 49.1783 10.0509 51.6173 9.74651 54.0185C9.5988 55.0916 9.23866 56.1244 8.68714 57.0566L3.77363 59.1765L8.76977 46.9496Z" fill="white"/>
<path d="M22.475 35.5119C22.3737 35.293 22.2155 35.1054 22.0169 34.9686C21.8182 34.8319 21.5865 34.751 21.3459 34.7346C21.1052 34.7181 20.8646 34.7667 20.6492 34.8751C20.4338 34.9836 20.2515 35.1479 20.1214 35.351C19.9913 35.5541 19.9182 35.7884 19.9098 36.0294C19.9013 36.2704 19.9578 36.5093 20.0733 36.721C20.1888 36.9327 20.3592 37.1094 20.5664 37.2327C20.7737 37.356 21.0103 37.4213 21.2515 37.4218C21.4031 37.4216 21.5535 37.3944 21.6957 37.3414C21.8624 37.2841 22.016 37.1943 22.1477 37.0771C22.2794 36.96 22.3865 36.8179 22.4629 36.659C22.5392 36.5001 22.5832 36.3277 22.5924 36.1516C22.6016 35.9756 22.5757 35.7995 22.5163 35.6336L22.475 35.5119Z" fill="white"/>
<path d="M43.7451 19.9517C43.8699 20.0775 44.0188 20.1769 44.1828 20.244C44.3469 20.311 44.5228 20.3443 44.7 20.3419C45.0569 20.3405 45.3992 20.2006 45.6549 19.9517C48.654 16.9526 53.5228 15.5673 57.0877 15.285C57.2669 15.2742 57.4421 15.2278 57.6032 15.1485C57.7642 15.0691 57.9078 14.9585 58.0256 14.823C58.1433 14.6874 58.2329 14.5298 58.289 14.3593C58.345 14.1887 58.3665 14.0087 58.3522 13.8297C58.3378 13.6508 58.2879 13.4765 58.2054 13.317C58.1228 13.1576 58.0093 13.0163 57.8715 12.9013C57.7336 12.7862 57.5742 12.6999 57.4026 12.6472C57.2309 12.5946 57.0505 12.5767 56.8719 12.5946C52.8364 12.9172 47.2824 14.5183 43.7577 18.0419C43.6305 18.1658 43.5291 18.3138 43.4595 18.4772C43.3899 18.6407 43.3534 18.8163 43.3521 18.9939C43.3508 19.1715 43.3848 19.3477 43.452 19.5121C43.5193 19.6765 43.6185 19.8259 43.7439 19.9517H43.7451Z" fill="white"/>
<path d="M61.3917 12.9578C61.3532 12.9426 61.3125 12.9337 61.2712 12.9314C61.0984 12.8847 60.9181 12.8729 60.7407 12.8968C60.5634 12.9207 60.3926 12.9798 60.2384 13.0706C60.0842 13.1614 59.9496 13.2821 59.8427 13.4256C59.7358 13.5691 59.6585 13.7325 59.6156 13.9062C59.5726 14.0799 59.5648 14.2605 59.5926 14.4373C59.6203 14.614 59.6831 14.7835 59.7772 14.9357C59.8714 15.0879 59.9949 15.2198 60.1407 15.3236C60.2865 15.4274 60.4515 15.501 60.6261 15.5402L60.6939 15.554C60.8068 15.5802 60.9223 15.5937 61.0382 15.5942C61.3662 15.5977 61.684 15.4808 61.9316 15.2657C62.1793 15.0507 62.3394 14.7523 62.3819 14.427C62.4243 14.1018 62.346 13.7723 62.1618 13.5009C61.9777 13.2295 61.7004 13.0351 61.3825 12.9543L61.3917 12.9578Z" fill="white"/>
<path d="M10.2951 11.9075H11.6403V13.2527C11.6403 13.6094 11.782 13.9516 12.0343 14.2039C12.2865 14.4561 12.6287 14.5978 12.9854 14.5978C13.3422 14.5978 13.6843 14.4561 13.9366 14.2039C14.1889 13.9516 14.3306 13.6094 14.3306 13.2527V11.9075H15.6758C16.0325 11.9075 16.3747 11.7658 16.6269 11.5135C16.8792 11.2613 17.0209 10.9191 17.0209 10.5624C17.0209 10.2056 16.8792 9.86345 16.6269 9.61119C16.3747 9.35892 16.0325 9.2172 15.6758 9.2172H14.3306V7.86859C14.3306 7.51184 14.1889 7.16969 13.9366 6.91742C13.6843 6.66516 13.3422 6.52344 12.9854 6.52344C12.6287 6.52344 12.2865 6.66516 12.0343 6.91742C11.782 7.16969 11.6403 7.51184 11.6403 7.86859V9.21376H10.2951C10.1185 9.21376 9.94354 9.24855 9.78034 9.31615C9.61714 9.38375 9.46885 9.48284 9.34394 9.60775C9.21903 9.73266 9.11995 9.88095 9.05235 10.0442C8.98474 10.2074 8.94995 10.3823 8.94995 10.5589C8.94995 10.7356 8.98474 10.9105 9.05235 11.0737C9.11995 11.2369 9.21903 11.3852 9.34394 11.5101C9.46885 11.635 9.61714 11.7341 9.78034 11.8017C9.94354 11.8693 10.1185 11.9041 10.2951 11.9041V11.9075Z" fill="white"/>
<path d="M37.2362 22.8107H38.5813V24.1535C38.5813 24.5103 38.723 24.8524 38.9753 25.1047C39.2276 25.357 39.5697 25.4987 39.9265 25.4987C40.2832 25.4987 40.6254 25.357 40.8776 25.1047C41.1299 24.8524 41.2716 24.5103 41.2716 24.1535V22.8107H42.6168C42.7934 22.8107 42.9684 22.7759 43.1316 22.7083C43.2948 22.6407 43.4431 22.5416 43.568 22.4167C43.6929 22.2918 43.792 22.1435 43.8596 21.9803C43.9272 21.8171 43.962 21.6422 43.962 21.4655C43.962 21.2889 43.9272 21.1139 43.8596 20.9507C43.792 20.7875 43.6929 20.6392 43.568 20.5143C43.4431 20.3894 43.2948 20.2903 43.1316 20.2227C42.9684 20.1551 42.7934 20.1204 42.6168 20.1204H41.2705V18.7729C41.2705 18.4161 41.1288 18.074 40.8765 17.8217C40.6242 17.5695 40.2821 17.4277 39.9253 17.4277C39.5686 17.4277 39.2264 17.5695 38.9742 17.8217C38.7219 18.074 38.5802 18.4161 38.5802 18.7729V20.1181H37.2362C37.0595 20.1181 36.8846 20.1528 36.7214 20.2204C36.5582 20.288 36.4099 20.3871 36.285 20.512C36.1601 20.637 36.061 20.7852 35.9934 20.9484C35.9258 21.1116 35.891 21.2866 35.891 21.4632C35.891 21.6399 35.9258 21.8148 35.9934 21.978C36.061 22.1412 36.1601 22.2895 36.285 22.4144C36.4099 22.5393 36.5582 22.6384 36.7214 22.706C36.8846 22.7736 37.0595 22.8084 37.2362 22.8084V22.8107Z" fill="white"/>
<path d="M53.5767 49.9413H52.2315V48.5961C52.2315 48.2394 52.0898 47.8972 51.8375 47.645C51.5853 47.3927 51.2431 47.251 50.8864 47.251C50.5296 47.251 50.1875 47.3927 49.9352 47.645C49.6829 47.8972 49.5412 48.2394 49.5412 48.5961V49.9413H48.1961C48.0194 49.9413 47.8445 49.9761 47.6813 50.0437C47.5181 50.1113 47.3698 50.2104 47.2449 50.3353C47.12 50.4602 47.0209 50.6085 46.9533 50.7717C46.8857 50.9349 46.8509 51.1098 46.8509 51.2865C46.8509 51.4631 46.8857 51.638 46.9533 51.8012C47.0209 51.9644 47.12 52.1127 47.2449 52.2376C47.3698 52.3625 47.5181 52.4616 47.6813 52.5292C47.8445 52.5968 48.0194 52.6316 48.1961 52.6316H49.5412V53.9768C49.5412 54.3335 49.6829 54.6757 49.9352 54.9279C50.1875 55.1802 50.5296 55.3219 50.8864 55.3219C51.2431 55.3219 51.5853 55.1802 51.8375 54.9279C52.0898 54.6757 52.2315 54.3335 52.2315 53.9768V52.6316H53.5767C53.7533 52.6316 53.9283 52.5968 54.0915 52.5292C54.2547 52.4616 54.403 52.3625 54.5279 52.2376C54.6528 52.1127 54.7519 51.9644 54.8195 51.8012C54.8871 51.638 54.9219 51.4631 54.9219 51.2865C54.9219 51.1098 54.8871 50.9349 54.8195 50.7717C54.7519 50.6085 54.6528 50.4602 54.5279 50.3353C54.403 50.2104 54.2547 50.1113 54.0915 50.0437C53.9283 49.9761 53.7533 49.9413 53.5767 49.9413Z" fill="white"/>
<path d="M47.38 8.72951C48.1784 8.72951 48.9589 8.49274 49.6228 8.04914C50.2866 7.60554 50.804 6.97503 51.1095 6.23737C51.415 5.4997 51.4948 4.68802 51.339 3.90495C51.1831 3.12189 50.7986 2.40263 50.2339 1.83815C49.6693 1.27366 48.9499 0.889299 48.1668 0.733675C47.3837 0.57805 46.572 0.658152 45.8345 0.963851C45.0969 1.26955 44.4665 1.78711 44.0231 2.45108C43.5797 3.11506 43.3432 3.89561 43.3434 4.69403C43.3434 5.22407 43.4478 5.74893 43.6507 6.23861C43.8536 6.72829 44.1509 7.17321 44.5258 7.54795C44.9006 7.9227 45.3456 8.21993 45.8354 8.42266C46.3251 8.6254 46.85 8.72966 47.38 8.72951ZM47.38 3.35002C47.6464 3.34979 47.9068 3.42859 48.1284 3.57643C48.35 3.72428 48.5227 3.93453 48.6248 4.18059C48.7268 4.42664 48.7536 4.69744 48.7017 4.9587C48.6497 5.21997 48.5215 5.45996 48.3331 5.64831C48.1448 5.83666 47.9048 5.96491 47.6435 6.01682C47.3823 6.06874 47.1115 6.04197 46.8654 5.93993C46.6194 5.83789 46.4091 5.66516 46.2613 5.44358C46.1134 5.22201 46.0346 4.96155 46.0349 4.69518C46.0349 4.33842 46.1766 3.99627 46.4288 3.74401C46.6811 3.49174 47.0233 3.35002 47.38 3.35002Z" fill="white"/>
<path d="M54.3847 21.3643C53.5866 21.3643 52.8064 21.6009 52.1427 22.0444C51.4791 22.4878 50.9619 23.118 50.6564 23.8554C50.351 24.5928 50.2711 25.4042 50.4268 26.187C50.5825 26.9698 50.9668 27.6889 51.5312 28.2533C52.0956 28.8176 52.8146 29.202 53.5974 29.3577C54.3802 29.5134 55.1916 29.4335 55.929 29.128C56.6664 28.8226 57.2967 28.3054 57.7401 27.6417C58.1835 26.9781 58.4202 26.1979 58.4202 25.3997C58.4202 24.3295 57.995 23.303 57.2382 22.5462C56.4814 21.7894 55.455 21.3643 54.3847 21.3643ZM54.3847 26.7449C54.1185 26.7447 53.8582 26.6655 53.6369 26.5174C53.4157 26.3692 53.2433 26.1588 53.1416 25.9127C53.0399 25.6666 53.0135 25.3959 53.0657 25.1348C53.1178 24.8737 53.2463 24.6339 53.4347 24.4458C53.6231 24.2577 53.8631 24.1297 54.1243 24.0779C54.3855 24.0262 54.6562 24.0531 54.9021 24.1552C55.1481 24.2573 55.3582 24.43 55.5059 24.6516C55.6537 24.8731 55.7324 25.1335 55.7322 25.3997C55.7322 25.7565 55.5905 26.0986 55.3382 26.3509C55.0859 26.6032 54.7438 26.7449 54.387 26.7449H54.3847Z" fill="white"/>
<path d="M24.541 13.5143C25.3391 13.5143 26.1193 13.2776 26.783 12.8342C27.4466 12.3908 27.9638 11.7605 28.2693 11.0232C28.5747 10.2858 28.6546 9.47437 28.4989 8.69156C28.3432 7.90875 27.9589 7.1897 27.3945 6.62533C26.8301 6.06096 26.1111 5.67661 25.3283 5.5209C24.5455 5.36519 23.7341 5.44511 22.9967 5.75054C22.2593 6.05598 21.629 6.57322 21.1856 7.23685C20.7422 7.90048 20.5055 8.6807 20.5055 9.47884C20.5055 10.0088 20.6099 10.5336 20.8127 11.0232C21.0155 11.5128 21.3127 11.9576 21.6875 12.3324C22.0622 12.7071 22.5071 13.0043 22.9967 13.2071C23.4863 13.4099 24.011 13.5143 24.541 13.5143ZM24.541 8.13483C24.8077 8.13438 25.0685 8.21308 25.2904 8.36096C25.5124 8.50885 25.6854 8.71927 25.7877 8.96558C25.89 9.21189 25.9169 9.483 25.8649 9.7446C25.813 10.0062 25.6846 10.2465 25.4961 10.4351C25.3075 10.6237 25.0672 10.752 24.8056 10.804C24.544 10.8559 24.2729 10.829 24.0266 10.7267C23.7803 10.6245 23.5698 10.4514 23.4219 10.2295C23.2741 10.0075 23.1954 9.74669 23.1958 9.47999C23.1955 9.30325 23.2301 9.1282 23.2976 8.96486C23.3651 8.80152 23.4642 8.65311 23.5891 8.52814C23.7141 8.40317 23.8625 8.3041 24.0258 8.23661C24.1892 8.16912 24.3642 8.13453 24.541 8.13483Z" fill="white"/>
<path d="M53.9405 36.24C53.9408 35.9737 53.862 35.7132 53.7141 35.4916C53.5663 35.2701 53.356 35.0973 53.11 34.9953C52.8639 34.8932 52.5931 34.8665 52.3319 34.9184C52.0706 34.9703 51.8306 35.0986 51.6422 35.2869C51.4539 35.4753 51.3256 35.7152 51.2737 35.9765C51.2218 36.2378 51.2486 36.5086 51.3506 36.7546C51.4527 37.0007 51.6254 37.2109 51.847 37.3588C52.0686 37.5066 52.329 37.5854 52.5954 37.5852C52.9521 37.5852 53.2943 37.4435 53.5466 37.1912C53.7988 36.9389 53.9405 36.5968 53.9405 36.24Z" fill="white"/>
<path d="M40.9423 13.4504C41.2086 13.4507 41.4691 13.3719 41.6907 13.224C41.9122 13.0762 42.085 12.8659 42.187 12.6199C42.2891 12.3738 42.3158 12.103 42.2639 11.8418C42.212 11.5805 42.0838 11.3405 41.8954 11.1521C41.707 10.9638 41.4671 10.8355 41.2058 10.7836C40.9445 10.7317 40.6737 10.7585 40.4277 10.8605C40.1816 10.9626 39.9714 11.1353 39.8235 11.3569C39.6757 11.5784 39.5969 11.8389 39.5971 12.1053C39.5971 12.462 39.7388 12.8042 39.9911 13.0564C40.2434 13.3087 40.5855 13.4504 40.9423 13.4504Z" fill="white"/>
<path d="M56.6308 43.9297C56.3645 43.9295 56.104 44.0083 55.8824 44.1561C55.6609 44.304 55.4881 44.5142 55.3861 44.7603C55.284 45.0063 55.2573 45.2771 55.3092 45.5384C55.3611 45.7996 55.4894 46.0396 55.6777 46.228C55.8661 46.4163 56.1061 46.5446 56.3673 46.5965C56.6286 46.6484 56.8994 46.6216 57.1454 46.5196C57.3915 46.4176 57.6017 46.2448 57.7496 46.0233C57.8974 45.8017 57.9762 45.5412 57.976 45.2749C57.976 44.9181 57.8343 44.5759 57.582 44.3237C57.3297 44.0714 56.9876 43.9297 56.6308 43.9297Z" fill="white"/>
<path d="M17.3228 4.69491C17.5895 4.69536 17.8504 4.61667 18.0723 4.46878C18.2942 4.32089 18.4673 4.11048 18.5696 3.86417C18.6718 3.61786 18.6987 3.34674 18.6468 3.08515C18.5949 2.82355 18.4665 2.58324 18.2779 2.39466C18.0893 2.20608 17.849 2.0777 17.5874 2.02578C17.3258 1.97386 17.0547 2.00074 16.8084 2.10301C16.5621 2.20528 16.3517 2.37834 16.2038 2.60028C16.0559 2.82222 15.9772 3.08306 15.9777 3.34975C15.9774 3.52649 16.0119 3.70154 16.0794 3.86488C16.1469 4.02822 16.246 4.17663 16.371 4.3016C16.4959 4.42657 16.6444 4.52564 16.8077 4.59313C16.971 4.66063 17.1461 4.69521 17.3228 4.69491Z" fill="white"/>
</svg>
