<svg width="70" height="70" viewBox="0 0 70 70" fill="none" xmlns="http://www.w3.org/2000/svg">
<path d="M6.70638 5.95468H18.1839V3.65918H5.55864C5.25423 3.65918 4.9623 3.7801 4.74706 3.99535C4.53181 4.21059 4.41089 4.50253 4.41089 4.80693V17.4322H6.70638V5.95468ZM66.3893 17.4322V4.80693C66.3893 4.50253 66.2683 4.21059 66.0531 3.99535C65.8379 3.7801 65.5459 3.65918 65.2415 3.65918H52.6163V5.95468H64.0938V17.4322H66.3893ZM5.55864 65.6376H18.1839V63.3421H6.70638V51.8646H4.41089V64.4898C4.41089 64.7942 4.53181 65.0861 4.74706 65.3014C4.9623 65.5166 5.25423 65.6376 5.55864 65.6376ZM52.6163 63.3421V65.6376H65.2415C65.5459 65.6376 65.8379 65.5166 66.0531 65.3014C66.2683 65.0861 66.3893 64.7942 66.3893 64.4898V51.8646H64.0938V63.3421H52.6163ZM34.3671 63.5452V65.6376H36.433V63.5452C43.7365 63.2742 50.6674 60.2515 55.8353 55.0836C61.0032 49.9157 64.0259 42.9848 64.2969 35.6813H66.3893V33.6154H64.2969C64.0262 26.3117 61.0037 19.3805 55.8357 14.2124C50.6678 9.04424 43.7367 6.02143 36.433 5.75037V3.65918H34.3671V5.75037C27.0632 6.02114 20.1319 9.04383 14.9637 14.212C9.79555 19.3802 6.77286 26.3115 6.50209 33.6154H4.41089V35.6813H6.50209C6.77314 42.985 9.79594 49.9161 14.9641 55.084C20.1322 60.2519 27.0634 63.2745 34.3671 63.5452ZM20.2923 30.9297L23.9857 33.1506C23.6629 34.3271 23.0097 35.3865 22.1035 36.2034C21.1974 37.0203 20.0761 37.5604 18.8725 37.7599C17.7407 37.5676 16.68 37.0792 15.7979 36.3445C14.9158 35.6097 14.2437 34.6547 13.85 33.5764C15.6186 33.4214 18.8082 32.8797 20.2923 30.9297ZM13.7581 31.4852C14.0428 28.0247 15.6703 26.3846 18.8725 26.3846C19.4859 26.3163 20.1067 26.3744 20.6967 26.5555C21.2867 26.7365 21.8333 27.0365 22.3028 27.4371C22.7723 27.8376 23.1547 28.3302 23.4264 28.8843C23.6981 29.4384 23.8533 30.0423 23.8824 30.6588L20.4392 28.5929C20.2044 28.4529 19.9241 28.4106 19.6584 28.4749C19.3928 28.5393 19.163 28.7053 19.0183 28.9372C18.9803 29.0024 18.9499 29.0717 18.9276 29.1438C18.4111 30.7185 15.5831 31.313 13.7627 31.4806L13.7581 31.4852ZM18.8725 41.5567L19.7253 43.6869L18.8725 44.5397L18.0209 43.6869L18.8725 41.5567ZM17.3483 39.8132L15.8562 43.5583C15.7791 43.7451 15.7597 43.9507 15.8007 44.1485C15.8416 44.3464 15.9409 44.5274 16.0858 44.6682L18.1517 46.7341C18.3454 46.9272 18.6077 47.0357 18.8811 47.0357C19.1546 47.0357 19.4169 46.9272 19.6105 46.7341L21.6765 44.6682C21.82 44.5265 21.9184 44.3455 21.9593 44.148C22.0001 43.9505 21.9816 43.7453 21.906 43.5583L20.4139 39.8132H22.7094C23.1572 39.8128 23.6007 39.9006 24.0145 40.0718C24.4282 40.2429 24.8042 40.494 25.1208 40.8106C25.4375 41.1273 25.6885 41.5032 25.8597 41.917C26.0308 42.3308 26.1187 42.7743 26.1182 43.222V50.143H13.493C12.814 49.185 12.1972 48.1844 11.6463 47.1473V43.222C11.6458 42.7743 11.7337 42.3308 11.9048 41.917C12.076 41.5032 12.3271 41.1273 12.6437 40.8106C12.9603 40.494 13.3363 40.2429 13.7501 40.0718C14.1638 39.9006 14.6073 39.8128 15.0551 39.8132H17.3483ZM36.8198 24.7318L40.5133 26.9527C40.1904 28.1292 39.5373 29.1886 38.6311 30.0055C37.7249 30.8224 36.6037 31.3626 35.4001 31.5621C34.2683 31.3697 33.2075 30.8814 32.3254 30.1467C31.4433 29.4119 30.7713 28.4569 30.3775 27.3785C32.1462 27.2236 35.3358 26.6819 36.8198 24.7318ZM30.2857 25.2873C30.5577 21.8269 32.1979 20.1867 35.4001 20.1867C36.0134 20.1184 36.6343 20.1766 37.2243 20.3576C37.8143 20.5387 38.3609 20.8387 38.8304 21.2393C39.2999 21.6398 39.6823 22.1323 39.9539 22.6865C40.2256 23.2406 40.3809 23.8445 40.41 24.461L36.9668 22.395C36.7321 22.2554 36.452 22.2133 36.1866 22.2776C35.9213 22.342 35.6917 22.5077 35.547 22.7393C35.5091 22.8046 35.4786 22.8739 35.4563 22.9459C34.9398 24.5206 32.1118 25.1152 30.2914 25.2827L30.2857 25.2873ZM35.4001 35.3588L36.2528 37.489L35.4001 38.3418L34.5473 37.489L35.4001 35.3588ZM33.8759 33.6154L32.3838 37.3605C32.3064 37.5474 32.2869 37.7532 32.3279 37.9513C32.3688 38.1494 32.4682 38.3306 32.6134 38.4715L34.6793 40.5375C34.8729 40.7305 35.1352 40.839 35.4087 40.839C35.6822 40.839 35.9445 40.7305 36.1381 40.5375L38.204 38.4715C38.3478 38.3298 38.4464 38.1486 38.4872 37.9508C38.5281 37.7531 38.5094 37.5476 38.4336 37.3605L36.9415 33.6154H39.237C39.6848 33.6149 40.1283 33.7028 40.542 33.874C40.9558 34.0451 41.3318 34.2962 41.6484 34.6128C41.965 34.9294 42.2161 35.3054 42.3872 35.7192C42.5584 36.133 42.6463 36.5764 42.6458 37.0242V43.9451H28.1693V37.0242C28.1688 36.5764 28.2567 36.133 28.4278 35.7192C28.599 35.3054 28.85 34.9294 29.1667 34.6128C29.4833 34.2962 29.8593 34.0451 30.273 33.874C30.6868 33.7028 31.1303 33.6149 31.5781 33.6154H33.8759ZM53.3474 30.9297L57.0397 33.1506C56.7173 34.3271 56.0645 35.3866 55.1584 36.2036C54.2524 37.0205 53.1312 37.5606 51.9276 37.7599C50.7959 37.5676 49.7351 37.0792 48.853 36.3445C47.9709 35.6097 47.2989 34.6547 46.9051 33.5764C48.6738 33.4214 51.8634 32.8785 53.3486 30.9297H53.3474ZM46.8133 31.4852C47.0853 28.0247 48.7254 26.3846 51.9276 26.3846C52.541 26.3163 53.1618 26.3744 53.7518 26.5555C54.3418 26.7365 54.8884 27.0365 55.3579 27.4371C55.8274 27.8376 56.2098 28.3302 56.4815 28.8843C56.7532 29.4384 56.9084 30.0423 56.9376 30.6588L53.4943 28.5929C53.2596 28.4533 52.9796 28.4111 52.7142 28.4755C52.4489 28.5398 52.2192 28.7056 52.0746 28.9372C52.0366 29.0024 52.0062 29.0717 51.9839 29.1438C51.4674 30.7185 48.6394 31.313 46.819 31.4806L46.8133 31.4852ZM51.9276 41.5567L52.7804 43.6869L51.9276 44.5397L51.0749 43.6869L51.9276 41.5567ZM50.4046 39.8132L48.9125 43.5583C48.8354 43.7451 48.816 43.9507 48.8569 44.1485C48.8979 44.3464 48.9972 44.5274 49.1421 44.6682L51.208 46.7341C51.4016 46.9272 51.6639 47.0357 51.9374 47.0357C52.2108 47.0357 52.4732 46.9272 52.6668 46.7341L54.7327 44.6682C54.8763 44.5265 54.9747 44.3455 55.0156 44.148C55.0564 43.9505 55.0379 43.7453 54.9623 43.5583L53.4702 39.8132H55.7657C56.2135 39.8128 56.657 39.9006 57.0708 40.0718C57.4845 40.2429 57.8605 40.494 58.1771 40.8106C58.4937 41.1273 58.7448 41.5032 58.916 41.917C59.0871 42.3308 59.175 42.7743 59.1745 43.222V47.1473C58.6286 48.1871 58.0115 49.1881 57.3278 50.143H44.7026V43.222C44.7021 42.7743 44.79 42.3308 44.9611 41.917C45.1323 41.5032 45.3834 41.1273 45.7 40.8106C46.0166 40.494 46.3926 40.2429 46.8063 40.0718C47.2201 39.9006 47.6636 39.8128 48.1114 39.8132H50.4046ZM36.433 61.4793V59.4397H34.3671V61.4804C30.6916 61.3398 27.0844 60.444 23.77 58.8489C20.4557 57.2539 17.5052 54.9936 15.1022 52.2089H27.1363C27.4103 52.2089 27.673 52.1001 27.8667 51.9064C28.0604 51.7126 28.1693 51.4499 28.1693 51.1759V46.0111H42.6309V51.1759C42.6309 51.3116 42.6576 51.4459 42.7095 51.5712C42.7614 51.6966 42.8375 51.8104 42.9334 51.9064C43.0294 52.0023 43.1432 52.0784 43.2686 52.1303C43.3939 52.1822 43.5282 52.2089 43.6639 52.2089H55.698C53.2949 54.9934 50.3443 57.2534 47.03 58.8483C43.7156 60.4432 40.1085 61.3387 36.433 61.4793ZM34.3671 7.81632V9.85702H36.433V7.81632C43.189 8.08597 49.5955 10.8907 54.3763 15.6718C59.1572 20.4528 61.9616 26.8594 62.231 33.6154H60.1914V35.6813H62.2321C62.145 37.9264 61.7763 40.1517 61.1349 42.305C60.9447 41.1464 60.3837 40.0809 59.5362 39.2683C58.6887 38.4558 57.6004 37.9402 56.4348 37.7989C57.2335 37.1729 57.8895 36.3839 58.3591 35.4844C58.8288 34.5849 59.1013 33.5955 59.1585 32.5824C59.1585 25.7522 55.2205 24.3186 51.9276 24.3186C48.6348 24.3186 44.6968 25.7522 44.6968 32.5824C44.7541 33.5956 45.0268 34.585 45.4967 35.4845C45.9665 36.384 46.6227 37.1731 47.4216 37.7989C46.5821 37.9035 45.7779 38.1996 45.071 38.6643L44.6968 38.949V37.0242C44.6987 35.6911 44.2124 34.4034 43.3298 33.4043C42.4472 32.4052 41.2293 31.7637 39.9061 31.6011C40.705 30.9752 41.3612 30.1862 41.8311 29.2867C42.3009 28.3872 42.5736 27.3978 42.6309 26.3846C42.6309 19.5543 38.693 18.1208 35.4001 18.1208C32.1072 18.1208 28.1693 19.5543 28.1693 26.3846C28.2266 27.3978 28.4992 28.3872 28.9691 29.2867C29.4389 30.1862 30.0952 30.9752 30.894 31.6011C29.5709 31.7637 28.353 32.4052 27.4704 33.4043C26.5878 34.4034 26.1015 35.6911 26.1033 37.0242V38.9478C25.9842 38.8458 25.8593 38.7508 25.7292 38.6632C25.0227 38.1985 24.2188 37.9024 23.3797 37.7978C24.1782 37.1719 24.8341 36.383 25.3038 35.4837C25.7734 34.5844 26.046 33.5954 26.1033 32.5824C26.1033 25.7522 22.1654 24.3186 18.8725 24.3186C15.5796 24.3186 11.6417 25.7522 11.6417 32.5824C11.699 33.5956 11.9717 34.585 12.4415 35.4845C12.9114 36.384 13.5676 37.1731 14.3664 37.7989C13.2001 37.9397 12.111 38.4551 11.2625 39.2676C10.414 40.0801 9.85191 41.1459 9.66069 42.305C9.0192 40.1517 8.65056 37.9264 8.56344 35.6813H10.6087V33.6154H8.56802C8.83739 26.8592 11.642 20.4525 16.4231 15.6714C21.2042 10.8903 27.611 8.08569 34.3671 7.81632Z" fill="white"/>
</svg>
