<svg width="269" height="104" viewBox="0 0 269 104" fill="none" xmlns="http://www.w3.org/2000/svg">
<path d="M45.7398 53.5916C45.4293 52.4698 44.8084 51.4255 43.9934 50.6131C46.5936 48.0214 46.5936 43.8052 43.9934 41.2135C42.3246 39.5503 39.8409 38.8927 37.5512 39.5116C36.6198 35.9529 32.9717 33.8642 29.4014 34.7925C27.1117 35.4114 25.2877 37.1908 24.6668 39.5116C21.0964 38.5446 17.4484 40.672 16.517 44.1921C15.896 46.4743 16.5558 48.9499 18.2245 50.6131C15.6244 53.2047 15.6244 57.421 18.2245 60.0127C19.8933 61.676 22.3771 62.3336 24.6668 61.7146C25.5982 65.2733 29.2074 67.4008 32.7778 66.4724C35.1062 65.8535 36.969 64.0355 37.5512 61.7146C41.0827 62.6816 44.7307 60.6315 45.7398 57.1116C46.0114 55.9512 46.0114 54.752 45.7398 53.5916ZM36.7362 52.7019C37.1243 52.7019 37.5123 52.6246 37.8616 52.4311C39.4528 51.6576 41.3544 52.3152 42.1306 53.8623C42.9067 55.4483 42.247 57.3437 40.6947 58.1173C39.1036 58.891 37.2019 58.2334 36.4258 56.6861C36.2317 56.2993 36.1152 55.9124 36.1152 55.487C36.0764 55.1002 35.9601 54.7133 35.766 54.3653C35.1838 53.3595 33.8643 53.0114 32.8553 53.5916C31.8463 54.1718 31.4971 55.487 32.0792 56.4927C32.2732 56.8409 32.5449 57.1116 32.8553 57.3437C34.33 58.3107 34.7181 60.2835 33.7479 61.7533C32.7778 63.2232 30.7985 63.61 29.3237 62.643C27.8491 61.676 27.4609 59.7032 28.4311 58.2334C28.664 57.8852 28.9745 57.5758 29.3237 57.3437C29.6343 57.1116 29.9059 56.8409 30.1 56.4927C30.682 55.487 30.3328 54.1718 29.3237 53.5916C28.3148 53.0114 26.9952 53.3595 26.4132 54.3653C26.2191 54.7133 26.1026 55.1002 26.0639 55.487C25.9474 57.2276 24.3951 58.5428 22.6487 58.4268C20.9023 58.3107 19.5828 56.7634 19.6993 55.0228C19.8156 53.2822 21.368 51.967 23.1144 52.0831C23.5413 52.1217 23.9294 52.2377 24.3174 52.4311C24.6668 52.5859 25.0549 52.7019 25.4429 52.7019C26.6071 52.7019 27.5774 51.7349 27.5774 50.5745C27.5774 49.414 26.6071 48.4469 25.4429 48.4469C25.0549 48.4469 24.6668 48.5244 24.3174 48.7178C22.7263 49.4914 20.8247 48.8338 20.0485 47.2865C19.2724 45.7392 19.9321 43.8052 21.4845 43.0316C23.0368 42.258 24.9772 42.9156 25.7534 44.4628C25.9474 44.8496 26.0639 45.2364 26.0639 45.6619C26.1026 46.0488 26.2191 46.4355 26.4132 46.7837C26.9952 47.7893 28.3148 48.1375 29.3237 47.5573C30.3328 46.9771 30.682 45.6619 30.1 44.6562C29.9059 44.3081 29.6343 44.0373 29.3237 43.8052C27.8491 42.8382 27.4609 40.8655 28.4311 39.3955C29.4014 37.9257 31.3806 37.5388 32.8553 38.5059C34.33 39.473 34.7181 41.4456 33.7479 42.9156C33.5151 43.2636 33.2046 43.5732 32.8553 43.8052C32.5449 44.0373 32.2732 44.3081 32.0792 44.6562C31.4971 45.7006 31.8464 47.0158 32.8941 47.596C33.942 48.1762 35.2615 47.8281 35.8436 46.7837C36.0376 46.4355 36.1541 46.0488 36.1929 45.6619C36.3481 43.9212 37.8616 42.6061 39.6468 42.7608C41.3933 42.9156 42.7127 44.4242 42.5575 46.2034C42.4022 47.9441 40.8887 49.2593 39.1036 49.1045C38.6767 49.0659 38.2498 48.9499 37.9004 48.7564C37.5512 48.6017 37.1631 48.4857 36.775 48.4857C35.6107 48.4857 34.6406 49.4527 34.6406 50.6131C34.6406 51.7736 35.5719 52.7019 36.7362 52.7019Z" fill="white"/>
<path fill-rule="evenodd" clip-rule="evenodd" d="M80.5518 50.5737V60.9015C79.31 61.8299 77.874 62.5261 76.3994 62.9904C74.847 63.4545 73.2559 63.6479 71.6647 63.6479C69.7243 63.6866 67.8227 63.3384 65.9987 62.6809C64.3687 62.0619 62.894 61.1724 61.6521 59.9732C60.449 58.8127 59.5176 57.4202 58.8579 55.8343C58.1981 54.171 57.8489 52.3917 57.8877 50.5737C57.8877 48.7557 58.1981 46.9763 58.8191 45.313C60.0221 42.1411 62.5059 39.6655 65.6882 38.5051C67.4734 37.8475 69.375 37.4994 71.2766 37.5381C72.2468 37.5381 73.2171 37.6154 74.1873 37.8088C75.0411 37.9636 75.8948 38.1957 76.7098 38.4664C77.4471 38.7372 78.1457 39.0853 78.8442 39.5108C79.4652 39.8976 80.0474 40.3618 80.5906 40.8647L79.2323 43.0308C79.0383 43.3403 78.7666 43.5724 78.3785 43.6497C77.9905 43.727 77.6024 43.611 77.2531 43.379L76.0113 42.7214C75.5844 42.4893 75.1574 42.2959 74.6918 42.1411C74.1873 41.9477 73.644 41.8317 73.1006 41.7544C72.4021 41.6383 71.7423 41.5996 71.0438 41.5996C69.8795 41.5996 68.7153 41.793 67.5898 42.2572C66.5808 42.6827 65.6882 43.3015 64.9896 44.0752C64.2523 44.8875 63.6702 45.8546 63.3209 46.8989C62.9328 48.0981 62.6999 49.3358 62.7387 50.6123C62.6999 51.9275 62.9328 53.2814 63.3597 54.5191C63.7478 55.6022 64.3299 56.6079 65.1449 57.4202C65.921 58.1938 66.8525 58.8127 67.9003 59.1609C69.8795 59.8572 72.0139 59.9732 74.032 59.509C74.7694 59.3156 75.5068 59.0448 76.2053 58.6967V54.0936H72.9842C72.7125 54.0936 72.4409 54.0163 72.2468 53.8229C72.0528 53.6681 71.9752 53.3974 71.9752 53.1653V50.4576L80.5518 50.5737ZM92.6213 44.9649C93.8632 44.9649 95.105 45.1583 96.3081 45.6225C97.3559 46.048 98.3261 46.6668 99.1411 47.4792C99.9561 48.3302 100.577 49.3358 100.965 50.4576C101.392 51.6954 101.625 53.0105 101.625 54.3257C101.625 55.6409 101.431 56.9561 100.965 58.2326C100.577 59.3543 99.9561 60.36 99.1411 61.211C98.3261 62.0233 97.3559 62.6809 96.3081 63.0677C95.1438 63.5319 93.902 63.7253 92.6213 63.7253C91.3407 63.7253 90.0987 63.5319 88.9345 63.0677C87.8478 62.6422 86.8776 62.0233 86.1014 61.211C85.2865 60.36 84.6655 59.3156 84.2774 58.2326C83.8117 56.9947 83.6178 55.6795 83.6178 54.3257C83.5789 53.0105 83.8117 51.6954 84.2774 50.4576C84.6655 49.3358 85.2865 48.3302 86.1014 47.4792C86.9164 46.6668 87.8866 46.048 88.9345 45.6225C90.0987 45.1583 91.3794 44.9262 92.6213 44.9649ZM92.6213 60.2827C93.9408 60.3987 95.1826 59.8185 95.9976 58.7741C96.8126 57.4202 97.2007 55.873 97.0843 54.287C97.2007 52.7011 96.8126 51.1538 95.9976 49.8C95.2215 48.7557 93.9408 48.2141 92.6213 48.2915C91.3018 48.1754 90.0212 48.7557 89.2061 49.8C88.3912 51.1538 88.0031 52.7011 88.0807 54.287C87.9643 55.873 88.3523 57.4202 89.2061 58.7741C90.0212 59.8185 91.3018 60.36 92.6213 60.2827ZM122.85 44.9651C124.092 44.9651 125.334 45.1585 126.537 45.6227C127.584 46.0482 128.554 46.6671 129.369 47.4793C130.185 48.3304 130.806 49.336 131.194 50.4578C131.621 51.6956 131.853 53.0108 131.853 54.3259C131.853 55.6411 131.66 56.9563 131.194 58.2328C130.806 59.3545 130.185 60.3602 129.369 61.2112C128.554 62.0235 127.584 62.681 126.537 63.0679C125.373 63.5321 124.131 63.7255 122.85 63.7255C121.569 63.7255 120.327 63.5321 119.163 63.0679C118.077 62.6424 117.106 61.9461 116.331 61.0951C115.515 60.2442 114.894 59.1998 114.506 58.1167C114.04 56.8789 113.847 55.5637 113.847 54.2099C113.808 52.8947 114.04 51.5795 114.506 50.3418C114.894 49.22 115.515 48.2143 116.331 47.3633C117.146 46.551 118.116 45.9321 119.163 45.5066C120.327 45.0812 121.569 44.9264 122.85 44.9651ZM122.85 60.2829C124.169 60.3989 125.411 59.8187 126.226 58.7743C127.041 57.4204 127.43 55.8732 127.313 54.2872C127.43 52.7013 127.041 51.154 126.226 49.8002C125.45 48.7559 124.169 48.2143 122.85 48.2917C121.531 48.1756 120.25 48.7559 119.435 49.8002C118.62 51.154 118.232 52.7013 118.309 54.2872C118.193 55.8732 118.581 57.4204 119.435 58.7743C120.25 59.8187 121.531 60.3602 122.85 60.2829ZM160.377 38.3893V63.3773H158.787L158.813 41.1356H158.787L148.968 58.5808C148.851 58.8516 148.58 59.045 148.27 59.045H147.998C147.688 59.045 147.416 58.8516 147.3 58.5808L137.267 41.0583H137.171V52.2178V63.3773H135.618V38.3893H136.86C136.976 38.3506 137.132 38.3506 137.248 38.3893C137.364 38.4666 137.48 38.544 137.52 38.66L148.102 57.0517C148.108 57.0608 148.121 57.0608 148.126 57.0516L158.476 38.66C158.554 38.544 158.631 38.4279 158.748 38.3893C158.864 38.3506 159.019 38.3506 159.135 38.3893H160.377ZM165.967 53.9004V54.2486C165.967 55.409 166.122 56.6082 166.432 57.7298C166.703 58.6583 167.13 59.5092 167.752 60.2442C168.295 60.9018 168.994 61.4046 169.809 61.7527C170.662 62.1009 171.555 62.2555 172.486 62.2555C173.263 62.2555 174.039 62.1782 174.814 61.9848C175.397 61.8301 175.94 61.5981 176.444 61.3272C176.794 61.1339 177.143 60.9018 177.493 60.6697V60.6696C177.648 60.515 177.842 60.4375 178.074 60.3989C178.229 60.3989 178.346 60.4763 178.424 60.5923L178.89 61.1725C178.579 61.5593 178.191 61.9075 177.764 62.1782C177.298 62.4877 176.794 62.7585 176.251 62.9519C175.668 63.184 175.048 63.3386 174.387 63.4934C173.728 63.6095 173.068 63.6868 172.409 63.6868C171.283 63.6868 170.157 63.4934 169.11 63.0679C168.14 62.6424 167.247 62.0235 166.548 61.2499C165.811 60.3602 165.229 59.3545 164.918 58.2714C164.53 56.9949 164.337 55.6411 164.337 54.2872C164.337 53.0881 164.491 51.9277 164.88 50.806C165.19 49.8002 165.695 48.8719 166.394 48.0596C167.092 47.2859 167.945 46.6671 168.916 46.2416C169.964 45.7774 171.128 45.584 172.292 45.584C173.224 45.584 174.155 45.7387 175.048 46.0868C175.901 46.435 176.639 46.9378 177.259 47.5954C177.92 48.2917 178.424 49.1039 178.773 49.9936C179.162 51.0767 179.355 52.1985 179.316 53.3589C179.316 53.5523 179.278 53.7071 179.2 53.9004C179.123 54.0165 178.967 54.0551 178.851 54.0165L165.967 53.9004ZM177.725 52.8174C177.764 51.9277 177.609 51.0767 177.337 50.2257C177.105 49.5294 176.716 48.8719 176.212 48.3304C175.746 47.8275 175.125 47.402 174.504 47.1313C173.806 46.8604 173.068 46.7058 172.292 46.7058C171.478 46.7058 170.623 46.8218 169.847 47.1313C169.149 47.402 168.488 47.8275 167.984 48.3304C167.441 48.8719 167.014 49.5294 166.742 50.2257C166.394 51.038 166.199 51.8503 166.083 52.74L177.725 52.8174ZM184.09 53.9004V54.2486C184.09 55.409 184.245 56.6082 184.555 57.7298C184.827 58.6583 185.254 59.5092 185.875 60.2442C186.419 60.9018 187.117 61.4046 187.932 61.7527C188.785 62.1009 189.678 62.2555 190.61 62.2555C191.385 62.2555 192.162 62.1782 192.938 61.9848C193.52 61.8301 194.064 61.5981 194.568 61.3272C194.918 61.1339 195.267 60.9019 195.615 60.6699L195.616 60.6696C195.771 60.515 195.965 60.4375 196.198 60.3989C196.353 60.3989 196.469 60.4763 196.548 60.5923L197.013 61.1725C196.703 61.5593 196.315 61.9075 195.888 62.1782C195.422 62.4877 194.918 62.7585 194.374 62.9519C193.792 63.184 193.171 63.3386 192.511 63.4934C191.851 63.6095 191.192 63.6868 190.532 63.6868C189.407 63.6868 188.281 63.4934 187.234 63.0679C186.263 62.6424 185.37 62.0235 184.672 61.2499C183.935 60.3602 183.352 59.3545 183.042 58.2714C182.654 56.9949 182.459 55.6411 182.459 54.2872C182.459 53.0881 182.615 51.9277 183.004 50.806C183.313 49.8002 183.819 48.8719 184.516 48.0596C185.215 47.2859 186.069 46.6671 187.039 46.2416C188.087 45.7774 189.251 45.584 190.415 45.584C191.347 45.584 192.278 45.7387 193.171 46.0868C194.025 46.435 194.762 46.9378 195.383 47.5954C196.042 48.2917 196.548 49.1039 196.896 49.9936C197.284 51.038 197.44 52.1598 197.44 53.2816C197.44 53.475 197.402 53.6296 197.323 53.8231C197.246 53.9392 197.091 53.9778 196.975 53.9392L184.09 53.9004ZM195.849 52.8174C195.849 51.9664 195.733 51.1154 195.461 50.3031C195.227 49.6069 194.84 48.9493 194.335 48.4077C193.869 47.9048 193.249 47.4793 192.627 47.2086C191.929 46.9378 191.192 46.7831 190.415 46.7831C189.6 46.7831 188.747 46.8992 187.97 47.2086C187.272 47.4793 186.612 47.9048 186.108 48.4077C185.565 48.9493 185.138 49.6069 184.866 50.3031C184.517 51.1154 184.323 51.9277 184.206 52.8174H195.849ZM206.366 63.6868C205.357 63.7641 204.348 63.3773 203.572 62.6811C202.873 61.8688 202.486 60.7857 202.563 59.7026V47.7501H200.04C199.924 47.7501 199.807 47.7114 199.73 47.6341C199.652 47.5567 199.613 47.4407 199.613 47.3246V46.6671L202.602 46.4737L203.029 40.2073C203.067 40.0912 203.106 40.0139 203.145 39.9365C203.222 39.8591 203.339 39.8204 203.455 39.8204H204.232V46.3576H209.82V47.5954H204.271V59.5479C204.271 59.9734 204.309 60.3989 204.464 60.7857C204.58 61.0951 204.736 61.4046 204.968 61.6367C205.202 61.8688 205.434 62.0235 205.745 62.1396C206.056 62.2556 206.366 62.2943 206.715 62.2943C207.103 62.2943 207.452 62.2555 207.802 62.1009C208.074 61.9848 208.345 61.8688 208.578 61.714C208.734 61.6204 208.891 61.5014 209.028 61.398C209.06 61.3734 209.092 61.3496 209.121 61.3272C209.199 61.2499 209.316 61.1725 209.471 61.1338C209.587 61.1338 209.704 61.2112 209.743 61.3272L210.208 62.0622C209.743 62.5651 209.16 62.9906 208.501 63.2613C207.84 63.5321 207.103 63.6868 206.366 63.6868ZM215.951 39.7431C215.951 39.9365 215.913 40.1686 215.835 40.3234C215.758 40.5167 215.641 40.6715 215.486 40.7874C215.357 40.9157 215.229 40.9907 215.078 41.0787C215.047 41.097 215.014 41.1157 214.981 41.1356C214.593 41.2904 214.166 41.2904 213.778 41.1356C213.585 41.0583 213.429 40.9422 213.274 40.7874C213.17 40.6844 213.101 40.5812 213.033 40.478C212.998 40.4264 212.963 40.3749 212.924 40.3234C212.847 40.13 212.808 39.9365 212.808 39.7431C212.808 39.5497 212.847 39.3176 212.924 39.1242C213.002 38.9308 213.119 38.7761 213.274 38.6214C213.429 38.4666 213.585 38.3506 213.778 38.2345C214.166 38.0798 214.593 38.0798 214.981 38.2345C215.175 38.3119 215.331 38.4279 215.486 38.5827C215.641 38.7373 215.758 38.8921 215.835 39.0855C215.913 39.3176 215.951 39.511 215.951 39.7431ZM215.292 45.7387V63.3773H213.623V45.7387H215.292ZM221.773 48.8719C222.549 47.9048 223.519 47.0538 224.606 46.435C225.692 45.8161 226.934 45.5066 228.176 45.5066C229.069 45.5066 229.923 45.6613 230.738 45.9707C231.436 46.2416 232.057 46.7058 232.561 47.2859C233.067 47.9048 233.454 48.6011 233.648 49.3748C233.92 50.2644 234.037 51.1928 234.037 52.1211V63.3386H232.329V52.1211C232.406 50.7286 232.018 49.3748 231.203 48.253C230.349 47.2859 229.069 46.7444 227.749 46.8604C226.624 46.8604 225.499 47.1699 224.528 47.7114C223.48 48.369 222.588 49.22 221.85 50.2257V63.4161H220.143V45.7387H221.074C221.346 45.7 221.54 45.8934 221.579 46.1642V46.2028L221.773 48.8719ZM252.781 46.5897V47.1699C252.781 47.4407 252.626 47.5954 252.277 47.6341L249.559 47.8275C249.909 48.2917 250.142 48.7945 250.336 49.336C250.53 49.9163 250.608 50.5352 250.608 51.1154C250.608 51.8891 250.452 52.7013 250.142 53.4362C249.87 54.0938 249.404 54.7127 248.861 55.2156C248.279 55.7185 247.62 56.1052 246.882 56.3373C246.067 56.6082 245.174 56.7628 244.321 56.7242C243.389 56.7242 242.458 56.5694 241.566 56.26C241.099 56.4921 240.712 56.8403 240.362 57.2657C240.09 57.5752 239.936 58.0007 239.936 58.3874C239.897 58.8516 240.129 59.2771 240.479 59.5479C240.905 59.8574 241.371 60.0508 241.875 60.1281C242.536 60.2442 243.195 60.3602 243.855 60.3602L246.144 60.4763C246.921 60.4763 247.697 60.5536 248.435 60.7084C249.132 60.7857 249.793 60.9791 250.413 61.2499C250.957 61.482 251.462 61.8688 251.811 62.3716C252.199 62.9131 252.393 63.6094 252.354 64.267C252.354 65.002 252.16 65.7369 251.811 66.3945C251.423 67.0908 250.879 67.6709 250.22 68.1352C249.443 68.6767 248.628 69.1022 247.697 69.3729C246.61 69.6824 245.524 69.8371 244.398 69.8371C243.312 69.8371 242.225 69.7211 241.139 69.4503C240.324 69.2569 239.509 68.9088 238.81 68.4446C238.189 68.0578 237.684 67.5549 237.296 66.936C236.986 66.3945 236.83 65.7756 236.83 65.1567C236.83 64.267 237.141 63.4161 237.762 62.7585C238.46 62.0622 239.314 61.5593 240.285 61.2499C239.702 61.0951 239.198 60.7857 238.771 60.3989C238.422 59.9734 238.228 59.4705 238.228 58.8904C238.228 58.6195 238.267 58.3488 238.344 58.1167C238.46 57.8459 238.577 57.5752 238.771 57.3044C238.965 57.0336 239.198 56.7628 239.47 56.5694C239.741 56.3373 240.052 56.1052 240.401 55.9118C239.586 55.4477 238.926 54.7901 238.46 53.9778C237.995 53.1268 237.723 52.1598 237.762 51.154C237.762 50.3804 237.917 49.5681 238.228 48.8332C238.538 48.1369 238.965 47.5567 239.509 47.0538C240.09 46.551 240.751 46.1642 241.487 45.8934C243.04 45.3132 244.747 45.2358 246.378 45.6227C246.998 45.7774 247.62 46.0482 248.163 46.3962L252.781 46.5897ZM250.957 64.4991C250.996 64.0349 250.84 63.5321 250.53 63.184C250.22 62.8358 249.831 62.5651 249.366 62.4103C248.823 62.2169 248.279 62.0622 247.697 62.0235C247.076 61.9461 246.416 61.9075 245.717 61.8688L243.622 61.7527C242.962 61.714 242.302 61.6367 241.643 61.5593C241.216 61.714 240.789 61.9461 240.401 62.1782C240.052 62.4103 239.702 62.681 239.431 62.9519C239.159 63.2226 238.965 63.5707 238.771 63.9189C238.422 64.7312 238.46 65.6982 238.926 66.4718C239.237 66.936 239.625 67.3228 240.09 67.6323C240.672 67.9804 241.332 68.2512 241.993 68.4059C242.846 68.5994 243.7 68.7154 244.554 68.6767C245.408 68.6767 246.223 68.5994 247.076 68.3673C247.774 68.1739 248.473 67.903 249.094 67.5163C249.638 67.1681 250.103 66.7426 250.452 66.2011C250.763 65.6982 250.957 65.118 250.957 64.4991ZM244.359 55.5251C245.058 55.5251 245.717 55.409 246.378 55.1769C246.921 54.9835 247.464 54.6741 247.891 54.2486C248.279 53.8617 248.589 53.3976 248.823 52.8561C249.25 51.6956 249.25 50.4191 248.823 49.22C248.628 48.6784 248.279 48.2143 247.891 47.8275C247.464 47.4407 246.959 47.1313 246.378 46.9378C245.097 46.5123 243.7 46.5123 242.38 46.9378C241.837 47.1313 241.294 47.4407 240.867 47.8275C240.44 48.2143 240.129 48.7172 239.936 49.22C239.702 49.8002 239.625 50.4191 239.625 51.038C239.625 51.657 239.741 52.2758 239.936 52.8174C240.129 53.3589 240.44 53.8231 240.867 54.2099C241.294 54.5967 241.798 54.9062 242.38 55.1382C243.001 55.3703 243.7 55.5251 244.359 55.5251ZM110.085 41.7159H117.769V37.8091H97.5884V41.7159H105.311V63.3386H110.085V41.7159Z" fill="white"/>
</svg>
