<svg width="269" height="104" viewBox="0 0 269 104" fill="none" xmlns="http://www.w3.org/2000/svg">
<path fill-rule="evenodd" clip-rule="evenodd" d="M178.37 47.596C178.911 48.5351 179.088 49.6035 179.147 50.8047L179.224 52.4057V63.601L179.302 65.2037C179.459 67.8211 181.38 69.7564 184.005 69.921L185.591 70V52.4057L185.67 50.8047C185.735 49.617 185.911 48.5284 186.461 47.5825C187.021 46.6124 187.826 45.8075 188.794 45.2487C189.761 44.6899 190.859 44.3968 191.975 44.3988C193.091 44.4008 194.187 44.698 195.153 45.2603C196.119 45.8227 196.92 46.6305 197.477 47.6027C198.019 48.5418 198.188 49.6304 198.253 50.8047L198.332 52.4007V63.601L198.41 65.2037C198.574 67.8345 200.48 69.7698 203.113 69.921L204.699 70V50.8047C204.699 47.4105 203.358 44.1551 200.97 41.7546C198.582 39.354 195.343 38.0047 191.966 38.0034C190.158 38.0014 188.371 38.3872 186.723 39.135C185.075 39.8827 183.606 40.9752 182.412 42.3394C181.217 40.9757 179.747 39.8835 178.1 39.1356C176.453 38.3876 174.666 38.0011 172.858 38.0017C170.213 38.0017 167.759 38.8081 165.726 40.2008C164.486 38.8097 161.711 38.0017 160.118 38.0017V70L161.711 69.921C164.375 69.7446 166.301 67.8614 166.405 65.2037L166.49 63.601V52.4057L166.569 50.8047C166.636 49.5968 166.803 48.5351 167.346 47.5893C167.907 46.6197 168.711 45.815 169.678 45.2555C170.646 44.696 171.742 44.4013 172.858 44.4007C173.975 44.4009 175.072 44.6963 176.039 45.2571C177.007 45.8179 177.81 46.6245 178.37 47.596ZM69.3676 69.9227L70.9608 70H94.8415L94.7629 68.404C94.5472 65.7732 92.6933 63.8513 90.067 63.68L88.4738 63.601H74.1471L93.2483 44.399L93.1697 42.8047C93.046 40.147 91.1135 38.2268 88.4738 38.0806L86.8807 38.0084L63 38.0017L63.0786 39.6027C63.2875 42.2083 65.1682 44.1705 67.7728 44.3217L69.3676 44.4007H83.6944L64.5932 63.6027L64.6717 65.2037C64.8289 67.8412 66.723 69.7514 69.3676 69.921V69.9227ZM153.867 42.6854C155.346 44.1711 156.519 45.9348 157.319 47.8761C158.119 49.8173 158.531 51.8979 158.531 53.9992C158.531 56.1004 158.119 58.181 157.319 60.1222C156.519 62.0635 155.346 63.8273 153.867 65.3129C150.88 68.3126 146.829 69.9976 142.606 69.9976C138.383 69.9976 134.333 68.3126 131.345 65.3129C125.128 59.0651 125.128 48.9332 131.345 42.6854C132.823 41.2003 134.577 40.0221 136.507 39.2182C138.437 38.4143 140.506 38.0003 142.596 38C144.689 37.9985 146.762 38.4118 148.696 39.216C150.63 40.0203 152.387 41.1998 153.867 42.6871V42.6854ZM149.362 47.2163C151.152 49.0173 152.158 51.4591 152.158 54.005C152.158 56.551 151.152 58.9928 149.362 60.7938C147.57 62.5934 145.14 63.6043 142.606 63.6043C140.073 63.6043 137.643 62.5934 135.851 60.7938C134.06 58.9928 133.054 56.551 133.054 54.005C133.054 51.4591 134.06 49.0173 135.851 47.2163C137.643 45.4167 140.073 44.4058 142.606 44.4058C145.14 44.4058 147.57 45.4167 149.362 47.2163ZM109.182 38C111.271 38.0006 113.341 38.4148 115.271 39.219C117.201 40.0232 118.955 41.2017 120.432 42.6871C126.651 48.9332 126.651 59.0668 120.432 65.3129C117.445 68.3126 113.395 69.9976 109.172 69.9976C104.949 69.9976 100.898 68.3126 97.9108 65.3129C91.6936 59.0651 91.6936 48.9332 97.9108 42.6854C99.3881 41.2003 101.142 40.0221 103.072 39.2182C105.003 38.4143 107.072 38.0003 109.161 38H109.182ZM115.927 47.2129C117.718 49.014 118.725 51.4561 118.725 54.0025C118.725 56.5489 117.718 58.9911 115.927 60.7921C114.135 62.5917 111.705 63.6026 109.172 63.6026C106.638 63.6026 104.208 62.5917 102.416 60.7921C100.625 58.9911 99.6194 56.5493 99.6194 54.0034C99.6194 51.4574 100.625 49.0156 102.416 47.2146C104.208 45.415 106.638 44.4041 109.172 44.4041C111.705 44.4041 114.135 45.415 115.927 47.2146V47.2129Z" fill="white"/>
</svg>
