<svg width="27" height="22" viewBox="0 0 27 22" fill="none" xmlns="http://www.w3.org/2000/svg">
<path d="M0.78125 11.1338C0.78125 10.5894 1.22901 10.1479 1.78025 10.1479L22.9422 10.1476L14.3657 1.68364C14.1709 1.49072 14.0733 1.239 14.0733 0.986593C14.0733 0.734184 14.1709 0.481775 14.3657 0.28886C14.7559 -0.0962835 15.3884 -0.0962834 15.779 0.28886L25.926 10.3026C26.3163 10.6877 26.3163 11.3119 25.926 11.6974L15.779 21.7111C15.3888 22.0963 14.7563 22.0963 14.3657 21.7111C13.9754 21.326 13.9754 20.7018 14.3657 20.3163L22.6721 12.1197L1.78043 12.1197C1.22883 12.1197 0.781428 11.6778 0.781428 11.1338L0.78125 11.1338Z" fill="#1D4354"/>
</svg>
