<svg width="40" height="40" viewBox="0 0 40 40" fill="none" xmlns="http://www.w3.org/2000/svg">
<rect x="1" y="1" width="38" height="38" rx="19" stroke="#6BB64A" stroke-width="2"/>
<g clip-path="url(#clip0_3198_213)">
<path d="M15.7507 13.7077C15.5127 13.932 15.3239 14.1982 15.1951 14.4913C15.0663 14.7843 15 15.0984 15 15.4157C15 15.7329 15.0663 16.047 15.1951 16.34C15.3239 16.6331 15.5127 16.8993 15.7507 17.1236L18.8146 20.012L15.7507 22.9013C15.2818 23.3565 15.0217 23.9674 15.0266 24.6019C15.0315 25.2365 15.3011 25.8437 15.777 26.2924C16.253 26.7411 16.8971 26.9952 17.5702 26.9998C18.2433 27.0045 18.8913 26.7593 19.3741 26.3172L24.2497 21.7199C24.7301 21.2669 25 20.6525 25 20.012C25 19.3714 24.7301 18.757 24.2497 18.304L19.3741 13.7077C19.1363 13.4834 18.8538 13.3054 18.543 13.1839C18.2321 13.0625 17.8989 13 17.5624 13C17.2259 13 16.8927 13.0625 16.5819 13.1839C16.271 13.3054 15.9886 13.4834 15.7507 13.7077Z" fill="#6BB64A"/>
<path d="M15.7512 13.7077C15.5132 13.932 15.3244 14.1982 15.1955 14.4913C15.0667 14.7843 15.0004 15.0984 15.0004 15.4157C15.0004 15.7329 15.0667 16.047 15.1955 16.34C15.3244 16.6331 15.5132 16.8993 15.7512 17.1236L18.815 20.012C22.4434 16.5923 19.3746 13.7077 19.3746 13.7077C19.1367 13.4834 18.8543 13.3054 18.5434 13.1839C18.2325 13.0625 17.8993 13 17.5629 13C17.2264 13 16.8932 13.0625 16.5823 13.1839C16.2715 13.3054 15.989 13.4834 15.7512 13.7077Z" fill="#6BB64A"/>
</g>
<defs>
<clipPath id="clip0_3198_213">
<rect width="10" height="14" fill="white" transform="translate(15 13)"/>
</clipPath>
</defs>
</svg>
