<svg width="16" height="13" viewBox="0 0 16 13" fill="none" xmlns="http://www.w3.org/2000/svg">
<path d="M2.80668e-07 6.57905C2.94729e-07 6.25739 0.281639 5.99649 0.628366 5.99649L13.9391 5.99629L8.5445 0.994876C8.42198 0.88088 8.36062 0.732135 8.36062 0.582986C8.36062 0.433836 8.42199 0.284685 8.5445 0.170689C8.78998 -0.0568965 9.18779 -0.0568965 9.43349 0.170689L15.8159 6.0879C16.0614 6.31549 16.0614 6.68431 15.8159 6.9121L9.43349 12.8293C9.18802 13.0569 8.7902 13.0569 8.5445 12.8293C8.29903 12.6017 8.29903 12.2329 8.5445 12.0051L13.7692 7.16164L0.628476 7.16163C0.281521 7.16163 0.000111847 6.90052 0.000111861 6.57907L2.80668e-07 6.57905Z" fill="white"/>
</svg>
