<svg width="22" height="21" viewBox="0 0 22 21" fill="none" xmlns="http://www.w3.org/2000/svg">
<path d="M15.3745 7.94395C15.5352 7.74602 15.515 7.46254 15.3271 7.28818C15.1393 7.11381 14.8453 7.10533 14.6469 7.26838L5.55296 14.7406L0.750723 12.9469C0.470634 12.8433 0.242517 12.6399 0.11371 12.3784C-0.0153542 12.117 -0.0353597 11.8175 0.0578387 11.5423C0.151039 11.2671 0.350369 11.0371 0.614355 10.8998L20.5511 0.113434C20.7609 0.00433385 21.0049 -0.0274744 21.2371 0.0241258C21.4696 0.0754944 21.6745 0.206977 21.8141 0.393604C21.9537 0.580466 22.0181 0.809735 21.9956 1.039L20.2468 18.6454C20.2112 19.0116 19.9989 19.3401 19.6739 19.5317C19.3487 19.7232 18.9493 19.7555 18.5958 19.6184L12.7513 17.4329L9.08212 20.7535C8.9006 20.9172 8.65979 21.0058 8.41144 20.9997C8.16283 20.9938 7.9269 20.8937 7.75419 20.7214C7.58121 20.5489 7.48557 20.3178 7.48728 20.0779V17.4701L15.3745 7.94395Z" fill="white"/>
</svg>
