<svg width="26" height="21" viewBox="0 0 26 21" fill="none" xmlns="http://www.w3.org/2000/svg">
<path d="M3.61785e-07 11.1125C3.79909e-07 10.6178 0.457663 10.2165 1.02109 10.2165L22.651 10.2162L13.8848 2.52448C13.6857 2.34917 13.586 2.12041 13.586 1.89103C13.586 1.66165 13.6857 1.43227 13.8848 1.25695C14.2837 0.906947 14.9302 0.906948 15.3294 1.25695L25.7008 10.3571C26.0997 10.7071 26.0997 11.2743 25.7008 11.6246L15.3294 20.7248C14.9305 21.0748 14.2841 21.0748 13.8848 20.7248C13.4859 20.3748 13.4859 19.8076 13.8848 19.4573L22.375 12.0084L1.02127 12.0084C0.45747 12.0084 0.000179634 11.6068 0.000179653 11.1125L3.61785e-07 11.1125Z" fill="#6BB64A"/>
</svg>
