<svg width="198" height="120" viewBox="0 0 198 120" fill="none" xmlns="http://www.w3.org/2000/svg">
<path d="M188.376 59.999C188.376 64.8506 185.953 69.5213 181.467 73.8207C176.98 78.1215 170.461 82.0176 162.364 85.3001C146.173 91.8642 123.77 95.9355 98.9997 95.9355C74.229 95.9355 51.8265 91.8642 35.6352 85.3001C27.5382 82.0176 21.019 78.1215 16.532 73.8207C12.0463 69.5213 9.62305 64.8506 9.62305 59.999C9.62305 55.1474 12.0463 50.4767 16.532 46.1772C21.019 41.8765 27.5382 37.9804 35.6352 34.6979C51.8265 28.1338 74.229 24.0625 98.9997 24.0625C123.77 24.0625 146.173 28.1338 162.364 34.6979C170.461 37.9804 176.98 41.8765 181.467 46.1772C185.953 50.4767 188.376 55.1474 188.376 59.999Z" stroke="#6BB64A"/>
<path d="M187.83 83.8021C186.542 88.6083 182.893 92.5889 177.293 95.6517C171.691 98.7154 164.177 100.837 155.259 101.93C137.426 104.117 114.082 102.182 89.4649 95.5859C64.8479 88.9898 43.6638 78.9937 29.3131 68.1832C22.1366 62.777 16.6902 57.1831 13.3709 51.729C10.0524 46.2764 8.88212 41.0044 10.1699 36.1982C11.4578 31.3919 15.1073 27.4114 20.7075 24.3485C26.3091 21.2848 33.8228 19.1635 42.7409 18.0699C60.5742 15.8831 83.9183 17.8182 108.535 24.4143C133.152 31.0104 154.336 41.0065 168.687 51.8171C175.863 57.2232 181.31 62.8171 184.629 68.2712C187.948 73.7238 189.118 78.9959 187.83 83.8021Z" stroke="#1D4354"/>
<path d="M10.1027 83.5526C8.82855 78.7428 10.0138 73.474 13.3478 68.0309C16.6826 62.5863 22.1449 57.0078 29.3367 51.6221C43.7181 40.8524 64.9305 30.9166 89.5661 24.3905C114.202 17.8644 137.551 15.9956 155.378 18.2331C164.293 19.352 171.801 21.4947 177.394 24.5743C182.985 27.653 186.623 31.644 187.898 36.4538C189.172 41.2637 187.986 46.5324 184.652 51.9756C181.318 57.4202 175.855 62.9986 168.663 68.3843C154.282 79.154 133.07 89.0899 108.434 95.616C83.7985 102.142 60.4491 104.011 42.622 101.773C33.7071 100.654 26.1994 98.5118 20.6065 95.4322C15.0151 92.3534 11.3769 88.3625 10.1027 83.5526Z" stroke="url(#paint0_linear_3154_5426)"/>
<defs>
<linearGradient id="paint0_linear_3154_5426" x1="108.562" y1="96.0993" x2="89.4381" y2="23.9072" gradientUnits="userSpaceOnUse">
<stop stop-color="#1D4354"/>
<stop offset="1" stop-color="#6BB64A"/>
</linearGradient>
</defs>
</svg>
