<svg width="63" height="64" viewBox="0 0 63 64" fill="none" xmlns="http://www.w3.org/2000/svg">
<path d="M5.46189 6.07724C5.46189 8.99262 7.8255 11.3562 10.7413 11.3562C13.6567 11.3562 16.0203 8.99262 16.0203 6.07724C16.0203 3.16139 13.6567 0.797791 10.7413 0.797791C7.8255 0.797791 5.46189 3.16139 5.46189 6.07724" fill="white"/>
<path d="M46.7599 6.07724C46.7599 8.99262 49.1235 11.3562 52.0389 11.3562C54.9548 11.3562 57.3184 8.99262 57.3184 6.07724C57.3184 3.16139 54.9548 0.797791 52.0389 0.797791C49.1235 0.797791 46.7599 3.16139 46.7599 6.07724" fill="white"/>
<path d="M46.7599 45.7002C46.7599 48.6155 49.1235 50.9792 52.0389 50.9792C54.9548 50.9792 57.3184 48.6155 57.3184 45.7002C57.3184 42.7843 54.9548 40.4207 52.0389 40.4207C49.1235 40.4207 46.7599 42.7843 46.7599 45.7002" fill="white"/>
<path d="M41.8995 58.0186V62.0237C41.8995 62.5727 42.3428 63.0164 42.8922 63.0164H45.2752V58.5418C45.2752 58.178 45.573 57.8797 45.9373 57.8797C46.3081 57.8797 46.5995 58.1775 46.5995 58.5418V63.0164H57.4752V58.5418C57.4752 58.178 57.773 57.8797 58.1373 57.8797C58.5081 57.8797 58.7994 58.1775 58.7994 58.5418V63.0164H61.1884C61.7379 63.0164 62.1812 62.5727 62.1812 62.0237V58.0186C62.1812 55.5165 60.1491 53.4844 57.6405 53.4844H46.4337C43.9316 53.484 41.8995 55.5165 41.8995 58.0186H41.8995Z" fill="white"/>
<path d="M5.46189 45.7002C5.46189 48.6155 7.8255 50.9792 10.7413 50.9792C13.6567 50.9792 16.0203 48.6155 16.0203 45.7002C16.0203 42.7843 13.6567 40.4207 10.7413 40.4207C7.8255 40.4207 5.46189 42.7843 5.46189 45.7002" fill="white"/>
<path d="M49.7562 28.4301C49.4981 28.6882 49.5045 29.1116 49.7696 29.3633C50.0078 29.6145 50.4321 29.6274 50.7027 29.3568L51.3847 28.6614V36.7768C51.3847 37.1407 51.6825 37.439 52.0468 37.439C52.4107 37.439 52.7089 37.1412 52.7089 36.7768V28.6351L53.384 29.3037C53.6421 29.5618 54.0591 29.5618 54.3172 29.3037C54.5753 29.0456 54.5753 28.6286 54.3172 28.3701C52.6286 26.6875 52.4859 26.5314 52.4176 26.4904C52.123 26.3034 51.785 26.3616 51.5703 26.5763L49.7562 28.4301Z" fill="white"/>
<path d="M27.2632 6.7384H43.898C44.2688 6.7384 44.5602 6.44059 44.5602 6.07627C44.5602 5.71197 44.2688 5.41414 43.898 5.41414H27.2372L28.9253 3.72607C29.1834 3.46796 29.1769 3.04456 28.9188 2.78599C28.6607 2.52788 28.2438 2.52788 27.9857 2.79291C27.8979 2.88157 25.1802 5.61775 25.0929 5.70557C24.9493 5.91381 24.9405 6.20332 25.0929 6.44665C25.1788 6.5547 28.1444 9.45068 28.0785 9.38603C28.3375 9.6446 28.7637 9.6409 29.0116 9.3791C29.2697 9.11452 29.2633 8.69758 29.0052 8.44594L27.2632 6.7384Z" fill="white"/>
<path d="M8.47133 29.3637C8.70958 29.6149 9.13393 29.6278 9.4045 29.3572L10.0865 28.6619V36.7773C10.0865 37.1411 10.3843 37.4394 10.7486 37.4394C11.1124 37.4394 11.4107 37.1416 11.4107 36.7773V28.6355L12.0858 29.3041C12.3439 29.5622 12.7608 29.5622 13.0189 29.3041C13.2771 29.046 13.2771 28.629 13.0189 28.3705C11.3304 26.688 11.1877 26.5318 11.1194 26.4908C10.9306 26.3366 10.5307 26.3181 10.2721 26.5767L8.4584 28.4301C8.20029 28.6887 8.20676 29.1121 8.47133 29.3637V29.3637Z" fill="white"/>
<path d="M24.6486 57.7734C24.523 57.8995 24.4565 58.0712 24.4565 58.2435C24.4565 58.4226 24.5295 58.5944 24.6551 58.714L27.0118 61.024C27.2722 61.2845 27.6984 61.2771 27.945 61.0176C28.2031 60.7525 28.1966 60.3356 27.9385 60.0775L26.7403 58.9056H37.6621C38.0259 58.9056 38.3242 58.6078 38.3242 58.2435C38.3242 57.8732 38.0264 57.5813 37.6621 57.5813H26.7135L27.872 56.4164C28.1301 56.1583 28.1301 55.7413 27.872 55.4828C27.6138 55.2247 27.19 55.2247 26.9319 55.4828L24.6486 57.7734Z" fill="white"/>
<path d="M17.7787 35.937L20.3206 35.6724C20.605 33.9843 21.2671 32.4288 22.2137 31.092L20.6119 29.0997C20.4134 28.848 20.4332 28.4906 20.6581 28.2588L22.0812 26.8358C22.3129 26.6109 22.6703 26.5906 22.922 26.7896L24.9143 28.3978C26.2514 27.4448 27.8071 26.7826 29.4882 26.4978L29.7597 23.9559C29.7929 23.6382 30.064 23.3931 30.3821 23.3931H32.4008C32.7185 23.3931 32.99 23.6382 33.0232 23.9559L33.2947 26.4978C34.9759 26.7827 36.5315 27.4443 37.8686 28.3978L39.8609 26.7896C40.1061 26.5911 40.47 26.6109 40.6948 26.8358L42.1249 28.2588C42.3497 28.4906 42.3696 28.848 42.171 29.0997L40.5624 31.092C41.5154 32.4288 42.1775 33.9843 42.4624 35.6724L44.9978 35.937C45.3219 35.9767 45.5606 36.2412 45.5606 36.5658V38.578C45.5606 38.8962 45.3224 39.1672 44.9978 39.2004L42.4624 39.4715C42.1775 41.1527 41.5159 42.7087 40.5624 44.0454L42.171 46.0377C42.3696 46.2893 42.3497 46.6536 42.1249 46.8785L40.6948 48.302C40.47 48.5334 40.1057 48.5468 39.8609 48.3482L37.8686 46.7396C36.5315 47.6926 34.9758 48.3547 33.2947 48.6396L33.0232 51.1749C32.99 51.4991 32.7189 51.7378 32.4008 51.7378H30.3821C30.0644 51.7378 29.7929 51.4991 29.7597 51.1749L29.4882 48.6396C27.807 48.3547 26.2514 47.693 24.9143 46.7396L22.922 48.3482C22.6703 48.5468 22.313 48.5334 22.0812 48.302L20.6581 46.8785C20.4332 46.6537 20.4134 46.2898 20.6119 46.0377L22.2137 44.0454C21.2672 42.7083 20.6051 41.1526 20.3206 39.4715L17.7787 39.2004C17.461 39.1672 17.2228 38.8962 17.2228 38.578V36.5658C17.2228 36.2412 17.461 35.9767 17.7787 35.937ZM37.3462 37.5655C37.3462 34.2756 34.6788 31.6082 31.3889 31.6082C28.0991 31.6082 25.4381 34.2756 25.4381 37.5655C25.4381 40.8553 28.0991 43.5227 31.3889 43.5227C34.6788 43.5227 37.3462 40.8553 37.3462 37.5655Z" fill="white"/>
<path d="M46.4337 13.8615H57.6405C60.1491 13.8615 62.1812 15.894 62.1812 18.3957V22.7314C62.1812 23.1022 61.8833 23.3935 61.519 23.3935H58.7984V18.9189C58.7984 18.5546 58.5071 18.2568 58.1363 18.2568C57.772 18.2568 57.4742 18.5546 57.4742 18.9189V23.3935H46.5985V18.9189C46.5985 18.5546 46.3071 18.2568 45.9364 18.2568C45.5721 18.2568 45.2742 18.5546 45.2742 18.9189V23.3935H42.5602C42.1963 23.3935 41.898 23.1022 41.898 22.7314V18.3957C41.8994 15.894 43.9315 13.8615 46.4336 13.8615H46.4337Z" fill="white"/>
<path d="M5.13786 13.8578H16.3446C18.8504 13.8578 20.8817 15.8895 20.8817 18.3948V22.7323C20.8817 23.0975 20.5852 23.3945 20.2195 23.3945H17.5032V18.9198C17.5032 18.5541 17.2072 18.2577 16.8411 18.2577C16.4754 18.2577 16.1789 18.5537 16.1789 18.9198V23.3945H5.30278V18.9198C5.30278 18.5541 5.0068 18.2577 4.64064 18.2577C4.27494 18.2577 3.97851 18.5537 3.97851 18.9198V23.3945H1.26219C0.89649 23.3945 0.600056 23.0976 0.600056 22.7323V18.3948C0.60098 15.889 2.63258 13.8578 5.13802 13.8578H5.13786Z" fill="white"/>
<path d="M5.13786 53.4826H16.3446C18.8504 53.4826 20.8817 55.5138 20.8817 58.0196V62.0261C20.8817 62.5746 20.437 63.0188 19.8889 63.0188H17.5036V58.5451C17.5036 58.1794 17.2076 57.8829 16.8414 57.8829C16.4757 57.8829 16.1793 58.1789 16.1793 58.5451V63.0188H5.30315V58.5451C5.30315 58.1794 5.00718 57.8829 4.64102 57.8829C4.27532 57.8829 3.97889 58.1789 3.97889 58.5451V63.0188H1.59354C1.04501 63.0188 0.600815 62.5742 0.600815 62.0261V58.0196C0.600815 55.5138 2.6325 53.4826 5.13783 53.4826H5.13786Z" fill="white"/>
</svg>
