<svg width="114" height="114" viewBox="0 0 114 114" fill="none" xmlns="http://www.w3.org/2000/svg">
<rect width="114" height="114" rx="10" fill="#6BB64A"/>
<path d="M77.7917 74.4475C77.7917 76.5824 76.1426 78.3473 74.0232 78.5908V79.7767H71.0728V78.5897C69.0739 78.3468 67.5218 76.6761 67.5218 74.6578H70.4722C70.4722 75.2163 70.9669 75.6699 71.5749 75.6699H73.5201C74.2487 75.6699 74.8409 75.122 74.8409 74.4476C74.8409 74.1305 74.7102 73.8302 74.4726 73.6015C74.2213 73.3581 73.8825 73.2248 73.5195 73.2248H71.5754C69.2204 73.2248 67.3042 71.3529 67.3042 69.0516C67.3042 67.9273 67.7557 66.8726 68.5745 66.0827C69.2588 65.4226 70.1324 65.0148 71.0733 64.9078V63.7224H74.0237V64.9094C76.022 65.1523 77.5736 66.8234 77.5736 68.8413H74.6232C74.6232 68.2828 74.129 67.8292 73.5205 67.8292H71.5753C71.2123 67.8292 70.8746 67.9625 70.6222 68.2054C70.3846 68.4346 70.254 68.7349 70.254 69.0515C70.254 69.7259 70.8472 70.2744 71.5748 70.2744H73.52C74.6517 70.2744 75.7175 70.7016 76.522 71.4782C77.3413 72.268 77.7918 73.3228 77.7918 74.4477L77.7917 74.4475Z" fill="white"/>
<path d="M84.7028 64.7793C84.1791 63.8679 83.5527 63.016 82.8383 62.2441C83.0912 60.9601 83.2535 59.653 83.3214 58.3379H80.0423V55.3875H83.3225C82.969 48.5974 80.1761 42.2451 75.367 37.3682C72.8127 34.776 69.8277 32.7403 66.4953 31.3167C63.4949 30.0349 60.3311 29.3025 57.0693 29.1334V32.4141H54.1189V29.1334C50.8581 29.3025 47.6938 30.0348 44.6939 31.3167C41.3615 32.7403 38.3769 34.776 35.8222 37.3682C31.0131 42.2442 28.2197 48.5966 27.8667 55.3875H31.1469V58.3379H27.8667C28.206 64.7846 30.766 70.8882 35.16 75.6627C37.7347 78.4603 40.7932 80.6641 44.2488 82.2131C47.3783 83.6166 50.6922 84.4148 54.1195 84.5919V81.3111H57.0699V84.5919C59.5978 84.4596 62.073 83.9891 64.4571 83.1851H64.4576C64.76 83.4006 65.073 83.604 65.3907 83.7931C67.5487 85.0786 70.0243 85.7582 72.549 85.7582C80.2738 85.7582 86.5585 79.4738 86.5585 71.7487C86.558 69.2999 85.9168 66.8896 84.7035 64.7789L84.7028 64.7793ZM56.6123 58.4001L42.1739 67.9747L40.135 64.901L53.748 55.8732L53.7485 44.2944H57.4365V56.8632C57.4365 57.4817 57.1278 58.0581 56.612 58.4001H56.6123ZM72.5478 82.8072C70.5542 82.8072 68.6011 82.2719 66.8983 81.2577C66.568 81.0607 66.2455 80.8452 65.9399 80.616C65.9378 80.6144 65.9357 80.6123 65.9331 80.6108C65.7002 80.438 65.4721 80.253 65.2524 80.0597C64.4042 79.3147 63.6781 78.4511 63.0944 77.4907C63.0891 77.4812 63.0833 77.4723 63.0781 77.4628C62.038 75.7458 61.4885 73.7695 61.4885 71.7485C61.4885 71.0457 61.5544 70.3434 61.6845 69.6616C61.8299 68.8976 62.0586 68.1458 62.3637 67.4287C63.2483 65.345 64.7292 63.6043 66.6487 62.3925C67.8162 61.6543 69.0944 61.148 70.4494 60.8883C71.1317 60.7561 71.8366 60.6892 72.5474 60.6892C75.5626 60.6892 78.3803 61.8809 80.4819 64.0453C81.1257 64.7075 81.6847 65.4483 82.1446 66.2486C83.1014 67.9124 83.6067 69.8144 83.6067 71.7479C83.6067 77.8463 78.6453 82.8071 72.548 82.8071L72.5478 82.8072Z" fill="white"/>
</svg>
