<svg width="114" height="114" viewBox="0 0 114 114" fill="none" xmlns="http://www.w3.org/2000/svg">
<rect width="114" height="114" rx="10" fill="#6BB64A"/>
<path d="M93.7124 64.8503C93.8896 67.472 92.9286 70.0428 91.0765 71.9006L78.3087 84.7002V92.4599H60.5044L60.5779 82.5646C60.5969 77.7428 62.5132 73.124 65.9092 69.7129L76.7771 58.7608C77.5111 58.0283 78.5183 57.6396 79.5521 57.6902C80.5865 57.7412 81.5516 58.2263 82.2111 59.0274C82.7838 59.765 83.0642 60.6893 82.999 61.6223C82.9338 62.5553 82.5275 63.4317 81.8573 64.0818L76.6148 69.3434C76.3616 69.596 76.2322 69.948 76.2605 70.3053C76.2887 70.6625 76.4721 70.9893 76.7623 71.1986C77.2671 71.5419 77.9451 71.4703 78.3673 71.0285L84.3975 64.9762C85.2697 64.1009 85.7278 62.8936 85.6569 61.6579L84.7216 47.6168C84.6364 46.2528 85.282 44.9471 86.4161 44.1908C87.5501 43.4346 88.9995 43.3434 90.2189 43.9506C91.4387 44.5584 92.2425 45.7724 92.3277 47.1364L93.7124 64.8503ZM37.0163 92.4666H54.7615L54.688 82.5641C54.669 77.7422 52.7527 73.1234 49.3567 69.7124L38.4887 58.7603C37.7548 58.0278 36.7476 57.6391 35.7138 57.6896C34.6793 57.7407 33.7143 58.2257 33.0548 59.0268C32.4821 59.7645 32.2016 60.6888 32.2669 61.6218C32.3321 62.5548 32.7384 63.4312 33.4086 64.0813L38.651 69.3428C38.9043 69.5954 39.0337 69.9475 39.0054 70.3048C38.9772 70.662 38.7938 70.9888 38.5036 71.1981C37.9988 71.5414 37.3208 71.4698 36.8986 71.028L30.8683 64.9756C29.9962 64.1003 29.5381 62.8931 29.609 61.6574L30.5443 47.6163C30.6295 46.2523 29.9839 44.9466 28.8498 44.1903C27.7158 43.4341 26.2664 43.3428 25.047 43.9501C23.8272 44.5578 23.0233 45.7719 22.9381 47.1359L21.554 64.8496C21.3768 67.4713 22.3378 70.0422 24.1899 71.9L36.9577 84.6996L37.0163 92.4666ZM73.4414 32.8658L71.6228 35.4597C72.3213 36.6752 72.8585 37.9768 73.2205 39.3321L76.3131 39.879C76.8652 39.9765 77.3649 40.2667 77.7249 40.6976C78.0845 41.1291 78.2807 41.674 78.2791 42.2363V44.8746C78.2807 45.437 78.0845 45.9819 77.7249 46.4133C77.3649 46.8448 76.8652 47.1345 76.3131 47.2319L73.2205 47.7788C72.8569 49.1263 72.3197 50.4208 71.6228 51.6291L73.4266 54.2158C73.7466 54.6762 73.896 55.2345 73.8477 55.7938C73.7989 56.3531 73.5565 56.8773 73.1621 57.2753L71.3213 59.1079C70.9253 59.5054 70.403 59.7497 69.8451 59.7982C69.2879 59.8472 68.7306 59.6966 68.273 59.3739L65.6956 57.5635C64.4845 58.2646 63.1877 58.8038 61.8373 59.1671L61.3145 62.3081C61.2169 62.8658 60.9246 63.3705 60.4901 63.7318C60.0561 64.0932 59.5076 64.288 58.9436 64.2808H56.3221C55.7581 64.2881 55.2096 64.0932 54.7756 63.7318C54.341 63.3705 54.0488 62.8658 53.9512 62.3081L53.4063 59.2042C52.0559 58.8408 50.7591 58.3016 49.548 57.6006L46.9706 59.411C46.5104 59.7234 45.9557 59.8636 45.4031 59.8085C44.8504 59.7533 44.3343 59.5054 43.9444 59.1079L42.0888 57.2455C41.6943 56.8475 41.4519 56.3233 41.4036 55.7644C41.3548 55.2051 41.5038 54.6463 41.8242 54.186L43.6429 51.6292C42.9444 50.4136 42.4072 49.112 42.0451 47.7568L38.9526 47.2098C38.4005 47.1124 37.9008 46.8227 37.5408 46.3912C37.1812 45.9598 36.985 45.4149 36.9866 44.8525V42.2214C36.9912 41.6662 37.1884 41.1301 37.5449 40.7054C37.9008 40.2806 38.3933 39.9935 38.9378 39.894L42.0303 39.3471C42.396 37.9862 42.9384 36.6789 43.6431 35.4598L41.8393 32.873C41.5193 32.4132 41.3698 31.8544 41.4181 31.2951C41.4669 30.7358 41.7093 30.2115 42.1038 29.8135L43.9594 27.9511C44.3549 27.5536 44.8778 27.3098 45.4356 27.2608C45.9929 27.2124 46.5496 27.3624 47.0078 27.6856L49.5851 29.496C50.7957 28.7949 52.093 28.2558 53.4434 27.8924L53.9514 24.7736C54.0484 24.22 54.3376 23.7179 54.767 23.3571C55.1969 22.9963 55.7397 22.7988 56.3001 22.8004H58.9287C59.4952 22.7901 60.0474 22.9834 60.4844 23.3453C60.922 23.7066 61.2163 24.2133 61.3144 24.7736L61.8594 27.8775C63.2097 28.2414 64.5065 28.7806 65.7176 29.4811L68.295 27.6707C68.7531 27.3495 69.3099 27.2 69.8672 27.2485C70.4244 27.297 70.9468 27.5408 71.3433 27.9367L73.199 29.7991C73.5924 30.2002 73.8312 30.727 73.8759 31.2878C73.9201 31.8487 73.7666 32.4075 73.4414 32.8658ZM64.7239 43.5369C64.7239 41.6497 63.9766 39.8392 62.6468 38.5047C61.3171 37.1701 59.5133 36.4205 57.6329 36.4205C55.7526 36.4205 53.9487 37.1701 52.619 38.5047C51.2893 39.8392 50.542 41.6497 50.542 43.5369C50.542 45.4247 51.2893 47.2346 52.619 48.5691C53.9487 49.9037 55.7526 50.6538 57.6329 50.6538C59.5133 50.6538 61.3171 49.9038 62.6468 48.5691C63.9765 47.2346 64.7239 45.4247 64.7239 43.5369Z" fill="white"/>
</svg>
