<svg width="114" height="114" viewBox="0 0 114 114" fill="none" xmlns="http://www.w3.org/2000/svg">
<rect width="114" height="114" rx="10" fill="#6BB64A"/>
<path d="M60.201 57.7009C59.2832 58.7336 58.1354 59.3075 57.1026 59.3075C55.1519 59.3075 53.8892 57.4714 53.7748 57.3568L48.6108 59.5374V61.9474C48.6108 63.439 49.6436 64.5868 51.0209 64.8163L51.0204 61.8319H52.7415V64.9303H60.6593L60.6598 61.8319H62.381V64.9303C63.7582 64.7009 64.791 63.4386 64.791 62.0614V59.6514L60.201 57.7009Z" fill="white"/>
<path d="M57.103 57.701C57.9063 57.701 58.7096 56.8977 59.2835 56.2094C60.4313 54.7177 61.1196 52.5372 61.1196 51.5044C61.1196 49.7832 59.2835 48.406 57.1035 48.406C54.923 48.406 53.0874 49.7832 53.0874 51.5044C53.0864 53.3405 55.1519 57.701 57.103 57.701V57.701Z" fill="white"/>
<path d="M88.4305 51.9645C86.1356 51.9645 84.1849 53.6856 83.7255 55.8662H74.086C73.8566 51.85 72.3649 48.0628 69.6104 45.0795L78.1022 36.5877C78.9055 37.0466 79.7088 37.391 80.7416 37.391C83.381 37.391 85.4466 35.2105 85.4466 32.686C85.4466 30.0466 83.381 27.9811 80.7416 27.9811C78.1022 27.9811 76.0366 30.1616 76.0366 32.686C76.0366 33.7188 76.381 34.6367 76.9544 35.44L68.4626 43.9317C65.2493 41.0628 61.1186 39.4561 56.7581 39.4561C52.3975 39.4561 48.2663 41.0627 45.0535 43.9317L36.6767 35.3256C37.2506 34.5223 37.5945 33.6044 37.5945 32.5716C37.5945 29.9322 35.414 27.8666 32.8895 27.8666C30.3651 27.8666 28.1845 30.0472 28.1845 32.5716C28.1845 35.211 30.3651 37.2766 32.8895 37.2766C33.8073 37.2766 34.7256 36.9322 35.5289 36.4733L44.0207 44.965C41.2667 47.9484 39.7751 51.7356 39.545 55.7517H29.6766C29.3322 53.5712 27.3816 51.85 24.9716 51.85C22.3322 51.85 20.2666 54.0306 20.2666 56.555C20.2666 59.1944 22.3322 61.26 24.9716 61.26C27.2666 61.26 29.2172 59.5389 29.6766 57.3583H39.3161C39.5455 61.3745 41.0372 65.1617 43.7917 68.145L35.4144 76.7512C34.6111 76.2923 33.6932 75.9479 32.775 75.9479C30.1356 75.9479 28.07 78.1284 28.07 80.6529C28.07 83.2923 30.2505 85.3579 32.775 85.3579C35.2994 85.3579 37.48 83.1773 37.48 80.6529C37.48 79.6201 37.1355 78.7022 36.5622 77.8989L45.0539 69.4072C48.2673 72.2761 52.3979 73.8828 56.7585 73.8828C61.119 73.8828 65.2502 72.2762 68.463 69.4072L76.9548 77.8989C76.3809 78.7022 76.037 79.6201 76.037 80.6529C76.037 83.2923 78.2175 85.3579 80.742 85.3579C83.3814 85.3579 85.447 83.1773 85.447 80.6529C85.447 78.0135 83.3814 75.9479 80.742 75.9479C79.8242 75.9479 78.9059 76.2923 78.1026 76.7512L69.6108 68.2595C72.3648 65.2761 73.8564 61.4889 74.0864 57.4728H83.7254C84.1843 59.6533 86.0204 61.3745 88.4304 61.3745C91.0698 61.3745 93.1354 59.1939 93.1354 56.6695C93.1354 54.0301 91.0698 51.9645 88.4304 51.9645H88.4305ZM66.6278 62.0628C66.6278 64.5873 64.5622 66.7678 61.9228 66.7678H51.5949C49.0705 66.7678 46.8899 64.7022 46.8899 62.0628V59.0795C46.8899 58.7351 47.1194 58.3911 47.4638 58.2762L52.8572 55.9812C52.0538 54.4896 51.4799 52.6535 51.4799 51.3912C51.4799 48.7518 54.0044 46.5716 57.2177 46.5716C60.4311 46.5716 62.9555 48.7522 62.9555 51.3912C62.9555 52.7684 62.2672 54.7189 61.3489 56.2107L66.1685 58.1614C66.5129 58.2763 66.7423 58.6202 66.7423 58.9647V62.0631L66.6278 62.0628Z" fill="white"/>
</svg>
