<svg width="114" height="114" viewBox="0 0 114 114" fill="none" xmlns="http://www.w3.org/2000/svg">
<rect width="114" height="114" rx="12.6667" fill="#6BB64A"/>
<path d="M31.4621 31.0772C31.4621 33.9926 33.8257 36.3562 36.7415 36.3562C39.6569 36.3562 42.0205 33.9926 42.0205 31.0772C42.0205 28.1613 39.6569 25.7977 36.7415 25.7977C33.8257 25.7977 31.4621 28.1613 31.4621 31.0772" fill="white"/>
<path d="M72.7599 31.0772C72.7599 33.9926 75.1235 36.3562 78.0389 36.3562C80.9548 36.3562 83.3184 33.9926 83.3184 31.0772C83.3184 28.1613 80.9548 25.7977 78.0389 25.7977C75.1235 25.7977 72.7599 28.1613 72.7599 31.0772" fill="white"/>
<path d="M72.7599 70.7001C72.7599 73.6155 75.1235 75.9791 78.0389 75.9791C80.9548 75.9791 83.3184 73.6155 83.3184 70.7001C83.3184 67.7843 80.9548 65.4207 78.0389 65.4207C75.1235 65.4207 72.7599 67.7843 72.7599 70.7001" fill="white"/>
<path d="M67.8995 83.0186V87.0237C67.8995 87.5727 68.3428 88.0164 68.8922 88.0164H71.2752V83.5418C71.2752 83.178 71.573 82.8797 71.9373 82.8797C72.3081 82.8797 72.5995 83.1775 72.5995 83.5418V88.0164H83.4752V83.5418C83.4752 83.178 83.773 82.8797 84.1373 82.8797C84.5081 82.8797 84.7994 83.1775 84.7994 83.5418V88.0164H87.1884C87.7379 88.0164 88.1812 87.5727 88.1812 87.0237V83.0186C88.1812 80.5165 86.1491 78.4844 83.6405 78.4844H72.4337C69.9316 78.484 67.8995 80.5165 67.8995 83.0186H67.8995Z" fill="white"/>
<path d="M31.4621 70.7001C31.4621 73.6155 33.8257 75.9791 36.7415 75.9791C39.6569 75.9791 42.0205 73.6155 42.0205 70.7001C42.0205 67.7843 39.6569 65.4207 36.7415 65.4207C33.8257 65.4207 31.4621 67.7843 31.4621 70.7001" fill="white"/>
<path d="M75.7562 53.4301C75.4981 53.6882 75.5045 54.1116 75.7696 54.3633C76.0078 54.6144 76.4321 54.6274 76.7027 54.3568L77.3847 53.6614V61.7768C77.3847 62.1407 77.6825 62.4389 78.0468 62.4389C78.4107 62.4389 78.7089 62.1411 78.7089 61.7768V53.6351L79.384 54.3036C79.6421 54.5618 80.0591 54.5618 80.3172 54.3036C80.5753 54.0455 80.5753 53.6286 80.3172 53.37C78.6286 51.6875 78.4859 51.5314 78.4176 51.4903C78.123 51.3033 77.785 51.3615 77.5703 51.5762L75.7562 53.4301Z" fill="white"/>
<path d="M53.2631 31.7384H69.8979C70.2687 31.7384 70.5601 31.4406 70.5601 31.0763C70.5601 30.712 70.2687 30.4141 69.8979 30.4141H53.2371L54.9252 28.7261C55.1833 28.468 55.1768 28.0446 54.9187 27.786C54.6606 27.5279 54.2437 27.5279 53.9855 27.7929C53.8978 27.8816 51.1801 30.6177 51.0927 30.7056C50.9492 30.9138 50.9404 31.2033 51.0927 31.4467C51.1786 31.5547 54.1443 34.4507 54.0783 34.386C54.3374 34.6446 54.7636 34.6409 55.0115 34.3791C55.2696 34.1145 55.2631 33.6976 55.005 33.4459L53.2631 31.7384Z" fill="white"/>
<path d="M34.4712 54.3637C34.7095 54.6149 35.1338 54.6278 35.4044 54.3572L36.0863 53.6618V61.7772C36.0863 62.1411 36.3842 62.4394 36.7485 62.4394C37.1123 62.4394 37.4106 62.1416 37.4106 61.7772V53.6355L38.0857 54.3041C38.3438 54.5622 38.7607 54.5622 39.0188 54.3041C39.2769 54.046 39.2769 53.629 39.0188 53.3704C37.3303 51.6879 37.1876 51.5318 37.1193 51.4908C36.9304 51.3365 36.5306 51.3181 36.272 51.5766L34.4583 53.4301C34.2002 53.6887 34.2066 54.1121 34.4712 54.3637V54.3637Z" fill="white"/>
<path d="M50.6486 82.7734C50.523 82.8995 50.4565 83.0712 50.4565 83.2435C50.4565 83.4226 50.5295 83.5944 50.6551 83.714L53.0118 86.024C53.2722 86.2845 53.6984 86.2771 53.945 86.0176C54.2031 85.7525 54.1966 85.3356 53.9385 85.0775L52.7403 83.9056H63.6621C64.0259 83.9056 64.3242 83.6078 64.3242 83.2435C64.3242 82.8732 64.0264 82.5813 63.6621 82.5813H52.7135L53.872 81.4164C54.1301 81.1583 54.1301 80.7413 53.872 80.4828C53.6138 80.2247 53.19 80.2247 52.9319 80.4828L50.6486 82.7734Z" fill="white"/>
<path d="M43.7786 60.937L46.3205 60.6724C46.6049 58.9843 47.2671 57.4288 48.2136 56.092L46.6119 54.0997C46.4133 53.848 46.4332 53.4906 46.658 53.2588L48.0811 51.8358C48.3129 51.6109 48.6703 51.5906 48.9219 51.7896L50.9142 53.3978C52.2514 52.4448 53.807 51.7826 55.4881 51.4978L55.7596 48.9559C55.7929 48.6382 56.0639 48.3931 56.3821 48.3931H58.4007C58.7184 48.3931 58.9899 48.6382 59.0232 48.9559L59.2947 51.4978C60.9759 51.7827 62.5314 52.4443 63.8686 53.3978L65.8609 51.7896C66.1061 51.5911 66.4699 51.6109 66.6948 51.8358L68.1248 53.2588C68.3497 53.4906 68.3695 53.848 68.171 54.0997L66.5623 56.092C67.5154 57.4288 68.1775 58.9843 68.4623 60.6724L70.9977 60.937C71.3218 60.9767 71.5605 61.2412 71.5605 61.5658V63.578C71.5605 63.8962 71.3223 64.1672 70.9977 64.2004L68.4623 64.4715C68.1774 66.1527 67.5158 67.7087 66.5623 69.0454L68.171 71.0377C68.3695 71.2893 68.3497 71.6536 68.1248 71.8785L66.6948 73.302C66.4699 73.5334 66.1056 73.5468 65.8609 73.3482L63.8686 71.7396C62.5314 72.6926 60.9757 73.3547 59.2947 73.6396L59.0232 76.1749C58.9899 76.4991 58.7189 76.7378 58.4007 76.7378H56.3821C56.0644 76.7378 55.7929 76.4991 55.7596 76.1749L55.4881 73.6396C53.8069 73.3547 52.2514 72.693 50.9142 71.7396L48.9219 73.3482C48.6703 73.5468 48.3129 73.5334 48.0811 73.302L46.658 71.8785C46.4332 71.6537 46.4133 71.2898 46.6119 71.0377L48.2136 69.0454C47.2671 67.7083 46.605 66.1526 46.3205 64.4715L43.7786 64.2004C43.461 64.1672 43.2227 63.8962 43.2227 63.578V61.5658C43.2227 61.2412 43.461 60.9767 43.7786 60.937ZM63.3461 62.5655C63.3461 59.2756 60.6787 56.6082 57.3889 56.6082C54.099 56.6082 51.438 59.2756 51.438 62.5655C51.438 65.8553 54.099 68.5227 57.3889 68.5227C60.6787 68.5227 63.3461 65.8553 63.3461 62.5655Z" fill="white"/>
<path d="M72.4337 38.8615H83.6405C86.1491 38.8615 88.1812 40.894 88.1812 43.3957V47.7314C88.1812 48.1022 87.8833 48.3935 87.519 48.3935H84.7984V43.9189C84.7984 43.5546 84.5071 43.2568 84.1363 43.2568C83.772 43.2568 83.4742 43.5546 83.4742 43.9189V48.3935H72.5985V43.9189C72.5985 43.5546 72.3071 43.2568 71.9364 43.2568C71.5721 43.2568 71.2742 43.5546 71.2742 43.9189V48.3935H68.5602C68.1963 48.3935 67.898 48.1022 67.898 47.7314V43.3957C67.8994 40.894 69.9315 38.8615 72.4336 38.8615H72.4337Z" fill="white"/>
<path d="M31.138 38.8578H42.3448C44.8506 38.8578 46.8818 40.8895 46.8818 43.3948V47.7323C46.8818 48.0975 46.5854 48.3944 46.2197 48.3944H43.5034V43.9198C43.5034 43.5541 43.2074 43.2577 42.8413 43.2577C42.4756 43.2577 42.1791 43.5537 42.1791 43.9198V48.3944H31.303V43.9198C31.303 43.5541 31.007 43.2577 30.6408 43.2577C30.2751 43.2577 29.9787 43.5537 29.9787 43.9198V48.3944H27.2624C26.8967 48.3944 26.6002 48.0975 26.6002 47.7323V43.3948C26.6012 40.889 28.6328 38.8578 31.1382 38.8578H31.138Z" fill="white"/>
<path d="M31.138 78.4825H42.3448C44.8506 78.4825 46.8818 80.5138 46.8818 83.0196V87.0261C46.8818 87.5746 46.4372 88.0188 45.8891 88.0188H43.5038V83.545C43.5038 83.1793 43.2078 82.8829 42.8416 82.8829C42.4759 82.8829 42.1795 83.1789 42.1795 83.545V88.0188H31.3033V83.545C31.3033 83.1793 31.0074 82.8829 30.6412 82.8829C30.2755 82.8829 29.9791 83.1789 29.9791 83.545V88.0188H27.5937C27.0452 88.0188 26.601 87.5741 26.601 87.0261V83.0196C26.601 80.5138 28.6327 78.4825 31.138 78.4825H31.138Z" fill="white"/>
</svg>
