<svg width="259" height="91" viewBox="0 0 259 91" fill="none" xmlns="http://www.w3.org/2000/svg">
<path d="M57.7821 89.6137C33.639 89.6137 14 69.9618 14 45.8068C14 21.6519 33.639 2 57.7821 2C81.9252 2 101.56 21.6519 101.56 45.8068C101.56 69.9618 81.9213 89.6137 57.7821 89.6137ZM57.7821 4.40819C34.9701 4.40819 16.4105 22.9799 16.4105 45.8068C16.4105 68.6338 34.9662 87.2055 57.7821 87.2055C80.598 87.2055 99.1537 68.6338 99.1537 45.8068C99.1537 22.9799 80.5922 4.40819 57.7821 4.40819Z" fill="#1B1B1B"/>
<path d="M37.7973 55.5685C37.452 55.5685 37.1207 55.4312 36.8765 55.1868C36.6323 54.9425 36.4951 54.611 36.4951 54.2654V35.3151C36.508 34.9784 36.6508 34.6598 36.8934 34.4262C37.136 34.1925 37.4597 34.062 37.7964 34.062C38.1331 34.062 38.4567 34.1925 38.6993 34.4262C38.942 34.6598 39.0847 34.9784 39.0977 35.3151V54.2635C39.0979 54.4346 39.0645 54.6041 38.9993 54.7623C38.9341 54.9205 38.8383 55.0643 38.7176 55.1855C38.5969 55.3067 38.4534 55.4029 38.2955 55.4686C38.1376 55.5343 37.9684 55.5683 37.7973 55.5685ZM47.7945 60.7443C47.4492 60.7443 47.1179 60.607 46.8737 60.3626C46.6295 60.1183 46.4923 59.7868 46.4923 59.4412V40.4909C46.5052 40.1542 46.648 39.8356 46.8906 39.602C47.1332 39.3683 47.4569 39.2378 47.7936 39.2378C48.1303 39.2378 48.4539 39.3683 48.6965 39.602C48.9392 39.8356 49.0819 40.1542 49.0948 40.4909V59.4412C49.0948 59.7865 48.9579 60.1176 48.7141 60.362C48.4703 60.6063 48.1396 60.7438 47.7945 60.7443ZM57.7821 65.9643C57.4367 65.9643 57.1055 65.827 56.8613 65.5826C56.6171 65.3383 56.4799 65.0068 56.4799 64.6612V45.7109C56.4732 45.5357 56.5018 45.3609 56.5642 45.197C56.6266 45.0332 56.7213 44.8836 56.8428 44.7573C56.9643 44.6309 57.11 44.5304 57.2713 44.4618C57.4325 44.3931 57.6059 44.3577 57.7811 44.3577C57.9564 44.3577 58.1298 44.3931 58.291 44.4618C58.4522 44.5304 58.598 44.6309 58.7195 44.7573C58.841 44.8836 58.9357 45.0332 58.9981 45.197C59.0605 45.3609 59.0891 45.5357 59.0824 45.7109V64.6612C59.0824 65.0065 58.9455 65.3376 58.7017 65.582C58.4579 65.8263 58.1271 65.9638 57.7821 65.9643ZM67.7697 60.7789C67.4243 60.7789 67.0931 60.6416 66.8489 60.3972C66.6047 60.1529 66.4675 59.8214 66.4675 59.4758V40.5255C66.4804 40.1888 66.6231 39.8702 66.8658 39.6365C67.1084 39.4029 67.432 39.2724 67.7687 39.2724C68.1054 39.2724 68.4291 39.4029 68.6717 39.6365C68.9143 39.8702 69.0571 40.1888 69.07 40.5255V59.4758C69.07 59.8211 68.9331 60.1522 68.6893 60.3965C68.4455 60.6409 68.1147 60.7784 67.7697 60.7789ZM77.7573 55.5685C77.4119 55.5685 77.0807 55.4312 76.8365 55.1868C76.5922 54.9425 76.455 54.611 76.455 54.2654V35.3151C76.4483 35.1399 76.477 34.9651 76.5394 34.8012C76.6017 34.6374 76.6965 34.4878 76.818 34.3615C76.9395 34.2351 77.0852 34.1346 77.2464 34.066C77.4077 33.9973 77.5811 33.962 77.7563 33.962C77.9315 33.962 78.105 33.9973 78.2662 34.066C78.4274 34.1346 78.5731 34.2351 78.6946 34.3615C78.8161 34.4878 78.9109 34.6374 78.9733 34.8012C79.0356 34.9651 79.0643 35.1399 79.0576 35.3151V54.2635C79.0578 54.4346 79.0244 54.6041 78.9592 54.7623C78.894 54.9205 78.7983 55.0643 78.6775 55.1855C78.5568 55.3067 78.4134 55.4029 78.2555 55.4686C78.0976 55.5343 77.9283 55.5683 77.7573 55.5685ZM123.009 27.4678L133.213 56.1201L143.574 27.4678H150.296L136.181 64.6631H130.142L115.979 27.4678H123.009ZM162.268 65.4953C158.033 65.4953 154.753 64.2448 152.428 61.7437C150.103 59.2426 148.94 55.7005 148.94 51.1173C148.914 49.1183 149.22 47.1288 149.846 45.2304C150.398 43.5536 151.292 42.0102 152.472 40.6984C153.649 39.427 155.092 38.4308 156.698 37.7809C158.362 37.0865 160.253 36.7392 162.371 36.7392C164.522 36.7392 166.432 37.0954 168.099 37.8078C169.694 38.47 171.125 39.4744 172.29 40.7503C173.449 42.0555 174.318 43.5915 174.84 45.2573C175.43 47.1216 175.72 49.0678 175.699 51.0231C175.699 53.3858 175.369 55.4609 174.71 57.2483C174.111 58.9385 173.162 60.4829 171.925 61.7802C170.732 63.0098 169.284 63.9614 167.682 64.567C165.95 65.2067 164.114 65.5214 162.268 65.4953ZM162.319 60.702C164.819 60.702 166.65 59.8423 167.813 58.1228C168.975 56.4033 169.557 54.0502 169.557 51.0635C169.557 48.1165 168.975 45.7897 167.813 44.083C166.65 42.3763 164.819 41.5255 162.319 41.5306C159.821 41.5306 157.99 42.3904 156.826 44.1099C155.662 45.8294 155.081 48.1479 155.082 51.0654C155.082 54.0124 155.646 56.3565 156.774 58.0978C157.903 59.8391 159.75 60.7078 162.316 60.7039L162.319 60.702ZM204.907 55.1822C204.56 58.4123 203.407 60.9391 201.45 62.7623C199.492 64.5856 196.69 65.4973 193.043 65.4973C190.856 65.4973 188.956 65.1584 187.342 64.4806C185.79 63.8494 184.409 62.8618 183.309 61.5976C182.192 60.2826 181.37 58.7431 180.898 57.083C180.357 55.1776 180.093 53.2038 180.117 51.223C180.094 49.2177 180.393 47.2217 181.002 45.3111C181.538 43.6203 182.418 42.059 183.587 40.7253C184.73 39.4475 186.144 38.4421 187.726 37.7828C189.358 37.0884 191.214 36.7411 193.296 36.7411C195.204 36.7411 196.818 36.9929 198.138 37.4965C199.319 37.9142 200.4 38.5717 201.314 39.4277C202.227 40.2837 202.955 41.3197 203.449 42.4705C203.936 43.5873 204.286 44.7593 204.49 45.9607L198.607 46.8467C198.329 45.3194 197.8 44.0516 197.019 43.0432C196.238 42.0348 194.928 41.5313 193.089 41.5326C191.769 41.5326 190.675 41.8106 189.808 42.3667C188.952 42.9108 188.238 43.6522 187.726 44.5289C187.183 45.4742 186.805 46.5049 186.607 47.5771C186.381 48.7267 186.267 49.8957 186.269 51.0673C186.261 52.3443 186.383 53.6187 186.633 54.8708C186.838 55.9462 187.228 56.9777 187.786 57.919C188.297 58.7614 189.013 59.4603 189.868 59.9505C190.735 60.4541 191.793 60.7059 193.043 60.7059C194.847 60.7059 196.218 60.2286 197.155 59.274C198.092 58.3194 198.683 56.9561 198.926 55.1841L204.907 55.1822ZM226.818 61.121C225.79 62.3545 224.536 63.38 223.123 64.1423C221.666 64.9405 219.895 65.3397 217.812 65.3397C216.597 65.3495 215.387 65.1831 214.22 64.8457C213.171 64.5455 212.192 64.0406 211.339 63.3601C210.51 62.6797 209.852 61.814 209.419 60.8327C208.926 59.6905 208.686 58.4553 208.716 57.2118C208.716 55.3359 209.132 53.8163 209.964 52.6529C210.804 51.4839 211.922 50.5437 213.218 49.918C214.64 49.2318 216.159 48.7664 217.722 48.538C219.376 48.2793 221.043 48.1144 222.715 48.0441L226.724 47.8365V46.6834C226.724 44.6333 226.23 43.2181 225.241 42.4378C224.253 41.6575 222.96 41.2667 221.363 41.2654C219.523 41.2654 218.161 41.578 217.276 42.2033C216.391 42.8286 215.81 43.7319 215.532 44.9132L210.118 44.3367C210.603 41.6985 211.8 39.7708 213.709 38.5535C215.619 37.3363 218.239 36.7283 221.571 36.7296C223.722 36.7296 225.501 37.0077 226.906 37.5637C228.196 38.044 229.348 38.8348 230.26 39.8662C231.106 40.8655 231.704 42.051 232.004 43.3257C232.345 44.7675 232.511 46.2453 232.498 47.727V64.6574H226.824L226.818 61.121ZM222.913 52.0052C221.467 52.0658 220.03 52.2588 218.619 52.5818C217.525 52.8598 216.683 53.216 216.093 53.6504C215.553 54.0181 215.143 54.5467 214.921 55.1611C214.727 55.7578 214.63 56.3822 214.635 57.01C214.635 58.1913 215.008 59.1119 215.755 59.7718C216.501 60.4317 217.603 60.7616 219.06 60.7616C221.664 60.7616 223.59 60.1017 224.84 58.782C226.09 57.4623 226.714 55.6736 226.714 53.4159V51.8534L222.913 52.0052ZM244.986 27.4678V64.6631H239.051V27.4678H244.986Z" fill="#1B1B1B"/>
</svg>
