<svg width="58" height="49" viewBox="0 0 58 49" fill="none" xmlns="http://www.w3.org/2000/svg">
<path d="M23.4321 0.00025755C16.1218 0.00025755 10.3872 2.24206 6.23382 6.78043C2.07147 11.3187 0 18.3985 0 28.0429V48.076H24.0981V26.4375H12.468C12.468 21.1386 13.3332 17.1992 15.0301 14.6194C16.7263 12.0399 19.5238 10.7424 23.4327 10.7424V0L23.4321 0.00025755ZM56.4792 0.00025755C52.8242 0.00025755 49.5697 0.538159 46.7104 1.63982C43.8511 2.74179 41.3947 4.4296 39.3832 6.72909C37.3721 9.03768 35.8308 11.9656 34.7554 15.5244C33.6886 19.0923 33.1497 23.2513 33.1497 28.0431V48.0761H57.3328V26.4377H45.719C45.719 21.1387 46.5675 17.1993 48.2641 14.6196C49.9603 12.04 52.7011 10.7426 56.4785 10.7426V0.0001717L56.4792 0.00025755Z" fill="#6BB64A"/>
</svg>
