<svg width="77" height="79" viewBox="0 0 77 79" fill="none" xmlns="http://www.w3.org/2000/svg">
<g clip-path="url(#clip0_1_469)">
<path fill-rule="evenodd" clip-rule="evenodd" d="M10.5708 0H52.8283C55.7373 0 58.3784 1.1958 60.2986 3.13094C62.2188 5.06608 63.4054 7.7277 63.4054 10.6593V37.2948C63.4054 40.2265 62.2188 42.8881 60.2986 44.8232C58.3784 46.7584 55.7373 47.9542 52.8283 47.9542H28.8479L12.7908 61.8538C12.0444 62.4967 10.9216 62.4131 10.2837 61.6545C9.97109 61.2816 9.83074 60.8251 9.85626 60.3751L10.7111 47.9413H10.5708C7.66172 47.9413 5.02063 46.7455 3.10041 44.8104C1.18658 42.8881 0 40.2201 0 37.2948V10.6529C0 7.72127 1.18658 5.05965 3.10679 3.12451C5.01425 1.1958 7.66172 0 10.5708 0ZM18.7811 9.73999H21.5179V17.2298H25.7857V19.6793H18.7811V9.73999ZM27.0553 9.73999H29.5177V11.6173H27.0553V9.73999ZM27.0553 12.4852H29.5177V19.6857H27.0553V12.4852ZM30.4555 12.4852H33.0137L34.2577 17.0498L35.5463 12.4852H38.0279L35.3039 19.6857H33.1221L30.4555 12.4852ZM45.645 16.7669H40.7201C40.7647 17.2105 40.8732 17.5384 41.039 17.757C41.2751 18.072 41.5877 18.2263 41.9704 18.2263C42.2128 18.2263 42.4425 18.162 42.6594 18.0206C42.7934 17.937 42.9337 17.7827 43.0868 17.5641L45.511 17.8149C45.141 18.5413 44.6945 19.0557 44.1713 19.3707C43.6482 19.6857 42.8954 19.84 41.9194 19.84C41.0709 19.84 40.4011 19.705 39.9162 19.435C39.4314 19.165 39.0231 18.7406 38.7041 18.1556C38.3852 17.5706 38.2257 16.8827 38.2257 16.0919C38.2257 14.9668 38.5447 14.0603 39.189 13.3595C39.8333 12.6652 40.7201 12.3116 41.8492 12.3116C42.7679 12.3116 43.4951 12.4659 44.0246 12.7809C44.5541 13.0959 44.9624 13.546 45.2367 14.1375C45.5174 14.7289 45.6514 15.5004 45.6514 16.4519V16.7669H45.645ZM43.1442 15.4425C43.0932 14.9089 42.9656 14.5232 42.7615 14.2982C42.551 14.0667 42.283 13.951 41.9449 13.951C41.5558 13.951 41.2368 14.1246 41.0071 14.4718C40.8604 14.6903 40.7647 15.0118 40.7264 15.4425H43.1442ZM52.8219 3.59383H10.5708C8.64416 3.59383 6.89619 4.3846 5.6203 5.67041C4.35079 6.94979 3.55974 8.71134 3.55974 10.6593V37.2948C3.55974 39.2364 4.34441 40.998 5.6203 42.2838C6.88981 43.5632 8.64416 44.3604 10.5708 44.3604H12.6249L12.7398 44.3668C13.7158 44.4375 14.4622 45.2926 14.392 46.2762L13.6967 56.3505L26.9404 44.8747C27.2594 44.5532 27.6996 44.3539 28.1972 44.3539H52.8219C54.7485 44.3539 56.4964 43.5632 57.7723 42.2773C59.0418 40.998 59.8329 39.23 59.8329 37.2884V10.6529C59.8329 8.71134 59.0482 6.94979 57.7723 5.66398C56.5028 4.3846 54.7549 3.59383 52.8219 3.59383Z" fill="white"/>
<path fill-rule="evenodd" clip-rule="evenodd" d="M68.5918 20.2061C70.6651 20.6111 72.5215 21.6397 73.9569 23.0863C75.8325 24.9764 76.9999 27.5866 76.9999 30.4604V54.2221C76.9999 57.0959 75.8389 59.7061 73.9569 61.5962C72.0814 63.4863 69.4913 64.6628 66.6397 64.6628H66.2633L67.1373 77.3216C67.1628 77.7202 67.048 78.1252 66.7673 78.4467C66.2059 79.1089 65.2171 79.186 64.5664 78.6203L48.4519 64.2514H25.7027L36.1587 53.5342H59.8264C64.6557 53.5342 68.6173 49.5482 68.6173 44.675V20.9068C68.6173 20.6689 68.6109 20.4375 68.5918 20.2061ZM19.6167 31.3926L22.7554 32.4277C22.5449 33.3856 22.2132 34.1828 21.7602 34.8321C21.3073 35.475 20.7395 35.9636 20.0697 36.2851C19.3998 36.613 18.545 36.7737 17.5051 36.7737C16.242 36.7737 15.2149 36.5744 14.4175 36.1758C13.6201 35.7772 12.9247 35.0764 12.3442 34.0671C11.7636 33.0641 11.4766 31.7783 11.4766 30.2096C11.4766 28.1202 11.9869 26.5129 13.0076 25.3943C14.0283 24.2692 15.4701 23.7099 17.3393 23.7099C18.8002 23.7099 19.9485 24.0313 20.7842 24.6742C21.6199 25.3171 22.2387 26.3072 22.647 27.638L19.4828 28.4031C19.3743 28.0173 19.2531 27.7345 19.1319 27.5544C18.9341 27.2587 18.6853 27.0273 18.3983 26.8665C18.1112 26.7058 17.7858 26.6222 17.4222 26.6222C16.612 26.6222 15.9868 26.9758 15.5594 27.6895C15.2341 28.2166 15.0682 29.046 15.0682 30.1775C15.0682 31.579 15.2596 32.5369 15.6551 33.0577C16.0443 33.5785 16.5929 33.8356 17.301 33.8356C17.99 33.8356 18.5067 33.6299 18.8576 33.2056C19.2021 32.7941 19.4573 32.1834 19.6167 31.3926ZM24.4587 23.922H27.6804V28.5702C28.1206 28.0752 28.5544 27.7216 28.9818 27.5094C29.4156 27.2973 29.9259 27.188 30.5129 27.188C31.3932 27.188 32.0758 27.4773 32.5862 28.0559C33.0902 28.6345 33.3389 29.5282 33.3389 30.724V36.5422H30.1046V31.5147C30.1046 30.9425 30.0089 30.5375 29.8111 30.2996C29.6133 30.0618 29.339 29.9396 28.9882 29.9396C28.599 29.9396 28.28 30.1003 28.0376 30.4218C27.7952 30.7432 27.674 31.3219 27.674 32.1512V36.5422H24.4524V23.922H24.4587ZM38.3723 30.3639L35.2974 30.0103C35.4123 29.4253 35.5781 28.9688 35.8014 28.6281C36.0183 28.2938 36.3309 28.0045 36.7456 27.7537C37.039 27.5737 37.4473 27.4387 37.964 27.3423C38.4808 27.2458 39.0358 27.1944 39.6418 27.1944C40.6051 27.1944 41.3834 27.2523 41.964 27.368C42.5509 27.4837 43.0357 27.7345 43.4249 28.1073C43.6992 28.3645 43.9161 28.731 44.0756 29.2067C44.2351 29.6825 44.3116 30.1325 44.3116 30.5632V34.6007C44.3116 35.0314 44.3371 35.3657 44.3882 35.61C44.4392 35.8543 44.5476 36.1629 44.7199 36.5422H41.696C41.5748 36.3044 41.4919 36.1308 41.46 36.0022C41.4217 35.88 41.3834 35.6872 41.3515 35.4172C40.9305 35.8608 40.5095 36.1758 40.0948 36.3622C39.527 36.613 38.8636 36.7415 38.1108 36.7415C37.1092 36.7415 36.35 36.4908 35.8269 35.9829C35.3102 35.4814 35.0486 34.8578 35.0486 34.1185C35.0486 33.4242 35.2336 32.852 35.61 32.4019C35.9864 31.9519 36.6754 31.6176 37.6834 31.4054C38.8891 31.1418 39.6737 30.9554 40.0374 30.8525C40.3946 30.7497 40.7774 30.6082 41.1729 30.4347C41.1729 30.0039 41.09 29.7017 40.9305 29.5282C40.7646 29.3546 40.4776 29.271 40.0693 29.271C39.5398 29.271 39.1442 29.361 38.8827 29.5474C38.6722 29.7017 38.4999 29.9653 38.3723 30.3639ZM41.1665 32.2091C40.7264 32.3826 40.2607 32.5369 39.7822 32.6655C39.1251 32.852 38.7104 33.0384 38.5382 33.2249C38.3596 33.4177 38.2703 33.6299 38.2703 33.8742C38.2703 34.1506 38.3596 34.3757 38.5318 34.5492C38.7041 34.7228 38.972 34.8128 39.3101 34.8128C39.6674 34.8128 39.9991 34.7164 40.3117 34.5299C40.6179 34.3371 40.8412 34.1121 40.9688 33.8356C41.0964 33.5592 41.1602 33.212 41.1602 32.7684V32.2091H41.1665ZM50.034 23.922V27.4001H51.8075V29.9589H50.034V33.2056C50.034 33.5977 50.0723 33.8549 50.136 33.9835C50.2445 34.1828 50.4295 34.2792 50.6911 34.2792C50.9271 34.2792 51.2588 34.2021 51.6863 34.0542L51.9223 36.4779C51.1249 36.6644 50.3848 36.7608 49.6895 36.7608C48.8857 36.7608 48.2988 36.6515 47.916 36.4265C47.5332 36.2015 47.2525 35.8608 47.0739 35.4043C46.8953 34.9478 46.7996 34.2085 46.7996 33.1863V29.9589H45.613V27.4001H46.7996V25.7157L50.034 23.922Z" fill="#6BB64A"/>
</g>
<defs>
<clipPath id="clip0_1_469">
<rect width="77" height="79" fill="white"/>
</clipPath>
</defs>
</svg>
