<svg width="192" height="139" viewBox="0 0 192 139" fill="none" xmlns="http://www.w3.org/2000/svg">
<path d="M8.87651 106.626V121.958H14.1379C16.2467 121.958 18.0435 121.215 19.5283 119.731C21.0346 118.224 21.7878 116.406 21.7878 114.276C21.7878 112.167 21.0346 110.37 19.5283 108.885C18.0435 107.379 16.2467 106.626 14.1379 106.626H8.87651ZM3.22782 127.606V100.977H14.1379C17.796 100.977 20.927 102.279 23.5308 104.883C26.1346 107.486 27.4365 110.617 27.4365 114.276C27.4365 117.955 26.1346 121.097 23.5308 123.701C20.927 126.305 17.796 127.606 14.1379 127.606H3.22782ZM37.9395 106.626V127.606H32.2908V106.626H37.9395ZM37.9395 100.17V104.205H32.2908V100.17H37.9395ZM58.9203 120.021V114.179C58.6836 113.791 58.4039 113.436 58.0811 113.114C56.9621 112.016 55.628 111.467 54.0786 111.467C52.5077 111.467 51.1736 112.016 50.0761 113.114C48.9786 114.211 48.4299 115.545 48.4299 117.116C48.4299 118.665 48.9786 120 50.0761 121.119C51.1736 122.216 52.5077 122.765 54.0786 122.765C55.628 122.765 56.9621 122.205 58.0811 121.086C58.4039 120.763 58.6836 120.408 58.9203 120.021ZM58.9203 127.348C57.4355 128.058 55.8216 128.413 54.0786 128.413C50.9584 128.413 48.29 127.316 46.0736 125.121C43.8787 122.905 42.7812 120.236 42.7812 117.116C42.7812 113.996 43.8787 111.338 46.0736 109.143C48.29 106.927 50.9584 105.819 54.0786 105.819C55.8431 105.819 57.457 106.174 58.9203 106.884V106.626H64.569V127.219C64.569 130.232 63.5038 132.792 61.3735 134.901C59.2431 137.032 56.6824 138.097 53.6913 138.097V132.448C55.133 132.448 56.3488 131.942 57.3387 130.931C58.3501 129.941 58.8773 128.747 58.9203 127.348ZM76.6796 106.626V127.606H71.031V106.626H76.6796ZM76.6796 100.17V104.205H71.031V100.17H76.6796Z" fill="white"/>
<path d="M87.5251 100.977L96.4662 112.952L105.407 100.977H109.765V127.606H104.116V112.145L97.7573 120.667H95.1751L88.784 112.081V127.606H83.1353V100.977H87.5251ZM130.758 127.348C129.295 128.058 127.681 128.413 125.917 128.413C122.796 128.413 120.128 127.316 117.912 125.121C115.717 122.905 114.619 120.236 114.619 117.116C114.619 113.996 115.717 111.338 117.912 109.143C120.128 106.927 122.796 105.819 125.917 105.819C127.681 105.819 129.295 106.174 130.758 106.884V106.626H136.407V127.606H130.758V127.348ZM130.758 120.021V114.179C130.522 113.791 130.242 113.436 129.919 113.114C128.8 112.016 127.466 111.467 125.917 111.467C124.346 111.467 123.011 112.016 121.914 113.114C120.817 114.211 120.268 115.545 120.268 117.116C120.268 118.665 120.817 120 121.914 121.119C123.011 122.216 124.346 122.765 125.917 122.765C127.466 122.765 128.8 122.205 129.919 121.086C130.242 120.763 130.522 120.408 130.758 120.021ZM153.359 111.467C151.788 111.467 150.454 112.016 149.357 113.114C149.034 113.436 148.754 113.791 148.518 114.179V127.606H142.869V106.626H148.518V106.884C149.981 106.174 151.595 105.819 153.359 105.819V111.467ZM164.657 115.76L171.306 106.658H178.31L170.37 117.568L177.729 127.639H170.725L164.657 119.311V127.606H159.008V100.977H164.657V115.76Z" fill="#6BB64A"/>
<path d="M105.587 87.3107C105.587 88.7563 105.076 89.9906 104.053 91.0135C103.038 92.0364 101.808 92.5479 100.363 92.5479H96.064V82.0863H100.363C101.808 82.0863 103.038 82.5977 104.053 83.6206C105.076 84.6435 105.587 85.8736 105.587 87.3107ZM100.363 83.6713H97.6491V90.9628H100.363C101.369 90.9628 102.227 90.6077 102.937 89.8976C103.647 89.1875 104.002 88.3252 104.002 87.3107C104.002 86.3047 103.647 85.4466 102.937 84.7365C102.227 84.0264 101.369 83.6713 100.363 83.6713ZM112.668 85.9285C112.254 85.6918 111.793 85.5735 111.286 85.5735C110.5 85.5735 109.828 85.8524 109.27 86.4104C108.712 86.9683 108.433 87.6404 108.433 88.4266C108.433 88.9338 108.551 89.3946 108.788 89.8088L112.668 85.9285ZM114.938 85.8905L113.784 87.0444L109.904 90.9247C110.318 91.1614 110.779 91.2798 111.286 91.2798C112.157 91.2798 112.905 90.9163 113.53 90.1892L114.773 91.1657C113.843 92.2985 112.681 92.8649 111.286 92.8649C110.06 92.8649 109.012 92.4337 108.141 91.5714C107.279 90.7007 106.848 89.6524 106.848 88.4266C106.848 87.2008 107.279 86.1568 108.141 85.2945C109.012 84.4237 110.06 83.9884 111.286 83.9884C112.512 83.9884 113.56 84.4195 114.431 85.2818C114.617 85.4762 114.786 85.6791 114.938 85.8905ZM117.474 84.3054L119.414 89.6947L121.316 84.3054H123.015L120.023 92.5479H118.767L115.775 84.3054H117.474ZM129.472 85.9285C129.058 85.6918 128.597 85.5735 128.09 85.5735C127.304 85.5735 126.632 85.8524 126.074 86.4104C125.516 86.9683 125.237 87.6404 125.237 88.4266C125.237 88.9338 125.355 89.3946 125.592 89.8088L129.472 85.9285ZM131.742 85.8905L130.588 87.0444L126.708 90.9247C127.122 91.1614 127.583 91.2798 128.09 91.2798C128.961 91.2798 129.709 90.9163 130.335 90.1892L131.577 91.1657C130.648 92.2985 129.485 92.8649 128.09 92.8649C126.864 92.8649 125.816 92.4337 124.945 91.5714C124.083 90.7007 123.652 89.6524 123.652 88.4266C123.652 87.2008 124.083 86.1568 124.945 85.2945C125.816 84.4237 126.864 83.9884 128.09 83.9884C129.316 83.9884 130.364 84.4195 131.235 85.2818C131.421 85.4762 131.59 85.6791 131.742 85.8905ZM135.382 82.0863V92.5479H133.797V82.0863H135.382ZM146.163 88.4266C146.163 89.6524 145.727 90.7007 144.857 91.5714C143.994 92.4337 142.95 92.8649 141.724 92.8649C140.499 92.8649 139.45 92.4337 138.58 91.5714C137.717 90.7007 137.286 89.6524 137.286 88.4266C137.286 87.2008 137.717 86.1568 138.58 85.2945C139.45 84.4237 140.499 83.9884 141.724 83.9884C142.95 83.9884 143.994 84.4237 144.857 85.2945C145.727 86.1568 146.163 87.2008 146.163 88.4266ZM141.724 85.5735C140.938 85.5735 140.266 85.8524 139.708 86.4104C139.15 86.9683 138.871 87.6404 138.871 88.4266C138.871 89.2128 139.15 89.8849 139.708 90.4429C140.266 91.0008 140.938 91.2798 141.724 91.2798C142.511 91.2798 143.183 91.0008 143.741 90.4429C144.299 89.8849 144.578 89.2128 144.578 88.4266C144.578 87.6404 144.299 86.9683 143.741 86.4104C143.183 85.8524 142.511 85.5735 141.724 85.5735ZM149.635 84.7746C150.37 84.2504 151.216 83.9884 152.171 83.9884C153.397 83.9884 154.441 84.4237 155.303 85.2945C156.174 86.1568 156.609 87.2008 156.609 88.4266C156.609 89.6524 156.174 90.7007 155.303 91.5714C154.441 92.4337 153.397 92.8649 152.171 92.8649C151.216 92.8649 150.37 92.6028 149.635 92.0787V94.767H148.05V84.3054H149.635V84.7746ZM149.635 87.1078V89.7454C149.77 89.999 149.943 90.2315 150.155 90.4429C150.713 91.0008 151.385 91.2798 152.171 91.2798C152.957 91.2798 153.629 91.0008 154.187 90.4429C154.745 89.8849 155.024 89.2128 155.024 88.4266C155.024 87.6404 154.745 86.9683 154.187 86.4104C153.629 85.8524 152.957 85.5735 152.171 85.5735C151.385 85.5735 150.713 85.8524 150.155 86.4104C149.943 86.6217 149.77 86.8542 149.635 87.1078ZM163.713 85.9285C163.299 85.6918 162.838 85.5735 162.331 85.5735C161.544 85.5735 160.872 85.8524 160.314 86.4104C159.756 86.9683 159.477 87.6404 159.477 88.4266C159.477 88.9338 159.596 89.3946 159.833 89.8088L163.713 85.9285ZM165.983 85.8905L164.829 87.0444L160.948 90.9247C161.363 91.1614 161.823 91.2798 162.331 91.2798C163.201 91.2798 163.95 90.9163 164.575 90.1892L165.818 91.1657C164.888 92.2985 163.726 92.8649 162.331 92.8649C161.105 92.8649 160.057 92.4337 159.186 91.5714C158.324 90.7007 157.892 89.6524 157.892 88.4266C157.892 87.2008 158.324 86.1568 159.186 85.2945C160.057 84.4237 161.105 83.9884 162.331 83.9884C163.556 83.9884 164.605 84.4195 165.475 85.2818C165.661 85.4762 165.831 85.6791 165.983 85.8905ZM169.622 86.8669V92.5479H168.037V84.2927H169.622V84.6224C170.273 84.1997 171.013 83.9884 171.841 83.9884V85.5735C171.14 85.5735 170.544 85.8186 170.053 86.3089C169.876 86.4865 169.732 86.6725 169.622 86.8669ZM173.906 90.836C174.616 91.1318 175.271 91.2798 175.871 91.2798C176.463 91.2798 176.915 91.1952 177.228 91.0262C177.549 90.8571 177.71 90.6415 177.71 90.3794C177.71 90.1512 177.63 89.9568 177.469 89.7961C177.317 89.6271 177.11 89.5087 176.848 89.4411L175.136 88.9846C174.459 88.807 173.935 88.5027 173.563 88.0716C173.191 87.6404 173.005 87.1205 173.005 86.5118C173.005 85.8186 173.28 85.2311 173.83 84.7492C174.379 84.2589 175.093 84.0053 175.973 83.9884C177.105 83.9884 178.145 84.3181 179.092 84.9775L178.04 86.1821C177.346 85.7763 176.666 85.5735 175.998 85.5735C175.575 85.5819 175.237 85.6791 174.984 85.8651C174.73 86.0426 174.603 86.2624 174.603 86.5245C174.603 86.7528 174.688 86.943 174.857 87.0951C175.034 87.2389 175.279 87.3572 175.592 87.4502L177.368 87.9321C177.976 88.0927 178.458 88.3886 178.813 88.8197C179.177 89.2424 179.358 89.7708 179.358 90.4048C179.358 91.1065 179.071 91.694 178.496 92.1674C177.93 92.6324 177.059 92.8649 175.884 92.8649C174.912 92.8649 173.927 92.607 172.929 92.0913L173.906 90.836Z" fill="white"/>
<path d="M117.6 59.7418C117.483 60.6589 117.187 61.5438 116.727 62.3462C116.268 63.1486 115.655 63.8526 114.924 64.418C114.193 64.9835 113.357 65.3993 112.465 65.6417C111.573 65.8841 110.641 65.9484 109.725 65.8309L63.7949 59.9516C62.8776 59.8347 61.9924 59.5381 61.1898 59.0788C60.3871 58.6196 59.6829 58.0067 59.1172 57.2752C58.5515 56.5437 58.1355 55.7079 57.8929 54.8156C57.6504 53.9232 57.586 52.9918 57.7036 52.0746L63.5828 6.14503C63.7001 5.2281 63.9968 4.34325 64.4561 3.54102C64.9154 2.7388 65.5283 2.03492 66.2596 1.46958C66.991 0.904239 67.8266 0.488521 68.7187 0.246171C69.6107 0.00382029 70.5418 -0.0604152 71.4587 0.0571328L117.388 5.93638C118.305 6.05365 119.19 6.35039 119.992 6.80967C120.795 7.26895 121.499 7.88177 122.064 8.61312C122.63 9.34448 123.045 10.1801 123.288 11.0721C123.53 11.9642 123.595 12.8953 123.477 13.8123L117.6 59.7418Z" fill="white"/>
<path d="M110.731 3.5835H70.4548C65.3614 3.5835 61.2324 7.71248 61.2324 12.8058V53.081C61.2324 58.1743 65.3614 62.3033 70.4548 62.3033H110.731C115.824 62.3033 119.953 58.1743 119.953 53.081V12.8058C119.953 7.71248 115.824 3.5835 110.731 3.5835Z" fill="#6BB64A"/>
<path d="M87.1251 38.7127C85.4075 40.1404 83.2284 40.8933 80.9957 40.8304H71.3503V21.5396H80.9969C83.239 21.5027 85.4183 22.281 87.1297 23.7299V35.5829V18.0305C85.2084 17.1425 83.1133 16.6939 80.9969 16.7174H66.5259V45.6583H80.9957C82.8027 45.6662 84.5951 45.3354 86.2801 44.683C86.452 44.6263 86.6196 44.5573 86.7816 44.4767L86.8047 44.4663L87.0006 44.3407L87.1309 44.2542L87.1251 38.7127Z" fill="white"/>
<path d="M87.1191 18.0535V23.7506L87.1295 23.7575V35.614L91.9528 32.8473V26.4308L96.662 29.1745L101.601 26.4781L87.1295 18.0627L87.1191 18.0535Z" fill="white"/>
<path d="M87.125 38.7417C87.125 38.7417 87.125 38.7417 87.125 38.7475V44.2878L111.248 28.5971V49.1722H116.072V20.229L87.125 38.7417Z" fill="white"/>
</svg>
