<svg width="21" height="21" viewBox="0 0 21 21" fill="none" xmlns="http://www.w3.org/2000/svg">
<path d="M0.629857 20.3701C1.04976 20.79 1.60978 21 2.10003 21C2.59029 21 3.14978 20.79 3.57021 20.3701L10.5 13.44L17.4298 20.3701C17.8497 20.79 18.4097 21 18.9 21C19.3902 21 19.9497 20.79 20.3701 20.3701C21.21 19.5303 21.21 18.2002 20.3701 17.4301L13.4394 10.5L20.3691 3.56988C21.209 2.73003 21.209 1.40001 20.3691 0.629887C19.5293 -0.209962 18.1994 -0.209962 17.4293 0.629887L10.4995 7.56L3.56971 0.629887C2.7299 -0.209962 1.39994 -0.209962 0.629857 0.629887C-0.209952 1.46974 -0.209952 2.79976 0.629857 3.56988L7.55964 10.5L0.629857 17.4301C-0.209952 18.27 -0.209952 19.6 0.629857 20.3701Z" fill="#12262F"/>
</svg>
