<svg
                      xmlns="http://www.w3.org/2000/svg"
                      id="Group_14998"
                      data-name="Group 14998"
                      width="16.394"
                      height="10.437"
                      viewBox="0 0 16.394 10.437"
                  >
                      <path
                          id="Path_43994"
                          d="M322.935,320.62a2.794,2.794,0,0,0,1.151-.51,2.826,2.826,0,0,0,.721-.8,2.98,2.98,0,0,0,.453-1.624,2.7,2.7,0,0,0-.4-1.491,2.269,2.269,0,0,0-1.176-.9,2.44,2.44,0,0,0,.776-.58,2.267,2.267,0,0,0,.471-1.5,2.594,2.594,0,0,0-.467-1.554,3.124,3.124,0,0,0-2.638-1.083h-4.921v10.18H321.5A7.025,7.025,0,0,0,322.935,320.62Zm-4-8.274h2.215a3.817,3.817,0,0,1,1.2.159.911.911,0,0,1,.547.939.961.961,0,0,1-.414.894,2.047,2.047,0,0,1-1.077.252H318.94Zm0,6.644v-2.714h2.506a2.577,2.577,0,0,1,1.018.173,1.092,1.092,0,0,1,.648,1.091,1.282,1.282,0,0,1-.669,1.271,2.4,2.4,0,0,1-1.03.179Z"
                          transform="translate(-316.909 -310.578)"
                          fill="#FFFFFF"
                      ></path>
                      <g
                          id="Group_14997"
                          transform="translate(8.927 0.585)"
                      >
                          <path
                              id="Path_43995"
                              d="M330.7,321.11a4.1,4.1,0,0,0,2.652.927,3.656,3.656,0,0,0,2.832-1.1,2.456,2.456,0,0,0,.731-1.361h-2.01a1.638,1.638,0,0,1-.406.517,1.662,1.662,0,0,1-1.093.346,2,2,0,0,1-1.085-.283,1.806,1.806,0,0,1-.788-1.59h5.483a9.7,9.7,0,0,0-.064-1.494,3.7,3.7,0,0,0-.6-1.556,3.059,3.059,0,0,0-1.3-1.114,4.282,4.282,0,0,0-1.77-.352,3.631,3.631,0,0,0-2.692,1.044,4.076,4.076,0,0,0-1.037,3A3.651,3.651,0,0,0,330.7,321.11Zm1.407-5.005a1.564,1.564,0,0,1,1.175-.429,1.728,1.728,0,0,1,1.168.405,1.645,1.645,0,0,1,.524,1.189h-3.392A2.048,2.048,0,0,1,332.111,316.1Z"
                              transform="translate(-329.556 -312.185)"
                              fill="#FFFFFF"
                          ></path>
                          <rect
                              id="Rectangle_2685"
                              width="4.424"
                              height="1.027"
                              transform="translate(1.389)"
                              fill="#FFFFFF"
                          ></rect>
                      </g>
                  </svg>