<svg width="29" height="23" viewBox="0 0 29 23" fill="none" xmlns="http://www.w3.org/2000/svg">
<path d="M2.55515 0.215792C2.03475 0.219328 1.53667 0.427627 1.16869 0.795611C0.800702 1.1636 0.592403 1.66167 0.588867 2.18206V20.081C0.592403 20.6014 0.800702 21.0995 1.16869 21.4675C1.53667 21.8355 2.03475 22.0438 2.55515 22.0473H20.4541C20.9745 22.0438 21.4726 21.8355 21.8406 21.4675C22.2085 21.0995 22.4168 20.6014 22.4204 20.081V14.292L28.6513 8.07099C28.7693 7.95098 28.8355 7.78938 28.8355 7.62104C28.8355 7.4527 28.7693 7.2911 28.6513 7.17109L25.7419 4.26173C25.6839 4.20074 25.6141 4.15218 25.5367 4.11899C25.4594 4.08581 25.3761 4.0687 25.2919 4.0687C25.2078 4.0687 25.1245 4.08581 25.0471 4.11899C24.9698 4.15218 24.9 4.20074 24.842 4.26173L22.424 6.69145V2.18116C22.4204 1.66077 22.2121 1.16269 21.8442 0.794705C21.4762 0.426721 20.9781 0.218429 20.4577 0.214893C20.4376 0.21377 20.4175 0.21377 20.3974 0.214893C20.3131 0.218851 20.2304 0.239379 20.154 0.275304C20.0776 0.311228 20.009 0.361846 19.9522 0.424268C19.8954 0.48669 19.8514 0.559693 19.8228 0.639108C19.7942 0.718524 19.7815 0.802798 19.7855 0.887117C19.7894 0.971436 19.81 1.05415 19.8459 1.13053C19.8818 1.20692 19.9324 1.27548 19.9948 1.3323C20.0573 1.38912 20.1303 1.43309 20.2097 1.4617C20.2891 1.49031 20.3734 1.50301 20.4577 1.49905C20.5479 1.4967 20.6377 1.51273 20.7215 1.54618C20.8053 1.57963 20.8814 1.62978 20.9453 1.6936C21.0091 1.75741 21.0592 1.83355 21.0927 1.91737C21.1261 2.00119 21.1422 2.09095 21.1398 2.18116V7.9702L15.5515 13.5685C15.4311 13.6875 15.3625 13.8491 15.3607 14.0184V16.908C15.3609 17.0782 15.4287 17.2414 15.5492 17.3617C15.6697 17.482 15.833 17.5496 16.0032 17.5496H18.8928C19.062 17.5478 19.2237 17.4792 19.3427 17.3588L21.1425 15.559V20.0738C21.1449 20.164 21.1288 20.2538 21.0954 20.3376C21.0619 20.4214 21.0118 20.4976 20.948 20.5614C20.8841 20.6252 20.808 20.6754 20.7242 20.7088C20.6404 20.7422 20.5506 20.7583 20.4604 20.7559H2.56144C2.47122 20.7583 2.38147 20.7422 2.29765 20.7088C2.21383 20.6754 2.13769 20.6252 2.07388 20.5614C2.01006 20.4976 1.9599 20.4214 1.92646 20.3376C1.89301 20.2538 1.87697 20.164 1.87932 20.0738V2.18206C1.87697 2.09185 1.89301 2.00209 1.92646 1.91827C1.9599 1.83445 2.01006 1.75831 2.07388 1.6945C2.13769 1.63068 2.21383 1.58053 2.29765 1.54708C2.38147 1.51363 2.47122 1.4976 2.56144 1.49995H17.9326C18.0189 1.50318 18.105 1.48897 18.1858 1.45816C18.2665 1.42734 18.3402 1.38056 18.4024 1.32062C18.4646 1.26068 18.5141 1.18881 18.5479 1.1093C18.5817 1.02978 18.5991 0.944271 18.5991 0.857869C18.5991 0.771468 18.5817 0.685953 18.5479 0.606442C18.5141 0.52693 18.4646 0.455051 18.4024 0.395109C18.3402 0.335168 18.2665 0.288394 18.1858 0.257583C18.105 0.226772 18.0189 0.212559 17.9326 0.215792H2.55515ZM5.02356 4.71078C4.93501 4.70818 4.84687 4.72391 4.7647 4.757C4.68252 4.79009 4.60807 4.83981 4.54603 4.90305C4.48399 4.96629 4.4357 5.04167 4.40419 5.12447C4.37267 5.20726 4.35862 5.29568 4.36292 5.38416C4.36721 5.47265 4.38976 5.55929 4.42914 5.63865C4.46852 5.718 4.52388 5.78836 4.59175 5.84529C4.65962 5.90222 4.73854 5.94451 4.82354 5.96949C4.90853 5.99447 4.99777 6.00159 5.08565 5.99043H17.9281C18.0144 5.99366 18.1005 5.97945 18.1812 5.94864C18.262 5.91783 18.3356 5.87105 18.3979 5.81111C18.4601 5.75117 18.5096 5.67929 18.5434 5.59978C18.5772 5.52027 18.5947 5.43475 18.5947 5.34835C18.5947 5.26195 18.5772 5.17644 18.5434 5.09692C18.5096 5.01741 18.4601 4.94554 18.3979 4.8856C18.3356 4.82566 18.262 4.77888 18.1812 4.74807C18.1005 4.71726 18.0144 4.70304 17.9281 4.70627H5.02356V4.71078ZM25.291 5.61068L27.2978 7.61744L26.1279 8.78731L24.1212 6.78054L25.291 5.61068ZM23.2141 7.68764L25.2208 9.6944L18.6291 16.2637H16.643V14.2767L23.2141 7.68764ZM5.02356 8.56054C4.85327 8.56853 4.69314 8.64385 4.57838 8.76991C4.46362 8.89598 4.40363 9.06247 4.41163 9.23275C4.41963 9.40304 4.49494 9.56319 4.62101 9.67795C4.74707 9.7927 4.91357 9.85268 5.08385 9.84468H17.9263C18.0126 9.84792 18.0987 9.8337 18.1794 9.80289C18.2602 9.77208 18.3338 9.72531 18.3961 9.66537C18.4583 9.60543 18.5078 9.53355 18.5416 9.45403C18.5754 9.37452 18.5929 9.28902 18.5929 9.20261C18.5929 9.11621 18.5754 9.0307 18.5416 8.95119C18.5078 8.87167 18.4583 8.7998 18.3961 8.73985C18.3338 8.67991 18.2602 8.63314 18.1794 8.60233C18.0987 8.57152 18.0126 8.5573 17.9263 8.56054H5.02356ZM5.02356 12.413C4.85327 12.421 4.69314 12.4963 4.57838 12.6224C4.46362 12.7484 4.40363 12.9149 4.41163 13.0852C4.41963 13.2555 4.49494 13.4156 4.62101 13.5304C4.74707 13.6452 4.91357 13.7051 5.08385 13.6971H13.4817C13.568 13.7004 13.6541 13.6862 13.7349 13.6553C13.8156 13.6245 13.8893 13.5778 13.9515 13.5178C14.0137 13.4579 14.0632 13.386 14.097 13.3065C14.1308 13.227 14.1483 13.1415 14.1483 13.0551C14.1483 12.9687 14.1308 12.8832 14.097 12.8036C14.0632 12.7241 14.0137 12.6523 13.9515 12.5923C13.8893 12.5324 13.8156 12.4856 13.7349 12.4548C13.6541 12.424 13.568 12.4098 13.4817 12.413H5.02266H5.02356ZM5.02356 16.2663C4.85327 16.2743 4.69314 16.3497 4.57838 16.4757C4.46362 16.6018 4.40363 16.7683 4.41163 16.9386C4.41963 17.1089 4.49494 17.269 4.62101 17.3838C4.74707 17.4985 4.91357 17.5585 5.08385 17.5505H13.4313C13.5176 17.5537 13.6037 17.5395 13.6845 17.5087C13.7652 17.4779 13.8389 17.4311 13.9011 17.3712C13.9633 17.3112 14.0128 17.2394 14.0466 17.1599C14.0804 17.0803 14.0979 16.9948 14.0979 16.9084C14.0979 16.822 14.0804 16.7365 14.0466 16.657C14.0128 16.5775 13.9633 16.5056 13.9011 16.4457C13.8389 16.3857 13.7652 16.339 13.6845 16.3081C13.6037 16.2773 13.5176 16.2631 13.4313 16.2663H5.08565C5.06557 16.2652 5.04544 16.2652 5.02536 16.2663H5.02356Z" fill="#1D4354"/>
</svg>
