<svg width="22" height="23" viewBox="0 0 22 23" fill="none" xmlns="http://www.w3.org/2000/svg">
<path d="M20.4819 8.33957V20.0643C20.4819 20.6043 20.4549 21.1442 20.4819 21.6841V21.7066L20.8544 21.3341H2.32647C2.0754 21.3341 1.82253 21.3242 1.57145 21.3341H1.53906L1.91162 21.7066V17.1586L1.53906 17.5311H7.81044C7.90881 17.5297 8.00277 17.49 8.07234 17.4204C8.1419 17.3509 8.1816 17.2569 8.183 17.1586V12.7491L7.81044 13.1216H14.0863C14.1847 13.1202 14.2786 13.0805 14.3482 13.011C14.4178 12.9414 14.4575 12.8474 14.4589 12.7491V8.33957L14.0863 8.71213H20.8535C20.9524 8.71213 21.0471 8.67287 21.117 8.603C21.1868 8.53313 21.2261 8.43838 21.2261 8.33957C21.2261 8.24076 21.1868 8.146 21.117 8.07613C21.0471 8.00626 20.9524 7.96701 20.8535 7.96701H14.0863C13.988 7.96863 13.8942 8.0084 13.8247 8.07792C13.7552 8.14744 13.7154 8.24127 13.7138 8.33957V12.7491L14.0863 12.3765H7.81044C7.71206 12.3779 7.61811 12.4176 7.54854 12.4872C7.47897 12.5567 7.43927 12.6507 7.43788 12.7491V17.1586L7.81044 16.786H1.53906C1.44069 16.7874 1.34673 16.8271 1.27716 16.8967C1.2076 16.9662 1.1679 17.0602 1.1665 17.1586V21.7066C1.1679 21.805 1.2076 21.899 1.27716 21.9685C1.34673 22.0381 1.44069 22.0778 1.53906 22.0792H20.0661C20.3172 22.0792 20.5701 22.0846 20.8211 22.0792H20.8535C20.9519 22.0778 21.0459 22.0381 21.1154 21.9685C21.185 21.899 21.2247 21.805 21.2261 21.7066V9.98008C21.2261 9.44014 21.2414 8.9002 21.2261 8.36026V8.33777C21.2261 8.23896 21.1868 8.1442 21.117 8.07433C21.0471 8.00446 20.9524 7.96521 20.8535 7.96521C20.7547 7.96521 20.66 8.00446 20.5901 8.07433C20.5202 8.1442 20.481 8.23896 20.481 8.33777L20.4819 8.33957Z" fill="#1D4354" stroke="#1D4354" stroke-width="0.539938"/>
<path d="M1.72591 12.5374C1.86 12.4474 1.99588 12.3511 2.12547 12.2593C2.48543 12.0062 2.84718 11.753 3.21074 11.4998L4.81706 10.3777L6.77614 9.00712C7.49125 8.50797 8.20696 8.00823 8.92328 7.50789L11.0893 5.99336C11.7619 5.52182 12.4356 5.05087 13.1105 4.58053C13.6792 4.18337 14.2492 3.78622 14.8203 3.38906C15.2271 3.10379 15.6302 2.82033 16.0442 2.53506C16.2376 2.39828 16.4338 2.26509 16.6273 2.12831L16.6525 2.11121C16.7358 2.05966 16.7962 1.97808 16.8212 1.8833C16.8461 1.78852 16.8337 1.68778 16.7866 1.60187C16.7363 1.51711 16.6547 1.45554 16.5594 1.43046C16.4641 1.40537 16.3627 1.41878 16.2772 1.46778C16.1432 1.55777 16.0073 1.65406 15.8777 1.74585C15.5177 1.99902 15.156 2.25219 14.7924 2.50536L13.1861 3.62754L11.227 4.99808C10.5119 5.49722 9.79619 5.99696 9.07987 6.4973L6.91291 8.01184C6.24039 8.48338 5.56667 8.95433 4.89174 9.42467C4.32301 9.82183 3.75308 10.219 3.18194 10.6161C2.77519 10.9014 2.37204 11.1849 1.95808 11.4701C1.76461 11.6069 1.56842 11.7401 1.37494 11.8769L1.34975 11.894C1.26639 11.9455 1.20601 12.0271 1.18106 12.1219C1.15611 12.2167 1.1685 12.3174 1.21567 12.4033C1.2658 12.4885 1.34757 12.5504 1.44316 12.5755C1.53875 12.6006 1.64039 12.5869 1.72591 12.5374Z" fill="#1D4354" stroke="#1D4354" stroke-width="0.539938"/>
<path d="M12.1717 1.46076L13.5819 1.68664L15.846 2.052C16.0197 2.07899 16.1907 2.10689 16.3653 2.13659L16.1043 1.67764C16.0296 2.14649 15.9531 2.61893 15.8784 3.08778L15.5131 5.35192C15.4861 5.5256 15.4582 5.69658 15.4285 5.87116C15.4054 5.96651 15.4195 6.06709 15.468 6.15238C15.5165 6.23767 15.5957 6.30124 15.6894 6.3301C15.7849 6.35462 15.8861 6.34111 15.9717 6.29242C16.0573 6.24373 16.1207 6.16366 16.1484 6.06913C16.2231 5.60029 16.2996 5.12784 16.3743 4.659L16.7396 2.39486C16.7666 2.22118 16.7945 2.05019 16.8242 1.87561C16.849 1.7802 16.8356 1.67889 16.7869 1.5932C16.7381 1.50751 16.6579 1.44418 16.5633 1.41667L15.1531 1.1908L12.889 0.825435C12.7153 0.798439 12.5443 0.770544 12.3697 0.740847C12.2744 0.717706 12.1738 0.731826 12.0885 0.780325C12.0032 0.828823 11.9396 0.908045 11.9108 1.00182C11.8858 1.09724 11.8991 1.19866 11.9478 1.28441C11.9966 1.37016 12.077 1.43345 12.1717 1.46076Z" fill="#1D4354" stroke="#1D4354" stroke-width="0.539938"/>
</svg>
