<svg width="44" height="44" viewBox="0 0 44 44" fill="none" xmlns="http://www.w3.org/2000/svg">
<path d="M39.3228 12.739H16.2593C15.2079 12.7404 14.2 13.1587 13.4566 13.9021C12.7132 14.6455 12.2949 15.6534 12.2935 16.7048V32.7644C12.2935 33.2849 12.3961 33.8003 12.5955 34.2811C12.7948 34.7619 13.0871 35.1987 13.4554 35.5664C13.8238 35.9342 14.261 36.2257 14.7421 36.4243C15.2232 36.6229 15.7388 36.7247 16.2593 36.7239H29.4563C29.7533 36.7273 30.0372 36.8469 30.2473 37.0569L36.8039 43.1042C37.1639 43.4578 37.7722 43.312 37.7722 42.8027V37.5311C37.7722 36.9066 38.1673 36.7086 38.7918 36.7086H38.8962C41.0821 36.7086 43.2778 34.9493 43.2778 32.7491V16.7048C43.2801 16.1843 43.1794 15.6684 42.9815 15.187C42.7837 14.7055 42.4926 14.2679 42.1251 13.8993C41.7575 13.5308 41.3207 13.2385 40.8398 13.0394C40.3588 12.8402 39.8433 12.7381 39.3228 12.739Z" fill="#1D4354"/>
<path d="M13.1556 10.1913H31.6197V3.39261C31.6194 2.49291 31.2619 1.63012 30.6257 0.993936C29.9896 0.35775 29.1268 0.000238553 28.2271 0H3.39261C2.49291 0.000238553 1.63012 0.35775 0.993936 0.993936C0.35775 1.63012 0.000238553 2.49291 0 3.39261V20.5869C0.000238553 21.4866 0.35775 22.3494 0.993936 22.9856C1.63012 23.6218 2.49291 23.9793 3.39261 23.9795H9.75218V13.5821C9.75693 12.6821 10.1174 11.8205 10.755 11.1853C11.3926 10.55 12.2556 10.1927 13.1556 10.1913Z" fill="#1D4354"/>
</svg>
