<svg width="31" height="35" viewBox="0 0 31 35" fill="none" xmlns="http://www.w3.org/2000/svg">
<path d="M23.216 11.9782C23.216 11.2332 23.528 10.5572 24.031 10.0691L24.0683 10.0355C24.5688 9.56715 25.2494 9.27772 25.9974 9.27772C26.7628 9.27772 27.4573 9.58038 27.9614 10.069L27.9653 10.0728C28.4678 10.562 28.7787 11.2358 28.7787 11.9784V29.6544C29.3201 29.7626 29.8056 30.0247 30.1828 30.3904C30.688 30.8785 31 31.5548 31 32.2995C31 33.0446 30.688 33.7206 30.185 34.2087L30.1477 34.2422C29.6472 34.7106 28.9666 35 28.2185 35H2.78121C2.01583 35 1.32047 34.6971 0.817195 34.2087C0.311981 33.7206 0 33.0443 0 32.2996C0 31.5546 0.311996 30.8786 0.814983 30.3905L0.852344 30.3569C1.22428 30.0085 1.69659 29.7591 2.22135 29.6541V22.7595C2.22135 22.0163 2.53335 21.3406 3.03777 20.8517C3.53907 20.3623 4.23497 20.059 5.00256 20.059C5.76794 20.059 6.46329 20.362 6.96657 20.8503C7.47178 21.3384 7.78377 22.0147 7.78377 22.7595V29.5991H9.21937V17.1404C9.21937 16.3972 9.53137 15.7221 10.0344 15.2334C10.5398 14.7429 11.2355 14.4399 12.0006 14.4399C12.7679 14.4399 13.4641 14.7429 13.9668 15.2312L14.0014 15.2675C14.4837 15.7535 14.7818 16.4143 14.7818 17.1406V29.5994H16.218V19.0354C16.218 18.2904 16.53 17.6144 17.033 17.1263C17.5357 16.6381 18.2322 16.3349 18.9992 16.3349C19.7646 16.3349 20.4599 16.6379 20.9632 17.1263C21.4684 17.6144 21.7804 18.2906 21.7804 19.0354V29.5994H23.216V11.9782L23.216 11.9782ZM25.8753 1.68308C25.5525 1.74968 25.2343 1.5488 25.1657 1.23531C25.0972 0.921826 25.304 0.612931 25.6269 0.546337L28.1918 0.0127526C28.5146 -0.0538443 28.8328 0.147029 28.9014 0.460518C28.9192 0.541735 28.9184 0.622675 28.9019 0.69875L28.5063 3.05079C28.4533 3.36698 28.146 3.58194 27.8204 3.53077C27.4947 3.47933 27.2733 3.181 27.326 2.8648L27.4437 2.16767L19.897 9.77863C19.7498 9.92671 19.5259 9.99412 19.3073 9.93537L11.6757 7.86901L3.98409 14.0454C3.72953 14.2498 3.35201 14.2149 3.14148 13.968C2.93098 13.7208 2.96694 13.3543 3.22123 13.1499L11.1526 6.78044C11.3183 6.64751 11.5366 6.61584 11.7262 6.6781L19.2836 8.72444L26.3666 1.58129L25.8762 1.68362L25.8753 1.68308ZM24.8788 10.8922C24.5933 11.1694 24.4152 11.5546 24.4152 11.978V30.1814C24.4152 30.5027 24.1467 30.7634 23.8157 30.7634H21.1809C20.8499 30.7634 20.5814 30.5027 20.5814 30.1814V19.0352C20.5814 18.6116 20.4036 18.2266 20.1178 17.9494C19.8325 17.6711 19.4366 17.4992 18.9994 17.4992C18.5631 17.4992 18.1666 17.6719 17.8811 17.9494C17.5956 18.2266 17.4174 18.6118 17.4174 19.0352V30.1814C17.4174 30.5027 17.1489 30.7634 16.818 30.7634H14.1826C13.8516 30.7634 13.5831 30.5027 13.5831 30.1814V17.1398C13.5831 16.728 13.4164 16.3542 13.1465 16.0781L13.1195 16.0537C12.834 15.7765 12.4372 15.6035 12.0011 15.6035C11.564 15.6035 11.1677 15.7754 10.8817 16.0526C10.5962 16.3304 10.4191 16.7151 10.4191 17.1396V30.1812C10.4191 30.5025 10.1506 30.7632 9.81965 30.7632H7.18484C6.85389 30.7632 6.58539 30.5025 6.58539 30.1812V22.7594C6.58539 22.3357 6.4075 21.9508 6.12171 21.6736C5.83648 21.3953 5.44056 21.2234 5.00338 21.2234C4.56675 21.2234 4.17055 21.3961 3.88504 21.6736C3.59814 21.9494 3.42137 22.3347 3.42137 22.7594V30.1812C3.42137 30.5025 3.15287 30.7632 2.82192 30.7632H2.78233C2.35825 30.7632 1.9732 30.9251 1.68883 31.1872L1.66374 31.2134C1.37823 31.4906 1.20007 31.8759 1.20007 32.2993C1.20007 32.7229 1.37795 33.1079 1.66374 33.3851C1.94897 33.6634 2.34489 33.8353 2.78207 33.8353H28.2194C28.6435 33.8353 29.0285 33.6734 29.3129 33.4114L29.338 33.3851C29.6235 33.1079 29.8017 32.7227 29.8017 32.2993C29.8017 31.8756 29.6238 31.4906 29.338 31.2134C29.0528 30.9351 28.6569 30.7632 28.2197 30.7632H28.1801C27.8491 30.7632 27.5806 30.5025 27.5806 30.1812V11.9778C27.5806 11.5525 27.4041 11.1678 27.1195 10.892C26.8328 10.6134 26.4369 10.4418 25.9986 10.4418C25.5746 10.4418 25.1895 10.6036 24.9051 10.8657L24.88 10.892L24.8788 10.8922Z" fill="#1d4354"/>
</svg>
