<svg width="29" height="26" viewBox="0 0 29 26" fill="none" xmlns="http://www.w3.org/2000/svg">
<path d="M11.7045 11.757C11.8711 12.0773 12.0123 12.41 12.1267 12.7524C12.1929 12.9371 12.368 13.0602 12.5643 13.0604C12.6146 13.0598 12.6644 13.0514 12.7121 13.0357C12.8286 12.9972 12.9247 12.9136 12.9793 12.8036C13.0337 12.6935 13.0418 12.5663 13.0019 12.4504C12.8712 12.0644 12.7126 11.6885 12.5273 11.3257L11.1745 8.70971C10.8465 8.06813 10.8602 7.30512 11.2114 6.67598C11.5278 6.08899 12.1213 5.70338 12.7861 5.65287C12.9922 5.63718 13.1996 5.64943 13.4023 5.68984L13.3715 5.72681C13.3008 5.7986 13.2351 5.87468 13.1742 5.95485L13.1188 6.0318C13.0633 6.10874 13.0109 6.18591 12.9617 6.26608C12.9432 6.30004 12.9217 6.33078 12.9062 6.36151V6.36173C12.8514 6.4563 12.802 6.5541 12.7583 6.65447C12.7534 6.6693 12.7474 6.6837 12.7398 6.69746C12.6938 6.81137 12.6537 6.92765 12.6197 7.04565C12.6197 7.07961 12.6197 7.11336 12.595 7.14732C12.5724 7.23781 12.5539 7.33023 12.5395 7.42459C12.5395 7.45855 12.5395 7.49552 12.524 7.53248C12.5086 7.66231 12.5013 7.7932 12.5026 7.92388C12.5043 9.06133 13.1112 10.112 14.0957 10.6817C14.1253 10.6966 14.1563 10.709 14.1881 10.7187H14.2313C14.2629 10.7217 14.2949 10.7217 14.3267 10.7187C14.3585 10.7217 14.3905 10.7217 14.4221 10.7187H14.4653C14.4972 10.709 14.5281 10.6966 14.5578 10.6817C15.4151 10.1936 15.9972 9.33513 16.1328 8.35808C16.2687 7.38097 15.9428 6.39637 15.2512 5.69306C15.4539 5.65308 15.6611 5.63954 15.8674 5.65287C16.5354 5.7066 17.1295 6.09843 17.442 6.69144C17.7932 7.32058 17.807 8.08359 17.479 8.72495L16.1262 11.3442C15.9398 11.7055 15.7812 12.0803 15.6516 12.4657C15.6116 12.5818 15.6198 12.709 15.6741 12.8191C15.7287 12.9289 15.8248 13.0127 15.9413 13.0512C15.989 13.0669 16.0389 13.0753 16.0892 13.0759C16.2854 13.0757 16.4606 12.9526 16.5268 12.7677C16.6411 12.4255 16.7824 12.0926 16.9489 11.7726L18.2985 9.15635C18.7705 8.2401 18.7533 7.14843 18.2523 6.24764C17.7898 5.38899 16.9229 4.8239 15.9505 4.74714C15.3917 4.70738 14.8322 4.81355 14.3267 5.05515C13.8216 4.81227 13.2617 4.70609 12.7028 4.74714C11.7304 4.82387 10.8636 5.38894 10.4011 6.24764C9.90005 7.14843 9.88286 8.2401 10.3549 9.15635L11.7045 11.757ZM14.3267 9.71105C13.7601 9.28483 13.427 8.61723 13.427 7.90836C13.427 7.19949 13.7601 6.53189 14.3267 6.1059C14.8933 6.5319 15.2265 7.19949 15.2265 7.90836C15.2265 8.61723 14.8933 9.28484 14.3267 9.71105Z" fill="#1d4354"/>
<path d="M27.0621 13.6433C27.0042 13.6463 26.9466 13.6525 26.8895 13.6618C26.3442 13.101 25.4442 12.5093 24.1686 11.8591C26.344 10.6789 27.8232 9.40017 27.5087 8.23246C27.2252 7.18789 25.6598 6.69179 22.8682 6.78121V6.78099C22.459 5.02777 21.521 3.44216 20.1813 2.23917C18.318 0.559025 15.82 -0.235187 13.3287 0.0607857C11.5331 0.271207 9.84605 1.02948 8.49648 2.23252C7.14692 3.43528 6.20051 5.02453 5.78569 6.78424C4.6966 6.71933 3.60427 6.82336 2.54705 7.09224C2.13738 6.78575 1.60521 6.69483 1.11665 6.84786C0.628316 7.00068 0.243151 7.37918 0.081546 7.8647C-0.0800585 8.35022 0.00137646 8.8839 0.300568 9.29917C0.599759 9.71443 1.08014 9.96072 1.59192 9.96094C1.65296 9.95793 1.71357 9.95169 1.77376 9.94245C2.53935 10.6887 3.41566 11.3123 4.37126 11.7914C2.44868 12.8544 0.815573 14.1393 1.14527 15.3625C1.40728 16.3302 2.77838 16.82 5.22501 16.82H5.90917H5.90896C7.19018 16.7677 8.46712 16.6381 9.73288 16.4318C9.91342 16.656 10.0628 16.9038 10.1765 17.1682H10.0594H10.0596C9.80424 17.1682 9.59726 17.3752 9.59726 17.6303C9.59726 17.8856 9.80424 18.0926 10.0596 18.0926H10.4048C10.4048 18.1943 10.4233 18.2959 10.4233 18.4008V18.9494L10.0596 18.9491C9.80424 18.9491 9.59725 19.1561 9.59725 19.4115C9.59725 19.6666 9.80424 19.8736 10.0596 19.8736H10.4233L10.423 20.7426H10.0596C9.80424 20.7426 9.59725 20.9495 9.59725 21.2047C9.59725 21.46 9.80424 21.667 10.0596 21.667H10.4233V22.9859L10.423 22.9857C10.423 23.241 10.63 23.448 10.8854 23.448H11.9114V24.625C11.9114 24.8803 12.1182 25.0873 12.3736 25.0873H16.2807C16.536 25.0873 16.7428 24.8803 16.7428 24.625V23.448H17.7689C18.0242 23.448 18.2312 23.241 18.2312 22.9857V21.667H18.5949H18.5947C18.85 21.667 19.057 21.46 19.057 21.2047C19.057 20.9496 18.85 20.7426 18.5947 20.7426H18.2312V19.8859H18.5949H18.5947C18.85 19.8859 19.057 19.6791 19.057 19.4237C19.057 19.1684 18.85 18.9616 18.5947 18.9616H18.2312V18.4007C18.2312 18.299 18.2312 18.1973 18.2497 18.0924H18.5949L18.5947 18.0927C18.85 18.0927 19.057 17.8857 19.057 17.6303C19.057 17.3752 18.85 17.1682 18.5947 17.1682H18.4837C18.5981 16.8957 18.7483 16.6397 18.9306 16.4071C20.1931 16.6135 21.4671 16.7431 22.7453 16.7953H23.4294C24.3319 16.8213 25.2338 16.7175 26.1071 16.4873C26.5168 16.7938 27.049 16.8847 27.5375 16.7317C28.0258 16.5789 28.411 16.2004 28.5726 15.7149C28.7342 15.2293 28.6528 14.6956 28.3536 14.2804C28.0544 13.8651 27.574 13.6188 27.0622 13.6186L27.0621 13.6433ZM27.0621 15.9143V15.914C26.7412 15.913 26.4656 15.6862 26.4027 15.3718C26.3979 15.3277 26.3979 15.2834 26.4027 15.2394C26.4059 14.8697 26.7046 14.5709 27.0743 14.5675C27.4137 14.5748 27.6948 14.8331 27.731 15.1708C27.7669 15.5085 27.5464 15.8201 27.216 15.8988C27.1655 15.9093 27.1139 15.9145 27.0621 15.914L27.0621 15.9143ZM26.6152 8.47561C26.7693 9.0456 25.5214 10.1427 23.1302 11.3536C23.0101 11.2952 22.8837 11.2397 22.7605 11.1843V11.184C22.9858 10.4019 23.101 9.59176 23.1025 8.77763C23.1021 8.41912 23.0784 8.06084 23.0316 7.70533C25.663 7.64687 26.529 8.15219 26.6152 8.47566L26.6152 8.47561ZM18.5823 15.4334C17.812 15.304 17.0139 15.1468 16.2004 14.968C17.6179 14.5551 19.1493 14.0436 20.6128 13.4705C20.1502 14.093 19.5979 14.6432 18.9737 15.1037C18.8363 15.2051 18.7057 15.3152 18.5823 15.4334L18.5823 15.4334ZM13.4303 0.978634C15.6609 0.712974 17.8975 1.42398 19.5654 2.92895C20.8335 4.05759 21.6997 5.56816 22.0333 7.2324C22.3667 8.89687 22.1494 10.6245 21.4143 12.1544C19.338 13.0329 17.2026 13.7639 15.0239 14.3423L14.3275 14.5179L13.6403 14.3423C11.4585 13.7611 9.31989 13.0279 7.24054 12.1484C7.09525 11.8417 6.97059 11.5258 6.86785 11.2025L6.84936 11.1533V11.1531C6.51514 10.0808 6.41003 8.95 6.54114 7.83451C6.75543 6.08514 7.5511 4.45853 8.80052 3.2151C10.0499 1.9719 11.6805 1.1844 13.4309 0.978665L13.4303 0.978634ZM9.705 15.128C9.06662 14.6622 8.50158 14.1034 8.0287 13.4702C9.49844 14.0432 11.0331 14.558 12.4534 14.9708C11.643 15.1494 10.848 15.3035 10.0777 15.4329H10.0779C9.96011 15.3233 9.83566 15.2214 9.70498 15.1279L9.705 15.128ZM0.91992 8.35511C0.920995 8.04022 1.13959 7.7679 1.44694 7.69868C1.49444 7.689 1.54302 7.68384 1.59159 7.68341C1.91486 7.68384 2.19168 7.91426 2.251 8.23194C2.25573 8.27578 2.25573 8.32028 2.251 8.36433C2.24369 8.62333 2.08743 8.85482 1.84992 8.95842C1.61242 9.06181 1.33644 9.01904 1.14171 8.84816C1.00179 8.72242 0.921191 8.54338 0.919903 8.3551L0.91992 8.35511ZM2.6639 9.53212C2.9964 9.23121 3.18662 8.80372 3.18769 8.35511C3.18619 8.19691 3.16018 8.04001 3.11075 7.88977C3.93544 7.729 4.77648 7.66688 5.61581 7.70493V7.72964C5.489 8.84063 5.57368 9.96564 5.86535 11.045C5.702 11.119 5.54188 11.1959 5.37852 11.2761V11.2763C4.40526 10.809 3.49352 10.2231 2.66387 9.53211L2.6639 9.53212ZM5.87783 15.883C3.03376 15.9784 2.12785 15.4486 2.03844 15.1188C1.92453 14.7027 2.75953 13.6551 5.37255 12.3115C5.76072 12.4994 6.15834 12.6844 6.57124 12.863L6.57102 12.8632C7.12962 13.9302 7.90149 14.871 8.83904 15.6271C7.85698 15.7634 6.86853 15.8489 5.87789 15.8829L5.87783 15.883ZM15.8184 24.1624H12.8355V23.4475H15.8182L15.8184 24.1624ZM17.3066 22.523H11.3476V21.6665H17.3066V22.523ZM17.3066 20.7421H11.3476V19.8854H17.3066V20.7421ZM17.3066 18.4096V18.9611H11.3476V18.4001C11.3476 18.2954 11.3476 18.1936 11.3291 18.0919L17.3256 18.0921C17.3193 18.206 17.3071 18.3077 17.3071 18.4001L17.3066 18.4096ZM17.5039 17.1772L11.1564 17.177C11.0558 16.8526 10.915 16.542 10.7375 16.2525C11.893 16.0429 13.0947 15.7842 14.3271 15.4729C15.5596 15.7811 16.7675 16.0459 17.926 16.2525C17.748 16.539 17.6062 16.8464 17.5039 17.1677L17.5039 17.1772ZM22.7761 15.88L22.7759 15.8798C21.7852 15.8467 20.7967 15.7625 19.8147 15.6271C20.754 14.869 21.5261 13.9247 22.0827 12.854C22.4464 12.6969 22.8006 12.5457 23.1428 12.3701H23.1426C24.1541 12.8245 25.1061 13.4007 25.9774 14.0864C25.7545 14.2865 25.5946 14.5472 25.5175 14.8367C25.4403 15.1263 25.4491 15.4319 25.543 15.7165C24.6311 15.8861 23.7017 15.9419 22.776 15.8828L22.7761 15.88Z" fill="#1d4354"/>
</svg>
