<svg
                      xmlns="http://www.w3.org/2000/svg"
                      id="Group_14990"
                      data-name="Group 14990"
                      width="16.917"
                      height="16.918"
                      viewBox="0 0 16.917 16.918"
                  >
                      <path
                          id="Path_43987"
                          d="M90.12,230.3c2.259,0,2.526.008,3.418.049a4.67,4.67,0,0,1,1.571.291,2.8,2.8,0,0,1,1.606,1.605,4.708,4.708,0,0,1,.291,1.571c.04.892.049,1.16.049,3.418s-.008,2.526-.049,3.418a4.708,4.708,0,0,1-.291,1.571,2.8,2.8,0,0,1-1.606,1.606,4.669,4.669,0,0,1-1.571.291c-.892.04-1.159.049-3.418.049s-2.526-.009-3.418-.049a4.669,4.669,0,0,1-1.571-.291,2.8,2.8,0,0,1-1.606-1.606,4.708,4.708,0,0,1-.291-1.571c-.04-.892-.049-1.159-.049-3.418s.008-2.526.049-3.418a4.708,4.708,0,0,1,.291-1.571,2.8,2.8,0,0,1,1.606-1.605,4.67,4.67,0,0,1,1.571-.291c.892-.041,1.159-.049,3.418-.049m0-1.524c-2.3,0-2.585.01-3.488.051a6.212,6.212,0,0,0-2.053.393,4.323,4.323,0,0,0-2.474,2.474,6.178,6.178,0,0,0-.393,2.054c-.041.9-.051,1.19-.051,3.487s.01,2.585.051,3.488a6.182,6.182,0,0,0,.393,2.054,4.323,4.323,0,0,0,2.474,2.474,6.212,6.212,0,0,0,2.053.393c.9.041,1.191.051,3.488.051s2.585-.01,3.488-.051a6.211,6.211,0,0,0,2.053-.393,4.323,4.323,0,0,0,2.474-2.474,6.182,6.182,0,0,0,.393-2.054c.041-.9.051-1.19.051-3.488s-.01-2.585-.051-3.487a6.178,6.178,0,0,0-.393-2.054,4.324,4.324,0,0,0-2.474-2.474,6.211,6.211,0,0,0-2.053-.393c-.9-.041-1.191-.051-3.488-.051"
                          transform="translate(-81.661 -228.78)"
                          fill="#FFFFFF"
                      ></path>
                      <path
                          id="Path_43988"
                          d="M91.5,234.275a4.344,4.344,0,1,0,4.344,4.343,4.343,4.343,0,0,0-4.344-4.343m0,7.163a2.819,2.819,0,1,1,2.82-2.82,2.82,2.82,0,0,1-2.82,2.82"
                          transform="translate(-83.04 -230.16)"
                          fill="#FFFFFF"
                      ></path>
                      <path
                          id="Path_43989"
                          d="M99.659,233.7a1.015,1.015,0,1,1-1.015-1.015,1.015,1.015,0,0,1,1.015,1.015"
                          transform="translate(-85.67 -229.762)"
                          fill="#FFFFFF"
                      ></path>
                  </svg>