<svg
                      xmlns="http://www.w3.org/2000/svg"
                      id="Group_14994"
                      data-name="Group 14994"
                      width="15.466"
                      height="15.473"
                      viewBox="0 0 15.466 15.473"
                  >
                      <g
                          id="Group_14993"
                          transform="translate(0)"
                      >
                          <rect
                              id="Rectangle_2684"
                              width="3.193"
                              height="10.315"
                              transform="translate(0.307 5.158)"
                              fill="#FFFFFF"
                          ></rect>
                          <path
                              id="Path_43991"
                              d="M398.608,309.767a1.9,1.9,0,1,0-1.888-1.9A1.9,1.9,0,0,0,398.608,309.767Z"
                              transform="translate(-396.72 -305.96)"
                              fill="#FFFFFF"
                          ></path>
                      </g>
                      <path
                          id="Path_43992"
                          d="M407.182,317.641c0-1.45.667-2.314,1.946-2.314,1.174,0,1.738.829,1.738,2.314v5.415h3.179v-6.531c0-2.763-1.566-4.1-3.753-4.1a3.6,3.6,0,0,0-3.109,1.7v-1.389h-3.063v10.315h3.063Z"
                          transform="translate(-398.577 -307.583)"
                          fill="#FFFFFF"
                      ></path>
                  </svg>