<svg width="210" height="52" viewBox="0 0 210 52" fill="none" xmlns="http://www.w3.org/2000/svg">
<path d="M75.7647 21.3823V33.3509H79.8718C81.518 33.3509 82.9206 32.7714 84.0797 31.6123C85.2556 30.4365 85.8435 29.017 85.8435 27.354C85.8435 25.7078 85.2556 24.3052 84.0797 23.1461C82.9206 21.9702 81.518 21.3823 79.8718 21.3823H75.7647ZM71.3552 37.7604V16.9728H79.8718C82.7275 16.9728 85.1716 17.9891 87.2041 20.0217C89.2367 22.0542 90.253 24.4984 90.253 27.354C90.253 30.2265 89.2367 32.679 87.2041 34.7116C85.1716 36.7442 82.7275 37.7604 79.8718 37.7604H71.3552ZM98.4519 21.3823V37.7604H94.0424V21.3823H98.4519ZM98.4519 16.3429V19.4925H94.0424V16.3429H98.4519ZM114.83 31.8391V27.2784C114.645 26.9761 114.427 26.6989 114.175 26.4469C113.301 25.5902 112.26 25.1619 111.05 25.1619C109.824 25.1619 108.783 25.5902 107.926 26.4469C107.069 27.3036 106.641 28.3451 106.641 29.5714C106.641 30.7808 107.069 31.8223 107.926 32.6958C108.783 33.5525 109.824 33.9809 111.05 33.9809C112.26 33.9809 113.301 33.5441 114.175 32.6706C114.427 32.4186 114.645 32.1415 114.83 31.8391ZM114.83 37.5589C113.671 38.1132 112.411 38.3904 111.05 38.3904C108.615 38.3904 106.532 37.5337 104.802 35.8203C103.088 34.0901 102.231 32.0071 102.231 29.5714C102.231 27.1357 103.088 25.0611 104.802 23.3477C106.532 21.6175 108.615 20.7524 111.05 20.7524C112.428 20.7524 113.688 21.0296 114.83 21.5839V21.3823H119.24V37.4581C119.24 39.8098 118.408 41.8088 116.745 43.455C115.082 45.118 113.083 45.9495 110.748 45.9495V41.54C111.874 41.54 112.823 41.1452 113.595 40.3557C114.385 39.583 114.796 38.6507 114.83 37.5589ZM128.693 21.3823V37.7604H124.284V21.3823H128.693ZM128.693 16.3429V19.4925H124.284V16.3429H128.693Z" fill="#1D4354"/>
<path d="M137.16 16.9728L144.139 26.3209L151.119 16.9728H154.52V37.7604H150.111V25.691L145.147 32.3431H143.131L138.142 25.6406V37.7604H133.733V16.9728H137.16ZM170.908 37.5589C169.766 38.1132 168.506 38.3904 167.129 38.3904C164.693 38.3904 162.61 37.5337 160.88 35.8203C159.166 34.0901 158.31 32.0071 158.31 29.5714C158.31 27.1357 159.166 25.0611 160.88 23.3477C162.61 21.6175 164.693 20.7524 167.129 20.7524C168.506 20.7524 169.766 21.0296 170.908 21.5839V21.3823H175.318V37.7604H170.908V37.5589ZM170.908 31.8391V27.2784C170.724 26.9761 170.505 26.6989 170.253 26.4469C169.38 25.5902 168.338 25.1619 167.129 25.1619C165.903 25.1619 164.861 25.5902 164.004 26.4469C163.148 27.3036 162.719 28.3451 162.719 29.5714C162.719 30.7808 163.148 31.8223 164.004 32.6958C164.861 33.5525 165.903 33.9809 167.129 33.9809C168.338 33.9809 169.38 33.5441 170.253 32.6706C170.505 32.4186 170.724 32.1415 170.908 31.8391ZM188.551 25.1619C187.325 25.1619 186.284 25.5902 185.427 26.4469C185.175 26.6989 184.956 26.9761 184.772 27.2784V37.7604H180.362V21.3823H184.772V21.5839C185.914 21.0296 187.174 20.7524 188.551 20.7524V25.1619ZM197.37 28.5131L202.561 21.4075H208.029L201.83 29.9241L207.575 37.7856H202.107L197.37 31.2848V37.7604H192.961V16.9728H197.37V28.5131Z" fill="#6BB64A"/>
<path d="M151.051 6.67221C151.051 7.80068 150.652 8.76417 149.853 9.56267C149.061 10.3612 148.101 10.7604 146.973 10.7604H143.617V2.59387H146.973C148.101 2.59387 149.061 2.99313 149.853 3.79164C150.652 4.59014 151.051 5.55033 151.051 6.67221ZM146.973 3.83123H144.854V9.52308H146.973C147.758 9.52308 148.428 9.24591 148.982 8.69157C149.536 8.13724 149.814 7.46411 149.814 6.67221C149.814 5.8869 149.536 5.21707 148.982 4.66274C148.428 4.1084 147.758 3.83123 146.973 3.83123ZM156.578 5.59323C156.255 5.40845 155.895 5.31606 155.499 5.31606C154.886 5.31606 154.361 5.53384 153.925 5.96939C153.49 6.40494 153.272 6.92958 153.272 7.54331C153.272 7.93926 153.364 8.29892 153.549 8.62228L156.578 5.59323ZM158.35 5.56353L157.449 6.46433L154.42 9.49338C154.744 9.67816 155.103 9.77055 155.499 9.77055C156.179 9.77055 156.763 9.48678 157.251 8.91925L158.222 9.68146C157.496 10.5658 156.588 11.0079 155.499 11.0079C154.542 11.0079 153.724 10.6713 153.044 9.99822C152.371 9.3185 152.035 8.5002 152.035 7.54331C152.035 6.58642 152.371 5.77141 153.044 5.09829C153.724 4.41856 154.542 4.0787 155.499 4.0787C156.456 4.0787 157.275 4.41526 157.954 5.08839C158.099 5.24017 158.231 5.39855 158.35 5.56353ZM160.33 4.32617L161.845 8.53319L163.329 4.32617H164.656L162.32 10.7604H161.34L159.004 4.32617H160.33ZM169.696 5.59323C169.373 5.40845 169.013 5.31606 168.617 5.31606C168.004 5.31606 167.479 5.53384 167.043 5.96939C166.608 6.40494 166.39 6.92958 166.39 7.54331C166.39 7.93926 166.482 8.29892 166.667 8.62228L169.696 5.59323ZM171.468 5.56353L170.567 6.46433L167.538 9.49338C167.862 9.67816 168.221 9.77055 168.617 9.77055C169.297 9.77055 169.881 9.48678 170.369 8.91925L171.339 9.68146C170.614 10.5658 169.706 11.0079 168.617 11.0079C167.66 11.0079 166.842 10.6713 166.162 9.99822C165.489 9.3185 165.153 8.5002 165.153 7.54331C165.153 6.58642 165.489 5.77141 166.162 5.09829C166.842 4.41856 167.66 4.0787 168.617 4.0787C169.574 4.0787 170.392 4.41526 171.072 5.08839C171.217 5.24017 171.349 5.39855 171.468 5.56353ZM174.309 2.59387V10.7604H173.072V2.59387H174.309ZM182.725 7.54331C182.725 8.5002 182.385 9.3185 181.706 9.99822C181.032 10.6713 180.217 11.0079 179.26 11.0079C178.304 11.0079 177.485 10.6713 176.806 9.99822C176.132 9.3185 175.796 8.5002 175.796 7.54331C175.796 6.58642 176.132 5.77141 176.806 5.09829C177.485 4.41856 178.304 4.0787 179.26 4.0787C180.217 4.0787 181.032 4.41856 181.706 5.09829C182.385 5.77141 182.725 6.58642 182.725 7.54331ZM179.26 5.31606C178.647 5.31606 178.122 5.53384 177.687 5.96939C177.251 6.40494 177.033 6.92958 177.033 7.54331C177.033 8.15704 177.251 8.68168 177.687 9.11723C178.122 9.55278 178.647 9.77055 179.26 9.77055C179.874 9.77055 180.399 9.55278 180.834 9.11723C181.27 8.68168 181.488 8.15704 181.488 7.54331C181.488 6.92958 181.27 6.40494 180.834 5.96939C180.399 5.53384 179.874 5.31606 179.26 5.31606ZM185.435 4.69243C186.01 4.28328 186.67 4.0787 187.415 4.0787C188.372 4.0787 189.187 4.41856 189.86 5.09829C190.54 5.77141 190.88 6.58642 190.88 7.54331C190.88 8.5002 190.54 9.3185 189.86 9.99822C189.187 10.6713 188.372 11.0079 187.415 11.0079C186.67 11.0079 186.01 10.8033 185.435 10.3942V12.4927H184.198V4.32617H185.435V4.69243ZM185.435 6.51382V8.57279C185.541 8.77077 185.676 8.95224 185.841 9.11723C186.277 9.55278 186.801 9.77055 187.415 9.77055C188.029 9.77055 188.554 9.55278 188.989 9.11723C189.425 8.68168 189.642 8.15704 189.642 7.54331C189.642 6.92958 189.425 6.40494 188.989 5.96939C188.554 5.53384 188.029 5.31606 187.415 5.31606C186.801 5.31606 186.277 5.53384 185.841 5.96939C185.676 6.13437 185.541 6.31585 185.435 6.51382ZM196.425 5.59323C196.102 5.40845 195.742 5.31606 195.346 5.31606C194.732 5.31606 194.208 5.53384 193.772 5.96939C193.337 6.40494 193.119 6.92958 193.119 7.54331C193.119 7.93926 193.211 8.29892 193.396 8.62228L196.425 5.59323ZM198.197 5.56353L197.296 6.46433L194.267 9.49338C194.591 9.67816 194.95 9.77055 195.346 9.77055C196.026 9.77055 196.61 9.48678 197.098 8.91925L198.068 9.68146C197.342 10.5658 196.435 11.0079 195.346 11.0079C194.389 11.0079 193.571 10.6713 192.891 9.99822C192.218 9.3185 191.882 8.5002 191.882 7.54331C191.882 6.58642 192.218 5.77141 192.891 5.09829C193.571 4.41856 194.389 4.0787 195.346 4.0787C196.303 4.0787 197.121 4.41526 197.801 5.08839C197.946 5.24017 198.078 5.39855 198.197 5.56353ZM201.038 6.32575V10.7604H199.801V4.31628H201.038V4.57365C201.546 4.24368 202.124 4.0787 202.77 4.0787V5.31606C202.223 5.31606 201.757 5.50744 201.375 5.8902C201.236 6.02878 201.124 6.17396 201.038 6.32575ZM204.382 9.42409C204.936 9.65506 205.448 9.77055 205.916 9.77055C206.378 9.77055 206.731 9.70456 206.975 9.57257C207.226 9.44059 207.352 9.27231 207.352 9.06773C207.352 8.88955 207.289 8.73777 207.163 8.61238C207.045 8.4804 206.883 8.38801 206.678 8.33522L205.342 7.97886C204.814 7.84027 204.405 7.6027 204.115 7.26614C203.824 6.92958 203.679 6.52372 203.679 6.04858C203.679 5.50744 203.894 5.04879 204.322 4.67264C204.751 4.28988 205.309 4.0919 205.995 4.0787C206.88 4.0787 207.691 4.33607 208.431 4.85081L207.609 5.79121C207.068 5.47444 206.537 5.31606 206.015 5.31606C205.685 5.32266 205.421 5.39855 205.223 5.54374C205.025 5.68232 204.926 5.8539 204.926 6.05848C204.926 6.23666 204.992 6.38514 205.124 6.50393C205.263 6.61611 205.454 6.7085 205.698 6.78109L207.084 7.15725C207.559 7.28264 207.936 7.51361 208.213 7.85017C208.496 8.18013 208.638 8.59259 208.638 9.08753C208.638 9.63527 208.414 10.0939 207.965 10.4635C207.523 10.8264 206.843 11.0079 205.926 11.0079C205.167 11.0079 204.398 10.8066 203.62 10.4041L204.382 9.42409Z" fill="#1D4354"/>
<path d="M46.8014 46.6359C46.71 47.3517 46.4784 48.0425 46.1199 48.6689C45.7614 49.2952 45.283 49.8448 44.7121 50.2862C44.1412 50.7276 43.4888 51.0522 42.7924 51.2414C42.096 51.4307 41.3691 51.4809 40.6533 51.3891L4.79962 46.7996C4.08356 46.7083 3.39251 46.4768 2.76597 46.1183C2.13942 45.7598 1.58964 45.2814 1.14806 44.7104C0.706474 44.1393 0.381733 43.4869 0.192391 42.7903C0.00304837 42.0937 -0.0471846 41.3666 0.044562 40.6506L4.63404 4.79695C4.72557 4.08118 4.95723 3.39044 5.31576 2.76421C5.6743 2.13797 6.15269 1.5885 6.72362 1.14719C7.29455 0.70587 7.94683 0.381351 8.6432 0.192166C9.33956 0.00298221 10.0664 -0.0471615 10.7821 0.0445992L46.6358 4.63407C47.3516 4.72562 48.0424 4.95726 48.6687 5.31579C49.295 5.67431 49.8445 6.15269 50.2859 6.7236C50.7273 7.29452 51.0519 7.94678 51.2412 8.64316C51.4304 9.33953 51.4807 10.0664 51.3891 10.7822L46.8014 46.6359Z" fill="#6BB64A" fill-opacity="0.38"/>
<path d="M41.4391 2.79736H9.99849C6.0225 2.79736 2.79932 6.02054 2.79932 9.99654V41.4362C2.79932 45.4122 6.0225 48.6354 9.99849 48.6354H41.4391C45.4151 48.6354 48.6383 45.4122 48.6383 41.4362V9.99654C48.6383 6.02054 45.4151 2.79736 41.4391 2.79736Z" fill="#6BB64A"/>
<path d="M23.0119 30.2199C21.6711 31.3344 19.97 31.9221 18.2271 31.873H10.6977V16.8142H18.228C19.9783 16.7853 21.6795 17.3929 23.0155 18.524V27.7767V14.0749C21.5157 13.3817 19.8802 13.0315 18.228 13.0499H6.93164V35.6418H18.2271C19.6377 35.6479 21.0369 35.3897 22.3523 34.8805C22.4864 34.8362 22.6173 34.7824 22.7437 34.7194L22.7617 34.7113L22.9147 34.6132L23.0164 34.5457L23.0119 30.2199Z" fill="white"/>
<path d="M23.0073 14.0928V18.5401L23.0154 18.5455V27.801L26.7806 25.6412V20.6324L30.4567 22.7741L34.3118 20.6693L23.0154 14.1L23.0073 14.0928Z" fill="white"/>
<path d="M23.0117 30.2424C23.0117 30.2424 23.0117 30.2424 23.0117 30.2469V34.5718L41.843 22.3233V38.3847H45.6081V15.791L23.0117 30.2424Z" fill="white"/>
<path d="M58.3066 8.14459H57.8413V44.0703H58.3066V8.14459Z" fill="#6BB64A" stroke="#6BB64A" stroke-width="0.899897" stroke-miterlimit="10"/>
</svg>
