<svg width="34" height="22" viewBox="0 0 34 22" fill="none" xmlns="http://www.w3.org/2000/svg">
<path d="M2.71963 0.00270278C2.0958 0.000756119 1.49643 0.245195 1.05187 0.682843C0.607316 1.12049 0.353528 1.71594 0.345703 2.33972V19.4801C0.352821 20.1043 0.606299 20.7005 1.05093 21.1387C1.49557 21.5769 2.09534 21.8218 2.71963 21.8198H31.4731C32.0974 21.8218 32.6972 21.5769 33.1418 21.1387C33.5865 20.7005 33.8399 20.1043 33.8471 19.4801V2.33972C33.8399 1.71547 33.5865 1.11931 33.1418 0.681086C32.6972 0.242857 32.0974 -0.00192814 31.4731 1.14389e-05H2.71963V0.00270278ZM3.12098 1.56044H31.0709L17.7776 13.4454C17.5797 13.5898 17.341 13.6676 17.0959 13.6676C16.8509 13.6676 16.6122 13.5898 16.4143 13.4454L3.12098 1.5667V1.56044ZM1.90432 2.55662L11.6304 11.2496L1.90432 19.3082V2.55662ZM32.2884 2.55662V19.3073L22.5624 11.2496L32.2884 2.55662ZM12.8111 12.3097L15.3794 14.5981C15.8522 15.0187 16.4631 15.2511 17.0959 15.2511C17.7288 15.2511 18.3396 15.0187 18.8125 14.5981L21.3808 12.3097L30.9854 20.2585H3.20648L12.8111 12.3106V12.3097Z" fill="#1D4354"/>
</svg>
