<svg width="121" height="30" viewBox="0 0 121 30" fill="none" xmlns="http://www.w3.org/2000/svg">
<path d="M43.4113 12.7248V19.5565H45.7556C46.6953 19.5565 47.4959 19.2257 48.1575 18.5641C48.8287 17.893 49.1643 17.0827 49.1643 16.1335C49.1643 15.1938 48.8287 14.3932 48.1575 13.7316C47.4959 13.0604 46.6953 12.7248 45.7556 12.7248H43.4113ZM40.8943 22.0735V10.2079H45.7556C47.3856 10.2079 48.7807 10.788 49.9409 11.9482C51.1011 13.1084 51.6812 14.5035 51.6812 16.1335C51.6812 17.7731 51.1011 19.173 49.9409 20.3332C48.7807 21.4934 47.3856 22.0735 45.7556 22.0735H40.8943ZM56.3611 12.7248V22.0735H53.8442V12.7248H56.3611ZM56.3611 9.84833V11.6462H53.8442V9.84833H56.3611ZM65.7098 18.6936V16.0904C65.6043 15.9178 65.4797 15.7596 65.3358 15.6157C64.8373 15.1267 64.2428 14.8822 63.5524 14.8822C62.8525 14.8822 62.258 15.1267 61.769 15.6157C61.28 16.1047 61.0355 16.6992 61.0355 17.3992C61.0355 18.0895 61.28 18.684 61.769 19.1826C62.258 19.6716 62.8525 19.9161 63.5524 19.9161C64.2428 19.9161 64.8373 19.6668 65.3358 19.1682C65.4797 19.0244 65.6043 18.8662 65.7098 18.6936ZM65.7098 21.9584C65.0482 22.2748 64.3291 22.433 63.5524 22.433C62.1621 22.433 60.9731 21.944 59.9855 20.966C59.0075 19.9784 58.5185 18.7895 58.5185 17.3992C58.5185 16.0089 59.0075 14.8247 59.9855 13.8467C60.9731 12.8591 62.1621 12.3653 63.5524 12.3653C64.3387 12.3653 65.0578 12.5235 65.7098 12.8399V12.7248H68.2267V21.9009C68.2267 23.2433 67.7521 24.3843 66.8029 25.3239C65.8536 26.2732 64.7126 26.7478 63.3798 26.7478V24.2309C64.0222 24.2309 64.564 24.0055 65.005 23.5549C65.4557 23.1138 65.6906 22.5817 65.7098 21.9584ZM73.623 12.7248V22.0735H71.1061V12.7248H73.623ZM73.623 9.84833V11.6462H71.1061V9.84833H73.623Z" fill="white"/>
<path d="M78.4555 10.2079L82.4395 15.5438L86.4234 10.2079H88.3651V22.0735H85.8481V15.1843L83.0148 18.9812H81.8642L79.0164 15.1555V22.0735H76.4995V10.2079H78.4555ZM97.7194 21.9584C97.0673 22.2748 96.3482 22.433 95.562 22.433C94.1717 22.433 92.9827 21.944 91.9951 20.966C91.0171 19.9784 90.5281 18.7895 90.5281 17.3992C90.5281 16.0089 91.0171 14.8247 91.9951 13.8467C92.9827 12.8591 94.1717 12.3653 95.562 12.3653C96.3482 12.3653 97.0673 12.5235 97.7194 12.8399V12.7248H100.236V22.0735H97.7194V21.9584ZM97.7194 18.6936V16.0904C97.6139 15.9178 97.4892 15.7596 97.3454 15.6157C96.8468 15.1267 96.2523 14.8822 95.562 14.8822C94.862 14.8822 94.2675 15.1267 93.7785 15.6157C93.2895 16.1047 93.045 16.6992 93.045 17.3992C93.045 18.0895 93.2895 18.684 93.7785 19.1826C94.2675 19.6716 94.862 19.9161 95.562 19.9161C96.2523 19.9161 96.8468 19.6668 97.3454 19.1682C97.4892 19.0244 97.6139 18.8662 97.7194 18.6936ZM107.79 14.8822C107.09 14.8822 106.496 15.1267 106.007 15.6157C105.863 15.7596 105.738 15.9178 105.633 16.0904V22.0735H103.116V12.7248H105.633V12.8399C106.285 12.5235 107.004 12.3653 107.79 12.3653V14.8822ZM112.824 16.7951L115.787 12.7392H118.908L115.37 17.6005L118.649 22.0879H115.528L112.824 18.3772V22.0735H110.307V10.2079H112.824V16.7951Z" fill="#6BB64A"/>
<path d="M86.3846 3.46551C86.3846 4.10964 86.1567 4.6596 85.7009 5.11539C85.2489 5.57118 84.7008 5.79907 84.0566 5.79907H82.1412V1.13759H84.0566C84.7008 1.13759 85.2489 1.36548 85.7009 1.82127C86.1567 2.27706 86.3846 2.82514 86.3846 3.46551ZM84.0566 1.84388H82.8475V5.09279H84.0566C84.5049 5.09279 84.8872 4.93458 85.2037 4.61816C85.5201 4.30175 85.6783 3.91753 85.6783 3.46551C85.6783 3.01725 85.5201 2.63491 85.2037 2.3185C84.8872 2.00208 84.5049 1.84388 84.0566 1.84388ZM89.5396 2.84963C89.355 2.74415 89.1498 2.69142 88.9237 2.69142C88.5734 2.69142 88.274 2.81572 88.0253 3.06434C87.7767 3.31295 87.6524 3.61241 87.6524 3.96273C87.6524 4.18874 87.7052 4.39404 87.8106 4.57861L89.5396 2.84963ZM90.551 2.83267L90.0368 3.34685L88.3079 5.07584C88.4924 5.18131 88.6977 5.23404 88.9237 5.23404C89.3117 5.23404 89.6451 5.07207 89.9238 4.74812L90.4776 5.18319C90.0632 5.68795 89.5453 5.94033 88.9237 5.94033C88.3776 5.94033 87.9105 5.74822 87.5225 5.364C87.1383 4.97601 86.9461 4.50892 86.9461 3.96273C86.9461 3.41654 87.1383 2.95133 87.5225 2.56711C87.9105 2.17913 88.3776 1.98513 88.9237 1.98513C89.4699 1.98513 89.937 2.17724 90.325 2.56146C90.4079 2.6481 90.4832 2.7385 90.551 2.83267ZM91.6811 2.12639L92.5456 4.52776L93.3931 2.12639H94.1503L92.8168 5.79907H92.2574L90.9239 2.12639H91.6811ZM97.0274 2.84963C96.8428 2.74415 96.6375 2.69142 96.4115 2.69142C96.0612 2.69142 95.7617 2.81572 95.5131 3.06434C95.2645 3.31295 95.1402 3.61241 95.1402 3.96273C95.1402 4.18874 95.1929 4.39404 95.2984 4.57861L97.0274 2.84963ZM98.0388 2.83267L97.5246 3.34685L95.7956 5.07584C95.9802 5.18131 96.1855 5.23404 96.4115 5.23404C96.7995 5.23404 97.1328 5.07207 97.4116 4.74812L97.9653 5.18319C97.5509 5.68795 97.033 5.94033 96.4115 5.94033C95.8653 5.94033 95.3982 5.74822 95.0102 5.364C94.626 4.97601 94.4339 4.50892 94.4339 3.96273C94.4339 3.41654 94.626 2.95133 95.0102 2.56711C95.3982 2.17913 95.8653 1.98513 96.4115 1.98513C96.9577 1.98513 97.4248 2.17724 97.8127 2.56146C97.8956 2.6481 97.9709 2.7385 98.0388 2.83267ZM99.6604 1.13759V5.79907H98.9541V1.13759H99.6604ZM104.464 3.96273C104.464 4.50892 104.27 4.97601 103.882 5.364C103.498 5.74822 103.033 5.94033 102.487 5.94033C101.94 5.94033 101.473 5.74822 101.085 5.364C100.701 4.97601 100.509 4.50892 100.509 3.96273C100.509 3.41654 100.701 2.95133 101.085 2.56711C101.473 2.17913 101.94 1.98513 102.487 1.98513C103.033 1.98513 103.498 2.17913 103.882 2.56711C104.27 2.95133 104.464 3.41654 104.464 3.96273ZM102.487 2.69142C102.136 2.69142 101.837 2.81572 101.588 3.06434C101.34 3.31295 101.215 3.61241 101.215 3.96273C101.215 4.31305 101.34 4.61251 101.588 4.86113C101.837 5.10974 102.136 5.23404 102.487 5.23404C102.837 5.23404 103.136 5.10974 103.385 4.86113C103.634 4.61251 103.758 4.31305 103.758 3.96273C103.758 3.61241 103.634 3.31295 103.385 3.06434C103.136 2.81572 102.837 2.69142 102.487 2.69142ZM106.011 2.33545C106.339 2.1019 106.716 1.98513 107.141 1.98513C107.688 1.98513 108.153 2.17913 108.537 2.56711C108.925 2.95133 109.119 3.41654 109.119 3.96273C109.119 4.50892 108.925 4.97601 108.537 5.364C108.153 5.74822 107.688 5.94033 107.141 5.94033C106.716 5.94033 106.339 5.82356 106.011 5.59001V6.78787H105.305V2.12639H106.011V2.33545ZM106.011 3.3751V4.55036C106.072 4.66337 106.149 4.76695 106.243 4.86113C106.492 5.10974 106.791 5.23404 107.141 5.23404C107.492 5.23404 107.791 5.10974 108.04 4.86113C108.288 4.61251 108.413 4.31305 108.413 3.96273C108.413 3.61241 108.288 3.31295 108.04 3.06434C107.791 2.81572 107.492 2.69142 107.141 2.69142C106.791 2.69142 106.492 2.81572 106.243 3.06434C106.149 3.15851 106.072 3.2621 106.011 3.3751ZM112.284 2.84963C112.1 2.74415 111.894 2.69142 111.668 2.69142C111.318 2.69142 111.019 2.81572 110.77 3.06434C110.521 3.31295 110.397 3.61241 110.397 3.96273C110.397 4.18874 110.45 4.39404 110.555 4.57861L112.284 2.84963ZM113.296 2.83267L112.781 3.34685L111.052 5.07584C111.237 5.18131 111.442 5.23404 111.668 5.23404C112.056 5.23404 112.39 5.07207 112.668 4.74812L113.222 5.18319C112.808 5.68795 112.29 5.94033 111.668 5.94033C111.122 5.94033 110.655 5.74822 110.267 5.364C109.883 4.97601 109.691 4.50892 109.691 3.96273C109.691 3.41654 109.883 2.95133 110.267 2.56711C110.655 2.17913 111.122 1.98513 111.668 1.98513C112.215 1.98513 112.682 2.17724 113.07 2.56146C113.152 2.6481 113.228 2.7385 113.296 2.83267ZM114.917 3.26775V5.79907H114.211V2.12074H114.917V2.26765C115.207 2.0793 115.537 1.98513 115.906 1.98513V2.69142C115.593 2.69142 115.328 2.80066 115.109 3.01913C115.03 3.09824 114.966 3.18111 114.917 3.26775ZM116.826 5.03628C117.142 5.16812 117.434 5.23404 117.702 5.23404C117.965 5.23404 118.167 5.19638 118.306 5.12104C118.449 5.0457 118.521 4.94965 118.521 4.83287C118.521 4.73117 118.485 4.64453 118.414 4.57296C118.346 4.49762 118.254 4.44489 118.137 4.41475L117.374 4.21134C117.073 4.13224 116.839 3.99663 116.673 3.80452C116.508 3.61241 116.425 3.38075 116.425 3.10954C116.425 2.80066 116.547 2.53886 116.792 2.32415C117.037 2.10567 117.355 1.99267 117.747 1.98513C118.252 1.98513 118.715 2.13204 119.137 2.42585L118.668 2.96263C118.359 2.78182 118.056 2.69142 117.758 2.69142C117.57 2.69518 117.419 2.7385 117.306 2.82137C117.193 2.90048 117.137 2.99842 117.137 3.11519C117.137 3.21689 117.174 3.30165 117.25 3.36945C117.329 3.43349 117.438 3.48622 117.577 3.52766L118.368 3.74237C118.64 3.81394 118.854 3.94578 119.013 4.13789C119.175 4.32623 119.256 4.56166 119.256 4.84417C119.256 5.15682 119.127 5.41862 118.871 5.62956C118.619 5.83674 118.231 5.94033 117.707 5.94033C117.274 5.94033 116.835 5.82544 116.391 5.59566L116.826 5.03628Z" fill="white"/>
<path d="M26.8788 26.7016C26.8266 27.1102 26.6945 27.5045 26.4898 27.862C26.2852 28.2195 26.0121 28.5332 25.6863 28.7852C25.3604 29.0372 24.988 29.2224 24.5905 29.3304C24.193 29.4385 23.7781 29.4671 23.3695 29.4147L2.90418 26.7951C2.49545 26.7429 2.101 26.6108 1.74337 26.4062C1.38573 26.2015 1.07192 25.9284 0.819864 25.6025C0.567807 25.2765 0.382444 24.9041 0.274368 24.5065C0.166291 24.1089 0.137618 23.6939 0.189987 23.2852L2.80966 2.81989C2.86191 2.41133 2.99414 2.01705 3.19879 1.6596C3.40345 1.30214 3.67651 0.988505 4.0024 0.736602C4.32829 0.484698 4.70061 0.299462 5.09809 0.191476C5.49558 0.0834894 5.91045 0.0548673 6.319 0.107244L26.7843 2.72692C27.1929 2.77917 27.5872 2.9114 27.9447 3.11604C28.3022 3.32069 28.6158 3.59375 28.8678 3.91962C29.1197 4.2455 29.305 4.61782 29.413 5.01531C29.5211 5.4128 29.5498 5.82768 29.4975 6.23626L26.8788 26.7016Z" fill="#6BB64A" fill-opacity="0.38"/>
<path d="M23.8183 1.67853H5.87199C3.60249 1.67853 1.7627 3.51832 1.7627 5.78782V23.7336C1.7627 26.0031 3.60249 27.8429 5.87199 27.8429H23.8183C26.0878 27.8429 27.9276 26.0031 27.9276 23.7336V5.78782C27.9276 3.51832 26.0878 1.67853 23.8183 1.67853Z" fill="#6BB64A"/>
<path d="M13.2997 17.3313C12.5344 17.9675 11.5634 18.303 10.5686 18.2749H6.27077V9.67932H10.5691C11.5681 9.66287 12.5392 10.0097 13.3018 10.6553V15.9367V8.11573C12.4457 7.72005 11.5121 7.52018 10.5691 7.53067H4.12109V20.4261H10.5686C11.3737 20.4297 12.1724 20.2823 12.9232 19.9916C12.9998 19.9663 13.0745 19.9356 13.1466 19.8996L13.1569 19.895L13.2442 19.839L13.3023 19.8005L13.2997 17.3313Z" fill="white"/>
<path d="M13.2974 8.12604V10.6646L13.302 10.6676V15.9506L15.4511 14.7179V11.8588L17.5495 13.0813L19.75 11.8799L13.302 8.13015L13.2974 8.12604Z" fill="white"/>
<path d="M13.2998 17.3442C13.2998 17.3442 13.2998 17.3442 13.2998 17.3468V19.8155L24.0487 12.824V21.9918H26.1979V9.09534L13.2998 17.3442Z" fill="white"/>
<path d="M33.4462 4.73077H33.1807V25.2372H33.4462V4.73077Z" fill="#6BB64A" stroke="#6BB64A" stroke-width="0.513662" stroke-miterlimit="10"/>
</svg>
