<svg width="26" height="35" viewBox="0 0 26 35" fill="none" xmlns="http://www.w3.org/2000/svg">
<path d="M13.7498 30.3906V33.4259H18.2112C18.6499 33.4259 18.9793 33.8007 18.9793 34.2129C18.9793 34.6251 18.6135 35 18.2112 35L7.75256 34.9997C7.31381 34.9997 6.98448 34.6249 6.98448 34.2127C6.98448 33.8005 7.35028 33.4256 7.75256 33.4256H12.2139V30.3904L1.53588 30.3906C0.69487 30.3906 0 29.6786 0 28.8168V13.7152C0 12.8534 0.69487 12.1413 1.53588 12.1413H6.76533C7.20408 12.1413 7.53341 12.5161 7.53341 12.9284C7.53341 13.3406 7.16761 13.7154 6.76533 13.7154L1.53588 13.7152V28.8168H12.9453H12.9818H13.0183H24.4277V13.7152H19.2349C18.7962 13.7152 18.4669 13.3403 18.4669 12.9281C18.4669 12.5159 18.8327 12.141 19.2349 12.141H24.4641C25.3051 12.141 26 12.8531 26 13.7149V28.8165C26 29.6783 25.3051 30.3904 24.4641 30.3904L13.7498 30.3906ZM13.0549 6.02424e-05C14.335 0.0374388 15.3588 1.12432 15.3221 2.43567C15.2857 3.4475 14.664 4.30932 13.7863 4.6091V24.4323C13.7863 24.8819 13.4205 25.2194 13.0182 25.2194C12.5794 25.2194 12.2501 24.8445 12.2501 24.4323L12.2504 4.6091C11.9213 4.4967 11.5923 4.2719 11.3361 4.00947C10.8974 3.55988 10.678 2.96023 10.678 2.32326C10.7145 1.04924 11.7384 0 13.0184 0L13.0549 6.02424e-05ZM13.0182 1.57392C12.5795 1.57392 12.2501 1.91112 12.2137 2.36099C12.2137 2.58579 12.2869 2.77321 12.4331 2.92298C12.5792 3.07276 12.7621 3.14777 12.9815 3.18542H13.018C13.4202 3.18542 13.7861 2.84822 13.7861 2.39835C13.7498 1.94875 13.4205 1.61128 13.0182 1.57394L13.0182 1.57392ZM15.6147 20.7226V8.46895C15.6147 7.04491 16.7483 5.88325 18.138 5.88325H19.8933C20.2223 4.94642 21.0636 4.30938 22.0875 4.30938C23.3675 4.30938 24.4279 5.39596 24.4279 6.70765C24.4279 8.01934 23.3675 9.10592 22.0875 9.10592C21.0636 9.10592 20.2226 8.43154 19.8933 7.53206H18.138C17.5896 7.53206 17.1873 7.98165 17.1873 8.50629V20.7599C17.1873 21.2095 16.8215 21.547 16.4192 21.547C15.9805 21.547 15.6147 21.1722 15.6147 20.7226ZM21.3194 6.70772C21.3194 7.15731 21.6484 7.49478 22.0874 7.49478C22.5262 7.49478 22.8555 7.15759 22.8555 6.70772C22.8553 6.25812 22.5262 5.88331 22.0874 5.88331C21.6484 5.88331 21.3194 6.25815 21.3194 6.70772ZM8.77632 20.7226V8.46895C8.77632 7.90696 8.33757 7.49472 7.8256 7.49472H6.07037C5.74131 8.43154 4.90004 9.06858 3.87611 9.06858C2.59608 9.06858 1.53572 7.982 1.53572 6.67031C1.53572 5.35863 2.59608 4.27204 3.87611 4.27204C4.90004 4.27204 5.74105 4.94642 6.07037 5.84591H7.8256C9.21527 5.84591 10.3489 7.0075 10.3489 8.43161V20.6853C10.3489 21.1349 9.98311 21.4723 9.58083 21.4723C9.17856 21.4721 8.77632 21.1723 8.77632 20.7227V20.7226ZM4.64399 6.70772C4.64399 6.25812 4.31493 5.92065 3.87592 5.92065C3.43717 5.92091 3.10811 6.25811 3.10811 6.70772C3.10811 7.15733 3.43717 7.49478 3.87618 7.49478C4.31493 7.49478 4.64399 7.11995 4.64399 6.70772Z" fill="#1d4354"/>
</svg>
