<svg width="45" height="45" viewBox="0 0 45 45" fill="none" xmlns="http://www.w3.org/2000/svg">
<path d="M22.4376 0.121948C16.6105 0.128139 11.0239 2.44532 6.90297 6.56519C2.78208 10.6851 0.463677 16.2712 0.456055 22.0983C0.462723 27.9258 2.78064 33.5127 6.90121 37.6335C11.0218 41.7542 16.6084 44.0723 22.4359 44.0792C28.2635 44.0725 33.8506 41.7546 37.9714 37.6338C42.0922 33.513 44.4103 27.926 44.417 22.0983C44.4096 16.2716 42.0913 10.6857 37.9709 6.56588C33.8506 2.44603 28.2643 0.128616 22.4376 0.121948ZM22.348 9.43048C24.1891 9.43048 25.9547 10.1618 27.2565 11.4637C28.5584 12.7655 29.2897 14.5312 29.2897 16.3723C29.2894 18.2133 28.5579 19.9788 27.2561 21.2806C25.9543 22.5824 24.189 23.3139 22.348 23.3141C20.5069 23.3141 18.7412 22.5827 17.4394 21.2809C16.1376 19.979 15.4059 18.2134 15.4059 16.3723C15.4054 15.46 15.5851 14.5566 15.934 13.7136C16.2829 12.8707 16.7943 12.1048 17.4394 11.4598C18.0845 10.8147 18.8506 10.3032 19.6935 9.95435C20.5365 9.60553 21.4401 9.42629 22.3524 9.42688L22.348 9.43048ZM34.7277 37.5262C31.2405 40.3224 26.9031 41.8444 22.4332 41.8403C17.9689 41.8446 13.6365 40.327 10.1506 37.5379C10.4629 31.9747 14.1263 26.3557 18.6095 26.3557H26.2688C30.7593 26.3557 34.4316 31.7704 34.7277 37.3426V37.5226V37.5262Z" fill="#1D4354"/>
</svg>
