<svg width="38" height="38" viewBox="0 0 38 38" fill="none" xmlns="http://www.w3.org/2000/svg">
<rect width="38" height="38" rx="19" fill="#6BB64A"/>
<rect x="2.96436" y="2.96429" width="32.0714" height="32.0714" rx="16.0357" stroke="white" stroke-width="0.5"/>
<path d="M10.7059 12.2143H25.175C25.6058 12.2143 26.0038 12.4441 26.2194 12.8171C26.4347 13.1901 26.4347 13.6498 26.2194 14.0228C26.0039 14.3958 25.6058 14.6256 25.175 14.6256H10.7059C10.2751 14.6256 9.87708 14.3958 9.66156 14.0228C9.44624 13.6498 9.44624 13.1901 9.66156 12.8171C9.87708 12.4441 10.2751 12.2143 10.7059 12.2143Z" fill="white"/>
<path d="M15.529 18.2431H25.175C25.6058 18.2431 26.0038 18.4729 26.2194 18.8459C26.4347 19.2189 26.4347 19.6786 26.2194 20.0515C26.0039 20.4246 25.6058 20.6544 25.175 20.6544H15.529C15.0981 20.6544 14.7001 20.4245 14.4848 20.0515C14.2695 19.6785 14.2695 19.2189 14.4848 18.8459C14.7001 18.4729 15.0982 18.2431 15.529 18.2431Z" fill="white"/>
<path d="M20.3521 24.2719H25.175C25.6058 24.2719 26.0038 24.5017 26.2194 24.8747C26.4347 25.2477 26.4347 25.7073 26.2194 26.0803C26.0039 26.4533 25.6058 26.6831 25.175 26.6831H20.3521C19.9212 26.6831 19.5232 26.4533 19.3079 26.0803C19.0924 25.7073 19.0924 25.2477 19.3079 24.8747C19.5232 24.5017 19.9213 24.2719 20.3521 24.2719Z" fill="white"/>
</svg>
