<svg width="80" height="80" viewBox="0 0 80 80" fill="none" xmlns="http://www.w3.org/2000/svg">
<g clip-path="url(#clip0_5236_1977)">
<mask id="mask0_5236_1977" style="mask-type:luminance" maskUnits="userSpaceOnUse" x="0" y="0" width="80" height="80">
<path d="M80 0H0V80H80V0Z" fill="white"/>
</mask>
<g mask="url(#mask0_5236_1977)">
<path d="M73.26 80H6.74C3.22625 80 0.375 77.0556 0.375 73.4263V6.57375C0.375 2.94188 3.22625 0 6.7425 0H73.26C76.7788 0 79.6274 2.94188 79.6274 6.57375V73.4263C79.6274 77.0556 76.7762 80 73.26 80Z" fill="#3D4C73"/>
<path d="M33.4242 15.4894C33.3014 15.5006 33.1822 15.537 33.0742 15.5966C32.9662 15.6561 32.8718 15.7372 32.7966 15.835C32.6209 15.8185 32.4445 15.8096 32.2679 15.8081C32.1598 15.8081 32.0591 15.815 31.9666 15.83C31.4042 15.6094 30.8047 15.605 30.5466 16.3194C30.4517 16.6056 30.3966 16.9006 30.3866 17.2018C30.2795 17.281 30.1863 17.3776 30.111 17.4876C29.5691 18.2676 29.6447 19.6425 29.861 20.5125C30.2266 21.995 31.8066 23.1613 33.1735 22.7218C33.2861 22.7018 33.3961 22.6594 33.491 22.5913C34.221 22.7294 35.0173 22.4837 35.6542 21.7113C36.5998 20.5576 36.6966 18.9981 36.1447 17.7037C36.1422 17.5989 36.1161 17.4961 36.0683 17.4028C36.0206 17.3093 35.9526 17.228 35.8691 17.1644C35.5687 16.6662 35.1627 16.24 34.6798 15.9156C34.2661 15.6394 33.8179 15.4506 33.4242 15.4894ZM61.5223 15.4894C61.3993 15.5006 61.2801 15.5372 61.1718 15.5966C61.0637 15.6561 60.9689 15.7373 60.8935 15.835C60.7177 15.8185 60.5413 15.8096 60.3647 15.8081C60.2573 15.8081 60.1561 15.815 60.0635 15.83C59.5042 15.6094 58.9054 15.605 58.6473 16.3194C58.5498 16.6056 58.4935 16.9006 58.4835 17.2018C58.3785 17.2825 58.2854 17.3769 58.2103 17.4876C57.6661 18.2676 57.7442 19.6425 57.9603 20.5125C58.3261 21.995 59.9042 23.1613 61.2703 22.7218C61.3829 22.7018 61.4942 22.6594 61.5891 22.5913C62.3191 22.7294 63.1166 22.4837 63.7517 21.7113C64.6991 20.5576 64.7954 18.9981 64.2442 17.7037C64.2405 17.5989 64.2137 17.4961 64.1657 17.4029C64.1175 17.3096 64.0494 17.2281 63.9661 17.1644C63.6665 16.6664 63.2614 16.2401 62.7791 15.9156C62.3642 15.6394 61.9154 15.4506 61.5223 15.4894ZM18.1898 16.0281C17.341 15.9969 16.5142 16.32 16.0035 17.1218C15.9575 17.1925 15.9154 17.2656 15.8773 17.3406C15.2837 17.8589 14.8843 18.5638 14.7447 19.3394C14.6553 19.3674 14.5771 19.4236 14.5221 19.4994C14.4669 19.5753 14.4375 19.6669 14.4385 19.7606C14.4135 20.6637 14.8773 21.3732 15.5447 21.8469C16.2385 22.4718 17.2729 22.7225 18.281 22.7532C19.7735 22.7925 20.8003 21.9744 21.2647 20.8906L21.2829 20.8694C22.0754 19.8256 22.1673 18.3756 21.0291 17.5613C20.9653 17.5154 20.9001 17.4717 20.8335 17.43C20.6169 17.1444 20.3589 16.8926 20.0679 16.6832C19.5189 16.2869 18.8662 16.0593 18.1898 16.0281ZM47.1247 16.03C46.2766 16 45.4485 16.3225 44.9373 17.1237C44.8914 17.1932 44.8498 17.2654 44.8129 17.34C44.2178 17.8586 43.8178 18.5649 43.6791 19.3418C43.5894 19.3694 43.511 19.4254 43.4558 19.5014C43.4005 19.5774 43.3714 19.6692 43.3729 19.7632C43.3447 20.6662 43.8091 21.3732 44.4791 21.8494C45.1729 22.4744 46.2073 22.725 47.2129 22.7525C48.7054 22.7925 49.7361 21.9744 50.1973 20.8913L50.2147 20.8694C51.0098 19.8256 51.1029 18.3788 49.9647 17.5632C49.8991 17.5181 49.8354 17.4756 49.7703 17.4332C49.5534 17.1472 49.2949 16.8953 49.0035 16.6856C48.4545 16.2889 47.8015 16.061 47.1247 16.03ZM19.2379 17.6894C19.5643 17.772 19.8782 17.8974 20.1717 18.0625C20.2798 18.2032 20.3666 18.3537 20.4366 18.5144C20.2201 18.3204 19.9634 18.1765 19.6847 18.0932C19.6273 17.9656 19.5198 17.8618 19.3917 17.8369L19.3542 17.8269C19.3167 17.78 19.2779 17.7341 19.2379 17.6894ZM48.1735 17.6894C48.4994 17.7724 48.8129 17.8978 49.1061 18.0625C49.2117 18.2032 49.3022 18.3537 49.3722 18.5144C49.1549 18.3208 48.8979 18.177 48.6191 18.0932C48.5617 17.9656 48.4542 17.8618 48.3235 17.8369L48.2861 17.8269C48.2506 17.7793 48.2131 17.7334 48.1735 17.6894ZM32.9954 18.0869C33.0354 18.105 33.0747 18.1256 33.1203 18.1506C33.1423 18.1656 33.1661 18.1806 33.1885 18.1981C33.2461 18.5094 33.2279 18.9306 32.9773 19.0688C32.9573 18.7417 32.9629 18.4129 32.9954 18.0869ZM61.0923 18.0869C61.1347 18.105 61.1742 18.1256 61.2173 18.1506L61.2879 18.1981C61.3454 18.5094 61.3254 18.9306 61.0742 19.0688C61.0542 18.7406 61.0618 18.4118 61.0923 18.0869ZM18.4961 18.8381C18.5191 18.8568 18.5443 18.8728 18.571 18.8856C18.6523 18.9232 18.7342 18.9476 18.8191 18.965C18.8291 19.0276 18.8329 19.0913 18.8329 19.1537C18.6923 18.9688 18.4361 18.9537 18.2479 19.0637L18.2129 18.9232L18.4961 18.8381ZM47.4317 18.8381C47.4545 18.8568 47.4794 18.8728 47.5061 18.8856C47.5861 18.9232 47.6698 18.9476 47.7573 18.965C47.7647 19.0276 47.7673 19.0913 47.7673 19.1537C47.6266 18.9688 47.3703 18.9537 47.1798 19.0637L47.1447 18.9232L47.4317 18.8381ZM17.3254 19.1306C17.3329 19.1888 17.3423 19.2462 17.3566 19.3044C17.3798 19.3894 17.4047 19.4737 17.4354 19.5618C17.3479 19.4662 17.3079 19.3244 17.3254 19.1306ZM46.2598 19.1332C46.2847 19.2788 46.3191 19.4213 46.3673 19.5618C46.2817 19.4662 46.2423 19.3262 46.2598 19.1332ZM35.6554 19.2018C35.6729 19.8113 35.5229 20.4232 35.1866 20.945H35.1891C34.981 21.2706 34.731 21.4932 34.4654 21.6281C34.6403 21.3576 34.8079 21.0344 34.9585 20.6813C34.9935 20.6081 35.0235 20.5356 35.0535 20.46C35.1642 20.36 35.2266 20.2088 35.1866 20.0662C35.187 20.0601 35.1887 20.0542 35.1917 20.0488C35.4098 19.8862 35.5635 19.5825 35.6235 19.2569L35.6554 19.2018ZM63.7554 19.2018C63.7771 19.8168 63.6135 20.4241 63.2861 20.945C63.0779 21.2706 62.8303 21.4932 62.5647 21.6281C62.7373 21.3576 62.9073 21.0344 63.0554 20.6813C63.0903 20.6081 63.1242 20.5356 63.1542 20.46C63.2647 20.36 63.3261 20.2088 63.2835 20.0662C63.2861 20.0606 63.2861 20.0537 63.2885 20.0488C63.5066 19.8862 63.6629 19.5825 63.7203 19.2569L63.7554 19.2018ZM30.5529 19.3262C30.6935 19.84 30.8985 20.3425 31.1091 20.7837C31.2323 21.11 31.3873 21.4532 31.5879 21.7044C31.4857 21.6393 31.3895 21.5653 31.3003 21.4832C30.8335 21.0494 30.6273 20.3925 30.5698 19.7732C30.5578 19.6245 30.5522 19.4754 30.5529 19.3262ZM58.6522 19.3262C58.7898 19.84 58.9961 20.3425 59.2085 20.7837C59.3291 21.11 59.4866 21.4532 59.6847 21.7044C59.5826 21.6393 59.4863 21.5653 59.3973 21.4832C58.9303 21.0494 58.7273 20.3925 58.6666 19.7732C58.6543 19.6245 58.6495 19.4753 58.6522 19.3262ZM19.7585 19.8181C19.811 19.9713 19.8129 20.1194 19.7803 20.2618L19.6629 20.0318C19.7003 19.9613 19.7334 19.8932 19.7585 19.8181ZM48.6923 19.8206C48.7454 19.9737 48.7485 20.1218 48.7154 20.2625L48.5973 20.0344C48.6334 19.9652 48.6651 19.8938 48.6923 19.8206ZM18.391 21.185C18.4285 21.2306 18.4691 21.2732 18.5098 21.3162C18.2635 21.3862 18.0047 21.4037 17.751 21.3637L17.7942 21.3113C17.9973 21.2988 18.1979 21.2581 18.391 21.185ZM47.3254 21.185C47.3629 21.2306 47.401 21.2732 47.4442 21.3162C47.1979 21.3862 46.9366 21.4037 46.6854 21.3637L46.7261 21.31C46.9291 21.2976 47.1323 21.2581 47.3254 21.185ZM18.1898 29.1956C17.341 29.1644 16.5142 29.4881 16.0035 30.2894C15.9575 30.36 15.9154 30.433 15.8773 30.5081C15.2837 31.0269 14.8842 31.7322 14.7447 32.5081C14.6551 32.5362 14.577 32.5924 14.5218 32.6684C14.4666 32.7444 14.4374 32.8361 14.4385 32.93C14.4135 33.8325 14.8773 34.5406 15.5447 35.0144C16.2385 35.6418 17.2729 35.8918 18.281 35.9194C19.7735 35.9569 20.8003 35.1425 21.2647 34.0588L21.2829 34.0356C22.0754 32.99 22.1673 31.5425 21.0291 30.7276C20.9635 30.685 20.901 30.6432 20.8335 30.6006C20.617 30.3138 20.359 30.0608 20.0679 29.85C19.5185 29.4545 18.8659 29.2272 18.1898 29.1956ZM47.1247 29.1956C46.2766 29.1644 45.4485 29.4881 44.9373 30.2894C44.8923 30.3594 44.8503 30.4332 44.8129 30.5081C44.2181 31.0261 43.8181 31.7317 43.6791 32.5081C43.5893 32.5357 43.5109 32.5918 43.4555 32.668C43.4003 32.744 43.3713 32.836 43.3729 32.93C43.3447 33.8325 43.8091 34.5406 44.4791 35.0144C45.1729 35.6418 46.2073 35.8918 47.2129 35.9194C48.7054 35.9569 49.7361 35.1425 50.1973 34.0588L50.2147 34.0356C51.0098 32.99 51.1029 31.5425 49.9647 30.7276L49.7703 30.6006C49.5527 30.3144 49.2943 30.0614 49.0035 29.85C48.4541 29.4541 47.8013 29.2268 47.1247 29.1956ZM19.2379 30.8532C19.5635 30.9381 19.8773 31.0637 20.1717 31.2269C20.2798 31.3676 20.3666 31.5206 20.4366 31.6806C20.2202 31.4861 19.9634 31.3416 19.6847 31.2576C19.6273 31.1325 19.5198 31.0262 19.3917 31.0013L19.3542 30.9937C19.3167 30.9457 19.2781 30.8989 19.2379 30.8532ZM48.1735 30.8532C48.4986 30.9385 48.8119 31.0641 49.1061 31.2269C49.2117 31.3676 49.3022 31.5206 49.3722 31.6806C49.155 31.4865 48.8979 31.3421 48.6191 31.2576C48.5617 31.1325 48.4542 31.0262 48.3235 31.0013L48.2861 30.9937C48.2507 30.9452 48.2131 30.8982 48.1735 30.8532ZM18.4961 32.0018C18.5191 32.0205 18.5443 32.0365 18.571 32.0494C18.6523 32.0869 18.7342 32.115 18.8191 32.1325C18.8291 32.195 18.8329 32.2556 18.8329 32.3181C18.6923 32.1325 18.4361 32.12 18.2479 32.2276L18.2129 32.09L18.4961 32.0018ZM47.4317 32.0018C47.4545 32.0206 47.4794 32.0365 47.5061 32.0494C47.5861 32.0869 47.6698 32.115 47.7573 32.1325C47.7647 32.195 47.7673 32.2556 47.7673 32.3181C47.6266 32.1325 47.3703 32.12 47.1798 32.2276L47.1447 32.09L47.4317 32.0018ZM17.3254 32.2976C17.3454 32.4456 17.3823 32.5913 17.4354 32.7294C17.3479 32.6344 17.3079 32.4906 17.3254 32.2976ZM46.2598 32.2976C46.2773 32.4456 46.3142 32.5913 46.3673 32.7294C46.2817 32.6344 46.2423 32.4906 46.2598 32.2976ZM19.7579 32.985C19.811 33.1376 19.8129 33.2862 19.7803 33.4288C19.7429 33.3513 19.7029 33.2762 19.6629 33.1981C19.7003 33.1306 19.7329 33.0606 19.7579 32.985ZM48.6923 32.985C48.7454 33.1376 48.7473 33.2862 48.7142 33.4288C48.6742 33.3513 48.6347 33.2762 48.5973 33.1981C48.6347 33.1306 48.6673 33.0606 48.6923 32.985ZM18.391 34.3518C18.4285 34.3944 18.4691 34.4394 18.5098 34.4825C18.2627 34.5501 18.0043 34.5654 17.751 34.5276L17.7942 34.4776V34.475C17.9973 34.4625 18.1979 34.4218 18.391 34.3518ZM47.3254 34.3518C47.3629 34.3944 47.401 34.4394 47.4442 34.4825C47.1971 34.55 46.9387 34.5653 46.6854 34.5276L46.7261 34.4776V34.475C46.9291 34.4625 47.1323 34.4218 47.3254 34.3518Z" fill="#7FCFBD"/>
<path d="M18.9044 43.1477C16.9637 43.1477 15.3906 44.7477 15.3906 46.724V61.0196C15.3906 62.9959 16.9637 64.5933 18.9044 64.5933C20.8456 64.5933 22.4181 62.9959 22.4181 61.0196V46.724C22.4181 44.7503 20.8456 43.1503 18.9044 43.1503M47.0118 43.1477C45.0706 43.1477 43.5006 44.7477 43.5006 46.724V61.0196C43.5006 62.9959 45.0706 64.5933 47.0118 64.5933C48.9506 64.5933 50.5256 62.9959 50.5256 61.0196V46.724C50.5256 44.7503 48.9506 43.1503 47.0118 43.1503M32.9593 28.8521C31.0181 28.8521 29.4456 30.4521 29.4456 32.4233V61.0196C29.4456 62.9959 31.0181 64.5933 32.9593 64.5933C34.9006 64.5933 36.4706 62.9959 36.4706 61.0196V32.4233C36.4706 30.4496 34.9006 28.8496 32.9593 28.8496M61.0662 28.8521C59.1256 28.8521 57.553 30.4521 57.553 32.4233V61.0196C57.553 62.9959 59.1256 64.5933 61.0662 64.5933C63.0049 64.5933 64.58 62.9959 64.58 61.0196V32.4233C64.58 30.4496 63.0049 28.8496 61.0662 28.8496" fill="white"/>
</g>
</g>
<defs>
<clipPath id="clip0_5236_1977">
<rect width="80" height="80" fill="white"/>
</clipPath>
</defs>
</svg>
