<svg width="167" height="60" viewBox="0 0 167 60" fill="none" xmlns="http://www.w3.org/2000/svg">
<path d="M20.5737 24.4227C16.8057 23.9721 16.5267 18.8734 11.698 19.3242C9.3535 19.3242 7.17645 20.3101 7.17645 22.4791C7.17645 25.7467 12.1725 26.0565 15.1869 26.8734C20.3225 28.4508 25.2907 29.5213 25.2907 35.1551C25.2907 42.3101 19.7363 44.789 12.3958 44.789C6.25539 44.789 0.03125 42.5918 0.03125 36.9016C0.03125 35.3242 1.53844 34.0847 2.98981 34.0847C4.83193 34.0847 5.47388 34.8734 6.11584 36.1691C7.5393 38.7044 9.13022 40.0565 13.0936 40.0565C15.6056 40.0565 18.1734 39.0988 18.1734 36.9016C18.1734 33.7748 15.0194 33.0988 11.7539 32.3382C5.97628 30.7044 1.00813 29.8593 0.422003 23.3805C-0.192037 12.3382 22.6113 11.9157 23.923 21.6059C23.8951 23.3524 22.2763 24.4227 20.5737 24.4227ZM47.7031 14.7326C55.7136 14.7326 60.2631 21.4931 60.2631 29.8311C60.2631 38.1974 55.8531 44.9297 47.7031 44.9297C43.1816 44.9297 40.3625 42.9861 38.3251 40.0002V51.0425C38.3251 54.3664 37.2645 55.9721 34.864 55.9721C31.9334 55.9721 31.4031 54.0847 31.4031 51.0425V18.9298C31.4031 16.3101 32.4917 14.7044 34.864 14.7044C37.097 14.7044 38.3251 16.4791 38.3251 18.9298V19.8311C40.5859 16.9579 43.1816 14.7326 47.7031 14.7326ZM45.8053 39.1833C50.4942 39.1833 52.5876 34.8171 52.5876 29.7185C52.5876 24.7325 50.4663 20.2537 45.8053 20.2537C40.9208 20.2537 38.66 24.3101 38.66 29.7185C38.66 34.9861 40.9487 39.1833 45.8053 39.1833ZM65.7057 22.6199C65.7057 16.8171 72.3207 14.7326 78.74 14.7326C87.7553 14.7326 91.4676 17.3805 91.4676 26.1691V34.6199C91.4676 36.6199 92.6956 40.6199 92.6956 41.8311C92.6956 43.6622 91.021 44.8171 89.2347 44.8171C87.253 44.8171 85.7737 42.4508 84.7131 40.7608C81.7823 43.127 78.6843 44.8171 73.9394 44.8171C68.6922 44.8171 64.5614 41.6904 64.5614 36.5354C64.5614 31.9721 67.799 29.3524 71.7065 28.4508C71.7065 28.4791 84.2665 25.465 84.2665 25.4368C84.2665 21.5494 82.8988 19.8311 78.8517 19.8311C75.2791 19.8311 73.465 20.8171 72.0694 22.9861C70.953 24.6199 71.0925 25.6057 68.9434 25.6057C67.213 25.5776 65.7057 24.3945 65.7057 22.6199ZM76.4234 40.0565C81.9219 40.0565 84.2385 37.127 84.2385 31.2959V30.0565C82.7593 30.5636 76.7863 32.0565 75.1676 32.3101C73.437 32.6481 71.7065 33.9439 71.7065 36.0002C71.7623 38.2537 74.0511 40.0565 76.4234 40.0565ZM116.811 3.71851C124.57 3.71851 132.971 8.39457 132.971 15.8311C132.971 17.7467 131.548 19.3242 129.678 19.3242C127.138 19.3242 126.775 17.9439 125.658 16.0002C123.788 12.5354 121.583 10.2256 116.783 10.2256C109.358 10.1692 106.037 16.5918 106.037 24.5918C106.037 32.6481 108.8 38.4508 116.476 38.4508C121.583 38.4508 124.402 35.465 125.854 31.6059C126.44 29.8311 127.5 28.1128 129.705 28.1128C131.436 28.1128 133.167 29.8874 133.167 31.803C133.167 39.6904 125.184 45.1551 116.978 45.1551C107.991 45.1551 102.911 41.3242 100.12 34.9579C98.7522 31.9158 97.887 28.7608 97.887 24.4227C97.8313 12.1974 104.893 3.71851 116.811 3.71851ZM161.189 14.7326C163.171 14.7326 164.316 16.0284 164.316 18.0565C164.316 18.8734 163.673 20.5073 163.422 21.3805L153.877 46.7044C151.755 52.1974 150.164 56.0002 142.935 56.0002C139.502 56.0002 136.516 55.6904 136.516 52.6762C136.516 50.9297 137.828 50.0565 139.642 50.0565C139.977 50.0565 140.535 50.2256 140.87 50.2256C141.4 50.2256 141.763 50.3945 142.098 50.3945C145.726 50.3945 146.229 46.6481 147.513 44.0565L138.302 21.0425C137.772 19.803 137.409 18.9579 137.409 18.2256C137.409 16.1974 138.972 14.7326 141.065 14.7326C143.41 14.7326 144.331 16.5918 144.917 18.6199L151.002 36.8734L157.086 20.0002C158.008 17.3805 158.091 14.7326 161.189 14.7326Z" fill="#09A3D5"/>
</svg>
