<svg width="80" height="80" viewBox="0 0 80 80" fill="none" xmlns="http://www.w3.org/2000/svg">
<g clip-path="url(#clip0_5236_1987)">
<mask id="mask0_5236_1987" style="mask-type:luminance" maskUnits="userSpaceOnUse" x="0" y="0" width="80" height="80">
<path d="M80 0H0V80H80V0Z" fill="white"/>
</mask>
<g mask="url(#mask0_5236_1987)">
<path d="M74.2764 32.7369C75.1709 30.0432 75.4802 27.1896 75.1838 24.3667C74.8874 21.5439 73.992 18.8168 72.5574 16.3676C70.4306 12.6657 67.1832 9.73477 63.2833 7.99744C59.3834 6.26012 55.0326 5.80612 50.8581 6.70092C48.4864 4.06279 45.4624 2.09516 42.0896 0.995625C38.7169 -0.103906 35.1141 -0.296616 31.6433 0.436846C28.1725 1.17031 24.9558 2.80412 22.3162 5.1742C19.6768 7.54427 17.7073 10.5672 16.6057 13.9392C13.8246 14.5096 11.1973 15.6669 8.89924 17.3339C6.60123 19.0009 4.6855 21.1392 3.28007 23.6059C1.13018 27.3016 0.211336 31.5853 0.656369 35.8377C1.1014 40.09 2.88726 44.0907 5.75574 47.2612C4.85795 49.9537 4.54548 52.8068 4.83923 55.6297C5.13298 58.4527 6.02618 61.1804 7.45907 63.6303C9.58854 67.3335 12.8388 70.2651 16.7414 72.0024C20.6441 73.7397 24.9976 74.1932 29.1744 73.2972C31.0586 75.4191 33.3738 77.1145 35.9654 78.2704C38.557 79.4263 41.3654 80.0159 44.203 79.9999C48.4818 80.0039 52.6511 78.648 56.1093 76.1283C59.5674 73.6084 62.1353 70.0548 63.4424 65.9805C66.2232 65.4093 68.8502 64.2516 71.1481 62.5845C73.446 60.9176 75.3618 58.7797 76.7681 56.3136C78.8925 52.6233 79.7956 48.3556 79.3481 44.1211C78.9005 39.8865 77.1253 35.9016 74.2764 32.7369ZM44.203 74.7639C40.6988 74.7695 37.3044 73.5412 34.615 71.2945L35.0881 71.0265L51.0157 61.8325C51.4122 61.6001 51.7413 61.2685 51.9707 60.8703C52.2002 60.4721 52.3222 60.0212 52.3248 59.5616V37.1052L59.0581 41.0005C59.0913 41.0175 59.1202 41.042 59.1422 41.072C59.1642 41.1021 59.1788 41.1371 59.1848 41.1739V59.7825C59.1762 63.7533 57.5951 67.5591 54.7873 70.3668C51.9795 73.1745 48.1738 74.7556 44.203 74.7639ZM12.0007 61.0125C10.2433 57.978 9.61231 54.4208 10.2187 50.9669L10.6921 51.2509L26.6354 60.4449C27.03 60.6764 27.479 60.7984 27.9364 60.7984C28.3938 60.7984 28.8429 60.6764 29.2374 60.4449L48.7134 49.2165V56.9912C48.7116 57.0316 48.7006 57.0709 48.6815 57.1064C48.6623 57.1419 48.6354 57.1727 48.6028 57.1963L32.4701 66.5005C29.0272 68.484 24.938 69.02 21.1001 67.9911C17.2624 66.9621 13.9897 64.4523 12.0007 61.0125ZM7.80607 26.3185C9.57568 23.2645 12.3688 20.9351 15.691 19.7425V38.6665C15.685 39.1237 15.802 39.5741 16.0293 39.9708C16.2568 40.3675 16.5865 40.6959 16.9841 40.9216L36.3654 52.1025L29.6317 55.9976C29.5953 56.0169 29.5546 56.0271 29.5134 56.0271C29.4721 56.0271 29.4316 56.0169 29.395 55.9976L13.2941 46.7092C9.8576 44.7173 7.35056 41.4447 6.32195 37.6081C5.29334 33.7716 5.827 29.6839 7.80607 26.2399V26.3185ZM63.127 39.1712L43.6828 27.8799L50.4008 23.9999C50.4372 23.9805 50.4778 23.9704 50.519 23.9704C50.5604 23.9704 50.601 23.9805 50.6374 23.9999L66.7384 33.3043C69.2002 34.7248 71.2072 36.8163 72.5249 39.3347C73.8428 41.8529 74.4169 44.6941 74.1805 47.5265C73.944 50.3591 72.9068 53.0657 71.1897 55.3307C69.4726 57.5957 67.1466 59.3256 64.4834 60.3183V41.3943C64.4694 40.9379 64.337 40.4929 64.0992 40.1031C63.8613 39.7133 63.5266 39.3924 63.127 39.1712ZM69.8294 29.0943L69.3561 28.8103L53.4444 19.5376C53.0476 19.3047 52.5956 19.1819 52.1354 19.1819C51.6752 19.1819 51.2233 19.3047 50.8264 19.5376L31.3668 30.7656V22.9912C31.3626 22.9517 31.3692 22.9119 31.3858 22.8757C31.4025 22.8396 31.4286 22.8087 31.4614 22.7863L47.5624 13.4976C50.0301 12.076 52.8516 11.3864 55.6969 11.5094C58.5421 11.6325 61.2934 12.5631 63.6292 14.1925C65.9649 15.8219 67.7885 18.0827 68.8865 20.7104C69.9845 23.338 70.3117 26.2241 69.8297 29.0309L69.8294 29.0943ZM27.6917 42.8765L20.9584 38.9972C20.9248 38.9769 20.896 38.9495 20.874 38.9168C20.8521 38.8841 20.8377 38.8471 20.8317 38.8083V20.2472C20.8354 17.3999 21.6497 14.6123 23.1793 12.2106C24.7088 9.80887 26.8905 7.89221 29.4692 6.68472C32.048 5.47721 34.9172 5.02879 37.7413 5.39185C40.5654 5.75491 43.228 6.91445 45.4174 8.73492L44.9441 9.00325L29.0168 18.1965C28.6204 18.4291 28.2912 18.7607 28.0617 19.1588C27.8322 19.5571 27.7102 20.008 27.7077 20.4676L27.6917 42.8765ZM31.3504 34.9919L40.0237 29.9925L48.7134 34.9919V44.9899L40.0554 49.9889L31.3664 44.9899L31.3504 34.9919Z" fill="black"/>
</g>
</g>
<defs>
<clipPath id="clip0_5236_1987">
<rect width="80" height="80" fill="white"/>
</clipPath>
</defs>
</svg>
