<svg width="80" height="80" viewBox="0 0 80 80" fill="none" xmlns="http://www.w3.org/2000/svg">
<path d="M60.6025 52.8799C60.6429 53.3652 60.5845 53.8538 60.4309 54.3159C60.2773 54.778 60.0316 55.2043 59.7088 55.5688C59.3859 55.9335 58.9925 56.2288 58.5523 56.4372C58.1121 56.6456 57.6343 56.7627 57.1476 56.7812C56.6609 56.7998 56.1755 56.7196 55.7207 56.5455C55.2659 56.3712 54.8511 56.1067 54.5013 55.7679C54.1516 55.429 53.8741 55.0227 53.6856 54.5736C53.4972 54.1244 53.4017 53.6419 53.4049 53.1548L53.5425 40.3224C53.5425 35.8648 58.2349 31.0048 64.61 30.9348C65.584 30.9348 66.5181 30.5479 67.2068 29.8592C67.8956 29.1704 68.2825 28.2364 68.2825 27.2624C68.2825 26.2883 67.8956 25.3543 67.2068 24.6655C66.5181 23.9768 65.584 23.5899 64.61 23.5899H28.6425C27.9876 23.4954 27.3199 23.5487 26.6883 23.7459C26.0565 23.943 25.4771 24.279 24.9921 24.7291C24.5072 25.1792 24.1291 25.7323 23.8856 26.3475C23.6421 26.9628 23.5395 27.6247 23.5849 28.2848V49.5724C23.6072 50.0588 23.5305 50.5447 23.3597 51.0006C23.1889 51.4566 22.9275 51.8732 22.5911 52.2252C22.2547 52.5774 21.8504 52.8576 21.4028 53.049C20.9551 53.2404 20.4732 53.3392 19.9863 53.3392C19.4993 53.3392 19.0175 53.2404 18.5697 53.049C18.122 52.8576 17.7179 52.5774 17.3815 52.2252C17.0451 51.8732 16.7836 51.4566 16.6128 51.0006C16.4419 50.5447 16.3653 50.0588 16.3875 49.5724C16.3875 49.5724 16.25 33.3499 16.25 27.8724C16.2655 26.2962 16.5937 24.7388 17.2157 23.2906C17.8377 21.8423 18.7411 20.5319 19.8735 19.4354C21.0057 18.3388 22.3445 17.478 23.812 16.903C25.2796 16.3278 26.8467 16.0498 28.4225 16.0848H64.4449C65.8491 16.042 67.2469 16.2883 68.5519 16.8084C69.8568 17.3284 71.0409 18.1112 72.0307 19.108C73.0204 20.1048 73.7948 21.2944 74.3056 22.603C74.8164 23.9115 75.0527 25.3111 75 26.7148C75.1451 29.5232 74.2111 32.281 72.3892 34.4231C70.5672 36.5652 67.9953 37.9298 65.2 38.2374C62.04 38.2374 60.7 40.0124 60.7 42.9648L60.6025 52.8799Z" fill="#C40804"/>
<path d="M5.06269 27.4724L5.00018 52.6549C4.98351 55.584 6.11594 58.4026 8.15434 60.5061C10.1928 62.6094 12.9746 63.8297 15.9027 63.9049L39.2951 63.68C40.6646 63.6505 42.0145 63.3482 43.2657 62.7908C44.5169 62.2333 45.6443 61.432 46.5821 60.4334C47.5197 59.435 48.2489 58.2596 48.7267 56.9758C49.2046 55.6921 49.4217 54.326 49.3651 52.9574C49.417 51.5297 49.1725 50.1066 48.647 48.7781C48.1215 47.4496 47.3266 46.2444 46.3121 45.2384C45.2977 44.2324 44.0858 43.4474 42.7529 42.933C41.4199 42.4188 39.995 42.1861 38.5677 42.25C38.0741 42.2681 37.5817 42.1866 37.1202 42.0102C36.6587 41.834 36.2377 41.5664 35.8819 41.2236C35.5262 40.8808 35.2433 40.4697 35.0501 40.015C34.8567 39.5604 34.7571 39.0714 34.7571 38.5774C34.7571 38.0834 34.8567 37.5945 35.0501 37.1398C35.2433 36.6852 35.5262 36.2741 35.8819 35.9313C36.2377 35.5885 36.6587 35.3209 37.1202 35.1445C37.5817 34.9682 38.0741 34.8868 38.5677 34.9049H49.1651C53.9851 34.9049 53.8627 27.2674 49.1651 27.2674L37.8602 27.4049C35.0403 27.447 32.3509 28.5993 30.3754 30.6118C28.3998 32.6244 27.2975 35.3348 27.3077 38.1549C27.2413 39.6134 27.4703 41.0704 27.9811 42.4381C28.4919 43.8058 29.2739 45.0562 30.2801 46.1142C31.2862 47.1722 32.4958 48.016 33.8362 48.5948C35.1766 49.1736 36.6202 49.4756 38.0802 49.4824C38.5709 49.4613 39.0609 49.5394 39.5207 49.712C39.9806 49.8845 40.401 50.1478 40.7569 50.4865C41.1126 50.8252 41.3965 51.232 41.5915 51.6828C41.7866 52.1336 41.8887 52.6192 41.8919 53.1102C41.8951 53.6014 41.7993 54.0882 41.6101 54.5416C41.421 54.9949 41.1425 55.4054 40.791 55.7486C40.4397 56.0918 40.0227 56.3608 39.5651 56.5392C39.1075 56.7177 38.6186 56.8021 38.1277 56.7874H17.3502C16.6834 56.8522 16.0106 56.768 15.3805 56.5406C14.7502 56.3134 14.1785 55.9488 13.7066 55.4733C13.2347 54.9978 12.8745 54.4234 12.652 53.7914C12.4295 53.1596 12.3503 52.4862 12.4202 51.82L12.2827 27.5349C12.3437 27.0276 12.297 26.513 12.1456 26.025C11.9942 25.537 11.7416 25.0864 11.4042 24.7026C11.0667 24.3189 10.6522 24.0106 10.1875 23.7981C9.72286 23.5854 9.21858 23.4733 8.70761 23.4689C8.19665 23.4644 7.6905 23.5678 7.22223 23.7724C6.75397 23.9769 6.33411 24.278 5.99011 24.6558C5.64611 25.0336 5.3857 25.4798 5.22589 25.9652C5.06607 26.4505 5.01046 26.9641 5.06269 27.4724Z" fill="#C40804"/>
</svg>
