<svg width="80" height="80" viewBox="0 0 80 80" fill="none" xmlns="http://www.w3.org/2000/svg">
<path d="M63.2994 23.2533C76.2779 36.2319 76.2779 57.0516 63.2994 70.1203C50.5911 83.0989 29.6812 83.0989 16.7027 70.1203C3.7241 57.1417 3.7241 36.2319 16.7027 23.2533L39.9559 0V11.6266L37.7928 13.7897L22.3808 29.2017C12.6469 38.7555 12.6469 54.4379 22.3808 64.1719C31.9344 73.9057 47.6168 73.9057 57.3508 64.1719C67.0847 54.6181 67.0847 38.9357 57.3508 29.2017L63.2994 23.2533ZM51.6727 21.8112C49.2834 21.8112 47.3466 19.8743 47.3466 17.4851C47.3466 15.0957 49.2834 13.1588 51.6727 13.1588C54.062 13.1588 55.9988 15.0957 55.9988 17.4851C55.9988 19.8743 54.062 21.8112 51.6727 21.8112Z" fill="#EE4C2C"/>
</svg>
