<svg width="148" height="80" viewBox="0 0 148 80" fill="none" xmlns="http://www.w3.org/2000/svg">
<g clip-path="url(#clip0_5236_1930)">
<mask id="mask0_5236_1930" style="mask-type:luminance" maskUnits="userSpaceOnUse" x="0" y="0" width="148" height="80">
<path d="M147.273 0H0V80H147.273V0Z" fill="white"/>
</mask>
<g mask="url(#mask0_5236_1930)">
<path d="M112.961 67.9802C130.947 49.8644 133.936 23.5047 119.637 9.10295C105.34 -5.29727 79.171 -2.28682 61.1856 15.8278C43.2003 33.9429 48.403 68.5525 54.5101 74.7049C59.4454 79.6758 94.9763 86.0947 112.961 67.9802Z" fill="#F89939"/>
<path d="M39.1609 41.8034C28.7267 31.2936 13.5417 29.5437 5.24387 37.9012C-3.05178 46.2576 -1.31735 61.5548 9.119 72.063C19.5553 82.5761 39.4929 79.5352 43.034 75.9652C45.8996 73.0836 49.5984 52.3143 39.1609 41.8034Z" fill="#3499CD"/>
<path d="M75.1595 63.5399C73.3162 65.249 71.6991 66.5103 70.3093 67.3206C68.9196 68.1337 67.594 68.5397 66.3327 68.5397C64.882 68.5397 63.7115 67.9734 62.8242 66.8399C61.9351 65.7054 61.4922 64.1841 61.4922 62.2701C61.4922 59.4025 62.1093 55.9599 63.3435 51.9459C64.5755 47.9288 66.0758 44.2272 67.8378 40.8406L73.0046 38.9139C73.1664 38.8594 73.2896 38.8315 73.3715 38.8315C73.7633 38.8315 74.0873 39.1226 74.3358 39.7019C74.5871 40.2839 74.7135 41.0659 74.7135 42.049C74.7135 44.8354 74.0767 47.5328 72.8006 50.1417C71.5249 52.7514 69.5324 55.5366 66.8209 58.5006C66.712 59.9214 66.6578 60.897 66.6578 61.4303C66.6578 62.6194 66.8746 63.5603 67.3084 64.2574C67.7427 64.9554 68.3184 65.3019 69.0375 65.3019C69.7709 65.3019 70.55 65.0377 71.3773 64.505C72.2031 63.9712 73.4644 62.8661 75.1589 61.1848L75.1595 63.5399ZM67.37 55.5308C69.0916 53.6025 70.49 51.4399 71.5606 49.0472C72.6311 46.6535 73.166 44.5946 73.166 42.8695C73.166 42.3668 73.0922 41.9581 72.944 41.651C72.7947 41.3435 72.6035 41.189 72.3736 41.189C71.8738 41.189 71.1436 42.447 70.1873 44.9637C69.2307 47.4799 68.2918 51.0028 67.37 55.5308Z" fill="#010101"/>
<path d="M90.3751 63.5403C88.6534 65.2494 87.108 66.5107 85.7378 67.3211C84.3676 68.1342 82.8574 68.5402 81.2022 68.5402C79.3578 68.5402 77.8696 67.9458 76.7358 66.7589C75.6042 65.5687 75.0391 64.0063 75.0391 62.0662C75.0391 59.1712 76.0349 56.5518 78.0305 54.2094C80.022 51.866 82.2334 50.6951 84.6603 50.6951C85.9216 50.6951 86.9305 51.0242 87.6911 51.6792C88.4505 52.3356 88.8302 53.1953 88.8302 54.2609C88.8302 57.0889 85.8472 59.382 79.8809 61.1445C80.4225 63.8067 81.8392 65.1398 84.1314 65.1398C85.0267 65.1398 85.8802 64.8974 86.6932 64.4138C87.5083 63.9282 88.7345 62.8509 90.3756 61.1856L90.3751 63.5403ZM79.7167 59.7511C83.1872 58.7669 84.9238 56.9514 84.9238 54.3014C84.9238 52.9903 84.4485 52.3351 83.5005 52.3351C82.6051 52.3351 81.7518 53.0203 80.9387 54.3945C80.1229 55.7665 79.7167 57.5511 79.7167 59.7511Z" fill="#010101"/>
<path d="M112.1 63.5401C109.93 65.6161 108.377 66.9699 107.443 67.599C106.507 68.227 105.612 68.5404 104.757 68.5404C102.614 68.5404 101.605 66.6355 101.726 62.8244C100.371 64.7768 99.1188 66.2179 97.9728 67.1486C96.8279 68.0772 95.6452 68.5404 94.4234 68.5404C93.2315 68.5404 92.2183 67.9783 91.383 66.8512C90.5475 65.7241 90.1328 64.3419 90.1328 62.7013C90.1328 60.6537 90.691 58.7003 91.8088 56.8415C92.9288 54.9837 94.3628 53.4828 96.1115 52.3353C97.8603 51.1881 99.4077 50.6135 100.749 50.6135C102.444 50.6135 103.631 51.3993 104.31 52.9693L108.467 50.6553H109.607L107.812 56.6573C106.89 59.677 106.427 61.7466 106.427 62.8661C106.427 64.0403 106.84 64.6275 107.668 64.6275C108.195 64.6275 108.778 64.3446 109.416 63.777C110.053 63.2095 110.947 62.3457 112.099 61.185L112.1 63.5401ZM97.2108 64.6683C98.5666 64.6683 99.8443 63.5043 101.047 61.1759C102.247 58.8463 102.846 56.697 102.846 54.7306C102.846 53.9668 102.675 53.3683 102.338 52.9388C101.998 52.5072 101.544 52.2932 100.976 52.2932C99.6186 52.2932 98.3325 53.4539 97.121 55.7764C95.9075 58.099 95.2995 60.2364 95.2995 62.1879C95.2995 62.9266 95.4801 63.5241 95.839 63.9819C96.1981 64.4397 96.6537 64.6683 97.2108 64.6683Z" fill="#010101"/>
<path d="M127.294 63.5396C123.89 66.8994 121.266 68.5805 119.422 68.5805C118.594 68.5805 117.895 68.2287 117.327 67.5274C116.758 66.8234 116.472 65.9519 116.472 64.9132C116.472 62.9876 117.497 60.4072 119.544 57.1694C118.54 57.6888 117.443 58.0494 116.249 58.2547C115.368 59.8938 113.984 61.6561 112.1 63.539H111.633V61.6974C112.69 60.5912 113.646 59.4021 114.5 58.1318C113.333 57.6123 112.751 56.8405 112.751 55.8178C112.751 54.7645 113.105 53.6418 113.819 52.445C114.531 51.2512 115.51 50.6543 116.758 50.6543C117.816 50.6543 118.344 51.1988 118.344 52.2921C118.344 53.1528 118.039 54.3814 117.428 55.9803C119.679 55.7338 121.645 54.0007 123.328 50.7761L125.178 50.6938L123.286 55.9387C122.5 58.1516 121.992 59.6588 121.762 60.4568C121.532 61.255 121.415 61.9632 121.415 62.5768C121.415 63.1512 121.548 63.6101 121.812 63.9494C122.076 64.2932 122.433 64.4623 122.88 64.4623C123.368 64.4623 123.836 64.2943 124.284 63.9616C124.731 63.6241 125.734 62.6998 127.295 61.1839L127.294 63.5396Z" fill="#010101"/>
<path d="M147.274 63.5403C144.141 66.8748 141.455 68.5406 139.218 68.5406C138.31 68.5406 137.577 68.2197 137.021 67.5772C136.464 66.9359 136.187 66.0757 136.187 64.9968C136.187 63.5355 136.784 61.3017 137.978 58.2983C138.615 56.6859 138.934 55.6601 138.934 55.2246C138.934 54.787 138.763 54.5683 138.426 54.5683C138.236 54.5683 137.984 54.6646 137.673 54.8544C137.387 55.0453 137.055 55.3139 136.675 55.6546C136.337 55.9681 135.956 56.3506 135.536 56.7999C135.169 57.1855 134.776 57.6221 134.358 58.1121L133.217 59.445C132.716 60.0592 132.404 60.7068 132.282 61.3904C132.078 62.5512 131.943 63.6179 131.874 64.5886C131.833 65.3108 131.813 66.2864 131.813 67.5184L127.318 68.5817C127.17 66.7379 127.094 65.3648 127.094 64.4646C127.094 62.2655 127.348 60.1821 127.857 58.2157C128.366 56.2473 129.182 54.0361 130.308 51.5766L135.27 50.6143C134.227 53.4423 133.542 55.6675 133.217 57.2921C135.441 54.793 137.204 53.063 138.511 52.0986C139.816 51.1352 140.978 50.6559 141.993 50.6559C142.683 50.6559 143.26 50.9181 143.719 51.4428C144.181 51.9681 144.41 52.6277 144.41 53.4161C144.41 54.7261 143.827 56.8844 142.662 59.8906C141.861 61.9521 141.461 63.2899 141.461 63.9077C141.461 64.7299 141.794 65.1406 142.46 65.1406C143.451 65.1406 145.057 63.8221 147.274 61.1861V63.5403Z" fill="#010101"/>
<path d="M106.274 34.4629H107.363V36.2653H108.386V37.1514H107.363V41.3649C107.363 41.59 107.439 41.7407 107.591 41.8171C107.674 41.8613 107.814 41.8834 108.01 41.8834C108.061 41.8834 108.117 41.8834 108.177 41.8834C108.237 41.8793 108.307 41.8733 108.386 41.8653V42.7213C108.263 42.7574 108.133 42.7836 107.998 42.7996C107.866 42.8156 107.722 42.8238 107.567 42.8238C107.064 42.8238 106.723 42.6951 106.543 42.438C106.364 42.1767 106.274 41.8391 106.274 41.4253V37.1514H105.406V36.2653H106.274V34.4629Z" fill="white"/>
<path d="M103.336 36.2957H104.431V42.7215H103.336V36.2957ZM103.336 33.8665H104.431V35.0961H103.336V33.8665Z" fill="white"/>
<path d="M97.1797 33.8665H98.215V39.0083L100.98 36.2655H102.356L99.9026 38.6828L102.494 42.7215H101.118L99.1186 39.4665L98.215 40.2983V42.7215H97.1797V33.8665Z" fill="white"/>
<path d="M94.4766 36.2957H95.5717V42.7215H94.4766V36.2957ZM94.4766 33.8665H95.5717V35.0961H94.4766V33.8665Z" fill="white"/>
<path d="M90.8148 36.0786C91.537 36.0786 92.1235 36.2553 92.5744 36.609C93.0292 36.9626 93.3024 37.5715 93.3942 38.4355H92.347C92.2832 38.0377 92.1375 37.7081 91.9101 37.447C91.6826 37.1817 91.3175 37.049 90.8148 37.049C90.1286 37.049 89.6379 37.3866 89.3426 38.0617C89.1512 38.4999 89.0553 39.0402 89.0553 39.6833C89.0553 40.3302 89.191 40.8748 89.4623 41.317C89.7337 41.759 90.1606 41.9799 90.743 41.9799C91.1899 41.9799 91.543 41.8433 91.8022 41.5701C92.0657 41.2928 92.2472 40.915 92.347 40.4368H93.3942C93.2746 41.2928 92.9753 41.9197 92.4966 42.3175C92.0177 42.7113 91.4053 42.9082 90.6593 42.9082C89.8213 42.9082 89.1532 42.6008 88.6544 41.9861C88.1557 41.3672 87.9062 40.5955 87.9062 39.6712C87.9062 38.5379 88.1797 37.6559 88.7263 37.025C89.2728 36.3941 89.969 36.0786 90.8148 36.0786Z" fill="white"/>
<path d="M82.8558 40.6959C82.8876 41.0575 82.9774 41.3348 83.125 41.5277C83.3963 41.8773 83.867 42.0523 84.5374 42.0523C84.9363 42.0523 85.2874 41.9657 85.5907 41.793C85.8939 41.6161 86.0456 41.3448 86.0456 40.9792C86.0456 40.7019 85.9238 40.491 85.6805 40.3463C85.5249 40.2579 85.2176 40.1553 84.7589 40.0388L83.903 39.8219C83.3565 39.6852 82.9534 39.5324 82.6941 39.3637C82.2312 39.0703 82 38.6644 82 38.1461C82 37.5352 82.2174 37.0408 82.6523 36.6632C83.091 36.2853 83.6796 36.0964 84.4178 36.0964C85.3832 36.0964 86.0794 36.3819 86.5063 36.9524C86.7736 37.3141 86.9034 37.7039 86.8954 38.1219H85.878C85.858 37.8768 85.7723 37.6537 85.6207 37.4528C85.3732 37.1675 84.9443 37.0248 84.3339 37.0248C83.927 37.0248 83.6178 37.1032 83.4063 37.2599C83.1989 37.4166 83.095 37.6235 83.095 37.8808C83.095 38.1621 83.2327 38.3872 83.5079 38.5559C83.6676 38.6564 83.903 38.7448 84.2143 38.8212L84.9263 38.9959C85.7005 39.1848 86.219 39.3677 86.4825 39.5444C86.9014 39.8219 87.1109 40.2579 87.1109 40.8526C87.1109 41.4273 86.8934 41.9235 86.4585 42.3415C86.0276 42.7595 85.3692 42.9684 84.4836 42.9684C83.53 42.9684 82.8538 42.7513 82.4547 42.3173C82.0598 41.8793 81.8483 41.3388 81.8203 40.6959H82.8558Z" fill="white"/>
</g>
</g>
<defs>
<clipPath id="clip0_5236_1930">
<rect width="147.273" height="80" fill="white"/>
</clipPath>
</defs>
</svg>
