<svg width="80" height="80" viewBox="0 0 80 80" fill="none" xmlns="http://www.w3.org/2000/svg">
<path d="M58.5533 54.392L58.5707 72.062L42.8907 79.8865V62.2243L58.5533 54.392ZM77.3717 44.948V62.6797L63.9981 69.354L63.9884 51.7033L77.3717 44.948ZM58.5301 30.7405L58.5475 48.2253L42.8907 56.0055V38.5149L58.5301 30.7405ZM77.3717 21.3739V38.7485L63.9845 45.554L63.9731 28.0345L77.3717 21.3739ZM40.5069 19.3183L54.502 26.3824L39.982 33.6743L26.2513 26.7781L40.5069 19.3183ZM21.04 9.4922L34.3885 16.2301L20.1001 23.688L6.39062 16.8033L21.04 9.4922ZM59.198 9.59449L73.5752 16.8033L60.7169 23.2615L46.6929 16.1877L59.198 9.59449ZM40.0669 0L53.0101 6.48897L40.5996 13.115L27.2627 6.38861L40.0669 0Z" fill="#4DABCF"/>
<path d="M37.3531 38.5152L26.7916 33.2055V56.1562C26.7916 56.1562 13.8755 28.6736 12.6788 26.2051C12.5244 25.8866 11.8894 25.5372 11.7273 25.4523C9.4112 24.2363 2.625 20.7988 2.625 20.7988V61.3463L12.013 66.3644V45.1702C12.013 45.1702 24.7922 69.7267 24.9214 69.995C25.0507 70.2632 26.3343 72.8515 27.7046 73.7606C29.5304 74.9688 37.3551 79.6744 37.3551 79.6744L37.3531 38.5152Z" fill="#4D77CF"/>
</svg>
