<svg width="80" height="80" viewBox="0 0 80 80" fill="none" xmlns="http://www.w3.org/2000/svg">
<path d="M31.4869 38.5926C25.0799 34.8934 21.9561 27.3521 23.8709 20.2059C25.7857 13.0597 32.2616 8.09058 39.6599 8.09058C47.0581 8.09058 53.5341 13.0597 55.4489 20.2059C57.3637 27.3521 54.24 34.8934 47.833 38.5926L42.9113 30.0682C45.4603 28.5966 46.7031 25.5965 45.9412 22.7534C45.1795 19.9105 42.6032 17.9337 39.6599 17.9337C36.7167 17.9337 34.1404 19.9105 33.3785 22.7534C32.6168 25.5965 33.8595 28.5966 36.4084 30.0682L31.4869 38.5926Z" fill="#FF0101"/>
<path d="M66.4893 42.5496C72.8963 46.2486 76.0201 53.79 74.1053 60.9362C72.1903 68.0824 65.7145 73.0516 58.3162 73.0516C50.9179 73.0516 44.4421 68.0824 42.5273 60.9362C40.6123 53.79 43.7361 46.2486 50.1433 42.5496L55.0647 51.0738C52.5158 52.5456 51.2731 55.5457 52.0349 58.3886C52.7966 61.2316 55.373 63.2085 58.3162 63.2085C61.2595 63.2085 63.8358 61.2316 64.5975 58.3886C65.3593 55.5457 64.1166 52.5456 61.5677 51.0738L66.4893 42.5496Z" fill="#0101FF"/>
<path d="M37.7002 56.7057C37.7002 64.104 32.731 70.5799 25.5849 72.4948C18.4386 74.4096 10.8973 71.2859 7.19814 64.8787C3.499 58.4716 4.56445 50.3788 9.79582 45.1473C15.0272 39.916 23.12 38.8505 29.5271 42.5497L24.6056 51.074C22.0567 49.6024 18.8371 50.0263 16.7559 52.1075C14.6747 54.1887 14.2508 57.4083 15.7224 59.9572C17.194 62.5061 20.1943 63.7488 23.0373 62.9871C25.8802 62.2253 27.8571 59.6489 27.8571 56.7057H37.7002Z" fill="#01FF01"/>
</svg>
