<svg width="80" height="80" viewBox="0 0 80 80" fill="none" xmlns="http://www.w3.org/2000/svg">
<g clip-path="url(#clip0_5235_767)">
<mask id="mask0_5235_767" style="mask-type:luminance" maskUnits="userSpaceOnUse" x="0" y="0" width="80" height="80">
<path d="M80 0H0V80H80V0Z" fill="white"/>
</mask>
<g mask="url(#mask0_5235_767)">
<path d="M29.0538 61.8493C29.0538 61.8493 25.9788 63.7193 31.1913 64.2544C37.4662 65.0544 40.8088 64.9219 47.7538 63.5868C49.1496 64.4416 50.6258 65.1576 52.1613 65.7244C36.5362 72.4044 16.7613 65.3244 29.0513 61.8493H29.0538ZM27.0538 53.1668C27.0538 53.1668 23.7138 55.7044 28.9238 56.2419C35.7362 56.9093 41.0788 57.0419 50.2988 55.1744C51.1954 56.0837 52.2933 56.7697 53.5038 57.1768C34.6688 62.7868 13.5638 57.7119 27.0538 53.1693V53.1668ZM63.9213 68.3919C63.9213 68.3919 66.1913 70.2619 61.3838 71.7319C52.4338 74.4068 23.8488 75.2068 15.8338 71.7319C13.0288 70.5319 18.3713 68.7944 20.0838 68.5268C21.8213 68.1268 22.7588 68.1268 22.7588 68.1268C19.6838 65.9893 2.3213 72.5344 13.9438 74.4019C45.8688 79.6119 72.1838 72.1319 63.9013 68.3919H63.9213ZM30.4988 44.0819C30.4988 44.0819 15.9388 47.5568 25.2888 48.7568C29.2962 49.2919 37.1762 49.1568 44.5238 48.6244C50.5338 48.0893 56.5488 47.0244 56.5488 47.0244C56.5488 47.0244 54.4113 47.9593 52.9413 48.8944C38.1162 52.7693 9.66129 51.0319 17.8113 47.0244C24.7562 43.6844 30.5013 44.0868 30.5013 44.0868L30.4988 44.0819ZM56.5488 58.6419C71.5088 50.8919 64.5638 43.4168 59.7538 44.3493C58.5538 44.6168 58.0162 44.8844 58.0162 44.8844C58.0162 44.8844 58.4162 44.0844 59.3513 43.8168C68.8362 40.4768 76.3162 53.8344 56.2762 59.0419C56.2762 59.0419 56.4088 58.9093 56.5438 58.6419H56.5488ZM31.9738 79.7468C46.3988 80.6819 68.4413 79.2119 68.9738 72.3968C68.9738 72.3968 67.9062 75.0719 57.0862 77.0719C44.7962 79.3419 29.5688 79.0719 20.6188 77.6068C20.6188 77.6068 22.4888 79.2068 31.9738 79.7444V79.7468Z" fill="#4E7896"/>
<path d="M47.4827 0.00317383C47.4827 0.00317383 55.7652 8.41817 39.6027 21.1082C26.6452 31.3931 36.6652 37.2707 39.6027 43.9507C31.9877 37.1382 26.5127 31.1257 30.2527 25.5182C35.7277 17.2331 50.8227 13.2507 47.4827 0.00317383ZM43.2327 38.3407C47.1077 42.7482 42.1652 46.7556 42.1652 46.7556C42.1652 46.7556 52.0501 41.6807 47.5077 35.4007C43.3677 29.3907 40.1577 26.4507 57.5252 16.4331C57.5252 16.4331 30.1427 23.2457 43.2327 38.3407Z" fill="#F58219"/>
</g>
</g>
<defs>
<clipPath id="clip0_5235_767">
<rect width="80" height="80" fill="white"/>
</clipPath>
</defs>
</svg>
