<svg width="80" height="80" viewBox="0 0 80 80" fill="none" xmlns="http://www.w3.org/2000/svg">
<g clip-path="url(#clip0_5235_796)">
<mask id="mask0_5235_796" style="mask-type:luminance" maskUnits="userSpaceOnUse" x="0" y="0" width="80" height="80">
<path d="M80 0H0V80H80V0Z" fill="white"/>
</mask>
<g mask="url(#mask0_5235_796)">
<path d="M78.9537 39.0299L75.6371 36.9765C75.6095 36.654 75.5783 36.3317 75.5437 36.0099L78.3937 33.3532C78.5344 33.2199 78.6391 33.0529 78.6977 32.8681C78.7564 32.6833 78.7672 32.4867 78.7292 32.2967C78.6913 32.1065 78.6057 31.9291 78.4807 31.7811C78.3555 31.6329 78.1949 31.5191 78.0137 31.4499L74.3704 30.0865C74.2804 29.7716 74.1848 29.4581 74.0837 29.1465L76.3571 25.9899C76.4711 25.8321 76.5428 25.6479 76.5655 25.4545C76.588 25.2612 76.5608 25.0653 76.4863 24.8856C76.4117 24.7059 76.2924 24.5481 76.1397 24.4275C75.9869 24.3069 75.8059 24.2273 75.6137 24.1965L71.7737 23.5732C71.6239 23.2829 71.4695 22.9952 71.3104 22.7099L72.9237 19.1665C73.0904 18.8065 73.0537 18.3865 72.8337 18.0599C72.6137 17.7332 72.2404 17.5399 71.8437 17.5532L67.9437 17.6899C67.7436 17.4365 67.538 17.1876 67.3271 16.9432L68.2237 13.1465C68.268 12.9572 68.2632 12.7598 68.2099 12.5728C68.1564 12.3859 68.0563 12.2156 67.9188 12.0781C67.7813 11.9407 67.6111 11.8405 67.4241 11.7872C67.2372 11.7338 67.0397 11.729 66.8504 11.7732L63.0537 12.6699C62.8059 12.4617 62.5559 12.2561 62.3037 12.0532L62.4404 8.15321C62.4497 7.95808 62.4084 7.76386 62.3205 7.5894C62.2327 7.41493 62.1012 7.26614 61.9388 7.15748C61.7765 7.04881 61.5888 6.98394 61.394 6.96919C61.1992 6.95441 61.004 6.99025 60.8271 7.07321L57.2837 8.68988C56.9971 8.53321 56.7104 8.37654 56.4204 8.22654L55.7937 4.38321C55.7612 4.19202 55.6808 4.01221 55.5599 3.86058C55.4389 3.70897 55.2816 3.59048 55.1024 3.51623C54.9232 3.44197 54.7281 3.41436 54.5355 3.43598C54.3428 3.45761 54.1587 3.52776 54.0004 3.63988L50.8404 5.91321C50.5288 5.81326 50.2153 5.71881 49.9004 5.62988L48.5371 1.98654C48.468 1.80543 48.354 1.6448 48.206 1.51967C48.0579 1.39455 47.8804 1.309 47.6904 1.27104C47.5003 1.23309 47.3036 1.24395 47.1188 1.30263C46.934 1.36129 46.7672 1.46587 46.6337 1.60655L43.9771 4.45988C43.6553 4.42365 43.3331 4.39253 43.0104 4.36655L40.9571 1.04987C40.8549 0.88446 40.7123 0.747913 40.5424 0.653208C40.3727 0.558504 40.1815 0.508789 39.9871 0.508789C39.7927 0.508789 39.6015 0.558504 39.4317 0.653208C39.262 0.747913 39.1192 0.88446 39.0171 1.04987L36.9637 4.36655C36.6404 4.39321 36.3171 4.42654 35.9971 4.45988L33.3371 1.60655C33.2045 1.46412 33.0377 1.35798 32.8527 1.29824C32.6675 1.23849 32.4701 1.22713 32.2793 1.26522C32.0885 1.3033 31.9107 1.38959 31.7627 1.51585C31.6147 1.64211 31.5015 1.80414 31.4337 1.98654L30.0704 5.62988C29.7537 5.71988 29.4437 5.81655 29.1304 5.91321L25.9737 3.63988C25.8155 3.52776 25.6315 3.45761 25.4387 3.43598C25.246 3.41436 25.0509 3.44197 24.8717 3.51623C24.6927 3.59048 24.5352 3.70897 24.4144 3.86058C24.2935 4.01221 24.2129 4.19202 24.1804 4.38321L23.5537 8.22654C23.2636 8.3764 22.9757 8.53086 22.6904 8.68988L19.1471 7.07321C18.9701 6.99225 18.7753 6.95796 18.5813 6.97361C18.3873 6.98925 18.2005 7.05432 18.0388 7.16258C17.8771 7.27086 17.7457 7.41875 17.6573 7.59216C17.5689 7.76556 17.5264 7.9587 17.5337 8.15321L17.6704 12.0532C17.4171 12.2532 17.1671 12.4599 16.9204 12.6699L13.1238 11.7732C12.9344 11.729 12.737 11.7338 12.55 11.7872C12.3631 11.8405 12.1928 11.9407 12.0554 12.0781C11.9179 12.2156 11.8177 12.3859 11.7644 12.5728C11.711 12.7598 11.7062 12.9572 11.7504 13.1465L12.6438 16.9432C12.4371 17.1899 12.2304 17.4399 12.0304 17.6899L8.13043 17.5532C7.93594 17.5459 7.74279 17.5884 7.56938 17.6768C7.39598 17.7652 7.2481 17.8965 7.13982 18.0583C7.03155 18.22 6.96648 18.4067 6.95084 18.6007C6.93519 18.7948 6.96948 18.9895 7.05043 19.1665L8.6671 22.7099C8.508 22.9951 8.35354 23.2829 8.20376 23.5732L4.36376 24.1965C4.17259 24.2291 3.99278 24.3095 3.84115 24.4304C3.68952 24.5513 3.57104 24.7088 3.49679 24.8879C3.42254 25.0671 3.39492 25.2621 3.41655 25.4548C3.43818 25.6476 3.50832 25.8316 3.62043 25.9899L5.89376 29.1465C5.79376 29.4599 5.70043 29.7699 5.6071 30.0865L1.96376 31.4499C1.78266 31.5191 1.62202 31.6329 1.4969 31.7811C1.37176 31.9291 1.28623 32.1065 1.24827 32.2967C1.21032 32.4867 1.22118 32.6833 1.27985 32.8681C1.33852 33.0529 1.44308 33.2199 1.58376 33.3532L4.43376 36.0099C4.39755 36.3316 4.36643 36.6539 4.34043 36.9765L1.02377 39.0299C0.856777 39.1308 0.718664 39.2731 0.622799 39.4431C0.526933 39.6129 0.476562 39.8048 0.476562 39.9999C0.476562 40.1949 0.526933 40.3868 0.622799 40.5567C0.718664 40.7267 0.856777 40.8689 1.02377 40.9699L4.34043 43.0232C4.3671 43.3465 4.40043 43.6699 4.43376 43.9899L1.58376 46.6499C1.44135 46.7824 1.33522 46.9492 1.27547 47.1343C1.21572 47.3195 1.20435 47.5168 1.24245 47.7076C1.28053 47.8984 1.36682 48.0763 1.49307 48.2243C1.61934 48.3723 1.78138 48.4855 1.96376 48.5532L5.6071 49.9165C5.6971 50.2332 5.79376 50.5465 5.89376 50.8565L3.62043 54.0132C3.50544 54.1709 3.43299 54.3556 3.41006 54.5493C3.38712 54.7432 3.41448 54.9396 3.48951 55.1199C3.56452 55.3 3.68467 55.4579 3.83838 55.5781C3.99208 55.6984 4.17418 55.7771 4.3671 55.8065L8.2071 56.4299C8.3571 56.7199 8.51043 57.0065 8.67043 57.2932L7.05376 60.8365C6.97282 61.0135 6.93852 61.2083 6.95418 61.4023C6.96982 61.5963 7.03488 61.7831 7.14315 61.9448C7.25143 62.1065 7.39931 62.2379 7.57271 62.3263C7.74612 62.4147 7.93927 62.4572 8.13376 62.4499L12.0304 62.3132C12.2338 62.5665 12.4371 62.8165 12.6471 63.0632L11.7538 66.8632C11.7093 67.0524 11.7139 67.2499 11.7672 67.4368C11.8206 67.6237 11.9208 67.7939 12.0584 67.9312C12.196 68.0684 12.3664 68.1683 12.5535 68.2211C12.7405 68.274 12.938 68.2781 13.1271 68.2332L16.9237 67.3399C17.1704 67.5499 17.4204 67.7532 17.6737 67.9532L17.5371 71.8532C17.5284 72.048 17.5701 72.2419 17.6583 72.4159C17.7464 72.5899 17.878 72.7381 18.0401 72.8464C18.2024 72.9547 18.3899 73.0192 18.5844 73.0339C18.7788 73.0485 18.9739 73.0127 19.1504 72.9299L22.6937 71.3165C22.9804 71.4765 23.2671 71.6299 23.5571 71.7799L24.1837 75.6199C24.2159 75.8113 24.296 75.9915 24.4167 76.1436C24.5373 76.2956 24.6947 76.4145 24.874 76.4891C25.0532 76.5637 25.2484 76.5916 25.4413 76.5701C25.6343 76.5488 25.8187 76.4787 25.9771 76.3665L29.1337 74.0932C29.4471 74.1932 29.7571 74.2899 30.0737 74.3799L31.4371 78.0232C31.504 78.2063 31.6169 78.3689 31.7649 78.4959C31.9128 78.6227 32.0909 78.7093 32.2821 78.7475C32.4732 78.7856 32.6709 78.774 32.8563 78.7137C33.0416 78.6535 33.2084 78.5465 33.3404 78.4032L36.0004 75.5532C36.3204 75.5899 36.6437 75.6199 36.9671 75.6499L39.0204 78.9665C39.1232 79.1312 39.2661 79.2669 39.4359 79.3611C39.6055 79.4552 39.7964 79.5047 39.9904 79.5047C40.1845 79.5047 40.3753 79.4552 40.5451 79.3611C40.7148 79.2669 40.8577 79.1312 40.9604 78.9665L43.0137 75.6499C43.3371 75.6199 43.6604 75.5899 43.9804 75.5532L46.6371 78.4032C46.7705 78.5439 46.9373 78.6484 47.1221 78.7071C47.3069 78.7657 47.5036 78.7767 47.6937 78.7387C47.8837 78.7007 48.0612 78.6152 48.2093 78.49C48.3573 78.3649 48.4713 78.2043 48.5404 78.0232L49.9037 74.3799C50.2204 74.2899 50.5337 74.1932 50.8437 74.0932L54.0004 76.3665C54.1581 76.4815 54.3428 76.554 54.5365 76.5769C54.7304 76.5999 54.9269 76.5725 55.1071 76.4975C55.2872 76.4224 55.4451 76.3023 55.5653 76.1485C55.6856 75.9949 55.7643 75.8128 55.7937 75.6199L56.4204 71.7799C56.7104 71.6299 56.9971 71.4732 57.2837 71.3165L60.8271 72.9299C61.0039 73.0097 61.1981 73.0432 61.3915 73.0273C61.5848 73.0113 61.7709 72.9465 61.9323 72.8388C62.0936 72.7312 62.2249 72.5841 62.3139 72.4117C62.4028 72.2393 62.4463 72.0471 62.4404 71.8532L62.3037 67.9532C62.5571 67.7532 62.8071 67.5499 63.0504 67.3399L66.8471 68.2332C67.0361 68.2772 67.2332 68.2723 67.4197 68.2191C67.6064 68.1659 67.7763 68.0661 67.9137 67.9291C68.0511 67.792 68.1513 67.6223 68.2049 67.4359C68.2587 67.2493 68.264 67.0523 68.2204 66.8632L67.3271 63.0632C67.5337 62.8165 67.7404 62.5665 67.9404 62.3132L71.8404 62.4499C72.0356 62.4592 72.2297 62.4179 72.4043 62.33C72.5787 62.2421 72.7275 62.1107 72.8361 61.9483C72.9448 61.7859 73.0097 61.5983 73.0244 61.4035C73.0392 61.2087 73.0033 61.0133 72.9204 60.8365L71.3071 57.2932C71.4637 57.0065 71.6204 56.7199 71.7704 56.4299L75.6104 55.8065C75.8016 55.774 75.9815 55.6935 76.1331 55.5727C76.2847 55.4517 76.4032 55.2943 76.4775 55.1152C76.5516 54.936 76.5793 54.7409 76.5576 54.5483C76.536 54.3555 76.4659 54.1715 76.3537 54.0132L74.0804 50.8565L74.3671 49.9165L78.0104 48.5532C78.1928 48.4855 78.3548 48.3723 78.4811 48.2243C78.6073 48.0763 78.6936 47.8984 78.7317 47.7076C78.7699 47.5168 78.7585 47.3195 78.6987 47.1343C78.6389 46.9492 78.5328 46.7824 78.3904 46.6499L75.5404 43.9899C75.5737 43.6699 75.6071 43.3465 75.6337 43.0232L78.9504 40.9699C79.1175 40.8689 79.2556 40.7267 79.3515 40.5567C79.4473 40.3868 79.4976 40.1949 79.4976 39.9999C79.4976 39.8048 79.4473 39.6129 79.3515 39.4431C79.2556 39.2731 79.1208 39.1308 78.9537 39.0299ZM56.7571 66.5399C56.4553 66.4753 56.1691 66.3519 55.9149 66.1768C55.6608 66.0016 55.4437 65.7781 55.276 65.5191C54.9371 64.9959 54.82 64.3595 54.9504 63.7499C55.0149 63.448 55.1384 63.1619 55.3135 62.9077C55.4887 62.6536 55.7121 62.4364 55.9712 62.2687C56.4945 61.9299 57.1309 61.8128 57.7404 61.9432C58.0423 62.008 58.3284 62.1316 58.5824 62.3069C58.8364 62.4823 59.0535 62.706 59.2211 62.9652C59.3887 63.2244 59.5036 63.5141 59.5593 63.8177C59.6149 64.1215 59.6103 64.4331 59.5455 64.7348C59.4807 65.0367 59.3571 65.3228 59.1817 65.5768C59.0064 65.8309 58.7827 66.0479 58.5235 66.2155C58.2641 66.3832 57.9745 66.498 57.6708 66.5537C57.3672 66.6093 57.0589 66.6047 56.7571 66.5399ZM55.6304 58.9199C55.3555 58.8607 55.0716 58.8564 54.7949 58.9072C54.5184 58.958 54.2545 59.0628 54.0185 59.2159C53.7825 59.3688 53.5791 59.5669 53.4199 59.7987C53.2605 60.0304 53.1487 60.2913 53.0904 60.5665L51.9137 66.0599C48.2804 67.7099 44.2471 68.6265 39.9971 68.6265C35.7945 68.6327 31.6416 67.7179 27.8304 65.9465L26.6537 60.4532C26.5956 60.1781 26.4836 59.9173 26.3243 59.6856C26.1651 59.454 25.9615 59.2561 25.7255 59.1035C25.4893 58.9507 25.2255 58.8461 24.9489 58.7957C24.6723 58.7453 24.3885 58.7501 24.1137 58.8099L19.2637 59.8499C18.3625 58.9219 17.5251 57.9341 16.7571 56.8932H40.3571C40.6237 56.8932 40.8037 56.8465 40.8037 56.6032V48.2532C40.8037 48.0099 40.6271 47.9632 40.3571 47.9632H33.4537V42.6699H40.9204C41.6004 42.6699 44.5637 42.8632 45.5104 46.6499C45.8071 47.8132 46.4571 51.6032 46.9037 52.8165C47.3471 54.1765 49.1537 56.8932 51.0804 56.8932H62.8404C62.9836 56.8912 63.1264 56.8767 63.2671 56.8499C62.4517 57.9576 61.5583 59.0059 60.5937 59.9865L55.6304 58.9199ZM22.9871 66.4265C22.6853 66.4913 22.3736 66.496 22.07 66.4404C21.7664 66.3847 21.4767 66.2699 21.2175 66.1021C20.9583 65.9345 20.7345 65.7176 20.5592 65.4635C20.3839 65.2095 20.2603 64.9233 20.1955 64.6215C20.1307 64.3197 20.126 64.0081 20.1816 63.7044C20.2372 63.4008 20.3521 63.1111 20.5197 62.8519C20.6873 62.5927 20.9044 62.3689 21.1584 62.1936C21.4125 62.0183 21.6987 61.8947 22.0004 61.8299C22.61 61.6991 23.2465 61.8157 23.7701 62.1541C24.2936 62.4927 24.6612 63.0253 24.7921 63.6348C24.9229 64.2444 24.8063 64.8809 24.4677 65.4045C24.1293 65.928 23.5967 66.2957 22.9871 66.4265ZM14.0337 30.1199C14.1705 30.4035 14.2489 30.7116 14.2644 31.026C14.2797 31.3405 14.2317 31.6548 14.1233 31.9504C14.0148 32.246 13.8481 32.5168 13.6329 32.7467C13.4179 32.9765 13.1587 33.1608 12.871 33.2885C12.5832 33.4164 12.2727 33.4851 11.9579 33.4905C11.6432 33.496 11.3305 33.4381 11.0385 33.3204C10.7465 33.2027 10.4811 33.0275 10.2581 32.8052C10.0351 32.5829 9.8591 32.3181 9.74043 32.0265C9.51036 31.4611 9.50935 30.8284 9.73759 30.2621C9.96583 29.696 10.4054 29.2409 10.9633 28.9931C11.5212 28.7453 12.1537 28.7244 12.7267 28.9347C13.2998 29.1449 13.7685 29.57 14.0337 30.1199ZM11.2838 36.6432L16.3371 34.3965C16.5941 34.2824 16.8263 34.1188 17.02 33.9149C17.2137 33.7111 17.3655 33.4709 17.4664 33.2084C17.5673 32.9459 17.6155 32.6661 17.6081 32.3849C17.6008 32.1037 17.5383 31.8268 17.4237 31.5699L16.3837 29.2165H20.4771V47.6632H12.2204C11.2022 44.0832 10.8853 40.3401 11.2871 36.6399L11.2838 36.6432ZM33.4571 34.8532V29.4165H43.2037C43.7071 29.4165 46.7571 29.9999 46.7571 32.2799C46.7571 34.1732 44.4171 34.8532 42.4937 34.8532H33.4571ZM68.8771 39.7465C68.8771 40.4665 68.8504 41.1832 68.7971 41.8899H65.8337C65.5371 41.8899 65.4171 42.0832 65.4171 42.3765V43.7365C65.4171 46.9399 63.6104 47.6365 62.0271 47.8132C60.5204 47.9832 58.8504 47.1832 58.6437 46.2599C57.7537 41.2599 56.2737 40.1899 53.9337 38.3465C56.8371 36.5032 59.8571 33.7832 59.8571 30.1432C59.8571 26.2132 57.1604 23.7365 55.3237 22.5199C52.7471 20.8199 49.8937 20.4799 49.1237 20.4799H18.4804C22.7155 15.7444 28.3945 12.5387 34.6371 11.3599L38.2504 15.1499C38.444 15.3536 38.6759 15.5171 38.9328 15.6308C39.1897 15.7447 39.4667 15.8067 39.7476 15.8131C40.0285 15.8196 40.3079 15.7705 40.5699 15.6688C40.8317 15.5669 41.0709 15.4144 41.2737 15.2199L45.3137 11.3532C49.4331 12.1258 53.3351 13.7853 56.7489 16.2167C60.1628 18.648 63.0068 21.7928 65.0837 25.4332L62.3171 31.6832C62.0879 32.2023 62.0735 32.7911 62.2771 33.3208C62.4807 33.8505 62.8857 34.278 63.4037 34.5099L68.7304 36.8765C68.8237 37.8232 68.8704 38.7765 68.8704 39.7465H68.8771ZM38.2537 8.13988C38.4768 7.92713 38.7396 7.7604 39.0271 7.6492C39.3145 7.53801 39.6211 7.48452 39.9292 7.49178C40.2373 7.49906 40.5409 7.56696 40.8229 7.6916C41.1048 7.81624 41.3593 7.99518 41.5721 8.21821C41.7848 8.44124 41.9516 8.70399 42.0628 8.99145C42.174 9.2789 42.2275 9.58546 42.2201 9.8936C42.2129 10.2017 42.1451 10.5054 42.0204 10.7873C41.8957 11.0692 41.7168 11.3238 41.4937 11.5365C41.0372 11.9304 40.4468 12.1337 39.8445 12.1045C39.2423 12.0752 38.6744 11.8155 38.2583 11.3793C37.842 10.943 37.6095 10.3634 37.6087 9.76045C37.6079 9.1575 37.8388 8.5773 38.2537 8.13988ZM65.7104 30.2332C66.2337 29.0465 67.6204 28.5132 68.8037 29.0399C69.2292 29.2276 69.5893 29.5373 69.8387 29.9299C70.088 30.3223 70.2153 30.78 70.2044 31.2448C70.1935 31.7097 70.0449 32.1609 69.7776 32.5413C69.5101 32.9217 69.1359 33.2143 68.7021 33.3819C68.2684 33.5495 67.7947 33.5847 67.3409 33.4829C66.8872 33.3812 66.4739 33.1472 66.1532 32.8104C65.8325 32.4736 65.6189 32.0493 65.5396 31.5912C65.4601 31.1329 65.5184 30.6616 65.7071 30.2365L65.7104 30.2332Z" fill="black"/>
</g>
</g>
<defs>
<clipPath id="clip0_5235_796">
<rect width="80" height="80" fill="white"/>
</clipPath>
</defs>
</svg>
