<svg width="80" height="80" viewBox="0 0 80 80" fill="none" xmlns="http://www.w3.org/2000/svg">
<g clip-path="url(#clip0_5235_733)">
<mask id="mask0_5235_733" style="mask-type:luminance" maskUnits="userSpaceOnUse" x="0" y="0" width="80" height="80">
<path d="M80 0H0V79.68H80V0Z" fill="white"/>
</mask>
<g mask="url(#mask0_5235_733)">
<path d="M39.6513 0.0222168C19.3931 0.0222168 20.6581 8.80732 20.6581 8.80732L20.6806 17.909H40.0125V20.6415H13.0022C13.0022 20.6415 0.0390625 19.1714 0.0390625 39.6115C0.0390625 60.0525 11.3536 59.3276 11.3536 59.3276H18.1061V49.8422C18.1061 49.8422 17.7421 38.5277 29.2401 38.5277H48.4139C48.4139 38.5277 59.1863 38.7017 59.1863 28.1165V10.6143C59.1863 10.6143 60.8225 0.0222168 39.6513 0.0222168ZM28.9917 6.14289C29.4485 6.14248 29.9009 6.23215 30.323 6.40679C30.7451 6.58141 31.1287 6.83757 31.4518 7.1606C31.7747 7.48363 32.0309 7.86717 32.2055 8.28931C32.3802 8.71144 32.4698 9.16387 32.4694 9.6207C32.4698 10.0775 32.3802 10.5299 32.2055 10.9521C32.0309 11.3742 31.7747 11.7577 31.4518 12.0808C31.1287 12.4038 30.7451 12.66 30.323 12.8346C29.9009 13.0092 29.4485 13.0989 28.9917 13.0985C28.5349 13.0989 28.0825 13.0092 27.6603 12.8346C27.2382 12.66 26.8546 12.4038 26.5315 12.0808C26.2086 11.7577 25.9523 11.3742 25.7778 10.9521C25.6031 10.5299 25.5134 10.0775 25.5138 9.6207C25.5134 9.16387 25.6031 8.71144 25.7778 8.28931C25.9523 7.86717 26.2086 7.48363 26.5315 7.1606C26.8546 6.83757 27.2382 6.58141 27.6603 6.40679C28.0825 6.23215 28.5349 6.14248 28.9917 6.14289Z" fill="url(#paint0_linear_5235_733)"/>
<path d="M40.2287 79.4076C60.4868 79.4076 59.2219 70.6226 59.2219 70.6226L59.1994 61.5212H39.8671V58.7887H66.8774C66.8774 58.7887 79.8406 60.2588 79.8406 39.8179C79.8406 19.3774 68.526 20.1023 68.526 20.1023H61.7735V29.5874C61.7735 29.5874 62.1375 40.9019 50.6396 40.9019H31.4658C31.4658 40.9019 20.6934 40.7279 20.6934 51.3134V68.8159C20.6934 68.8159 19.0578 79.4076 40.2287 79.4076ZM50.8883 73.2876C50.4315 73.288 49.9791 73.1983 49.557 73.0238C49.1348 72.8491 48.7512 72.593 48.4282 72.2699C48.1052 71.9468 47.8491 71.5634 47.6744 71.1412C47.4998 70.7191 47.4102 70.2667 47.4106 69.8098C47.41 69.353 47.4998 68.9004 47.6743 68.4783C47.849 68.0562 48.1051 67.6726 48.4282 67.3495C48.7511 67.0264 49.1347 66.7703 49.5568 66.5956C49.979 66.421 50.4315 66.3312 50.8883 66.3318C51.3451 66.3312 51.7975 66.421 52.2196 66.5956C52.6418 66.7702 53.0254 67.0264 53.3484 67.3494C53.6714 67.6724 53.9276 68.056 54.1022 68.4782C54.2768 68.9003 54.3666 69.3527 54.3662 69.8095C54.3666 70.2663 54.2768 70.7187 54.1022 71.1408C53.9276 71.563 53.6714 71.9466 53.3484 72.2696C53.0254 72.5926 52.6418 72.8488 52.2196 73.0234C51.7975 73.198 51.3451 73.2882 50.8883 73.2876Z" fill="url(#paint1_linear_5235_733)"/>
</g>
</g>
<defs>
<linearGradient id="paint0_linear_5235_733" x1="7.70776" y1="7.16238" x2="47.2539" y2="46.3139" gradientUnits="userSpaceOnUse">
<stop stop-color="#387EB8"/>
<stop offset="1" stop-color="#366994"/>
</linearGradient>
<linearGradient id="paint1_linear_5235_733" x1="31.9834" y1="32.3042" x2="74.4514" y2="72.4506" gradientUnits="userSpaceOnUse">
<stop stop-color="#FFC652"/>
<stop offset="1" stop-color="#FFC331"/>
</linearGradient>
<clipPath id="clip0_5235_733">
<rect width="80" height="80" fill="white"/>
</clipPath>
</defs>
</svg>
