<svg width="80" height="80" viewBox="0 0 80 80" fill="none" xmlns="http://www.w3.org/2000/svg">
<path d="M26.8507 31.9334C25.1105 29.9415 22.3419 28.9454 18.5465 28.9454H5.93125L0.078125 59.0608H6.63812L8.19437 51.0544H13.8136C16.2931 51.0544 18.3328 50.7946 19.9344 50.2727C21.5355 49.7524 22.9909 48.879 24.3008 47.6528C25.4003 46.6424 26.2891 45.528 26.9707 44.3091C27.6509 43.0908 28.1344 41.7464 28.4203 40.276C29.1145 36.706 28.5907 33.9255 26.8507 31.9334ZM21.6395 39.816C21.186 42.1467 20.3127 43.8102 19.0184 44.8067C17.7235 45.8036 15.7533 46.3019 13.1087 46.3019H9.11781L11.5675 33.6976H16.0625C18.5551 33.6976 20.216 34.1575 21.0463 35.0776C21.876 35.9983 22.0743 37.5775 21.6395 39.816ZM52.7856 37.0403L50.0624 51.0544H43.4503L46.0397 37.7298C46.334 36.2138 46.2261 35.1798 45.714 34.6287C45.2028 34.0772 44.1137 33.8011 42.4484 33.8011H37.2471L33.8943 51.0544H27.3855L33.2385 20.939H39.7473L38.1912 28.9454H43.9899C47.6376 28.9454 50.1543 29.5824 51.5393 30.8544C52.9247 32.1272 53.3392 34.1894 52.7856 37.0403ZM78.0553 31.9334C76.3152 29.9415 73.5465 28.9454 69.7519 28.9454H57.1365L51.2835 59.0608H57.8435L59.3997 51.0544H65.0189C67.4984 51.0544 69.5373 50.7946 71.1391 50.2727C72.7401 49.7524 74.1956 48.879 75.5055 47.6528C76.6048 46.6424 77.4944 45.528 78.1755 44.3091C78.8557 43.0908 79.3391 41.7464 79.6251 40.276C80.3191 36.706 79.796 33.9255 78.0553 31.9334ZM72.8447 39.816C72.3912 42.1467 71.518 43.8102 70.2229 44.8067C68.9285 45.8036 66.958 46.3019 64.3133 46.3019H60.3231L62.7728 33.6976H67.2673C69.7599 33.6976 71.4207 34.1575 72.2516 35.0776C73.0812 35.9983 73.2788 37.5775 72.8447 39.816Z" fill="black"/>
</svg>
