<svg width="80" height="80" viewBox="0 0 80 80" fill="none" xmlns="http://www.w3.org/2000/svg">
<path d="M75.4367 23.4589C75.4362 22.1173 75.1492 20.9317 74.569 19.9143C73.999 18.9137 73.1452 18.0751 72.0003 17.412C62.549 11.9623 53.0883 6.52927 43.64 1.07399C41.0928 -0.396563 38.6231 -0.342951 36.0947 1.14872C32.3328 3.36732 13.498 14.1581 7.88559 17.4089C5.57421 18.7471 4.44949 20.7948 4.44893 23.4565C4.44531 34.4163 4.44893 45.3756 4.44531 56.3356C4.44531 57.6479 4.72059 58.8104 5.27531 59.8127C5.84559 60.8435 6.71115 61.7051 7.88254 62.3832C13.4954 65.634 32.3326 76.424 36.0936 78.6432C38.6231 80.1356 41.0928 80.1889 43.6408 78.7179C53.0895 73.2623 62.5506 67.8296 72.0034 62.3799C73.1747 61.702 74.0403 60.8399 74.6106 59.8099C75.1644 58.8076 75.4403 57.6451 75.4403 56.3327C75.4403 56.3327 75.4403 34.4189 75.4367 23.4589Z" fill="#A179DC"/>
<path d="M40.0496 39.7893L5.27344 59.8126C5.84372 60.8436 6.70928 61.7052 7.88066 62.3833C13.4934 65.6341 32.3306 76.4241 36.0918 78.6433C38.6212 80.1357 41.0909 80.189 43.639 78.718C53.0876 73.2624 62.5488 67.8297 72.0014 62.38C73.1729 61.7021 74.0385 60.84 74.6088 59.81L40.0496 39.7893Z" fill="#280068"/>
<path d="M75.4322 23.459C75.4317 22.1174 75.1447 20.9318 74.5645 19.9143L40.0469 39.7892L74.6061 59.8099C75.1599 58.8076 75.4353 57.6451 75.4358 56.3326C75.4358 56.3326 75.4358 34.419 75.4322 23.459Z" fill="#390091"/>
<path d="M60.5281 32.304V36.0466H64.2707V32.304H66.1421V36.0466H69.8849V37.918H66.1421V41.6606H69.8849V43.5321H66.1421V47.2748H64.2707V43.5321H60.5281V47.2748H58.6567V43.5321H54.9141V41.6606H58.6567V37.918H54.9141V36.0466H58.6567V32.304H60.5281ZM64.2707 37.918H60.5281V41.6606H64.2707V37.918Z" fill="white"/>
<path d="M40.1234 13.5071C49.8856 13.5071 58.4088 18.8088 62.974 26.6893L62.9294 26.6135L51.4437 33.2269C49.1808 29.3953 45.0321 26.8096 40.2733 26.7564L40.1234 26.7555C32.8664 26.7555 26.9829 32.6387 26.9829 39.8959C26.9829 42.2691 27.6156 44.4936 28.716 46.4151C30.9809 50.3693 35.2389 53.0364 40.1234 53.0364C45.0381 53.0364 49.3204 50.3355 51.5738 46.3389L51.5192 46.4348L62.9876 53.0788C58.4725 60.8925 50.0661 66.1779 40.4174 66.2832L40.1234 66.2848C30.3305 66.2848 21.783 60.9504 17.2294 53.0283C15.0064 49.1608 13.7344 44.6771 13.7344 39.8959C13.7344 25.3219 25.5489 13.5071 40.1234 13.5071Z" fill="white"/>
</svg>
