<svg width="80" height="80" viewBox="0 0 80 80" fill="none" xmlns="http://www.w3.org/2000/svg">
<path d="M4.06533 40.3297C3.8613 40.1129 3.61264 39.9408 3.33848 39.8197C3.06432 39.6985 2.77102 39.6411 2.47136 39.6411C2.17169 39.6348 1.8784 39.6985 1.60424 39.8133C1.33007 39.9343 1.08141 40.1066 0.877383 40.3233C0.666979 40.5337 0.501205 40.7823 0.392815 41.0566C0.284424 41.3371 0.227042 41.6303 0.227042 41.9237C0.220666 42.2234 0.278049 42.5166 0.392815 42.7907C0.507581 43.065 0.673353 43.3137 0.883759 43.5241C1.08785 43.7409 1.33516 43.9125 1.60973 44.0278C1.88429 44.1432 2.18 44.1995 2.47773 44.1935C2.77484 44.1951 3.0692 44.1366 3.34312 44.0217C3.61704 43.9066 3.86488 43.7373 4.0717 43.5241C4.28849 43.32 4.45426 43.0713 4.56902 42.7971C4.6838 42.523 4.74117 42.2297 4.74117 41.9301C4.74117 41.6303 4.6838 41.3371 4.56902 41.0629C4.44788 40.7823 4.2821 40.5337 4.06533 40.3297ZM30.7484 35.1525C30.7165 36.5807 30.7866 38.0153 30.9525 39.4371H30.876C30.6974 39.0863 30.3021 38.4361 29.6964 37.4861L15.1593 14.6667H10.7473V43.7982H14.1392V22.7386C14.1774 21.4061 14.1201 20.0735 13.9798 18.7409H14.1073C14.3496 19.3785 14.6621 19.9906 15.0318 20.5645L29.9642 43.7982H34.1404V14.6667H30.7484V35.1525ZM57.1382 40.5975H45.1516V30.5045H55.6398V27.4313H45.1516V17.7526H56.405V14.6667H41.6766V43.7982H57.1192L57.1382 40.5975ZM59.7332 14.6667V17.7526H68.0857V43.7982H71.4776V17.7526H79.9257V14.6667H59.7332ZM26.4893 51.0411C25.6421 51.3793 24.8769 51.8945 24.245 52.5523C23.5946 53.2473 23.0846 54.0634 22.753 54.9623C22.4216 55.8614 22.2749 56.8114 22.3132 57.7614C22.2493 59.5211 22.8614 61.2426 24.0346 62.5561C24.6212 63.1745 25.3353 63.6527 26.1258 63.9715C26.9165 64.2903 27.7645 64.4306 28.6125 64.3923C29.8877 64.437 31.1565 64.1692 32.3105 63.6081L32.3233 62.1225C31.2649 62.741 30.0598 63.047 28.8357 63.0151C28.1789 63.0406 27.5222 62.9258 26.9165 62.6772C26.3108 62.4286 25.7625 62.046 25.3161 61.5614C24.3829 60.4773 23.9033 59.0753 23.9772 57.6466C23.9008 56.1356 24.4172 54.6563 25.4118 53.5214C25.8836 52.9986 26.4638 52.5906 27.1078 52.3099C27.7542 52.035 28.4522 51.9025 29.1545 51.921C30.2702 51.902 31.3669 52.1761 32.3424 52.7181V51.1177C31.3306 50.7098 30.2446 50.5186 29.1545 50.5566C28.2426 50.5439 27.3309 50.7033 26.4893 51.0411ZM42.3844 55.6063C41.9582 55.1582 41.4401 54.8075 40.8656 54.5786C40.291 54.3497 39.6738 54.2478 39.0562 54.2802C38.3994 54.2482 37.7492 54.3566 37.137 54.5926C36.525 54.8285 35.9702 55.1855 35.4985 55.6382C35.0394 56.1483 34.6888 56.7413 34.4592 57.3915C34.2297 58.0419 34.134 58.7242 34.1786 59.4128C34.1149 60.7198 34.5676 62.0014 35.4346 62.9769C35.8682 63.4424 36.391 63.8121 36.9777 64.0608C37.5642 64.303 38.1954 64.4242 38.8266 64.3988C39.4706 64.4178 40.1146 64.2967 40.714 64.0481C41.3133 63.7994 41.8489 63.4231 42.2888 62.945C43.1829 61.937 43.6454 60.6182 43.5768 59.2725C43.6532 57.9335 43.2261 56.6265 42.3844 55.6063ZM41.2176 62.1544C40.9372 62.4782 40.5861 62.7334 40.1914 62.9004C39.7968 63.0673 39.3692 63.1414 38.9414 63.1171C38.5016 63.1362 38.068 63.0534 37.6662 62.8876C37.2646 62.7154 36.9076 62.4605 36.6142 62.1289C36.0032 61.3725 35.6962 60.4153 35.7534 59.4446C35.6961 58.4437 36.0021 57.4554 36.6142 56.6647C36.9012 56.3331 37.2582 56.0718 37.6598 55.8933C38.0616 55.7211 38.5016 55.6382 38.935 55.6574C39.3686 55.6318 39.7958 55.7147 40.1912 55.8869C40.5864 56.059 40.937 56.3205 41.2176 56.6519C41.797 57.4535 42.0789 58.4321 42.0146 59.4192C42.0784 60.3882 41.7978 61.3638 41.2176 62.1544ZM48.6073 54.9815C48.129 55.4087 47.7784 55.9634 47.6062 56.5818V54.5798H46.0122V64.1692H47.6062V59.2789C47.5553 58.3926 47.7848 57.5063 48.2566 56.7539C48.4288 56.4798 48.6582 56.2504 48.9389 56.0909C49.2194 55.9315 49.5318 55.8358 49.8506 55.8296C50.2586 55.7977 50.6668 55.9059 51.011 56.1356V54.5543C50.7177 54.4587 50.4117 54.4141 50.1056 54.4268C49.5573 54.4205 49.0281 54.6181 48.6073 54.9815ZM60.3389 58.9409C60.4154 57.7232 60.052 56.5245 59.3188 55.5553C58.9553 55.1473 58.509 54.8221 58.0053 54.6117C57.5017 54.4013 56.9597 54.3057 56.4177 54.3376C55.8184 54.3185 55.219 54.4395 54.6644 54.6818C54.1161 54.9241 53.6252 55.2875 53.2298 55.7466C52.3641 56.7566 51.915 58.0582 51.9737 59.3873C51.8909 60.7134 52.3053 62.0269 53.1342 63.0598C53.5358 63.4997 54.0332 63.8439 54.5814 64.0735C55.1298 64.303 55.7292 64.3988 56.3221 64.3731C57.5017 64.4306 58.6685 64.1118 59.6504 63.4614V62.0205C58.8114 62.7021 57.7664 63.0797 56.6856 63.0917C56.2712 63.1171 55.8502 63.0534 55.4614 62.9004C55.0725 62.7473 54.7154 62.5242 54.4221 62.2245C53.8525 61.5351 53.5633 60.6563 53.6124 59.7634H60.3517L60.3389 58.9409ZM53.5996 58.4946C53.6825 57.7359 54.0141 57.0218 54.5369 56.4671C54.7712 56.2153 55.0556 56.0154 55.3718 55.8803C55.6881 55.7453 56.0293 55.6781 56.3732 55.6829C56.7046 55.6637 57.0298 55.7211 57.3358 55.8486C57.642 55.9761 57.9097 56.1674 58.1265 56.4161C58.5728 57.009 58.796 57.736 58.7641 58.4756L53.5996 58.4946Z" fill="#621EE5"/>
</svg>
