<svg width="80" height="80" viewBox="0 0 80 80" fill="none" xmlns="http://www.w3.org/2000/svg">
<g clip-path="url(#clip0_5235_750)">
<path d="M64 0H16C7.16344 0 0 7.16344 0 16V64C0 72.8366 7.16344 80 16 80H64C72.8366 80 80 72.8366 80 64V16C80 7.16344 72.8366 0 64 0Z" fill="#CC0000"/>
<mask id="mask0_5235_750" style="mask-type:luminance" maskUnits="userSpaceOnUse" x="10" y="21" width="66" height="39">
<path d="M75.0561 21.3333H10.2734V59.2959H75.0561V21.3333Z" fill="white"/>
</mask>
<g mask="url(#mask0_5235_750)">
<path d="M12.1797 59.2959H33.7245C33.7245 59.2959 29.6065 40.5055 43.2425 32.8966C46.2152 31.4512 55.6785 26.0514 71.1691 37.5056C71.66 37.0964 72.1236 36.7692 72.1236 36.7692C72.1236 36.7692 57.9421 22.6151 42.1516 24.1968C34.2155 24.9059 24.4521 32.133 18.7249 41.6782C12.9978 51.2234 12.1797 59.2959 12.1797 59.2959Z" fill="white"/>
<path d="M12.1797 59.2959H33.7245C33.7245 59.2959 29.6065 40.5055 43.2425 32.8966C46.2152 31.4512 55.6785 26.0514 71.1691 37.5056C71.66 37.0964 72.1236 36.7692 72.1236 36.7692C72.1236 36.7692 57.9421 22.6151 42.1516 24.1968C34.2155 24.9059 24.4521 32.133 18.7249 41.6782C12.9978 51.2234 12.1797 59.2959 12.1797 59.2959Z" fill="white"/>
<path d="M12.1797 59.296H33.7245C33.7245 59.296 29.6065 40.5056 43.2425 32.8967C46.2152 31.4512 55.6785 26.0513 71.1691 37.5056C71.66 37.0965 72.1236 36.7693 72.1236 36.7693C72.1236 36.7693 57.9421 22.615 42.1516 24.1969C34.1883 24.906 24.4248 32.133 18.6977 41.6782C12.9706 51.2234 12.1797 59.296 12.1797 59.296ZM57.0695 25.7241L57.1785 23.8969C56.9331 23.7605 56.2513 23.4333 54.5332 22.9424L54.4241 24.7424C55.324 25.0423 56.1968 25.3696 57.0695 25.7241Z" fill="white"/>
<path d="M54.4814 31.5058L54.3723 33.2239C55.2723 33.2511 56.1723 33.3602 57.0722 33.5511L57.1814 31.8603C56.2541 31.6694 55.3541 31.5603 54.4814 31.5058ZM44.3907 22.9969H44.6635L44.1181 21.3333C43.2726 21.3333 42.3999 21.3878 41.4999 21.4969L42.0181 23.1059C42.809 23.0241 43.5998 22.9969 44.3907 22.9969ZM45.6998 33.033L46.3271 34.9147C47.1179 34.5329 47.9089 34.2057 48.6997 33.9602L48.0998 32.1602C47.1725 32.433 46.3817 32.733 45.6998 33.033ZM33.3183 25.8605L32.0911 23.9786C31.4093 24.3331 30.7002 24.715 29.9638 25.1514L31.2183 27.0603C31.9274 26.6241 32.6093 26.215 33.3183 25.8605ZM38.9091 38.1329L40.2181 40.0965C40.6818 39.4146 41.2271 38.7874 41.8271 38.1601L40.5999 36.3057C39.9727 36.8783 39.3999 37.5055 38.9091 38.1329ZM34.9546 46.9145L37.1637 48.6598C37.2727 47.5962 37.4637 46.5326 37.7363 45.469L35.7727 43.9145C35.4182 44.9235 35.1729 45.9326 34.9546 46.9145ZM23.0095 33.9602L21.0731 32.2694C20.3641 32.9511 19.6823 33.633 19.055 34.3147L21.155 36.1147C21.7277 35.3783 22.355 34.6421 23.0095 33.9602ZM14.7733 46.1509L11.637 45.0054C11.1189 46.1781 10.5462 47.5417 10.2734 48.2781L13.4097 49.4234C13.7642 48.4962 14.337 47.1599 14.7733 46.1509ZM34.5455 53.8415C34.6001 55.287 34.7365 56.4597 34.8729 57.2778L38.1454 58.4505C37.9001 57.3869 37.6546 56.1869 37.4909 54.9051L34.5455 53.8415Z" fill="white"/>
</g>
</g>
<defs>
<clipPath id="clip0_5235_750">
<rect width="80" height="80" fill="white"/>
</clipPath>
</defs>
</svg>
