<svg width="109" height="80" viewBox="0 0 109 80" fill="none" xmlns="http://www.w3.org/2000/svg">
<g clip-path="url(#clip0_5235_781)">
<path d="M8.14286 30.5982C7.97321 30.5982 7.80357 30.4286 7.97321 30.2589L9.16071 28.9018C9.33036 28.7322 9.5 28.5625 9.66964 28.5625H28.5C28.6696 28.5625 28.8393 28.7322 28.6696 28.9018L27.8214 30.2589C27.6517 30.4286 27.4821 30.5982 27.3126 30.5982H8.14286ZM0.169643 35.5179C0 35.5179 0 35.3482 0 35.1786L1.1875 33.8215C1.1875 33.6518 1.52679 33.4822 1.69643 33.4822H25.7857C25.9553 33.4822 26.125 33.6518 26.125 33.8215L25.7857 35.0089C25.7857 35.1786 25.4464 35.3482 25.2767 35.3482L0.169643 35.5179ZM13.0625 40.2679C12.8929 40.2679 12.7232 40.0982 12.8929 39.9286L13.5714 38.7411C13.7411 38.5715 13.9107 38.4018 14.0804 38.4018H24.5983C24.7679 38.4018 24.9374 38.5715 24.9374 38.7411L24.7679 39.9286C24.7679 40.0982 24.5981 40.2679 24.4286 40.2679H13.0625ZM67.8571 29.5804L59.0357 31.9554C58.1874 32.1251 58.1876 32.2946 57.509 31.4465C56.6607 30.5982 56.1519 29.9196 54.9643 29.4108C51.5714 27.7144 48.3481 28.2232 45.4643 30.2589C41.9017 32.6339 40.0357 36.0268 40.0357 40.2679C40.0357 44.5089 42.9196 47.9018 47.1607 48.5803C50.7231 49.0893 53.7767 47.7322 56.1517 45.0179C56.6607 44.5089 57 43.8304 57.509 42.9822H47.3303C46.1429 42.9822 45.9731 42.3036 46.3124 41.4554C46.991 39.7589 48.3481 37.0446 49.0267 35.6875C49.1964 35.3482 49.5357 34.8394 50.384 34.8394H69.5536C69.3839 36.1965 69.3839 37.7232 69.2143 39.0804C68.7053 42.8125 67.1786 46.3751 64.8036 49.4286C61.0714 54.5179 55.9821 57.5715 49.7053 58.4196C44.4464 59.0982 39.6964 58.0804 35.4553 54.8572C31.5536 51.9732 29.3481 47.9018 28.6696 43.1518C27.991 37.3839 29.6874 32.2946 33.0803 27.7144C36.8126 22.7946 41.7321 19.7411 47.8393 18.5536C52.759 17.7054 57.509 18.2144 61.9197 21.0982C64.8036 22.9644 66.6696 25.5089 68.0267 28.5625C68.7053 29.2411 68.5357 29.4108 67.8571 29.5804Z" fill="#00ACD7"/>
<path d="M85.3278 58.9285C80.5778 58.7588 76.1671 57.4016 72.435 54.3481C69.3814 51.6338 67.3457 48.2409 66.6671 44.1695C65.6493 38.2321 67.3457 32.9731 70.9083 28.2231C74.81 23.1338 79.3904 20.5892 85.6671 19.4016C91.0957 18.3838 96.185 19.0624 100.765 22.1159C105.006 24.9999 107.551 28.9016 108.23 33.8214C109.078 40.9464 107.042 46.7142 102.123 51.8035C98.56 55.3659 94.319 57.5714 89.3993 58.5892C88.2118 58.5892 86.685 58.7588 85.3278 58.9285ZM97.8814 37.5535C97.8814 36.8749 97.8814 36.3659 97.7118 35.8571C96.694 30.5981 91.944 27.7142 86.8547 28.9016C81.935 30.0892 78.7118 33.1428 77.5243 38.0624C76.5064 42.1338 78.5421 46.3749 82.444 48.0714C85.3278 49.2588 88.2118 49.2588 91.0957 47.7321C95.3368 45.3571 97.7118 41.9642 97.8814 37.5535Z" fill="#00ACD7"/>
</g>
<defs>
<clipPath id="clip0_5235_781">
<rect width="108.571" height="80" fill="white"/>
</clipPath>
</defs>
</svg>
