<svg width="80" height="80" viewBox="0 0 80 80" fill="none" xmlns="http://www.w3.org/2000/svg">
<path d="M36.739 1.01556C38.7141 -0.114937 41.2866 -0.120043 43.2599 1.01556C53.1875 6.6252 63.1183 12.2261 73.0443 17.8392C74.9113 18.8908 76.1601 20.9685 76.141 23.1197V56.8694C76.155 59.1097 74.7827 61.2372 72.8131 62.2649C62.9181 67.8437 53.0282 73.4292 43.1349 79.008C41.1189 80.1605 38.4949 80.0717 36.5419 78.8246C33.5754 77.1049 30.6038 75.3937 27.6369 73.6757C27.0307 73.3142 26.3473 73.0266 25.9193 72.4388C26.2977 71.9288 26.9742 71.8652 27.5241 71.6425C28.7623 71.2488 29.8997 70.6166 31.0373 70.0033C31.3249 69.8065 31.6761 69.882 31.9518 70.0581C34.4886 71.5126 37.0029 73.0093 39.5482 74.4498C40.0911 74.7634 40.6409 74.3472 41.105 74.0885C50.8151 68.6005 60.5371 63.1333 70.2454 57.6437C70.6051 57.4706 70.8041 57.0888 70.7749 56.6948C70.7817 45.5614 70.7765 34.4261 70.7782 23.2928C70.8194 22.8457 70.5606 22.4346 70.1563 22.2516C60.2957 16.6984 50.4401 11.1367 40.581 5.58208C40.4102 5.46465 40.2079 5.40164 40.0006 5.40135C39.7933 5.40104 39.5907 5.46345 39.4197 5.58039C29.5606 11.1367 19.7067 16.7036 9.8477 22.2564C9.44487 22.4397 9.17451 22.844 9.22246 23.2928C9.22415 34.4261 9.22246 45.5614 9.22246 56.6964C9.20537 56.8886 9.24759 57.0816 9.34345 57.249C9.43931 57.4166 9.58421 57.5508 9.75863 57.6334C12.3896 59.1253 15.0239 60.6068 17.6565 62.0936C19.1397 62.8918 20.9606 63.3662 22.5946 62.7546C24.0366 62.2374 25.0474 60.766 25.0199 59.2349C25.0335 48.1665 25.0131 37.0964 25.0301 26.0297C24.9941 25.5384 25.4602 25.1325 25.9379 25.1786C27.2021 25.1702 28.4678 25.1617 29.7319 25.1821C30.2597 25.1702 30.6227 25.6993 30.5575 26.1942C30.5523 37.3328 30.5711 48.4714 30.549 59.6098C30.5523 62.5784 29.3329 65.8085 26.587 67.2609C23.2043 69.0133 19.0233 68.6417 15.6815 66.9614C12.7884 65.5174 10.0276 63.8133 7.18586 62.2664C5.21111 61.2442 3.84571 59.1084 3.85962 56.8697V23.1197C3.83891 20.924 5.13735 18.8085 7.06246 17.7721C16.9558 12.1889 26.8474 6.60137 36.739 1.01556Z" fill="#8CC84B"/>
<path d="M45.3712 24.3942C49.6861 24.1165 54.3054 24.2297 58.1882 26.3554C61.1945 27.9843 62.8612 31.403 62.9142 34.7429C62.8302 35.1934 62.3593 35.4419 61.9292 35.411C60.6773 35.4093 59.425 35.4281 58.1732 35.4025C57.6421 35.4229 57.3334 34.9333 57.2668 34.4638C56.907 32.8657 56.0356 31.283 54.5314 30.5122C52.2225 29.3562 49.5454 29.4143 47.0277 29.4385C45.1897 29.5361 43.2132 29.6953 41.656 30.7761C40.4605 31.5949 40.0974 33.2475 40.5241 34.5786C40.9264 35.5343 42.0297 35.8427 42.9324 36.127C48.1324 37.487 53.6426 37.3517 58.7434 39.1415C60.8552 39.8711 62.921 41.2895 63.6438 43.5006C64.5893 46.4641 64.1749 50.0062 62.0665 52.3851C60.3568 54.3429 57.8665 55.4085 55.3828 55.9871C52.0788 56.7239 48.6498 56.7426 45.2944 56.4155C42.1392 56.0558 38.8557 55.2269 36.42 53.0771C34.3372 51.2686 33.3199 48.4507 33.4209 45.731C33.4449 45.2717 33.9023 44.9514 34.3423 44.9891C35.6031 44.9789 36.8637 44.9755 38.1244 44.9909C38.628 44.9549 39.0013 45.3899 39.027 45.8646C39.2597 47.3871 39.832 48.9851 41.1596 49.8878C43.7218 51.5409 46.9369 51.4277 49.8708 51.4739C52.3015 51.3662 55.03 51.3335 57.0134 49.727C58.06 48.8107 58.3701 47.2777 58.0872 45.9587C57.7809 44.8453 56.616 44.3265 55.6157 43.9871C50.4824 42.3633 44.9105 42.9526 39.8268 41.1162C37.7631 40.3869 35.7672 39.0078 34.9744 36.8875C33.868 33.8867 34.3749 30.175 36.7042 27.8762C38.9754 25.5897 42.2541 24.7094 45.3712 24.3942Z" fill="#8CC84B"/>
</svg>
