<svg width="80" height="80" viewBox="0 0 80 80" fill="none" xmlns="http://www.w3.org/2000/svg">
<g clip-path="url(#clip0_5235_808)">
<mask id="mask0_5235_808" style="mask-type:luminance" maskUnits="userSpaceOnUse" x="0" y="0" width="80" height="80">
<path d="M80 0H0V80H80V0Z" fill="white"/>
</mask>
<g mask="url(#mask0_5235_808)">
<path d="M47.1049 0.15625C46.5264 0.15625 45.9893 0.280214 45.4935 0.445491C46.5471 1.14793 47.1256 2.07764 47.4148 3.13131C47.4356 3.27593 47.4768 3.37924 47.4975 3.52385C47.5183 3.64781 47.5388 3.77177 47.5388 3.89573C47.6215 5.71383 47.0636 5.94108 46.6711 7.01541C46.0719 8.39964 46.2372 9.88717 46.9603 11.0855C47.0223 11.2301 47.1049 11.3954 47.2083 11.54C46.4231 6.31297 50.7824 5.52788 51.5881 3.89573C51.6501 2.47019 50.4725 1.51981 49.5428 0.858693C48.6544 0.321531 47.8487 0.15625 47.1049 0.15625ZM53.6748 1.33388C53.5921 1.80905 53.6541 1.68509 53.6336 1.93303C53.6128 2.09831 53.6128 2.30491 53.5923 2.47019C53.5509 2.63547 53.5096 2.80075 53.4476 2.96603C53.4064 3.13131 53.3444 3.29659 53.2824 3.46187C53.1997 3.62716 53.1377 3.77177 53.0551 3.93705C52.9931 4.01973 52.9517 4.10233 52.8899 4.18497C52.8485 4.24696 52.8072 4.30893 52.7659 4.37092C52.6625 4.51555 52.5592 4.66016 52.456 4.78412C52.332 4.90808 52.2287 5.05269 52.084 5.156C52.084 5.17669 52.084 5.17669 52.084 5.17669C51.9601 5.27999 51.8361 5.40395 51.6915 5.50725C51.2576 5.83781 50.7619 6.08573 50.3073 6.39564C50.1627 6.49893 50.018 6.58159 49.8941 6.70555C49.7495 6.80884 49.6255 6.91213 49.5016 7.03609C49.3569 7.16005 49.2536 7.28403 49.1297 7.42864C49.0264 7.55261 48.9024 7.69723 48.8197 7.84185C48.7165 7.98647 48.6132 8.13109 48.5305 8.27571C48.4479 8.44099 48.3859 8.58561 48.3032 8.75089C48.2413 8.91616 48.1793 9.06079 48.138 9.22607C48.076 9.41201 48.0347 9.57729 47.9933 9.74257C47.9727 9.82525 47.9727 9.92852 47.9521 10.0112C47.9313 10.0938 47.9313 10.1764 47.9108 10.2591C47.9108 10.4244 47.8901 10.6103 47.8901 10.7756C47.8901 10.8995 47.8901 11.0235 47.9108 11.1475C47.9108 11.3127 47.9315 11.478 47.9728 11.664C47.9935 11.8292 48.0348 11.9945 48.0761 12.1598C48.138 12.3251 48.1793 12.4904 48.2413 12.6557C48.2827 12.759 48.3447 12.8623 48.386 12.9449L43.6341 11.1061C42.8284 10.8789 42.0433 10.6723 41.2376 10.4863C40.8037 10.383 40.3699 10.2797 39.936 10.1764C38.6964 9.92852 37.4361 9.74259 36.1759 9.61863C36.1345 9.61863 36.1139 9.59793 36.0725 9.59793C34.8329 9.47397 33.614 9.41199 32.3744 9.41199C31.4653 9.41199 30.5563 9.45328 29.6679 9.51529C28.4076 9.59796 27.1473 9.76321 25.8871 9.96981C25.5772 10.0111 25.2673 10.0731 24.9573 10.1351C24.3169 10.2591 23.6971 10.4037 23.098 10.5483C22.7881 10.631 22.4781 10.7136 22.1683 10.7962C21.8584 10.9202 21.5692 11.0648 21.2799 11.1888C21.0527 11.2921 20.8253 11.3954 20.5981 11.4987C20.5568 11.5194 20.5155 11.5194 20.4948 11.54C20.2883 11.6433 20.1023 11.7259 19.9163 11.8292C19.8544 11.8499 19.8131 11.8705 19.7717 11.8912C19.5444 11.9945 19.3172 12.1184 19.1312 12.2217C18.9867 12.2837 18.842 12.3664 18.718 12.4283C18.656 12.4696 18.5735 12.511 18.5321 12.5316C18.3461 12.6349 18.1603 12.7382 17.9949 12.8415C17.8089 12.9448 17.6437 13.0481 17.4991 13.1514C17.3545 13.2547 17.2099 13.3373 17.0859 13.4407C17.0652 13.4613 17.0445 13.4613 17.0239 13.482C16.9 13.5647 16.7553 13.6679 16.6313 13.7712C16.6313 13.7712 16.6107 13.7919 16.5901 13.8125C16.4868 13.8952 16.3835 13.9777 16.2801 14.0604C16.2389 14.0811 16.1975 14.1224 16.1563 14.1431C16.0529 14.2257 15.9496 14.3291 15.8463 14.4117C15.8256 14.4529 15.7844 14.4736 15.7636 14.4944C15.6397 14.6183 15.5157 14.7216 15.3917 14.8456C15.3711 14.8456 15.3711 14.8663 15.3505 14.8868C15.2265 14.9901 15.1025 15.1141 14.9785 15.2381C14.9579 15.2588 14.9579 15.2793 14.9373 15.2793C14.834 15.3827 14.7307 15.486 14.6273 15.6099C14.5861 15.6512 14.5241 15.6927 14.4828 15.7339C14.3795 15.8579 14.2555 15.9819 14.1316 16.1057C14.1108 16.1471 14.0696 16.1677 14.0489 16.2091C13.8836 16.3744 13.7389 16.5396 13.5737 16.7049C13.5531 16.7256 13.5324 16.7463 13.5117 16.7669C13.1811 17.1181 12.8299 17.4693 12.4581 17.7792C12.0862 18.1099 11.6936 18.4197 11.3011 18.6883C10.8879 18.9776 10.4953 19.2255 10.0615 19.4733C9.64828 19.7007 9.21441 19.9072 8.75989 20.0932C8.32603 20.2791 7.87151 20.4444 7.41699 20.5891C6.54925 20.7749 5.66087 21.1261 4.89644 21.1881C4.73117 21.1881 4.54523 21.2295 4.37995 21.2501C4.194 21.2915 4.02872 21.3328 3.86344 21.3741C3.69816 21.4361 3.53288 21.498 3.3676 21.56C3.20232 21.622 3.03704 21.7047 2.87176 21.7873C2.72713 21.8907 2.56185 21.9732 2.41723 22.0765C2.27261 22.1799 2.12799 22.3039 2.00403 22.4277C1.85941 22.5311 1.71479 22.6757 1.59083 22.7996C1.46687 22.9443 1.34291 23.0683 1.23961 23.2128C1.13631 23.3781 1.01235 23.5228 0.929701 23.688C0.826403 23.8327 0.723105 23.998 0.640461 24.1632C0.557787 24.3492 0.475181 24.5144 0.413201 24.7004C0.35122 24.8656 0.28924 25.0516 0.227259 25.2376C0.185971 25.4028 0.144585 25.5681 0.123961 25.7333C0.123961 25.7541 0.103269 25.7747 0.103269 25.7953C0.0619804 25.9813 0.0619804 26.2292 0.0412877 26.3532C0.0205957 26.4979 0 26.6217 0 26.7664C0 26.8491 0 26.9524 0.0206919 27.0349C0.0413839 27.1796 0.0619795 27.3036 0.103365 27.4276C0.144653 27.5515 0.186039 27.6755 0.247981 27.7995C0.247981 27.8201 0.247981 27.8201 0.247981 27.8201C0.309961 27.944 0.392605 28.068 0.47524 28.192C0.557915 28.316 0.640529 28.4399 0.743827 28.5639C0.847125 28.6672 0.971087 28.7911 1.09505 28.8944C1.21901 29.0184 1.34297 29.1217 1.48759 29.2249C1.98344 29.6588 2.1074 29.8035 2.74785 30.134C2.85116 30.196 2.95447 30.2373 3.07843 30.2993C3.09912 30.2993 3.11972 30.32 3.1404 30.32C3.1404 30.3613 3.1404 30.382 3.16111 30.4233C3.1818 30.5885 3.22308 30.7539 3.2644 30.9192C3.30569 31.1051 3.36771 31.2704 3.42969 31.4149C3.49167 31.5389 3.53299 31.6629 3.59497 31.7869C3.61565 31.8281 3.63625 31.8696 3.65695 31.8901C3.73963 32.0555 3.82223 32.2001 3.90487 32.3447C4.00817 32.4893 4.11147 32.634 4.21476 32.7785C4.31807 32.9025 4.44203 33.0472 4.56599 33.1711C4.68995 33.2951 4.81391 33.3984 4.95853 33.5223C4.95853 33.5223 4.97923 33.5431 4.99983 33.5431C5.12379 33.6464 5.24775 33.7496 5.37171 33.8323C5.51632 33.9356 5.66095 34.0183 5.82623 34.1008C5.97085 34.1836 6.13613 34.2661 6.30141 34.3281C6.42537 34.3901 6.56999 34.4315 6.71461 34.4728C6.73531 34.4935 6.75591 34.4935 6.79729 34.514C6.87996 34.5348 6.98321 34.5553 7.06587 34.576C7.00388 35.6916 6.98319 36.7453 7.14853 37.1172C7.33447 37.5304 8.24352 36.2701 9.15257 34.824C9.02861 36.2495 8.94596 37.9229 9.15257 38.4188C9.37983 38.9353 10.6194 37.3239 11.6938 35.5471C26.3417 32.1588 39.7089 42.2823 41.1137 56.5791C40.8452 54.3477 38.0973 53.1081 36.8372 53.418C36.2173 54.9469 35.1636 56.9096 33.4696 58.1285C33.6141 56.7649 33.5523 55.3601 33.2629 53.9965C32.8084 55.8972 31.92 57.674 30.7011 59.2029C28.7384 59.3475 26.7756 58.3971 25.7427 56.9716C25.66 56.9096 25.6393 56.7856 25.5773 56.7031C25.5153 56.5584 25.4533 56.4137 25.4121 56.2692C25.3501 56.1245 25.3088 55.9799 25.2881 55.8353C25.2675 55.6907 25.2675 55.546 25.2675 55.3808C25.2675 55.2775 25.2675 55.1741 25.2675 55.0708C25.2881 54.9263 25.3295 54.7816 25.3707 54.6369C25.412 54.4924 25.4533 54.3477 25.5153 54.2031C25.598 54.0585 25.66 53.9139 25.7633 53.7693C26.1145 52.7776 26.1145 51.9719 25.474 51.4967C25.3501 51.414 25.2261 51.352 25.0815 51.29C24.9988 51.2693 24.8956 51.2281 24.8129 51.2073C24.7509 51.1867 24.7096 51.1661 24.6476 51.1453C24.5029 51.1041 24.3584 51.0627 24.2137 51.0421C24.0691 51.0008 23.9245 50.9801 23.7799 50.9801C23.6353 50.9595 23.47 50.9388 23.3253 50.9388C23.2221 50.9388 23.1188 50.9595 23.0155 50.9595C22.8501 50.9595 22.7056 50.9803 22.5609 51.0215C22.4163 51.0423 22.2717 51.0628 22.1271 51.1041C21.9824 51.1455 21.8379 51.1868 21.6932 51.2488C21.5487 51.3108 21.4247 51.3728 21.28 51.4348C21.156 51.4967 21.0321 51.5793 20.8875 51.6413C16.0736 54.7817 18.9455 62.1367 22.2304 64.2647C20.9908 64.4919 19.7305 64.7605 19.3793 65.0291C19.3585 65.0497 19.338 65.0704 19.338 65.0704C20.2264 65.6076 21.1561 66.062 22.1271 66.4547C23.4493 66.8884 24.8543 67.2811 25.474 67.4463V67.4669C27.1888 67.8183 28.9243 67.9421 30.6804 67.8389C39.8328 67.1984 47.3325 60.236 48.696 51.0628C48.7373 51.2488 48.7787 51.414 48.82 51.6C48.882 51.9719 48.9647 52.3644 49.006 52.7569C49.006 52.7569 49.006 52.7569 49.006 52.7777C49.0472 52.9636 49.0679 53.1496 49.0887 53.3148C49.0887 53.3561 49.0887 53.3768 49.0887 53.3975C49.1093 53.5835 49.1299 53.7695 49.1299 53.9347C49.1505 54.162 49.1712 54.3892 49.1712 54.6165C49.1712 54.7197 49.1712 54.8231 49.1712 54.9471C49.1712 55.0504 49.1919 55.1743 49.1919 55.2776C49.1919 55.4016 49.1712 55.5255 49.1712 55.6495C49.1712 55.7528 49.1712 55.8561 49.1712 55.9387C49.1712 56.0833 49.1505 56.2073 49.1505 56.3519C49.1505 56.4345 49.1505 56.5172 49.1297 56.6205C49.1297 56.7652 49.1091 56.9097 49.1091 57.0751C49.0884 57.1371 49.0884 57.1989 49.0884 57.2609C49.0677 57.4263 49.0471 57.5709 49.0264 57.7361C49.0264 57.7981 49.0264 57.8601 49.0057 57.9221C48.9849 58.1287 48.9437 58.3147 48.9231 58.5212V58.542V58.5627C48.8817 58.7485 48.8404 58.9552 48.7991 59.1411C48.7991 59.1619 48.7991 59.1824 48.7991 59.2031C48.7577 59.3891 48.7164 59.5749 48.6751 59.7609C48.6751 59.7816 48.6544 59.8229 48.6544 59.8436C48.6132 60.0296 48.5717 60.2155 48.5099 60.4015C48.5099 60.4221 48.5099 60.4427 48.5099 60.4633C48.4479 60.67 48.3859 60.856 48.3445 61.0419C48.3239 61.0625 48.3239 61.0832 48.3239 61.0832C48.2619 61.2897 48.1999 61.4964 48.1379 61.7029C48.0552 61.9096 47.9933 62.0955 47.9107 62.3021C47.828 62.5087 47.766 62.7153 47.6833 62.9012C47.6007 63.1079 47.5181 63.2939 47.4355 63.5004H47.4148C47.3321 63.6864 47.2495 63.8929 47.1461 64.0789C47.1255 64.1409 47.1049 64.1821 47.0841 64.2235C47.0635 64.2443 47.0635 64.2648 47.0429 64.2855C45.7 66.992 43.7167 69.3679 41.2375 71.2273C41.0721 71.3305 40.9068 71.4545 40.7416 71.5785C40.7003 71.6197 40.6383 71.6405 40.5969 71.6819C40.4523 71.7851 40.3077 71.8884 40.1424 71.9917L40.2044 72.1157H40.2251C40.5143 72.0744 40.8036 72.0331 41.0928 71.9917H41.1135C41.6507 71.9091 42.1879 71.8057 42.7249 71.7025C42.8696 71.6817 43.0349 71.6405 43.1795 71.5992C43.2828 71.5784 43.3655 71.5579 43.4688 71.5372C43.6133 71.5165 43.758 71.4752 43.9027 71.4545C44.0265 71.4132 44.1505 71.3925 44.2745 71.3512C46.3405 70.8553 48.3445 70.1736 50.2659 69.3679C46.9809 73.8511 42.5804 77.4667 37.436 79.8425C39.8119 79.6772 42.1879 79.2847 44.4811 78.6236C52.8071 76.1651 59.8109 70.5661 64.0049 63.0252C63.1579 67.7977 61.2571 72.3429 58.4473 76.3096C60.4513 74.9873 62.2901 73.4585 63.9636 71.7231C68.5915 66.8887 71.6285 60.7525 72.6615 54.162C73.364 57.4263 73.5705 60.7939 73.2607 64.1201C88.1772 43.3155 74.5003 21.7463 68.7775 16.0647C68.7567 16.0235 68.7361 16.0028 68.7361 15.9615C68.7153 15.9821 68.7153 15.9821 68.7153 16.0027C68.7153 15.982 68.7153 15.982 68.6947 15.9615C68.6947 16.2093 68.674 16.4572 68.6535 16.7052C68.5915 17.1804 68.5295 17.6349 68.4468 18.0895C68.3435 18.544 68.2196 18.9984 68.0956 19.4529C67.9509 19.8868 67.7857 20.3413 67.5997 20.7752C67.4139 21.1884 67.2072 21.6223 66.98 22.0355C66.7527 22.428 66.5048 22.8412 66.2361 23.2131C65.9676 23.6057 65.6784 23.9776 65.3891 24.3288C65.0792 24.7007 64.7487 25.0312 64.4181 25.3617C64.2115 25.5477 64.0256 25.7131 63.8189 25.8783C63.6536 26.0229 63.5091 26.1468 63.3437 26.2915C62.9719 26.5807 62.6 26.8493 62.1868 27.0972C61.7943 27.3452 61.3811 27.5931 60.9679 27.7997C60.534 28.0063 60.1001 28.1923 59.6663 28.3781C59.2324 28.5435 58.7779 28.688 58.3233 28.812C57.8688 28.936 57.3936 29.0393 56.9391 29.1219C56.464 29.2045 55.9888 29.2459 55.5343 29.2872C55.2037 29.3079 54.8731 29.3285 54.5425 29.3285C54.0673 29.3285 53.5921 29.2872 53.1377 29.2459C52.6625 29.2045 52.1873 29.1425 51.7328 29.0392C51.2576 28.9565 50.8031 28.8327 50.3485 28.688H50.3279C50.7824 28.6467 51.2369 28.6053 51.6915 28.5227C52.1667 28.44 52.6212 28.3368 53.0756 28.2128C53.5301 28.0888 53.9847 27.9443 54.4185 27.7789C54.8731 27.6136 55.3069 27.4071 55.7201 27.2004C56.154 26.9939 56.5465 26.7665 56.9597 26.5187C57.3523 26.2501 57.7448 25.9815 58.1167 25.6923C58.4887 25.4031 58.8399 25.0931 59.1704 24.7625C59.5216 24.4527 59.8315 24.1015 60.1415 23.7503C60.4513 23.3784 60.7405 23.0064 61.0092 22.6345C61.0504 22.5725 61.0919 22.49 61.1331 22.428C61.3397 22.0975 61.5463 21.7668 61.7323 21.4363C61.9595 21.0231 62.1661 20.6099 62.352 20.176C62.538 19.7421 62.7033 19.3083 62.8479 18.8537C62.9925 18.4199 63.0959 17.9653 63.1991 17.5109C63.2819 17.0357 63.3644 16.5812 63.4057 16.1267C63.4471 15.6515 63.4884 15.1763 63.4884 14.7217C63.4884 14.3912 63.4677 14.0607 63.4471 13.7301C63.4059 13.2549 63.3439 12.8004 63.2819 12.3458C63.1992 11.8707 63.0959 11.4161 62.9719 10.9616C62.8273 10.5277 62.6827 10.0732 62.5175 9.63936C62.3521 9.20549 62.1455 8.77164 61.9389 8.35843C61.7116 7.94523 61.4844 7.53203 61.2365 7.13949C60.9679 6.74695 60.6993 6.37507 60.41 6.00317C60.1001 5.65196 59.7903 5.30073 59.4597 4.94952C59.2944 4.78424 59.1085 4.59829 58.9225 4.43301C57.9928 3.70991 57.0219 3.02812 56.0508 2.40832C55.9061 2.32565 55.7823 2.26369 55.6376 2.20171C54.9557 1.76785 54.3153 1.54047 53.6748 1.33388Z" fill="#E0234E"/>
</g>
</g>
<defs>
<clipPath id="clip0_5235_808">
<rect width="80" height="80" fill="white"/>
</clipPath>
</defs>
</svg>
