<svg width="80" height="80" viewBox="0 0 80 80" fill="none" xmlns="http://www.w3.org/2000/svg">
<g clip-path="url(#clip0_5235_1216)">
<path d="M76.85 58.1171C72.5815 60.342 50.4697 69.4336 45.7623 71.8878C41.0548 74.3423 38.4397 74.3186 34.7208 72.5407C31.0021 70.763 7.47129 61.258 3.23247 59.2319C1.11415 58.2196 0 57.3649 0 56.5575V48.4728C0 48.4728 30.6344 41.8039 35.58 40.0295C40.5252 38.2552 42.2411 38.1912 46.4496 39.7327C50.6588 41.275 75.8243 45.8152 79.9837 47.3387L79.9819 55.309C79.9824 56.1082 79.0227 56.9848 76.85 58.1171Z" fill="#912626"/>
<path d="M76.8484 50.0805C72.5801 52.3045 50.4691 61.3964 45.7616 63.8502C41.0544 66.305 38.4393 66.281 34.7207 64.5033C31.0017 62.7268 7.47184 53.2202 3.23333 51.1953C-1.00518 49.1692 -1.09391 47.7748 3.06961 46.1445C7.23315 44.5136 30.634 35.3326 35.5801 33.5582C40.5255 31.7846 42.2411 31.72 46.4495 33.2621C50.6584 34.8037 72.6376 43.5522 76.7965 45.0753C80.9569 46.6004 81.1165 47.856 76.8484 50.0805Z" fill="#C6302B"/>
<path d="M76.85 45.036C72.5815 47.2612 50.4697 56.3524 45.7623 58.8076C41.0548 61.261 38.4397 61.2373 34.7208 59.4596C31.0019 57.6828 7.47129 48.1769 3.23247 46.1508C1.11415 45.1384 0 44.2849 0 43.4772V35.3917C0 35.3917 30.6344 28.723 35.58 26.9486C40.5252 25.1744 42.2411 25.11 46.4496 26.6518C50.6591 28.1937 75.8245 32.7332 79.9837 34.2569L79.9819 42.2281C79.9824 43.027 79.0227 43.9037 76.85 45.036Z" fill="#912626"/>
<path d="M76.8484 36.9989C72.5801 39.2235 50.4691 48.3147 45.7616 50.7696C41.0544 53.2235 38.4393 53.1993 34.7207 51.4216C31.0017 49.6451 7.47184 40.1389 3.23333 38.1137C-1.00518 36.0881 -1.09391 34.6935 3.06961 33.0625C7.23315 31.4325 30.6343 22.2509 35.5801 20.4769C40.5255 18.7029 42.2411 18.6385 46.4495 20.1804C50.6584 21.722 72.6376 30.4699 76.7965 31.9937C80.9569 33.5184 81.1165 34.7744 76.8484 36.9989Z" fill="#C6302B"/>
<path d="M76.85 31.4696C72.5815 33.6941 50.4697 42.786 45.7623 45.2412C41.0548 47.6951 38.4397 47.6709 34.7208 45.8932C31.0019 44.1164 7.47129 34.6103 3.23247 32.5849C1.11415 31.5717 0 30.7179 0 29.9112V21.8253C0 21.8253 30.6344 15.1569 35.58 13.3829C40.5252 11.6083 42.2411 11.5446 46.4496 13.0862C50.6591 14.628 75.8245 19.1675 79.9837 20.6912L79.9819 28.662C79.9824 29.4603 79.0227 30.3371 76.85 31.4696Z" fill="#912626"/>
<path d="M76.8482 23.4328C72.58 25.6574 50.4689 34.7492 45.7614 37.2031C41.0542 39.657 38.4392 39.633 34.7205 37.8562C31.0018 36.0785 7.47169 26.5728 3.23349 24.5472C-1.00533 22.522 -1.09375 21.1271 3.06946 19.4965C7.23298 17.8662 30.6341 8.68584 35.58 6.9112C40.5253 5.13688 42.2409 5.07314 46.4494 6.61501C50.6582 8.15689 72.6374 16.9049 76.7964 18.4286C80.9568 19.9519 81.1164 21.2083 76.8482 23.4328Z" fill="#C6302B"/>
<path d="M49.7695 15.5677L42.8928 16.2815L41.3533 19.9858L38.867 15.8522L30.9264 15.1386L36.8514 13.0019L35.0737 9.72192L40.621 11.8915L45.8505 10.1793L44.437 13.5709L49.7695 15.5677ZM40.9428 33.5383L28.1089 28.2154L46.4989 25.3925L40.9428 33.5383ZM23.1496 17.6266C28.5781 17.6266 32.9788 19.3325 32.9788 21.4365C32.9788 23.541 28.5781 25.2466 23.1496 25.2466C17.7209 25.2466 13.3203 23.5407 13.3203 21.4365C13.3203 19.3325 17.7209 17.6266 23.1496 17.6266Z" fill="white"/>
<path d="M57.8906 16.5803L68.7746 20.8813L57.9 25.1782L57.8906 16.5803Z" fill="#621B1C"/>
<path d="M45.8516 21.3434L57.8928 16.5803L57.9022 25.1783L56.7216 25.6401L45.8516 21.3434Z" fill="#9A2928"/>
</g>
<defs>
<clipPath id="clip0_5235_1216">
<rect width="80" height="80" fill="white"/>
</clipPath>
</defs>
</svg>
