<svg width="80" height="80" viewBox="0 0 80 80" fill="none" xmlns="http://www.w3.org/2000/svg">
<path d="M48.6961 38.0164L34.1037 42.7813L21.4086 48.3844L17.8569 49.322C16.9523 50.1824 16.0039 51.0538 14.9782 51.9361C13.8531 52.9066 12.8053 53.7892 12 54.4288C11.1067 55.1348 9.78306 56.4584 9.11032 57.2964C8.10654 58.5538 7.31244 59.8884 6.97049 60.9142C6.3638 62.7673 6.66176 64.6422 7.83088 66.3741C9.3309 68.58 12.32 70.83 15.8053 72.363C17.5813 73.1464 20.5702 74.15 22.8202 74.7124C26.5593 75.661 33.7949 76.6868 37.7765 76.8413C38.5815 76.8744 39.6625 76.8744 39.7065 76.8413C39.7949 76.786 40.4126 75.606 41.1297 74.139C43.5782 69.1425 45.3429 64.4548 46.3025 60.451C46.8759 58.0246 47.3281 54.7929 47.6258 50.9657C47.7031 49.8957 47.7362 46.311 47.6699 45.0977C47.5706 43.1124 47.3942 41.5022 47.1186 39.9249C47.0745 39.6932 47.0633 39.4836 47.0854 39.4726C47.1294 39.4396 47.2618 39.3954 49.0597 38.8769L48.6961 38.0164ZM45.3651 39.9688C45.4974 39.9688 45.8503 43.3548 45.9385 45.4948C45.9606 45.9469 45.9494 46.2448 45.9275 46.2448C45.8394 46.2448 44.0634 45.197 42.7953 44.4029C41.6922 43.708 39.5966 42.3181 39.2658 42.0534C39.1553 41.9764 39.1662 41.9653 40.0709 41.6564C41.6038 41.1378 45.2438 39.9688 45.3651 39.9688ZM37.931 42.4174C38.0303 42.4174 38.2838 42.5606 38.8906 42.9358C41.1626 44.3586 44.251 46.0793 45.5746 46.6529C45.9826 46.8294 46.0266 46.763 45.0893 47.4029C43.0818 48.7706 40.5779 50.1161 37.5117 51.4729C36.9713 51.7154 36.5191 51.9029 36.5082 51.9029C36.4862 51.9029 36.5522 51.6273 36.6403 51.2964C37.3793 48.5498 37.7985 45.7704 37.8207 43.5424C37.8317 42.4393 37.8317 42.4393 37.931 42.4064C37.9089 42.4174 37.9198 42.4174 37.931 42.4174ZM36.3979 43.002C36.4639 43.068 36.4199 45.5388 36.3317 46.2116C36.1331 47.822 35.8242 49.322 35.3171 51.0097C35.1957 51.4174 35.0853 51.7596 35.0634 51.7816C35.019 51.8366 33.5079 50.3588 33.0117 49.7852C32.1513 48.7925 31.4786 47.7998 30.9823 46.8292C30.7286 46.3329 30.3317 45.3624 30.3646 45.3292C30.541 45.2078 36.3538 42.9578 36.3979 43.002ZM29.1843 45.8365C29.1954 45.8365 29.2063 45.8365 29.2175 45.8476C29.2395 45.8696 29.3169 46.0461 29.383 46.2446C29.7358 47.2042 30.5298 48.616 31.2139 49.5205C31.9639 50.5132 32.9457 51.572 33.7617 52.2669C34.0265 52.4874 34.269 52.6969 34.3021 52.7301C34.3683 52.7964 34.3903 52.7852 32.5925 53.4692C30.5081 54.2633 28.2358 55.0573 25.6327 55.8956C25.0109 56.0961 24.3897 56.2982 23.769 56.5022C23.6695 56.5354 23.7027 56.4802 23.9894 56.0281C25.2799 54.0096 27.2431 50.05 28.3462 47.2484C28.5337 46.763 28.7211 46.2778 28.7543 46.1674C28.7985 46.0129 28.8535 45.9578 28.9969 45.8806C29.0741 45.8588 29.1514 45.8365 29.1843 45.8365ZM26.9786 46.752C27.0117 46.7742 26.4491 47.9542 25.8975 49.0352C24.8277 51.1197 23.6586 53.1714 22.0923 55.6641C21.8277 56.0942 21.5741 56.4913 21.5409 56.5354C21.4858 56.6128 21.4637 56.5905 21.2871 56.2486C20.9122 55.5097 20.6033 54.561 20.4378 53.6897C20.2723 52.8293 20.3055 51.3293 20.4931 50.4029C20.6363 49.7192 20.6254 49.7301 20.9563 49.5646C22.3681 48.8477 26.9345 46.708 26.9786 46.752ZM46.0047 47.5242V47.9874C46.0047 50.447 45.7401 53.8221 45.3539 56.2818C45.2878 56.712 45.2325 57.0648 45.2215 57.076C45.2215 57.076 44.9018 56.9878 44.5267 56.8773C42.8723 56.3589 41.0745 55.5978 39.453 54.7046C38.383 54.12 36.8279 53.1602 36.8721 53.1161C36.883 53.1052 37.3463 52.8625 37.8867 52.5757C40.0487 51.4508 42.1222 50.2374 43.9201 49.0353C44.5929 48.583 45.6074 47.8552 45.8283 47.6565L46.0047 47.5242ZM18.651 50.7888C18.6951 50.7888 18.6841 50.877 18.6179 51.2741C18.5738 51.561 18.5186 52.0904 18.4967 52.4542C18.4083 54.0646 18.6731 55.256 19.4673 56.8882C19.6879 57.3405 19.8645 57.7156 19.8533 57.7265C19.7761 57.7928 12.4745 59.9326 10.1801 60.5612C9.49636 60.7486 8.90086 60.9141 8.8565 60.925C8.77945 60.9472 8.76837 60.9362 8.80142 60.7485C9.05508 59.1273 10.2905 57.0096 12.011 55.2226C13.1582 54.0316 14.0737 53.3366 15.6399 52.4432C16.7649 51.8036 18.4966 50.8441 18.6289 50.7998C18.629 50.7888 18.6401 50.7888 18.651 50.7888ZM35.8574 53.8661C35.8685 53.8552 36.1331 53.9986 36.4529 54.186C38.8134 55.5537 42.1002 56.8222 44.9015 57.4729L45.1554 57.5281L44.8023 57.7265C43.3355 58.5428 38.5155 60.5501 33.5853 62.3921C32.8682 62.6568 32.1625 62.9216 32.0299 62.9766C31.8975 63.0317 31.7762 63.0649 31.7762 63.054C31.7762 63.0428 31.9749 62.6568 32.2283 62.1825C33.6071 59.6016 34.997 56.4581 35.7029 54.2742C35.7913 54.0646 35.8462 53.8773 35.8574 53.8661ZM34.1037 54.4397C34.1149 54.451 34.0266 54.6824 33.9162 54.947C32.9566 57.2744 31.6991 59.8113 30.0889 62.6569C29.6809 63.385 29.3389 63.9696 29.3277 63.9696C29.3167 63.9696 28.9858 63.7709 28.5887 63.5284C26.2503 62.0944 24.1769 60.3297 22.8203 58.6201L22.6217 58.3774L23.6253 58.1016C27.221 57.1201 30.2761 56.0612 33.3094 54.7597C33.7397 54.5832 34.0927 54.4397 34.1037 54.4397ZM45.0011 58.245C45.0121 58.4986 44.4495 60.7709 43.9862 62.4141C43.6002 63.7929 43.2691 64.8738 42.6627 66.7818C42.3981 67.6204 42.1665 68.315 42.1554 68.315C42.1443 68.315 42.0782 68.304 42.0121 68.2821C38.7362 67.6862 35.8023 66.8592 33.0449 65.7562C32.2726 65.4473 31.1698 64.9509 31.1035 64.8958C31.0817 64.8736 31.7434 64.5649 32.5817 64.2009C37.6002 62.006 42.8062 59.5133 44.5929 58.4436C44.8025 58.3112 44.9679 58.245 45.0011 58.245ZM19.8423 59.1054C19.8643 59.1273 18.4635 61.1458 16.5002 63.8922C15.8163 64.8518 15.0223 65.9768 14.7246 66.396C14.4267 66.815 13.9745 67.4769 13.7209 67.874L13.2574 68.5909L12.761 68.1718C12.1764 67.6864 11.1618 66.6497 10.7096 66.0761C9.76094 64.8961 9.12134 63.6497 8.86765 62.5137C8.74629 61.9842 8.74629 61.7193 8.85645 61.6864C9.02186 61.6424 11.9668 60.9474 14.7245 60.3076C16.2575 59.9548 18.0333 59.5356 18.673 59.3812C19.3127 59.2265 19.8313 59.1054 19.8423 59.1054ZM21.2541 59.6458L21.6069 60.0429C23.1953 61.8186 24.8166 63.1314 26.7799 64.2782C27.133 64.4769 27.3977 64.6533 27.3754 64.6645C27.2985 64.7196 20.5591 67.1128 17.4377 68.1938C15.6841 68.8114 14.2391 69.3077 14.2282 69.3077C14.2173 69.3077 14.1179 69.2417 14.0074 69.1644L13.809 69.0209L14.1289 68.5578C15.1655 67.0577 16.4673 65.4144 19.3019 61.9952L21.2541 59.6458ZM30.0559 65.9437C30.0667 65.9328 30.5521 66.109 31.1475 66.33C32.5817 66.8702 33.7175 67.2121 35.2398 67.5982C37.1149 68.0726 39.8281 68.5358 41.4275 68.6681C41.6702 68.6901 41.8025 68.7122 41.7583 68.7454C41.681 68.7896 40.0598 69.33 38.8686 69.705C36.9713 70.3005 31.1809 72.0101 26.4601 73.3668C25.5887 73.6205 24.8387 73.8301 24.7946 73.841C24.6845 73.8632 24.3203 73.7637 24.3203 73.7197C24.3203 73.6977 24.585 73.3558 24.9049 72.9808C26.4931 71.0836 28.0705 68.966 29.383 66.9585C29.7469 66.4069 30.0559 65.9548 30.0559 65.9437ZM28.1145 65.999C28.1254 66.01 27.3425 67.2673 25.9749 69.429C25.3902 70.3445 24.7394 71.3813 24.5077 71.7453C24.2871 72.0982 23.9563 72.6498 23.7689 72.9586L23.4489 73.5212L23.2835 73.477C22.8863 73.3668 20.0959 72.385 19.3569 72.0873C18.4414 71.7232 17.4929 71.2821 16.7869 70.9072C15.9046 70.4328 14.8017 69.7268 14.8898 69.7049C14.9118 69.694 16.423 69.2857 18.2427 68.7894C23.0739 67.4768 25.7541 66.7158 27.5079 66.1644C27.8278 66.065 28.1035 65.9878 28.1145 65.999ZM41.8465 69.2194H41.8575C41.9017 69.3298 40.115 74.2933 39.4639 75.8594C39.3207 76.2124 39.2658 76.3008 39.1883 76.2894C39.0009 76.2786 36.409 75.9146 34.8315 75.6829C32.0853 75.2638 27.4747 74.4585 26.3167 74.194L26.0521 74.1389L27.6953 73.7636C31.2249 72.9694 32.9234 72.5394 34.6441 72.01C36.817 71.3482 38.9678 70.5209 41.1406 69.5062C41.4825 69.3518 41.7693 69.2305 41.8465 69.2194Z" fill="url(#paint0_linear_5235_1237)"/>
<path d="M33.6535 4.00056C33.4108 3.96766 29.4951 5.37944 26.9695 6.40509C23.5611 7.79499 20.9142 9.11863 19.2818 10.2655C18.6752 10.6958 17.914 11.4568 17.7928 11.7545C17.7487 11.8648 17.7266 11.9972 17.7266 12.1295L19.2046 13.5303L22.723 14.6553L31.0946 16.1555L40.6683 17.7989L40.7676 16.9716C40.7346 16.9716 40.7124 16.9607 40.6796 16.9607L39.4219 16.762L39.1684 16.3099C37.8668 14.0156 36.433 11.17 35.5948 9.25076C34.9442 7.76172 34.3264 6.04126 33.9844 4.80587C33.7968 4.05586 33.7747 4.01155 33.6535 4.00056ZM33.4768 4.56326H33.4882C33.499 4.57414 33.5431 4.88318 33.5874 5.24695C33.7747 6.79132 34.1168 8.28011 34.6572 9.89051C35.0652 11.1038 35.0652 11.0377 34.5911 10.8942C33.466 10.5855 28.4255 9.71412 24.7746 9.20678C24.19 9.12951 23.6936 9.05235 23.6936 9.04137C23.6495 8.99727 26.3296 7.59638 27.5099 7.04503C29.021 6.34999 33.1682 4.61834 33.4768 4.56326ZM22.8442 9.50452L23.2746 9.64775C25.6127 10.442 31.4914 11.5671 34.7343 11.8318C35.0982 11.8649 35.4072 11.898 35.418 11.898C35.429 11.909 35.1203 12.0745 34.7232 12.2619C33.1571 13.045 31.4364 14.0047 30.2452 14.7437C29.8923 14.9641 29.5723 15.1408 29.5283 15.1408C29.4842 15.1408 29.2527 15.0967 29.01 15.0635L28.5688 14.9972L27.4659 13.9163C25.5247 12.0303 24.0026 10.5744 23.4179 10.0228L22.8442 9.50452ZM22.4032 9.84636L23.9583 11.7877C24.8075 12.8576 25.6679 13.9053 25.8555 14.1368C26.0428 14.3687 26.1974 14.5563 26.1864 14.5672C26.1423 14.6003 23.9364 14.17 22.7671 13.9055C21.565 13.6296 21.0686 13.4972 20.3296 13.2657L19.723 13.0671V12.9126C19.7339 12.1736 20.6716 11.0707 22.2598 9.94575L22.4032 9.84636ZM35.6167 12.4935C35.661 12.4935 35.7159 12.5928 35.8483 12.8906C36.2232 13.7177 37.3926 15.9459 37.6791 16.376C37.7676 16.5195 37.9218 16.5305 36.3668 16.2768C32.6278 15.67 31.4254 15.4717 31.4254 15.4496C31.4254 15.4387 31.5358 15.3613 31.6791 15.2841C32.8374 14.6445 34.0064 13.8283 35.0432 12.9568C35.297 12.7472 35.5286 12.5487 35.5726 12.5156C35.5835 12.4935 35.6058 12.4826 35.6167 12.4935Z" fill="url(#paint1_linear_5235_1237)"/>
<path d="M17.8673 11.5999C17.8673 11.5999 17.6248 11.9861 17.8564 12.5596C18 12.9125 18.4191 13.3426 18.8932 13.7838C18.8932 13.7838 23.8015 18.5707 24.3971 19.2546C27.1103 22.387 28.2905 25.4754 28.4008 29.7329C28.4671 32.4682 27.9484 34.8727 26.6581 37.6633C24.3639 42.6707 19.5217 48.1967 12.0547 54.3293L13.1468 53.9653C13.8527 53.4357 14.8123 52.8734 17.0623 51.6379C22.2572 48.7922 28.1029 46.1781 35.2724 43.4869C45.5959 39.6043 62.5709 35.0601 72.2327 33.5822L73.2365 33.4277L73.082 33.185C72.1999 31.8173 71.5931 30.9681 70.8649 30.0637C68.7475 27.4386 66.1777 25.3099 63.034 23.5451C58.7104 21.1297 53.1181 19.2437 46.0372 17.8429C44.7027 17.5781 41.7688 17.0707 39.3864 16.7067C34.3347 15.9238 31.0699 15.3833 27.4743 14.7655C26.1839 14.5449 24.2535 14.2141 22.9741 13.9385C22.3123 13.7949 21.044 13.4971 20.0513 13.1552C19.2572 12.8462 18.11 12.5374 17.8673 11.5999ZM20.7132 14.3574C20.7241 14.3465 20.9005 14.4125 21.1323 14.4898C21.5515 14.633 22.0919 14.7985 22.7317 14.9751C23.2159 15.1082 23.7012 15.2369 24.1876 15.3611C24.8493 15.5265 25.4008 15.6809 25.4117 15.6809C25.4891 15.7582 26.6032 19.3205 26.9781 20.6882C27.1213 21.2067 27.2319 21.6478 27.2208 21.6478C27.2095 21.659 27.0883 21.4714 26.9451 21.2178C25.6545 18.9455 23.614 16.6405 21.2536 14.7874C20.9449 14.567 20.7132 14.3685 20.7132 14.3574ZM26.1399 15.8574C26.1949 15.8574 26.4376 15.8906 26.7353 15.9567C28.6104 16.3758 31.9745 17.0155 34.1252 17.3795C34.4892 17.4346 34.7761 17.501 34.7761 17.5229C34.7761 17.545 34.6436 17.6221 34.4781 17.7105C34.1143 17.8979 32.6472 18.7691 32.162 19.1001C30.9376 19.9163 29.8348 20.7986 29.0405 21.5927C28.7208 21.9127 28.4449 22.1774 28.4449 22.1774C28.4449 22.1774 28.3789 21.9899 28.3235 21.7582C27.9267 20.225 27.0993 17.9529 26.3493 16.3537C26.228 16.1001 26.1287 15.8683 26.1287 15.8465C26.1287 15.8685 26.1287 15.8574 26.1399 15.8574ZM35.6915 17.6774C35.7576 17.6993 35.868 18.0743 36.0885 18.9015C36.4967 20.501 36.6843 22.2878 36.618 23.9533C36.5959 24.4165 36.5739 24.8466 36.5517 24.9018L36.5187 25.0121L35.9452 24.8246C34.7649 24.4495 32.8459 23.887 31.2025 23.4238C30.2648 23.1701 29.504 22.9385 29.504 22.9165C29.504 22.8502 30.8717 21.4826 31.4563 20.9642C32.57 19.9825 35.5921 17.6442 35.6915 17.6774ZM36.4525 17.7875C36.4857 17.7546 41.0189 18.5375 43.0815 18.9346C44.6147 19.2325 46.8427 19.6957 46.9749 19.751C47.0411 19.7729 46.8093 19.9053 46.0704 20.2361C43.1585 21.5487 40.9967 22.7287 38.8461 24.1627C38.2836 24.5378 37.8092 24.8466 37.7983 24.8466C37.7872 24.8466 37.7763 24.5269 37.7763 24.1407C37.7763 22.0451 37.3571 19.9274 36.5848 18.1406C36.5076 17.9641 36.4415 17.7987 36.4525 17.7875ZM48.1771 20.1039C48.2103 20.137 48.0668 21.0305 47.9344 21.5598C47.5373 23.2033 46.4676 25.641 45.1552 27.935C44.9233 28.3431 44.7139 28.6741 44.6916 28.685C44.6697 28.6959 44.3719 28.5305 44.0299 28.3319C42.7505 27.5819 41.2947 26.8761 39.7063 26.2142C39.2652 26.0267 38.8791 25.8722 38.8681 25.8503C38.7907 25.7841 42.3424 23.4347 44.2175 22.3098C45.7065 21.4054 48.1329 20.0597 48.1771 20.1039ZM49.0153 20.2362C49.1147 20.2362 51.122 20.7877 52.1697 21.0966C54.7617 21.8687 57.7397 22.9606 59.6809 23.8429L60.486 24.207L59.9237 24.3393C55.1811 25.4311 51.122 26.6887 47.2064 28.2769C46.8865 28.4093 46.5997 28.5195 46.5779 28.5195C46.5557 28.5195 46.666 28.2659 46.8095 27.957C47.9896 25.4533 48.7507 22.8393 48.938 20.6111C48.9492 20.4015 48.9821 20.2362 49.0153 20.2362ZM29.0296 24.8246C29.0625 24.7914 30.5957 25.1555 31.4231 25.387C32.6804 25.7401 35.3495 26.6333 35.3495 26.6995C35.3495 26.7106 35.0517 26.9643 34.6989 27.2733C33.254 28.4754 31.8641 29.7437 30.1987 31.3541C29.7023 31.8285 29.2832 32.2145 29.2613 32.2145C29.2391 32.2145 29.2283 32.1482 29.2391 32.0601C29.4928 30.207 29.4377 27.8246 29.0848 25.4091C29.0516 25.1002 29.0185 24.8355 29.0296 24.8246ZM61.2473 24.8578C61.2692 24.8797 60.5413 26.0267 60.0781 26.6774C59.4165 27.6259 58.4456 28.8837 56.2507 31.641C55.0928 33.0967 53.7911 34.7403 53.3611 35.2918C52.9197 35.8433 52.5559 36.3063 52.5447 36.3063C52.5337 36.3063 52.3905 36.1079 52.236 35.8654C51.0007 34.0123 49.5225 32.3909 47.7688 30.935C47.438 30.6593 47.0741 30.3614 46.9528 30.2731C46.8315 30.185 46.7321 30.0967 46.7321 30.0858C46.7321 30.0527 48.6071 29.2474 50.0301 28.6739C52.5228 27.6591 55.9196 26.4459 58.4677 25.6627C59.8024 25.2437 61.2252 24.8355 61.2473 24.8578ZM62.0965 25.0782C62.1405 25.0673 62.4055 25.1997 62.7253 25.387C65.4056 26.9201 68.0305 28.8945 70.1043 30.9239C70.6888 31.4977 72.1336 32.9977 72.1115 33.0086C72.1115 33.0086 71.6041 33.0527 71.0087 33.0967C66.3651 33.4499 60.4203 34.4314 54.7067 35.8101C54.3207 35.8982 53.9789 35.9754 53.9567 35.9754C53.9349 35.9754 54.3649 35.5454 54.9055 35.027C58.2584 31.7953 59.7916 29.7549 61.6003 26.1149C61.8539 25.5746 62.0747 25.1114 62.0965 25.0782C62.0856 25.0782 62.0856 25.0782 62.0965 25.0782ZM37.5333 27.5931C37.6879 27.6261 39.1217 28.2991 40.2027 28.8394C41.1953 29.3355 42.6844 30.1299 42.7616 30.1959C42.7725 30.207 42.2431 30.4827 41.5925 30.8026C39.5188 31.8394 37.7431 32.821 35.89 33.9461C35.3607 34.2659 34.9195 34.5307 34.9084 34.5307C34.8643 34.5307 34.8753 34.4865 35.1731 33.9461C36.1659 32.1373 36.9599 29.9755 37.4123 27.8687C37.4561 27.7033 37.5004 27.5931 37.5333 27.5931ZM36.0995 27.8577C36.1327 27.8909 35.7576 29.2474 35.5261 29.9865C35.0737 31.3873 34.3128 33.1409 33.5739 34.4645C33.3972 34.7731 33.1325 35.2254 32.9892 35.4791L32.7135 35.9203L32.0959 35.3249C31.3789 34.6299 30.7943 34.1998 30.0444 33.8137C29.7464 33.6594 29.5148 33.5269 29.5148 33.505C29.5148 33.4167 31.4009 31.7071 32.8459 30.4718C33.8825 29.5783 36.0665 27.8246 36.0995 27.8577ZM44.8684 31.4645L45.4088 31.8174C46.6439 32.6226 48.0997 33.6925 49.214 34.6299C49.8425 35.1482 51.0557 36.2403 51.2985 36.505L51.4307 36.6486L50.5376 36.9022C45.4859 38.3027 41.5813 39.5491 37.026 41.2258C36.5187 41.4133 36.0885 41.5677 36.0553 41.5677C35.9893 41.5677 35.934 41.6227 37.0703 40.5749C39.9821 37.8949 42.5629 34.9387 44.4821 32.0599L44.8684 31.4645ZM42.5631 32.0381C42.5851 32.0601 41.074 34.1887 40.1695 35.391C39.0887 36.8249 37.1693 39.2293 35.8459 40.7954C35.2945 41.4463 34.8203 41.9867 34.7981 41.9978C34.7649 42.0087 34.754 41.8434 34.754 41.5897C34.754 40.2549 34.4121 38.8321 33.8164 37.619C33.5628 37.1115 33.5185 36.9902 33.5739 36.9351C33.7835 36.7475 36.9931 34.9166 39.0224 33.8247C40.3901 33.0969 42.5297 32.0159 42.5631 32.0381ZM28.6213 35.4573C28.6545 35.4573 28.9083 35.5895 29.1951 35.7441C29.9009 36.1301 30.5296 36.5602 31.0921 37.0235C31.1141 37.0455 30.8275 37.2771 30.4524 37.5527C29.4045 38.3027 27.8163 39.5051 26.89 40.2442C25.9191 41.0162 25.8863 41.0382 25.9964 40.8729C26.7244 39.7589 27.0883 39.1301 27.4745 38.325C27.8163 37.6082 28.1581 36.7589 28.4008 36.0198C28.4891 35.6999 28.5993 35.4573 28.6213 35.4573ZM32.3385 38.369C32.3935 38.3581 32.4599 38.4573 32.7576 38.8985C33.3863 39.8359 33.8716 41.0934 33.9931 42.1082L34.0149 42.3289L32.504 42.9134C29.8016 43.9611 27.3091 44.9981 25.6212 45.7699C25.1471 45.9906 24.3199 46.3877 23.7795 46.6525C23.2389 46.9281 22.7977 47.1377 22.7977 47.1267C22.7977 47.1157 23.1396 46.8621 23.5588 46.5531C26.8568 44.1598 29.7135 41.5346 31.8532 38.9095C32.0848 38.6338 32.2945 38.3801 32.3164 38.369H32.3385ZM30.6289 38.7882C30.6731 38.8323 29.4157 40.2551 28.5555 41.1263C26.4267 43.2994 24.32 44.9981 21.7059 46.6525C21.3749 46.8621 21.0772 47.0494 21.0441 47.0717C20.9668 47.1157 21.066 47.0054 22.2132 45.759C22.9412 44.9758 23.4927 44.3141 24.1213 43.4981C24.5404 42.9577 24.6177 42.8803 25.2244 42.4501C26.8459 41.2809 30.5848 38.7441 30.6289 38.7882Z" fill="url(#paint2_radial_5235_1237)"/>
<defs>
<linearGradient id="paint0_linear_5235_1237" x1="17.6425" y1="69.6582" x2="22.919" y2="66.5404" gradientUnits="userSpaceOnUse">
<stop stop-color="#909CA9"/>
<stop offset="1" stop-color="#EDEDEE"/>
</linearGradient>
<linearGradient id="paint1_linear_5235_1237" x1="17.7652" y1="10.8782" x2="22.011" y2="10.8782" gradientUnits="userSpaceOnUse">
<stop stop-color="#939FAB"/>
<stop offset="1" stop-color="#DCDEE1"/>
</linearGradient>
<radialGradient id="paint2_radial_5235_1237" cx="0" cy="0" r="1" gradientUnits="userSpaceOnUse" gradientTransform="translate(39.1865 30.3499) rotate(-171.457) scale(5.47385 10.9504)">
<stop stop-color="#EE352C"/>
<stop offset="1" stop-color="#A91D22"/>
</radialGradient>
</defs>
</svg>
