<svg width="80" height="80" viewBox="0 0 80 80" fill="none" xmlns="http://www.w3.org/2000/svg">
<path d="M50.3166 79.8619H51.2878L67.1384 71.9355L67.4023 71.5627V8.29453L67.1384 7.91972L51.2878 0H50.3047L50.3166 79.8619Z" fill="#5294CF"/>
<path d="M29.6891 79.8619H28.7045L12.8672 71.9355L12.5459 71.3827L12.3828 8.61675L12.8672 7.91972L28.7045 0H29.7013L29.6891 79.8619Z" fill="#1F5B98"/>
<path d="M28.7266 0H51.2666V79.8619H28.7266V0Z" fill="#2D72B8"/>
<path d="M75.4353 38.1367L74.8997 38.0179L67.2519 37.3049L67.1384 37.3613L51.2735 36.7269H28.7323L12.8671 37.3613V25.2633L12.8504 25.2722L12.8671 25.2367L28.7323 21.5606H51.2735L67.1384 25.2367L72.9705 28.3369V26.3438L75.4353 26.0741L75.1801 25.5765L67.3761 19.9961L67.1384 20.0733L51.2735 15.1573H28.7323L12.8671 20.0733V7.91968L4.57031 17.6395V26.1283L4.63453 26.0819L7.03509 26.3438V28.3778L4.57031 29.6969V38.1433L4.63453 38.1367L7.03509 38.1721V41.7173L4.96394 41.7483L4.57031 41.7106V50.1605L7.03509 51.4859V53.5435L4.67357 53.8042L4.57031 53.7267V62.2142L12.8671 71.9354V59.7829L28.7323 64.6989H51.2735L67.1851 59.7685L67.3967 59.8613L75.0979 54.3631L75.4353 53.8153L72.9705 53.5435V51.5271L72.6476 51.3982L67.3761 54.2397L67.1851 54.6383L51.2735 58.2931V58.2975H28.7323V58.2931L12.8671 54.6227V42.4805L28.7323 43.1127V43.1282H51.2735L67.1384 42.4805L67.4996 42.6466L74.9124 42.0082L75.4353 41.7527L72.9705 41.7173V38.1721L75.4353 38.1367Z" fill="#1A476F"/>
<path d="M67.1328 59.783V71.9356L75.4297 62.2144V53.7822L67.1807 59.7686L67.1328 59.783Z" fill="#2D72B8"/>
<path d="M67.1328 54.6495L67.1807 54.6385L75.4297 50.2017V41.7175L67.1328 42.4807V54.6495Z" fill="#2D72B8"/>
<path d="M67.1807 25.2479L67.1328 25.2368V37.3615L75.4297 38.1368V29.6568L67.1807 25.2479Z" fill="#2D72B8"/>
<path d="M67.1807 20.1209L75.4297 26.0741V17.6418L67.1328 7.91968V20.0733L67.1807 20.0899V20.1209Z" fill="#2D72B8"/>
</svg>
