<svg width="80" height="80" viewBox="0 0 80 80" fill="none" xmlns="http://www.w3.org/2000/svg">
<path fill-rule="evenodd" clip-rule="evenodd" d="M18.2064 13.4669C17.2964 13.45 16.6525 13.5656 15.9723 13.7149V13.8384H16.0967C16.5315 14.7303 17.2981 15.3047 17.8345 16.0729C18.2469 16.9421 18.6605 17.8099 19.0743 18.6777C19.1164 18.6364 19.1581 18.5955 19.1987 18.5541C19.9683 18.0132 20.3191 17.1471 20.3157 15.8245C20.0071 15.4999 19.9611 15.0943 19.6945 14.7076C19.3412 14.1919 18.6539 13.9004 18.2064 13.4669ZM78.2623 77.1231C78.848 77.5528 79.2405 78.2191 80 78.4889V78.3645C79.6003 77.8577 79.4987 77.1581 79.1317 76.6268C78.5953 76.0904 78.0548 75.5519 77.5184 75.0133C75.9404 72.9197 73.9395 71.082 71.8108 69.5547C70.1152 68.3355 66.3149 66.6909 65.6065 64.7161C65.566 64.674 65.5239 64.6323 65.4816 64.59C66.6847 64.4551 68.0944 64.0199 69.2048 63.7217C71.0703 63.2217 72.7381 63.3516 74.6635 62.8536C75.5335 62.6043 76.4013 62.3555 77.2696 62.1097V61.6116C76.2959 60.6123 75.6017 59.2899 74.5408 58.3853C71.7611 56.0205 68.7295 53.6556 65.606 51.6855C63.8755 50.5916 61.7337 49.882 59.898 48.9551C59.2807 48.6439 58.1969 48.4815 57.7884 47.9624C56.8256 46.7328 56.2997 45.1747 55.5559 43.7429C53.9991 40.7435 52.4679 37.4679 51.0877 34.3119C50.1477 32.1604 49.5325 30.0385 48.3589 28.1076C42.7248 18.8443 36.6587 13.2527 27.2648 7.75683C25.2643 6.58832 22.8581 6.12699 20.3157 5.52397C18.9516 5.44175 17.5848 5.35783 16.2207 5.2756C15.3879 4.92771 14.5217 3.90891 13.7395 3.41427C10.6266 1.44835 2.64271 -2.82885 0.33859 2.79437C-1.11708 6.34289 2.51283 9.80581 3.81205 11.6047C4.72416 12.866 5.89013 14.2808 6.54291 15.6989C6.97093 16.6313 7.04388 17.5671 7.41285 18.5533C8.31443 20.984 9.09793 23.628 10.2643 25.8747C10.8551 27.0108 11.5058 28.2088 12.2513 29.2247C12.7089 29.8483 13.4907 30.1228 13.6133 31.086C12.8489 32.1583 12.805 33.8223 12.3753 35.1805C10.4355 41.2959 11.1672 48.8956 13.9887 53.422C14.8532 54.8107 16.8924 57.7916 19.6945 56.6475C22.1459 55.6489 21.5993 52.5537 22.3007 49.8233C22.4583 49.2031 22.3621 48.748 22.6725 48.3344V48.4579C23.4181 49.9469 24.1628 51.4359 24.9067 52.9244C26.5605 55.5865 29.4943 58.3705 31.9805 60.2467C33.2679 61.2199 34.2829 62.9033 35.9507 63.4731V63.3469H35.8263C35.5016 62.8455 34.9964 62.6351 34.5865 62.2316C33.6149 61.2789 32.5351 60.0957 31.7313 59.0048C29.4693 55.9353 27.4717 52.5753 25.6517 49.0787C24.7819 47.4083 24.0261 45.566 23.2928 43.8669C23.0108 43.2112 23.0141 42.2207 22.4245 41.8812C21.6217 43.126 20.4397 44.1339 19.8185 45.6039C18.8259 47.9544 18.6981 50.8207 18.33 53.7931C18.1124 53.8716 18.2089 53.818 18.0808 53.9167C16.3519 53.5009 15.7451 51.7213 15.1032 50.1948C13.4793 46.3355 13.1778 40.1203 14.6069 35.6769C14.9767 34.5277 16.65 30.9068 15.9711 29.8449C15.648 28.7848 14.5837 28.1729 13.9879 27.3628C13.2474 26.3617 12.5111 25.0448 11.9992 23.8881C10.6717 20.8789 10.0509 17.5008 8.65136 14.4583C7.98172 13.0047 6.85032 11.5322 5.92092 10.2389C4.892 8.80683 3.73952 7.7526 2.94295 6.01947C2.65915 5.40421 2.27331 4.41957 2.69415 3.78661C2.82699 3.35944 3.01675 3.18149 3.43969 3.04191C4.16036 2.48696 6.16297 3.22661 6.91316 3.53824C8.90184 4.36433 10.5641 5.15163 12.2496 6.26784C13.058 6.80423 13.8765 7.84243 14.8536 8.1296H15.9707C17.7189 8.53063 19.676 8.25484 21.3067 8.75032C24.1915 9.62701 26.7764 10.9908 29.124 12.4734C36.2755 16.9884 42.1235 23.4176 46.1236 31.086C46.7671 32.3207 47.0463 33.4989 47.6121 34.8091C48.7553 37.4501 50.1971 40.1671 51.3348 42.7503C52.4696 45.326 53.5761 47.9265 55.1807 50.0713C56.024 51.198 59.2836 51.8028 60.7659 52.4293C61.8041 52.8675 63.5048 53.3255 64.4869 53.9167C66.3668 55.0505 68.1855 56.3992 69.9473 57.6407C70.8279 58.2617 73.5355 59.6221 73.6688 60.7413C69.3055 60.6257 65.9721 61.0309 63.1223 62.232C62.3123 62.5723 61.0215 62.5824 60.8881 63.5957C61.3335 64.0621 61.4039 64.7604 61.7581 65.3335C62.4367 66.4349 63.5853 67.9096 64.6113 68.6847C65.7317 69.5301 66.8859 70.4347 68.0852 71.1663C70.2211 72.4693 72.6061 73.2128 74.6615 74.5171C75.8776 75.2871 77.0807 76.2548 78.2623 77.1231Z" fill="#00758F"/>
</svg>
