<svg width="80" height="80" viewBox="0 0 80 80" fill="none" xmlns="http://www.w3.org/2000/svg">
<path d="M57.9782 8.10522H14.0556C12.6373 8.10918 11.2781 8.67437 10.2752 9.6773C9.27227 10.6802 8.70709 12.0394 8.70312 13.4577V61.8977C8.70709 63.3161 9.27227 64.6751 10.2752 65.6781C11.2781 66.681 12.6373 67.2462 14.0556 67.2502H42.9856C42.6556 52.8553 47.5731 24.9202 57.9782 8.10522Z" fill="#0F80CC"/>
<path d="M56.3831 9.66772H14.0557C13.0509 9.66904 12.0876 10.0688 11.3772 10.7793C10.6667 11.4897 10.267 12.453 10.2656 13.4577V58.3628C21.1247 54.2672 32.5875 51.9997 44.1882 51.6527C47.2563 37.3873 51.3315 23.3572 56.3831 9.66772Z" fill="url(#paint0_linear_5235_1242)"/>
<path d="M68.2243 6.51984C65.2243 3.83733 61.5743 4.91484 57.9743 8.10484C57.4419 8.57984 56.9094 9.10484 56.3794 9.66733C49.6071 17.6767 44.9243 27.239 42.7494 37.4998C43.4207 38.9646 43.9514 40.4898 44.3343 42.0548C44.4243 42.4048 44.5068 42.7348 44.5843 43.0148C44.7394 43.6774 44.8343 44.1074 44.8343 44.1074C44.8343 44.1074 44.7794 43.8998 44.5519 43.2423L44.4043 42.8174C44.3794 42.7498 44.3468 42.6698 44.3094 42.5823C43.9094 41.6498 42.8094 39.6823 42.3094 38.8323C41.8919 40.0648 41.5219 41.2174 41.2143 42.2598C42.2523 44.4923 43.0146 46.843 43.4843 49.2598C43.4843 49.2598 43.4094 48.9723 43.0568 47.9723C42.3795 46.5119 41.6286 45.0867 40.8068 43.7023C40.2754 45.0738 40.0502 46.5447 40.1468 48.0123C40.6975 49.11 41.1114 50.2712 41.3794 51.4698C42.2143 54.6774 42.7943 58.5848 42.7943 58.5848C42.7943 58.5848 42.8143 58.8348 42.8443 59.2423C42.7346 61.9139 42.7888 64.5898 43.0068 67.2548C43.1308 69.8935 43.6222 72.5019 44.4668 75.0048L44.9168 74.7548C43.8694 70.9931 43.4654 67.0812 43.7219 63.1848C44.1924 54.9242 45.8235 46.7708 48.5668 38.9648C53.5919 25.6948 60.5668 15.0448 66.9419 9.96484C61.1268 15.2148 53.2568 32.2148 50.8994 38.5098C48.4168 44.9912 46.5307 51.6856 45.2643 58.5098C46.7715 54.7014 49.7224 51.6427 53.4743 49.9998C53.4743 49.9998 56.5568 46.1974 60.1594 40.7674C57.8319 41.2527 55.5327 41.8644 53.2719 42.5998C51.5219 43.3348 51.0494 43.5849 51.0494 43.5849C54.39 41.573 57.9192 39.8926 61.5868 38.5674C68.2768 28.0298 75.5668 13.0673 68.2268 6.50733" fill="#003B57"/>
<defs>
<linearGradient id="paint0_linear_5235_1242" x1="33.2708" y1="10.7664" x2="33.2708" y2="55.7628" gradientUnits="userSpaceOnUse">
<stop stop-color="#97D9F6"/>
<stop offset="0.92" stop-color="#0F80CC"/>
<stop offset="1" stop-color="#0F80CC"/>
</linearGradient>
</defs>
</svg>
