<svg width="80" height="80" viewBox="0 0 80 80" fill="none" xmlns="http://www.w3.org/2000/svg">
<path d="M71.242 50.7524V50.7048C64.497 56.1288 53.2541 59.556 39.992 59.556C28.4061 59.556 18.362 56.94 11.5109 52.6623C10.5386 52.0467 9.62499 51.3948 8.77968 50.7055V50.7332C8.7678 50.7235 8.75437 50.7147 8.74219 50.7048V65.0866C8.74219 73.3094 22.7605 79.9998 39.9922 79.9998C57.2238 79.9998 71.2422 73.3094 71.2422 65.0866V56.2603L71.2656 50.7348C71.2578 50.741 71.2497 50.7464 71.242 50.7524Z" fill="black"/>
<path d="M39.9844 53.2548C57.2161 53.2548 71.2344 46.5641 71.2344 38.3417V37.531V31.5421V28.9366L71.2578 27.3058C71.2501 27.312 71.2418 27.3174 71.2344 27.3236V27.2765C64.4894 32.7005 53.2464 36.1277 39.9844 36.1277C28.4036 36.1277 18.3633 33.5137 11.5123 29.2392C10.5367 28.6217 9.62 27.9677 8.77188 27.2764V27.3048C8.76 27.295 8.74656 27.2862 8.73438 27.2764V31.542V37.5309V38.3414C8.73438 46.5644 22.7526 53.2548 39.9844 53.2548Z" fill="black"/>
<path d="M39.9845 29.8265C57.2162 29.8265 71.2345 23.1361 71.2345 14.9135C71.2345 14.678 71.1833 14.4488 71.1608 14.2161C71.0301 12.8819 70.5601 11.5895 69.7392 10.3689C65.7005 4.36219 53.895 0 39.9845 0C26.0741 0 14.2686 4.36219 10.2302 10.3687C9.40891 11.5894 8.93891 12.8817 8.80859 14.216C8.78563 14.4484 8.73438 14.6779 8.73438 14.9133C8.73453 23.136 22.7528 29.8265 39.9845 29.8265Z" fill="black"/>
</svg>
