<svg width="80" height="80" viewBox="0 0 80 80" fill="none" xmlns="http://www.w3.org/2000/svg">
<g clip-path="url(#clip0_5236_1280)">
<mask id="mask0_5236_1280" style="mask-type:luminance" maskUnits="userSpaceOnUse" x="0" y="0" width="80" height="80">
<path d="M80 0H0V80H80V0Z" fill="white"/>
</mask>
<g mask="url(#mask0_5236_1280)">
<path d="M40 80C62.0913 80 80 62.0913 80 40C80 17.9087 62.0913 0 40 0C17.9087 0 0 17.9087 0 40C0 62.0913 17.9087 80 40 80Z" fill="#13AA52"/>
<path d="M50.6915 35.1126C48.1649 23.9618 42.1939 20.2954 41.5508 18.8946C40.8478 17.9063 40.1352 16.1484 40.1352 16.1484C40.1235 16.1188 40.1048 16.0664 40.0829 16.0156C40.0103 17.0039 39.9727 17.3852 39.0384 18.382C37.5915 19.5134 30.168 25.7422 29.5641 38.411C29.0008 50.2266 38.0993 57.2672 39.3298 58.1648L39.4696 58.264V58.2555C39.4775 58.3148 39.8603 61.068 40.1289 63.9852H41.0931C41.3192 61.9231 41.6583 59.875 42.1087 57.85L42.1868 57.7992C42.7372 57.4046 43.262 56.9754 43.7579 56.514L43.8141 56.4634C46.4297 54.047 51.1321 48.4579 51.086 39.547C51.0763 38.0604 50.9443 36.5774 50.6915 35.1126ZM40.0267 51.4938C40.0267 51.4938 40.0267 34.9219 40.5735 34.9251C41 34.9251 41.5524 56.3008 41.5524 56.3008C40.7931 56.2094 40.0267 52.7828 40.0267 51.4938Z" fill="white"/>
</g>
</g>
<defs>
<clipPath id="clip0_5236_1280">
<rect width="80" height="80" fill="white"/>
</clipPath>
</defs>
</svg>
