<svg width="80" height="80" viewBox="0 0 80 80" fill="none" xmlns="http://www.w3.org/2000/svg">
<g clip-path="url(#clip0_5235_1262)">
<mask id="mask0_5235_1262" style="mask-type:luminance" maskUnits="userSpaceOnUse" x="0" y="0" width="80" height="80">
<path d="M80 0H0V80H80V0Z" fill="white"/>
</mask>
<g mask="url(#mask0_5235_1262)">
<path d="M78.4897 47.9047C78.0246 46.4961 76.8062 45.5148 75.2302 45.2793C74.4873 45.1684 73.6363 45.2157 72.6294 45.4233C70.8743 45.7853 69.5722 45.9232 68.6219 45.95C72.2087 39.894 75.1254 32.9877 76.8045 26.4868C79.5195 15.9752 78.0687 11.1864 76.3733 9.02023C71.8865 3.28713 65.3402 0.207041 57.4423 0.112625C53.2295 0.0612062 49.5309 0.89304 47.6017 1.49107C45.8053 1.17432 43.8735 0.997311 41.8467 0.964525C38.0481 0.903969 34.6913 1.73204 31.8231 3.43405C30.2349 2.89729 27.6867 2.14035 24.7437 1.65715C17.8217 0.520748 12.2431 1.40633 8.16254 4.289C3.22134 7.77937 0.930611 13.8436 1.35432 22.3132C1.4887 25.0024 2.99308 33.1841 5.36156 40.9436C6.72282 45.4035 8.17436 49.1072 9.67588 51.9525C11.8052 55.9875 14.0835 58.3636 16.6414 59.2168C18.0753 59.6945 20.6799 60.0289 23.4199 57.7475C23.7671 58.1677 24.2302 58.5857 24.8453 58.9739C25.6261 59.4663 26.581 59.8687 27.5345 60.1072C30.9713 60.9664 34.1903 60.7515 36.9367 59.5473C36.9535 60.0357 36.9666 60.5024 36.9777 60.9053C36.9959 61.5591 37.0139 62.1999 37.0379 62.7992C37.2006 66.8521 37.4763 70.0033 38.2933 72.2081C38.3381 72.3296 38.3985 72.5143 38.4622 72.7101C38.8697 73.9581 39.5513 76.0471 41.285 77.6833C43.0807 79.378 45.2525 79.898 47.2415 79.8977C48.2391 79.8977 49.191 79.7669 50.0257 79.588C53.0017 78.9504 56.3813 77.9787 58.8261 74.4976C61.1374 71.2065 62.2611 66.25 62.4645 58.4397C62.4909 58.2191 62.5151 58.0081 62.5386 57.8071C62.5545 57.6715 62.5706 57.5328 62.5869 57.3945L63.1315 57.4424L63.2718 57.4519C66.3027 57.59 70.0089 56.9472 72.2849 55.89C74.0834 55.0552 79.8466 52.0128 78.4897 47.9047Z" fill="black"/>
<path d="M73.3099 48.7038C64.2979 50.5628 63.6783 47.5115 63.6783 47.5115C73.1936 33.3925 77.1713 15.4702 73.7387 11.0839C64.374 -0.881197 48.1633 4.77754 47.8928 4.92444L47.8057 4.94003C46.0252 4.57043 44.0327 4.35024 41.7932 4.3137C37.7153 4.24687 34.6221 5.38274 32.2749 7.16268C32.2749 7.16268 3.3568 -4.75049 4.70175 22.1457C4.98786 27.8677 12.9029 65.4408 22.3437 54.0919C25.7943 49.9421 29.1283 46.4331 29.1283 46.4331C30.7843 47.5333 32.7667 48.0943 34.8448 47.8927L35.0063 47.7558C34.9561 48.271 34.9791 48.775 35.0709 49.3715C32.6389 52.0889 33.3535 52.5659 28.4917 53.5667C23.5721 54.5806 26.4621 56.3857 28.3491 56.8574C30.6365 57.4294 35.9288 58.2398 39.5045 53.2341L39.362 53.8053C40.3149 54.5685 40.9841 58.77 40.8719 62.5785C40.7597 66.3871 40.6849 69.0021 41.4357 71.0445C42.1865 73.0869 42.9349 77.6822 49.3263 76.3128C54.6668 75.1684 57.4343 72.2025 57.8193 67.2554C58.0925 63.7384 58.7108 64.2582 58.7499 61.1138L59.2457 59.6251C59.8176 54.8575 59.3365 53.3195 62.6268 54.0349L63.4264 54.1051C65.8481 54.2153 69.0176 53.7157 70.8779 52.851C74.8835 50.9921 77.2595 47.8884 73.3099 48.7038Z" fill="#336791"/>
<path d="M33.9673 24.7044C33.1553 24.5914 32.4197 24.696 32.0475 24.9776C31.8381 25.1363 31.7734 25.3199 31.7561 25.4464C31.7093 25.7812 31.9439 26.1514 32.0881 26.3423C32.4958 26.8828 33.0917 27.2544 33.6814 27.3363C33.7669 27.3482 33.8518 27.3539 33.9365 27.3539C34.9199 27.3539 35.8139 26.5882 35.8929 26.023C35.9914 25.3151 34.9637 24.8431 33.9673 24.7044Z" fill="white"/>
<path d="M60.8675 24.7268C60.7902 24.172 59.8025 24.0137 58.8654 24.144C57.9298 24.2744 57.0224 24.6967 57.0982 25.2528C57.1591 25.6853 57.9396 26.4236 58.8642 26.4235C58.942 26.4235 59.021 26.4183 59.1003 26.4072C59.7174 26.3217 60.17 25.9299 60.385 25.704C60.7127 25.36 60.902 24.9763 60.8675 24.7268Z" fill="white"/>
<path d="M76.3095 48.4925C75.9659 47.4533 74.86 47.1189 73.0223 47.4985C67.5663 48.6245 65.6123 47.8443 64.9705 47.3719C69.2116 40.9111 72.7004 33.1018 74.5824 25.8153C75.4741 22.3636 75.9667 19.1583 76.0068 16.5459C76.0512 13.6779 75.5629 11.5708 74.5556 10.2836C70.4943 5.09405 64.5337 2.31045 57.3185 2.23396C52.3583 2.17824 48.1675 3.44776 47.3549 3.80464C45.644 3.37914 43.7788 3.11793 41.7484 3.0846C38.0245 3.0244 34.806 3.9159 32.1409 5.73293C30.9835 5.30222 27.9919 4.27529 24.3336 3.68604C18.0085 2.66752 12.9826 3.43916 9.39584 5.98017C5.1161 9.01225 3.14034 14.4322 3.5232 22.089C3.65202 24.6654 5.11968 32.59 7.4362 40.1796C10.4853 50.1686 13.7996 55.8235 17.2871 56.9867C17.6952 57.1229 18.166 57.2182 18.6849 57.2182C19.9571 57.2182 21.5167 56.6447 23.1395 54.6938C25.8349 51.451 28.3516 48.7338 29.2792 47.7463C30.6501 48.4823 32.156 48.8931 33.6965 48.9343C33.6993 48.9747 33.7035 49.015 33.7069 49.0551C33.398 49.4217 33.1444 49.743 32.9284 50.0173C31.8611 51.3721 31.6389 51.6541 28.2035 52.3615C27.2263 52.5631 24.6304 53.0981 24.5927 54.9174C24.5512 56.9051 27.6605 57.7401 28.0149 57.8286C29.2495 58.1376 30.4388 58.2901 31.5731 58.2901C34.3317 58.2899 36.7592 57.3834 38.6992 55.6293C38.6395 62.7158 38.9351 69.6989 39.7859 71.8266C40.4825 73.5682 42.1852 77.825 47.5629 77.8246C48.3517 77.8246 49.2205 77.7328 50.176 77.5282C55.7883 76.3247 58.2255 73.8443 59.1683 68.3757C59.6728 65.453 60.5387 58.4737 60.9457 54.7302C61.8052 54.9982 62.9116 55.1209 64.1077 55.1207C66.6023 55.1207 69.4807 54.5909 71.2859 53.7529C73.3136 52.8113 76.9731 50.5001 76.3095 48.4925ZM62.9441 23.1951C62.9255 24.3005 62.7733 25.3036 62.6121 26.3511C62.4387 27.4774 62.2592 28.6419 62.214 30.0556C62.1695 31.4315 62.3412 32.8619 62.5075 34.245C62.8432 37.0387 63.1877 39.9151 61.8539 42.7534C61.6467 42.3853 61.4465 41.9835 61.2631 41.5387C61.0973 41.1369 60.7373 40.4914 60.2392 39.5979C58.3 36.1204 53.7589 27.977 56.0836 24.6539C56.7759 23.6646 58.5331 22.6478 62.9441 23.1951ZM57.5975 4.47201C64.0623 4.6148 69.176 7.03326 72.7968 11.6599C75.5737 15.2086 72.5159 31.3562 63.6635 45.2867C63.576 45.1757 63.4869 45.0635 63.3948 44.9485C63.3581 44.9025 63.3207 44.8557 63.2829 44.8083C65.5704 41.0305 65.1231 37.2926 64.7249 33.9786C64.5613 32.6186 64.4069 31.334 64.4461 30.1275C64.4868 28.8483 64.656 27.7518 64.8193 26.6911C65.0205 25.3839 65.2249 24.0317 65.1685 22.4374C65.2107 22.2702 65.2276 22.0726 65.2056 21.838C65.0616 20.3091 63.3163 15.7339 59.7585 11.5923C57.8127 9.32738 54.9745 6.79248 51.0997 5.08276C52.7664 4.73734 55.0457 4.41521 57.5975 4.47201ZM21.4223 53.2659C19.6344 55.4155 18.3996 55.0035 17.9937 54.8683C15.348 53.9858 12.2785 48.3945 9.57214 39.5276C7.23035 31.8555 5.86176 24.1407 5.75355 21.9774C5.41154 15.1358 7.07 10.3674 10.6831 7.80508C16.5631 3.63516 26.2305 6.13101 30.1151 7.39696C30.0592 7.45196 30.0011 7.50356 29.9457 7.55945C23.5715 13.9971 23.7227 24.9961 23.7383 25.6683C23.7377 25.9277 23.7593 26.295 23.7893 26.8002C23.8989 28.6501 24.1031 32.0931 23.5579 35.9923C23.0509 39.6157 24.1679 43.1621 26.6216 45.7222C26.8756 45.9873 27.1408 46.2361 27.4148 46.4702C26.3224 47.6399 23.9488 50.2265 21.4223 53.2659ZM28.234 44.177C26.2563 42.1137 25.3581 39.2434 25.7696 36.3015C26.3453 32.1825 26.1327 28.5953 26.0185 26.6681C26.0027 26.3983 25.9885 26.1621 25.98 25.9755C26.9113 25.1499 31.2267 22.8375 34.3041 23.5427C35.7087 23.8645 36.5643 24.8207 36.92 26.4658C38.7615 34.9817 37.1639 38.5311 35.8801 41.3834C35.6156 41.971 35.3656 42.5265 35.1521 43.1011L34.9867 43.5452C34.5679 44.6684 34.1781 45.7126 33.9367 46.7042C31.8344 46.6978 29.7892 45.7998 28.234 44.177ZM28.5567 55.6619C27.9429 55.5086 27.3908 55.2422 27.0668 55.0213C27.3373 54.8939 27.8189 54.7209 28.654 54.5489C32.6956 53.7167 33.3196 53.1295 34.6827 51.3988C34.9953 51.0022 35.3495 50.5523 35.84 50.0045C36.5708 49.1865 36.9055 49.3245 37.5116 49.5758C38.0028 49.7791 38.4812 50.3947 38.6752 51.0723C38.7669 51.3923 38.8701 51.9998 38.5328 52.4722C35.6855 56.4589 31.5365 56.4076 28.5567 55.6619ZM49.7079 75.3446C44.7636 76.4039 43.0131 73.8811 41.8595 70.9973C41.1148 69.1353 40.7491 60.7394 41.0087 51.4677C41.012 51.3442 40.9944 51.2251 40.9604 51.1131C40.9308 50.8969 40.8853 50.6782 40.8223 50.4579C40.436 49.1089 39.4952 47.9803 38.3665 47.5126C37.9181 47.3269 37.0949 46.9858 36.1057 47.2389C36.3168 46.3698 36.6827 45.3885 37.0791 44.3257L37.2456 43.8786C37.4329 43.3746 37.6679 42.8525 37.9165 42.2999C39.2599 39.3155 41.0996 35.2281 39.1029 25.9937C38.3549 22.535 35.8575 20.8461 32.0713 21.2382C29.8013 21.4731 27.7249 22.389 26.6892 22.9141C26.4664 23.027 26.2628 23.1359 26.0725 23.2421C26.3615 19.7571 27.4539 13.2445 31.5393 9.12404C34.1115 6.52982 37.5375 5.24866 41.7115 5.31764C49.9357 5.45236 55.2096 9.67298 58.186 13.1901C60.7507 16.2208 62.1395 19.2738 62.6939 20.9202C58.5257 20.4965 55.6908 21.3194 54.2536 23.3738C51.1273 27.8427 55.964 36.5168 58.2887 40.6855C58.7149 41.4496 59.0828 42.1099 59.1985 42.3904C59.9556 44.225 60.9356 45.4498 61.6511 46.3439C61.8704 46.6179 62.0832 46.8835 62.2451 47.1155C60.9827 47.4797 58.7151 48.3205 58.9216 52.5237C58.7551 54.6329 57.5697 64.5074 56.9677 67.9962C56.1729 72.6053 54.4769 74.3221 49.7079 75.3446ZM70.3455 51.7273C69.0547 52.3266 66.8944 52.7761 64.8421 52.8725C62.5753 52.9787 61.4216 52.6186 61.1501 52.3971C61.0227 49.7779 61.9977 49.5041 63.0296 49.2145C63.1917 49.1687 63.3499 49.1245 63.5025 49.0711C63.5975 49.1483 63.7013 49.225 63.8152 49.3001C65.6371 50.5026 68.8867 50.6323 73.474 49.6854C73.4908 49.6818 73.5076 49.6786 73.5243 49.6753C72.9057 50.2537 71.8468 51.0302 70.3455 51.7273Z" fill="white"/>
</g>
</g>
<defs>
<clipPath id="clip0_5235_1262">
<rect width="80" height="80" fill="white"/>
</clipPath>
</defs>
</svg>
