<svg width="80" height="80" viewBox="0 0 80 80" fill="none" xmlns="http://www.w3.org/2000/svg">
<path d="M64.9997 48.7497C64.9997 52.0653 63.2533 53.6899 59.9999 53.7475V53.7496H20.0001V53.7475C16.7467 53.6899 15.0003 52.0653 15.0003 48.7497C15.0003 45.4351 16.7467 43.8097 20.0001 43.7528V43.7499H59.9999V43.7528C63.2533 43.8097 64.9997 45.4351 64.9997 48.7497ZM59.9999 56.2528V56.25H20.0001V56.2528C16.7467 56.3097 15.0003 57.9351 15.0003 61.2505C15.0003 64.566 16.7467 66.1899 20.0001 66.2475V66.2496H59.9999V66.2468C63.2533 66.1899 64.9997 64.5653 64.9997 61.2497C64.9997 57.9343 63.2533 56.3097 59.9999 56.2528ZM72.4999 28.7555V28.7525C69.2463 28.8101 67.5 30.4347 67.5 33.7501V61.2497C67.5 64.5653 69.2463 66.1892 72.4999 66.2468V66.2416C77.3801 66.0703 80 61.1959 80 51.2501V38.75C80 32.1197 77.3801 28.8707 72.4999 28.7555ZM7.50016 28.7525V28.7555C2.61988 28.8707 0 32.1197 0 38.75V51.2501C0 61.1959 2.61988 66.0696 7.50016 66.2416V66.2468C10.7537 66.1899 12.5 64.5653 12.5 61.2497V33.7501C12.5 30.4347 10.7537 28.8101 7.50016 28.7525ZM72.4999 26.25C72.4999 17.9616 68.1336 13.9003 59.9999 13.7565V13.75H20.0001V13.7565C11.8671 13.9003 7.50016 17.9616 7.50016 26.25V26.2544C12.3804 26.3404 15.0003 28.7773 15.0003 33.7501C15.0003 38.7231 17.6201 41.1599 22.5005 41.246V41.2496H57.5003V41.246C62.3799 41.1599 64.9997 38.7231 64.9997 33.7501C64.9997 28.7773 67.6196 26.3404 72.4999 26.2544V26.25Z" fill="#E42528"/>
</svg>
