<svg width="80" height="80" viewBox="0 0 80 80" fill="none" xmlns="http://www.w3.org/2000/svg">
<path d="M10.8281 64.5008L11.3119 63.8235L34.1962 20.4016L34.2445 19.9419L24.1566 0.993302C23.3114 -0.593983 20.9321 -0.192663 20.6548 1.58419L10.8281 64.5008Z" fill="#FFC24A"/>
<path d="M11.1094 63.9845L11.4753 63.2709L34.1199 20.3039L24.0572 1.27824C23.2209 -0.29241 21.0972 0.107982 20.8227 1.8662L11.1094 63.9845Z" fill="#FFA712"/>
<path d="M41.5984 34.2749L49.1096 26.5822L41.5963 12.2392C40.8831 10.8815 38.8916 10.8776 38.186 12.2392L34.1719 19.8947V20.5467L41.5984 34.2749Z" fill="#F4BD62"/>
<path d="M41.4622 33.9542L48.7645 26.4755L41.4622 12.5708C40.7687 11.2508 39.0842 11.1126 38.3982 12.4363L34.3629 20.2104L34.2422 20.6079L41.4622 33.9542Z" fill="#FFA50E"/>
<path d="M10.8281 64.5009L11.0474 64.2805L11.8441 63.9566L41.1268 34.7829L41.4978 33.7729L34.1929 19.853L10.8281 64.5009Z" fill="#F6820C"/>
<path d="M42.5365 79.2141L69.0379 64.4341L61.4701 17.8257C61.2333 16.3674 59.4442 15.7909 58.4006 16.8365L10.8281 64.5011L37.1775 79.2127C38.8428 80.1426 40.8709 80.143 42.5365 79.2141Z" fill="#FDE068"/>
<path d="M68.7957 64.3101L61.2853 18.0556C61.0504 16.6084 59.5627 16.0094 58.5268 17.0472L11.1172 64.4106L37.1772 78.9766C38.8297 79.8994 40.8425 79.8998 42.4955 78.978L68.7957 64.3101Z" fill="#FCCA3F"/>
<path d="M42.5365 78.7787C40.8709 79.7075 38.8428 79.7071 37.1775 78.7773L11.0404 64.2769L10.8281 64.5011L37.1775 79.2127C38.8428 80.1425 40.8709 80.1429 42.5365 79.214L69.0379 64.434L68.973 64.0347L42.5365 78.7787Z" fill="#EEAB37"/>
</svg>
