<svg width="59" height="80" viewBox="0 0 59 80" fill="none" xmlns="http://www.w3.org/2000/svg">
<mask id="mask0_5236_1518" style="mask-type:luminance" maskUnits="userSpaceOnUse" x="0" y="0" width="58" height="80">
<path d="M57.6791 0H0V80H57.6791V0Z" fill="white"/>
</mask>
<g mask="url(#mask0_5236_1518)">
<path d="M56.4898 38.1341C56.4898 53.781 44.0838 66.4775 28.7721 66.4775C13.4604 66.4775 1.05469 53.781 1.05469 38.1341C1.05469 22.4869 13.4606 9.79028 28.7721 9.79028C44.0841 9.79028 56.4898 22.4869 56.4898 38.1341Z" fill="#D33833"/>
<path d="M2.19521 45.1528C2.19521 45.1528 0.183505 15.6025 27.4318 14.7528L25.5318 11.5786L10.7564 16.541L6.53177 21.3916L2.84356 28.4552L0.742188 36.681L1.36822 42.18" fill="#EF3D3A"/>
<path d="M9.79243 18.7987C4.94202 23.7834 1.92423 30.6459 1.92423 38.2458C1.92423 45.8456 4.94202 52.7081 9.79243 57.6927C14.6653 62.6774 21.3491 65.7398 28.7701 65.7398C36.1913 65.7398 42.8748 62.6774 47.7477 57.693C52.5984 52.708 55.6159 45.8456 55.6159 38.2458C55.6159 30.6457 52.5984 23.7834 47.7477 18.7987C42.8751 13.8363 36.1913 10.7519 28.7701 10.7519C21.3713 10.7519 14.6656 13.8141 9.79243 18.7987ZM8.56309 58.8774C3.39978 53.6022 0.203125 46.2929 0.203125 38.2458C0.203125 30.1987 3.39978 22.8893 8.56309 17.5917C13.7267 12.3164 20.8796 9.03052 28.7703 9.03052C36.6608 9.03052 43.8137 12.3164 48.9773 17.5917C54.1405 22.867 57.3372 30.1762 57.3372 38.2458C57.3372 46.2926 54.1405 53.6022 48.9773 58.8774C43.8137 64.175 36.6608 67.4386 28.7701 67.4386C20.8796 67.4386 13.7267 64.175 8.56309 58.8774Z" fill="#231F20"/>
<path d="M40.4382 38.2905L36.2134 38.9163L30.5136 39.5646L26.8253 39.6541L23.2265 39.5423L20.477 38.693L18.0405 36.055L16.1405 30.6681L15.7158 29.5057L13.1901 28.6563L11.7145 26.2199L10.6641 22.7327L11.8265 19.6706L14.576 18.7093L16.7889 19.7599L17.8393 22.0849L19.1134 21.8834L19.5381 21.347L19.1134 18.9105L19.0017 15.8481L19.6276 11.6235L19.6053 9.20941L21.5276 6.12472L24.9029 3.68815L30.8041 1.16235L37.3536 2.12337L43.0536 6.23645L45.6913 10.4611L47.3898 13.5234L47.8146 21.1234L46.5405 27.6727L44.2157 33.4846L42.0253 36.5917" fill="#F0D6B7"/>
<path d="M36.859 56.5531L21.7708 57.1788V59.7047L23.0449 68.579L22.4189 69.3164L11.8683 65.7176L11.1307 64.4435L10.0801 52.5071L7.59887 45.3542L7.0625 43.6554L15.512 37.8436L18.1497 36.793L20.4742 39.654L22.486 41.4424L24.8109 42.18L25.8613 42.4931L27.1354 47.9919L28.0968 49.1543L30.533 48.3048L28.8342 51.5904L37.9989 55.927L36.859 56.5531Z" fill="#335061"/>
<path d="M11.8231 19.7151L14.5726 18.7541L16.7855 19.8046L17.8359 22.1294L19.11 21.9282L19.4232 20.6541L18.7971 18.2175L19.423 12.4059L18.8866 9.23172L20.7866 7.01884L24.8994 3.75528L23.737 2.16821L17.9254 5.02921L15.489 6.92941L14.1254 9.87984L12.0243 12.7411L11.3984 16.1163L11.8231 19.7151Z" fill="#6D6B6D"/>
<path d="M16.1596 9.79027C16.1596 9.79027 17.7464 5.87859 24.0724 3.97861C30.3982 2.07864 24.3856 2.61501 24.3856 2.61501L17.5228 5.25277L14.8855 7.89029L13.7231 9.99144L16.1596 9.79027ZM12.9855 18.9774C12.9855 18.9774 10.7724 11.5785 19.2218 10.528L18.9088 9.25388L13.0973 10.6175L11.3984 16.1165L11.8231 19.715L12.9855 18.9774Z" fill="#DCD9D8"/>
<path d="M16.3675 28.7908L17.7532 27.4495C17.7532 27.4495 18.3792 27.5167 18.4909 28.2541C18.6027 28.992 18.9156 35.6531 23.4533 39.2296C23.8779 39.5648 20.078 38.6929 20.078 38.6929L16.7024 33.4177M35.7921 26.7788C35.7921 26.7788 36.0379 23.5824 36.9096 23.8284C37.7815 24.0741 37.7815 24.9457 37.7815 24.9457C37.7815 24.9457 35.6804 26.2871 35.7921 26.7788ZM44.5544 15.0661C44.5544 15.0661 42.8108 15.4236 42.6544 16.966C42.4979 18.5083 44.5544 17.2789 44.8673 17.1672M31.7909 15.1779C31.7909 15.1779 29.4661 15.4907 29.4661 16.966C29.4661 18.4412 32.1039 18.3295 32.8415 17.7036M17.4403 22.0401C17.4403 22.0401 13.4393 19.6036 13.0147 21.9284C12.5901 24.2531 11.6511 25.9293 13.6405 28.3659L12.2769 27.9412L11.003 24.6777L10.5781 21.5036L13.0147 18.9777L15.764 19.1789L17.3511 20.4531L17.4403 22.0401ZM19.3404 15.3789C19.3404 15.3789 21.1284 6.08006 30.2039 4.29182C37.6695 2.8165 41.6037 4.60496 43.0791 6.30354C43.0791 6.30354 36.4179 -1.60925 30.0919 0.80479C23.7661 3.24137 19.1167 7.66713 19.2285 10.5061C19.4073 15.3788 19.3404 15.3789 19.3404 15.3789ZM43.8167 7.35422C43.8167 7.35422 40.7544 7.24249 40.6425 9.99174C40.6425 9.99174 40.6425 10.4166 40.8439 10.8413C40.8439 10.8413 43.2803 8.09177 44.7556 9.5671" fill="#F7E4CD"/>
<path d="M30.4265 11.1317C30.4265 11.1317 29.8901 6.92938 26.3136 9.36574C23.9888 10.9528 24.2122 13.1657 24.6148 13.5905C25.0394 14.0152 24.9277 14.8645 25.2406 14.2834C25.5536 13.7022 25.4641 11.8023 26.6265 11.2657C27.7664 10.7293 29.6889 10.1483 30.4265 11.1317Z" fill="#F7E4CD"/>
<path d="M20.4982 39.6538L10.573 44.0794C10.573 44.0794 14.6861 60.4418 12.5847 65.5159L11.1096 64.9795L10.9978 58.743L8.24835 46.9407L7.08594 43.677L17.4353 36.7029L20.4982 39.6538ZM21.5038 48.7065L22.9119 50.4278V56.7535H21.2357C21.2357 56.7535 21.0346 52.3278 21.0346 51.7914C21.0346 51.2549 21.2357 49.3549 21.2357 49.3549M21.5486 57.7149L16.7874 57.9159L18.151 58.8773L21.5261 59.4138" fill="#49728B"/>
<path d="M37.805 56.6647L41.7164 56.553L42.6776 66.254L38.6766 66.7906L37.805 56.6647Z" fill="#335061"/>
<path d="M38.8516 56.6644L44.7526 56.3512C44.7526 56.3512 47.1892 50.2267 47.1892 49.9138C47.1892 49.6007 49.2904 41.0398 49.2904 41.0398L44.5292 36.0774L43.5678 35.228L41.0421 37.7539V47.5668L38.8516 56.6644Z" fill="#335061"/>
<path d="M41.493 55.9268L37.8047 56.6645L38.3414 59.6152C39.7047 60.2409 42.0295 58.5645 42.0295 58.5645M41.6047 37.441L49.0036 42.9398L49.2048 40.4138L43.6166 35.2505L41.6047 37.441Z" fill="#49728B"/>
<path d="M25.2148 77.4526L23.0241 68.5785L21.9289 62.029L21.75 57.1785L31.6523 56.6421H37.7993L37.2407 67.729L38.2016 76.2901L38.0899 77.8772L30.0652 78.5033L25.2148 77.4526Z" fill="white"/>
<path d="M36.438 56.5528C36.438 56.5528 35.9016 67.5282 37.4887 75.3516C37.4887 75.3516 34.3147 77.3633 29.6875 77.8773L38.5618 77.5644L39.6122 76.9386L38.3383 59.6374L38.0028 55.9268" fill="#DCD9D8"/>
<path d="M42.8288 65.427L46.9416 64.2645L54.7429 63.8399L55.9053 60.2411L53.804 54.0046L51.3676 53.6917L47.9923 54.7423L44.7733 56.3294L43.0523 56.0163L41.7109 56.5529" fill="white"/>
<path d="M42.7656 63.3036C42.7656 63.3036 45.5151 62.0295 45.9398 62.1412L44.7774 56.3296L46.141 55.793C46.141 55.793 47.1022 61.292 47.1022 61.9178C47.1022 61.9178 53.0032 62.2307 53.5396 62.2307C53.5396 62.2307 54.8138 59.7942 54.501 57.2683L55.6634 60.6436L55.7751 62.5436L54.0763 65.0694L52.1763 65.4943L49.0022 65.3826L47.9515 64.019L44.2632 64.5554L43.1008 64.9802" fill="#DCD9D8"/>
<path d="M38.6049 55.8154L36.2802 49.9142L33.8438 46.427C33.8438 46.427 34.3803 44.9519 35.1179 44.9519H37.5544L39.8794 45.8011L39.6779 49.7131L38.6049 55.8154Z" fill="white"/>
<path d="M39.0746 53.8034C39.0746 53.8034 36.1239 48.1034 36.1239 47.2539C36.1239 47.2539 36.6604 45.9798 37.398 46.2929C38.1358 46.6058 39.7228 47.4554 39.7228 47.4554V45.4434L36.1239 44.7058L33.6875 45.0187L37.8003 54.7646L38.6496 54.8763" fill="#DCD9D8"/>
<path d="M26.1543 39.8775L23.2262 39.5643L20.4766 38.7151V39.6763L21.8176 41.1516L26.0426 43.0516" fill="white"/>
<path d="M21.439 40.1904C21.439 40.1904 24.7023 41.554 25.7755 41.2411L25.8871 42.5154L22.9367 41.8892L21.1484 40.6151L21.439 40.1904Z" fill="#DCD9D8"/>
<path d="M42.8313 45.3094C41.0431 45.2644 39.4112 45.041 38.0029 44.6387C38.0924 44.0575 37.9136 43.4988 38.0701 43.0739C38.4725 42.7832 39.1205 42.7832 39.7241 42.7164C39.21 42.4704 38.4725 42.3587 37.8912 42.5152C37.8688 42.1128 37.6901 41.8668 37.5781 41.554C38.5843 41.1962 40.9536 38.8494 42.2947 39.6092C42.9431 39.9892 43.2113 42.0903 43.256 43.1411C43.3005 43.9903 43.1665 44.8399 42.8313 45.3094Z" fill="#D33833"/>
<path d="M42.8313 45.3094C41.0431 45.2644 39.4112 45.041 38.0029 44.6387C38.0924 44.0575 37.9136 43.4988 38.0701 43.0739C38.4725 42.7832 39.1205 42.7832 39.7241 42.7164C39.21 42.4704 38.4725 42.3587 37.8912 42.5152C37.8688 42.1128 37.6901 41.8668 37.5781 41.554C38.5843 41.1962 40.9536 38.8494 42.2947 39.6092C42.9431 39.9892 43.2113 42.0903 43.256 43.1411C43.3005 43.9903 43.1665 44.8399 42.8313 45.3094Z" fill="black" stroke="#D33833" stroke-width="11.9904"/>
<path d="M34.2701 42.3809C34.2701 42.5151 34.2701 42.649 34.2476 42.7833C33.6889 43.141 32.7947 43.141 32.1688 43.4539C33.0632 43.4985 33.7784 43.7219 34.4043 44.0126C34.3817 44.3481 34.3817 44.7058 34.3596 45.041C33.3312 45.7339 32.3925 46.7846 31.1855 47.455C30.6043 47.7682 28.6148 48.5729 28.0113 48.4163C27.6759 48.3269 27.6313 47.9022 27.4972 47.4998C27.2067 46.6506 26.536 45.2645 26.4689 43.9679C26.4017 42.3363 26.2231 39.5869 27.9888 39.9221C29.4193 40.1903 31.0735 40.8387 32.1688 41.4422C32.8617 41.8446 33.2417 42.2915 34.2701 42.3809Z" fill="#D33833"/>
<path d="M34.2701 42.3809C34.2701 42.5151 34.2701 42.649 34.2476 42.7833C33.6889 43.141 32.7947 43.141 32.1688 43.4539C33.0632 43.4985 33.7784 43.7219 34.4043 44.0126C34.3817 44.3481 34.3817 44.7058 34.3596 45.041C33.3312 45.7339 32.3925 46.7846 31.1855 47.455C30.6043 47.7682 28.6148 48.5729 28.0113 48.4163C27.6759 48.3269 27.6313 47.9022 27.4972 47.4998C27.2067 46.6506 26.536 45.2645 26.4689 43.9679C26.4017 42.3363 26.2231 39.5869 27.9888 39.9221C29.4193 40.1903 31.0735 40.8387 32.1688 41.4422C32.8617 41.8446 33.2417 42.2915 34.2701 42.3809Z" fill="black" stroke="#D33833" stroke-width="11.9904"/>
<path d="M35.275 44.3256C35.1185 43.4314 34.9395 43.1858 35.0067 42.4031C37.3985 40.816 37.8233 45.1303 35.275 44.3256Z" fill="#D33833"/>
<path d="M35.275 44.3256C35.1185 43.4314 34.9395 43.1858 35.0067 42.4031C37.3985 40.816 37.8233 45.1303 35.275 44.3256Z" fill="black" stroke="#D33833" stroke-width="11.9904"/>
<path d="M38.7198 45.0409C38.7198 45.0409 37.9822 43.9902 38.5186 43.6773C39.0553 43.3645 39.5693 43.6773 39.8822 43.1409C40.1953 42.6044 39.8822 42.2917 39.994 41.6657C40.1057 41.0398 40.6198 40.9281 41.1564 40.8164C41.6928 40.7044 43.1681 40.5032 43.3693 41.0176L42.7434 39.1173L41.4693 38.6926L37.4682 41.0176L37.267 42.18V44.5045M27.6329 48.528C27.4988 46.8738 27.3648 45.2421 27.2305 43.588C27.007 41.1293 27.8117 41.5537 29.9574 41.5537C30.2929 41.5537 31.9692 41.934 32.0812 42.18C32.6624 43.3645 31.12 43.0961 32.7516 43.9902C34.1152 44.728 36.5517 43.5433 35.9929 41.8668C35.6797 41.4868 34.3834 41.755 33.914 41.509L31.4328 40.2352C30.3824 39.6985 27.9681 38.8938 26.8505 39.654C24.0116 41.5762 27.0293 46.4045 28.0352 48.4162" fill="#EF3D3A"/>
<path d="M30.4268 11.1318C27.5434 10.4611 26.1128 12.3388 25.2411 14.2833C24.4587 14.1047 24.7716 13.0317 24.973 12.4953C25.4868 11.0871 27.5659 9.18695 29.2644 9.45525C29.9798 9.54469 30.9632 10.2153 30.4268 11.1318ZM44.4422 14.3951H44.5762C45.2246 15.7364 45.7832 17.1671 46.6104 18.3741C46.0518 19.6705 42.4528 20.7881 42.4974 18.5081C43.2798 18.1729 44.6211 18.4411 45.314 17.9941C44.9116 16.8988 44.3527 15.9596 44.4422 14.3951ZM31.8799 14.4401C32.5058 15.58 32.7067 16.7648 33.5784 17.6143C33.9811 17.9941 34.741 18.4636 34.3611 19.5363C34.2716 19.7823 33.6234 20.3412 33.2432 20.4529C31.8799 20.8553 28.6832 20.5424 29.7563 18.8211C30.8962 18.8659 32.4163 19.5588 33.2658 18.7316C32.6175 17.7035 31.4551 15.6469 31.8799 14.4401ZM43.928 25.9292C41.8715 27.2481 39.569 28.7012 36.1716 28.3657C35.4564 27.74 35.1658 26.3316 35.881 25.4153C36.2386 26.0412 36.0151 27.2036 37.0435 27.3823C38.9658 27.7176 41.201 26.1975 42.5868 25.6836C43.436 24.2307 42.5199 23.7165 41.7375 22.7776C40.1504 20.8776 38.0494 18.5081 38.1162 15.6695C38.7646 15.2 38.8091 16.3847 38.8986 16.5859C39.7256 18.5081 41.8047 20.9893 43.302 22.6436C43.682 23.0459 44.2856 23.4483 44.3527 23.7165C44.5539 24.4764 43.8387 25.4149 43.928 25.9292ZM16.702 24.5435C16.0539 24.1635 15.8975 22.5541 15.1375 22.5093C14.0422 22.4424 14.2434 24.6107 14.2434 25.8845C13.5058 25.2141 13.3715 23.1128 13.9082 22.04C13.2823 21.7269 13.0138 22.3752 12.6562 22.5987C13.1257 19.3577 17.4172 21.1011 16.702 24.5435ZM45.2246 27.2928C44.2634 29.1259 42.8998 31.1376 40.0834 31.2047C40.0162 30.6235 39.9716 29.7071 40.0834 29.3493C42.2516 29.1259 43.5927 28.0305 45.2246 27.2928ZM31.7234 28.4775C33.5116 29.4164 36.8198 29.5281 39.2787 29.4611C39.4127 29.9977 39.4127 30.6681 39.4127 31.3164C36.2611 31.4505 32.5503 30.6681 31.7234 28.4775ZM31.3882 30.2212C32.6398 33.3504 36.9092 32.9929 40.5079 32.9035C40.3516 33.3059 40.0162 33.7976 39.5692 33.954C38.4068 34.4235 35.2327 34.7812 33.6234 33.9316C32.6175 33.3953 31.9468 32.1657 31.3882 31.4505C31.1422 31.1152 29.8011 30.2435 31.3882 30.2212Z" fill="#231F20"/>
<path d="M43.7696 47.4552C42.3166 49.9587 40.9087 52.5293 39.1875 54.7199C39.9026 52.5965 40.2155 49.02 40.3274 46.2931C41.8474 45.5776 43.1438 46.4492 43.7696 47.4552Z" fill="#81B0C4"/>
<path d="M51.6156 56.4409C49.9838 56.7761 48.8437 58.3632 47.2344 58.2515C48.1285 57.0219 49.6484 56.4856 51.6156 56.4409ZM52.3308 58.9891C50.9897 59.1233 49.4249 59.3468 48.0838 59.2351C48.732 58.2515 51.1909 58.6089 52.3308 58.9891ZM52.8002 61.2021C51.3026 61.2244 49.4472 61.2021 48.0168 61.0901C48.866 60.1737 51.839 60.7549 52.8002 61.2021Z" fill="#231F20"/>
<path d="M40.956 67.2375C41.1795 69.1151 41.9172 71.0154 41.8277 73.0716C41.0005 73.3398 40.5313 73.5858 39.4135 73.5858C39.3467 71.842 39.1007 69.1599 39.1677 67.4835C39.7041 67.528 40.5088 67.1034 40.956 67.2375Z" fill="#DCD9D8"/>
<path d="M38.5405 39.52C37.7805 40.0115 37.1546 40.6151 36.4169 41.1516C34.8076 41.2411 33.9357 41.0399 32.7734 40.1235C32.7958 40.0563 32.9076 40.0787 32.9076 39.9892C34.6286 40.7494 36.8192 39.6766 38.5405 39.52Z" fill="#F0D6B7"/>
<path d="M29.5547 51.2104C30.0242 49.1762 31.8796 48.1034 33.5559 46.9858C35.277 49.1764 36.3276 51.9928 37.49 54.7197C34.7406 53.8928 31.9466 52.574 29.5547 51.2104Z" fill="#81B0C4"/>
<path d="M39.1637 67.5058C39.0966 69.1823 39.3201 71.8423 39.4094 73.6081C40.5273 73.6081 40.9965 73.3623 41.8237 73.0939C41.9132 71.0374 41.1754 69.1375 40.952 67.2598C40.5048 67.1034 39.7001 67.5281 39.1637 67.5058ZM21.9072 58.0282C22.6449 64.7563 23.6954 70.3891 25.64 76.3575C29.9542 77.6763 35.1401 77.7881 38.9625 76.6033C38.2696 73.2506 38.5602 69.16 38.1578 65.561C37.8448 62.8563 38.0013 60.1517 37.5766 57.4022C32.9494 56.4411 26.4226 57.1787 21.9072 58.0282ZM38.672 57.447C38.627 60.3306 38.806 63.1915 39.0297 66.0751C40.147 65.9187 40.8848 65.807 41.9132 65.561C41.5777 62.7893 41.6226 59.6377 40.9297 57.1787C40.1473 57.2013 39.4541 57.179 38.672 57.447ZM44.2824 56.9775C43.746 56.8658 43.1425 56.9775 42.6508 56.9775C42.8965 59.3247 43.4554 61.9177 43.6566 64.3988C44.439 64.4211 44.8636 64.041 45.512 63.9293C45.5566 61.761 45.333 58.7658 44.2824 56.9775ZM52.7989 64.7563C54.4532 64.3539 55.4813 62.3423 55.0118 60.2634C54.6989 58.8775 54.1625 56.2401 53.5588 55.3457C53.1341 54.6975 51.9494 53.8257 50.9884 54.4293C49.446 55.4127 46.7413 55.7034 45.6237 56.8881C46.1824 58.7658 46.3613 61.3141 46.5848 63.6834C48.5072 63.7953 50.8541 63.1471 52.4637 63.8399C51.346 64.1977 49.9154 64.1977 48.9542 64.7341C49.7589 65.1141 51.592 65.0469 52.7989 64.7563ZM37.4649 54.7198C36.3025 51.9929 35.252 49.1765 33.5306 46.9859C31.8542 48.1033 30.0213 49.1765 29.5296 51.2105C31.9436 52.5741 34.738 53.8929 37.4649 54.7198ZM40.3258 46.293C40.2141 49.0199 39.9013 52.5963 39.186 54.7198C40.9072 52.507 42.3156 49.9586 43.7684 47.4551C43.1425 46.4493 41.8458 45.5778 40.3258 46.293ZM37.0849 45.1531C36.4365 45.0857 35.8778 45.9129 35.0284 45.5551C34.8272 45.7786 34.6482 46.0023 34.4472 46.2258C36.3248 48.5057 37.1966 51.7249 38.6496 54.3846C39.432 51.8142 39.3426 49.0199 39.5214 46.2258C38.4485 46.2705 37.8449 45.2202 37.0849 45.1531ZM35.006 42.4034C34.9389 43.1858 35.1177 43.4318 35.2741 44.3258C37.8224 45.1306 37.3978 40.8163 35.006 42.4034ZM32.167 41.4646C31.0718 40.8609 29.4178 40.2127 27.9872 39.9447C26.2214 39.6093 26.4001 42.3587 26.4672 43.9906C26.5344 45.2869 27.2049 46.6505 27.4956 47.5223C27.6296 47.9246 27.6742 48.3493 28.0097 48.4387C28.6132 48.573 30.6249 47.7906 31.1838 47.4774C32.3908 46.8294 33.3296 45.7789 34.358 45.0634C34.3802 44.7282 34.3802 44.3705 34.4025 44.0353C33.7766 43.7221 33.0837 43.5211 32.167 43.4766C32.7708 43.1634 33.6873 43.1634 34.246 42.8059C34.246 42.6717 34.246 42.5377 34.2685 42.4034C33.2401 42.2917 32.8601 41.8447 32.167 41.4646ZM21.6614 39.5646C20.7449 40.5034 24.2318 41.7553 25.3273 41.8223C25.3273 41.2411 25.6625 40.6825 25.5953 40.2577C24.2766 40.0342 22.5554 40.1905 21.6614 39.5646ZM32.9274 39.9893C32.9274 40.0787 32.8154 40.0565 32.7932 40.1235C33.9778 41.0399 34.8494 41.241 36.4365 41.1517C37.152 40.6377 37.8001 40.0118 38.5602 39.5198C36.8165 39.6765 34.6262 40.7494 32.9274 39.9893ZM43.2542 43.1189C43.2097 42.0905 42.9412 39.967 42.293 39.587C40.952 38.8046 38.5825 41.1741 37.5766 41.5318C37.6884 41.8447 37.8673 42.0905 37.8896 42.4927C38.4933 42.3365 39.2084 42.4482 39.7224 42.6939C39.1189 42.7611 38.4708 42.7611 38.0684 43.0517C37.9341 43.4763 38.113 44.0353 38.0013 44.6165C39.4094 45.0189 41.0414 45.2199 42.8296 45.2868C43.1648 44.8399 43.2989 43.9905 43.2542 43.1189ZM20.1189 40.4587C19.8284 40.2577 17.8837 37.7315 17.6154 37.8434C14.1061 39.2294 10.8202 41.6213 7.89187 43.901C10.686 49.9141 11.8261 57.2682 12.0273 64.3539C15.224 65.8517 18.0401 68.0199 22.3989 68.2434C21.8849 64.6894 21.438 61.4927 21.1473 58.1398C20.052 57.6705 18.4873 58.1623 17.459 58.0057C17.459 56.7763 19.0236 57.4693 19.1577 56.6423C19.2473 56.0163 18.2858 55.9717 18.599 54.9882C19.4037 55.2787 19.8284 55.9269 20.6778 56.1729C21.4602 54.4741 20.6778 51.4565 20.7896 50.0258C20.8121 49.7577 20.9236 48.5505 21.5272 48.7517C22.0637 48.9305 21.5048 51.9929 21.5497 53.3339C21.5942 54.5858 21.393 55.7705 21.9072 56.5529C26.1097 55.9717 30.379 55.6139 34.9389 55.4799C33.933 55.0553 32.7484 54.653 31.4518 53.9151C30.7366 53.5129 28.5237 52.6858 28.3225 52.0151C27.9872 50.9422 29.1718 50.3835 29.373 49.4669C27.2496 50.6293 26.8472 48.3495 26.3332 46.7622C25.886 45.3091 25.6178 44.2141 25.5061 43.3869C23.6508 42.4482 21.6837 41.5763 20.1189 40.4587ZM41.3989 38.1339C44.3273 36.7259 44.8636 43.4318 43.7012 45.6001C43.8801 46.2482 44.4836 46.4942 44.7296 47.0751C43.0977 50.0035 41.2874 52.7305 39.6106 55.6139C40.8402 54.8315 42.6285 55.4799 44.0813 54.8987C44.6178 54.6975 44.9978 53.4682 45.4002 52.4846C46.5176 49.8023 47.68 46.4045 48.1944 43.8566C48.3061 43.2754 48.6413 42.001 48.5518 41.487C48.4178 40.5482 47.166 39.8553 46.5176 39.2963C45.333 38.2234 44.5953 37.3071 43.3434 36.3011C42.8742 37.0389 41.8012 37.5302 41.3989 38.1339ZM13.4354 12.1822C12.0495 13.7247 12.3402 16.5859 12.4967 18.6422C15.0225 17.0554 18.3532 18.7765 18.3306 21.4589C19.5377 21.4363 18.7778 19.9611 18.5544 18.9999C17.8389 15.893 19.7614 12.5399 18.6436 9.70124C16.4756 9.87988 14.7096 10.7515 13.4354 12.1822ZM23.4048 3.26355C20.2532 4.15767 16.2072 6.45997 14.9108 9.29867C15.9166 9.14233 16.6096 8.65056 17.5932 8.58343C17.9732 8.56112 18.4649 8.73999 18.8896 8.62825C19.7389 8.40477 20.4766 6.48228 21.1248 5.76703C21.7508 5.07408 22.5106 4.76117 23.025 4.13536C23.3602 3.97879 23.8517 3.97879 23.8742 3.48701C23.7402 3.33045 23.5837 3.21893 23.4048 3.26355ZM39.8341 4.11283C36.5485 2.25769 31.0049 0.871792 27.5178 2.6152C24.7013 4.0234 20.9016 6.34801 19.6049 9.2766C20.8118 12.1151 19.2473 14.7079 19.1353 17.5915C19.0908 19.1339 19.8509 20.453 19.9177 22.1295C19.493 22.8225 18.2413 22.8893 17.3697 22.8447C17.079 21.3691 16.565 19.7151 15.0448 19.5363C12.8991 19.2906 11.312 21.0787 11.2226 22.9342C11.1108 25.1247 12.8991 28.7458 15.4472 28.5001C16.4308 28.4106 16.6768 27.427 17.7494 27.427C18.3306 28.5895 16.8556 28.947 16.699 29.7739C16.6542 29.9977 16.8108 30.8246 16.9225 31.227C17.392 33.127 18.4201 35.6082 19.426 37.0611C20.7224 38.9163 23.2485 39.1846 25.9754 39.3635C26.4672 38.3129 28.2554 38.4022 29.4176 38.6706C28.0097 38.1118 26.7132 36.7706 25.6402 35.5858C24.4106 34.2222 23.159 32.7694 23.0918 30.9813C25.439 34.2222 27.3613 37.0611 31.6084 38.4919C34.8272 39.5646 38.5825 37.9999 41.0637 36.2565C42.0918 35.541 42.6953 34.3789 43.4332 33.3505C46.1601 29.4165 47.4342 23.8281 47.166 18.3965C47.0542 16.1613 47.0542 13.9258 46.2941 12.4282C45.512 10.8634 42.852 9.43293 41.2872 10.8634C40.9965 9.3212 42.5836 8.38225 44.4388 8.94116C43.1202 7.22005 41.7344 5.18581 39.8341 4.11283ZM45.9589 54.653C48.5296 53.3787 53.313 51.2329 54.9001 54.653C55.5038 55.9269 56.1965 58.0506 56.4872 59.3693C56.9118 61.2023 56.0177 65.0918 54.1177 65.695C52.4412 66.2317 50.4966 66.2094 48.4849 65.807C48.2389 65.6058 47.9932 65.2703 47.792 64.9126C46.3614 64.8681 44.9978 64.98 43.8801 65.5835C43.9918 66.6563 43.2765 66.8129 42.5836 67.0366C42.0918 69.0258 43.5894 71.6186 43.232 73.4069C42.986 74.7034 41.3989 74.9045 40.2366 75.1279C40.1918 75.8435 40.2813 76.447 40.3708 77.0505C40.1026 78.034 38.9177 78.5927 37.7778 78.727C34.045 79.1739 28.3897 79.3751 24.8132 78.0786C23.8072 75.62 23.025 72.647 22.1977 69.853C18.7108 70.2327 15.872 68.3551 13.212 67.1034C12.2956 66.6788 11.0214 66.4329 10.6637 65.6953C10.3285 64.9801 10.4625 63.6165 10.3731 62.3423C10.1719 59.0565 9.97071 55.8822 9.12143 52.5293C8.74139 51.0093 8.04844 49.6906 7.57896 48.2378C7.13201 46.8965 6.37193 45.2199 6.17076 43.8787C5.88016 41.8895 7.75783 41.7775 8.94256 40.9057C10.7979 39.5646 12.2507 38.8269 14.2624 37.6198C14.8661 37.2623 16.6542 36.3682 16.8553 35.9434C17.258 35.1166 16.1626 33.9542 15.872 33.3058C15.4025 32.2777 15.1565 31.4058 15.0897 30.3998C13.4132 30.1317 12.1167 29.1258 11.3568 28.0082C10.0825 26.1306 9.18833 22.6658 10.3061 20.0506C10.3956 19.8494 10.8202 19.4246 10.8874 19.1117C11.0214 18.4858 10.6414 17.6586 10.6191 16.9882C10.5073 13.5681 11.2003 10.6174 13.5026 9.58928C14.4413 5.85647 17.7941 4.62713 20.9461 2.77176C22.1309 2.07881 23.4273 1.63187 24.7684 1.13987C29.5742 -0.62584 36.9732 -0.29063 40.9742 2.72693C42.673 4.00109 45.3777 6.70575 46.3389 8.67285C48.9093 13.8365 48.7084 22.487 46.9201 28.7906C46.6741 29.6399 46.3389 30.8693 45.8472 31.8977C45.512 32.6129 44.4613 34.0211 44.573 34.6469C44.7073 35.2953 46.9873 37.0163 47.479 37.4858C48.3509 38.3351 50.0272 39.4529 50.1612 40.5259C50.3177 41.6658 49.6697 43.2306 49.3345 44.3258C48.2612 47.9918 47.1885 51.3671 45.9589 54.653Z" fill="#231F20"/>
<path d="M28.8621 29.2599C28.9961 29.0811 29.7559 28.7907 30.829 29.3047C30.829 29.3047 29.5547 29.5059 29.6665 31.6296L29.1302 31.5176C29.1527 31.5402 28.5938 29.6176 28.8621 29.2599Z" fill="#F7E4CD"/>
<path d="M38.1155 47.4105C38.1155 47.7235 37.8475 47.9917 37.5343 47.9917C37.2214 47.9917 36.9531 47.7235 36.9531 47.4105C36.9531 47.0973 37.2214 46.8293 37.5343 46.8293C37.8698 46.8293 38.1155 47.0973 38.1155 47.4105ZM38.6967 50.1152C38.6967 50.4283 38.4287 50.6964 38.1155 50.6964C37.8026 50.6964 37.5343 50.4283 37.5343 50.1152C37.5343 49.802 37.8026 49.534 38.1155 49.534C38.451 49.534 38.6967 49.78 38.6967 50.1152Z" fill="#1D1919"/>
</g>
</svg>
