<svg width="80" height="80" viewBox="0 0 80 80" fill="none" xmlns="http://www.w3.org/2000/svg">
<path d="M22.5524 38.4349C22.5524 39.42 22.6524 40.22 22.8424 40.81C23.0524 41.3949 23.3224 42.0349 23.6924 42.73C23.8106 42.9136 23.8747 43.1267 23.8775 43.3449C23.8775 43.61 23.7175 43.88 23.3775 44.1451L21.6975 45.2651C21.4958 45.4105 21.256 45.494 21.0075 45.5051C20.7375 45.5051 20.4724 45.3751 20.2075 45.1351C19.8482 44.7483 19.5267 44.328 19.2475 43.88C18.95 43.3671 18.6748 42.8416 18.4224 42.3051C16.3475 44.76 13.7424 45.99 10.6025 45.99C8.3675 45.99 6.5825 45.3449 5.2825 44.0649C3.9775 42.7849 3.3125 41.0751 3.3125 38.94C3.3125 36.67 4.1125 34.83 5.7325 33.44C7.3575 32.05 9.5125 31.36 12.2525 31.36C13.1525 31.36 14.0875 31.44 15.0724 31.57C16.0575 31.7051 17.0724 31.92 18.1324 32.16V30.21C18.1324 28.18 17.7075 26.7651 16.8824 25.94C16.0324 25.11 14.5924 24.71 12.5425 24.71C11.6125 24.71 10.6575 24.82 9.6725 25.06C8.69387 25.2929 7.7331 25.5953 6.7975 25.9651C6.49545 26.1017 6.18478 26.2187 5.8675 26.3151C5.73002 26.3604 5.5871 26.3873 5.4425 26.3949C5.0675 26.3949 4.8825 26.1251 4.8825 25.5651V24.2551C4.8825 23.83 4.9325 23.5051 5.0675 23.3251C5.26899 23.0797 5.52611 22.886 5.8175 22.76C6.7425 22.28 7.8625 21.88 9.1675 21.56C10.4675 21.21 11.8525 21.0551 13.3175 21.0551C16.4824 21.0551 18.7975 21.7751 20.2875 23.2151C21.7524 24.6551 22.4975 26.8449 22.4975 29.7849V38.4349H22.5475H22.5524ZM11.7475 42.49C12.6225 42.49 13.5275 42.33 14.4875 42.01C15.4424 41.69 16.2975 41.1 17.0124 40.3C17.4412 39.8088 17.751 39.2253 17.9175 38.5951C18.0775 37.95 18.1875 37.18 18.1875 36.27V35.15C17.3799 34.9541 16.5619 34.8039 15.7375 34.7C14.9084 34.5928 14.0735 34.5376 13.2375 34.5351C11.4525 34.5351 10.1475 34.8851 9.2725 35.6051C8.3925 36.3249 7.9725 37.34 7.9725 38.6751C7.9725 39.9251 8.2875 40.86 8.9525 41.5049C9.5925 42.17 10.5225 42.49 11.7475 42.49ZM33.1124 45.3749C32.6324 45.3749 32.3124 45.2951 32.1024 45.1051C31.8875 44.9451 31.7024 44.5749 31.5424 44.0649L25.2924 23.43C25.1692 23.0841 25.087 22.7251 25.0475 22.36C25.0475 21.9351 25.2624 21.6951 25.6875 21.6951H28.2975C28.7975 21.6951 29.1475 21.7751 29.3324 21.96C29.5475 22.12 29.7075 22.4951 29.8675 23L34.3375 40.6751L38.4875 23C38.6175 22.47 38.7775 22.12 38.9875 21.96C39.3083 21.7635 39.682 21.6709 40.0575 21.6951H42.1824C42.6924 21.6951 43.0324 21.7751 43.2475 21.96C43.4624 22.12 43.6475 22.4951 43.7524 23L47.9575 40.89L52.5575 23C52.6428 22.6129 52.8271 22.2545 53.0924 21.96C53.4023 21.7636 53.7666 21.6708 54.1324 21.6951H56.6075C57.0324 21.6951 57.2724 21.91 57.2724 22.36C57.2724 22.4951 57.2425 22.63 57.2225 22.79C57.1795 23.0169 57.1159 23.2396 57.0324 23.4551L50.6175 44.09C50.4575 44.6251 50.2724 44.9751 50.0624 45.1351C49.7606 45.3281 49.4054 45.4209 49.0475 45.4H46.7624C46.2575 45.4 45.9124 45.32 45.6975 45.1351C45.4824 44.9451 45.2975 44.6 45.1925 44.0649L41.0675 26.85L36.9675 44.0451C36.8375 44.58 36.6775 44.9251 36.4675 45.11C36.2524 45.3 35.8775 45.38 35.4024 45.38H33.1124V45.3749ZM67.3024 46.0951C65.9218 46.0968 64.5455 45.9357 63.2024 45.6151C61.8725 45.2951 60.8375 44.9451 60.1424 44.5451C59.7175 44.3051 59.4275 44.04 59.3175 43.7951C59.2159 43.5597 59.1631 43.3063 59.1624 43.05V41.69C59.1624 41.13 59.3724 40.86 59.7724 40.86C59.9358 40.8604 60.0979 40.8873 60.2524 40.94C60.4124 40.9949 60.6524 41.1 60.9175 41.21C61.8175 41.61 62.8075 41.93 63.8424 42.1451C64.9075 42.3551 65.9424 42.4651 67.0075 42.4651C68.6875 42.4651 69.9875 42.17 70.8924 41.5851C71.3272 41.3219 71.6844 40.9481 71.9278 40.5019C72.1711 40.0557 72.2918 39.5531 72.2775 39.0451C72.2864 38.702 72.2275 38.3607 72.1039 38.0405C71.9803 37.7204 71.7946 37.428 71.5575 37.18C71.0825 36.67 70.1775 36.2151 68.8725 35.79L65.0124 34.59C63.0724 33.9751 61.6324 33.0651 60.7575 31.8651C59.901 30.7563 59.4335 29.3961 59.4275 27.9951C59.4275 26.8751 59.6675 25.8851 60.1424 25.03C60.6224 24.18 61.2624 23.43 62.0624 22.84C62.8624 22.23 63.7625 21.7751 64.8275 21.4551C65.8924 21.1351 67.0075 21 68.1775 21C68.7675 21 69.3775 21.0251 69.9624 21.1051C70.5724 21.1851 71.1325 21.2951 71.6925 21.4051C72.2225 21.5351 72.7325 21.6651 73.2075 21.83C73.6875 21.99 74.0575 22.15 74.3275 22.31C74.6415 22.4676 74.9151 22.6952 75.1275 22.9749C75.2987 23.2353 75.3811 23.544 75.3624 23.8551V25.11C75.3624 25.67 75.1525 25.9651 74.7524 25.9651C74.3983 25.9245 74.0554 25.8159 73.7424 25.6451C72.1347 24.9321 70.3911 24.5772 68.6324 24.6051C67.1175 24.6051 65.9175 24.8451 65.0924 25.3551C64.2675 25.8551 63.8424 26.6351 63.8424 27.73C63.8424 28.4751 64.1075 29.1151 64.6424 29.6251C65.1724 30.13 66.1575 30.6351 67.5675 31.09L71.3475 32.29C73.2625 32.9051 74.6475 33.76 75.4725 34.8551C76.2975 35.95 76.6925 37.2051 76.6925 38.5951C76.6925 39.7451 76.4575 40.78 76.0024 41.69C75.5314 42.6031 74.8699 43.4045 74.0624 44.04C73.2375 44.7049 72.2524 45.19 71.1075 45.5351C69.9075 45.91 68.6575 46.0951 67.3024 46.0951Z" fill="#252F3E"/>
<path fill-rule="evenodd" clip-rule="evenodd" d="M72.3246 59.0647C63.5746 65.5498 50.8546 68.9947 39.9197 68.9947C24.5946 68.9947 10.7846 63.3098 0.354651 53.8598C-0.470349 53.1098 0.274651 52.0947 1.25465 52.6847C12.5396 59.2498 26.4546 63.2298 40.8546 63.2298C50.5597 63.2298 61.2297 61.1998 71.0497 57.0347C72.5146 56.3698 73.7646 57.9947 72.3246 59.0647Z" fill="#FF9900"/>
<path fill-rule="evenodd" clip-rule="evenodd" d="M75.9698 54.8999C74.8549 53.4649 68.5749 54.2099 65.7298 54.5549C64.8798 54.6649 64.7449 53.915 65.5149 53.355C70.5149 49.8299 78.7398 50.8449 79.6949 52.0199C80.6549 53.2199 79.4298 61.4699 74.7449 65.4199C74.0298 66.0349 73.3398 65.7199 73.6549 64.9199C74.7198 62.2699 77.0898 56.3199 75.9698 54.9049V54.8999Z" fill="#FF9900"/>
</svg>
