<svg width="74" height="80" viewBox="0 0 74 80" fill="none" xmlns="http://www.w3.org/2000/svg">
<mask id="mask0_5236_1475" style="mask-type:luminance" maskUnits="userSpaceOnUse" x="0" y="0" width="73" height="80">
<path d="M72.608 0H0V80H72.608V0Z" fill="white"/>
</mask>
<g mask="url(#mask0_5236_1475)">
<path d="M71.9011 33.7382C71.6993 33.5721 69.8823 32.2102 65.9795 32.2102C64.9701 32.2102 63.927 32.3098 62.9177 32.4759C62.1775 27.3934 57.9045 24.9351 57.7362 24.8023L56.6931 24.2043L56.0202 25.1677C55.1791 26.4633 54.5398 27.925 54.1697 29.4198C53.4633 32.3098 53.9005 35.0338 55.381 37.359C53.5978 38.3557 50.7042 38.5883 50.0986 38.6214H2.32114C1.07628 38.6214 0.0668808 39.6181 0.0668808 40.8471C-0.000323787 44.9663 0.706173 49.0854 2.15301 52.972C3.80158 57.2241 6.25783 60.3799 9.42057 62.3066C12.987 64.4658 18.8077 65.6949 25.3687 65.6949C28.3295 65.6949 31.2903 65.4293 34.2175 64.8977C38.2887 64.1667 42.1917 62.7717 45.7918 60.7453C48.7422 59.0566 51.4007 56.903 53.665 54.3673C57.467 50.1485 59.7213 45.4314 61.3698 41.2458H62.0427C66.1813 41.2458 68.7383 39.6181 70.1514 38.2227C71.0935 37.359 71.7999 36.2962 72.3047 35.1003L72.6077 34.2366L71.9011 33.7382Z" fill="#0091E2"/>
<path d="M6.75947 37.2593H13.1522C13.4551 37.2593 13.7243 37.0269 13.7243 36.6948V31.0476C13.7243 30.7485 13.4887 30.4829 13.1522 30.4829H6.75947C6.45669 30.4829 6.1875 30.7153 6.1875 31.0476V36.6948C6.2211 37.0269 6.45669 37.2593 6.75947 37.2593ZM15.5747 37.2593H21.9675C22.2703 37.2593 22.5395 37.0269 22.5395 36.6948V31.0476C22.5395 30.7485 22.3039 30.4829 21.9675 30.4829H15.5746C15.2718 30.4829 15.0026 30.7153 15.0026 31.0476V36.6948C15.0363 37.0269 15.272 37.2593 15.5747 37.2593ZM24.558 37.2594H30.9508C31.2536 37.2594 31.5228 37.0269 31.5228 36.6948V31.0476C31.5228 30.7485 31.2872 30.4829 30.9508 30.4829H24.558C24.2552 30.4829 23.986 30.7153 23.986 31.0476V36.6948C23.986 37.0269 24.2216 37.2594 24.558 37.2594ZM33.407 37.2594H39.7998C40.1026 37.2594 40.3718 37.0269 40.3718 36.6948V31.0476C40.3718 30.7485 40.1362 30.4829 39.7998 30.4829H33.407C33.1042 30.4829 32.835 30.7153 32.835 31.0476V36.6948C32.835 37.0269 33.1042 37.2594 33.407 37.2594ZM15.5747 29.1873H21.9674C22.2702 29.1873 22.5394 28.9216 22.5394 28.6226V22.9753C22.5394 22.6764 22.3038 22.4105 21.9674 22.4105H15.5746C15.2718 22.4105 15.0026 22.643 15.0026 22.9753V28.6226C15.0363 28.9216 15.272 29.1873 15.5747 29.1873ZM24.558 29.1873H30.9508C31.2536 29.1873 31.5228 28.9216 31.5228 28.6226V22.9753C31.5228 22.6764 31.2872 22.4105 30.9508 22.4105H24.558C24.2552 22.4105 23.986 22.643 23.986 22.9753V28.6226C23.986 28.9216 24.2216 29.1873 24.558 29.1873ZM33.407 29.1873H39.7998C40.1026 29.1873 40.3718 28.9216 40.3718 28.6226V22.9753C40.3718 22.6764 40.1024 22.4105 39.7998 22.4105H33.407C33.1042 22.4105 32.835 22.643 32.835 22.9753V28.6226C32.835 28.9216 33.1042 29.1873 33.407 29.1873ZM33.407 21.0818H39.7998C40.1026 21.0818 40.3718 20.8493 40.3718 20.5172V14.87C40.3718 14.5709 40.1024 14.3052 39.7998 14.3052H33.407C33.1042 14.3052 32.835 14.5377 32.835 14.87V20.5172C32.835 20.8161 33.1042 21.0818 33.407 21.0818ZM42.3231 37.2594H48.7159C49.0187 37.2594 49.2879 37.0269 49.2879 36.6948V31.0476C49.2879 30.7485 49.0524 30.4829 48.7159 30.4829H42.3232C42.0203 30.4829 41.7511 30.7153 41.7511 31.0476V36.6948C41.7848 37.0269 42.0203 37.2594 42.3231 37.2594Z" fill="#0091E2"/>
</g>
</svg>
