<svg width="80" height="80" viewBox="0 0 80 80" fill="none" xmlns="http://www.w3.org/2000/svg">
<g clip-path="url(#clip0_5236_1434)">
<mask id="mask0_5236_1434" style="mask-type:luminance" maskUnits="userSpaceOnUse" x="0" y="0" width="80" height="80">
<path d="M80 0H0V80H80V0Z" fill="white"/>
</mask>
<g mask="url(#mask0_5236_1434)">
<path d="M61.4554 34.125C58.9708 29.4692 55.0398 25.7474 50.2553 23.5208C45.4708 21.2941 40.0921 20.6833 34.9301 21.7805C29.7681 22.8778 25.1028 25.6236 21.6376 29.6037C18.1724 33.584 16.0952 38.5829 15.7192 43.8468C11.4264 44.3084 7.47394 46.3978 4.67497 49.685C1.87599 52.9724 0.443464 57.2074 0.672144 61.5188C0.900826 65.8302 2.77333 69.89 5.90433 72.8628C9.03534 75.8354 13.1867 77.495 17.5041 77.5H57.5041C62.9624 77.5033 68.2245 75.4653 72.2564 71.7862C76.2882 68.1072 78.7985 63.0532 79.2937 57.6174C79.7888 52.1818 78.2332 46.7574 74.9324 42.4104C71.6316 38.0633 66.8244 35.108 61.4554 34.125ZM57.5041 73.75H17.5041C14.178 73.7577 10.9737 72.4992 8.54174 70.2301C6.10981 67.961 4.63259 64.8514 4.41007 61.5328C4.18755 58.2141 5.23639 54.9352 7.34363 52.3617C9.45087 49.7882 12.4585 48.1132 15.7558 47.6768C16.0204 50.9852 16.9593 54.2044 18.5149 57.1362C18.6276 57.3598 18.7837 57.5585 18.9744 57.7206C19.165 57.8828 19.3862 58.0052 19.6249 58.0805C19.8636 58.1558 20.1149 58.1826 20.3641 58.1593C20.6133 58.136 20.8553 58.063 21.0758 57.9446C21.2964 57.8262 21.491 57.665 21.6482 57.4702C21.8054 57.2756 21.9221 57.0513 21.9913 56.8108C22.0604 56.5702 22.0808 56.3182 22.051 56.0697C22.0213 55.8212 21.9421 55.5812 21.8181 55.3637C19.3398 50.7308 18.7232 45.3265 20.0941 40.2542C21.4649 35.1821 24.72 30.8242 29.1946 28.0704C33.6694 25.3165 39.0265 24.3742 44.1722 25.436C49.3181 26.4977 53.8648 29.4832 56.8841 33.7833C53.8878 33.8658 50.9405 34.5632 48.2248 35.8317C45.509 37.1004 43.0828 38.9133 41.0966 41.1582C40.9274 41.3418 40.7968 41.5573 40.712 41.7921C40.6272 42.0269 40.5902 42.2762 40.6032 42.5256C40.616 42.7749 40.6785 43.019 40.787 43.2438C40.8956 43.4686 41.0478 43.6696 41.235 43.8346C41.4222 43.9998 41.6405 44.126 41.877 44.2056C42.1136 44.2853 42.3637 44.3169 42.6126 44.2988C42.8616 44.2805 43.1044 44.2126 43.3269 44.0993C43.5493 43.9861 43.7468 43.8294 43.9078 43.6388C45.9109 41.3668 48.4513 39.633 51.297 38.5958C54.1428 37.5586 57.203 37.2512 60.1982 37.7014C63.1934 38.1517 66.028 39.3454 68.4429 41.1734C70.858 43.0016 72.7764 45.4056 74.0228 48.1661C75.2692 50.9265 75.804 53.9554 75.5782 56.9758C75.3525 59.9962 74.3734 62.912 72.7305 65.4565C71.0877 68.001 68.8333 70.0933 66.1734 71.5421C63.5136 72.9908 60.533 73.75 57.5041 73.75Z" fill="black"/>
<path d="M79.7524 25.6371C79.628 25.4214 79.4623 25.2322 79.2647 25.0804C79.0671 24.9287 78.8415 24.8175 78.6008 24.7531C78.3602 24.6886 78.1092 24.6722 77.8623 24.7048C77.6152 24.7375 77.3771 24.8184 77.1615 24.9431L69.6115 29.3027C69.3898 29.4239 69.1946 29.5883 69.0372 29.786C68.8799 29.9839 68.7638 30.2111 68.6955 30.4544C68.6272 30.6978 68.6083 30.9523 68.6398 31.203C68.6712 31.4538 68.7526 31.6956 68.8788 31.9146C69.0051 32.1335 69.1739 32.325 69.3752 32.4776C69.5766 32.6304 69.8063 32.7415 70.0511 32.8042C70.2959 32.8668 70.5508 32.88 70.8008 32.8428C71.0507 32.8056 71.2908 32.7188 71.5067 32.5876L79.0567 28.2282C79.4926 27.9768 79.8107 27.5626 79.9411 27.0767C80.0716 26.5908 80.0038 26.073 79.7524 25.6371Z" fill="black"/>
<path d="M56.6981 19.6749C56.9137 19.7995 57.1518 19.8805 57.3989 19.9131C57.6458 19.9457 57.8967 19.9293 58.1374 19.8649C58.3781 19.8003 58.6035 19.6891 58.8013 19.5375C58.9989 19.3858 59.1646 19.1966 59.289 18.9809L63.6486 11.4309C63.8957 10.9955 63.9606 10.4801 63.8293 9.99705C63.6979 9.514 63.381 9.10244 62.9475 8.85211C62.5139 8.60177 61.9991 8.53296 61.5151 8.66067C61.031 8.78837 60.6171 9.10224 60.3635 9.53385L56.0041 17.0838C55.7526 17.5195 55.6845 18.0371 55.8146 18.523C55.9447 19.009 56.2625 19.4233 56.6981 19.6749Z" fill="black"/>
<path d="M40.0062 15.2028C40.5094 15.2027 40.9918 15.0027 41.3475 14.6469C41.7032 14.2912 41.9031 13.8088 41.9032 13.3057V4.58674C41.9062 4.33581 41.8592 4.0868 41.7651 3.85413C41.6711 3.62146 41.5319 3.40977 41.3554 3.2313C41.179 3.05284 40.969 2.91116 40.7374 2.81445C40.5058 2.71776 40.2574 2.66797 40.0063 2.66797C39.7554 2.66797 39.507 2.71776 39.2754 2.81445C39.0438 2.91116 38.8338 3.05284 38.6572 3.2313C38.4808 3.40977 38.3416 3.62146 38.2476 3.85413C38.1535 4.0868 38.1066 4.33581 38.1095 4.58674V13.3057C38.1095 13.8088 38.3094 14.2912 38.6651 14.6469C39.0208 15.0027 39.5032 15.2027 40.0062 15.2028Z" fill="black"/>
<path d="M20.7223 18.9806C20.9759 19.4122 21.3899 19.7261 21.8739 19.8537C22.3579 19.9814 22.8729 19.9126 23.3063 19.6623C23.7398 19.4119 24.0567 19.0003 24.1881 18.5174C24.3194 18.0343 24.2545 17.5189 24.0074 17.0835L19.6479 9.53356C19.5243 9.31589 19.359 9.12481 19.1613 8.97136C18.9635 8.81791 18.7374 8.70509 18.4959 8.63944C18.2543 8.57377 18.0022 8.55656 17.7541 8.58879C17.5058 8.62101 17.2665 8.70204 17.0498 8.8272C16.833 8.95236 16.6431 9.11917 16.4913 9.31804C16.3393 9.51689 16.2282 9.74387 16.1643 9.98587C16.1005 10.2279 16.0851 10.4801 16.1193 10.7281C16.1533 10.976 16.2361 11.2148 16.3629 11.4306L20.7223 18.9806Z" fill="black"/>
<path d="M10.3997 29.3025L2.84975 24.9429C2.63395 24.8163 2.39521 24.7333 2.14725 24.6993C1.8993 24.6652 1.64706 24.6805 1.40506 24.7444C1.16306 24.8083 0.93609 24.9193 0.73723 25.0713C0.53837 25.2233 0.371551 25.4131 0.246391 25.6299C0.121231 25.8467 0.0402028 26.086 0.00797654 26.3341C-0.0242497 26.5824 -0.00703634 26.8345 0.0586242 27.076C0.124285 27.3175 0.237094 27.5436 0.390551 27.7413C0.544007 27.9391 0.735077 28.1044 0.952747 28.228L8.5035 32.5875C8.71929 32.7143 8.95805 32.7971 9.20599 32.8312C9.45394 32.8653 9.70618 32.85 9.94818 32.7861C10.1902 32.7223 10.4172 32.6112 10.616 32.4592C10.8149 32.3072 10.9817 32.1173 11.1068 31.9007C11.232 31.6839 11.313 31.4445 11.3453 31.1964C11.3775 30.9481 11.3603 30.696 11.2946 30.4545C11.229 30.2129 11.1162 29.9868 10.9627 29.7892C10.8092 29.5915 10.6174 29.426 10.3997 29.3025Z" fill="black"/>
</g>
</g>
<defs>
<clipPath id="clip0_5236_1434">
<rect width="80" height="80" fill="white"/>
</clipPath>
</defs>
</svg>
