<svg width="80" height="80" viewBox="0 0 80 80" fill="none" xmlns="http://www.w3.org/2000/svg">
<path d="M40.0031 61.0401V74.3001C62.4782 74.3001 79.9431 52.6001 72.5931 29.035C70.9868 23.9497 68.1794 19.3259 64.4083 15.5549C60.6374 11.7838 56.0135 8.97637 50.9282 7.37007C27.4031 0.0200663 5.70312 17.5201 5.70312 39.9601H18.9631C18.9631 25.885 32.9231 14.995 47.7431 20.3601C50.465 21.353 52.9368 22.929 54.9855 24.9777C57.0342 27.0263 58.6102 29.4982 59.6031 32.2201C65.0031 47.025 54.1031 60.9701 40.0431 61.0001V47.815H26.8182V61.0401H40.0031Z" fill="#0080FF"/>
<path d="M26.8144 71.2247H16.6244V61.0398H26.8144V71.2247ZM8.10938 61.0398H16.6244V52.5198H8.10938V61.0398Z" fill="#0080FF"/>
</svg>
