<svg width="80" height="80" viewBox="0 0 80 80" fill="none" xmlns="http://www.w3.org/2000/svg">
<path d="M29.4766 50.6175C32.3123 53.4355 36.1412 55.0273 40.139 55.0501V48.7501C38.985 48.7607 37.8406 48.539 36.774 48.0978C35.7075 47.6567 34.7408 47.0054 33.9315 46.1826L29.4766 50.6175Z" fill="#3F5364"/>
<path d="M45.6216 26L43.2891 31.8325C45.1323 32.5763 46.6933 33.8835 47.7491 35.5675H54.5391C53.8596 33.4089 52.7063 31.4296 51.1635 29.7743C49.6205 28.1189 47.7271 26.8293 45.6216 26Z" fill="#3F5364"/>
<path d="M25.0234 40C25.0318 42.0889 25.4684 44.1538 26.306 46.0674L32.056 43.5C31.5782 42.3958 31.3397 41.2029 31.356 40C31.3782 37.6824 32.3102 35.4662 33.9513 33.8294C35.5922 32.1926 37.8108 31.2662 40.1285 31.25V24.95C36.1325 24.952 32.3 26.5363 29.4692 29.3569C26.6385 32.1773 25.04 36.004 25.0234 40Z" fill="#F18B21"/>
<path d="M43.2656 48.1674L45.5982 53.9999C47.7335 53.173 49.6532 51.8716 51.2123 50.1943C52.7714 48.5171 53.9291 46.5075 54.5982 44.3174H47.8156C46.7823 46.082 45.1768 47.4405 43.2656 48.1674Z" fill="#F18B21"/>
<path d="M40.1139 55.7502C37.1876 55.7379 34.3227 54.9107 31.8403 53.3612C29.3579 51.8119 27.3563 49.6015 26.0597 46.9782C24.7633 44.3547 24.2233 41.422 24.5004 38.509C24.7775 35.5959 25.8607 32.8175 27.6284 30.4856C29.3963 28.1536 31.7787 26.3603 34.5087 25.3067C37.2387 24.253 40.2081 23.9807 43.0843 24.5204C45.9603 25.06 48.6291 26.3903 50.7915 28.3619C52.9539 30.3335 54.5241 32.8684 55.3263 35.6826H61.4163C60.3329 30.434 57.3408 25.774 53.0189 22.6048C48.6972 19.4356 43.3533 17.9826 38.0217 18.5271C32.6903 19.0716 27.7504 21.5748 24.1584 25.5523C20.5665 29.5298 18.5781 34.6984 18.5781 40.0576C18.5781 45.4168 20.5665 50.5855 24.1584 54.563C27.7504 58.5403 32.6903 61.0436 38.0217 61.5882C43.3533 62.1326 48.6972 60.6796 53.0189 57.5104C57.3408 54.3412 60.3329 49.6812 61.4163 44.4326H55.3263C54.3637 47.7152 52.3585 50.5951 49.6139 52.637C46.8693 54.6788 43.5345 55.7716 40.1139 55.7502Z" fill="#3F5364"/>
<path d="M40.1162 17.6002V11.6502C34.3952 11.638 28.8048 13.3593 24.0814 16.5871C19.358 19.8151 15.7233 24.3982 13.6562 29.7327L19.1562 31.8327C20.8304 27.6394 23.7213 24.0431 27.4566 21.5066C31.192 18.9702 35.601 17.6097 40.1162 17.6002Z" fill="#3F5364"/>
<path d="M40.1172 62.4001V68.3501C46.8789 68.355 53.4212 65.9499 58.5696 61.5666C63.7181 57.1833 67.136 51.1085 68.2097 44.4326H62.1197C61.1055 49.5146 58.356 54.0859 54.342 57.3638C50.3281 60.6416 45.2995 62.4219 40.1172 62.4001Z" fill="#3F5364"/>
<path d="M62.2347 35.6826H68.2072C67.4207 30.7738 65.3639 26.156 62.241 22.2879C59.1179 18.4199 55.0375 15.4359 50.4047 13.6326L48.3047 19.115C51.8184 20.5046 54.9315 22.7464 57.3631 25.6386C59.7948 28.5307 61.469 31.9823 62.2347 35.6826Z" fill="#F18B21"/>
<path d="M17.6468 40H11.6719C11.6778 45.6835 13.3888 51.2345 16.5835 55.9352C19.7782 60.6357 24.3096 64.2699 29.5919 66.3675L31.8094 60.8851C27.6372 59.21 24.0604 56.3273 21.5372 52.6064C19.0139 48.8855 17.6594 44.4957 17.6468 40Z" fill="#F18B21"/>
<path d="M68.9123 35.6828H74.8847C74.2094 30.6765 72.4924 25.8673 69.8447 21.5652L64.8047 24.7152C66.9854 28.0136 68.3898 31.7635 68.9123 35.6828Z" fill="#3F5364"/>
<path d="M5.00137 40.0225C4.95657 45.225 6.01393 50.3779 8.10386 55.1425L13.8913 52.7625C12.043 48.7635 11.0648 44.4177 11.0214 40.0125" fill="#3F5364"/>
<path d="M40.114 69.0499C36.2884 69.0551 32.4995 68.3055 28.9641 66.8439C25.4288 65.3823 22.2165 63.2375 19.5115 60.5325L15.2891 64.7325C18.5339 68.0118 22.4016 70.6095 26.6648 72.3727C30.928 74.1359 35.5007 75.0293 40.114 74.9999C48.6624 74.9925 56.916 71.875 63.3345 66.2291C69.7532 60.5833 73.8984 52.795 74.9965 44.3174H69.024C67.9373 51.2062 64.4291 57.4813 59.1299 62.0149C53.8305 66.5483 47.0879 69.0429 40.114 69.0499Z" fill="#F18B21"/>
<path d="M40.1209 10.9502C46.4162 10.9123 52.5462 12.9636 57.5509 16.7827L61.1909 12.0002C55.1169 7.43546 47.719 4.9777 40.1209 5.00015C33.052 4.99878 26.146 7.12278 20.2996 11.0963C14.4532 15.0699 9.9364 20.7095 7.33594 27.2827L12.9584 29.5001C15.1001 24.0384 18.8365 19.3479 23.6812 16.0393C28.5258 12.7308 34.2544 10.9574 40.1209 10.9502Z" fill="#F18B21"/>
</svg>
