<svg width="82" height="80" viewBox="0 0 82 80" fill="none" xmlns="http://www.w3.org/2000/svg">
<g clip-path="url(#clip0_5236_1467)">
<mask id="mask0_5236_1467" style="mask-type:luminance" maskUnits="userSpaceOnUse" x="0" y="0" width="82" height="80">
<path d="M81.3559 0H0V79.1431H81.3559V0Z" fill="white"/>
</mask>
<g mask="url(#mask0_5236_1467)">
<path d="M26.0925 77.8453C24.2029 77.8453 22.4185 77.0057 21.2112 75.4834L2.84094 52.6512C1.63363 51.1291 1.16139 49.1874 1.63363 47.2973L8.19455 18.7967C8.61436 16.9071 9.87411 15.3849 11.6064 14.5452L38.1649 1.84293C39.0049 1.42345 39.9497 1.21338 40.8946 1.21338C41.8394 1.21338 42.7838 1.42312 43.6238 1.84326L70.1827 14.4929C71.9146 15.3325 73.1744 16.8546 73.5942 18.7443L80.1552 47.245C80.5752 49.1346 80.1552 51.0766 78.9481 52.5989L60.5773 75.4309C59.3699 76.9005 57.5855 77.7928 55.6959 77.7928L26.0925 77.8453Z" fill="#326DE6"/>
<path d="M40.8382 2.5254C41.5732 2.5254 42.308 2.68272 42.9903 2.99765L69.5492 15.6473C70.9138 16.3296 71.9635 17.5892 72.2784 19.0591L78.8394 47.5597C79.2067 49.082 78.8394 50.6566 77.8421 51.8637L59.4715 74.6961C58.5267 75.903 57.057 76.5853 55.535 76.5853H26.0893C24.567 76.5853 23.0976 75.903 22.1527 74.6961L3.78215 51.8637C2.83735 50.6566 2.46965 49.082 2.7849 47.5597L9.34583 19.0591C9.71319 17.5369 10.7104 16.2771 12.0751 15.6473L38.6342 2.94554C39.3165 2.68303 40.1034 2.5254 40.8382 2.5254ZM40.8382 0.0583496C39.7361 0.0583496 38.634 0.32085 37.5839 0.793096L11.0254 13.4954C8.92569 14.4927 7.4562 16.3296 6.93121 18.5865L0.370291 47.0875C-0.154392 49.3445 0.370291 51.6539 1.8401 53.4911L20.2106 76.3232C21.628 78.1076 23.7799 79.1049 26.0368 79.1049H55.4822C57.7393 79.1049 59.8913 78.1076 61.3084 76.3232L79.6793 53.4908C81.1488 51.7064 81.6738 49.3445 81.1488 47.0871L74.5879 18.5865C74.0633 16.3296 72.5934 14.4927 70.494 13.4954L44.0401 0.792777C43.0428 0.32085 41.9407 0.0583496 40.8382 0.0583496Z" fill="white"/>
<path d="M67.45 45.3028C67.3975 45.3028 67.3975 45.3028 67.45 45.3028H67.3975C67.345 45.3028 67.2927 45.3028 67.2927 45.2505C67.1877 45.2505 67.0829 45.198 66.9777 45.198C66.6104 45.1455 66.2954 45.093 65.9804 45.093C65.8228 45.093 65.6656 45.093 65.4554 45.0403H65.403C64.3009 44.9355 63.4085 44.8307 62.5686 44.5681C62.2011 44.4105 62.0963 44.2007 61.9911 43.9907C61.9911 43.9382 61.9386 43.9382 61.9386 43.8858L61.2563 43.6761C61.5788 41.2069 61.4543 38.6999 60.889 36.2749C60.3159 33.8297 59.3213 31.5029 57.9498 29.3991L58.4748 28.9268V28.8218C58.4748 28.5595 58.5271 28.297 58.7369 28.0345C59.3667 27.457 60.1542 26.9847 61.099 26.4073C61.2563 26.3024 61.4138 26.2499 61.5713 26.1448C61.8863 25.9875 62.1488 25.8301 62.4637 25.6201C62.5161 25.5676 62.6209 25.5153 62.7262 25.4103C62.7786 25.3576 62.8311 25.3576 62.8311 25.3052C63.5658 24.6753 63.7235 23.6256 63.1984 22.9429C62.9359 22.5756 62.4637 22.3658 61.9911 22.3658C61.5716 22.3658 61.204 22.5231 60.8365 22.7856L60.7317 22.8906C60.6268 22.9429 60.574 23.0482 60.4692 23.1006C60.2067 23.3631 59.9967 23.5729 59.7869 23.8354C59.682 23.9402 59.5771 24.0979 59.4196 24.2027C58.6844 24.9903 58.0021 25.6201 57.3198 26.0924C57.1625 26.1972 57.0052 26.2499 56.8477 26.2499C56.7427 26.2499 56.6375 26.2499 56.5327 26.1972H56.4277L55.7976 26.6174C55.1153 25.8826 54.3805 25.2528 53.6458 24.6228C50.482 22.1498 46.6742 20.6376 42.6757 20.2662L42.6234 19.5839L42.5184 19.4791C42.3609 19.3214 42.1511 19.1641 42.0984 18.7968C42.0459 17.9568 42.1511 17.0119 42.2559 15.9623V15.9098C42.2559 15.7521 42.3084 15.5425 42.3609 15.3848C42.4132 15.0703 42.4657 14.755 42.5184 14.3875V13.9154C42.5184 12.9705 41.7834 12.1833 40.8913 12.1833C40.4712 12.1833 40.0515 12.3931 39.7365 12.708C39.4219 13.023 39.2642 13.4428 39.2642 13.9154V14.3352C39.2642 14.7025 39.3167 15.0175 39.4215 15.3324C39.474 15.49 39.474 15.6473 39.5264 15.8574V15.9098C39.6312 16.9595 39.7889 17.9043 39.684 18.7443C39.6317 19.1116 39.4215 19.2689 39.2642 19.4266L39.1594 19.5314L39.1066 20.2137C38.1618 20.3187 37.217 20.4235 36.2722 20.6335C32.2307 21.526 28.6616 23.5732 25.8799 26.5122L25.3549 26.1448H25.2501C25.1451 26.1448 25.0399 26.1972 24.9351 26.1972C24.7774 26.1972 24.6201 26.1448 24.4626 26.0399C23.7803 25.5676 23.098 24.885 22.3632 24.0979C22.2582 23.993 22.1534 23.8354 21.9959 23.7305C21.7857 23.4679 21.5757 23.2579 21.3131 22.9957C21.2607 22.9429 21.1559 22.8909 21.051 22.7856C20.9986 22.7333 20.9461 22.7333 20.9461 22.6808C20.6209 22.4121 20.2131 22.2637 19.7912 22.2606C19.3187 22.2606 18.8464 22.4708 18.5839 22.8381C18.0589 23.5204 18.2166 24.57 18.9512 25.2C19.0037 25.2 19.0037 25.2528 19.0562 25.2528C19.161 25.3052 19.2138 25.41 19.3187 25.4625C19.6336 25.6723 19.8961 25.8298 20.211 25.9875C20.3687 26.0399 20.526 26.1448 20.6836 26.2499C21.6281 26.8271 22.4157 27.2997 23.0455 27.877C23.308 28.1393 23.308 28.4018 23.308 28.6643V28.7691L23.8326 29.2418C23.7278 29.3991 23.623 29.5041 23.5701 29.6616C20.9458 33.8081 19.9485 38.6895 20.6308 43.5184L19.9485 43.7281C19.9485 43.7809 19.8961 43.7809 19.8961 43.833C19.7912 44.0431 19.6336 44.2532 19.3187 44.4105C18.5315 44.673 17.5866 44.7782 16.4845 44.883H16.4318C16.2745 44.883 16.0645 44.883 15.9072 44.9355C15.5922 44.9355 15.2772 44.9879 14.9099 45.0403C14.8051 45.0403 14.7001 45.093 14.5949 45.093C14.5426 45.093 14.4901 45.093 14.4373 45.1455C13.4925 45.3553 12.9151 46.2476 13.0727 47.0872C13.2303 47.8224 13.9126 48.2949 14.7522 48.2949C14.9099 48.2949 15.0147 48.2949 15.1724 48.2422C15.2249 48.2422 15.2772 48.2422 15.2772 48.1897C15.3822 48.1897 15.487 48.1372 15.5919 48.1372C15.9595 48.0324 16.222 47.9275 16.537 47.7699C16.6943 47.7174 16.8516 47.6122 17.0093 47.5602H17.0616C18.0589 47.1924 18.9512 46.8776 19.7912 46.7726H19.8961C20.211 46.7726 20.4211 46.9299 20.5784 47.0351C20.6308 47.0351 20.6308 47.0876 20.6833 47.0876L21.4184 46.9827C22.6782 50.8665 25.0924 54.3309 28.2942 56.8503C29.0289 57.4274 29.7637 57.8999 30.5512 58.3725L30.2363 59.0545C30.2363 59.1073 30.2887 59.1073 30.2887 59.1593C30.3936 59.3695 30.4985 59.632 30.3936 59.9993C30.079 60.7869 29.6064 61.574 29.0289 62.4665V62.5188C28.9241 62.6765 28.8192 62.7813 28.7144 62.9386C28.5043 63.2011 28.3466 63.4636 28.1366 63.7786C28.0841 63.8311 28.0317 63.9359 27.9793 64.0411C27.9793 64.0936 27.9268 64.1459 27.9268 64.1459C27.507 65.0384 27.822 66.0355 28.6091 66.403C28.8189 66.5078 29.0289 66.5606 29.239 66.5606C29.8689 66.5606 30.4988 66.1405 30.8138 65.563C30.8138 65.5105 30.8661 65.4582 30.8661 65.4582C30.9186 65.3532 30.971 65.2484 31.0234 65.1957C31.1811 64.8282 31.2336 64.5657 31.3384 64.2509L31.4961 63.7786C31.8634 62.729 32.1259 61.889 32.5982 61.1542C32.8079 60.8393 33.0707 60.7869 33.2805 60.6816C33.3328 60.6816 33.3328 60.6816 33.3853 60.6292L33.753 59.9469C36.0624 60.8393 38.5819 61.3115 41.1011 61.3115C42.6234 61.3115 44.198 61.1542 45.6679 60.7869C46.5927 60.5801 47.5042 60.317 48.3971 59.9993L48.7117 60.5768C48.7644 60.5768 48.7644 60.5768 48.8169 60.6292C49.0794 60.6816 49.2891 60.7869 49.4992 61.1017C49.919 61.8365 50.234 62.7288 50.6013 63.7261V63.7786L50.759 64.2509C50.8638 64.5657 50.9163 64.8807 51.0736 65.1957C51.1263 65.3005 51.1788 65.3532 51.2313 65.4582C51.2313 65.5105 51.284 65.563 51.284 65.563C51.5986 66.1928 52.2284 66.5606 52.8582 66.5606C53.0684 66.5606 53.2784 66.5078 53.4882 66.403C53.8555 66.1932 54.1705 65.878 54.2757 65.4582C54.3805 65.0384 54.3805 64.5657 54.1708 64.1459C54.1708 64.0936 54.118 64.0936 54.118 64.0411C54.0656 63.9361 54.0132 63.8313 53.9607 63.7786C53.803 63.4636 53.5934 63.2011 53.3832 62.9386C53.2784 62.7813 53.1736 62.6765 53.0687 62.5192V62.4665C52.4909 61.574 51.9659 60.7869 51.7038 59.9993C51.5988 59.632 51.7038 59.4222 51.7561 59.1597C51.7561 59.1073 51.8086 59.1073 51.8086 59.0548L51.5461 58.425C54.3281 56.7978 56.69 54.4881 58.4748 51.654C59.4196 50.1841 60.1542 48.557 60.679 46.9299L61.3088 47.0349C61.3616 47.0349 61.3616 46.9824 61.4138 46.9824C61.6238 46.8776 61.7813 46.7201 62.0963 46.7201H62.2011C63.0411 46.8251 63.9332 47.1397 64.9308 47.5074H64.9832C65.1405 47.5599 65.2978 47.6647 65.4554 47.7172C65.7704 47.8747 66.0329 47.9797 66.4002 48.0848C66.5051 48.0848 66.61 48.1372 66.7152 48.1372C66.7677 48.1372 66.82 48.1372 66.8725 48.1897C67.0302 48.2422 67.135 48.2422 67.2927 48.2422C68.0798 48.2422 68.7621 47.7174 68.9721 47.0351C68.9721 46.4053 68.3948 45.5649 67.45 45.3028ZM43.148 42.7309L40.8386 43.8334L38.5291 42.7309L37.9521 40.2642L39.5264 38.2697H42.0984L43.673 40.2642L43.148 42.7309ZM56.8477 37.2724C57.2547 39.008 57.3788 40.7981 57.215 42.5733L49.1842 40.2642C48.4496 40.0544 48.0298 39.3193 48.187 38.5846C48.2394 38.3745 48.3446 38.1645 48.5019 38.0072L54.8531 32.2858C55.7451 33.7557 56.4275 35.4355 56.8477 37.2724ZM52.3336 29.1368L45.4578 34.0182C44.8803 34.3855 44.0928 34.2804 43.6205 33.7032C43.4633 33.5456 43.4109 33.3356 43.358 33.1258L42.8859 24.57C46.4604 24.9817 49.7904 26.5913 52.3336 29.1368ZM37.1121 24.8323C37.6896 24.7275 38.2142 24.6225 38.7917 24.5177L38.3194 32.9154C38.267 33.6502 37.6896 34.28 36.902 34.28C36.6923 34.28 36.4298 34.2277 36.2722 34.1227L29.2915 29.1368C31.4436 26.9847 34.1203 25.5146 37.1121 24.8323ZM26.772 32.2856L33.018 37.8492C33.5953 38.3218 33.6478 39.2138 33.1755 39.7913C33.018 40.0011 32.8082 40.1587 32.5457 40.2114L24.4101 42.5733C24.0951 39.0041 24.8824 35.3825 26.772 32.2856ZM25.3546 46.5098L33.7005 45.0925C34.3828 45.04 35.0128 45.5126 35.1701 46.1949C35.2224 46.5096 35.2224 46.7724 35.1176 47.0349L31.9159 54.7503C28.9765 52.8606 26.6143 49.9738 25.3546 46.5098ZM44.513 56.9549C43.3057 57.2174 42.0984 57.3747 40.8386 57.3747C39.0017 57.3747 37.217 57.0601 35.5377 56.5351L39.684 49.0293C40.1038 48.5568 40.7861 48.347 41.3636 48.662C41.6087 48.8121 41.8226 49.008 41.9934 49.2391L46.0349 56.5351C45.5626 56.6924 45.038 56.7976 44.513 56.9549ZM54.7479 49.6591C53.4357 51.7585 51.7034 53.4381 49.7092 54.7503L46.4026 46.8244C46.2449 46.1949 46.5075 45.5126 47.1373 45.1973C47.347 45.0925 47.6096 45.04 47.8721 45.04L56.2702 46.4574C55.9552 47.6119 55.4302 48.662 54.7479 49.6591Z" fill="white"/>
</g>
</g>
<defs>
<clipPath id="clip0_5236_1467">
<rect width="81.3559" height="80" fill="white"/>
</clipPath>
</defs>
</svg>
