<svg width="80" height="80" viewBox="0 0 80 80" fill="none" xmlns="http://www.w3.org/2000/svg">
<g clip-path="url(#clip0_5236_1419)">
<path d="M53.2062 25.5683L60.1603 18.6143L60.6238 15.6861C47.9515 4.16328 27.8075 5.46985 16.3841 18.4124C13.2109 22.0071 10.8569 26.4887 9.60156 31.1164L12.0922 30.7655L25.9999 28.472L27.0738 27.3739C33.2603 20.5796 43.7206 19.6655 50.8638 25.4464L53.2062 25.5683Z" fill="#EA4335"/>
<path d="M70.0646 30.9118C68.4662 25.0255 65.1846 19.7339 60.6218 15.686L50.8618 25.446C54.9831 28.8136 57.3309 33.8867 57.2302 39.2076V40.9402C62.0274 40.9402 65.9169 44.8292 65.9169 49.6264C65.9169 54.4239 62.0274 58.2155 57.2302 58.2155H39.8331L38.125 60.0699V70.4886L39.8331 72.1232H57.2302C69.7083 72.2204 79.9027 62.2814 79.9999 49.8032C80.0587 42.2399 76.3297 35.1492 70.0646 30.9118Z" fill="#4285F4"/>
<path d="M22.46 72.1235H39.8328V58.2153H22.46C21.2222 58.2151 20.0234 57.9492 18.8978 57.4348L16.4332 58.1911L9.43031 65.1451L8.82031 67.512C12.7475 70.4772 17.539 72.1448 22.46 72.1235Z" fill="#34A853"/>
<path d="M22.4595 27.008C9.98103 27.0822 -0.0739651 37.2585 0.000409957 49.7366C0.0419724 56.7048 3.29635 63.2642 8.81979 67.512L18.8973 57.4348C14.5251 55.4594 12.5823 50.3142 14.5576 45.9424C16.5325 41.5704 21.6783 39.6276 26.0497 41.6026C27.9764 42.4729 29.5192 44.0161 30.3895 45.9424L40.4669 35.8652C36.1792 30.2598 29.5167 26.9826 22.4595 27.008Z" fill="#FBBC05"/>
</g>
<defs>
<clipPath id="clip0_5236_1419">
<rect width="80" height="80" fill="white"/>
</clipPath>
</defs>
</svg>
