<svg width="80" height="80" viewBox="0 0 80 80" fill="none" xmlns="http://www.w3.org/2000/svg">
<path d="M37.35 62.06L54.09 59.1L54.2451 59.0649L45.6351 48.82C42.7476 45.4032 39.8759 41.9732 37.02 38.53C37.02 38.48 45.9151 13.9849 45.9651 13.9C50.8863 22.3252 55.7764 30.7685 60.6351 39.23L75.3851 64.8051L75.5 65L20.76 64.9949L37.35 62.06ZM4.5 58.94C4.5 58.9251 8.555 51.88 13.5151 43.2849L22.5349 27.65L33.0451 18.83C38.8251 13.9851 43.57 10 43.5849 10C43.5477 10.1479 43.4923 10.2907 43.42 10.425L32 34.9049L20.8 58.9449L12.65 58.9551C8.165 58.96 4.5 58.9551 4.5 58.94Z" fill="#0089D6"/>
</svg>
