<svg width="80" height="80" viewBox="0 0 80 80" fill="none" xmlns="http://www.w3.org/2000/svg">
<path d="M14.7556 68.0025L9.14062 5H70.8607L65.2381 67.9925L39.9632 75L14.7556 68.0025Z" fill="#1572B6"/>
<path d="M40 69.6451L60.4251 63.9826L65.23 10.1526H40V69.6451Z" fill="#33A9DC"/>
<path d="M40 32.9774H50.2251L50.93 25.0649H40V17.3374H40.0275H59.3749L59.19 19.4099L57.2925 40.7049H40V32.9774Z" fill="white"/>
<path d="M40.049 53.045L40.014 53.055L31.409 50.7299L30.859 44.5674H26.6765H23.1016L24.184 56.6999L40.0116 61.095L40.049 61.085V53.045Z" fill="#EBEBEB"/>
<path d="M49.5709 40.3774L48.6409 50.7249L40.0234 53.05V61.09L55.8634 56.7L55.9809 55.3949L57.3234 40.3774H49.5709Z" fill="white"/>
<path d="M40.0295 17.3374V22.1374V25.0449V25.0649H21.3895H21.3644L21.2095 23.3274L20.8569 19.4099L20.6719 17.3374H40.0295Z" fill="#EBEBEB"/>
<path d="M40 32.9775V37.7775V40.685V40.705H31.5274H31.5025L31.3474 38.9675L30.9974 35.0501L30.8125 32.9775H40Z" fill="#EBEBEB"/>
</svg>
