<svg width="80" height="80" viewBox="0 0 80 80" fill="none" xmlns="http://www.w3.org/2000/svg">
<g clip-path="url(#clip0_5235_1084)">
<mask id="mask0_5235_1084" style="mask-type:luminance" maskUnits="userSpaceOnUse" x="0" y="0" width="80" height="80">
<path d="M80 0H0V80H80V0Z" fill="white"/>
</mask>
<g mask="url(#mask0_5235_1084)">
<path d="M63.0933 47.2634C62.38 47.5634 61.67 47.7134 60.95 47.7134C59.81 47.7134 58.7833 47.5167 57.8733 47.12C56.9967 46.7483 56.2117 46.1898 55.5733 45.4834C54.95 44.7867 54.4667 43.9734 54.1333 43.0334C53.8 42.0934 53.6367 41.08 53.6367 39.9967C53.6367 38.88 53.8033 37.8534 54.1333 36.8967C54.4667 35.94 54.94 35.11 55.5633 34.4067C56.1981 33.688 56.9833 33.1179 57.8633 32.7367C58.8344 32.3188 59.8829 32.111 60.94 32.1267C61.7067 32.1267 62.4433 32.2467 63.1533 32.4734C63.8667 32.7034 64.5133 33.0434 65.09 33.4867C65.6667 33.93 66.1433 34.4834 66.5133 35.14C66.8976 35.8348 67.1315 36.6024 67.2 37.3934H64.0833C63.8867 36.5634 63.5133 35.9367 62.96 35.52C62.3743 35.0918 61.6619 34.8723 60.9367 34.8967C60.2 34.8967 59.5767 35.04 59.0633 35.3234C58.55 35.6067 58.13 35.9867 57.8133 36.47C57.4967 36.9534 57.26 37.4967 57.1167 38.1067C56.9733 38.7167 56.8967 39.3467 56.8967 40.0034C56.8967 40.6267 56.9667 41.2367 57.1167 41.83C57.26 42.4234 57.4967 42.9534 57.8133 43.4267C58.13 43.9 58.55 44.28 59.0633 44.5667C59.5767 44.8534 60.2033 44.9934 60.9367 44.9934C62.02 44.9934 62.86 44.7167 63.45 44.17C64.0433 43.6234 64.3833 42.8334 64.4867 41.79H61.1967V39.3334H67.4367V47.3767H65.3567L65.0233 45.6934C64.5287 46.3768 63.8632 46.9183 63.0933 47.2634ZM72.7467 32.5V44.6067H80V47.3667H69.4833V32.5H72.7467ZM9.28333 39.9967C9.28333 37.6334 10.4267 35.41 12.4433 33.4567L16.14 47.5267H18.6867L22.27 34.81L25.8033 47.5267H28.3567L32.76 31.34H29.8933L27.0233 43.7567L23.56 31.3367H20.9333L17.47 43.7534L14.67 31.6467C19.6333 28.23 27.5633 26.0134 36.4967 26.0134C44.87 26.0134 52.3767 27.7767 57.3667 30.83C51.9267 25.7134 42.15 22.1234 30.9833 22.1167C13.87 22.1167 0 30.12 0 39.9967C0 49.8734 13.87 57.8867 30.9767 57.8867C42.1033 57.8867 51.8467 54.3034 57.31 49.22C52.32 52.2567 44.84 53.98 36.4967 53.98C21.4633 53.9767 9.28333 47.7234 9.28333 39.9967ZM39.93 38.1534C39.552 37.6092 39.0429 37.1691 38.45 36.8734C37.8035 36.5636 37.0935 36.4095 36.3767 36.4234C35.5067 36.4234 34.7233 36.58 34.0433 36.89C33.4043 37.183 32.8452 37.6254 32.4133 38.18C31.6 39.2167 31.1733 40.68 31.1733 42.41C31.1733 43.1767 31.2833 43.9034 31.4967 44.5534C31.6968 45.1827 32.0197 45.7662 32.4467 46.27C33.3167 47.2834 34.5567 47.82 36.0367 47.82C36.8133 47.82 37.4433 47.74 37.9733 47.5734C38.4333 47.43 38.74 47.24 38.9933 47.0767C39.6133 46.6636 40.1217 46.1036 40.4733 45.4467C40.7733 44.8934 40.9233 44.37 40.9567 44.1034L40.98 43.92H38.87L38.8633 44.07C38.8067 44.7567 37.9067 45.9834 36.3 45.9834C34.0067 45.9834 33.46 44.3234 33.42 42.86H41.1067V42.6934C41.1171 41.8339 41.0219 40.9764 40.8233 40.14C40.6465 39.4299 40.3439 38.757 39.93 38.1534ZM36.1333 38.32C37.8333 38.32 38.7433 39.2367 38.91 41.12H33.4067C33.49 39.5934 34.7 38.32 36.1333 38.32ZM51.7267 39.7034C51.5379 39.0807 51.2349 38.4987 50.8333 37.9867C50.4408 37.4975 49.9428 37.1034 49.3767 36.8334C48.7649 36.5499 48.0976 36.4064 47.4233 36.4134C46.8075 36.4102 46.2001 36.5567 45.6533 36.84C45.2093 37.0694 44.8168 37.387 44.5 37.7734V32.8067H42.3967V47.5167H44.3967V46.5134C44.5945 46.777 44.8317 47.0086 45.1 47.2C45.67 47.61 46.3733 47.8167 47.1867 47.8167C48.0633 47.8167 48.8567 47.62 49.52 47.23C50.1133 46.8834 50.62 46.3834 51.0133 45.75C51.3792 45.1484 51.6439 44.4908 51.7967 43.8034C51.9497 43.1443 52.0269 42.47 52.0267 41.7934C52.0391 41.0852 51.9379 40.3795 51.7267 39.7034ZM49.8367 42.0934C49.8367 43.2467 49.6067 44.2134 49.1633 44.8934C48.9531 45.2362 48.6556 45.5171 48.3013 45.7074C47.9471 45.8978 47.5485 45.9907 47.1467 45.9767C45.89 45.9767 44.4167 45.1 44.4167 42.6167C44.4167 41.43 44.5667 40.5134 44.8667 39.8167C45.3 38.8134 46.0367 38.33 47.1033 38.33C48.2433 38.33 49.01 38.7734 49.4367 39.6967C49.79 40.4534 49.8367 41.38 49.8367 42.0934Z" fill="black"/>
</g>
</g>
<defs>
<clipPath id="clip0_5235_1084">
<rect width="80" height="80" fill="white"/>
</clipPath>
</defs>
</svg>
