<svg width="80" height="80" viewBox="0 0 80 80" fill="none" xmlns="http://www.w3.org/2000/svg">
<path d="M26.621 64.3348C26.2307 63.6158 26.0926 62.7867 26.2284 61.9799H9.61842L34.291 18.5424L44.6884 37.0674L47.9584 34.6274L37.691 16.1674C37.3475 15.5363 36.854 14.9994 36.2542 14.6039C35.6543 14.2084 34.9663 13.9667 34.251 13.8999C33.5306 13.9296 32.8331 14.1622 32.2391 14.5708C31.6451 14.9795 31.1787 15.5476 30.8934 16.2099L5.89342 60.1924C5.51317 60.809 5.29397 61.5112 5.25595 62.2346C5.21795 62.958 5.36237 63.6794 5.67593 64.3324C6.05617 64.9383 6.59909 65.425 7.24271 65.7371C7.88634 66.0491 8.60474 66.174 9.31593 66.0974H30.251C29.5411 66.1764 28.8234 66.0543 28.1798 65.7448C27.536 65.4354 26.9924 64.9511 26.611 64.3474L26.621 64.3348Z" fill="#00C58E"/>
<path d="M74.089 60.28L53.9715 24.5576C53.6445 23.9262 53.1637 23.3875 52.5733 22.9911C51.983 22.5948 51.3022 22.3538 50.5941 22.29C49.8903 22.3199 49.2094 22.5488 48.6306 22.9502C48.0518 23.3516 47.5987 23.909 47.3241 24.5576L44.6641 28.8076V37.0576L50.5915 26.88L70.469 62.0576H62.9066C63.0269 62.7698 62.9202 63.5019 62.6015 64.15L62.5366 64.28C62.127 64.8608 61.5806 65.3316 60.9457 65.6508C60.3107 65.97 59.607 66.1278 58.8966 66.11H70.7315C71.4423 66.1298 72.1467 65.9728 72.7821 65.6535C73.4173 65.3342 73.9634 64.8623 74.3715 64.28C74.691 63.6491 74.8315 62.9427 74.7778 62.2375C74.7241 61.5323 74.4781 60.8552 74.0666 60.28H74.089Z" fill="#108775"/>
<path d="M63.0807 64.25L63.1456 64.12L63.3207 63.7725C63.534 63.2149 63.5868 62.6086 63.4732 62.0225C63.3615 61.3828 63.1327 60.7692 62.7982 60.2125L47.0832 32.9625L44.7082 28.8225H44.6656L42.2682 32.9425L26.5756 60.1925C26.2699 60.7482 26.0635 61.3532 25.9656 61.98C25.8176 62.7842 25.9482 63.6149 26.3356 64.335C26.7307 64.941 27.2863 65.4256 27.9404 65.7345C28.5946 66.0436 29.3216 66.1649 30.0407 66.085H59.3107C60.0427 66.1082 60.7692 65.9516 61.4266 65.6285C62.0839 65.3056 62.6519 64.8262 63.0807 64.2325V64.25ZM44.6632 37.09L59.0482 62H30.2782L44.6632 37.09Z" fill="#2F495E"/>
</svg>
