<svg width="107" height="80" viewBox="0 0 107 80" fill="none" xmlns="http://www.w3.org/2000/svg">
<g clip-path="url(#clip0_5235_1007)">
<mask id="mask0_5235_1007" style="mask-type:luminance" maskUnits="userSpaceOnUse" x="0" y="0" width="107" height="80">
<path d="M106.667 0H0V80H106.667V0Z" fill="white"/>
</mask>
<g mask="url(#mask0_5235_1007)">
<path d="M91.7923 45.9583C88.0631 45.9793 84.8339 46.8749 82.1257 48.2085C81.1257 46.2293 80.1257 44.5 79.9593 43.2085C79.7717 41.7085 79.5426 40.7916 79.7717 39.0001C80.0007 37.2083 81.0423 34.6666 81.0423 34.4582C81.0213 34.2707 80.813 33.3541 78.6674 33.3333C76.5218 33.3125 74.6674 33.75 74.459 34.3125C74.2506 34.8749 73.8339 36.1667 73.5632 37.5C73.1882 39.4582 69.2714 46.3958 67.0423 50.0415C66.3132 48.625 65.6882 47.3749 65.563 46.3747C65.3756 44.8749 65.1463 43.958 65.3756 42.1667C65.6048 40.3747 66.6466 37.8333 66.6466 37.625C66.6256 37.4374 66.4174 36.5208 64.2716 36.5C62.1257 36.479 60.2716 36.9165 60.0634 37.479C59.8551 38.0415 59.6259 39.3749 59.1676 40.6666C58.7298 41.9583 53.5216 53.5416 52.1673 56.5624C51.4798 58.1041 50.8759 59.3333 50.4382 60.1667C50.0007 60.9999 50.4174 60.2291 50.3756 60.3125C50.0007 61.0207 49.7923 61.4166 49.7923 61.4166V61.4376C49.5006 61.9585 49.1882 62.4582 49.0421 62.4582C48.9379 62.4582 48.7296 61.0625 49.0837 59.146C49.8546 55.1249 51.7296 48.8543 51.709 48.6252C51.709 48.521 52.0629 47.4166 50.5004 46.8543C48.9795 46.2918 48.4382 47.2293 48.3129 47.2293C48.1879 47.2293 48.0837 47.5626 48.0837 47.5626C48.0837 47.5626 49.7714 40.5004 44.8546 40.5004C41.7714 40.5004 37.5212 43.8545 35.417 46.9171C34.0837 47.6461 31.2505 49.1877 28.2505 50.8337C27.1047 51.4586 25.9171 52.1253 24.7922 52.7295L24.5632 52.479C18.6048 46.1249 7.584 41.625 8.04233 33.0833C8.20899 29.9791 9.29234 21.7916 29.2092 11.8749C45.5218 3.74993 58.5842 5.97908 60.8549 10.9374C64.0841 18.0207 53.8757 31.1875 36.9175 33.0833C30.4592 33.8124 27.0631 31.3125 26.2092 30.3749C25.3134 29.3958 25.1884 29.3541 24.8551 29.5416C24.3134 29.8333 24.6467 30.7082 24.8551 31.2291C25.355 32.5416 27.4384 34.8749 30.9801 36.0415C34.0841 37.0625 41.6675 37.625 50.8343 34.0833C61.105 30.1041 69.1258 19.0625 66.7717 9.83325C64.3758 0.437422 48.7925 -2.64591 34.0634 2.58326C25.2922 5.70826 15.7923 10.5833 8.959 16.9791C0.833994 24.5624 -0.457674 31.1875 0.0839926 33.9373C1.98003 43.75 15.5007 50.1457 20.9173 54.8749C20.6466 55.0205 20.3964 55.1663 20.1673 55.2917C17.459 56.6246 7.14649 62.0207 4.56316 67.7288C1.64649 74.1873 5.02149 78.8333 7.2715 79.4582C14.2298 81.3958 21.3548 77.9165 25.209 72.1875C29.0421 66.4582 28.584 59.0207 26.8131 55.625L26.7504 55.5L28.8755 54.2499C30.2506 53.4374 31.6048 52.6874 32.7922 52.0413C32.1257 53.854 31.6462 55.9997 31.3964 59.1247C31.1049 62.7916 32.6048 67.5414 34.584 69.4165C35.459 70.2287 36.5006 70.2497 37.1465 70.2497C39.4382 70.2497 40.4798 68.3537 41.6256 66.0831C43.0423 63.3123 44.2922 60.1039 44.2922 60.1039C44.2922 60.1039 42.7298 68.7914 47.0007 68.7914C48.5632 68.7914 50.1257 66.7706 50.8339 65.7288V65.7498C50.8339 65.7498 50.8757 65.6872 50.9589 65.5414C51.0464 65.4122 51.1298 65.2803 51.209 65.1457V65.1041C51.8339 64.0207 53.2298 61.5416 55.3132 57.4374C58.0005 52.1457 60.584 45.5208 60.584 45.5208C60.584 45.5208 60.8339 47.1457 61.6048 49.8124C62.0629 51.396 63.0629 53.1249 63.8338 54.8124C63.2089 55.6874 62.8338 56.1877 62.8338 56.1877L62.8546 56.2085C62.3548 56.8751 61.7922 57.5837 61.209 58.2918C59.0841 60.8335 56.5424 63.7295 56.209 64.5628C55.8131 65.5418 55.8965 66.271 56.6674 66.8545C57.2298 67.2712 58.2298 67.3542 59.2922 67.2712C61.209 67.146 62.5424 66.6669 63.209 66.3752C64.2506 66.0001 65.4382 65.4376 66.584 64.6044C68.6674 63.0629 69.9381 60.8753 69.8131 57.9587C69.7507 56.3546 69.2298 54.7711 68.584 53.2712C68.7715 53.0003 68.9593 52.7293 69.1465 52.4378C72.4382 47.6252 74.9799 42.3336 74.9799 42.3336C74.9799 42.3336 75.2299 43.9587 76.0007 46.6253C76.3962 47.9795 77.1882 49.4589 77.8965 50.9173C74.8131 53.438 72.8757 56.3548 72.209 58.2714C70.9799 61.8131 71.9381 63.4172 73.7507 63.7923C74.563 63.9589 75.7298 63.5839 76.6046 63.2088C77.688 62.8547 79.0005 62.2504 80.209 61.3548C82.2922 59.8131 84.2922 57.6673 84.1882 54.7713C84.1257 53.438 83.7715 52.1256 83.2922 50.8755C85.9173 49.7923 89.3129 49.1672 93.6256 49.6881C102.897 50.7713 104.73 56.5631 104.376 58.9797C104.022 61.3965 102.084 62.7297 101.438 63.1464C100.792 63.5421 100.584 63.6883 100.647 63.9797C100.73 64.4173 101.021 64.3964 101.584 64.3133C102.355 64.188 106.459 62.3341 106.626 57.876C106.876 52.1461 101.438 45.8959 91.7923 45.9583ZM20.2922 70.0625C17.2298 73.4166 12.9173 74.6874 11.084 73.604C9.10483 72.4582 9.87545 67.5208 13.6465 63.9583C15.9382 61.7916 18.9173 59.7916 20.8757 58.5624C21.3132 58.2916 21.9799 57.8959 22.7715 57.4166C22.8965 57.3334 22.9799 57.2917 22.9799 57.2917C23.1257 57.2083 23.2922 57.1041 23.459 56.9999C24.8549 62.0833 23.5216 66.5416 20.2922 70.0625ZM42.6882 54.8333C41.6256 57.4374 39.3756 64.1249 38.0215 63.75C36.8546 63.4374 36.1465 58.3749 37.7922 53.3749C38.6254 50.854 40.3962 47.8541 41.438 46.6872C43.1257 44.8122 44.9587 44.1873 45.4174 44.958C45.9589 45.9583 43.3548 53.2083 42.6882 54.8333ZM61.1673 63.6666C60.709 63.8959 60.2922 64.0625 60.1049 63.9377C59.9589 63.8543 60.2921 63.5418 60.2921 63.5418C60.2921 63.5418 62.6046 61.0627 63.5212 59.9167C64.0421 59.2504 64.6672 58.4796 65.3338 57.6044V57.8543C65.334 60.8541 62.459 62.8541 61.1673 63.6666ZM75.417 60.4166C75.0837 60.1667 75.1257 59.3958 76.2505 56.9791C76.6882 56.0207 77.688 54.4166 79.417 52.8957C79.6254 53.5208 79.7507 54.1247 79.7296 54.6874C79.709 58.4374 77.0423 59.8333 75.417 60.4166Z" fill="#CF649A"/>
</g>
</g>
<defs>
<clipPath id="clip0_5235_1007">
<rect width="106.667" height="80" fill="white"/>
</clipPath>
</defs>
</svg>
