<svg width="80" height="80" viewBox="0 0 80 80" fill="none" xmlns="http://www.w3.org/2000/svg">
<path d="M5 5.68262L64.9475 69.1826C65.4809 69.5739 66.1357 69.7635 66.7957 69.7178C67.4557 69.6721 68.0781 69.3938 68.5525 68.9326C68.9925 68.501 69.2689 67.9299 69.3345 67.3171C69.4003 66.7043 69.2511 66.0877 68.9125 65.5726L5 5.68262Z" fill="#DF4F4F"/>
<path d="M23.9844 11.6851L69.6344 60.9001C70.1678 61.2914 70.8226 61.481 71.4826 61.4353C72.1426 61.3894 72.765 61.1113 73.2394 60.6501C73.6794 60.2185 73.9558 59.6474 74.0214 59.0346C74.0872 58.4217 73.938 57.8052 73.5994 57.2901L23.9844 11.6851Z" fill="#DF4F4F"/>
<path d="M10.6484 24.5273L56.2984 73.7499C56.8319 74.1412 57.4867 74.3308 58.1467 74.2851C58.8067 74.2393 59.4291 73.9611 59.9034 73.4999C60.3434 73.0683 60.6199 72.4972 60.6855 71.8844C60.7512 71.2716 60.602 70.6549 60.2634 70.1399L10.6484 24.5273Z" fill="#DF4F4F"/>
<path d="M40.0234 16.845L71.9185 51.23C72.2902 51.5039 72.747 51.6374 73.2078 51.6067C73.6686 51.576 74.1037 51.3832 74.436 51.0626C74.7433 50.7608 74.9362 50.3618 74.9818 49.9336C75.0274 49.5054 74.9229 49.0746 74.686 48.715L40.0234 16.845Z" fill="#DF4F4F"/>
<path d="M15.0391 39.4126L46.9316 73.7951C47.3035 74.069 47.7601 74.2025 48.2209 74.1718C48.6817 74.1411 49.1169 73.9483 49.4491 73.6275C49.7564 73.3259 49.9495 72.9269 49.9951 72.4986C50.0407 72.0705 49.936 71.6397 49.6991 71.2801L15.0391 39.4126Z" fill="#DF4F4F"/>
<path d="M56.4141 24.2874L70.8691 39.9174C71.0551 40.0487 71.2805 40.1127 71.5078 40.0986C71.735 40.0844 71.9507 39.9932 72.1191 39.8399C72.2702 39.7031 72.3663 39.516 72.3893 39.3135C72.4123 39.111 72.3607 38.9071 72.2441 38.7399L56.4191 24.2874H56.4141Z" fill="#DF4F4F"/>
<path d="M23.0234 55.25L37.4784 70.88C37.6645 71.0113 37.8897 71.0752 38.117 71.0612C38.3444 71.0471 38.56 70.9559 38.7284 70.8025C38.8796 70.6657 38.9756 70.4785 38.9986 70.2761C39.0216 70.0736 38.97 69.8697 38.8534 69.7025L23.0234 55.25Z" fill="#DF4F4F"/>
</svg>
