<svg width="80" height="80" viewBox="0 0 80 80" fill="none" xmlns="http://www.w3.org/2000/svg">
<g clip-path="url(#clip0_5235_986)">
<mask id="mask0_5235_986" style="mask-type:luminance" maskUnits="userSpaceOnUse" x="0" y="0" width="80" height="80">
<path d="M80 0H0V80H80V0Z" fill="white"/>
</mask>
<g mask="url(#mask0_5235_986)">
<path d="M0 0H80V80H0V0Z" fill="#F0DB4F"/>
<path d="M73.4493 60.9206C72.8638 57.2704 70.4836 54.2058 63.4341 51.3464C60.9854 50.221 58.2554 49.415 57.4417 47.5594C57.1528 46.4795 57.1148 45.8711 57.2973 45.2171C57.822 43.0955 60.3542 42.4339 62.3618 43.0423C63.6546 43.4758 64.879 44.472 65.6166 46.0612C69.069 43.8256 69.0614 43.8407 71.4721 42.3047C70.59 40.9359 70.1185 40.3046 69.5406 39.7191C67.4645 37.3998 64.6357 36.2058 60.1109 36.2971C59.3277 36.3959 58.5369 36.5023 57.7536 36.6012C55.495 37.1716 53.3429 38.3579 52.0805 39.9472C48.2934 44.2439 49.3733 51.7647 53.9817 54.8598C58.5216 58.2667 65.1908 59.0423 66.0425 62.2287C66.8714 66.1298 63.1757 67.392 59.5025 66.9435C56.7953 66.3807 55.2897 65.0043 53.6622 62.5024C50.6661 64.2363 50.6661 64.2363 47.5862 66.0082C48.3164 67.6051 49.0844 68.3275 50.3088 69.7115C56.1034 75.5899 70.6052 75.3008 73.2061 66.4035C73.3125 66.0992 74.0121 64.0612 73.4493 60.9206ZM43.4873 36.7684H36.0045C36.0045 43.2324 35.9741 49.6506 35.9741 56.1144C35.9741 60.2286 36.187 64.0004 35.5178 65.1563C34.4228 67.43 31.5862 67.1487 30.2936 66.7076C28.978 66.0612 28.3088 65.1411 27.533 63.8407C27.3201 63.4682 27.1604 63.1791 27.1072 63.1563C25.0768 64.3959 23.0538 65.643 21.0234 66.8826C22.0349 68.9586 23.5254 70.7608 25.4341 71.9319C28.2858 73.643 32.1185 74.1676 36.1262 73.2475C38.7346 72.4871 40.9854 70.913 42.1641 68.5175C43.8676 65.3768 43.5025 61.5746 43.4873 57.3692C43.5254 50.5099 43.4873 43.6506 43.4873 36.7684Z" fill="#323330"/>
</g>
</g>
<defs>
<clipPath id="clip0_5235_986">
<rect width="80" height="80" fill="white"/>
</clipPath>
</defs>
</svg>
