<svg width="80" height="80" viewBox="0 0 80 80" fill="none" xmlns="http://www.w3.org/2000/svg">
<g clip-path="url(#clip0_5235_1064)">
<mask id="mask0_5235_1064" style="mask-type:luminance" maskUnits="userSpaceOnUse" x="0" y="0" width="80" height="80">
<path d="M80 0H0V80H80V0Z" fill="white"/>
</mask>
<g mask="url(#mask0_5235_1064)">
<path fill-rule="evenodd" clip-rule="evenodd" d="M0 40C0 17.9085 17.9085 0 40 0C62.0912 0 80 17.9085 80 40C80 53.7973 73.0144 65.9632 62.3867 73.1536L26.17 22.4503C25.4961 21.5069 24.2901 21.1069 23.1861 21.4608C22.0823 21.8145 21.3333 22.8409 21.3333 24.0003V64H26.6667V32.3215L57.7595 75.8512C52.4085 78.5072 46.3787 80 40 80C17.9085 80 0 62.0912 0 40ZM53.3333 53.3333V21.3333H58.6667V53.3333H53.3333Z" fill="black"/>
</g>
</g>
<defs>
<clipPath id="clip0_5235_1064">
<rect width="80" height="80" fill="white"/>
</clipPath>
</defs>
</svg>
