<svg width="80" height="80" viewBox="0 0 80 80" fill="none" xmlns="http://www.w3.org/2000/svg">
<g clip-path="url(#clip0_5236_1739)">
<mask id="mask0_5236_1739" style="mask-type:luminance" maskUnits="userSpaceOnUse" x="0" y="0" width="80" height="80">
<path d="M80 0H0V80H80V0Z" fill="white"/>
</mask>
<g mask="url(#mask0_5236_1739)">
<path d="M17.7782 0H62.0906C64.2469 0 66.3406 0.343751 68.3719 1.0625C71.3094 2.125 73.9657 4 75.9657 6.43751C77.9969 8.875 79.3406 11.875 79.8094 15C79.9969 16.1563 80.0281 17.3125 80.0281 18.4688V61.6875C80.0281 63.0625 79.9657 64.4688 79.6843 65.8125C79.0594 68.9063 77.5906 71.8125 75.4657 74.1563C73.3719 76.5 70.6219 78.25 67.6531 79.1875C65.8406 79.75 63.9657 80 62.0594 80C61.2157 80 17.6531 80 16.9969 79.9688C13.8094 79.8125 10.6531 78.7812 7.99688 77C5.40313 75.25 3.27813 72.8125 1.90313 70C0.715629 67.5937 0.121879 64.9063 0.121879 62.2188V17.7812C0.0593789 15.1251 0.621879 12.5 1.77813 10.125C3.12188 7.31251 5.21562 4.84375 7.80938 3.09375C10.4656 1.28125 13.5906 0.218751 16.7782 0.0625C17.0906 0 17.4343 0 17.7782 0Z" fill="url(#paint0_linear_5236_1739)"/>
<path d="M67.5 65.4375C67.2188 65 66.9063 64.5625 66.5625 64.1563C65.7812 63.2188 64.8751 62.4063 63.8751 61.7188C62.6251 60.8749 61.1563 60.3437 59.6563 60.2812C58.5937 60.2188 57.5312 60.4063 56.5312 60.7812C55.5312 61.1251 54.5625 61.6251 53.6251 62.1251C52.5312 62.6875 51.4375 63.25 50.2812 63.7188C48.9063 64.2812 47.4688 64.7188 46 65.0312C44.1563 65.3751 42.2812 65.5 40.4375 65.4688C37.0937 65.4063 33.75 64.9063 30.5625 63.9688C27.75 63.1249 25.0625 61.9688 22.5312 60.5C20.3125 59.2188 18.25 57.75 16.3125 56.0937C14.7188 54.7188 13.25 53.25 11.875 51.6875C10.9375 50.5937 10.0313 49.4375 9.18751 48.25C8.84375 47.7812 8.53125 47.2812 8.25 46.7812L0 37.8749V17.7188C0 7.93751 7.90625 0 17.6875 0H33.4688L45.1563 11.875C71.5312 29.8125 63 49.5937 63 49.5937C63 49.5937 70.5 58.0312 67.5 65.4375Z" fill="url(#paint1_linear_5236_1739)"/>
<path d="M45.2188 11.875C71.5937 29.8125 63.0625 49.5937 63.0625 49.5937C63.0625 49.5937 70.5625 58.0625 67.5312 65.4688C67.5312 65.4688 64.4375 60.2812 59.25 60.2812C54.25 60.2812 51.3125 65.4688 41.25 65.4688C18.8437 65.4688 8.25 46.75 8.25 46.75C28.4375 60.0312 42.2188 50.6251 42.2188 50.6251C33.1251 45.3437 13.7812 20.0937 13.7812 20.0937C30.6251 34.4375 37.9063 38.2188 37.9063 38.2188C33.5625 34.6251 21.3751 17.0625 21.3751 17.0625C31.1251 26.9375 50.5 40.7188 50.5 40.7188C56 25.4688 45.2188 11.875 45.2188 11.875Z" fill="white"/>
</g>
</g>
<defs>
<linearGradient id="paint0_linear_5236_1739" x1="47.5878" y1="-2.85469" x2="32.4731" y2="82.8644" gradientUnits="userSpaceOnUse">
<stop stop-color="#FAAE42"/>
<stop offset="1" stop-color="#EF3E31"/>
</linearGradient>
<linearGradient id="paint1_linear_5236_1739" x1="40.8163" y1="1.2925" x2="29.7541" y2="64.0291" gradientUnits="userSpaceOnUse">
<stop stop-color="#E39F3A"/>
<stop offset="1" stop-color="#D33929"/>
</linearGradient>
<clipPath id="clip0_5236_1739">
<rect width="80" height="80" fill="white"/>
</clipPath>
</defs>
</svg>
