<svg width="80" height="80" viewBox="0 0 80 80" fill="none" xmlns="http://www.w3.org/2000/svg">
<path d="M58.875 49.6475L61.1861 43.8032H67.8591L64.6923 34.9379L68.6529 24.9219L79.9971 55.042H71.6313L69.6927 49.6475H58.875Z" fill="#3D3D3D"/>
<path d="M51.7369 55.0421L63.8812 24.9219H55.83L47.5226 44.3863L41.6153 24.922H35.4266L29.0837 44.3863L24.6105 35.5168L20.5625 47.9881L24.6725 55.0421H32.5958L38.3277 37.5868L43.7926 55.0421H51.7369Z" fill="#5A0FC8"/>
<path d="M7.64245 44.7023H12.6016C14.1039 44.7023 15.4415 44.5347 16.6145 44.1993L17.8971 40.2481L21.4815 29.2053C21.2084 28.7724 20.8965 28.3631 20.5461 27.9775C18.7057 25.9404 16.0131 24.9219 12.4681 24.9219H0V55.042H7.64245V44.7023ZM14.2067 31.8513C14.9255 32.5748 15.2849 33.5429 15.2849 34.7559C15.2849 35.9781 14.9688 36.9475 14.3365 37.6639C13.6436 38.46 12.3675 38.858 10.5084 38.858H7.64245V30.766H10.5294C12.2621 30.766 13.4879 31.1279 14.2067 31.8513Z" fill="#3D3D3D"/>
</svg>
