<svg width="89" height="80" viewBox="0 0 89 80" fill="none" xmlns="http://www.w3.org/2000/svg">
<g clip-path="url(#clip0_5236_1752)">
<path d="M73.0844 25.6332C72.1624 25.3159 71.207 25.0156 70.2231 24.7316C70.3847 24.0716 70.5332 23.4201 70.6652 22.7799C72.8313 12.2656 71.415 3.79523 66.579 1.00642C61.9418 -1.66767 54.3581 1.1205 46.699 7.78603C45.9624 8.42699 45.2239 9.1056 44.4856 9.8168C43.9936 9.34625 43.5025 8.89153 43.0127 8.45658C34.9856 1.32935 26.9398 -1.67416 22.1086 1.12271C17.4759 3.80456 16.1039 11.7675 18.0536 21.732C18.2419 22.6944 18.4621 23.6773 18.711 24.6766C17.5721 24.9999 16.4729 25.3444 15.421 25.7111C6.01018 28.9921 0 34.1342 0 39.468C0 44.9769 6.45194 50.5022 16.2541 53.8526C17.0276 54.1169 17.8302 54.367 18.6575 54.6043C18.3889 55.685 18.1554 56.7441 17.9594 57.7772C16.1003 67.5687 17.5521 75.3436 22.1724 78.0084C26.9449 80.7606 34.9544 77.9317 42.7535 71.1144C43.3699 70.5754 43.9886 70.0039 44.6083 69.4049C45.4117 70.1784 46.2136 70.9105 47.0114 71.5972C54.5658 78.0981 62.0271 80.7231 66.6431 78.0507C71.4108 75.2907 72.9603 66.9387 70.9487 56.7772C70.7951 56.001 70.6163 55.2081 70.4154 54.4013C70.9779 54.235 71.5301 54.0633 72.0686 53.8849C82.2588 50.5086 88.8889 45.0504 88.8889 39.468C88.8889 34.115 82.6849 28.9381 73.0844 25.6332ZM70.8744 50.2804C70.3883 50.4413 69.8895 50.5969 69.3813 50.7477C68.2564 47.1862 66.7381 43.3993 64.8801 39.4865C66.6532 35.6671 68.1127 31.9284 69.2062 28.3902C70.1156 28.6533 70.9981 28.9308 71.8484 29.2237C80.0741 32.0554 85.0916 36.2421 85.0916 39.468C85.0916 42.9043 79.6729 47.365 70.8744 50.2804ZM67.2236 57.5145C68.113 62.0079 68.2401 66.0704 67.6508 69.2462C67.1215 72.0998 66.0567 74.0025 64.7404 74.7644C61.9391 76.3859 55.9486 74.2782 49.4879 68.7187C48.7473 68.0813 48.0012 67.4009 47.2529 66.6806C49.7575 63.9413 52.2607 60.7569 54.7038 57.2201C59.0009 56.8388 63.0607 56.2154 66.7424 55.3643C66.9237 56.0958 67.0847 56.8132 67.2236 57.5145ZM30.3043 74.4843C27.5673 75.4508 25.3876 75.4785 24.0698 74.7188C21.2661 73.1016 20.1004 66.8591 21.6904 58.4855C21.8724 57.5265 22.0892 56.5413 22.3391 55.5345C25.9803 56.3397 30.0104 56.9191 34.3178 57.2683C36.7773 60.729 39.3529 63.9101 41.9483 66.6954C41.3813 67.2428 40.8164 67.764 40.2548 68.2551C36.8061 71.2696 33.3499 73.4084 30.3043 74.4843ZM17.4822 50.2594C13.1479 48.7779 9.56841 46.8526 7.11489 44.7516C4.91024 42.8634 3.79714 40.989 3.79714 39.468C3.79714 36.2313 8.62273 32.1028 16.671 29.2967C17.6476 28.9563 18.6698 28.6354 19.7307 28.3341C20.843 31.9523 22.3021 35.7351 24.0628 39.5604C22.2793 43.4425 20.7994 47.2858 19.6761 50.9464C18.9199 50.7289 18.1873 50.5001 17.4822 50.2594ZM21.7803 21.0027C20.1098 12.4654 21.2191 6.02519 24.011 4.40913C26.9847 2.68753 33.5606 5.14216 40.4913 11.2962C40.9344 11.6895 41.3791 12.1012 41.825 12.5271C39.2425 15.3003 36.6905 18.4575 34.2527 21.8978C30.0723 22.2852 26.0705 22.9077 22.3913 23.7412C22.16 22.8107 21.9551 21.8964 21.7803 21.0027ZM60.1228 30.4705C59.2433 28.9513 58.3403 27.468 57.4198 26.0252C60.256 26.3837 62.9732 26.8596 65.525 27.4419C64.759 29.8973 63.804 32.4644 62.68 35.0961C61.8738 33.5653 61.0209 32.0219 60.1228 30.4705ZM44.4868 15.2409C46.2384 17.1385 47.9924 19.257 49.7176 21.5557C47.9791 21.4736 46.2191 21.4308 44.4444 21.4308C42.6867 21.4308 40.9396 21.4726 39.2117 21.5533C40.9387 19.276 42.708 17.1603 44.4868 15.2409ZM28.7507 30.4967C27.872 32.0203 27.0351 33.5554 26.2415 35.0932C25.1356 32.4707 24.1896 29.8919 23.4169 27.4018C25.953 26.8342 28.6575 26.3702 31.4756 26.0185C30.5421 27.4745 29.6317 28.9692 28.7507 30.4967ZM31.5567 53.1884C28.6452 52.8637 25.9 52.4236 23.3644 51.8717C24.1496 49.337 25.1164 46.7033 26.2456 44.0241C27.0413 45.561 27.8818 47.0967 28.7656 48.6236C29.6661 50.179 30.5991 51.7027 31.5567 53.1884ZM44.5919 63.9628C42.7921 62.021 40.997 59.873 39.2437 57.5625C40.9456 57.6293 42.6809 57.6634 44.4444 57.6634C46.2563 57.6634 48.0473 57.6227 49.8102 57.5441C48.0793 59.8963 46.3316 62.0476 44.5919 63.9628ZM62.7163 43.8877C63.9043 46.5956 64.9059 49.2157 65.7012 51.7071C63.1239 52.295 60.3412 52.7686 57.4093 53.1204C58.3321 51.6582 59.243 50.1493 60.1381 48.5973C61.0436 47.0273 61.9034 45.4547 62.7163 43.8877ZM56.8487 46.7003C55.4593 49.1096 54.0327 51.4095 52.5846 53.5804C49.947 53.769 47.2219 53.8662 44.4444 53.8662C41.6782 53.8662 38.9876 53.7803 36.3966 53.612C34.8899 51.4126 33.4324 49.1059 32.0518 46.721C30.6748 44.3427 29.4077 41.9441 28.2594 39.5593C29.4074 37.1686 30.6714 34.7674 32.0406 32.3933C33.4132 30.0129 34.8576 27.7179 36.3504 25.5323C38.9939 25.3324 41.7047 25.2281 44.4443 25.2281C47.1963 25.2281 49.9107 25.3332 52.5535 25.5348C54.0233 27.7044 55.4582 29.9924 56.8363 32.3733C58.2301 34.7807 59.5104 37.1659 60.6683 39.5052C59.5139 41.8847 58.2364 44.2939 56.8487 46.7003ZM64.6822 4.29615C67.6588 6.0127 68.8163 12.9355 66.9462 22.0135C66.8268 22.5927 66.6926 23.1827 66.5467 23.7806C62.8588 22.9296 58.8542 22.2964 54.6616 21.9031C52.2191 18.425 49.688 15.263 47.1476 12.5254C47.8305 11.8683 48.5126 11.2417 49.1918 10.6505C55.7542 4.93948 61.8877 2.68467 64.6822 4.29615ZM44.4444 31.5305C48.8281 31.5305 52.3819 35.0843 52.3819 39.468C52.3819 43.8517 48.8281 47.4055 44.4444 47.4055C40.0607 47.4055 36.507 43.8517 36.507 39.468C36.507 35.0843 40.0607 31.5305 44.4444 31.5305Z" fill="#00D8FF"/>
</g>
<defs>
<clipPath id="clip0_5236_1752">
<rect width="88.8889" height="80" fill="white"/>
</clipPath>
</defs>
</svg>
