<svg width="80" height="80" viewBox="0 0 80 80" fill="none" xmlns="http://www.w3.org/2000/svg">
<g clip-path="url(#clip0_5236_1759)">
<mask id="mask0_5236_1759" style="mask-type:luminance" maskUnits="userSpaceOnUse" x="0" y="0" width="80" height="80">
<path d="M80 0H0V80H80V0Z" fill="white"/>
</mask>
<g mask="url(#mask0_5236_1759)">
<path d="M40.0473 0.0003705C46.5403 0.0003705 52.654 1.51733 58.3887 4.45572L59.1469 4.83487L58.4835 5.3562C56.872 6.63581 55.5924 8.29459 54.7867 10.1903L54.5497 10.7116L54.0759 10.4747C49.6683 8.38937 44.9763 7.29932 40.0948 7.29932C22.0379 7.29932 7.39336 21.9912 7.39336 40.0008C7.39336 58.0103 21.9905 72.7021 40.0473 72.7021C58.1043 72.7021 72.7488 58.0103 72.7488 40.0008C72.7488 35.688 71.9431 31.47 70.2369 27.4889L70 26.9676L70.5213 26.7307C72.4644 26.0197 74.1707 24.8348 75.5451 23.3183L76.0664 22.6548L76.3981 23.4131C78.8152 28.6737 80 34.2661 80 39.906C80 61.9439 62.0379 79.906 40 79.906C17.9621 79.906 0 61.9439 0 39.906C0 17.868 17.9621 -0.0940428 40.0473 0.0003705ZM40.0473 21.8017C50.0473 21.8017 58.2464 29.9533 58.2939 40.0481C58.2939 50.1429 50.1421 58.2945 40.0473 58.2945C29.9527 58.2945 21.8009 50.1429 21.8009 40.0481C21.8009 29.9533 30 21.8017 40.0473 21.8017ZM66.1612 6.7306C70.7679 6.7306 74.5024 10.4651 74.5024 15.0719C74.5024 19.6785 70.7679 23.4131 66.1612 23.4131C61.5544 23.4131 57.8199 19.6785 57.8199 15.0719C57.8199 10.4651 61.5544 6.7306 66.1612 6.7306Z" fill="#3880FF"/>
</g>
</g>
<defs>
<clipPath id="clip0_5236_1759">
<rect width="80" height="80" fill="white"/>
</clipPath>
</defs>
</svg>
