<svg width="80" height="80" viewBox="0 0 80 80" fill="none" xmlns="http://www.w3.org/2000/svg">
<g clip-path="url(#clip0_5236_1749)">
<path d="M39.8911 80C18.3965 80 0.168529 61.8453 0.00101182 40.2147C-0.0363692 34.9967 0.962364 29.8231 2.93932 24.9939C4.91627 20.1648 7.83212 15.776 11.5178 12.0822C15.2277 8.28247 19.6557 5.25769 24.5444 3.18357C29.4332 1.10946 34.6853 0.0273205 39.9957 1.56792e-05C45.2103 -0.00462883 50.3741 1.02262 55.1899 3.02257C60.0055 5.02252 64.3779 7.95565 68.0549 11.6529C71.7933 15.2972 74.7736 19.6453 76.8239 24.4467C78.8743 29.248 79.954 34.4077 80.0011 39.6283C80.0485 50.2488 75.8908 60.4564 68.4361 68.0209C60.9813 75.5856 50.8356 79.8923 40.2156 80H39.8911ZM40.0167 2.09399C34.9844 2.12347 30.0081 3.15207 25.3764 5.12009C20.7448 7.08812 16.5503 9.95639 13.0359 13.5584C9.54037 17.0532 6.77331 21.2071 4.89519 25.7792C3.01707 30.3513 2.06528 35.2509 2.09497 40.1937C2.25203 60.6936 19.5272 77.8851 39.8805 77.8851H40.1528C50.2229 77.7939 59.8473 73.7195 66.922 66.5525C73.9967 59.3856 77.9461 49.7092 77.9071 39.6388C77.86 34.6929 76.8349 29.8052 74.8907 25.2573C72.9464 20.7093 70.1215 16.5911 66.5787 13.1397C63.1024 9.63255 58.9645 6.85032 54.4049 4.95424C49.8453 3.05817 44.9548 2.08596 40.0167 2.09399Z" fill="#F1592A"/>
<path d="M8.97656 51.7V28.3313H14.6617V30.4253H11.6464V49.648H14.6617V51.7418L8.97656 51.7Z" fill="#F1592A"/>
<path d="M28.2715 39.7854C28.2715 44.0466 25.6855 46.4755 22.1781 46.4755C18.6707 46.4755 16.3359 43.743 16.3359 40.0052C16.3359 36.0999 18.7858 33.3464 22.3666 33.3464C25.9473 33.3464 28.2715 36.2151 28.2715 39.7854ZM18.7858 39.9738C18.7858 42.5599 20.0841 44.6119 22.3142 44.6119C24.5442 44.6119 25.8215 42.5179 25.8215 39.8795C25.8215 37.482 24.6385 35.2204 22.3142 35.2204C19.9899 35.2204 18.7649 37.4087 18.7649 40.0262L18.7858 39.9738Z" fill="#F1592A"/>
<path d="M30.2344 33.7861C31.3477 33.5938 32.4758 33.4993 33.6057 33.5034C34.8749 33.3794 36.1508 33.6617 37.2492 34.3095C37.661 34.5521 38.0005 34.9003 38.2324 35.3182C38.4644 35.7361 38.5804 36.2085 38.5684 36.6862C38.5533 37.3071 38.3428 37.9074 37.9669 38.4018C37.5909 38.8962 37.0686 39.2594 36.4744 39.4398C37.1986 39.5871 37.8497 39.9803 38.3172 40.5527C38.7846 41.1251 39.0398 41.8417 39.0396 42.5807C39.0474 43.0814 38.9412 43.5773 38.729 44.0307C38.5168 44.4843 38.204 44.8835 37.8145 45.1982C36.9141 45.9939 35.4169 46.3813 33.1032 46.3813C32.1513 46.3859 31.2001 46.3301 30.2553 46.2138L30.2344 33.7861ZM32.5377 38.8011H33.7209C35.3228 38.8011 36.2232 38.0473 36.2232 36.9689C36.2232 35.8905 35.3228 35.2309 33.8465 35.2309C33.4046 35.2158 32.9625 35.2474 32.5273 35.3251L32.5377 38.8011ZM32.5377 44.6432C32.9446 44.6852 33.3537 44.7027 33.7628 44.6957C35.2494 44.6957 36.5686 44.1302 36.5686 42.6017C36.5686 41.0731 35.2913 40.5077 33.6894 40.5077H32.5377V44.6432Z" fill="#F1592A"/>
<path d="M43.6209 33.6189H45.9348V41.8796C45.9348 45.387 44.2387 46.5596 41.7468 46.5596C41.0804 46.5541 40.4193 46.441 39.7891 46.2246L40.0717 44.3609C40.5363 44.5061 41.0193 44.5837 41.506 44.5913C42.8252 44.5913 43.6 43.9841 43.6 41.7854L43.6209 33.6189Z" fill="#F1592A"/>
<path d="M52.5193 40.4973V42.0993H47.7031V40.4973H52.5193Z" fill="#F1592A"/>
<path d="M63.7668 45.9416C62.7259 46.3566 61.6096 46.5493 60.4898 46.507C56.4588 46.507 54.009 43.9837 54.009 40.1204C53.9612 39.2202 54.1047 38.3202 54.4298 37.4794C54.755 36.6388 55.2543 35.8764 55.8952 35.2424C56.536 34.6085 57.3038 34.1174 58.148 33.8014C58.9923 33.4854 59.8938 33.3518 60.7934 33.4092C61.8692 33.3646 62.9416 33.5577 63.9343 33.9746L63.4212 35.8173C62.6339 35.4821 61.7852 35.3145 60.9295 35.3252C58.3434 35.3252 56.4798 36.948 56.4798 40.0052C56.4798 42.7902 58.1235 44.591 60.9086 44.591C61.7726 44.6034 62.6304 44.4433 63.4318 44.1198L63.7668 45.9416Z" fill="#F1592A"/>
<path d="M71.0288 28.2686V51.7H65.3438V49.6062H68.3591V30.3626H65.3438V28.2686H71.0288Z" fill="#F1592A"/>
</g>
<defs>
<clipPath id="clip0_5236_1749">
<rect width="80" height="80" fill="white"/>
</clipPath>
</defs>
</svg>
